G04 (created by PCBNEW (2013-07-07 BZR 4022)-stable) date 04/08/2014 11:44:30*
%MOIN*%
G04 Gerber Fmt 3.4, Leading zero omitted, Abs format*
%FSLAX34Y34*%
G01*
G70*
G90*
G04 APERTURE LIST*
%ADD10C,0.00590551*%
%ADD11C,0.00984252*%
%ADD12C,0.00787402*%
%ADD13C,0.011811*%
%ADD14C,0.01*%
%ADD15C,0.008*%
%ADD16C,0.015*%
%ADD17C,0.003*%
%ADD18C,0.006*%
%ADD19C,0.012*%
%ADD20C,0.005*%
%ADD21C,0.01125*%
%ADD22C,0.0035*%
%ADD23C,0.0075*%
%ADD24C,0.0107*%
%ADD25R,0.065X0.065*%
%ADD26C,0.065*%
%ADD27C,0.07*%
%ADD28R,0.06X0.06*%
%ADD29C,0.06*%
%ADD30R,0.07X0.07*%
%ADD31R,0.12X0.12*%
%ADD32C,0.055*%
%ADD33C,0.066*%
%ADD34R,0.055X0.055*%
%ADD35R,0.1X0.1*%
%ADD36C,0.1*%
%ADD37C,0.095*%
%ADD38C,0.0787402*%
%ADD39R,0.09X0.062*%
%ADD40O,0.09X0.062*%
%ADD41C,0.137795*%
%ADD42R,0.0393701X0.0393701*%
%ADD43C,0.0472441*%
%ADD44R,0.038X0.05*%
%ADD45R,0.05X0.038*%
%ADD46O,0.06X0.12*%
%ADD47R,0.06X0.12*%
G04 APERTURE END LIST*
G54D10*
G54D11*
X87193Y-23465D02*
X87006Y-23465D01*
X86987Y-23653D01*
X87006Y-23634D01*
X87043Y-23615D01*
X87137Y-23615D01*
X87174Y-23634D01*
X87193Y-23653D01*
X87212Y-23690D01*
X87212Y-23784D01*
X87193Y-23821D01*
X87174Y-23840D01*
X87137Y-23859D01*
X87043Y-23859D01*
X87006Y-23840D01*
X86987Y-23821D01*
X86174Y-23465D02*
X86100Y-23465D01*
X86062Y-23484D01*
X86043Y-23503D01*
X86006Y-23559D01*
X85987Y-23634D01*
X85987Y-23784D01*
X86006Y-23821D01*
X86025Y-23840D01*
X86062Y-23859D01*
X86137Y-23859D01*
X86174Y-23840D01*
X86193Y-23821D01*
X86212Y-23784D01*
X86212Y-23690D01*
X86193Y-23653D01*
X86174Y-23634D01*
X86137Y-23615D01*
X86062Y-23615D01*
X86025Y-23634D01*
X86006Y-23653D01*
X85987Y-23690D01*
X84968Y-23465D02*
X85231Y-23465D01*
X85062Y-23859D01*
X84062Y-23634D02*
X84025Y-23615D01*
X84006Y-23596D01*
X83987Y-23559D01*
X83987Y-23540D01*
X84006Y-23503D01*
X84025Y-23484D01*
X84062Y-23465D01*
X84137Y-23465D01*
X84174Y-23484D01*
X84193Y-23503D01*
X84212Y-23540D01*
X84212Y-23559D01*
X84193Y-23596D01*
X84174Y-23615D01*
X84137Y-23634D01*
X84062Y-23634D01*
X84025Y-23653D01*
X84006Y-23671D01*
X83987Y-23709D01*
X83987Y-23784D01*
X84006Y-23821D01*
X84025Y-23840D01*
X84062Y-23859D01*
X84137Y-23859D01*
X84174Y-23840D01*
X84193Y-23821D01*
X84212Y-23784D01*
X84212Y-23709D01*
X84193Y-23671D01*
X84174Y-23653D01*
X84137Y-23634D01*
X81012Y-23859D02*
X80787Y-23859D01*
X80900Y-23859D02*
X80900Y-23465D01*
X80862Y-23521D01*
X80825Y-23559D01*
X80787Y-23578D01*
X79787Y-23503D02*
X79806Y-23484D01*
X79843Y-23465D01*
X79937Y-23465D01*
X79974Y-23484D01*
X79993Y-23503D01*
X80012Y-23540D01*
X80012Y-23578D01*
X79993Y-23634D01*
X79768Y-23859D01*
X80012Y-23859D01*
X78768Y-23465D02*
X79012Y-23465D01*
X78881Y-23615D01*
X78937Y-23615D01*
X78974Y-23634D01*
X78993Y-23653D01*
X79012Y-23690D01*
X79012Y-23784D01*
X78993Y-23821D01*
X78974Y-23840D01*
X78937Y-23859D01*
X78825Y-23859D01*
X78787Y-23840D01*
X78768Y-23821D01*
X77974Y-23596D02*
X77974Y-23859D01*
X77881Y-23446D02*
X77787Y-23728D01*
X78031Y-23728D01*
X68200Y-23303D02*
X68218Y-23284D01*
X68256Y-23265D01*
X68350Y-23265D01*
X68387Y-23284D01*
X68406Y-23303D01*
X68425Y-23340D01*
X68425Y-23378D01*
X68406Y-23434D01*
X68181Y-23659D01*
X68425Y-23659D01*
X68781Y-23265D02*
X68593Y-23265D01*
X68574Y-23453D01*
X68593Y-23434D01*
X68631Y-23415D01*
X68724Y-23415D01*
X68762Y-23434D01*
X68781Y-23453D01*
X68799Y-23490D01*
X68799Y-23584D01*
X68781Y-23621D01*
X68762Y-23640D01*
X68724Y-23659D01*
X68631Y-23659D01*
X68593Y-23640D01*
X68574Y-23621D01*
X67100Y-23303D02*
X67118Y-23284D01*
X67156Y-23265D01*
X67250Y-23265D01*
X67287Y-23284D01*
X67306Y-23303D01*
X67325Y-23340D01*
X67325Y-23378D01*
X67306Y-23434D01*
X67081Y-23659D01*
X67325Y-23659D01*
X67662Y-23396D02*
X67662Y-23659D01*
X67568Y-23246D02*
X67474Y-23528D01*
X67718Y-23528D01*
X66100Y-23303D02*
X66118Y-23284D01*
X66156Y-23265D01*
X66250Y-23265D01*
X66287Y-23284D01*
X66306Y-23303D01*
X66325Y-23340D01*
X66325Y-23378D01*
X66306Y-23434D01*
X66081Y-23659D01*
X66325Y-23659D01*
X66456Y-23265D02*
X66699Y-23265D01*
X66568Y-23415D01*
X66624Y-23415D01*
X66662Y-23434D01*
X66681Y-23453D01*
X66699Y-23490D01*
X66699Y-23584D01*
X66681Y-23621D01*
X66662Y-23640D01*
X66624Y-23659D01*
X66512Y-23659D01*
X66474Y-23640D01*
X66456Y-23621D01*
X65200Y-23303D02*
X65218Y-23284D01*
X65256Y-23265D01*
X65350Y-23265D01*
X65387Y-23284D01*
X65406Y-23303D01*
X65425Y-23340D01*
X65425Y-23378D01*
X65406Y-23434D01*
X65181Y-23659D01*
X65425Y-23659D01*
X65574Y-23303D02*
X65593Y-23284D01*
X65631Y-23265D01*
X65724Y-23265D01*
X65762Y-23284D01*
X65781Y-23303D01*
X65799Y-23340D01*
X65799Y-23378D01*
X65781Y-23434D01*
X65556Y-23659D01*
X65799Y-23659D01*
X61825Y-23659D02*
X61900Y-23659D01*
X61937Y-23640D01*
X61956Y-23621D01*
X61993Y-23565D01*
X62012Y-23490D01*
X62012Y-23340D01*
X61993Y-23303D01*
X61974Y-23284D01*
X61937Y-23265D01*
X61862Y-23265D01*
X61825Y-23284D01*
X61806Y-23303D01*
X61787Y-23340D01*
X61787Y-23434D01*
X61806Y-23471D01*
X61825Y-23490D01*
X61862Y-23509D01*
X61937Y-23509D01*
X61974Y-23490D01*
X61993Y-23471D01*
X62012Y-23434D01*
X60825Y-23659D02*
X60600Y-23659D01*
X60712Y-23659D02*
X60712Y-23265D01*
X60675Y-23321D01*
X60637Y-23359D01*
X60600Y-23378D01*
X61068Y-23265D02*
X61106Y-23265D01*
X61143Y-23284D01*
X61162Y-23303D01*
X61181Y-23340D01*
X61199Y-23415D01*
X61199Y-23509D01*
X61181Y-23584D01*
X61162Y-23621D01*
X61143Y-23640D01*
X61106Y-23659D01*
X61068Y-23659D01*
X61031Y-23640D01*
X61012Y-23621D01*
X60993Y-23584D01*
X60974Y-23509D01*
X60974Y-23415D01*
X60993Y-23340D01*
X61012Y-23303D01*
X61031Y-23284D01*
X61068Y-23265D01*
X59825Y-23659D02*
X59600Y-23659D01*
X59712Y-23659D02*
X59712Y-23265D01*
X59675Y-23321D01*
X59637Y-23359D01*
X59600Y-23378D01*
X60199Y-23659D02*
X59974Y-23659D01*
X60087Y-23659D02*
X60087Y-23265D01*
X60049Y-23321D01*
X60012Y-23359D01*
X59974Y-23378D01*
X49193Y-23265D02*
X49006Y-23265D01*
X48987Y-23453D01*
X49006Y-23434D01*
X49043Y-23415D01*
X49137Y-23415D01*
X49174Y-23434D01*
X49193Y-23453D01*
X49212Y-23490D01*
X49212Y-23584D01*
X49193Y-23621D01*
X49174Y-23640D01*
X49137Y-23659D01*
X49043Y-23659D01*
X49006Y-23640D01*
X48987Y-23621D01*
X48174Y-23265D02*
X48100Y-23265D01*
X48062Y-23284D01*
X48043Y-23303D01*
X48006Y-23359D01*
X47987Y-23434D01*
X47987Y-23584D01*
X48006Y-23621D01*
X48025Y-23640D01*
X48062Y-23659D01*
X48137Y-23659D01*
X48174Y-23640D01*
X48193Y-23621D01*
X48212Y-23584D01*
X48212Y-23490D01*
X48193Y-23453D01*
X48174Y-23434D01*
X48137Y-23415D01*
X48062Y-23415D01*
X48025Y-23434D01*
X48006Y-23453D01*
X47987Y-23490D01*
X43512Y-23659D02*
X43287Y-23659D01*
X43400Y-23659D02*
X43400Y-23265D01*
X43362Y-23321D01*
X43325Y-23359D01*
X43287Y-23378D01*
X42287Y-23303D02*
X42306Y-23284D01*
X42343Y-23265D01*
X42437Y-23265D01*
X42474Y-23284D01*
X42493Y-23303D01*
X42512Y-23340D01*
X42512Y-23378D01*
X42493Y-23434D01*
X42268Y-23659D01*
X42512Y-23659D01*
X41268Y-23265D02*
X41512Y-23265D01*
X41381Y-23415D01*
X41437Y-23415D01*
X41474Y-23434D01*
X41493Y-23453D01*
X41512Y-23490D01*
X41512Y-23584D01*
X41493Y-23621D01*
X41474Y-23640D01*
X41437Y-23659D01*
X41325Y-23659D01*
X41287Y-23640D01*
X41268Y-23621D01*
X29225Y-23859D02*
X29300Y-23859D01*
X29337Y-23840D01*
X29356Y-23821D01*
X29393Y-23765D01*
X29412Y-23690D01*
X29412Y-23540D01*
X29393Y-23503D01*
X29374Y-23484D01*
X29337Y-23465D01*
X29262Y-23465D01*
X29225Y-23484D01*
X29206Y-23503D01*
X29187Y-23540D01*
X29187Y-23634D01*
X29206Y-23671D01*
X29225Y-23690D01*
X29262Y-23709D01*
X29337Y-23709D01*
X29374Y-23690D01*
X29393Y-23671D01*
X29412Y-23634D01*
X28225Y-23859D02*
X28000Y-23859D01*
X28112Y-23859D02*
X28112Y-23465D01*
X28075Y-23521D01*
X28037Y-23559D01*
X28000Y-23578D01*
X28468Y-23465D02*
X28506Y-23465D01*
X28543Y-23484D01*
X28562Y-23503D01*
X28581Y-23540D01*
X28599Y-23615D01*
X28599Y-23709D01*
X28581Y-23784D01*
X28562Y-23821D01*
X28543Y-23840D01*
X28506Y-23859D01*
X28468Y-23859D01*
X28431Y-23840D01*
X28412Y-23821D01*
X28393Y-23784D01*
X28374Y-23709D01*
X28374Y-23615D01*
X28393Y-23540D01*
X28412Y-23503D01*
X28431Y-23484D01*
X28468Y-23465D01*
X27225Y-23859D02*
X27000Y-23859D01*
X27112Y-23859D02*
X27112Y-23465D01*
X27075Y-23521D01*
X27037Y-23559D01*
X27000Y-23578D01*
X27599Y-23859D02*
X27374Y-23859D01*
X27487Y-23859D02*
X27487Y-23465D01*
X27449Y-23521D01*
X27412Y-23559D01*
X27374Y-23578D01*
X26225Y-23859D02*
X26000Y-23859D01*
X26112Y-23859D02*
X26112Y-23465D01*
X26075Y-23521D01*
X26037Y-23559D01*
X26000Y-23578D01*
X26374Y-23503D02*
X26393Y-23484D01*
X26431Y-23465D01*
X26524Y-23465D01*
X26562Y-23484D01*
X26581Y-23503D01*
X26599Y-23540D01*
X26599Y-23578D01*
X26581Y-23634D01*
X26356Y-23859D01*
X26599Y-23859D01*
G54D12*
X53800Y-28600D02*
X53800Y-22800D01*
G54D13*
X88349Y-23976D02*
X88293Y-23948D01*
X88209Y-23948D01*
X88124Y-23976D01*
X88068Y-24032D01*
X88040Y-24089D01*
X88012Y-24201D01*
X88012Y-24285D01*
X88040Y-24398D01*
X88068Y-24454D01*
X88124Y-24510D01*
X88209Y-24539D01*
X88265Y-24539D01*
X88349Y-24510D01*
X88378Y-24482D01*
X88378Y-24285D01*
X88265Y-24285D01*
X88631Y-24539D02*
X88631Y-24145D01*
X88631Y-24257D02*
X88659Y-24201D01*
X88687Y-24173D01*
X88743Y-24145D01*
X88799Y-24145D01*
X89249Y-24145D02*
X89249Y-24539D01*
X88996Y-24145D02*
X88996Y-24454D01*
X89024Y-24510D01*
X89081Y-24539D01*
X89165Y-24539D01*
X89221Y-24510D01*
X89249Y-24482D01*
X89531Y-24145D02*
X89531Y-24735D01*
X89531Y-24173D02*
X89587Y-24145D01*
X89699Y-24145D01*
X89756Y-24173D01*
X89784Y-24201D01*
X89812Y-24257D01*
X89812Y-24426D01*
X89784Y-24482D01*
X89756Y-24510D01*
X89699Y-24539D01*
X89587Y-24539D01*
X89531Y-24510D01*
X90149Y-24539D02*
X90093Y-24510D01*
X90065Y-24482D01*
X90037Y-24426D01*
X90037Y-24257D01*
X90065Y-24201D01*
X90093Y-24173D01*
X90149Y-24145D01*
X90234Y-24145D01*
X90290Y-24173D01*
X90318Y-24201D01*
X90346Y-24257D01*
X90346Y-24426D01*
X90318Y-24482D01*
X90290Y-24510D01*
X90234Y-24539D01*
X90149Y-24539D01*
X91049Y-24539D02*
X91049Y-23948D01*
X91049Y-24229D02*
X91387Y-24229D01*
X91387Y-24539D02*
X91387Y-23948D01*
X88040Y-25483D02*
X88040Y-24893D01*
X88181Y-24893D01*
X88265Y-24921D01*
X88321Y-24977D01*
X88349Y-25033D01*
X88378Y-25146D01*
X88378Y-25230D01*
X88349Y-25343D01*
X88321Y-25399D01*
X88265Y-25455D01*
X88181Y-25483D01*
X88040Y-25483D01*
X88828Y-25174D02*
X88912Y-25202D01*
X88940Y-25230D01*
X88968Y-25287D01*
X88968Y-25371D01*
X88940Y-25427D01*
X88912Y-25455D01*
X88856Y-25483D01*
X88631Y-25483D01*
X88631Y-24893D01*
X88828Y-24893D01*
X88884Y-24921D01*
X88912Y-24949D01*
X88940Y-25005D01*
X88940Y-25062D01*
X88912Y-25118D01*
X88884Y-25146D01*
X88828Y-25174D01*
X88631Y-25174D01*
X89221Y-25258D02*
X89671Y-25258D01*
X90262Y-25483D02*
X89924Y-25483D01*
X90093Y-25483D02*
X90093Y-24893D01*
X90037Y-24977D01*
X89980Y-25033D01*
X89924Y-25062D01*
G54D12*
X73100Y-28600D02*
X73100Y-22800D01*
G54D13*
X74049Y-24076D02*
X73993Y-24048D01*
X73909Y-24048D01*
X73824Y-24076D01*
X73768Y-24132D01*
X73740Y-24189D01*
X73712Y-24301D01*
X73712Y-24385D01*
X73740Y-24498D01*
X73768Y-24554D01*
X73824Y-24610D01*
X73909Y-24639D01*
X73965Y-24639D01*
X74049Y-24610D01*
X74078Y-24582D01*
X74078Y-24385D01*
X73965Y-24385D01*
X74331Y-24639D02*
X74331Y-24245D01*
X74331Y-24357D02*
X74359Y-24301D01*
X74387Y-24273D01*
X74443Y-24245D01*
X74499Y-24245D01*
X74949Y-24245D02*
X74949Y-24639D01*
X74696Y-24245D02*
X74696Y-24554D01*
X74724Y-24610D01*
X74781Y-24639D01*
X74865Y-24639D01*
X74921Y-24610D01*
X74949Y-24582D01*
X75231Y-24245D02*
X75231Y-24835D01*
X75231Y-24273D02*
X75287Y-24245D01*
X75399Y-24245D01*
X75456Y-24273D01*
X75484Y-24301D01*
X75512Y-24357D01*
X75512Y-24526D01*
X75484Y-24582D01*
X75456Y-24610D01*
X75399Y-24639D01*
X75287Y-24639D01*
X75231Y-24610D01*
X75849Y-24639D02*
X75793Y-24610D01*
X75765Y-24582D01*
X75737Y-24526D01*
X75737Y-24357D01*
X75765Y-24301D01*
X75793Y-24273D01*
X75849Y-24245D01*
X75934Y-24245D01*
X75990Y-24273D01*
X76018Y-24301D01*
X76046Y-24357D01*
X76046Y-24526D01*
X76018Y-24582D01*
X75990Y-24610D01*
X75934Y-24639D01*
X75849Y-24639D01*
X76946Y-24329D02*
X77030Y-24357D01*
X77058Y-24385D01*
X77087Y-24442D01*
X77087Y-24526D01*
X77058Y-24582D01*
X77030Y-24610D01*
X76974Y-24639D01*
X76749Y-24639D01*
X76749Y-24048D01*
X76946Y-24048D01*
X77002Y-24076D01*
X77030Y-24104D01*
X77058Y-24160D01*
X77058Y-24217D01*
X77030Y-24273D01*
X77002Y-24301D01*
X76946Y-24329D01*
X76749Y-24329D01*
X73740Y-25583D02*
X73740Y-24993D01*
X73881Y-24993D01*
X73965Y-25021D01*
X74021Y-25077D01*
X74049Y-25133D01*
X74078Y-25246D01*
X74078Y-25330D01*
X74049Y-25443D01*
X74021Y-25499D01*
X73965Y-25555D01*
X73881Y-25583D01*
X73740Y-25583D01*
X74528Y-25274D02*
X74612Y-25302D01*
X74640Y-25330D01*
X74668Y-25387D01*
X74668Y-25471D01*
X74640Y-25527D01*
X74612Y-25555D01*
X74556Y-25583D01*
X74331Y-25583D01*
X74331Y-24993D01*
X74528Y-24993D01*
X74584Y-25021D01*
X74612Y-25049D01*
X74640Y-25105D01*
X74640Y-25162D01*
X74612Y-25218D01*
X74584Y-25246D01*
X74528Y-25274D01*
X74331Y-25274D01*
X74921Y-25358D02*
X75371Y-25358D01*
X75962Y-25583D02*
X75624Y-25583D01*
X75793Y-25583D02*
X75793Y-24993D01*
X75737Y-25077D01*
X75680Y-25133D01*
X75624Y-25162D01*
X69549Y-23776D02*
X69493Y-23748D01*
X69409Y-23748D01*
X69324Y-23776D01*
X69268Y-23832D01*
X69240Y-23889D01*
X69212Y-24001D01*
X69212Y-24085D01*
X69240Y-24198D01*
X69268Y-24254D01*
X69324Y-24310D01*
X69409Y-24339D01*
X69465Y-24339D01*
X69549Y-24310D01*
X69578Y-24282D01*
X69578Y-24085D01*
X69465Y-24085D01*
X69831Y-24339D02*
X69831Y-23945D01*
X69831Y-24057D02*
X69859Y-24001D01*
X69887Y-23973D01*
X69943Y-23945D01*
X69999Y-23945D01*
X70449Y-23945D02*
X70449Y-24339D01*
X70196Y-23945D02*
X70196Y-24254D01*
X70224Y-24310D01*
X70281Y-24339D01*
X70365Y-24339D01*
X70421Y-24310D01*
X70449Y-24282D01*
X70731Y-23945D02*
X70731Y-24535D01*
X70731Y-23973D02*
X70787Y-23945D01*
X70899Y-23945D01*
X70956Y-23973D01*
X70984Y-24001D01*
X71012Y-24057D01*
X71012Y-24226D01*
X70984Y-24282D01*
X70956Y-24310D01*
X70899Y-24339D01*
X70787Y-24339D01*
X70731Y-24310D01*
X71349Y-24339D02*
X71293Y-24310D01*
X71265Y-24282D01*
X71237Y-24226D01*
X71237Y-24057D01*
X71265Y-24001D01*
X71293Y-23973D01*
X71349Y-23945D01*
X71434Y-23945D01*
X71490Y-23973D01*
X71518Y-24001D01*
X71546Y-24057D01*
X71546Y-24226D01*
X71518Y-24282D01*
X71490Y-24310D01*
X71434Y-24339D01*
X71349Y-24339D01*
X72249Y-24339D02*
X72249Y-23748D01*
X72390Y-23748D01*
X72474Y-23776D01*
X72530Y-23832D01*
X72558Y-23889D01*
X72587Y-24001D01*
X72587Y-24085D01*
X72558Y-24198D01*
X72530Y-24254D01*
X72474Y-24310D01*
X72390Y-24339D01*
X72249Y-24339D01*
X69240Y-25283D02*
X69240Y-24693D01*
X69381Y-24693D01*
X69465Y-24721D01*
X69521Y-24777D01*
X69549Y-24833D01*
X69578Y-24946D01*
X69578Y-25030D01*
X69549Y-25143D01*
X69521Y-25199D01*
X69465Y-25255D01*
X69381Y-25283D01*
X69240Y-25283D01*
X70028Y-24974D02*
X70112Y-25002D01*
X70140Y-25030D01*
X70168Y-25087D01*
X70168Y-25171D01*
X70140Y-25227D01*
X70112Y-25255D01*
X70056Y-25283D01*
X69831Y-25283D01*
X69831Y-24693D01*
X70028Y-24693D01*
X70084Y-24721D01*
X70112Y-24749D01*
X70140Y-24805D01*
X70140Y-24862D01*
X70112Y-24918D01*
X70084Y-24946D01*
X70028Y-24974D01*
X69831Y-24974D01*
X70421Y-25058D02*
X70871Y-25058D01*
X71462Y-25283D02*
X71124Y-25283D01*
X71293Y-25283D02*
X71293Y-24693D01*
X71237Y-24777D01*
X71180Y-24833D01*
X71124Y-24862D01*
X54949Y-23876D02*
X54893Y-23848D01*
X54809Y-23848D01*
X54724Y-23876D01*
X54668Y-23932D01*
X54640Y-23989D01*
X54612Y-24101D01*
X54612Y-24185D01*
X54640Y-24298D01*
X54668Y-24354D01*
X54724Y-24410D01*
X54809Y-24439D01*
X54865Y-24439D01*
X54949Y-24410D01*
X54978Y-24382D01*
X54978Y-24185D01*
X54865Y-24185D01*
X55231Y-24439D02*
X55231Y-24045D01*
X55231Y-24157D02*
X55259Y-24101D01*
X55287Y-24073D01*
X55343Y-24045D01*
X55399Y-24045D01*
X55849Y-24045D02*
X55849Y-24439D01*
X55596Y-24045D02*
X55596Y-24354D01*
X55624Y-24410D01*
X55681Y-24439D01*
X55765Y-24439D01*
X55821Y-24410D01*
X55849Y-24382D01*
X56131Y-24045D02*
X56131Y-24635D01*
X56131Y-24073D02*
X56187Y-24045D01*
X56299Y-24045D01*
X56356Y-24073D01*
X56384Y-24101D01*
X56412Y-24157D01*
X56412Y-24326D01*
X56384Y-24382D01*
X56356Y-24410D01*
X56299Y-24439D01*
X56187Y-24439D01*
X56131Y-24410D01*
X56749Y-24439D02*
X56693Y-24410D01*
X56665Y-24382D01*
X56637Y-24326D01*
X56637Y-24157D01*
X56665Y-24101D01*
X56693Y-24073D01*
X56749Y-24045D01*
X56834Y-24045D01*
X56890Y-24073D01*
X56918Y-24101D01*
X56946Y-24157D01*
X56946Y-24326D01*
X56918Y-24382D01*
X56890Y-24410D01*
X56834Y-24439D01*
X56749Y-24439D01*
X57987Y-24382D02*
X57958Y-24410D01*
X57874Y-24439D01*
X57818Y-24439D01*
X57733Y-24410D01*
X57677Y-24354D01*
X57649Y-24298D01*
X57621Y-24185D01*
X57621Y-24101D01*
X57649Y-23989D01*
X57677Y-23932D01*
X57733Y-23876D01*
X57818Y-23848D01*
X57874Y-23848D01*
X57958Y-23876D01*
X57987Y-23904D01*
X54640Y-25383D02*
X54640Y-24793D01*
X54781Y-24793D01*
X54865Y-24821D01*
X54921Y-24877D01*
X54949Y-24933D01*
X54978Y-25046D01*
X54978Y-25130D01*
X54949Y-25243D01*
X54921Y-25299D01*
X54865Y-25355D01*
X54781Y-25383D01*
X54640Y-25383D01*
X55428Y-25074D02*
X55512Y-25102D01*
X55540Y-25130D01*
X55568Y-25187D01*
X55568Y-25271D01*
X55540Y-25327D01*
X55512Y-25355D01*
X55456Y-25383D01*
X55231Y-25383D01*
X55231Y-24793D01*
X55428Y-24793D01*
X55484Y-24821D01*
X55512Y-24849D01*
X55540Y-24905D01*
X55540Y-24962D01*
X55512Y-25018D01*
X55484Y-25046D01*
X55428Y-25074D01*
X55231Y-25074D01*
X55821Y-25158D02*
X56271Y-25158D01*
X56862Y-25383D02*
X56524Y-25383D01*
X56693Y-25383D02*
X56693Y-24793D01*
X56637Y-24877D01*
X56580Y-24933D01*
X56524Y-24962D01*
X16649Y-24076D02*
X16593Y-24048D01*
X16509Y-24048D01*
X16424Y-24076D01*
X16368Y-24132D01*
X16340Y-24189D01*
X16312Y-24301D01*
X16312Y-24385D01*
X16340Y-24498D01*
X16368Y-24554D01*
X16424Y-24610D01*
X16509Y-24639D01*
X16565Y-24639D01*
X16649Y-24610D01*
X16678Y-24582D01*
X16678Y-24385D01*
X16565Y-24385D01*
X16931Y-24639D02*
X16931Y-24245D01*
X16931Y-24357D02*
X16959Y-24301D01*
X16987Y-24273D01*
X17043Y-24245D01*
X17099Y-24245D01*
X17549Y-24245D02*
X17549Y-24639D01*
X17296Y-24245D02*
X17296Y-24554D01*
X17324Y-24610D01*
X17381Y-24639D01*
X17465Y-24639D01*
X17521Y-24610D01*
X17549Y-24582D01*
X17831Y-24245D02*
X17831Y-24835D01*
X17831Y-24273D02*
X17887Y-24245D01*
X17999Y-24245D01*
X18056Y-24273D01*
X18084Y-24301D01*
X18112Y-24357D01*
X18112Y-24526D01*
X18084Y-24582D01*
X18056Y-24610D01*
X17999Y-24639D01*
X17887Y-24639D01*
X17831Y-24610D01*
X18449Y-24639D02*
X18393Y-24610D01*
X18365Y-24582D01*
X18337Y-24526D01*
X18337Y-24357D01*
X18365Y-24301D01*
X18393Y-24273D01*
X18449Y-24245D01*
X18534Y-24245D01*
X18590Y-24273D01*
X18618Y-24301D01*
X18646Y-24357D01*
X18646Y-24526D01*
X18618Y-24582D01*
X18590Y-24610D01*
X18534Y-24639D01*
X18449Y-24639D01*
X19321Y-24470D02*
X19602Y-24470D01*
X19265Y-24639D02*
X19462Y-24048D01*
X19658Y-24639D01*
X16340Y-25583D02*
X16340Y-24993D01*
X16481Y-24993D01*
X16565Y-25021D01*
X16621Y-25077D01*
X16649Y-25133D01*
X16678Y-25246D01*
X16678Y-25330D01*
X16649Y-25443D01*
X16621Y-25499D01*
X16565Y-25555D01*
X16481Y-25583D01*
X16340Y-25583D01*
X17128Y-25274D02*
X17212Y-25302D01*
X17240Y-25330D01*
X17268Y-25387D01*
X17268Y-25471D01*
X17240Y-25527D01*
X17212Y-25555D01*
X17156Y-25583D01*
X16931Y-25583D01*
X16931Y-24993D01*
X17128Y-24993D01*
X17184Y-25021D01*
X17212Y-25049D01*
X17240Y-25105D01*
X17240Y-25162D01*
X17212Y-25218D01*
X17184Y-25246D01*
X17128Y-25274D01*
X16931Y-25274D01*
X17521Y-25358D02*
X17971Y-25358D01*
X18224Y-25049D02*
X18252Y-25021D01*
X18309Y-24993D01*
X18449Y-24993D01*
X18505Y-25021D01*
X18534Y-25049D01*
X18562Y-25105D01*
X18562Y-25162D01*
X18534Y-25246D01*
X18196Y-25583D01*
X18562Y-25583D01*
X30449Y-23976D02*
X30393Y-23948D01*
X30309Y-23948D01*
X30224Y-23976D01*
X30168Y-24032D01*
X30140Y-24089D01*
X30112Y-24201D01*
X30112Y-24285D01*
X30140Y-24398D01*
X30168Y-24454D01*
X30224Y-24510D01*
X30309Y-24539D01*
X30365Y-24539D01*
X30449Y-24510D01*
X30478Y-24482D01*
X30478Y-24285D01*
X30365Y-24285D01*
X30731Y-24539D02*
X30731Y-24145D01*
X30731Y-24257D02*
X30759Y-24201D01*
X30787Y-24173D01*
X30843Y-24145D01*
X30899Y-24145D01*
X31349Y-24145D02*
X31349Y-24539D01*
X31096Y-24145D02*
X31096Y-24454D01*
X31124Y-24510D01*
X31181Y-24539D01*
X31265Y-24539D01*
X31321Y-24510D01*
X31349Y-24482D01*
X31631Y-24145D02*
X31631Y-24735D01*
X31631Y-24173D02*
X31687Y-24145D01*
X31799Y-24145D01*
X31856Y-24173D01*
X31884Y-24201D01*
X31912Y-24257D01*
X31912Y-24426D01*
X31884Y-24482D01*
X31856Y-24510D01*
X31799Y-24539D01*
X31687Y-24539D01*
X31631Y-24510D01*
X32249Y-24539D02*
X32193Y-24510D01*
X32165Y-24482D01*
X32137Y-24426D01*
X32137Y-24257D01*
X32165Y-24201D01*
X32193Y-24173D01*
X32249Y-24145D01*
X32334Y-24145D01*
X32390Y-24173D01*
X32418Y-24201D01*
X32446Y-24257D01*
X32446Y-24426D01*
X32418Y-24482D01*
X32390Y-24510D01*
X32334Y-24539D01*
X32249Y-24539D01*
X33458Y-23976D02*
X33402Y-23948D01*
X33318Y-23948D01*
X33233Y-23976D01*
X33177Y-24032D01*
X33149Y-24089D01*
X33121Y-24201D01*
X33121Y-24285D01*
X33149Y-24398D01*
X33177Y-24454D01*
X33233Y-24510D01*
X33318Y-24539D01*
X33374Y-24539D01*
X33458Y-24510D01*
X33487Y-24482D01*
X33487Y-24285D01*
X33374Y-24285D01*
X30140Y-25483D02*
X30140Y-24893D01*
X30281Y-24893D01*
X30365Y-24921D01*
X30421Y-24977D01*
X30449Y-25033D01*
X30478Y-25146D01*
X30478Y-25230D01*
X30449Y-25343D01*
X30421Y-25399D01*
X30365Y-25455D01*
X30281Y-25483D01*
X30140Y-25483D01*
X30928Y-25174D02*
X31012Y-25202D01*
X31040Y-25230D01*
X31068Y-25287D01*
X31068Y-25371D01*
X31040Y-25427D01*
X31012Y-25455D01*
X30956Y-25483D01*
X30731Y-25483D01*
X30731Y-24893D01*
X30928Y-24893D01*
X30984Y-24921D01*
X31012Y-24949D01*
X31040Y-25005D01*
X31040Y-25062D01*
X31012Y-25118D01*
X30984Y-25146D01*
X30928Y-25174D01*
X30731Y-25174D01*
X31321Y-25258D02*
X31771Y-25258D01*
X32024Y-24949D02*
X32052Y-24921D01*
X32109Y-24893D01*
X32249Y-24893D01*
X32305Y-24921D01*
X32334Y-24949D01*
X32362Y-25005D01*
X32362Y-25062D01*
X32334Y-25146D01*
X31996Y-25483D01*
X32362Y-25483D01*
X50149Y-23776D02*
X50093Y-23748D01*
X50009Y-23748D01*
X49924Y-23776D01*
X49868Y-23832D01*
X49840Y-23889D01*
X49812Y-24001D01*
X49812Y-24085D01*
X49840Y-24198D01*
X49868Y-24254D01*
X49924Y-24310D01*
X50009Y-24339D01*
X50065Y-24339D01*
X50149Y-24310D01*
X50178Y-24282D01*
X50178Y-24085D01*
X50065Y-24085D01*
X50431Y-24339D02*
X50431Y-23945D01*
X50431Y-24057D02*
X50459Y-24001D01*
X50487Y-23973D01*
X50543Y-23945D01*
X50599Y-23945D01*
X51049Y-23945D02*
X51049Y-24339D01*
X50796Y-23945D02*
X50796Y-24254D01*
X50824Y-24310D01*
X50881Y-24339D01*
X50965Y-24339D01*
X51021Y-24310D01*
X51049Y-24282D01*
X51331Y-23945D02*
X51331Y-24535D01*
X51331Y-23973D02*
X51387Y-23945D01*
X51499Y-23945D01*
X51556Y-23973D01*
X51584Y-24001D01*
X51612Y-24057D01*
X51612Y-24226D01*
X51584Y-24282D01*
X51556Y-24310D01*
X51499Y-24339D01*
X51387Y-24339D01*
X51331Y-24310D01*
X51949Y-24339D02*
X51893Y-24310D01*
X51865Y-24282D01*
X51837Y-24226D01*
X51837Y-24057D01*
X51865Y-24001D01*
X51893Y-23973D01*
X51949Y-23945D01*
X52034Y-23945D01*
X52090Y-23973D01*
X52118Y-24001D01*
X52146Y-24057D01*
X52146Y-24226D01*
X52118Y-24282D01*
X52090Y-24310D01*
X52034Y-24339D01*
X51949Y-24339D01*
X52849Y-24339D02*
X52849Y-23748D01*
X49840Y-25283D02*
X49840Y-24693D01*
X49981Y-24693D01*
X50065Y-24721D01*
X50121Y-24777D01*
X50149Y-24833D01*
X50178Y-24946D01*
X50178Y-25030D01*
X50149Y-25143D01*
X50121Y-25199D01*
X50065Y-25255D01*
X49981Y-25283D01*
X49840Y-25283D01*
X50628Y-24974D02*
X50712Y-25002D01*
X50740Y-25030D01*
X50768Y-25087D01*
X50768Y-25171D01*
X50740Y-25227D01*
X50712Y-25255D01*
X50656Y-25283D01*
X50431Y-25283D01*
X50431Y-24693D01*
X50628Y-24693D01*
X50684Y-24721D01*
X50712Y-24749D01*
X50740Y-24805D01*
X50740Y-24862D01*
X50712Y-24918D01*
X50684Y-24946D01*
X50628Y-24974D01*
X50431Y-24974D01*
X51021Y-25058D02*
X51471Y-25058D01*
X51724Y-24749D02*
X51752Y-24721D01*
X51809Y-24693D01*
X51949Y-24693D01*
X52005Y-24721D01*
X52034Y-24749D01*
X52062Y-24805D01*
X52062Y-24862D01*
X52034Y-24946D01*
X51696Y-25283D01*
X52062Y-25283D01*
G54D11*
X58825Y-23659D02*
X58600Y-23659D01*
X58712Y-23659D02*
X58712Y-23265D01*
X58675Y-23321D01*
X58637Y-23359D01*
X58600Y-23378D01*
X58974Y-23303D02*
X58993Y-23284D01*
X59031Y-23265D01*
X59124Y-23265D01*
X59162Y-23284D01*
X59181Y-23303D01*
X59199Y-23340D01*
X59199Y-23378D01*
X59181Y-23434D01*
X58956Y-23659D01*
X59199Y-23659D01*
X46968Y-23265D02*
X47231Y-23265D01*
X47062Y-23659D01*
X46062Y-23434D02*
X46025Y-23415D01*
X46006Y-23396D01*
X45987Y-23359D01*
X45987Y-23340D01*
X46006Y-23303D01*
X46025Y-23284D01*
X46062Y-23265D01*
X46137Y-23265D01*
X46174Y-23284D01*
X46193Y-23303D01*
X46212Y-23340D01*
X46212Y-23359D01*
X46193Y-23396D01*
X46174Y-23415D01*
X46137Y-23434D01*
X46062Y-23434D01*
X46025Y-23453D01*
X46006Y-23471D01*
X45987Y-23509D01*
X45987Y-23584D01*
X46006Y-23621D01*
X46025Y-23640D01*
X46062Y-23659D01*
X46137Y-23659D01*
X46174Y-23640D01*
X46193Y-23621D01*
X46212Y-23584D01*
X46212Y-23509D01*
X46193Y-23471D01*
X46174Y-23453D01*
X46137Y-23434D01*
X40474Y-23396D02*
X40474Y-23659D01*
X40381Y-23246D02*
X40287Y-23528D01*
X40531Y-23528D01*
X20100Y-23503D02*
X20118Y-23484D01*
X20156Y-23465D01*
X20250Y-23465D01*
X20287Y-23484D01*
X20306Y-23503D01*
X20325Y-23540D01*
X20325Y-23578D01*
X20306Y-23634D01*
X20081Y-23859D01*
X20325Y-23859D01*
X20474Y-23503D02*
X20493Y-23484D01*
X20531Y-23465D01*
X20624Y-23465D01*
X20662Y-23484D01*
X20681Y-23503D01*
X20699Y-23540D01*
X20699Y-23578D01*
X20681Y-23634D01*
X20456Y-23859D01*
X20699Y-23859D01*
X21100Y-23503D02*
X21118Y-23484D01*
X21156Y-23465D01*
X21250Y-23465D01*
X21287Y-23484D01*
X21306Y-23503D01*
X21325Y-23540D01*
X21325Y-23578D01*
X21306Y-23634D01*
X21081Y-23859D01*
X21325Y-23859D01*
X21681Y-23465D02*
X21493Y-23465D01*
X21474Y-23653D01*
X21493Y-23634D01*
X21531Y-23615D01*
X21624Y-23615D01*
X21662Y-23634D01*
X21681Y-23653D01*
X21699Y-23690D01*
X21699Y-23784D01*
X21681Y-23821D01*
X21662Y-23840D01*
X21624Y-23859D01*
X21531Y-23859D01*
X21493Y-23840D01*
X21474Y-23821D01*
X22100Y-23503D02*
X22118Y-23484D01*
X22156Y-23465D01*
X22250Y-23465D01*
X22287Y-23484D01*
X22306Y-23503D01*
X22325Y-23540D01*
X22325Y-23578D01*
X22306Y-23634D01*
X22081Y-23859D01*
X22325Y-23859D01*
X22662Y-23596D02*
X22662Y-23859D01*
X22568Y-23446D02*
X22474Y-23728D01*
X22718Y-23728D01*
X23100Y-23503D02*
X23118Y-23484D01*
X23156Y-23465D01*
X23250Y-23465D01*
X23287Y-23484D01*
X23306Y-23503D01*
X23325Y-23540D01*
X23325Y-23578D01*
X23306Y-23634D01*
X23081Y-23859D01*
X23325Y-23859D01*
X23456Y-23465D02*
X23699Y-23465D01*
X23568Y-23615D01*
X23624Y-23615D01*
X23662Y-23634D01*
X23681Y-23653D01*
X23699Y-23690D01*
X23699Y-23784D01*
X23681Y-23821D01*
X23662Y-23840D01*
X23624Y-23859D01*
X23512Y-23859D01*
X23474Y-23840D01*
X23456Y-23821D01*
G54D13*
X36549Y-23876D02*
X36493Y-23848D01*
X36409Y-23848D01*
X36324Y-23876D01*
X36268Y-23932D01*
X36240Y-23989D01*
X36212Y-24101D01*
X36212Y-24185D01*
X36240Y-24298D01*
X36268Y-24354D01*
X36324Y-24410D01*
X36409Y-24439D01*
X36465Y-24439D01*
X36549Y-24410D01*
X36578Y-24382D01*
X36578Y-24185D01*
X36465Y-24185D01*
X36831Y-24439D02*
X36831Y-24045D01*
X36831Y-24157D02*
X36859Y-24101D01*
X36887Y-24073D01*
X36943Y-24045D01*
X36999Y-24045D01*
X37449Y-24045D02*
X37449Y-24439D01*
X37196Y-24045D02*
X37196Y-24354D01*
X37224Y-24410D01*
X37281Y-24439D01*
X37365Y-24439D01*
X37421Y-24410D01*
X37449Y-24382D01*
X37731Y-24045D02*
X37731Y-24635D01*
X37731Y-24073D02*
X37787Y-24045D01*
X37899Y-24045D01*
X37956Y-24073D01*
X37984Y-24101D01*
X38012Y-24157D01*
X38012Y-24326D01*
X37984Y-24382D01*
X37956Y-24410D01*
X37899Y-24439D01*
X37787Y-24439D01*
X37731Y-24410D01*
X38349Y-24439D02*
X38293Y-24410D01*
X38265Y-24382D01*
X38237Y-24326D01*
X38237Y-24157D01*
X38265Y-24101D01*
X38293Y-24073D01*
X38349Y-24045D01*
X38434Y-24045D01*
X38490Y-24073D01*
X38518Y-24101D01*
X38546Y-24157D01*
X38546Y-24326D01*
X38518Y-24382D01*
X38490Y-24410D01*
X38434Y-24439D01*
X38349Y-24439D01*
X39446Y-24129D02*
X39249Y-24129D01*
X39249Y-24439D02*
X39249Y-23848D01*
X39530Y-23848D01*
X36240Y-25383D02*
X36240Y-24793D01*
X36381Y-24793D01*
X36465Y-24821D01*
X36521Y-24877D01*
X36549Y-24933D01*
X36578Y-25046D01*
X36578Y-25130D01*
X36549Y-25243D01*
X36521Y-25299D01*
X36465Y-25355D01*
X36381Y-25383D01*
X36240Y-25383D01*
X37028Y-25074D02*
X37112Y-25102D01*
X37140Y-25130D01*
X37168Y-25187D01*
X37168Y-25271D01*
X37140Y-25327D01*
X37112Y-25355D01*
X37056Y-25383D01*
X36831Y-25383D01*
X36831Y-24793D01*
X37028Y-24793D01*
X37084Y-24821D01*
X37112Y-24849D01*
X37140Y-24905D01*
X37140Y-24962D01*
X37112Y-25018D01*
X37084Y-25046D01*
X37028Y-25074D01*
X36831Y-25074D01*
X37421Y-25158D02*
X37871Y-25158D01*
X38124Y-24849D02*
X38152Y-24821D01*
X38209Y-24793D01*
X38349Y-24793D01*
X38405Y-24821D01*
X38434Y-24849D01*
X38462Y-24905D01*
X38462Y-24962D01*
X38434Y-25046D01*
X38096Y-25383D01*
X38462Y-25383D01*
G54D12*
X34900Y-28600D02*
X34900Y-22600D01*
X93200Y-28600D02*
X15800Y-28600D01*
G54D10*
X77300Y-57784D02*
X77262Y-57765D01*
X77206Y-57765D01*
X77150Y-57784D01*
X77112Y-57821D01*
X77093Y-57859D01*
X77075Y-57934D01*
X77075Y-57990D01*
X77093Y-58065D01*
X77112Y-58103D01*
X77150Y-58140D01*
X77206Y-58159D01*
X77243Y-58159D01*
X77300Y-58140D01*
X77318Y-58121D01*
X77318Y-57990D01*
X77243Y-57990D01*
X77487Y-58159D02*
X77487Y-57765D01*
X77712Y-58159D01*
X77712Y-57765D01*
X77899Y-58159D02*
X77899Y-57765D01*
X77993Y-57765D01*
X78049Y-57784D01*
X78087Y-57821D01*
X78106Y-57859D01*
X78124Y-57934D01*
X78124Y-57990D01*
X78106Y-58065D01*
X78087Y-58103D01*
X78049Y-58140D01*
X77993Y-58159D01*
X77899Y-58159D01*
G54D12*
X80600Y-57500D02*
X80600Y-56500D01*
X78600Y-57500D02*
X80600Y-57500D01*
X80600Y-57500D02*
X78600Y-57500D01*
G54D10*
X76756Y-57140D02*
X76812Y-57159D01*
X76906Y-57159D01*
X76943Y-57140D01*
X76962Y-57121D01*
X76981Y-57084D01*
X76981Y-57046D01*
X76962Y-57009D01*
X76943Y-56990D01*
X76906Y-56971D01*
X76831Y-56953D01*
X76793Y-56934D01*
X76775Y-56915D01*
X76756Y-56878D01*
X76756Y-56840D01*
X76775Y-56803D01*
X76793Y-56784D01*
X76831Y-56765D01*
X76925Y-56765D01*
X76981Y-56784D01*
X77150Y-57159D02*
X77150Y-56896D01*
X77150Y-56765D02*
X77131Y-56784D01*
X77150Y-56803D01*
X77168Y-56784D01*
X77150Y-56765D01*
X77150Y-56803D01*
X77506Y-56896D02*
X77506Y-57215D01*
X77487Y-57253D01*
X77468Y-57271D01*
X77431Y-57290D01*
X77375Y-57290D01*
X77337Y-57271D01*
X77506Y-57140D02*
X77468Y-57159D01*
X77393Y-57159D01*
X77356Y-57140D01*
X77337Y-57121D01*
X77318Y-57084D01*
X77318Y-56971D01*
X77337Y-56934D01*
X77356Y-56915D01*
X77393Y-56896D01*
X77468Y-56896D01*
X77506Y-56915D01*
X77693Y-56896D02*
X77693Y-57159D01*
X77693Y-56934D02*
X77712Y-56915D01*
X77749Y-56896D01*
X77806Y-56896D01*
X77843Y-56915D01*
X77862Y-56953D01*
X77862Y-57159D01*
X78218Y-57159D02*
X78218Y-56953D01*
X78199Y-56915D01*
X78162Y-56896D01*
X78087Y-56896D01*
X78049Y-56915D01*
X78218Y-57140D02*
X78181Y-57159D01*
X78087Y-57159D01*
X78049Y-57140D01*
X78031Y-57103D01*
X78031Y-57065D01*
X78049Y-57028D01*
X78087Y-57009D01*
X78181Y-57009D01*
X78218Y-56990D01*
X78462Y-57159D02*
X78424Y-57140D01*
X78406Y-57103D01*
X78406Y-56765D01*
G54D13*
X50992Y-56148D02*
X51329Y-56148D01*
X51160Y-56739D02*
X51160Y-56148D01*
X51470Y-56739D02*
X51779Y-56345D01*
X51470Y-56345D02*
X51779Y-56739D01*
X51343Y-57739D02*
X51146Y-57457D01*
X51006Y-57739D02*
X51006Y-57148D01*
X51231Y-57148D01*
X51287Y-57176D01*
X51315Y-57204D01*
X51343Y-57260D01*
X51343Y-57345D01*
X51315Y-57401D01*
X51287Y-57429D01*
X51231Y-57457D01*
X51006Y-57457D01*
X51540Y-57739D02*
X51849Y-57345D01*
X51540Y-57345D02*
X51849Y-57739D01*
X50368Y-55514D02*
X50818Y-55514D01*
X50593Y-55739D02*
X50593Y-55289D01*
X51381Y-55148D02*
X51100Y-55148D01*
X51071Y-55429D01*
X51100Y-55401D01*
X51156Y-55373D01*
X51296Y-55373D01*
X51353Y-55401D01*
X51381Y-55429D01*
X51409Y-55485D01*
X51409Y-55626D01*
X51381Y-55682D01*
X51353Y-55710D01*
X51296Y-55739D01*
X51156Y-55739D01*
X51100Y-55710D01*
X51071Y-55682D01*
X51606Y-55345D02*
X51746Y-55739D01*
X51887Y-55345D01*
G54D12*
X37500Y-43500D02*
X27900Y-43500D01*
X37500Y-46000D02*
X37500Y-43500D01*
X27900Y-46000D02*
X37500Y-46000D01*
X27900Y-43500D02*
X27900Y-46000D01*
X84400Y-57500D02*
X84400Y-58500D01*
X83400Y-57500D02*
X84400Y-57500D01*
X83400Y-58500D02*
X83400Y-57500D01*
X78600Y-58000D02*
X78600Y-57950D01*
G54D13*
X16510Y-44626D02*
X16792Y-44429D01*
X16510Y-44289D02*
X17101Y-44289D01*
X17101Y-44514D01*
X17073Y-44570D01*
X17045Y-44598D01*
X16989Y-44626D01*
X16904Y-44626D01*
X16848Y-44598D01*
X16820Y-44570D01*
X16792Y-44514D01*
X16792Y-44289D01*
X16539Y-45104D02*
X16510Y-45048D01*
X16510Y-44936D01*
X16539Y-44879D01*
X16595Y-44851D01*
X16820Y-44851D01*
X16876Y-44879D01*
X16904Y-44936D01*
X16904Y-45048D01*
X16876Y-45104D01*
X16820Y-45132D01*
X16764Y-45132D01*
X16707Y-44851D01*
X16904Y-45329D02*
X16510Y-45470D01*
X16904Y-45610D01*
X16510Y-46595D02*
X16510Y-46257D01*
X16510Y-46426D02*
X17101Y-46426D01*
X17017Y-46370D01*
X16960Y-46314D01*
X16932Y-46257D01*
X16567Y-46848D02*
X16539Y-46876D01*
X16510Y-46848D01*
X16539Y-46820D01*
X16567Y-46848D01*
X16510Y-46848D01*
X17101Y-47242D02*
X17101Y-47298D01*
X17073Y-47354D01*
X17045Y-47382D01*
X16989Y-47410D01*
X16876Y-47438D01*
X16735Y-47438D01*
X16623Y-47410D01*
X16567Y-47382D01*
X16539Y-47354D01*
X16510Y-47298D01*
X16510Y-47242D01*
X16539Y-47185D01*
X16567Y-47157D01*
X16623Y-47129D01*
X16735Y-47101D01*
X16876Y-47101D01*
X16989Y-47129D01*
X17045Y-47157D01*
X17073Y-47185D01*
X17101Y-47242D01*
X89639Y-53246D02*
X89659Y-53306D01*
X89719Y-53366D01*
X89798Y-53405D01*
X89878Y-53405D01*
X89937Y-53386D01*
X90037Y-53326D01*
X90096Y-53266D01*
X90156Y-53167D01*
X90176Y-53107D01*
X90176Y-53028D01*
X90136Y-52948D01*
X90096Y-52908D01*
X90017Y-52869D01*
X89977Y-52869D01*
X89838Y-53008D01*
X89917Y-53087D01*
X89838Y-52650D02*
X89420Y-53067D01*
X89599Y-52411D01*
X89182Y-52829D01*
X89400Y-52212D02*
X88983Y-52630D01*
X88883Y-52530D01*
X88844Y-52451D01*
X88844Y-52371D01*
X88863Y-52312D01*
X88923Y-52212D01*
X88983Y-52153D01*
X89082Y-52093D01*
X89142Y-52073D01*
X89221Y-52073D01*
X89301Y-52113D01*
X89400Y-52212D01*
X89480Y-50978D02*
X89679Y-51176D01*
X89898Y-50997D01*
X89858Y-50997D01*
X89799Y-50978D01*
X89699Y-50878D01*
X89679Y-50819D01*
X89679Y-50779D01*
X89699Y-50719D01*
X89799Y-50620D01*
X89858Y-50600D01*
X89898Y-50600D01*
X89958Y-50620D01*
X90057Y-50719D01*
X90077Y-50779D01*
X90077Y-50819D01*
X89341Y-50838D02*
X89620Y-50282D01*
X89063Y-50560D01*
X90077Y-48439D02*
X90316Y-48678D01*
X90196Y-48558D02*
X89779Y-48976D01*
X89878Y-48956D01*
X89958Y-48956D01*
X90017Y-48976D01*
X89540Y-48658D02*
X89500Y-48658D01*
X89441Y-48638D01*
X89341Y-48538D01*
X89321Y-48479D01*
X89321Y-48439D01*
X89341Y-48379D01*
X89381Y-48340D01*
X89461Y-48300D01*
X89938Y-48300D01*
X89679Y-48041D01*
X89142Y-48340D02*
X89421Y-47783D01*
X88864Y-48061D01*
G54D14*
X91860Y-56950D02*
G75*
G03X91860Y-56950I-860J0D01*
G74*
G01*
X18800Y-56950D02*
G75*
G03X18800Y-56950I-850J0D01*
G74*
G01*
X54401Y-32750D02*
G75*
G03X54401Y-32750I-851J0D01*
G74*
G01*
G54D13*
X28663Y-44443D02*
X28621Y-44481D01*
X28504Y-44518D01*
X28429Y-44518D01*
X28321Y-44481D01*
X28256Y-44406D01*
X28227Y-44331D01*
X28209Y-44181D01*
X28223Y-44068D01*
X28279Y-43918D01*
X28326Y-43843D01*
X28410Y-43768D01*
X28527Y-43731D01*
X28602Y-43731D01*
X28710Y-43768D01*
X28743Y-43806D01*
X29104Y-44518D02*
X29034Y-44481D01*
X29001Y-44443D01*
X28973Y-44368D01*
X29001Y-44143D01*
X29048Y-44068D01*
X29090Y-44031D01*
X29169Y-43993D01*
X29282Y-43993D01*
X29352Y-44031D01*
X29385Y-44068D01*
X29413Y-44143D01*
X29385Y-44368D01*
X29338Y-44443D01*
X29296Y-44481D01*
X29216Y-44518D01*
X29104Y-44518D01*
X29769Y-43993D02*
X29704Y-44518D01*
X29760Y-44068D02*
X29802Y-44031D01*
X29882Y-43993D01*
X29994Y-43993D01*
X30065Y-44031D01*
X30093Y-44106D01*
X30041Y-44518D01*
X30369Y-43993D02*
X30669Y-43993D01*
X30515Y-43731D02*
X30430Y-44406D01*
X30458Y-44481D01*
X30529Y-44518D01*
X30604Y-44518D01*
X30866Y-44518D02*
X30932Y-43993D01*
X30913Y-44143D02*
X30960Y-44068D01*
X31002Y-44031D01*
X31082Y-43993D01*
X31157Y-43993D01*
X31466Y-44518D02*
X31396Y-44481D01*
X31363Y-44443D01*
X31335Y-44368D01*
X31363Y-44143D01*
X31410Y-44068D01*
X31452Y-44031D01*
X31532Y-43993D01*
X31644Y-43993D01*
X31714Y-44031D01*
X31747Y-44068D01*
X31775Y-44143D01*
X31747Y-44368D01*
X31700Y-44443D01*
X31658Y-44481D01*
X31579Y-44518D01*
X31466Y-44518D01*
X32178Y-44518D02*
X32108Y-44481D01*
X32080Y-44406D01*
X32164Y-43731D01*
X32816Y-44518D02*
X32867Y-44106D01*
X32839Y-44031D01*
X32769Y-43993D01*
X32619Y-43993D01*
X32539Y-44031D01*
X32821Y-44481D02*
X32741Y-44518D01*
X32553Y-44518D01*
X32483Y-44481D01*
X32455Y-44406D01*
X32464Y-44331D01*
X32511Y-44256D01*
X32591Y-44218D01*
X32778Y-44218D01*
X32858Y-44181D01*
X33528Y-44518D02*
X33627Y-43731D01*
X33533Y-44481D02*
X33453Y-44518D01*
X33303Y-44518D01*
X33233Y-44481D01*
X33200Y-44443D01*
X33172Y-44368D01*
X33200Y-44143D01*
X33247Y-44068D01*
X33289Y-44031D01*
X33369Y-43993D01*
X33519Y-43993D01*
X33589Y-44031D01*
X34016Y-44518D02*
X33945Y-44481D01*
X33913Y-44443D01*
X33885Y-44368D01*
X33913Y-44143D01*
X33960Y-44068D01*
X34002Y-44031D01*
X34081Y-43993D01*
X34194Y-43993D01*
X34264Y-44031D01*
X34297Y-44068D01*
X34325Y-44143D01*
X34297Y-44368D01*
X34250Y-44443D01*
X34208Y-44481D01*
X34128Y-44518D01*
X34016Y-44518D01*
X34616Y-44518D02*
X34681Y-43993D01*
X34663Y-44143D02*
X34709Y-44068D01*
X34752Y-44031D01*
X34831Y-43993D01*
X34906Y-43993D01*
X36041Y-44518D02*
X36139Y-43731D01*
X36045Y-44481D02*
X35966Y-44518D01*
X35816Y-44518D01*
X35745Y-44481D01*
X35712Y-44443D01*
X35684Y-44368D01*
X35712Y-44143D01*
X35759Y-44068D01*
X35801Y-44031D01*
X35881Y-43993D01*
X36031Y-43993D01*
X36101Y-44031D01*
X36720Y-44481D02*
X36640Y-44518D01*
X36490Y-44518D01*
X36420Y-44481D01*
X36392Y-44406D01*
X36430Y-44106D01*
X36476Y-44031D01*
X36556Y-43993D01*
X36706Y-43993D01*
X36776Y-44031D01*
X36804Y-44106D01*
X36795Y-44181D01*
X36411Y-44256D01*
X28410Y-45739D02*
X28476Y-45214D01*
X28466Y-45289D02*
X28509Y-45251D01*
X28588Y-45214D01*
X28701Y-45214D01*
X28771Y-45251D01*
X28799Y-45326D01*
X28748Y-45739D01*
X28799Y-45326D02*
X28846Y-45251D01*
X28926Y-45214D01*
X29038Y-45214D01*
X29109Y-45251D01*
X29137Y-45326D01*
X29085Y-45739D01*
X29863Y-45214D02*
X29798Y-45739D01*
X29526Y-45214D02*
X29474Y-45626D01*
X29502Y-45701D01*
X29573Y-45739D01*
X29685Y-45739D01*
X29765Y-45701D01*
X29807Y-45664D01*
X29826Y-44914D02*
X29699Y-45026D01*
X30140Y-45701D02*
X30210Y-45739D01*
X30360Y-45739D01*
X30440Y-45701D01*
X30487Y-45626D01*
X30491Y-45589D01*
X30463Y-45514D01*
X30393Y-45476D01*
X30280Y-45476D01*
X30210Y-45439D01*
X30182Y-45364D01*
X30187Y-45326D01*
X30233Y-45251D01*
X30313Y-45214D01*
X30426Y-45214D01*
X30496Y-45251D01*
X30810Y-45739D02*
X30876Y-45214D01*
X30908Y-44951D02*
X30866Y-44989D01*
X30899Y-45026D01*
X30941Y-44989D01*
X30908Y-44951D01*
X30899Y-45026D01*
X31527Y-45701D02*
X31447Y-45739D01*
X31297Y-45739D01*
X31227Y-45701D01*
X31194Y-45664D01*
X31166Y-45589D01*
X31194Y-45364D01*
X31241Y-45289D01*
X31283Y-45251D01*
X31363Y-45214D01*
X31513Y-45214D01*
X31583Y-45251D01*
X32197Y-45739D02*
X32249Y-45326D01*
X32221Y-45251D01*
X32150Y-45214D01*
X32000Y-45214D01*
X31921Y-45251D01*
X32202Y-45701D02*
X32122Y-45739D01*
X31935Y-45739D01*
X31864Y-45701D01*
X31836Y-45626D01*
X31846Y-45551D01*
X31893Y-45476D01*
X31972Y-45439D01*
X32160Y-45439D01*
X32239Y-45401D01*
X33163Y-45214D02*
X33285Y-45739D01*
X33538Y-45214D02*
X33285Y-45739D01*
X33186Y-45926D01*
X33144Y-45964D01*
X33064Y-46001D01*
X34484Y-45739D02*
X34414Y-45701D01*
X34386Y-45626D01*
X34470Y-44951D01*
X35187Y-45214D02*
X35122Y-45739D01*
X34850Y-45214D02*
X34798Y-45626D01*
X34827Y-45701D01*
X34897Y-45739D01*
X35009Y-45739D01*
X35089Y-45701D01*
X35131Y-45664D01*
X35839Y-45701D02*
X35759Y-45739D01*
X35609Y-45739D01*
X35539Y-45701D01*
X35506Y-45664D01*
X35478Y-45589D01*
X35506Y-45364D01*
X35553Y-45289D01*
X35595Y-45251D01*
X35675Y-45214D01*
X35825Y-45214D01*
X35895Y-45251D01*
X36476Y-45701D02*
X36397Y-45739D01*
X36247Y-45739D01*
X36176Y-45701D01*
X36148Y-45626D01*
X36186Y-45326D01*
X36233Y-45251D01*
X36312Y-45214D01*
X36462Y-45214D01*
X36533Y-45251D01*
X36561Y-45326D01*
X36551Y-45401D01*
X36167Y-45476D01*
X36814Y-45701D02*
X36884Y-45739D01*
X37034Y-45739D01*
X37114Y-45701D01*
X37161Y-45626D01*
X37165Y-45589D01*
X37137Y-45514D01*
X37067Y-45476D01*
X36954Y-45476D01*
X36884Y-45439D01*
X36856Y-45364D01*
X36861Y-45326D01*
X36908Y-45251D01*
X36987Y-45214D01*
X37100Y-45214D01*
X37170Y-45251D01*
X91046Y-58148D02*
X91384Y-58148D01*
X91215Y-58739D02*
X91215Y-58148D01*
X91665Y-58739D02*
X91609Y-58710D01*
X91581Y-58682D01*
X91553Y-58626D01*
X91553Y-58457D01*
X91581Y-58401D01*
X91609Y-58373D01*
X91665Y-58345D01*
X91750Y-58345D01*
X91806Y-58373D01*
X91834Y-58401D01*
X91862Y-58457D01*
X91862Y-58626D01*
X91834Y-58682D01*
X91806Y-58710D01*
X91750Y-58739D01*
X91665Y-58739D01*
X92115Y-58345D02*
X92115Y-58935D01*
X92115Y-58373D02*
X92171Y-58345D01*
X92284Y-58345D01*
X92340Y-58373D01*
X92368Y-58401D01*
X92396Y-58457D01*
X92396Y-58626D01*
X92368Y-58682D01*
X92340Y-58710D01*
X92284Y-58739D01*
X92171Y-58739D01*
X92115Y-58710D01*
X90668Y-41189D02*
X90331Y-41189D01*
X90500Y-41189D02*
X90500Y-40598D01*
X90443Y-40682D01*
X90387Y-40739D01*
X90331Y-40767D01*
X83831Y-40654D02*
X83859Y-40626D01*
X83915Y-40598D01*
X84056Y-40598D01*
X84112Y-40626D01*
X84140Y-40654D01*
X84168Y-40710D01*
X84168Y-40767D01*
X84140Y-40851D01*
X83803Y-41189D01*
X84168Y-41189D01*
X77303Y-40598D02*
X77668Y-40598D01*
X77471Y-40823D01*
X77556Y-40823D01*
X77612Y-40851D01*
X77640Y-40879D01*
X77668Y-40935D01*
X77668Y-41076D01*
X77640Y-41132D01*
X77612Y-41160D01*
X77556Y-41189D01*
X77387Y-41189D01*
X77331Y-41160D01*
X77303Y-41132D01*
X70612Y-40795D02*
X70612Y-41189D01*
X70471Y-40570D02*
X70331Y-40992D01*
X70696Y-40992D01*
X63890Y-40598D02*
X63609Y-40598D01*
X63581Y-40879D01*
X63609Y-40851D01*
X63665Y-40823D01*
X63806Y-40823D01*
X63862Y-40851D01*
X63890Y-40879D01*
X63918Y-40935D01*
X63918Y-41076D01*
X63890Y-41132D01*
X63862Y-41160D01*
X63806Y-41189D01*
X63665Y-41189D01*
X63609Y-41160D01*
X63581Y-41132D01*
X57862Y-40598D02*
X57750Y-40598D01*
X57693Y-40626D01*
X57665Y-40654D01*
X57609Y-40739D01*
X57581Y-40851D01*
X57581Y-41076D01*
X57609Y-41132D01*
X57637Y-41160D01*
X57693Y-41189D01*
X57806Y-41189D01*
X57862Y-41160D01*
X57890Y-41132D01*
X57918Y-41076D01*
X57918Y-40935D01*
X57890Y-40879D01*
X57862Y-40851D01*
X57806Y-40823D01*
X57693Y-40823D01*
X57637Y-40851D01*
X57609Y-40879D01*
X57581Y-40935D01*
X51303Y-40598D02*
X51696Y-40598D01*
X51443Y-41189D01*
X44943Y-40851D02*
X44887Y-40823D01*
X44859Y-40795D01*
X44831Y-40739D01*
X44831Y-40710D01*
X44859Y-40654D01*
X44887Y-40626D01*
X44943Y-40598D01*
X45056Y-40598D01*
X45112Y-40626D01*
X45140Y-40654D01*
X45168Y-40710D01*
X45168Y-40739D01*
X45140Y-40795D01*
X45112Y-40823D01*
X45056Y-40851D01*
X44943Y-40851D01*
X44887Y-40879D01*
X44859Y-40907D01*
X44831Y-40964D01*
X44831Y-41076D01*
X44859Y-41132D01*
X44887Y-41160D01*
X44943Y-41189D01*
X45056Y-41189D01*
X45112Y-41160D01*
X45140Y-41132D01*
X45168Y-41076D01*
X45168Y-40964D01*
X45140Y-40907D01*
X45112Y-40879D01*
X45056Y-40851D01*
X38137Y-41189D02*
X38250Y-41189D01*
X38306Y-41160D01*
X38334Y-41132D01*
X38390Y-41048D01*
X38418Y-40935D01*
X38418Y-40710D01*
X38390Y-40654D01*
X38362Y-40626D01*
X38306Y-40598D01*
X38193Y-40598D01*
X38137Y-40626D01*
X38109Y-40654D01*
X38081Y-40710D01*
X38081Y-40851D01*
X38109Y-40907D01*
X38137Y-40935D01*
X38193Y-40964D01*
X38306Y-40964D01*
X38362Y-40935D01*
X38390Y-40907D01*
X38418Y-40851D01*
X31137Y-41189D02*
X30800Y-41189D01*
X30968Y-41189D02*
X30968Y-40598D01*
X30912Y-40682D01*
X30856Y-40739D01*
X30800Y-40767D01*
X31503Y-40598D02*
X31559Y-40598D01*
X31615Y-40626D01*
X31643Y-40654D01*
X31671Y-40710D01*
X31699Y-40823D01*
X31699Y-40964D01*
X31671Y-41076D01*
X31643Y-41132D01*
X31615Y-41160D01*
X31559Y-41189D01*
X31503Y-41189D01*
X31446Y-41160D01*
X31418Y-41132D01*
X31390Y-41076D01*
X31362Y-40964D01*
X31362Y-40823D01*
X31390Y-40710D01*
X31418Y-40654D01*
X31446Y-40626D01*
X31503Y-40598D01*
X24887Y-41189D02*
X24550Y-41189D01*
X24718Y-41189D02*
X24718Y-40598D01*
X24662Y-40682D01*
X24606Y-40739D01*
X24550Y-40767D01*
X25449Y-41189D02*
X25112Y-41189D01*
X25281Y-41189D02*
X25281Y-40598D01*
X25224Y-40682D01*
X25168Y-40739D01*
X25112Y-40767D01*
X19837Y-41139D02*
X19500Y-41139D01*
X19668Y-41139D02*
X19668Y-40548D01*
X19612Y-40632D01*
X19556Y-40689D01*
X19500Y-40717D01*
X20062Y-40604D02*
X20090Y-40576D01*
X20146Y-40548D01*
X20287Y-40548D01*
X20343Y-40576D01*
X20371Y-40604D01*
X20399Y-40660D01*
X20399Y-40717D01*
X20371Y-40801D01*
X20034Y-41139D01*
X20399Y-41139D01*
X60060Y-47284D02*
X60651Y-47284D01*
X60651Y-47509D01*
X60623Y-47565D01*
X60595Y-47593D01*
X60539Y-47622D01*
X60454Y-47622D01*
X60398Y-47593D01*
X60370Y-47565D01*
X60342Y-47509D01*
X60342Y-47284D01*
X60060Y-47875D02*
X60454Y-47875D01*
X60342Y-47875D02*
X60398Y-47903D01*
X60426Y-47931D01*
X60454Y-47987D01*
X60454Y-48043D01*
X60060Y-48325D02*
X60089Y-48268D01*
X60117Y-48240D01*
X60173Y-48212D01*
X60342Y-48212D01*
X60398Y-48240D01*
X60426Y-48268D01*
X60454Y-48325D01*
X60454Y-48409D01*
X60426Y-48465D01*
X60398Y-48493D01*
X60342Y-48521D01*
X60173Y-48521D01*
X60117Y-48493D01*
X60089Y-48465D01*
X60060Y-48409D01*
X60060Y-48325D01*
X60060Y-49224D02*
X60651Y-49224D01*
X60229Y-49421D01*
X60651Y-49618D01*
X60060Y-49618D01*
X60060Y-49899D02*
X60454Y-49899D01*
X60651Y-49899D02*
X60623Y-49871D01*
X60595Y-49899D01*
X60623Y-49928D01*
X60651Y-49899D01*
X60595Y-49899D01*
X60454Y-50181D02*
X60060Y-50181D01*
X60398Y-50181D02*
X60426Y-50209D01*
X60454Y-50265D01*
X60454Y-50349D01*
X60426Y-50406D01*
X60370Y-50434D01*
X60060Y-50434D01*
X60060Y-50715D02*
X60454Y-50715D01*
X60651Y-50715D02*
X60623Y-50687D01*
X60595Y-50715D01*
X60623Y-50743D01*
X60651Y-50715D01*
X60595Y-50715D01*
X27867Y-51839D02*
X27867Y-51248D01*
X28008Y-51248D01*
X28092Y-51276D01*
X28148Y-51332D01*
X28176Y-51389D01*
X28205Y-51501D01*
X28205Y-51585D01*
X28176Y-51698D01*
X28148Y-51754D01*
X28092Y-51810D01*
X28008Y-51839D01*
X27867Y-51839D01*
X28458Y-51839D02*
X28458Y-51248D01*
X28739Y-51839D02*
X28739Y-51248D01*
X29076Y-51839D01*
X29076Y-51248D01*
X29639Y-51248D02*
X29358Y-51248D01*
X29329Y-51529D01*
X29358Y-51501D01*
X29414Y-51473D01*
X29554Y-51473D01*
X29611Y-51501D01*
X29639Y-51529D01*
X29667Y-51585D01*
X29667Y-51726D01*
X29639Y-51782D01*
X29611Y-51810D01*
X29554Y-51839D01*
X29414Y-51839D01*
X29358Y-51810D01*
X29329Y-51782D01*
X30707Y-51782D02*
X30679Y-51810D01*
X30595Y-51839D01*
X30539Y-51839D01*
X30454Y-51810D01*
X30398Y-51754D01*
X30370Y-51698D01*
X30342Y-51585D01*
X30342Y-51501D01*
X30370Y-51389D01*
X30398Y-51332D01*
X30454Y-51276D01*
X30539Y-51248D01*
X30595Y-51248D01*
X30679Y-51276D01*
X30707Y-51304D01*
X31045Y-51839D02*
X30989Y-51810D01*
X30960Y-51782D01*
X30932Y-51726D01*
X30932Y-51557D01*
X30960Y-51501D01*
X30989Y-51473D01*
X31045Y-51445D01*
X31129Y-51445D01*
X31185Y-51473D01*
X31214Y-51501D01*
X31242Y-51557D01*
X31242Y-51726D01*
X31214Y-51782D01*
X31185Y-51810D01*
X31129Y-51839D01*
X31045Y-51839D01*
X31495Y-51445D02*
X31495Y-51839D01*
X31495Y-51501D02*
X31523Y-51473D01*
X31579Y-51445D01*
X31664Y-51445D01*
X31720Y-51473D01*
X31748Y-51529D01*
X31748Y-51839D01*
X32029Y-51445D02*
X32029Y-51839D01*
X32029Y-51501D02*
X32057Y-51473D01*
X32113Y-51445D01*
X32198Y-51445D01*
X32254Y-51473D01*
X32282Y-51529D01*
X32282Y-51839D01*
X32788Y-51810D02*
X32732Y-51839D01*
X32620Y-51839D01*
X32563Y-51810D01*
X32535Y-51754D01*
X32535Y-51529D01*
X32563Y-51473D01*
X32620Y-51445D01*
X32732Y-51445D01*
X32788Y-51473D01*
X32816Y-51529D01*
X32816Y-51585D01*
X32535Y-51642D01*
X33323Y-51810D02*
X33266Y-51839D01*
X33154Y-51839D01*
X33098Y-51810D01*
X33070Y-51782D01*
X33041Y-51726D01*
X33041Y-51557D01*
X33070Y-51501D01*
X33098Y-51473D01*
X33154Y-51445D01*
X33266Y-51445D01*
X33323Y-51473D01*
X33491Y-51445D02*
X33716Y-51445D01*
X33576Y-51248D02*
X33576Y-51754D01*
X33604Y-51810D01*
X33660Y-51839D01*
X33716Y-51839D01*
X33998Y-51839D02*
X33941Y-51810D01*
X33913Y-51782D01*
X33885Y-51726D01*
X33885Y-51557D01*
X33913Y-51501D01*
X33941Y-51473D01*
X33998Y-51445D01*
X34082Y-51445D01*
X34138Y-51473D01*
X34166Y-51501D01*
X34194Y-51557D01*
X34194Y-51726D01*
X34166Y-51782D01*
X34138Y-51810D01*
X34082Y-51839D01*
X33998Y-51839D01*
X34448Y-51839D02*
X34448Y-51445D01*
X34448Y-51557D02*
X34476Y-51501D01*
X34504Y-51473D01*
X34560Y-51445D01*
X34616Y-51445D01*
X66905Y-44389D02*
X66905Y-43798D01*
X67101Y-44220D01*
X67298Y-43798D01*
X67298Y-44389D01*
X67579Y-44389D02*
X67579Y-43798D01*
X67804Y-43798D01*
X67861Y-43826D01*
X67889Y-43854D01*
X67917Y-43910D01*
X67917Y-43995D01*
X67889Y-44051D01*
X67861Y-44079D01*
X67804Y-44107D01*
X67579Y-44107D01*
X68114Y-43798D02*
X68479Y-43798D01*
X68282Y-44023D01*
X68367Y-44023D01*
X68423Y-44051D01*
X68451Y-44079D01*
X68479Y-44135D01*
X68479Y-44276D01*
X68451Y-44332D01*
X68423Y-44360D01*
X68367Y-44389D01*
X68198Y-44389D01*
X68142Y-44360D01*
X68114Y-44332D01*
X69182Y-44389D02*
X69182Y-43798D01*
X69379Y-44220D01*
X69576Y-43798D01*
X69576Y-44389D01*
X69942Y-44389D02*
X69885Y-44360D01*
X69857Y-44332D01*
X69829Y-44276D01*
X69829Y-44107D01*
X69857Y-44051D01*
X69885Y-44023D01*
X69942Y-43995D01*
X70026Y-43995D01*
X70082Y-44023D01*
X70110Y-44051D01*
X70138Y-44107D01*
X70138Y-44276D01*
X70110Y-44332D01*
X70082Y-44360D01*
X70026Y-44389D01*
X69942Y-44389D01*
X70645Y-44389D02*
X70645Y-43798D01*
X70645Y-44360D02*
X70588Y-44389D01*
X70476Y-44389D01*
X70420Y-44360D01*
X70392Y-44332D01*
X70363Y-44276D01*
X70363Y-44107D01*
X70392Y-44051D01*
X70420Y-44023D01*
X70476Y-43995D01*
X70588Y-43995D01*
X70645Y-44023D01*
X71179Y-43995D02*
X71179Y-44389D01*
X70926Y-43995D02*
X70926Y-44304D01*
X70954Y-44360D01*
X71010Y-44389D01*
X71095Y-44389D01*
X71151Y-44360D01*
X71179Y-44332D01*
X71545Y-44389D02*
X71488Y-44360D01*
X71460Y-44304D01*
X71460Y-43798D01*
X71994Y-44360D02*
X71938Y-44389D01*
X71826Y-44389D01*
X71770Y-44360D01*
X71741Y-44304D01*
X71741Y-44079D01*
X71770Y-44023D01*
X71826Y-43995D01*
X71938Y-43995D01*
X71994Y-44023D01*
X72023Y-44079D01*
X72023Y-44135D01*
X71741Y-44192D01*
X41656Y-58379D02*
X41741Y-58407D01*
X41769Y-58435D01*
X41797Y-58492D01*
X41797Y-58576D01*
X41769Y-58632D01*
X41741Y-58660D01*
X41684Y-58689D01*
X41459Y-58689D01*
X41459Y-58098D01*
X41656Y-58098D01*
X41712Y-58126D01*
X41741Y-58154D01*
X41769Y-58210D01*
X41769Y-58267D01*
X41741Y-58323D01*
X41712Y-58351D01*
X41656Y-58379D01*
X41459Y-58379D01*
X42134Y-58689D02*
X42078Y-58660D01*
X42050Y-58604D01*
X42050Y-58098D01*
X42612Y-58295D02*
X42612Y-58689D01*
X42359Y-58295D02*
X42359Y-58604D01*
X42387Y-58660D01*
X42444Y-58689D01*
X42528Y-58689D01*
X42584Y-58660D01*
X42612Y-58632D01*
X43119Y-58660D02*
X43062Y-58689D01*
X42950Y-58689D01*
X42894Y-58660D01*
X42865Y-58604D01*
X42865Y-58379D01*
X42894Y-58323D01*
X42950Y-58295D01*
X43062Y-58295D01*
X43119Y-58323D01*
X43147Y-58379D01*
X43147Y-58435D01*
X42865Y-58492D01*
X43315Y-58295D02*
X43540Y-58295D01*
X43400Y-58098D02*
X43400Y-58604D01*
X43428Y-58660D01*
X43484Y-58689D01*
X43540Y-58689D01*
X43822Y-58689D02*
X43765Y-58660D01*
X43737Y-58632D01*
X43709Y-58576D01*
X43709Y-58407D01*
X43737Y-58351D01*
X43765Y-58323D01*
X43822Y-58295D01*
X43906Y-58295D01*
X43962Y-58323D01*
X43990Y-58351D01*
X44018Y-58407D01*
X44018Y-58576D01*
X43990Y-58632D01*
X43962Y-58660D01*
X43906Y-58689D01*
X43822Y-58689D01*
X44356Y-58689D02*
X44300Y-58660D01*
X44271Y-58632D01*
X44243Y-58576D01*
X44243Y-58407D01*
X44271Y-58351D01*
X44300Y-58323D01*
X44356Y-58295D01*
X44440Y-58295D01*
X44496Y-58323D01*
X44525Y-58351D01*
X44553Y-58407D01*
X44553Y-58576D01*
X44525Y-58632D01*
X44496Y-58660D01*
X44440Y-58689D01*
X44356Y-58689D01*
X44721Y-58295D02*
X44946Y-58295D01*
X44806Y-58098D02*
X44806Y-58604D01*
X44834Y-58660D01*
X44890Y-58689D01*
X44946Y-58689D01*
X45143Y-58689D02*
X45143Y-58098D01*
X45396Y-58689D02*
X45396Y-58379D01*
X45368Y-58323D01*
X45312Y-58295D01*
X45228Y-58295D01*
X45171Y-58323D01*
X45143Y-58351D01*
X46128Y-58689D02*
X46128Y-58098D01*
X46324Y-58520D01*
X46521Y-58098D01*
X46521Y-58689D01*
X46887Y-58689D02*
X46831Y-58660D01*
X46802Y-58632D01*
X46774Y-58576D01*
X46774Y-58407D01*
X46802Y-58351D01*
X46831Y-58323D01*
X46887Y-58295D01*
X46971Y-58295D01*
X47027Y-58323D01*
X47056Y-58351D01*
X47084Y-58407D01*
X47084Y-58576D01*
X47056Y-58632D01*
X47027Y-58660D01*
X46971Y-58689D01*
X46887Y-58689D01*
X47590Y-58689D02*
X47590Y-58098D01*
X47590Y-58660D02*
X47534Y-58689D01*
X47421Y-58689D01*
X47365Y-58660D01*
X47337Y-58632D01*
X47309Y-58576D01*
X47309Y-58407D01*
X47337Y-58351D01*
X47365Y-58323D01*
X47421Y-58295D01*
X47534Y-58295D01*
X47590Y-58323D01*
X48124Y-58295D02*
X48124Y-58689D01*
X47871Y-58295D02*
X47871Y-58604D01*
X47899Y-58660D01*
X47955Y-58689D01*
X48040Y-58689D01*
X48096Y-58660D01*
X48124Y-58632D01*
X48490Y-58689D02*
X48433Y-58660D01*
X48405Y-58604D01*
X48405Y-58098D01*
X48940Y-58660D02*
X48883Y-58689D01*
X48771Y-58689D01*
X48715Y-58660D01*
X48687Y-58604D01*
X48687Y-58379D01*
X48715Y-58323D01*
X48771Y-58295D01*
X48883Y-58295D01*
X48940Y-58323D01*
X48968Y-58379D01*
X48968Y-58435D01*
X48687Y-58492D01*
G54D10*
X53879Y-49050D02*
X52600Y-50329D01*
X52600Y-50329D02*
X51320Y-49050D01*
X51320Y-49050D02*
X52600Y-47770D01*
X52600Y-47770D02*
X53879Y-49050D01*
X59883Y-52593D02*
X59883Y-45408D01*
X59883Y-45408D02*
X47285Y-45408D01*
X47285Y-45408D02*
X47285Y-52593D01*
X47285Y-52593D02*
X59883Y-52593D01*
G54D15*
X81600Y-58500D02*
X78600Y-58500D01*
X78600Y-56500D02*
X81600Y-56500D01*
X81600Y-56500D02*
X81600Y-58500D01*
X78600Y-58500D02*
X78600Y-56500D01*
G54D10*
X16300Y-51690D02*
X16694Y-51690D01*
X16300Y-51395D02*
X16694Y-51395D01*
X16300Y-51100D02*
X16694Y-51100D01*
X16300Y-50804D02*
X16694Y-50804D01*
X16300Y-50509D02*
X16694Y-50509D01*
X18170Y-51985D02*
X16300Y-51985D01*
X18170Y-50214D02*
X16300Y-50214D01*
X20237Y-53166D02*
X20237Y-53659D01*
X20237Y-53659D02*
X16300Y-53659D01*
X16300Y-53659D02*
X16300Y-52871D01*
X16300Y-52871D02*
X18170Y-52871D01*
X18170Y-52871D02*
X18170Y-52281D01*
X18170Y-52281D02*
X16300Y-52281D01*
X16300Y-52281D02*
X16300Y-49918D01*
X16300Y-49918D02*
X18170Y-49918D01*
X18170Y-49918D02*
X18170Y-49426D01*
X18170Y-49426D02*
X18170Y-49229D01*
X18170Y-49229D02*
X16300Y-49229D01*
X16300Y-49229D02*
X16300Y-48540D01*
X16300Y-48540D02*
X20237Y-48540D01*
X20237Y-48540D02*
X20237Y-49131D01*
G54D16*
X18700Y-53100D02*
X18450Y-53100D01*
X18450Y-53100D02*
X18450Y-49100D01*
X18450Y-49100D02*
X18700Y-49100D01*
X20200Y-53100D02*
X18700Y-53100D01*
X18700Y-53100D02*
X18700Y-49100D01*
X18700Y-49100D02*
X20200Y-49100D01*
X20200Y-49100D02*
X20200Y-53100D01*
G54D15*
X49450Y-35000D02*
X49450Y-34800D01*
X49450Y-32000D02*
X49450Y-32200D01*
X49450Y-32200D02*
X49050Y-32200D01*
X49050Y-32200D02*
X49050Y-34800D01*
X49050Y-34800D02*
X49850Y-34800D01*
X49850Y-34800D02*
X49850Y-32200D01*
X49850Y-32200D02*
X49450Y-32200D01*
X49250Y-34800D02*
X49050Y-34600D01*
X16750Y-35000D02*
X16750Y-34800D01*
X16750Y-32000D02*
X16750Y-32200D01*
X16750Y-32200D02*
X16350Y-32200D01*
X16350Y-32200D02*
X16350Y-34800D01*
X16350Y-34800D02*
X17150Y-34800D01*
X17150Y-34800D02*
X17150Y-32200D01*
X17150Y-32200D02*
X16750Y-32200D01*
X16550Y-34800D02*
X16350Y-34600D01*
X22950Y-35000D02*
X22950Y-34800D01*
X22950Y-32000D02*
X22950Y-32200D01*
X22950Y-32200D02*
X22550Y-32200D01*
X22550Y-32200D02*
X22550Y-34800D01*
X22550Y-34800D02*
X23350Y-34800D01*
X23350Y-34800D02*
X23350Y-32200D01*
X23350Y-32200D02*
X22950Y-32200D01*
X22750Y-34800D02*
X22550Y-34600D01*
X29350Y-35000D02*
X29350Y-34800D01*
X29350Y-32000D02*
X29350Y-32200D01*
X29350Y-32200D02*
X28950Y-32200D01*
X28950Y-32200D02*
X28950Y-34800D01*
X28950Y-34800D02*
X29750Y-34800D01*
X29750Y-34800D02*
X29750Y-32200D01*
X29750Y-32200D02*
X29350Y-32200D01*
X29150Y-34800D02*
X28950Y-34600D01*
X36250Y-35000D02*
X36250Y-34800D01*
X36250Y-32000D02*
X36250Y-32200D01*
X36250Y-32200D02*
X35850Y-32200D01*
X35850Y-32200D02*
X35850Y-34800D01*
X35850Y-34800D02*
X36650Y-34800D01*
X36650Y-34800D02*
X36650Y-32200D01*
X36650Y-32200D02*
X36250Y-32200D01*
X36050Y-34800D02*
X35850Y-34600D01*
X42850Y-35000D02*
X42850Y-34800D01*
X42850Y-32000D02*
X42850Y-32200D01*
X42850Y-32200D02*
X42450Y-32200D01*
X42450Y-32200D02*
X42450Y-34800D01*
X42450Y-34800D02*
X43250Y-34800D01*
X43250Y-34800D02*
X43250Y-32200D01*
X43250Y-32200D02*
X42850Y-32200D01*
X42650Y-34800D02*
X42450Y-34600D01*
X88550Y-35000D02*
X88550Y-34800D01*
X88550Y-32000D02*
X88550Y-32200D01*
X88550Y-32200D02*
X88150Y-32200D01*
X88150Y-32200D02*
X88150Y-34800D01*
X88150Y-34800D02*
X88950Y-34800D01*
X88950Y-34800D02*
X88950Y-32200D01*
X88950Y-32200D02*
X88550Y-32200D01*
X88350Y-34800D02*
X88150Y-34600D01*
X81950Y-35000D02*
X81950Y-34800D01*
X81950Y-32000D02*
X81950Y-32200D01*
X81950Y-32200D02*
X81550Y-32200D01*
X81550Y-32200D02*
X81550Y-34800D01*
X81550Y-34800D02*
X82350Y-34800D01*
X82350Y-34800D02*
X82350Y-32200D01*
X82350Y-32200D02*
X81950Y-32200D01*
X81750Y-34800D02*
X81550Y-34600D01*
X55650Y-35000D02*
X55650Y-34800D01*
X55650Y-32000D02*
X55650Y-32200D01*
X55650Y-32200D02*
X55250Y-32200D01*
X55250Y-32200D02*
X55250Y-34800D01*
X55250Y-34800D02*
X56050Y-34800D01*
X56050Y-34800D02*
X56050Y-32200D01*
X56050Y-32200D02*
X55650Y-32200D01*
X55450Y-34800D02*
X55250Y-34600D01*
X61650Y-35000D02*
X61650Y-34800D01*
X61650Y-32000D02*
X61650Y-32200D01*
X61650Y-32200D02*
X61250Y-32200D01*
X61250Y-32200D02*
X61250Y-34800D01*
X61250Y-34800D02*
X62050Y-34800D01*
X62050Y-34800D02*
X62050Y-32200D01*
X62050Y-32200D02*
X61650Y-32200D01*
X61450Y-34800D02*
X61250Y-34600D01*
X68450Y-35000D02*
X68450Y-34800D01*
X68450Y-32000D02*
X68450Y-32200D01*
X68450Y-32200D02*
X68050Y-32200D01*
X68050Y-32200D02*
X68050Y-34800D01*
X68050Y-34800D02*
X68850Y-34800D01*
X68850Y-34800D02*
X68850Y-32200D01*
X68850Y-32200D02*
X68450Y-32200D01*
X68250Y-34800D02*
X68050Y-34600D01*
X32570Y-35950D02*
X32570Y-34450D01*
G54D17*
X32257Y-35200D02*
G75*
G03X32257Y-35200I-707J0D01*
G74*
G01*
G54D14*
X32549Y-34449D02*
G75*
G03X32549Y-35950I-999J-750D01*
G74*
G01*
G54D18*
X31550Y-34750D02*
G75*
G03X31100Y-35200I0J-450D01*
G74*
G01*
X31550Y-35650D02*
G75*
G03X32000Y-35200I0J450D01*
G74*
G01*
X31550Y-34550D02*
G75*
G03X30900Y-35200I0J-650D01*
G74*
G01*
X31550Y-35850D02*
G75*
G03X32200Y-35200I0J650D01*
G74*
G01*
X31550Y-34350D02*
G75*
G03X30700Y-35200I0J-850D01*
G74*
G01*
X31550Y-36050D02*
G75*
G03X32400Y-35200I0J850D01*
G74*
G01*
G54D15*
X78570Y-35950D02*
X78570Y-34450D01*
G54D17*
X78257Y-35200D02*
G75*
G03X78257Y-35200I-707J0D01*
G74*
G01*
G54D14*
X78549Y-34449D02*
G75*
G03X78549Y-35950I-999J-750D01*
G74*
G01*
G54D18*
X77550Y-34750D02*
G75*
G03X77100Y-35200I0J-450D01*
G74*
G01*
X77550Y-35650D02*
G75*
G03X78000Y-35200I0J450D01*
G74*
G01*
X77550Y-34550D02*
G75*
G03X76900Y-35200I0J-650D01*
G74*
G01*
X77550Y-35850D02*
G75*
G03X78200Y-35200I0J650D01*
G74*
G01*
X77550Y-34350D02*
G75*
G03X76700Y-35200I0J-850D01*
G74*
G01*
X77550Y-36050D02*
G75*
G03X78400Y-35200I0J850D01*
G74*
G01*
G54D15*
X39370Y-35950D02*
X39370Y-34450D01*
G54D17*
X39057Y-35200D02*
G75*
G03X39057Y-35200I-707J0D01*
G74*
G01*
G54D14*
X39349Y-34449D02*
G75*
G03X39349Y-35950I-999J-750D01*
G74*
G01*
G54D18*
X38350Y-34750D02*
G75*
G03X37900Y-35200I0J-450D01*
G74*
G01*
X38350Y-35650D02*
G75*
G03X38800Y-35200I0J450D01*
G74*
G01*
X38350Y-34550D02*
G75*
G03X37700Y-35200I0J-650D01*
G74*
G01*
X38350Y-35850D02*
G75*
G03X39000Y-35200I0J650D01*
G74*
G01*
X38350Y-34350D02*
G75*
G03X37500Y-35200I0J-850D01*
G74*
G01*
X38350Y-36050D02*
G75*
G03X39200Y-35200I0J850D01*
G74*
G01*
G54D15*
X26170Y-35950D02*
X26170Y-34450D01*
G54D17*
X25857Y-35200D02*
G75*
G03X25857Y-35200I-707J0D01*
G74*
G01*
G54D14*
X26149Y-34449D02*
G75*
G03X26149Y-35950I-999J-750D01*
G74*
G01*
G54D18*
X25150Y-34750D02*
G75*
G03X24700Y-35200I0J-450D01*
G74*
G01*
X25150Y-35650D02*
G75*
G03X25600Y-35200I0J450D01*
G74*
G01*
X25150Y-34550D02*
G75*
G03X24500Y-35200I0J-650D01*
G74*
G01*
X25150Y-35850D02*
G75*
G03X25800Y-35200I0J650D01*
G74*
G01*
X25150Y-34350D02*
G75*
G03X24300Y-35200I0J-850D01*
G74*
G01*
X25150Y-36050D02*
G75*
G03X26000Y-35200I0J850D01*
G74*
G01*
G54D15*
X91770Y-35950D02*
X91770Y-34450D01*
G54D17*
X91457Y-35200D02*
G75*
G03X91457Y-35200I-707J0D01*
G74*
G01*
G54D14*
X91749Y-34449D02*
G75*
G03X91749Y-35950I-999J-750D01*
G74*
G01*
G54D18*
X90750Y-34750D02*
G75*
G03X90300Y-35200I0J-450D01*
G74*
G01*
X90750Y-35650D02*
G75*
G03X91200Y-35200I0J450D01*
G74*
G01*
X90750Y-34550D02*
G75*
G03X90100Y-35200I0J-650D01*
G74*
G01*
X90750Y-35850D02*
G75*
G03X91400Y-35200I0J650D01*
G74*
G01*
X90750Y-34350D02*
G75*
G03X89900Y-35200I0J-850D01*
G74*
G01*
X90750Y-36050D02*
G75*
G03X91600Y-35200I0J850D01*
G74*
G01*
G54D15*
X71670Y-35950D02*
X71670Y-34450D01*
G54D17*
X71357Y-35200D02*
G75*
G03X71357Y-35200I-707J0D01*
G74*
G01*
G54D14*
X71649Y-34449D02*
G75*
G03X71649Y-35950I-999J-750D01*
G74*
G01*
G54D18*
X70650Y-34750D02*
G75*
G03X70200Y-35200I0J-450D01*
G74*
G01*
X70650Y-35650D02*
G75*
G03X71100Y-35200I0J450D01*
G74*
G01*
X70650Y-34550D02*
G75*
G03X70000Y-35200I0J-650D01*
G74*
G01*
X70650Y-35850D02*
G75*
G03X71300Y-35200I0J650D01*
G74*
G01*
X70650Y-34350D02*
G75*
G03X69800Y-35200I0J-850D01*
G74*
G01*
X70650Y-36050D02*
G75*
G03X71500Y-35200I0J850D01*
G74*
G01*
G54D15*
X20020Y-35950D02*
X20020Y-34450D01*
G54D17*
X19707Y-35200D02*
G75*
G03X19707Y-35200I-707J0D01*
G74*
G01*
G54D14*
X19999Y-34449D02*
G75*
G03X19999Y-35950I-999J-750D01*
G74*
G01*
G54D18*
X19000Y-34750D02*
G75*
G03X18550Y-35200I0J-450D01*
G74*
G01*
X19000Y-35650D02*
G75*
G03X19450Y-35200I0J450D01*
G74*
G01*
X19000Y-34550D02*
G75*
G03X18350Y-35200I0J-650D01*
G74*
G01*
X19000Y-35850D02*
G75*
G03X19650Y-35200I0J650D01*
G74*
G01*
X19000Y-34350D02*
G75*
G03X18150Y-35200I0J-850D01*
G74*
G01*
X19000Y-36050D02*
G75*
G03X19850Y-35200I0J850D01*
G74*
G01*
G54D15*
X46070Y-35950D02*
X46070Y-34450D01*
G54D17*
X45757Y-35200D02*
G75*
G03X45757Y-35200I-707J0D01*
G74*
G01*
G54D14*
X46049Y-34449D02*
G75*
G03X46049Y-35950I-999J-750D01*
G74*
G01*
G54D18*
X45050Y-34750D02*
G75*
G03X44600Y-35200I0J-450D01*
G74*
G01*
X45050Y-35650D02*
G75*
G03X45500Y-35200I0J450D01*
G74*
G01*
X45050Y-34550D02*
G75*
G03X44400Y-35200I0J-650D01*
G74*
G01*
X45050Y-35850D02*
G75*
G03X45700Y-35200I0J650D01*
G74*
G01*
X45050Y-34350D02*
G75*
G03X44200Y-35200I0J-850D01*
G74*
G01*
X45050Y-36050D02*
G75*
G03X45900Y-35200I0J850D01*
G74*
G01*
G54D15*
X85070Y-35950D02*
X85070Y-34450D01*
G54D17*
X84757Y-35200D02*
G75*
G03X84757Y-35200I-707J0D01*
G74*
G01*
G54D14*
X85049Y-34449D02*
G75*
G03X85049Y-35950I-999J-750D01*
G74*
G01*
G54D18*
X84050Y-34750D02*
G75*
G03X83600Y-35200I0J-450D01*
G74*
G01*
X84050Y-35650D02*
G75*
G03X84500Y-35200I0J450D01*
G74*
G01*
X84050Y-34550D02*
G75*
G03X83400Y-35200I0J-650D01*
G74*
G01*
X84050Y-35850D02*
G75*
G03X84700Y-35200I0J650D01*
G74*
G01*
X84050Y-34350D02*
G75*
G03X83200Y-35200I0J-850D01*
G74*
G01*
X84050Y-36050D02*
G75*
G03X84900Y-35200I0J850D01*
G74*
G01*
G54D15*
X52570Y-35950D02*
X52570Y-34450D01*
G54D17*
X52257Y-35200D02*
G75*
G03X52257Y-35200I-707J0D01*
G74*
G01*
G54D14*
X52549Y-34449D02*
G75*
G03X52549Y-35950I-999J-750D01*
G74*
G01*
G54D18*
X51550Y-34750D02*
G75*
G03X51100Y-35200I0J-450D01*
G74*
G01*
X51550Y-35650D02*
G75*
G03X52000Y-35200I0J450D01*
G74*
G01*
X51550Y-34550D02*
G75*
G03X50900Y-35200I0J-650D01*
G74*
G01*
X51550Y-35850D02*
G75*
G03X52200Y-35200I0J650D01*
G74*
G01*
X51550Y-34350D02*
G75*
G03X50700Y-35200I0J-850D01*
G74*
G01*
X51550Y-36050D02*
G75*
G03X52400Y-35200I0J850D01*
G74*
G01*
G54D15*
X64870Y-35950D02*
X64870Y-34450D01*
G54D17*
X64557Y-35200D02*
G75*
G03X64557Y-35200I-707J0D01*
G74*
G01*
G54D14*
X64849Y-34449D02*
G75*
G03X64849Y-35950I-999J-750D01*
G74*
G01*
G54D18*
X63850Y-34750D02*
G75*
G03X63400Y-35200I0J-450D01*
G74*
G01*
X63850Y-35650D02*
G75*
G03X64300Y-35200I0J450D01*
G74*
G01*
X63850Y-34550D02*
G75*
G03X63200Y-35200I0J-650D01*
G74*
G01*
X63850Y-35850D02*
G75*
G03X64500Y-35200I0J650D01*
G74*
G01*
X63850Y-34350D02*
G75*
G03X63000Y-35200I0J-850D01*
G74*
G01*
X63850Y-36050D02*
G75*
G03X64700Y-35200I0J850D01*
G74*
G01*
G54D15*
X58870Y-35950D02*
X58870Y-34450D01*
G54D17*
X58557Y-35200D02*
G75*
G03X58557Y-35200I-707J0D01*
G74*
G01*
G54D14*
X58849Y-34449D02*
G75*
G03X58849Y-35950I-999J-750D01*
G74*
G01*
G54D18*
X57850Y-34750D02*
G75*
G03X57400Y-35200I0J-450D01*
G74*
G01*
X57850Y-35650D02*
G75*
G03X58300Y-35200I0J450D01*
G74*
G01*
X57850Y-34550D02*
G75*
G03X57200Y-35200I0J-650D01*
G74*
G01*
X57850Y-35850D02*
G75*
G03X58500Y-35200I0J650D01*
G74*
G01*
X57850Y-34350D02*
G75*
G03X57000Y-35200I0J-850D01*
G74*
G01*
X57850Y-36050D02*
G75*
G03X58700Y-35200I0J850D01*
G74*
G01*
G54D19*
X46450Y-27800D02*
X46150Y-27800D01*
X46150Y-27800D02*
X46150Y-27400D01*
X46150Y-27400D02*
X43750Y-27400D01*
X43750Y-27400D02*
X43750Y-27800D01*
X43750Y-27800D02*
X43450Y-27800D01*
X43750Y-27800D02*
X43750Y-28200D01*
X43750Y-28200D02*
X46150Y-28200D01*
X46150Y-28200D02*
X46150Y-27800D01*
X45950Y-27400D02*
X45950Y-28200D01*
X45850Y-28200D02*
X45850Y-27400D01*
X85450Y-27800D02*
X85150Y-27800D01*
X85150Y-27800D02*
X85150Y-27400D01*
X85150Y-27400D02*
X82750Y-27400D01*
X82750Y-27400D02*
X82750Y-27800D01*
X82750Y-27800D02*
X82450Y-27800D01*
X82750Y-27800D02*
X82750Y-28200D01*
X82750Y-28200D02*
X85150Y-28200D01*
X85150Y-28200D02*
X85150Y-27800D01*
X84950Y-27400D02*
X84950Y-28200D01*
X84850Y-28200D02*
X84850Y-27400D01*
X65250Y-27800D02*
X64950Y-27800D01*
X64950Y-27800D02*
X64950Y-27400D01*
X64950Y-27400D02*
X62550Y-27400D01*
X62550Y-27400D02*
X62550Y-27800D01*
X62550Y-27800D02*
X62250Y-27800D01*
X62550Y-27800D02*
X62550Y-28200D01*
X62550Y-28200D02*
X64950Y-28200D01*
X64950Y-28200D02*
X64950Y-27800D01*
X64750Y-27400D02*
X64750Y-28200D01*
X64650Y-28200D02*
X64650Y-27400D01*
X19650Y-27800D02*
X19350Y-27800D01*
X19350Y-27800D02*
X19350Y-27400D01*
X19350Y-27400D02*
X16950Y-27400D01*
X16950Y-27400D02*
X16950Y-27800D01*
X16950Y-27800D02*
X16650Y-27800D01*
X16950Y-27800D02*
X16950Y-28200D01*
X16950Y-28200D02*
X19350Y-28200D01*
X19350Y-28200D02*
X19350Y-27800D01*
X19150Y-27400D02*
X19150Y-28200D01*
X19050Y-28200D02*
X19050Y-27400D01*
X26550Y-27800D02*
X26250Y-27800D01*
X26250Y-27800D02*
X26250Y-27400D01*
X26250Y-27400D02*
X23850Y-27400D01*
X23850Y-27400D02*
X23850Y-27800D01*
X23850Y-27800D02*
X23550Y-27800D01*
X23850Y-27800D02*
X23850Y-28200D01*
X23850Y-28200D02*
X26250Y-28200D01*
X26250Y-28200D02*
X26250Y-27800D01*
X26050Y-27400D02*
X26050Y-28200D01*
X25950Y-28200D02*
X25950Y-27400D01*
X92050Y-27800D02*
X91750Y-27800D01*
X91750Y-27800D02*
X91750Y-27400D01*
X91750Y-27400D02*
X89350Y-27400D01*
X89350Y-27400D02*
X89350Y-27800D01*
X89350Y-27800D02*
X89050Y-27800D01*
X89350Y-27800D02*
X89350Y-28200D01*
X89350Y-28200D02*
X91750Y-28200D01*
X91750Y-28200D02*
X91750Y-27800D01*
X91550Y-27400D02*
X91550Y-28200D01*
X91450Y-28200D02*
X91450Y-27400D01*
X78950Y-27800D02*
X78650Y-27800D01*
X78650Y-27800D02*
X78650Y-27400D01*
X78650Y-27400D02*
X76250Y-27400D01*
X76250Y-27400D02*
X76250Y-27800D01*
X76250Y-27800D02*
X75950Y-27800D01*
X76250Y-27800D02*
X76250Y-28200D01*
X76250Y-28200D02*
X78650Y-28200D01*
X78650Y-28200D02*
X78650Y-27800D01*
X78450Y-27400D02*
X78450Y-28200D01*
X78350Y-28200D02*
X78350Y-27400D01*
X59150Y-27800D02*
X58850Y-27800D01*
X58850Y-27800D02*
X58850Y-27400D01*
X58850Y-27400D02*
X56450Y-27400D01*
X56450Y-27400D02*
X56450Y-27800D01*
X56450Y-27800D02*
X56150Y-27800D01*
X56450Y-27800D02*
X56450Y-28200D01*
X56450Y-28200D02*
X58850Y-28200D01*
X58850Y-28200D02*
X58850Y-27800D01*
X58650Y-27400D02*
X58650Y-28200D01*
X58550Y-28200D02*
X58550Y-27400D01*
X32850Y-27800D02*
X32550Y-27800D01*
X32550Y-27800D02*
X32550Y-27400D01*
X32550Y-27400D02*
X30150Y-27400D01*
X30150Y-27400D02*
X30150Y-27800D01*
X30150Y-27800D02*
X29850Y-27800D01*
X30150Y-27800D02*
X30150Y-28200D01*
X30150Y-28200D02*
X32550Y-28200D01*
X32550Y-28200D02*
X32550Y-27800D01*
X32350Y-27400D02*
X32350Y-28200D01*
X32250Y-28200D02*
X32250Y-27400D01*
X72050Y-27800D02*
X71750Y-27800D01*
X71750Y-27800D02*
X71750Y-27400D01*
X71750Y-27400D02*
X69350Y-27400D01*
X69350Y-27400D02*
X69350Y-27800D01*
X69350Y-27800D02*
X69050Y-27800D01*
X69350Y-27800D02*
X69350Y-28200D01*
X69350Y-28200D02*
X71750Y-28200D01*
X71750Y-28200D02*
X71750Y-27800D01*
X71550Y-27400D02*
X71550Y-28200D01*
X71450Y-28200D02*
X71450Y-27400D01*
X39750Y-27800D02*
X39450Y-27800D01*
X39450Y-27800D02*
X39450Y-27400D01*
X39450Y-27400D02*
X37050Y-27400D01*
X37050Y-27400D02*
X37050Y-27800D01*
X37050Y-27800D02*
X36750Y-27800D01*
X37050Y-27800D02*
X37050Y-28200D01*
X37050Y-28200D02*
X39450Y-28200D01*
X39450Y-28200D02*
X39450Y-27800D01*
X39250Y-27400D02*
X39250Y-28200D01*
X39150Y-28200D02*
X39150Y-27400D01*
X53050Y-27800D02*
X52750Y-27800D01*
X52750Y-27800D02*
X52750Y-27400D01*
X52750Y-27400D02*
X50350Y-27400D01*
X50350Y-27400D02*
X50350Y-27800D01*
X50350Y-27800D02*
X50050Y-27800D01*
X50350Y-27800D02*
X50350Y-28200D01*
X50350Y-28200D02*
X52750Y-28200D01*
X52750Y-28200D02*
X52750Y-27800D01*
X52550Y-27400D02*
X52550Y-28200D01*
X52450Y-28200D02*
X52450Y-27400D01*
G54D16*
X36300Y-29350D02*
X36300Y-29100D01*
X36300Y-29100D02*
X40300Y-29100D01*
X40300Y-29100D02*
X40300Y-29350D01*
X36300Y-30850D02*
X36300Y-29350D01*
X36300Y-29350D02*
X40300Y-29350D01*
X40300Y-29350D02*
X40300Y-30850D01*
X40300Y-30850D02*
X36300Y-30850D01*
X88600Y-29350D02*
X88600Y-29100D01*
X88600Y-29100D02*
X92600Y-29100D01*
X92600Y-29100D02*
X92600Y-29350D01*
X88600Y-30850D02*
X88600Y-29350D01*
X88600Y-29350D02*
X92600Y-29350D01*
X92600Y-29350D02*
X92600Y-30850D01*
X92600Y-30850D02*
X88600Y-30850D01*
X16100Y-29350D02*
X16100Y-29100D01*
X16100Y-29100D02*
X20100Y-29100D01*
X20100Y-29100D02*
X20100Y-29350D01*
X16100Y-30850D02*
X16100Y-29350D01*
X16100Y-29350D02*
X20100Y-29350D01*
X20100Y-29350D02*
X20100Y-30850D01*
X20100Y-30850D02*
X16100Y-30850D01*
X23050Y-29350D02*
X23050Y-29100D01*
X23050Y-29100D02*
X27050Y-29100D01*
X27050Y-29100D02*
X27050Y-29350D01*
X23050Y-30850D02*
X23050Y-29350D01*
X23050Y-29350D02*
X27050Y-29350D01*
X27050Y-29350D02*
X27050Y-30850D01*
X27050Y-30850D02*
X23050Y-30850D01*
X29400Y-29350D02*
X29400Y-29100D01*
X29400Y-29100D02*
X33400Y-29100D01*
X33400Y-29100D02*
X33400Y-29350D01*
X29400Y-30850D02*
X29400Y-29350D01*
X29400Y-29350D02*
X33400Y-29350D01*
X33400Y-29350D02*
X33400Y-30850D01*
X33400Y-30850D02*
X29400Y-30850D01*
X42950Y-29350D02*
X42950Y-29100D01*
X42950Y-29100D02*
X46950Y-29100D01*
X46950Y-29100D02*
X46950Y-29350D01*
X42950Y-30850D02*
X42950Y-29350D01*
X42950Y-29350D02*
X46950Y-29350D01*
X46950Y-29350D02*
X46950Y-30850D01*
X46950Y-30850D02*
X42950Y-30850D01*
X49500Y-29350D02*
X49500Y-29100D01*
X49500Y-29100D02*
X53500Y-29100D01*
X53500Y-29100D02*
X53500Y-29350D01*
X49500Y-30850D02*
X49500Y-29350D01*
X49500Y-29350D02*
X53500Y-29350D01*
X53500Y-29350D02*
X53500Y-30850D01*
X53500Y-30850D02*
X49500Y-30850D01*
X55700Y-29350D02*
X55700Y-29100D01*
X55700Y-29100D02*
X59700Y-29100D01*
X59700Y-29100D02*
X59700Y-29350D01*
X55700Y-30850D02*
X55700Y-29350D01*
X55700Y-29350D02*
X59700Y-29350D01*
X59700Y-29350D02*
X59700Y-30850D01*
X59700Y-30850D02*
X55700Y-30850D01*
X61750Y-29350D02*
X61750Y-29100D01*
X61750Y-29100D02*
X65750Y-29100D01*
X65750Y-29100D02*
X65750Y-29350D01*
X61750Y-30850D02*
X61750Y-29350D01*
X61750Y-29350D02*
X65750Y-29350D01*
X65750Y-29350D02*
X65750Y-30850D01*
X65750Y-30850D02*
X61750Y-30850D01*
X68550Y-29350D02*
X68550Y-29100D01*
X68550Y-29100D02*
X72550Y-29100D01*
X72550Y-29100D02*
X72550Y-29350D01*
X68550Y-30850D02*
X68550Y-29350D01*
X68550Y-29350D02*
X72550Y-29350D01*
X72550Y-29350D02*
X72550Y-30850D01*
X72550Y-30850D02*
X68550Y-30850D01*
X75450Y-29350D02*
X75450Y-29100D01*
X75450Y-29100D02*
X79450Y-29100D01*
X79450Y-29100D02*
X79450Y-29350D01*
X75450Y-30850D02*
X75450Y-29350D01*
X75450Y-29350D02*
X79450Y-29350D01*
X79450Y-29350D02*
X79450Y-30850D01*
X79450Y-30850D02*
X75450Y-30850D01*
X82000Y-29350D02*
X82000Y-29100D01*
X82000Y-29100D02*
X86000Y-29100D01*
X86000Y-29100D02*
X86000Y-29350D01*
X82000Y-30850D02*
X82000Y-29350D01*
X82000Y-29350D02*
X86000Y-29350D01*
X86000Y-29350D02*
X86000Y-30850D01*
X86000Y-30850D02*
X82000Y-30850D01*
G54D19*
X93550Y-54000D02*
X90550Y-54000D01*
X93550Y-48000D02*
X90550Y-48000D01*
X93050Y-54000D02*
X93050Y-48000D01*
X90550Y-54000D02*
X90550Y-48000D01*
X93550Y-54000D02*
X93550Y-48000D01*
G54D10*
X23728Y-58708D02*
X32291Y-58708D01*
X32291Y-58708D02*
X32291Y-59496D01*
X32291Y-59496D02*
X22842Y-59496D01*
X22842Y-59496D02*
X22842Y-58708D01*
X22842Y-58708D02*
X23728Y-58708D01*
X31503Y-58708D02*
X31503Y-52015D01*
X31503Y-52015D02*
X23728Y-52015D01*
X23728Y-52015D02*
X23728Y-58708D01*
G54D15*
X27350Y-48300D02*
X27350Y-48500D01*
X27350Y-51300D02*
X27350Y-51100D01*
X27350Y-51100D02*
X27750Y-51100D01*
X27750Y-51100D02*
X27750Y-48500D01*
X27750Y-48500D02*
X26950Y-48500D01*
X26950Y-48500D02*
X26950Y-51100D01*
X26950Y-51100D02*
X27350Y-51100D01*
X27550Y-48500D02*
X27750Y-48700D01*
X24450Y-48300D02*
X24450Y-48500D01*
X24450Y-51300D02*
X24450Y-51100D01*
X24450Y-51100D02*
X24850Y-51100D01*
X24850Y-51100D02*
X24850Y-48500D01*
X24850Y-48500D02*
X24050Y-48500D01*
X24050Y-48500D02*
X24050Y-51100D01*
X24050Y-51100D02*
X24450Y-51100D01*
X24650Y-48500D02*
X24850Y-48700D01*
X60750Y-56550D02*
X60550Y-56550D01*
X57750Y-56550D02*
X57950Y-56550D01*
X57950Y-56550D02*
X57950Y-56950D01*
X57950Y-56950D02*
X60550Y-56950D01*
X60550Y-56950D02*
X60550Y-56150D01*
X60550Y-56150D02*
X57950Y-56150D01*
X57950Y-56150D02*
X57950Y-56550D01*
X60550Y-56750D02*
X60350Y-56950D01*
X57750Y-57500D02*
X57950Y-57500D01*
X60750Y-57500D02*
X60550Y-57500D01*
X60550Y-57500D02*
X60550Y-57100D01*
X60550Y-57100D02*
X57950Y-57100D01*
X57950Y-57100D02*
X57950Y-57900D01*
X57950Y-57900D02*
X60550Y-57900D01*
X60550Y-57900D02*
X60550Y-57500D01*
X57950Y-57300D02*
X58150Y-57100D01*
X57750Y-58550D02*
X57950Y-58550D01*
X60750Y-58550D02*
X60550Y-58550D01*
X60550Y-58550D02*
X60550Y-58150D01*
X60550Y-58150D02*
X57950Y-58150D01*
X57950Y-58150D02*
X57950Y-58950D01*
X57950Y-58950D02*
X60550Y-58950D01*
X60550Y-58950D02*
X60550Y-58550D01*
X57950Y-58350D02*
X58150Y-58150D01*
G54D10*
X68787Y-53179D02*
X68787Y-52785D01*
X68787Y-52785D02*
X70362Y-52785D01*
X70362Y-52785D02*
X70362Y-53179D01*
X67015Y-53179D02*
X71838Y-53179D01*
X71838Y-53179D02*
X71838Y-44812D01*
X71838Y-44812D02*
X67015Y-44812D01*
X67015Y-44812D02*
X67015Y-53179D01*
G54D20*
X22751Y-52850D02*
G75*
G03X22751Y-52850I-1001J0D01*
G74*
G01*
X23101Y-47900D02*
G75*
G03X23101Y-47900I-1001J0D01*
G74*
G01*
G54D18*
X22600Y-44700D02*
X23600Y-44700D01*
X23600Y-44700D02*
X23600Y-46700D01*
X23600Y-46700D02*
X22600Y-46700D01*
X22600Y-46700D02*
X22600Y-44700D01*
X21100Y-44700D02*
X22100Y-44700D01*
X22100Y-44700D02*
X22100Y-46700D01*
X22100Y-46700D02*
X21100Y-46700D01*
X21100Y-46700D02*
X21100Y-44700D01*
G54D10*
X89500Y-38650D02*
X89400Y-38650D01*
X89400Y-38650D02*
X89400Y-38950D01*
X89400Y-38950D02*
X89500Y-38950D01*
X89500Y-38550D02*
X89500Y-39050D01*
X89200Y-39750D02*
X90200Y-39750D01*
X89700Y-38950D02*
X89700Y-39750D01*
X89700Y-37850D02*
X89700Y-38650D01*
X89200Y-37850D02*
X90200Y-37850D01*
X90327Y-38812D02*
G75*
G03X90327Y-38812I-630J0D01*
G74*
G01*
X87925Y-37335D02*
X87925Y-40288D01*
X87925Y-40288D02*
X91468Y-40288D01*
X91468Y-40288D02*
X91468Y-37335D01*
X91468Y-37335D02*
X87925Y-37335D01*
X44000Y-38400D02*
X43900Y-38400D01*
X43900Y-38400D02*
X43900Y-38700D01*
X43900Y-38700D02*
X44000Y-38700D01*
X44000Y-38300D02*
X44000Y-38800D01*
X43700Y-39500D02*
X44700Y-39500D01*
X44200Y-38700D02*
X44200Y-39500D01*
X44200Y-37600D02*
X44200Y-38400D01*
X43700Y-37600D02*
X44700Y-37600D01*
X44827Y-38562D02*
G75*
G03X44827Y-38562I-630J0D01*
G74*
G01*
X42425Y-37085D02*
X42425Y-40038D01*
X42425Y-40038D02*
X45968Y-40038D01*
X45968Y-40038D02*
X45968Y-37085D01*
X45968Y-37085D02*
X42425Y-37085D01*
X83000Y-38650D02*
X82900Y-38650D01*
X82900Y-38650D02*
X82900Y-38950D01*
X82900Y-38950D02*
X83000Y-38950D01*
X83000Y-38550D02*
X83000Y-39050D01*
X82700Y-39750D02*
X83700Y-39750D01*
X83200Y-38950D02*
X83200Y-39750D01*
X83200Y-37850D02*
X83200Y-38650D01*
X82700Y-37850D02*
X83700Y-37850D01*
X83827Y-38812D02*
G75*
G03X83827Y-38812I-630J0D01*
G74*
G01*
X81425Y-37335D02*
X81425Y-40288D01*
X81425Y-40288D02*
X84968Y-40288D01*
X84968Y-40288D02*
X84968Y-37335D01*
X84968Y-37335D02*
X81425Y-37335D01*
X50750Y-38400D02*
X50650Y-38400D01*
X50650Y-38400D02*
X50650Y-38700D01*
X50650Y-38700D02*
X50750Y-38700D01*
X50750Y-38300D02*
X50750Y-38800D01*
X50450Y-39500D02*
X51450Y-39500D01*
X50950Y-38700D02*
X50950Y-39500D01*
X50950Y-37600D02*
X50950Y-38400D01*
X50450Y-37600D02*
X51450Y-37600D01*
X51577Y-38562D02*
G75*
G03X51577Y-38562I-630J0D01*
G74*
G01*
X49175Y-37085D02*
X49175Y-40038D01*
X49175Y-40038D02*
X52718Y-40038D01*
X52718Y-40038D02*
X52718Y-37085D01*
X52718Y-37085D02*
X49175Y-37085D01*
X37450Y-38400D02*
X37350Y-38400D01*
X37350Y-38400D02*
X37350Y-38700D01*
X37350Y-38700D02*
X37450Y-38700D01*
X37450Y-38300D02*
X37450Y-38800D01*
X37150Y-39500D02*
X38150Y-39500D01*
X37650Y-38700D02*
X37650Y-39500D01*
X37650Y-37600D02*
X37650Y-38400D01*
X37150Y-37600D02*
X38150Y-37600D01*
X38277Y-38562D02*
G75*
G03X38277Y-38562I-630J0D01*
G74*
G01*
X35875Y-37085D02*
X35875Y-40038D01*
X35875Y-40038D02*
X39418Y-40038D01*
X39418Y-40038D02*
X39418Y-37085D01*
X39418Y-37085D02*
X35875Y-37085D01*
X76500Y-38650D02*
X76400Y-38650D01*
X76400Y-38650D02*
X76400Y-38950D01*
X76400Y-38950D02*
X76500Y-38950D01*
X76500Y-38550D02*
X76500Y-39050D01*
X76200Y-39750D02*
X77200Y-39750D01*
X76700Y-38950D02*
X76700Y-39750D01*
X76700Y-37850D02*
X76700Y-38650D01*
X76200Y-37850D02*
X77200Y-37850D01*
X77327Y-38812D02*
G75*
G03X77327Y-38812I-630J0D01*
G74*
G01*
X74925Y-37335D02*
X74925Y-40288D01*
X74925Y-40288D02*
X78468Y-40288D01*
X78468Y-40288D02*
X78468Y-37335D01*
X78468Y-37335D02*
X74925Y-37335D01*
X56750Y-38400D02*
X56650Y-38400D01*
X56650Y-38400D02*
X56650Y-38700D01*
X56650Y-38700D02*
X56750Y-38700D01*
X56750Y-38300D02*
X56750Y-38800D01*
X56450Y-39500D02*
X57450Y-39500D01*
X56950Y-38700D02*
X56950Y-39500D01*
X56950Y-37600D02*
X56950Y-38400D01*
X56450Y-37600D02*
X57450Y-37600D01*
X57577Y-38562D02*
G75*
G03X57577Y-38562I-630J0D01*
G74*
G01*
X55175Y-37085D02*
X55175Y-40038D01*
X55175Y-40038D02*
X58718Y-40038D01*
X58718Y-40038D02*
X58718Y-37085D01*
X58718Y-37085D02*
X55175Y-37085D01*
X30450Y-38550D02*
X30350Y-38550D01*
X30350Y-38550D02*
X30350Y-38850D01*
X30350Y-38850D02*
X30450Y-38850D01*
X30450Y-38450D02*
X30450Y-38950D01*
X30150Y-39650D02*
X31150Y-39650D01*
X30650Y-38850D02*
X30650Y-39650D01*
X30650Y-37750D02*
X30650Y-38550D01*
X30150Y-37750D02*
X31150Y-37750D01*
X31277Y-38712D02*
G75*
G03X31277Y-38712I-630J0D01*
G74*
G01*
X28875Y-37235D02*
X28875Y-40188D01*
X28875Y-40188D02*
X32418Y-40188D01*
X32418Y-40188D02*
X32418Y-37235D01*
X32418Y-37235D02*
X28875Y-37235D01*
X24100Y-38550D02*
X24000Y-38550D01*
X24000Y-38550D02*
X24000Y-38850D01*
X24000Y-38850D02*
X24100Y-38850D01*
X24100Y-38450D02*
X24100Y-38950D01*
X23800Y-39650D02*
X24800Y-39650D01*
X24300Y-38850D02*
X24300Y-39650D01*
X24300Y-37750D02*
X24300Y-38550D01*
X23800Y-37750D02*
X24800Y-37750D01*
X24927Y-38712D02*
G75*
G03X24927Y-38712I-630J0D01*
G74*
G01*
X22525Y-37235D02*
X22525Y-40188D01*
X22525Y-40188D02*
X26068Y-40188D01*
X26068Y-40188D02*
X26068Y-37235D01*
X26068Y-37235D02*
X22525Y-37235D01*
X69750Y-38650D02*
X69650Y-38650D01*
X69650Y-38650D02*
X69650Y-38950D01*
X69650Y-38950D02*
X69750Y-38950D01*
X69750Y-38550D02*
X69750Y-39050D01*
X69450Y-39750D02*
X70450Y-39750D01*
X69950Y-38950D02*
X69950Y-39750D01*
X69950Y-37850D02*
X69950Y-38650D01*
X69450Y-37850D02*
X70450Y-37850D01*
X70577Y-38812D02*
G75*
G03X70577Y-38812I-630J0D01*
G74*
G01*
X68175Y-37335D02*
X68175Y-40288D01*
X68175Y-40288D02*
X71718Y-40288D01*
X71718Y-40288D02*
X71718Y-37335D01*
X71718Y-37335D02*
X68175Y-37335D01*
X63000Y-38650D02*
X62900Y-38650D01*
X62900Y-38650D02*
X62900Y-38950D01*
X62900Y-38950D02*
X63000Y-38950D01*
X63000Y-38550D02*
X63000Y-39050D01*
X62700Y-39750D02*
X63700Y-39750D01*
X63200Y-38950D02*
X63200Y-39750D01*
X63200Y-37850D02*
X63200Y-38650D01*
X62700Y-37850D02*
X63700Y-37850D01*
X63827Y-38812D02*
G75*
G03X63827Y-38812I-630J0D01*
G74*
G01*
X61425Y-37335D02*
X61425Y-40288D01*
X61425Y-40288D02*
X64968Y-40288D01*
X64968Y-40288D02*
X64968Y-37335D01*
X64968Y-37335D02*
X61425Y-37335D01*
X18600Y-38550D02*
X18500Y-38550D01*
X18500Y-38550D02*
X18500Y-38850D01*
X18500Y-38850D02*
X18600Y-38850D01*
X18600Y-38450D02*
X18600Y-38950D01*
X18300Y-39650D02*
X19300Y-39650D01*
X18800Y-38850D02*
X18800Y-39650D01*
X18800Y-37750D02*
X18800Y-38550D01*
X18300Y-37750D02*
X19300Y-37750D01*
X19427Y-38712D02*
G75*
G03X19427Y-38712I-630J0D01*
G74*
G01*
X17025Y-37235D02*
X17025Y-40188D01*
X17025Y-40188D02*
X20568Y-40188D01*
X20568Y-40188D02*
X20568Y-37235D01*
X20568Y-37235D02*
X17025Y-37235D01*
G54D15*
X85300Y-52800D02*
X85300Y-52600D01*
X85300Y-49800D02*
X85300Y-50000D01*
X85300Y-50000D02*
X84900Y-50000D01*
X84900Y-50000D02*
X84900Y-52600D01*
X84900Y-52600D02*
X85700Y-52600D01*
X85700Y-52600D02*
X85700Y-50000D01*
X85700Y-50000D02*
X85300Y-50000D01*
X85100Y-52600D02*
X84900Y-52400D01*
X84350Y-49800D02*
X84350Y-50000D01*
X84350Y-52800D02*
X84350Y-52600D01*
X84350Y-52600D02*
X84750Y-52600D01*
X84750Y-52600D02*
X84750Y-50000D01*
X84750Y-50000D02*
X83950Y-50000D01*
X83950Y-50000D02*
X83950Y-52600D01*
X83950Y-52600D02*
X84350Y-52600D01*
X84550Y-50000D02*
X84750Y-50200D01*
X75450Y-44850D02*
X75650Y-44850D01*
X78450Y-44850D02*
X78250Y-44850D01*
X78250Y-44850D02*
X78250Y-44450D01*
X78250Y-44450D02*
X75650Y-44450D01*
X75650Y-44450D02*
X75650Y-45250D01*
X75650Y-45250D02*
X78250Y-45250D01*
X78250Y-45250D02*
X78250Y-44850D01*
X75650Y-44650D02*
X75850Y-44450D01*
X75150Y-48000D02*
X75150Y-48200D01*
X75150Y-51000D02*
X75150Y-50800D01*
X75150Y-50800D02*
X75550Y-50800D01*
X75550Y-50800D02*
X75550Y-48200D01*
X75550Y-48200D02*
X74750Y-48200D01*
X74750Y-48200D02*
X74750Y-50800D01*
X74750Y-50800D02*
X75150Y-50800D01*
X75350Y-48200D02*
X75550Y-48400D01*
X81500Y-45850D02*
X81300Y-45850D01*
X78500Y-45850D02*
X78700Y-45850D01*
X78700Y-45850D02*
X78700Y-46250D01*
X78700Y-46250D02*
X81300Y-46250D01*
X81300Y-46250D02*
X81300Y-45450D01*
X81300Y-45450D02*
X78700Y-45450D01*
X78700Y-45450D02*
X78700Y-45850D01*
X81300Y-46050D02*
X81100Y-46250D01*
X89350Y-45950D02*
X89150Y-45950D01*
X86350Y-45950D02*
X86550Y-45950D01*
X86550Y-45950D02*
X86550Y-46350D01*
X86550Y-46350D02*
X89150Y-46350D01*
X89150Y-46350D02*
X89150Y-45550D01*
X89150Y-45550D02*
X86550Y-45550D01*
X86550Y-45550D02*
X86550Y-45950D01*
X89150Y-46150D02*
X88950Y-46350D01*
X86350Y-46900D02*
X86550Y-46900D01*
X89350Y-46900D02*
X89150Y-46900D01*
X89150Y-46900D02*
X89150Y-46500D01*
X89150Y-46500D02*
X86550Y-46500D01*
X86550Y-46500D02*
X86550Y-47300D01*
X86550Y-47300D02*
X89150Y-47300D01*
X89150Y-47300D02*
X89150Y-46900D01*
X86550Y-46700D02*
X86750Y-46500D01*
G54D16*
X79500Y-52000D02*
X79500Y-51500D01*
X79500Y-51500D02*
X80500Y-51500D01*
X80500Y-51500D02*
X80500Y-52000D01*
X79000Y-52000D02*
X79000Y-48000D01*
X79000Y-48000D02*
X81000Y-48000D01*
X81000Y-48000D02*
X81000Y-52000D01*
X81000Y-52000D02*
X79000Y-52000D01*
G54D19*
X78200Y-52320D02*
X78200Y-54300D01*
X78200Y-54300D02*
X77200Y-54300D01*
X77200Y-54300D02*
X77200Y-52300D01*
X77200Y-52300D02*
X78200Y-52300D01*
X77950Y-52300D02*
X78200Y-52550D01*
X55500Y-54120D02*
X55500Y-56100D01*
X55500Y-56100D02*
X54500Y-56100D01*
X54500Y-56100D02*
X54500Y-54100D01*
X54500Y-54100D02*
X55500Y-54100D01*
X55250Y-54100D02*
X55500Y-54350D01*
X56650Y-54120D02*
X56650Y-56100D01*
X56650Y-56100D02*
X55650Y-56100D01*
X55650Y-56100D02*
X55650Y-54100D01*
X55650Y-54100D02*
X56650Y-54100D01*
X56400Y-54100D02*
X56650Y-54350D01*
X65970Y-53550D02*
X67950Y-53550D01*
X67950Y-53550D02*
X67950Y-54550D01*
X67950Y-54550D02*
X65950Y-54550D01*
X65950Y-54550D02*
X65950Y-53550D01*
X65950Y-53800D02*
X66200Y-53550D01*
G54D20*
X88851Y-44250D02*
G75*
G03X88851Y-44250I-1001J0D01*
G74*
G01*
G54D19*
X64200Y-55350D02*
X62700Y-53850D01*
X62700Y-53850D02*
X62200Y-53850D01*
X62200Y-53850D02*
X61700Y-54350D01*
X61700Y-54350D02*
X61700Y-55350D01*
X61700Y-55350D02*
X62700Y-56350D01*
X62700Y-56350D02*
X63700Y-56350D01*
X63700Y-56350D02*
X64200Y-55850D01*
X64200Y-55850D02*
X64200Y-55350D01*
G54D15*
X85900Y-54000D02*
X85700Y-54000D01*
X82900Y-54000D02*
X83100Y-54000D01*
X83100Y-54000D02*
X83100Y-54400D01*
X83100Y-54400D02*
X85700Y-54400D01*
X85700Y-54400D02*
X85700Y-53600D01*
X85700Y-53600D02*
X83100Y-53600D01*
X83100Y-53600D02*
X83100Y-54000D01*
X85700Y-54200D02*
X85500Y-54400D01*
X89050Y-58050D02*
X88850Y-58050D01*
X86050Y-58050D02*
X86250Y-58050D01*
X86250Y-58050D02*
X86250Y-58450D01*
X86250Y-58450D02*
X88850Y-58450D01*
X88850Y-58450D02*
X88850Y-57650D01*
X88850Y-57650D02*
X86250Y-57650D01*
X86250Y-57650D02*
X86250Y-58050D01*
X88850Y-58250D02*
X88650Y-58450D01*
X85400Y-58500D02*
X82400Y-58500D01*
X82400Y-56500D02*
X85400Y-56500D01*
X85400Y-56500D02*
X85400Y-58500D01*
X82400Y-58500D02*
X82400Y-56500D01*
G54D20*
X64251Y-57700D02*
G75*
G03X64251Y-57700I-1001J0D01*
G74*
G01*
X66501Y-57050D02*
G75*
G03X66501Y-57050I-1001J0D01*
G74*
G01*
X74951Y-44900D02*
G75*
G03X74951Y-44900I-1001J0D01*
G74*
G01*
X87551Y-55500D02*
G75*
G03X87551Y-55500I-1001J0D01*
G74*
G01*
G54D10*
X89174Y-51300D02*
G75*
G03X89174Y-51300I-1574J0D01*
G74*
G01*
X76474Y-53250D02*
G75*
G03X76474Y-53250I-1574J0D01*
G74*
G01*
G54D20*
X81050Y-55850D02*
X82550Y-55850D01*
X82550Y-55850D02*
X82550Y-55150D01*
X82550Y-55150D02*
X81050Y-55150D01*
X81050Y-55850D02*
X81050Y-55150D01*
X73850Y-47250D02*
X73850Y-48750D01*
X73850Y-48750D02*
X74550Y-48750D01*
X74550Y-48750D02*
X74550Y-47250D01*
X73850Y-47250D02*
X74550Y-47250D01*
G54D16*
X59300Y-43700D02*
X59300Y-43700D01*
X59300Y-43700D02*
X58800Y-43700D01*
X58800Y-43700D02*
X58800Y-42700D01*
X58800Y-42700D02*
X59300Y-42700D01*
X59300Y-44200D02*
X50300Y-44200D01*
X50300Y-44200D02*
X50300Y-42200D01*
X50300Y-42200D02*
X59300Y-42200D01*
X59300Y-42200D02*
X59300Y-44200D01*
X43700Y-41900D02*
X43700Y-41900D01*
X43700Y-41900D02*
X43700Y-42400D01*
X43700Y-42400D02*
X42700Y-42400D01*
X42700Y-42400D02*
X42700Y-41900D01*
X44200Y-41900D02*
X44200Y-50900D01*
X44200Y-50900D02*
X42200Y-50900D01*
X42200Y-50900D02*
X42200Y-41900D01*
X42200Y-41900D02*
X44200Y-41900D01*
G54D10*
X40742Y-53244D02*
X40742Y-58657D01*
X40545Y-53047D02*
X38773Y-53047D01*
X38773Y-53047D02*
X38773Y-58952D01*
X38773Y-58952D02*
X40545Y-58952D01*
X50092Y-54622D02*
X47927Y-54622D01*
X47927Y-54622D02*
X47927Y-57181D01*
X47927Y-57181D02*
X50092Y-57181D01*
X50092Y-57181D02*
X50092Y-54622D01*
X46155Y-54622D02*
X46155Y-57181D01*
X46155Y-57181D02*
X43891Y-57181D01*
X43891Y-57181D02*
X43891Y-54622D01*
X43891Y-54622D02*
X46155Y-54622D01*
X40053Y-53637D02*
X40151Y-53637D01*
X40151Y-53637D02*
X40151Y-53736D01*
X40151Y-53736D02*
X39167Y-53736D01*
X39167Y-53736D02*
X39167Y-54228D01*
X39167Y-54228D02*
X40151Y-54228D01*
X40151Y-54228D02*
X40151Y-55212D01*
X40151Y-55212D02*
X39167Y-55212D01*
X39167Y-55212D02*
X39167Y-55803D01*
X39167Y-55803D02*
X40151Y-55803D01*
X40151Y-55803D02*
X40151Y-56787D01*
X40151Y-56787D02*
X39167Y-56787D01*
X39167Y-56787D02*
X39167Y-57279D01*
X39167Y-57279D02*
X40151Y-57279D01*
X40151Y-57279D02*
X40151Y-58165D01*
X40151Y-58165D02*
X39167Y-58165D01*
X39167Y-58165D02*
X39167Y-58362D01*
X39167Y-58362D02*
X40151Y-58362D01*
X40151Y-58362D02*
X40151Y-58460D01*
X40151Y-58460D02*
X40053Y-58460D01*
X46253Y-54523D02*
X43793Y-54523D01*
X43793Y-54523D02*
X43793Y-57279D01*
X43793Y-57279D02*
X46253Y-57279D01*
X46253Y-57279D02*
X46253Y-54523D01*
X49895Y-54523D02*
X47828Y-54523D01*
X47828Y-54523D02*
X47828Y-57279D01*
X47828Y-57279D02*
X49895Y-57279D01*
X49895Y-57279D02*
X50190Y-57279D01*
X50190Y-57279D02*
X50190Y-54523D01*
X50190Y-54523D02*
X49895Y-54523D01*
X40053Y-53637D02*
X39068Y-53637D01*
X39068Y-53637D02*
X39068Y-54326D01*
X39068Y-54326D02*
X40053Y-54326D01*
X40053Y-54326D02*
X40053Y-55114D01*
X40053Y-55114D02*
X39068Y-55114D01*
X39068Y-55114D02*
X39068Y-55901D01*
X39068Y-55901D02*
X40053Y-55901D01*
X40053Y-55901D02*
X40053Y-56688D01*
X40053Y-56688D02*
X39068Y-56688D01*
X39068Y-56688D02*
X39068Y-57377D01*
X39068Y-57377D02*
X40053Y-57377D01*
X40053Y-57377D02*
X40053Y-58066D01*
X40053Y-58066D02*
X39068Y-58066D01*
X39068Y-58066D02*
X39068Y-58460D01*
X39068Y-58460D02*
X40053Y-58460D01*
X52257Y-53047D02*
X40545Y-53047D01*
X40545Y-58952D02*
X52257Y-58952D01*
G54D19*
X52250Y-53000D02*
X53250Y-53000D01*
X53250Y-53000D02*
X53250Y-59000D01*
X53250Y-59000D02*
X52250Y-59000D01*
X52250Y-59000D02*
X52250Y-53000D01*
X52250Y-54000D02*
X53250Y-54000D01*
G54D15*
X75400Y-34900D02*
X75400Y-34700D01*
X75400Y-31900D02*
X75400Y-32100D01*
X75400Y-32100D02*
X75000Y-32100D01*
X75000Y-32100D02*
X75000Y-34700D01*
X75000Y-34700D02*
X75800Y-34700D01*
X75800Y-34700D02*
X75800Y-32100D01*
X75800Y-32100D02*
X75400Y-32100D01*
X75200Y-34700D02*
X75000Y-34500D01*
G54D10*
X20915Y-25548D02*
X20915Y-24051D01*
X23868Y-25548D02*
X19852Y-25548D01*
X19852Y-25548D02*
X19852Y-24051D01*
X19852Y-24051D02*
X23868Y-24051D01*
X23868Y-24051D02*
X23868Y-25548D01*
X26815Y-25548D02*
X26815Y-24051D01*
X29768Y-25548D02*
X25752Y-25548D01*
X25752Y-25548D02*
X25752Y-24051D01*
X25752Y-24051D02*
X29768Y-24051D01*
X29768Y-24051D02*
X29768Y-25548D01*
X40915Y-25348D02*
X40915Y-23851D01*
X43868Y-25348D02*
X39852Y-25348D01*
X39852Y-25348D02*
X39852Y-23851D01*
X39852Y-23851D02*
X43868Y-23851D01*
X43868Y-23851D02*
X43868Y-25348D01*
X46615Y-25348D02*
X46615Y-23851D01*
X49568Y-25348D02*
X45552Y-25348D01*
X45552Y-25348D02*
X45552Y-23851D01*
X45552Y-23851D02*
X49568Y-23851D01*
X49568Y-23851D02*
X49568Y-25348D01*
X59415Y-25348D02*
X59415Y-23851D01*
X62368Y-25348D02*
X58352Y-25348D01*
X58352Y-25348D02*
X58352Y-23851D01*
X58352Y-23851D02*
X62368Y-23851D01*
X62368Y-23851D02*
X62368Y-25348D01*
X66015Y-25348D02*
X66015Y-23851D01*
X68968Y-25348D02*
X64952Y-25348D01*
X64952Y-25348D02*
X64952Y-23851D01*
X64952Y-23851D02*
X68968Y-23851D01*
X68968Y-23851D02*
X68968Y-25348D01*
X78415Y-25548D02*
X78415Y-24051D01*
X81368Y-25548D02*
X77352Y-25548D01*
X77352Y-25548D02*
X77352Y-24051D01*
X77352Y-24051D02*
X81368Y-24051D01*
X81368Y-24051D02*
X81368Y-25548D01*
X84615Y-25548D02*
X84615Y-24051D01*
X87568Y-25548D02*
X83552Y-25548D01*
X83552Y-25548D02*
X83552Y-24051D01*
X83552Y-24051D02*
X87568Y-24051D01*
X87568Y-24051D02*
X87568Y-25548D01*
G54D21*
X52378Y-49233D02*
X52592Y-49233D01*
X52335Y-49433D02*
X52485Y-48733D01*
X52635Y-49433D01*
X53021Y-49433D02*
X52764Y-49433D01*
X52892Y-49433D02*
X52892Y-48733D01*
X52850Y-48833D01*
X52807Y-48900D01*
X52764Y-48933D01*
G54D19*
G54D15*
X79966Y-55761D02*
X79966Y-56047D01*
X79947Y-56104D01*
X79909Y-56142D01*
X79852Y-56161D01*
X79814Y-56161D01*
X80366Y-56161D02*
X80138Y-56161D01*
X80252Y-56161D02*
X80252Y-55761D01*
X80214Y-55819D01*
X80176Y-55857D01*
X80138Y-55876D01*
X20342Y-51404D02*
X20828Y-51404D01*
X20885Y-51385D01*
X20914Y-51366D01*
X20942Y-51328D01*
X20942Y-51252D01*
X20914Y-51214D01*
X20885Y-51195D01*
X20828Y-51176D01*
X20342Y-51176D01*
X20400Y-51004D02*
X20371Y-50985D01*
X20342Y-50947D01*
X20342Y-50852D01*
X20371Y-50814D01*
X20400Y-50795D01*
X20457Y-50776D01*
X20514Y-50776D01*
X20600Y-50795D01*
X20942Y-51023D01*
X20942Y-50776D01*
X49722Y-33583D02*
X49460Y-33750D01*
X49722Y-33869D02*
X49172Y-33869D01*
X49172Y-33678D01*
X49198Y-33630D01*
X49225Y-33607D01*
X49277Y-33583D01*
X49355Y-33583D01*
X49408Y-33607D01*
X49434Y-33630D01*
X49460Y-33678D01*
X49460Y-33869D01*
X49172Y-33416D02*
X49172Y-33083D01*
X49722Y-33297D01*
X17022Y-33821D02*
X16760Y-33988D01*
X17022Y-34107D02*
X16472Y-34107D01*
X16472Y-33916D01*
X16498Y-33869D01*
X16525Y-33845D01*
X16577Y-33821D01*
X16655Y-33821D01*
X16708Y-33845D01*
X16734Y-33869D01*
X16760Y-33916D01*
X16760Y-34107D01*
X17022Y-33345D02*
X17022Y-33630D01*
X17022Y-33488D02*
X16472Y-33488D01*
X16551Y-33535D01*
X16603Y-33583D01*
X16629Y-33630D01*
X16525Y-33154D02*
X16498Y-33130D01*
X16472Y-33083D01*
X16472Y-32964D01*
X16498Y-32916D01*
X16525Y-32892D01*
X16577Y-32869D01*
X16629Y-32869D01*
X16708Y-32892D01*
X17022Y-33178D01*
X17022Y-32869D01*
X23222Y-33821D02*
X22960Y-33988D01*
X23222Y-34107D02*
X22672Y-34107D01*
X22672Y-33916D01*
X22698Y-33869D01*
X22725Y-33845D01*
X22777Y-33821D01*
X22855Y-33821D01*
X22908Y-33845D01*
X22934Y-33869D01*
X22960Y-33916D01*
X22960Y-34107D01*
X23222Y-33345D02*
X23222Y-33630D01*
X23222Y-33488D02*
X22672Y-33488D01*
X22751Y-33535D01*
X22803Y-33583D01*
X22829Y-33630D01*
X23222Y-32869D02*
X23222Y-33154D01*
X23222Y-33011D02*
X22672Y-33011D01*
X22751Y-33059D01*
X22803Y-33107D01*
X22829Y-33154D01*
X29622Y-33821D02*
X29360Y-33988D01*
X29622Y-34107D02*
X29072Y-34107D01*
X29072Y-33916D01*
X29098Y-33869D01*
X29125Y-33845D01*
X29177Y-33821D01*
X29255Y-33821D01*
X29308Y-33845D01*
X29334Y-33869D01*
X29360Y-33916D01*
X29360Y-34107D01*
X29622Y-33345D02*
X29622Y-33630D01*
X29622Y-33488D02*
X29072Y-33488D01*
X29151Y-33535D01*
X29203Y-33583D01*
X29229Y-33630D01*
X29072Y-33035D02*
X29072Y-32988D01*
X29098Y-32940D01*
X29125Y-32916D01*
X29177Y-32892D01*
X29282Y-32869D01*
X29413Y-32869D01*
X29517Y-32892D01*
X29570Y-32916D01*
X29596Y-32940D01*
X29622Y-32988D01*
X29622Y-33035D01*
X29596Y-33083D01*
X29570Y-33107D01*
X29517Y-33130D01*
X29413Y-33154D01*
X29282Y-33154D01*
X29177Y-33130D01*
X29125Y-33107D01*
X29098Y-33083D01*
X29072Y-33035D01*
X36522Y-33583D02*
X36260Y-33750D01*
X36522Y-33869D02*
X35972Y-33869D01*
X35972Y-33678D01*
X35998Y-33630D01*
X36025Y-33607D01*
X36077Y-33583D01*
X36155Y-33583D01*
X36208Y-33607D01*
X36234Y-33630D01*
X36260Y-33678D01*
X36260Y-33869D01*
X36522Y-33345D02*
X36522Y-33250D01*
X36496Y-33202D01*
X36470Y-33178D01*
X36391Y-33130D01*
X36286Y-33107D01*
X36077Y-33107D01*
X36025Y-33130D01*
X35998Y-33154D01*
X35972Y-33202D01*
X35972Y-33297D01*
X35998Y-33345D01*
X36025Y-33369D01*
X36077Y-33392D01*
X36208Y-33392D01*
X36260Y-33369D01*
X36286Y-33345D01*
X36313Y-33297D01*
X36313Y-33202D01*
X36286Y-33154D01*
X36260Y-33130D01*
X36208Y-33107D01*
X43122Y-33583D02*
X42860Y-33750D01*
X43122Y-33869D02*
X42572Y-33869D01*
X42572Y-33678D01*
X42598Y-33630D01*
X42625Y-33607D01*
X42677Y-33583D01*
X42755Y-33583D01*
X42808Y-33607D01*
X42834Y-33630D01*
X42860Y-33678D01*
X42860Y-33869D01*
X42808Y-33297D02*
X42782Y-33345D01*
X42755Y-33369D01*
X42703Y-33392D01*
X42677Y-33392D01*
X42625Y-33369D01*
X42598Y-33345D01*
X42572Y-33297D01*
X42572Y-33202D01*
X42598Y-33154D01*
X42625Y-33130D01*
X42677Y-33107D01*
X42703Y-33107D01*
X42755Y-33130D01*
X42782Y-33154D01*
X42808Y-33202D01*
X42808Y-33297D01*
X42834Y-33345D01*
X42860Y-33369D01*
X42913Y-33392D01*
X43017Y-33392D01*
X43070Y-33369D01*
X43096Y-33345D01*
X43122Y-33297D01*
X43122Y-33202D01*
X43096Y-33154D01*
X43070Y-33130D01*
X43017Y-33107D01*
X42913Y-33107D01*
X42860Y-33130D01*
X42834Y-33154D01*
X42808Y-33202D01*
X88822Y-33583D02*
X88560Y-33750D01*
X88822Y-33869D02*
X88272Y-33869D01*
X88272Y-33678D01*
X88298Y-33630D01*
X88325Y-33607D01*
X88377Y-33583D01*
X88455Y-33583D01*
X88508Y-33607D01*
X88534Y-33630D01*
X88560Y-33678D01*
X88560Y-33869D01*
X88822Y-33107D02*
X88822Y-33392D01*
X88822Y-33250D02*
X88272Y-33250D01*
X88351Y-33297D01*
X88403Y-33345D01*
X88429Y-33392D01*
X82222Y-33583D02*
X81960Y-33750D01*
X82222Y-33869D02*
X81672Y-33869D01*
X81672Y-33678D01*
X81698Y-33630D01*
X81725Y-33607D01*
X81777Y-33583D01*
X81855Y-33583D01*
X81908Y-33607D01*
X81934Y-33630D01*
X81960Y-33678D01*
X81960Y-33869D01*
X81725Y-33392D02*
X81698Y-33369D01*
X81672Y-33321D01*
X81672Y-33202D01*
X81698Y-33154D01*
X81725Y-33130D01*
X81777Y-33107D01*
X81829Y-33107D01*
X81908Y-33130D01*
X82222Y-33416D01*
X82222Y-33107D01*
X55922Y-33583D02*
X55660Y-33750D01*
X55922Y-33869D02*
X55372Y-33869D01*
X55372Y-33678D01*
X55398Y-33630D01*
X55425Y-33607D01*
X55477Y-33583D01*
X55555Y-33583D01*
X55608Y-33607D01*
X55634Y-33630D01*
X55660Y-33678D01*
X55660Y-33869D01*
X55372Y-33154D02*
X55372Y-33250D01*
X55398Y-33297D01*
X55425Y-33321D01*
X55503Y-33369D01*
X55608Y-33392D01*
X55817Y-33392D01*
X55870Y-33369D01*
X55896Y-33345D01*
X55922Y-33297D01*
X55922Y-33202D01*
X55896Y-33154D01*
X55870Y-33130D01*
X55817Y-33107D01*
X55686Y-33107D01*
X55634Y-33130D01*
X55608Y-33154D01*
X55582Y-33202D01*
X55582Y-33297D01*
X55608Y-33345D01*
X55634Y-33369D01*
X55686Y-33392D01*
X61922Y-33583D02*
X61660Y-33750D01*
X61922Y-33869D02*
X61372Y-33869D01*
X61372Y-33678D01*
X61398Y-33630D01*
X61425Y-33607D01*
X61477Y-33583D01*
X61555Y-33583D01*
X61608Y-33607D01*
X61634Y-33630D01*
X61660Y-33678D01*
X61660Y-33869D01*
X61372Y-33130D02*
X61372Y-33369D01*
X61634Y-33392D01*
X61608Y-33369D01*
X61582Y-33321D01*
X61582Y-33202D01*
X61608Y-33154D01*
X61634Y-33130D01*
X61686Y-33107D01*
X61817Y-33107D01*
X61870Y-33130D01*
X61896Y-33154D01*
X61922Y-33202D01*
X61922Y-33321D01*
X61896Y-33369D01*
X61870Y-33392D01*
X68722Y-33583D02*
X68460Y-33750D01*
X68722Y-33869D02*
X68172Y-33869D01*
X68172Y-33678D01*
X68198Y-33630D01*
X68225Y-33607D01*
X68277Y-33583D01*
X68355Y-33583D01*
X68408Y-33607D01*
X68434Y-33630D01*
X68460Y-33678D01*
X68460Y-33869D01*
X68355Y-33154D02*
X68722Y-33154D01*
X68146Y-33273D02*
X68539Y-33392D01*
X68539Y-33083D01*
G54D22*
X31085Y-33821D02*
X31085Y-33521D01*
X31157Y-33521D01*
X31200Y-33535D01*
X31228Y-33564D01*
X31242Y-33592D01*
X31257Y-33650D01*
X31257Y-33692D01*
X31242Y-33750D01*
X31228Y-33778D01*
X31200Y-33807D01*
X31157Y-33821D01*
X31085Y-33821D01*
X31371Y-33550D02*
X31385Y-33535D01*
X31414Y-33521D01*
X31485Y-33521D01*
X31514Y-33535D01*
X31528Y-33550D01*
X31542Y-33578D01*
X31542Y-33607D01*
X31528Y-33650D01*
X31357Y-33821D01*
X31542Y-33821D01*
X31657Y-33550D02*
X31671Y-33535D01*
X31700Y-33521D01*
X31771Y-33521D01*
X31800Y-33535D01*
X31814Y-33550D01*
X31828Y-33578D01*
X31828Y-33607D01*
X31814Y-33650D01*
X31642Y-33821D01*
X31828Y-33821D01*
X77228Y-33821D02*
X77228Y-33521D01*
X77300Y-33521D01*
X77342Y-33535D01*
X77371Y-33564D01*
X77385Y-33592D01*
X77400Y-33650D01*
X77400Y-33692D01*
X77385Y-33750D01*
X77371Y-33778D01*
X77342Y-33807D01*
X77300Y-33821D01*
X77228Y-33821D01*
X77542Y-33821D02*
X77600Y-33821D01*
X77628Y-33807D01*
X77642Y-33792D01*
X77671Y-33750D01*
X77685Y-33692D01*
X77685Y-33578D01*
X77671Y-33550D01*
X77657Y-33535D01*
X77628Y-33521D01*
X77571Y-33521D01*
X77542Y-33535D01*
X77528Y-33550D01*
X77514Y-33578D01*
X77514Y-33650D01*
X77528Y-33678D01*
X77542Y-33692D01*
X77571Y-33707D01*
X77628Y-33707D01*
X77657Y-33692D01*
X77671Y-33678D01*
X77685Y-33650D01*
X37885Y-33821D02*
X37885Y-33521D01*
X37957Y-33521D01*
X38000Y-33535D01*
X38028Y-33564D01*
X38042Y-33592D01*
X38057Y-33650D01*
X38057Y-33692D01*
X38042Y-33750D01*
X38028Y-33778D01*
X38000Y-33807D01*
X37957Y-33821D01*
X37885Y-33821D01*
X38171Y-33550D02*
X38185Y-33535D01*
X38214Y-33521D01*
X38285Y-33521D01*
X38314Y-33535D01*
X38328Y-33550D01*
X38342Y-33578D01*
X38342Y-33607D01*
X38328Y-33650D01*
X38157Y-33821D01*
X38342Y-33821D01*
X38628Y-33821D02*
X38457Y-33821D01*
X38542Y-33821D02*
X38542Y-33521D01*
X38514Y-33564D01*
X38485Y-33592D01*
X38457Y-33607D01*
X24685Y-33821D02*
X24685Y-33521D01*
X24757Y-33521D01*
X24800Y-33535D01*
X24828Y-33564D01*
X24842Y-33592D01*
X24857Y-33650D01*
X24857Y-33692D01*
X24842Y-33750D01*
X24828Y-33778D01*
X24800Y-33807D01*
X24757Y-33821D01*
X24685Y-33821D01*
X24971Y-33550D02*
X24985Y-33535D01*
X25014Y-33521D01*
X25085Y-33521D01*
X25114Y-33535D01*
X25128Y-33550D01*
X25142Y-33578D01*
X25142Y-33607D01*
X25128Y-33650D01*
X24957Y-33821D01*
X25142Y-33821D01*
X25242Y-33521D02*
X25428Y-33521D01*
X25328Y-33635D01*
X25371Y-33635D01*
X25400Y-33650D01*
X25414Y-33664D01*
X25428Y-33692D01*
X25428Y-33764D01*
X25414Y-33792D01*
X25400Y-33807D01*
X25371Y-33821D01*
X25285Y-33821D01*
X25257Y-33807D01*
X25242Y-33792D01*
X90428Y-33821D02*
X90428Y-33521D01*
X90500Y-33521D01*
X90542Y-33535D01*
X90571Y-33564D01*
X90585Y-33592D01*
X90600Y-33650D01*
X90600Y-33692D01*
X90585Y-33750D01*
X90571Y-33778D01*
X90542Y-33807D01*
X90500Y-33821D01*
X90428Y-33821D01*
X90700Y-33521D02*
X90900Y-33521D01*
X90771Y-33821D01*
X70185Y-33821D02*
X70185Y-33521D01*
X70257Y-33521D01*
X70300Y-33535D01*
X70328Y-33564D01*
X70342Y-33592D01*
X70357Y-33650D01*
X70357Y-33692D01*
X70342Y-33750D01*
X70328Y-33778D01*
X70300Y-33807D01*
X70257Y-33821D01*
X70185Y-33821D01*
X70642Y-33821D02*
X70471Y-33821D01*
X70557Y-33821D02*
X70557Y-33521D01*
X70528Y-33564D01*
X70500Y-33592D01*
X70471Y-33607D01*
X70828Y-33521D02*
X70857Y-33521D01*
X70885Y-33535D01*
X70900Y-33550D01*
X70914Y-33578D01*
X70928Y-33635D01*
X70928Y-33707D01*
X70914Y-33764D01*
X70900Y-33792D01*
X70885Y-33807D01*
X70857Y-33821D01*
X70828Y-33821D01*
X70800Y-33807D01*
X70785Y-33792D01*
X70771Y-33764D01*
X70757Y-33707D01*
X70757Y-33635D01*
X70771Y-33578D01*
X70785Y-33550D01*
X70800Y-33535D01*
X70828Y-33521D01*
X18535Y-33821D02*
X18535Y-33521D01*
X18607Y-33521D01*
X18650Y-33535D01*
X18678Y-33564D01*
X18692Y-33592D01*
X18707Y-33650D01*
X18707Y-33692D01*
X18692Y-33750D01*
X18678Y-33778D01*
X18650Y-33807D01*
X18607Y-33821D01*
X18535Y-33821D01*
X18821Y-33550D02*
X18835Y-33535D01*
X18864Y-33521D01*
X18935Y-33521D01*
X18964Y-33535D01*
X18978Y-33550D01*
X18992Y-33578D01*
X18992Y-33607D01*
X18978Y-33650D01*
X18807Y-33821D01*
X18992Y-33821D01*
X19250Y-33621D02*
X19250Y-33821D01*
X19178Y-33507D02*
X19107Y-33721D01*
X19292Y-33721D01*
X44585Y-33821D02*
X44585Y-33521D01*
X44657Y-33521D01*
X44700Y-33535D01*
X44728Y-33564D01*
X44742Y-33592D01*
X44757Y-33650D01*
X44757Y-33692D01*
X44742Y-33750D01*
X44728Y-33778D01*
X44700Y-33807D01*
X44657Y-33821D01*
X44585Y-33821D01*
X44871Y-33550D02*
X44885Y-33535D01*
X44914Y-33521D01*
X44985Y-33521D01*
X45014Y-33535D01*
X45028Y-33550D01*
X45042Y-33578D01*
X45042Y-33607D01*
X45028Y-33650D01*
X44857Y-33821D01*
X45042Y-33821D01*
X45228Y-33521D02*
X45257Y-33521D01*
X45285Y-33535D01*
X45300Y-33550D01*
X45314Y-33578D01*
X45328Y-33635D01*
X45328Y-33707D01*
X45314Y-33764D01*
X45300Y-33792D01*
X45285Y-33807D01*
X45257Y-33821D01*
X45228Y-33821D01*
X45200Y-33807D01*
X45185Y-33792D01*
X45171Y-33764D01*
X45157Y-33707D01*
X45157Y-33635D01*
X45171Y-33578D01*
X45185Y-33550D01*
X45200Y-33535D01*
X45228Y-33521D01*
X83728Y-33821D02*
X83728Y-33521D01*
X83800Y-33521D01*
X83842Y-33535D01*
X83871Y-33564D01*
X83885Y-33592D01*
X83900Y-33650D01*
X83900Y-33692D01*
X83885Y-33750D01*
X83871Y-33778D01*
X83842Y-33807D01*
X83800Y-33821D01*
X83728Y-33821D01*
X84071Y-33650D02*
X84042Y-33635D01*
X84028Y-33621D01*
X84014Y-33592D01*
X84014Y-33578D01*
X84028Y-33550D01*
X84042Y-33535D01*
X84071Y-33521D01*
X84128Y-33521D01*
X84157Y-33535D01*
X84171Y-33550D01*
X84185Y-33578D01*
X84185Y-33592D01*
X84171Y-33621D01*
X84157Y-33635D01*
X84128Y-33650D01*
X84071Y-33650D01*
X84042Y-33664D01*
X84028Y-33678D01*
X84014Y-33707D01*
X84014Y-33764D01*
X84028Y-33792D01*
X84042Y-33807D01*
X84071Y-33821D01*
X84128Y-33821D01*
X84157Y-33807D01*
X84171Y-33792D01*
X84185Y-33764D01*
X84185Y-33707D01*
X84171Y-33678D01*
X84157Y-33664D01*
X84128Y-33650D01*
X51085Y-33821D02*
X51085Y-33521D01*
X51157Y-33521D01*
X51200Y-33535D01*
X51228Y-33564D01*
X51242Y-33592D01*
X51257Y-33650D01*
X51257Y-33692D01*
X51242Y-33750D01*
X51228Y-33778D01*
X51200Y-33807D01*
X51157Y-33821D01*
X51085Y-33821D01*
X51542Y-33821D02*
X51371Y-33821D01*
X51457Y-33821D02*
X51457Y-33521D01*
X51428Y-33564D01*
X51400Y-33592D01*
X51371Y-33607D01*
X51685Y-33821D02*
X51742Y-33821D01*
X51771Y-33807D01*
X51785Y-33792D01*
X51814Y-33750D01*
X51828Y-33692D01*
X51828Y-33578D01*
X51814Y-33550D01*
X51800Y-33535D01*
X51771Y-33521D01*
X51714Y-33521D01*
X51685Y-33535D01*
X51671Y-33550D01*
X51657Y-33578D01*
X51657Y-33650D01*
X51671Y-33678D01*
X51685Y-33692D01*
X51714Y-33707D01*
X51771Y-33707D01*
X51800Y-33692D01*
X51814Y-33678D01*
X51828Y-33650D01*
X63385Y-33821D02*
X63385Y-33521D01*
X63457Y-33521D01*
X63500Y-33535D01*
X63528Y-33564D01*
X63542Y-33592D01*
X63557Y-33650D01*
X63557Y-33692D01*
X63542Y-33750D01*
X63528Y-33778D01*
X63500Y-33807D01*
X63457Y-33821D01*
X63385Y-33821D01*
X63842Y-33821D02*
X63671Y-33821D01*
X63757Y-33821D02*
X63757Y-33521D01*
X63728Y-33564D01*
X63700Y-33592D01*
X63671Y-33607D01*
X64128Y-33821D02*
X63957Y-33821D01*
X64042Y-33821D02*
X64042Y-33521D01*
X64014Y-33564D01*
X63985Y-33592D01*
X63957Y-33607D01*
X57385Y-33821D02*
X57385Y-33521D01*
X57457Y-33521D01*
X57500Y-33535D01*
X57528Y-33564D01*
X57542Y-33592D01*
X57557Y-33650D01*
X57557Y-33692D01*
X57542Y-33750D01*
X57528Y-33778D01*
X57500Y-33807D01*
X57457Y-33821D01*
X57385Y-33821D01*
X57842Y-33821D02*
X57671Y-33821D01*
X57757Y-33821D02*
X57757Y-33521D01*
X57728Y-33564D01*
X57700Y-33592D01*
X57671Y-33607D01*
X57957Y-33550D02*
X57971Y-33535D01*
X58000Y-33521D01*
X58071Y-33521D01*
X58100Y-33535D01*
X58114Y-33550D01*
X58128Y-33578D01*
X58128Y-33607D01*
X58114Y-33650D01*
X57942Y-33821D01*
X58128Y-33821D01*
G54D15*
X44464Y-27961D02*
X44464Y-27561D01*
X44559Y-27561D01*
X44616Y-27580D01*
X44654Y-27619D01*
X44673Y-27657D01*
X44692Y-27733D01*
X44692Y-27790D01*
X44673Y-27866D01*
X44654Y-27904D01*
X44616Y-27942D01*
X44559Y-27961D01*
X44464Y-27961D01*
X45073Y-27961D02*
X44845Y-27961D01*
X44959Y-27961D02*
X44959Y-27561D01*
X44921Y-27619D01*
X44883Y-27657D01*
X44845Y-27676D01*
X45416Y-27695D02*
X45416Y-27961D01*
X45321Y-27542D02*
X45226Y-27828D01*
X45473Y-27828D01*
X83654Y-27961D02*
X83654Y-27561D01*
X83750Y-27561D01*
X83807Y-27580D01*
X83845Y-27619D01*
X83864Y-27657D01*
X83883Y-27733D01*
X83883Y-27790D01*
X83864Y-27866D01*
X83845Y-27904D01*
X83807Y-27942D01*
X83750Y-27961D01*
X83654Y-27961D01*
X84035Y-27600D02*
X84054Y-27580D01*
X84092Y-27561D01*
X84188Y-27561D01*
X84226Y-27580D01*
X84245Y-27600D01*
X84264Y-27638D01*
X84264Y-27676D01*
X84245Y-27733D01*
X84016Y-27961D01*
X84264Y-27961D01*
X63454Y-27961D02*
X63454Y-27561D01*
X63550Y-27561D01*
X63607Y-27580D01*
X63645Y-27619D01*
X63664Y-27657D01*
X63683Y-27733D01*
X63683Y-27790D01*
X63664Y-27866D01*
X63645Y-27904D01*
X63607Y-27942D01*
X63550Y-27961D01*
X63454Y-27961D01*
X64045Y-27561D02*
X63854Y-27561D01*
X63835Y-27752D01*
X63854Y-27733D01*
X63892Y-27714D01*
X63988Y-27714D01*
X64026Y-27733D01*
X64045Y-27752D01*
X64064Y-27790D01*
X64064Y-27885D01*
X64045Y-27923D01*
X64026Y-27942D01*
X63988Y-27961D01*
X63892Y-27961D01*
X63854Y-27942D01*
X63835Y-27923D01*
X17664Y-27961D02*
X17664Y-27561D01*
X17759Y-27561D01*
X17816Y-27580D01*
X17854Y-27619D01*
X17873Y-27657D01*
X17892Y-27733D01*
X17892Y-27790D01*
X17873Y-27866D01*
X17854Y-27904D01*
X17816Y-27942D01*
X17759Y-27961D01*
X17664Y-27961D01*
X18273Y-27961D02*
X18045Y-27961D01*
X18159Y-27961D02*
X18159Y-27561D01*
X18121Y-27619D01*
X18083Y-27657D01*
X18045Y-27676D01*
X18502Y-27733D02*
X18464Y-27714D01*
X18445Y-27695D01*
X18426Y-27657D01*
X18426Y-27638D01*
X18445Y-27600D01*
X18464Y-27580D01*
X18502Y-27561D01*
X18578Y-27561D01*
X18616Y-27580D01*
X18635Y-27600D01*
X18654Y-27638D01*
X18654Y-27657D01*
X18635Y-27695D01*
X18616Y-27714D01*
X18578Y-27733D01*
X18502Y-27733D01*
X18464Y-27752D01*
X18445Y-27771D01*
X18426Y-27809D01*
X18426Y-27885D01*
X18445Y-27923D01*
X18464Y-27942D01*
X18502Y-27961D01*
X18578Y-27961D01*
X18616Y-27942D01*
X18635Y-27923D01*
X18654Y-27885D01*
X18654Y-27809D01*
X18635Y-27771D01*
X18616Y-27752D01*
X18578Y-27733D01*
X24564Y-27961D02*
X24564Y-27561D01*
X24659Y-27561D01*
X24716Y-27580D01*
X24754Y-27619D01*
X24773Y-27657D01*
X24792Y-27733D01*
X24792Y-27790D01*
X24773Y-27866D01*
X24754Y-27904D01*
X24716Y-27942D01*
X24659Y-27961D01*
X24564Y-27961D01*
X25173Y-27961D02*
X24945Y-27961D01*
X25059Y-27961D02*
X25059Y-27561D01*
X25021Y-27619D01*
X24983Y-27657D01*
X24945Y-27676D01*
X25307Y-27561D02*
X25573Y-27561D01*
X25402Y-27961D01*
X90254Y-27961D02*
X90254Y-27561D01*
X90350Y-27561D01*
X90407Y-27580D01*
X90445Y-27619D01*
X90464Y-27657D01*
X90483Y-27733D01*
X90483Y-27790D01*
X90464Y-27866D01*
X90445Y-27904D01*
X90407Y-27942D01*
X90350Y-27961D01*
X90254Y-27961D01*
X90864Y-27961D02*
X90635Y-27961D01*
X90750Y-27961D02*
X90750Y-27561D01*
X90711Y-27619D01*
X90673Y-27657D01*
X90635Y-27676D01*
X77154Y-27961D02*
X77154Y-27561D01*
X77250Y-27561D01*
X77307Y-27580D01*
X77345Y-27619D01*
X77364Y-27657D01*
X77383Y-27733D01*
X77383Y-27790D01*
X77364Y-27866D01*
X77345Y-27904D01*
X77307Y-27942D01*
X77250Y-27961D01*
X77154Y-27961D01*
X77516Y-27561D02*
X77764Y-27561D01*
X77630Y-27714D01*
X77688Y-27714D01*
X77726Y-27733D01*
X77745Y-27752D01*
X77764Y-27790D01*
X77764Y-27885D01*
X77745Y-27923D01*
X77726Y-27942D01*
X77688Y-27961D01*
X77573Y-27961D01*
X77535Y-27942D01*
X77516Y-27923D01*
X57354Y-27961D02*
X57354Y-27561D01*
X57450Y-27561D01*
X57507Y-27580D01*
X57545Y-27619D01*
X57564Y-27657D01*
X57583Y-27733D01*
X57583Y-27790D01*
X57564Y-27866D01*
X57545Y-27904D01*
X57507Y-27942D01*
X57450Y-27961D01*
X57354Y-27961D01*
X57926Y-27561D02*
X57850Y-27561D01*
X57811Y-27580D01*
X57792Y-27600D01*
X57754Y-27657D01*
X57735Y-27733D01*
X57735Y-27885D01*
X57754Y-27923D01*
X57773Y-27942D01*
X57811Y-27961D01*
X57888Y-27961D01*
X57926Y-27942D01*
X57945Y-27923D01*
X57964Y-27885D01*
X57964Y-27790D01*
X57945Y-27752D01*
X57926Y-27733D01*
X57888Y-27714D01*
X57811Y-27714D01*
X57773Y-27733D01*
X57754Y-27752D01*
X57735Y-27790D01*
X30864Y-27961D02*
X30864Y-27561D01*
X30959Y-27561D01*
X31016Y-27580D01*
X31054Y-27619D01*
X31073Y-27657D01*
X31092Y-27733D01*
X31092Y-27790D01*
X31073Y-27866D01*
X31054Y-27904D01*
X31016Y-27942D01*
X30959Y-27961D01*
X30864Y-27961D01*
X31473Y-27961D02*
X31245Y-27961D01*
X31359Y-27961D02*
X31359Y-27561D01*
X31321Y-27619D01*
X31283Y-27657D01*
X31245Y-27676D01*
X31816Y-27561D02*
X31740Y-27561D01*
X31702Y-27580D01*
X31683Y-27600D01*
X31645Y-27657D01*
X31626Y-27733D01*
X31626Y-27885D01*
X31645Y-27923D01*
X31664Y-27942D01*
X31702Y-27961D01*
X31778Y-27961D01*
X31816Y-27942D01*
X31835Y-27923D01*
X31854Y-27885D01*
X31854Y-27790D01*
X31835Y-27752D01*
X31816Y-27733D01*
X31778Y-27714D01*
X31702Y-27714D01*
X31664Y-27733D01*
X31645Y-27752D01*
X31626Y-27790D01*
X70254Y-27961D02*
X70254Y-27561D01*
X70350Y-27561D01*
X70407Y-27580D01*
X70445Y-27619D01*
X70464Y-27657D01*
X70483Y-27733D01*
X70483Y-27790D01*
X70464Y-27866D01*
X70445Y-27904D01*
X70407Y-27942D01*
X70350Y-27961D01*
X70254Y-27961D01*
X70826Y-27695D02*
X70826Y-27961D01*
X70730Y-27542D02*
X70635Y-27828D01*
X70883Y-27828D01*
X37764Y-27961D02*
X37764Y-27561D01*
X37859Y-27561D01*
X37916Y-27580D01*
X37954Y-27619D01*
X37973Y-27657D01*
X37992Y-27733D01*
X37992Y-27790D01*
X37973Y-27866D01*
X37954Y-27904D01*
X37916Y-27942D01*
X37859Y-27961D01*
X37764Y-27961D01*
X38373Y-27961D02*
X38145Y-27961D01*
X38259Y-27961D02*
X38259Y-27561D01*
X38221Y-27619D01*
X38183Y-27657D01*
X38145Y-27676D01*
X38735Y-27561D02*
X38545Y-27561D01*
X38526Y-27752D01*
X38545Y-27733D01*
X38583Y-27714D01*
X38678Y-27714D01*
X38716Y-27733D01*
X38735Y-27752D01*
X38754Y-27790D01*
X38754Y-27885D01*
X38735Y-27923D01*
X38716Y-27942D01*
X38678Y-27961D01*
X38583Y-27961D01*
X38545Y-27942D01*
X38526Y-27923D01*
X51064Y-27961D02*
X51064Y-27561D01*
X51159Y-27561D01*
X51216Y-27580D01*
X51254Y-27619D01*
X51273Y-27657D01*
X51292Y-27733D01*
X51292Y-27790D01*
X51273Y-27866D01*
X51254Y-27904D01*
X51216Y-27942D01*
X51159Y-27961D01*
X51064Y-27961D01*
X51673Y-27961D02*
X51445Y-27961D01*
X51559Y-27961D02*
X51559Y-27561D01*
X51521Y-27619D01*
X51483Y-27657D01*
X51445Y-27676D01*
X51807Y-27561D02*
X52054Y-27561D01*
X51921Y-27714D01*
X51978Y-27714D01*
X52016Y-27733D01*
X52035Y-27752D01*
X52054Y-27790D01*
X52054Y-27885D01*
X52035Y-27923D01*
X52016Y-27942D01*
X51978Y-27961D01*
X51864Y-27961D01*
X51826Y-27942D01*
X51807Y-27923D01*
X38261Y-31650D02*
X38223Y-31621D01*
X38185Y-31564D01*
X38128Y-31478D01*
X38090Y-31450D01*
X38052Y-31450D01*
X38071Y-31592D02*
X38033Y-31564D01*
X37995Y-31507D01*
X37976Y-31392D01*
X37976Y-31192D01*
X37995Y-31078D01*
X38033Y-31021D01*
X38071Y-30992D01*
X38147Y-30992D01*
X38185Y-31021D01*
X38223Y-31078D01*
X38242Y-31192D01*
X38242Y-31392D01*
X38223Y-31507D01*
X38185Y-31564D01*
X38147Y-31592D01*
X38071Y-31592D01*
X38433Y-31592D02*
X38509Y-31592D01*
X38547Y-31564D01*
X38566Y-31535D01*
X38604Y-31450D01*
X38623Y-31335D01*
X38623Y-31107D01*
X38604Y-31050D01*
X38585Y-31021D01*
X38547Y-30992D01*
X38471Y-30992D01*
X38433Y-31021D01*
X38414Y-31050D01*
X38395Y-31107D01*
X38395Y-31250D01*
X38414Y-31307D01*
X38433Y-31335D01*
X38471Y-31364D01*
X38547Y-31364D01*
X38585Y-31335D01*
X38604Y-31307D01*
X38623Y-31250D01*
X90561Y-31650D02*
X90523Y-31621D01*
X90485Y-31564D01*
X90428Y-31478D01*
X90390Y-31450D01*
X90352Y-31450D01*
X90371Y-31592D02*
X90333Y-31564D01*
X90295Y-31507D01*
X90276Y-31392D01*
X90276Y-31192D01*
X90295Y-31078D01*
X90333Y-31021D01*
X90371Y-30992D01*
X90447Y-30992D01*
X90485Y-31021D01*
X90523Y-31078D01*
X90542Y-31192D01*
X90542Y-31392D01*
X90523Y-31507D01*
X90485Y-31564D01*
X90447Y-31592D01*
X90371Y-31592D01*
X90923Y-31592D02*
X90695Y-31592D01*
X90809Y-31592D02*
X90809Y-30992D01*
X90771Y-31078D01*
X90733Y-31135D01*
X90695Y-31164D01*
X17871Y-31650D02*
X17833Y-31621D01*
X17795Y-31564D01*
X17738Y-31478D01*
X17700Y-31450D01*
X17661Y-31450D01*
X17680Y-31592D02*
X17642Y-31564D01*
X17604Y-31507D01*
X17585Y-31392D01*
X17585Y-31192D01*
X17604Y-31078D01*
X17642Y-31021D01*
X17680Y-30992D01*
X17757Y-30992D01*
X17795Y-31021D01*
X17833Y-31078D01*
X17852Y-31192D01*
X17852Y-31392D01*
X17833Y-31507D01*
X17795Y-31564D01*
X17757Y-31592D01*
X17680Y-31592D01*
X18233Y-31592D02*
X18004Y-31592D01*
X18119Y-31592D02*
X18119Y-30992D01*
X18080Y-31078D01*
X18042Y-31135D01*
X18004Y-31164D01*
X18385Y-31050D02*
X18404Y-31021D01*
X18442Y-30992D01*
X18538Y-30992D01*
X18576Y-31021D01*
X18595Y-31050D01*
X18614Y-31107D01*
X18614Y-31164D01*
X18595Y-31250D01*
X18366Y-31592D01*
X18614Y-31592D01*
X24821Y-31650D02*
X24783Y-31621D01*
X24745Y-31564D01*
X24688Y-31478D01*
X24650Y-31450D01*
X24611Y-31450D01*
X24630Y-31592D02*
X24592Y-31564D01*
X24554Y-31507D01*
X24535Y-31392D01*
X24535Y-31192D01*
X24554Y-31078D01*
X24592Y-31021D01*
X24630Y-30992D01*
X24707Y-30992D01*
X24745Y-31021D01*
X24783Y-31078D01*
X24802Y-31192D01*
X24802Y-31392D01*
X24783Y-31507D01*
X24745Y-31564D01*
X24707Y-31592D01*
X24630Y-31592D01*
X25183Y-31592D02*
X24954Y-31592D01*
X25069Y-31592D02*
X25069Y-30992D01*
X25030Y-31078D01*
X24992Y-31135D01*
X24954Y-31164D01*
X25564Y-31592D02*
X25335Y-31592D01*
X25450Y-31592D02*
X25450Y-30992D01*
X25411Y-31078D01*
X25373Y-31135D01*
X25335Y-31164D01*
X31171Y-31650D02*
X31133Y-31621D01*
X31095Y-31564D01*
X31038Y-31478D01*
X31000Y-31450D01*
X30961Y-31450D01*
X30980Y-31592D02*
X30942Y-31564D01*
X30904Y-31507D01*
X30885Y-31392D01*
X30885Y-31192D01*
X30904Y-31078D01*
X30942Y-31021D01*
X30980Y-30992D01*
X31057Y-30992D01*
X31095Y-31021D01*
X31133Y-31078D01*
X31152Y-31192D01*
X31152Y-31392D01*
X31133Y-31507D01*
X31095Y-31564D01*
X31057Y-31592D01*
X30980Y-31592D01*
X31533Y-31592D02*
X31304Y-31592D01*
X31419Y-31592D02*
X31419Y-30992D01*
X31380Y-31078D01*
X31342Y-31135D01*
X31304Y-31164D01*
X31780Y-30992D02*
X31819Y-30992D01*
X31857Y-31021D01*
X31876Y-31050D01*
X31895Y-31107D01*
X31914Y-31221D01*
X31914Y-31364D01*
X31895Y-31478D01*
X31876Y-31535D01*
X31857Y-31564D01*
X31819Y-31592D01*
X31780Y-31592D01*
X31742Y-31564D01*
X31723Y-31535D01*
X31704Y-31478D01*
X31685Y-31364D01*
X31685Y-31221D01*
X31704Y-31107D01*
X31723Y-31050D01*
X31742Y-31021D01*
X31780Y-30992D01*
X44911Y-31650D02*
X44873Y-31621D01*
X44835Y-31564D01*
X44778Y-31478D01*
X44740Y-31450D01*
X44702Y-31450D01*
X44721Y-31592D02*
X44683Y-31564D01*
X44645Y-31507D01*
X44626Y-31392D01*
X44626Y-31192D01*
X44645Y-31078D01*
X44683Y-31021D01*
X44721Y-30992D01*
X44797Y-30992D01*
X44835Y-31021D01*
X44873Y-31078D01*
X44892Y-31192D01*
X44892Y-31392D01*
X44873Y-31507D01*
X44835Y-31564D01*
X44797Y-31592D01*
X44721Y-31592D01*
X45121Y-31250D02*
X45083Y-31221D01*
X45064Y-31192D01*
X45045Y-31135D01*
X45045Y-31107D01*
X45064Y-31050D01*
X45083Y-31021D01*
X45121Y-30992D01*
X45197Y-30992D01*
X45235Y-31021D01*
X45254Y-31050D01*
X45273Y-31107D01*
X45273Y-31135D01*
X45254Y-31192D01*
X45235Y-31221D01*
X45197Y-31250D01*
X45121Y-31250D01*
X45083Y-31278D01*
X45064Y-31307D01*
X45045Y-31364D01*
X45045Y-31478D01*
X45064Y-31535D01*
X45083Y-31564D01*
X45121Y-31592D01*
X45197Y-31592D01*
X45235Y-31564D01*
X45254Y-31535D01*
X45273Y-31478D01*
X45273Y-31364D01*
X45254Y-31307D01*
X45235Y-31278D01*
X45197Y-31250D01*
X51461Y-31650D02*
X51423Y-31621D01*
X51385Y-31564D01*
X51328Y-31478D01*
X51290Y-31450D01*
X51252Y-31450D01*
X51271Y-31592D02*
X51233Y-31564D01*
X51195Y-31507D01*
X51176Y-31392D01*
X51176Y-31192D01*
X51195Y-31078D01*
X51233Y-31021D01*
X51271Y-30992D01*
X51347Y-30992D01*
X51385Y-31021D01*
X51423Y-31078D01*
X51442Y-31192D01*
X51442Y-31392D01*
X51423Y-31507D01*
X51385Y-31564D01*
X51347Y-31592D01*
X51271Y-31592D01*
X51576Y-30992D02*
X51842Y-30992D01*
X51671Y-31592D01*
X57661Y-31650D02*
X57623Y-31621D01*
X57585Y-31564D01*
X57528Y-31478D01*
X57490Y-31450D01*
X57452Y-31450D01*
X57471Y-31592D02*
X57433Y-31564D01*
X57395Y-31507D01*
X57376Y-31392D01*
X57376Y-31192D01*
X57395Y-31078D01*
X57433Y-31021D01*
X57471Y-30992D01*
X57547Y-30992D01*
X57585Y-31021D01*
X57623Y-31078D01*
X57642Y-31192D01*
X57642Y-31392D01*
X57623Y-31507D01*
X57585Y-31564D01*
X57547Y-31592D01*
X57471Y-31592D01*
X57985Y-30992D02*
X57909Y-30992D01*
X57871Y-31021D01*
X57852Y-31050D01*
X57814Y-31135D01*
X57795Y-31250D01*
X57795Y-31478D01*
X57814Y-31535D01*
X57833Y-31564D01*
X57871Y-31592D01*
X57947Y-31592D01*
X57985Y-31564D01*
X58004Y-31535D01*
X58023Y-31478D01*
X58023Y-31335D01*
X58004Y-31278D01*
X57985Y-31250D01*
X57947Y-31221D01*
X57871Y-31221D01*
X57833Y-31250D01*
X57814Y-31278D01*
X57795Y-31335D01*
X63711Y-31650D02*
X63673Y-31621D01*
X63635Y-31564D01*
X63578Y-31478D01*
X63540Y-31450D01*
X63502Y-31450D01*
X63521Y-31592D02*
X63483Y-31564D01*
X63445Y-31507D01*
X63426Y-31392D01*
X63426Y-31192D01*
X63445Y-31078D01*
X63483Y-31021D01*
X63521Y-30992D01*
X63597Y-30992D01*
X63635Y-31021D01*
X63673Y-31078D01*
X63692Y-31192D01*
X63692Y-31392D01*
X63673Y-31507D01*
X63635Y-31564D01*
X63597Y-31592D01*
X63521Y-31592D01*
X64054Y-30992D02*
X63864Y-30992D01*
X63845Y-31278D01*
X63864Y-31250D01*
X63902Y-31221D01*
X63997Y-31221D01*
X64035Y-31250D01*
X64054Y-31278D01*
X64073Y-31335D01*
X64073Y-31478D01*
X64054Y-31535D01*
X64035Y-31564D01*
X63997Y-31592D01*
X63902Y-31592D01*
X63864Y-31564D01*
X63845Y-31535D01*
X70511Y-31650D02*
X70473Y-31621D01*
X70435Y-31564D01*
X70378Y-31478D01*
X70340Y-31450D01*
X70302Y-31450D01*
X70321Y-31592D02*
X70283Y-31564D01*
X70245Y-31507D01*
X70226Y-31392D01*
X70226Y-31192D01*
X70245Y-31078D01*
X70283Y-31021D01*
X70321Y-30992D01*
X70397Y-30992D01*
X70435Y-31021D01*
X70473Y-31078D01*
X70492Y-31192D01*
X70492Y-31392D01*
X70473Y-31507D01*
X70435Y-31564D01*
X70397Y-31592D01*
X70321Y-31592D01*
X70835Y-31192D02*
X70835Y-31592D01*
X70740Y-30964D02*
X70645Y-31392D01*
X70892Y-31392D01*
X77411Y-31650D02*
X77373Y-31621D01*
X77335Y-31564D01*
X77278Y-31478D01*
X77240Y-31450D01*
X77202Y-31450D01*
X77221Y-31592D02*
X77183Y-31564D01*
X77145Y-31507D01*
X77126Y-31392D01*
X77126Y-31192D01*
X77145Y-31078D01*
X77183Y-31021D01*
X77221Y-30992D01*
X77297Y-30992D01*
X77335Y-31021D01*
X77373Y-31078D01*
X77392Y-31192D01*
X77392Y-31392D01*
X77373Y-31507D01*
X77335Y-31564D01*
X77297Y-31592D01*
X77221Y-31592D01*
X77526Y-30992D02*
X77773Y-30992D01*
X77640Y-31221D01*
X77697Y-31221D01*
X77735Y-31250D01*
X77754Y-31278D01*
X77773Y-31335D01*
X77773Y-31478D01*
X77754Y-31535D01*
X77735Y-31564D01*
X77697Y-31592D01*
X77583Y-31592D01*
X77545Y-31564D01*
X77526Y-31535D01*
X83961Y-31650D02*
X83923Y-31621D01*
X83885Y-31564D01*
X83828Y-31478D01*
X83790Y-31450D01*
X83752Y-31450D01*
X83771Y-31592D02*
X83733Y-31564D01*
X83695Y-31507D01*
X83676Y-31392D01*
X83676Y-31192D01*
X83695Y-31078D01*
X83733Y-31021D01*
X83771Y-30992D01*
X83847Y-30992D01*
X83885Y-31021D01*
X83923Y-31078D01*
X83942Y-31192D01*
X83942Y-31392D01*
X83923Y-31507D01*
X83885Y-31564D01*
X83847Y-31592D01*
X83771Y-31592D01*
X84095Y-31050D02*
X84114Y-31021D01*
X84152Y-30992D01*
X84247Y-30992D01*
X84285Y-31021D01*
X84304Y-31050D01*
X84323Y-31107D01*
X84323Y-31164D01*
X84304Y-31250D01*
X84076Y-31592D01*
X84323Y-31592D01*
G54D19*
X91092Y-53492D02*
X90492Y-53492D01*
X91092Y-53150D02*
X90750Y-53407D01*
X90492Y-53150D02*
X90835Y-53492D01*
X91092Y-52578D02*
X91092Y-52921D01*
X91092Y-52750D02*
X90492Y-52750D01*
X90578Y-52807D01*
X90635Y-52864D01*
X90664Y-52921D01*
G54D10*
X28871Y-56759D02*
X28871Y-56365D01*
X29021Y-56365D01*
X29059Y-56384D01*
X29078Y-56403D01*
X29096Y-56440D01*
X29096Y-56496D01*
X29078Y-56534D01*
X29059Y-56553D01*
X29021Y-56571D01*
X28871Y-56571D01*
X29471Y-56759D02*
X29246Y-56759D01*
X29359Y-56759D02*
X29359Y-56365D01*
X29321Y-56421D01*
X29284Y-56459D01*
X29246Y-56478D01*
X29603Y-56365D02*
X29846Y-56365D01*
X29715Y-56515D01*
X29771Y-56515D01*
X29809Y-56534D01*
X29828Y-56553D01*
X29846Y-56590D01*
X29846Y-56684D01*
X29828Y-56721D01*
X29809Y-56740D01*
X29771Y-56759D01*
X29659Y-56759D01*
X29621Y-56740D01*
X29603Y-56721D01*
G54D15*
X27522Y-50121D02*
X27260Y-50288D01*
X27522Y-50407D02*
X26972Y-50407D01*
X26972Y-50216D01*
X26998Y-50169D01*
X27025Y-50145D01*
X27077Y-50121D01*
X27155Y-50121D01*
X27208Y-50145D01*
X27234Y-50169D01*
X27260Y-50216D01*
X27260Y-50407D01*
X27522Y-49645D02*
X27522Y-49930D01*
X27522Y-49788D02*
X26972Y-49788D01*
X27051Y-49835D01*
X27103Y-49883D01*
X27129Y-49930D01*
X26972Y-49478D02*
X26972Y-49169D01*
X27182Y-49335D01*
X27182Y-49264D01*
X27208Y-49216D01*
X27234Y-49192D01*
X27286Y-49169D01*
X27417Y-49169D01*
X27470Y-49192D01*
X27496Y-49216D01*
X27522Y-49264D01*
X27522Y-49407D01*
X27496Y-49454D01*
X27470Y-49478D01*
X24622Y-50121D02*
X24360Y-50288D01*
X24622Y-50407D02*
X24072Y-50407D01*
X24072Y-50216D01*
X24098Y-50169D01*
X24125Y-50145D01*
X24177Y-50121D01*
X24255Y-50121D01*
X24308Y-50145D01*
X24334Y-50169D01*
X24360Y-50216D01*
X24360Y-50407D01*
X24622Y-49645D02*
X24622Y-49930D01*
X24622Y-49788D02*
X24072Y-49788D01*
X24151Y-49835D01*
X24203Y-49883D01*
X24229Y-49930D01*
X24255Y-49216D02*
X24622Y-49216D01*
X24046Y-49335D02*
X24439Y-49454D01*
X24439Y-49145D01*
X58928Y-56722D02*
X58761Y-56460D01*
X58642Y-56722D02*
X58642Y-56172D01*
X58833Y-56172D01*
X58880Y-56198D01*
X58904Y-56225D01*
X58928Y-56277D01*
X58928Y-56355D01*
X58904Y-56408D01*
X58880Y-56434D01*
X58833Y-56460D01*
X58642Y-56460D01*
X59404Y-56722D02*
X59119Y-56722D01*
X59261Y-56722D02*
X59261Y-56172D01*
X59214Y-56251D01*
X59166Y-56303D01*
X59119Y-56329D01*
X59833Y-56172D02*
X59738Y-56172D01*
X59690Y-56198D01*
X59666Y-56225D01*
X59619Y-56303D01*
X59595Y-56408D01*
X59595Y-56617D01*
X59619Y-56670D01*
X59642Y-56696D01*
X59690Y-56722D01*
X59785Y-56722D01*
X59833Y-56696D01*
X59857Y-56670D01*
X59880Y-56617D01*
X59880Y-56486D01*
X59857Y-56434D01*
X59833Y-56408D01*
X59785Y-56382D01*
X59690Y-56382D01*
X59642Y-56408D01*
X59619Y-56434D01*
X59595Y-56486D01*
X58928Y-57772D02*
X58761Y-57510D01*
X58642Y-57772D02*
X58642Y-57222D01*
X58833Y-57222D01*
X58880Y-57248D01*
X58904Y-57275D01*
X58928Y-57327D01*
X58928Y-57405D01*
X58904Y-57458D01*
X58880Y-57484D01*
X58833Y-57510D01*
X58642Y-57510D01*
X59404Y-57772D02*
X59119Y-57772D01*
X59261Y-57772D02*
X59261Y-57222D01*
X59214Y-57301D01*
X59166Y-57353D01*
X59119Y-57379D01*
X59857Y-57222D02*
X59619Y-57222D01*
X59595Y-57484D01*
X59619Y-57458D01*
X59666Y-57432D01*
X59785Y-57432D01*
X59833Y-57458D01*
X59857Y-57484D01*
X59880Y-57536D01*
X59880Y-57667D01*
X59857Y-57720D01*
X59833Y-57746D01*
X59785Y-57772D01*
X59666Y-57772D01*
X59619Y-57746D01*
X59595Y-57720D01*
X58928Y-58822D02*
X58761Y-58560D01*
X58642Y-58822D02*
X58642Y-58272D01*
X58833Y-58272D01*
X58880Y-58298D01*
X58904Y-58325D01*
X58928Y-58377D01*
X58928Y-58455D01*
X58904Y-58508D01*
X58880Y-58534D01*
X58833Y-58560D01*
X58642Y-58560D01*
X59404Y-58822D02*
X59119Y-58822D01*
X59261Y-58822D02*
X59261Y-58272D01*
X59214Y-58351D01*
X59166Y-58403D01*
X59119Y-58429D01*
X59571Y-58272D02*
X59904Y-58272D01*
X59690Y-58822D01*
G54D21*
X69135Y-49342D02*
X69135Y-48742D01*
X69285Y-49171D01*
X69435Y-48742D01*
X69435Y-49342D01*
X69885Y-49342D02*
X69628Y-49342D01*
X69757Y-49342D02*
X69757Y-48742D01*
X69714Y-48828D01*
X69671Y-48885D01*
X69628Y-48914D01*
G54D19*
G54D20*
X21700Y-52443D02*
X21685Y-52458D01*
X21642Y-52472D01*
X21614Y-52472D01*
X21571Y-52458D01*
X21542Y-52429D01*
X21528Y-52401D01*
X21514Y-52343D01*
X21514Y-52301D01*
X21528Y-52243D01*
X21542Y-52215D01*
X21571Y-52186D01*
X21614Y-52172D01*
X21642Y-52172D01*
X21685Y-52186D01*
X21700Y-52201D01*
X21985Y-52472D02*
X21814Y-52472D01*
X21900Y-52472D02*
X21900Y-52172D01*
X21871Y-52215D01*
X21842Y-52243D01*
X21814Y-52258D01*
G54D23*
X20735Y-52857D02*
X20964Y-52857D01*
X20850Y-52971D02*
X20850Y-52742D01*
G54D15*
G54D20*
X22050Y-47493D02*
X22035Y-47508D01*
X21992Y-47522D01*
X21964Y-47522D01*
X21921Y-47508D01*
X21892Y-47479D01*
X21878Y-47451D01*
X21864Y-47393D01*
X21864Y-47351D01*
X21878Y-47293D01*
X21892Y-47265D01*
X21921Y-47236D01*
X21964Y-47222D01*
X21992Y-47222D01*
X22035Y-47236D01*
X22050Y-47251D01*
X22164Y-47251D02*
X22178Y-47236D01*
X22207Y-47222D01*
X22278Y-47222D01*
X22307Y-47236D01*
X22321Y-47251D01*
X22335Y-47279D01*
X22335Y-47308D01*
X22321Y-47351D01*
X22150Y-47522D01*
X22335Y-47522D01*
G54D23*
X21085Y-47907D02*
X21314Y-47907D01*
X21200Y-48021D02*
X21200Y-47792D01*
G54D15*
G54D18*
X22921Y-44549D02*
X23135Y-44549D01*
X23178Y-44564D01*
X23207Y-44592D01*
X23221Y-44635D01*
X23221Y-44664D01*
X23221Y-44407D02*
X22921Y-44407D01*
X22921Y-44292D01*
X22935Y-44264D01*
X22950Y-44250D01*
X22978Y-44235D01*
X23021Y-44235D01*
X23050Y-44250D01*
X23064Y-44264D01*
X23078Y-44292D01*
X23078Y-44407D01*
X23221Y-43950D02*
X23221Y-44121D01*
X23221Y-44035D02*
X22921Y-44035D01*
X22964Y-44064D01*
X22992Y-44092D01*
X23007Y-44121D01*
X21421Y-44449D02*
X21635Y-44449D01*
X21678Y-44464D01*
X21707Y-44492D01*
X21721Y-44535D01*
X21721Y-44564D01*
X21721Y-44307D02*
X21421Y-44307D01*
X21421Y-44192D01*
X21435Y-44164D01*
X21450Y-44150D01*
X21478Y-44135D01*
X21521Y-44135D01*
X21550Y-44150D01*
X21564Y-44164D01*
X21578Y-44192D01*
X21578Y-44307D01*
X21450Y-44021D02*
X21435Y-44007D01*
X21421Y-43978D01*
X21421Y-43907D01*
X21435Y-43878D01*
X21450Y-43864D01*
X21478Y-43850D01*
X21507Y-43850D01*
X21550Y-43864D01*
X21721Y-44035D01*
X21721Y-43850D01*
G54D10*
X88975Y-36590D02*
X89031Y-36609D01*
X89125Y-36609D01*
X89162Y-36590D01*
X89181Y-36571D01*
X89200Y-36534D01*
X89200Y-36496D01*
X89181Y-36459D01*
X89162Y-36440D01*
X89125Y-36421D01*
X89050Y-36403D01*
X89012Y-36384D01*
X88993Y-36365D01*
X88975Y-36328D01*
X88975Y-36290D01*
X88993Y-36253D01*
X89012Y-36234D01*
X89050Y-36215D01*
X89143Y-36215D01*
X89200Y-36234D01*
X89331Y-36215D02*
X89425Y-36609D01*
X89500Y-36328D01*
X89574Y-36609D01*
X89668Y-36215D01*
X90024Y-36609D02*
X89799Y-36609D01*
X89912Y-36609D02*
X89912Y-36215D01*
X89874Y-36271D01*
X89837Y-36309D01*
X89799Y-36328D01*
X43475Y-36340D02*
X43531Y-36359D01*
X43625Y-36359D01*
X43662Y-36340D01*
X43681Y-36321D01*
X43700Y-36284D01*
X43700Y-36246D01*
X43681Y-36209D01*
X43662Y-36190D01*
X43625Y-36171D01*
X43550Y-36153D01*
X43512Y-36134D01*
X43493Y-36115D01*
X43475Y-36078D01*
X43475Y-36040D01*
X43493Y-36003D01*
X43512Y-35984D01*
X43550Y-35965D01*
X43643Y-35965D01*
X43700Y-35984D01*
X43831Y-35965D02*
X43925Y-36359D01*
X44000Y-36078D01*
X44074Y-36359D01*
X44168Y-35965D01*
X44374Y-36134D02*
X44337Y-36115D01*
X44318Y-36096D01*
X44299Y-36059D01*
X44299Y-36040D01*
X44318Y-36003D01*
X44337Y-35984D01*
X44374Y-35965D01*
X44449Y-35965D01*
X44487Y-35984D01*
X44506Y-36003D01*
X44524Y-36040D01*
X44524Y-36059D01*
X44506Y-36096D01*
X44487Y-36115D01*
X44449Y-36134D01*
X44374Y-36134D01*
X44337Y-36153D01*
X44318Y-36171D01*
X44299Y-36209D01*
X44299Y-36284D01*
X44318Y-36321D01*
X44337Y-36340D01*
X44374Y-36359D01*
X44449Y-36359D01*
X44487Y-36340D01*
X44506Y-36321D01*
X44524Y-36284D01*
X44524Y-36209D01*
X44506Y-36171D01*
X44487Y-36153D01*
X44449Y-36134D01*
X82475Y-36590D02*
X82531Y-36609D01*
X82625Y-36609D01*
X82662Y-36590D01*
X82681Y-36571D01*
X82700Y-36534D01*
X82700Y-36496D01*
X82681Y-36459D01*
X82662Y-36440D01*
X82625Y-36421D01*
X82550Y-36403D01*
X82512Y-36384D01*
X82493Y-36365D01*
X82475Y-36328D01*
X82475Y-36290D01*
X82493Y-36253D01*
X82512Y-36234D01*
X82550Y-36215D01*
X82643Y-36215D01*
X82700Y-36234D01*
X82831Y-36215D02*
X82925Y-36609D01*
X83000Y-36328D01*
X83074Y-36609D01*
X83168Y-36215D01*
X83299Y-36253D02*
X83318Y-36234D01*
X83356Y-36215D01*
X83449Y-36215D01*
X83487Y-36234D01*
X83506Y-36253D01*
X83524Y-36290D01*
X83524Y-36328D01*
X83506Y-36384D01*
X83281Y-36609D01*
X83524Y-36609D01*
X50225Y-36340D02*
X50281Y-36359D01*
X50375Y-36359D01*
X50412Y-36340D01*
X50431Y-36321D01*
X50450Y-36284D01*
X50450Y-36246D01*
X50431Y-36209D01*
X50412Y-36190D01*
X50375Y-36171D01*
X50300Y-36153D01*
X50262Y-36134D01*
X50243Y-36115D01*
X50225Y-36078D01*
X50225Y-36040D01*
X50243Y-36003D01*
X50262Y-35984D01*
X50300Y-35965D01*
X50393Y-35965D01*
X50450Y-35984D01*
X50581Y-35965D02*
X50675Y-36359D01*
X50750Y-36078D01*
X50824Y-36359D01*
X50918Y-35965D01*
X51031Y-35965D02*
X51293Y-35965D01*
X51124Y-36359D01*
X36925Y-36340D02*
X36981Y-36359D01*
X37075Y-36359D01*
X37112Y-36340D01*
X37131Y-36321D01*
X37150Y-36284D01*
X37150Y-36246D01*
X37131Y-36209D01*
X37112Y-36190D01*
X37075Y-36171D01*
X37000Y-36153D01*
X36962Y-36134D01*
X36943Y-36115D01*
X36925Y-36078D01*
X36925Y-36040D01*
X36943Y-36003D01*
X36962Y-35984D01*
X37000Y-35965D01*
X37093Y-35965D01*
X37150Y-35984D01*
X37281Y-35965D02*
X37375Y-36359D01*
X37450Y-36078D01*
X37524Y-36359D01*
X37618Y-35965D01*
X37787Y-36359D02*
X37862Y-36359D01*
X37899Y-36340D01*
X37918Y-36321D01*
X37956Y-36265D01*
X37974Y-36190D01*
X37974Y-36040D01*
X37956Y-36003D01*
X37937Y-35984D01*
X37899Y-35965D01*
X37824Y-35965D01*
X37787Y-35984D01*
X37768Y-36003D01*
X37749Y-36040D01*
X37749Y-36134D01*
X37768Y-36171D01*
X37787Y-36190D01*
X37824Y-36209D01*
X37899Y-36209D01*
X37937Y-36190D01*
X37956Y-36171D01*
X37974Y-36134D01*
X75975Y-36590D02*
X76031Y-36609D01*
X76125Y-36609D01*
X76162Y-36590D01*
X76181Y-36571D01*
X76200Y-36534D01*
X76200Y-36496D01*
X76181Y-36459D01*
X76162Y-36440D01*
X76125Y-36421D01*
X76050Y-36403D01*
X76012Y-36384D01*
X75993Y-36365D01*
X75975Y-36328D01*
X75975Y-36290D01*
X75993Y-36253D01*
X76012Y-36234D01*
X76050Y-36215D01*
X76143Y-36215D01*
X76200Y-36234D01*
X76331Y-36215D02*
X76425Y-36609D01*
X76500Y-36328D01*
X76574Y-36609D01*
X76668Y-36215D01*
X76781Y-36215D02*
X77024Y-36215D01*
X76893Y-36365D01*
X76949Y-36365D01*
X76987Y-36384D01*
X77006Y-36403D01*
X77024Y-36440D01*
X77024Y-36534D01*
X77006Y-36571D01*
X76987Y-36590D01*
X76949Y-36609D01*
X76837Y-36609D01*
X76799Y-36590D01*
X76781Y-36571D01*
X56225Y-36340D02*
X56281Y-36359D01*
X56375Y-36359D01*
X56412Y-36340D01*
X56431Y-36321D01*
X56450Y-36284D01*
X56450Y-36246D01*
X56431Y-36209D01*
X56412Y-36190D01*
X56375Y-36171D01*
X56300Y-36153D01*
X56262Y-36134D01*
X56243Y-36115D01*
X56225Y-36078D01*
X56225Y-36040D01*
X56243Y-36003D01*
X56262Y-35984D01*
X56300Y-35965D01*
X56393Y-35965D01*
X56450Y-35984D01*
X56581Y-35965D02*
X56675Y-36359D01*
X56750Y-36078D01*
X56824Y-36359D01*
X56918Y-35965D01*
X57237Y-35965D02*
X57162Y-35965D01*
X57124Y-35984D01*
X57106Y-36003D01*
X57068Y-36059D01*
X57049Y-36134D01*
X57049Y-36284D01*
X57068Y-36321D01*
X57087Y-36340D01*
X57124Y-36359D01*
X57199Y-36359D01*
X57237Y-36340D01*
X57256Y-36321D01*
X57274Y-36284D01*
X57274Y-36190D01*
X57256Y-36153D01*
X57237Y-36134D01*
X57199Y-36115D01*
X57124Y-36115D01*
X57087Y-36134D01*
X57068Y-36153D01*
X57049Y-36190D01*
X29737Y-36490D02*
X29793Y-36509D01*
X29887Y-36509D01*
X29925Y-36490D01*
X29943Y-36471D01*
X29962Y-36434D01*
X29962Y-36396D01*
X29943Y-36359D01*
X29925Y-36340D01*
X29887Y-36321D01*
X29812Y-36303D01*
X29775Y-36284D01*
X29756Y-36265D01*
X29737Y-36228D01*
X29737Y-36190D01*
X29756Y-36153D01*
X29775Y-36134D01*
X29812Y-36115D01*
X29906Y-36115D01*
X29962Y-36134D01*
X30093Y-36115D02*
X30187Y-36509D01*
X30262Y-36228D01*
X30337Y-36509D01*
X30431Y-36115D01*
X30787Y-36509D02*
X30562Y-36509D01*
X30674Y-36509D02*
X30674Y-36115D01*
X30637Y-36171D01*
X30599Y-36209D01*
X30562Y-36228D01*
X31031Y-36115D02*
X31068Y-36115D01*
X31106Y-36134D01*
X31124Y-36153D01*
X31143Y-36190D01*
X31162Y-36265D01*
X31162Y-36359D01*
X31143Y-36434D01*
X31124Y-36471D01*
X31106Y-36490D01*
X31068Y-36509D01*
X31031Y-36509D01*
X30993Y-36490D01*
X30974Y-36471D01*
X30956Y-36434D01*
X30937Y-36359D01*
X30937Y-36265D01*
X30956Y-36190D01*
X30974Y-36153D01*
X30993Y-36134D01*
X31031Y-36115D01*
X23387Y-36490D02*
X23443Y-36509D01*
X23537Y-36509D01*
X23575Y-36490D01*
X23593Y-36471D01*
X23612Y-36434D01*
X23612Y-36396D01*
X23593Y-36359D01*
X23575Y-36340D01*
X23537Y-36321D01*
X23462Y-36303D01*
X23425Y-36284D01*
X23406Y-36265D01*
X23387Y-36228D01*
X23387Y-36190D01*
X23406Y-36153D01*
X23425Y-36134D01*
X23462Y-36115D01*
X23556Y-36115D01*
X23612Y-36134D01*
X23743Y-36115D02*
X23837Y-36509D01*
X23912Y-36228D01*
X23987Y-36509D01*
X24081Y-36115D01*
X24437Y-36509D02*
X24212Y-36509D01*
X24324Y-36509D02*
X24324Y-36115D01*
X24287Y-36171D01*
X24249Y-36209D01*
X24212Y-36228D01*
X24812Y-36509D02*
X24587Y-36509D01*
X24699Y-36509D02*
X24699Y-36115D01*
X24662Y-36171D01*
X24624Y-36209D01*
X24587Y-36228D01*
X69225Y-36590D02*
X69281Y-36609D01*
X69375Y-36609D01*
X69412Y-36590D01*
X69431Y-36571D01*
X69450Y-36534D01*
X69450Y-36496D01*
X69431Y-36459D01*
X69412Y-36440D01*
X69375Y-36421D01*
X69300Y-36403D01*
X69262Y-36384D01*
X69243Y-36365D01*
X69225Y-36328D01*
X69225Y-36290D01*
X69243Y-36253D01*
X69262Y-36234D01*
X69300Y-36215D01*
X69393Y-36215D01*
X69450Y-36234D01*
X69581Y-36215D02*
X69675Y-36609D01*
X69750Y-36328D01*
X69824Y-36609D01*
X69918Y-36215D01*
X70237Y-36346D02*
X70237Y-36609D01*
X70143Y-36196D02*
X70049Y-36478D01*
X70293Y-36478D01*
X62475Y-36590D02*
X62531Y-36609D01*
X62625Y-36609D01*
X62662Y-36590D01*
X62681Y-36571D01*
X62700Y-36534D01*
X62700Y-36496D01*
X62681Y-36459D01*
X62662Y-36440D01*
X62625Y-36421D01*
X62550Y-36403D01*
X62512Y-36384D01*
X62493Y-36365D01*
X62475Y-36328D01*
X62475Y-36290D01*
X62493Y-36253D01*
X62512Y-36234D01*
X62550Y-36215D01*
X62643Y-36215D01*
X62700Y-36234D01*
X62831Y-36215D02*
X62925Y-36609D01*
X63000Y-36328D01*
X63074Y-36609D01*
X63168Y-36215D01*
X63506Y-36215D02*
X63318Y-36215D01*
X63299Y-36403D01*
X63318Y-36384D01*
X63356Y-36365D01*
X63449Y-36365D01*
X63487Y-36384D01*
X63506Y-36403D01*
X63524Y-36440D01*
X63524Y-36534D01*
X63506Y-36571D01*
X63487Y-36590D01*
X63449Y-36609D01*
X63356Y-36609D01*
X63318Y-36590D01*
X63299Y-36571D01*
X17887Y-36490D02*
X17943Y-36509D01*
X18037Y-36509D01*
X18075Y-36490D01*
X18093Y-36471D01*
X18112Y-36434D01*
X18112Y-36396D01*
X18093Y-36359D01*
X18075Y-36340D01*
X18037Y-36321D01*
X17962Y-36303D01*
X17925Y-36284D01*
X17906Y-36265D01*
X17887Y-36228D01*
X17887Y-36190D01*
X17906Y-36153D01*
X17925Y-36134D01*
X17962Y-36115D01*
X18056Y-36115D01*
X18112Y-36134D01*
X18243Y-36115D02*
X18337Y-36509D01*
X18412Y-36228D01*
X18487Y-36509D01*
X18581Y-36115D01*
X18937Y-36509D02*
X18712Y-36509D01*
X18824Y-36509D02*
X18824Y-36115D01*
X18787Y-36171D01*
X18749Y-36209D01*
X18712Y-36228D01*
X19087Y-36153D02*
X19106Y-36134D01*
X19143Y-36115D01*
X19237Y-36115D01*
X19274Y-36134D01*
X19293Y-36153D01*
X19312Y-36190D01*
X19312Y-36228D01*
X19293Y-36284D01*
X19068Y-36509D01*
X19312Y-36509D01*
G54D15*
X85622Y-51621D02*
X85360Y-51788D01*
X85622Y-51907D02*
X85072Y-51907D01*
X85072Y-51716D01*
X85098Y-51669D01*
X85125Y-51645D01*
X85177Y-51621D01*
X85255Y-51621D01*
X85308Y-51645D01*
X85334Y-51669D01*
X85360Y-51716D01*
X85360Y-51907D01*
X85125Y-51430D02*
X85098Y-51407D01*
X85072Y-51359D01*
X85072Y-51240D01*
X85098Y-51192D01*
X85125Y-51169D01*
X85177Y-51145D01*
X85229Y-51145D01*
X85308Y-51169D01*
X85622Y-51454D01*
X85622Y-51145D01*
X85125Y-50954D02*
X85098Y-50930D01*
X85072Y-50883D01*
X85072Y-50764D01*
X85098Y-50716D01*
X85125Y-50692D01*
X85177Y-50669D01*
X85229Y-50669D01*
X85308Y-50692D01*
X85622Y-50978D01*
X85622Y-50669D01*
X84622Y-51621D02*
X84360Y-51788D01*
X84622Y-51907D02*
X84072Y-51907D01*
X84072Y-51716D01*
X84098Y-51669D01*
X84125Y-51645D01*
X84177Y-51621D01*
X84255Y-51621D01*
X84308Y-51645D01*
X84334Y-51669D01*
X84360Y-51716D01*
X84360Y-51907D01*
X84125Y-51430D02*
X84098Y-51407D01*
X84072Y-51359D01*
X84072Y-51240D01*
X84098Y-51192D01*
X84125Y-51169D01*
X84177Y-51145D01*
X84229Y-51145D01*
X84308Y-51169D01*
X84622Y-51454D01*
X84622Y-51145D01*
X84072Y-50835D02*
X84072Y-50788D01*
X84098Y-50740D01*
X84125Y-50716D01*
X84177Y-50692D01*
X84282Y-50669D01*
X84413Y-50669D01*
X84517Y-50692D01*
X84570Y-50716D01*
X84596Y-50740D01*
X84622Y-50788D01*
X84622Y-50835D01*
X84596Y-50883D01*
X84570Y-50907D01*
X84517Y-50930D01*
X84413Y-50954D01*
X84282Y-50954D01*
X84177Y-50930D01*
X84125Y-50907D01*
X84098Y-50883D01*
X84072Y-50835D01*
X76628Y-45122D02*
X76461Y-44860D01*
X76342Y-45122D02*
X76342Y-44572D01*
X76533Y-44572D01*
X76580Y-44598D01*
X76604Y-44625D01*
X76628Y-44677D01*
X76628Y-44755D01*
X76604Y-44808D01*
X76580Y-44834D01*
X76533Y-44860D01*
X76342Y-44860D01*
X76819Y-44625D02*
X76842Y-44598D01*
X76890Y-44572D01*
X77009Y-44572D01*
X77057Y-44598D01*
X77080Y-44625D01*
X77104Y-44677D01*
X77104Y-44729D01*
X77080Y-44808D01*
X76795Y-45122D01*
X77104Y-45122D01*
X77533Y-44755D02*
X77533Y-45122D01*
X77414Y-44546D02*
X77295Y-44939D01*
X77604Y-44939D01*
X75422Y-49821D02*
X75160Y-49988D01*
X75422Y-50107D02*
X74872Y-50107D01*
X74872Y-49916D01*
X74898Y-49869D01*
X74925Y-49845D01*
X74977Y-49821D01*
X75055Y-49821D01*
X75108Y-49845D01*
X75134Y-49869D01*
X75160Y-49916D01*
X75160Y-50107D01*
X74925Y-49630D02*
X74898Y-49607D01*
X74872Y-49559D01*
X74872Y-49440D01*
X74898Y-49392D01*
X74925Y-49369D01*
X74977Y-49345D01*
X75029Y-49345D01*
X75108Y-49369D01*
X75422Y-49654D01*
X75422Y-49345D01*
X75422Y-48869D02*
X75422Y-49154D01*
X75422Y-49011D02*
X74872Y-49011D01*
X74951Y-49059D01*
X75003Y-49107D01*
X75029Y-49154D01*
X79678Y-46022D02*
X79511Y-45760D01*
X79392Y-46022D02*
X79392Y-45472D01*
X79583Y-45472D01*
X79630Y-45498D01*
X79654Y-45525D01*
X79678Y-45577D01*
X79678Y-45655D01*
X79654Y-45708D01*
X79630Y-45734D01*
X79583Y-45760D01*
X79392Y-45760D01*
X79869Y-45525D02*
X79892Y-45498D01*
X79940Y-45472D01*
X80059Y-45472D01*
X80107Y-45498D01*
X80130Y-45525D01*
X80154Y-45577D01*
X80154Y-45629D01*
X80130Y-45708D01*
X79845Y-46022D01*
X80154Y-46022D01*
X80321Y-45472D02*
X80630Y-45472D01*
X80464Y-45682D01*
X80535Y-45682D01*
X80583Y-45708D01*
X80607Y-45734D01*
X80630Y-45786D01*
X80630Y-45917D01*
X80607Y-45970D01*
X80583Y-45996D01*
X80535Y-46022D01*
X80392Y-46022D01*
X80345Y-45996D01*
X80321Y-45970D01*
X87528Y-46122D02*
X87361Y-45860D01*
X87242Y-46122D02*
X87242Y-45572D01*
X87433Y-45572D01*
X87480Y-45598D01*
X87504Y-45625D01*
X87528Y-45677D01*
X87528Y-45755D01*
X87504Y-45808D01*
X87480Y-45834D01*
X87433Y-45860D01*
X87242Y-45860D01*
X88004Y-46122D02*
X87719Y-46122D01*
X87861Y-46122D02*
X87861Y-45572D01*
X87814Y-45651D01*
X87766Y-45703D01*
X87719Y-45729D01*
X88290Y-45808D02*
X88242Y-45782D01*
X88219Y-45755D01*
X88195Y-45703D01*
X88195Y-45677D01*
X88219Y-45625D01*
X88242Y-45598D01*
X88290Y-45572D01*
X88385Y-45572D01*
X88433Y-45598D01*
X88457Y-45625D01*
X88480Y-45677D01*
X88480Y-45703D01*
X88457Y-45755D01*
X88433Y-45782D01*
X88385Y-45808D01*
X88290Y-45808D01*
X88242Y-45834D01*
X88219Y-45860D01*
X88195Y-45913D01*
X88195Y-46017D01*
X88219Y-46070D01*
X88242Y-46096D01*
X88290Y-46122D01*
X88385Y-46122D01*
X88433Y-46096D01*
X88457Y-46070D01*
X88480Y-46017D01*
X88480Y-45913D01*
X88457Y-45860D01*
X88433Y-45834D01*
X88385Y-45808D01*
X87528Y-47172D02*
X87361Y-46910D01*
X87242Y-47172D02*
X87242Y-46622D01*
X87433Y-46622D01*
X87480Y-46648D01*
X87504Y-46675D01*
X87528Y-46727D01*
X87528Y-46805D01*
X87504Y-46858D01*
X87480Y-46884D01*
X87433Y-46910D01*
X87242Y-46910D01*
X88004Y-47172D02*
X87719Y-47172D01*
X87861Y-47172D02*
X87861Y-46622D01*
X87814Y-46701D01*
X87766Y-46753D01*
X87719Y-46779D01*
X88242Y-47172D02*
X88338Y-47172D01*
X88385Y-47146D01*
X88409Y-47120D01*
X88457Y-47041D01*
X88480Y-46936D01*
X88480Y-46727D01*
X88457Y-46675D01*
X88433Y-46648D01*
X88385Y-46622D01*
X88290Y-46622D01*
X88242Y-46648D01*
X88219Y-46675D01*
X88195Y-46727D01*
X88195Y-46858D01*
X88219Y-46910D01*
X88242Y-46936D01*
X88290Y-46963D01*
X88385Y-46963D01*
X88433Y-46936D01*
X88457Y-46910D01*
X88480Y-46858D01*
G54D21*
X79657Y-52083D02*
X79657Y-52650D01*
X79678Y-52716D01*
X79700Y-52750D01*
X79742Y-52783D01*
X79828Y-52783D01*
X79871Y-52750D01*
X79892Y-52716D01*
X79914Y-52650D01*
X79914Y-52083D01*
X80085Y-52083D02*
X80364Y-52083D01*
X80214Y-52350D01*
X80278Y-52350D01*
X80321Y-52383D01*
X80342Y-52416D01*
X80364Y-52483D01*
X80364Y-52650D01*
X80342Y-52716D01*
X80321Y-52750D01*
X80278Y-52783D01*
X80150Y-52783D01*
X80107Y-52750D01*
X80085Y-52716D01*
G54D19*
G54D15*
X78723Y-53466D02*
X78742Y-53485D01*
X78761Y-53542D01*
X78761Y-53580D01*
X78742Y-53638D01*
X78704Y-53676D01*
X78666Y-53695D01*
X78590Y-53714D01*
X78533Y-53714D01*
X78457Y-53695D01*
X78419Y-53676D01*
X78380Y-53638D01*
X78361Y-53580D01*
X78361Y-53542D01*
X78380Y-53485D01*
X78400Y-53466D01*
X78361Y-53123D02*
X78361Y-53199D01*
X78380Y-53238D01*
X78400Y-53257D01*
X78457Y-53295D01*
X78533Y-53314D01*
X78685Y-53314D01*
X78723Y-53295D01*
X78742Y-53276D01*
X78761Y-53238D01*
X78761Y-53161D01*
X78742Y-53123D01*
X78723Y-53104D01*
X78685Y-53085D01*
X78590Y-53085D01*
X78552Y-53104D01*
X78533Y-53123D01*
X78514Y-53161D01*
X78514Y-53238D01*
X78533Y-53276D01*
X78552Y-53295D01*
X78590Y-53314D01*
X54933Y-56523D02*
X54914Y-56542D01*
X54857Y-56561D01*
X54819Y-56561D01*
X54761Y-56542D01*
X54723Y-56504D01*
X54704Y-56466D01*
X54685Y-56390D01*
X54685Y-56333D01*
X54704Y-56257D01*
X54723Y-56219D01*
X54761Y-56180D01*
X54819Y-56161D01*
X54857Y-56161D01*
X54914Y-56180D01*
X54933Y-56200D01*
X55295Y-56161D02*
X55104Y-56161D01*
X55085Y-56352D01*
X55104Y-56333D01*
X55142Y-56314D01*
X55238Y-56314D01*
X55276Y-56333D01*
X55295Y-56352D01*
X55314Y-56390D01*
X55314Y-56485D01*
X55295Y-56523D01*
X55276Y-56542D01*
X55238Y-56561D01*
X55142Y-56561D01*
X55104Y-56542D01*
X55085Y-56523D01*
X56133Y-56523D02*
X56114Y-56542D01*
X56057Y-56561D01*
X56019Y-56561D01*
X55961Y-56542D01*
X55923Y-56504D01*
X55904Y-56466D01*
X55885Y-56390D01*
X55885Y-56333D01*
X55904Y-56257D01*
X55923Y-56219D01*
X55961Y-56180D01*
X56019Y-56161D01*
X56057Y-56161D01*
X56114Y-56180D01*
X56133Y-56200D01*
X56476Y-56295D02*
X56476Y-56561D01*
X56380Y-56142D02*
X56285Y-56428D01*
X56533Y-56428D01*
X66983Y-53273D02*
X66964Y-53292D01*
X66907Y-53311D01*
X66869Y-53311D01*
X66811Y-53292D01*
X66773Y-53254D01*
X66754Y-53216D01*
X66735Y-53140D01*
X66735Y-53083D01*
X66754Y-53007D01*
X66773Y-52969D01*
X66811Y-52930D01*
X66869Y-52911D01*
X66907Y-52911D01*
X66964Y-52930D01*
X66983Y-52950D01*
X67116Y-52911D02*
X67364Y-52911D01*
X67230Y-53064D01*
X67288Y-53064D01*
X67326Y-53083D01*
X67345Y-53102D01*
X67364Y-53140D01*
X67364Y-53235D01*
X67345Y-53273D01*
X67326Y-53292D01*
X67288Y-53311D01*
X67173Y-53311D01*
X67135Y-53292D01*
X67116Y-53273D01*
G54D20*
X87800Y-43843D02*
X87785Y-43858D01*
X87742Y-43872D01*
X87714Y-43872D01*
X87671Y-43858D01*
X87642Y-43829D01*
X87628Y-43801D01*
X87614Y-43743D01*
X87614Y-43701D01*
X87628Y-43643D01*
X87642Y-43615D01*
X87671Y-43586D01*
X87714Y-43572D01*
X87742Y-43572D01*
X87785Y-43586D01*
X87800Y-43601D01*
X87971Y-43701D02*
X87942Y-43686D01*
X87928Y-43672D01*
X87914Y-43643D01*
X87914Y-43629D01*
X87928Y-43601D01*
X87942Y-43586D01*
X87971Y-43572D01*
X88028Y-43572D01*
X88057Y-43586D01*
X88071Y-43601D01*
X88085Y-43629D01*
X88085Y-43643D01*
X88071Y-43672D01*
X88057Y-43686D01*
X88028Y-43701D01*
X87971Y-43701D01*
X87942Y-43715D01*
X87928Y-43729D01*
X87914Y-43758D01*
X87914Y-43815D01*
X87928Y-43843D01*
X87942Y-43858D01*
X87971Y-43872D01*
X88028Y-43872D01*
X88057Y-43858D01*
X88071Y-43843D01*
X88085Y-43815D01*
X88085Y-43758D01*
X88071Y-43729D01*
X88057Y-43715D01*
X88028Y-43701D01*
G54D23*
X86835Y-44257D02*
X87064Y-44257D01*
X86950Y-44371D02*
X86950Y-44142D01*
G54D15*
X64861Y-55797D02*
X64671Y-55930D01*
X64861Y-56026D02*
X64461Y-56026D01*
X64461Y-55873D01*
X64480Y-55835D01*
X64500Y-55816D01*
X64538Y-55797D01*
X64595Y-55797D01*
X64633Y-55816D01*
X64652Y-55835D01*
X64671Y-55873D01*
X64671Y-56026D01*
X64652Y-55626D02*
X64652Y-55492D01*
X64861Y-55435D02*
X64861Y-55626D01*
X64461Y-55626D01*
X64461Y-55435D01*
X64480Y-55054D02*
X64461Y-55092D01*
X64461Y-55150D01*
X64480Y-55207D01*
X64519Y-55245D01*
X64557Y-55264D01*
X64633Y-55283D01*
X64690Y-55283D01*
X64766Y-55264D01*
X64804Y-55245D01*
X64842Y-55207D01*
X64861Y-55150D01*
X64861Y-55111D01*
X64842Y-55054D01*
X64823Y-55035D01*
X64690Y-55035D01*
X64690Y-55111D01*
X64861Y-54654D02*
X64861Y-54883D01*
X64861Y-54769D02*
X64461Y-54769D01*
X64519Y-54807D01*
X64557Y-54845D01*
X64576Y-54883D01*
X84078Y-54172D02*
X83911Y-53910D01*
X83792Y-54172D02*
X83792Y-53622D01*
X83983Y-53622D01*
X84030Y-53648D01*
X84054Y-53675D01*
X84078Y-53727D01*
X84078Y-53805D01*
X84054Y-53858D01*
X84030Y-53884D01*
X83983Y-53910D01*
X83792Y-53910D01*
X84269Y-53675D02*
X84292Y-53648D01*
X84340Y-53622D01*
X84459Y-53622D01*
X84507Y-53648D01*
X84530Y-53675D01*
X84554Y-53727D01*
X84554Y-53779D01*
X84530Y-53858D01*
X84245Y-54172D01*
X84554Y-54172D01*
X84983Y-53622D02*
X84888Y-53622D01*
X84840Y-53648D01*
X84816Y-53675D01*
X84769Y-53753D01*
X84745Y-53858D01*
X84745Y-54067D01*
X84769Y-54120D01*
X84792Y-54146D01*
X84840Y-54172D01*
X84935Y-54172D01*
X84983Y-54146D01*
X85007Y-54120D01*
X85030Y-54067D01*
X85030Y-53936D01*
X85007Y-53884D01*
X84983Y-53858D01*
X84935Y-53832D01*
X84840Y-53832D01*
X84792Y-53858D01*
X84769Y-53884D01*
X84745Y-53936D01*
X83080Y-55952D02*
X83214Y-55952D01*
X83271Y-56161D02*
X83080Y-56161D01*
X83080Y-55761D01*
X83271Y-55761D01*
X83633Y-56161D02*
X83442Y-56161D01*
X83442Y-55761D01*
X83766Y-55952D02*
X83900Y-55952D01*
X83957Y-56161D02*
X83766Y-56161D01*
X83766Y-55761D01*
X83957Y-55761D01*
X84357Y-56123D02*
X84338Y-56142D01*
X84280Y-56161D01*
X84242Y-56161D01*
X84185Y-56142D01*
X84147Y-56104D01*
X84128Y-56066D01*
X84109Y-55990D01*
X84109Y-55933D01*
X84128Y-55857D01*
X84147Y-55819D01*
X84185Y-55780D01*
X84242Y-55761D01*
X84280Y-55761D01*
X84338Y-55780D01*
X84357Y-55800D01*
X84738Y-56161D02*
X84509Y-56161D01*
X84623Y-56161D02*
X84623Y-55761D01*
X84585Y-55819D01*
X84547Y-55857D01*
X84509Y-55876D01*
G54D20*
X63841Y-57750D02*
X63856Y-57764D01*
X63870Y-57807D01*
X63870Y-57835D01*
X63856Y-57878D01*
X63827Y-57907D01*
X63799Y-57921D01*
X63741Y-57935D01*
X63699Y-57935D01*
X63641Y-57921D01*
X63613Y-57907D01*
X63584Y-57878D01*
X63570Y-57835D01*
X63570Y-57807D01*
X63584Y-57764D01*
X63599Y-57750D01*
X63870Y-57607D02*
X63870Y-57550D01*
X63856Y-57521D01*
X63841Y-57507D01*
X63799Y-57478D01*
X63741Y-57464D01*
X63627Y-57464D01*
X63599Y-57478D01*
X63584Y-57492D01*
X63570Y-57521D01*
X63570Y-57578D01*
X63584Y-57607D01*
X63599Y-57621D01*
X63627Y-57635D01*
X63699Y-57635D01*
X63727Y-57621D01*
X63741Y-57607D01*
X63756Y-57578D01*
X63756Y-57521D01*
X63741Y-57492D01*
X63727Y-57478D01*
X63699Y-57464D01*
G54D23*
X63257Y-56914D02*
X63257Y-56685D01*
X63371Y-56800D02*
X63142Y-56800D01*
G54D15*
G54D20*
X66091Y-57242D02*
X66106Y-57257D01*
X66120Y-57300D01*
X66120Y-57328D01*
X66106Y-57371D01*
X66077Y-57400D01*
X66049Y-57414D01*
X65991Y-57428D01*
X65949Y-57428D01*
X65891Y-57414D01*
X65863Y-57400D01*
X65834Y-57371D01*
X65820Y-57328D01*
X65820Y-57300D01*
X65834Y-57257D01*
X65849Y-57242D01*
X66120Y-56957D02*
X66120Y-57128D01*
X66120Y-57042D02*
X65820Y-57042D01*
X65863Y-57071D01*
X65891Y-57100D01*
X65906Y-57128D01*
X65820Y-56771D02*
X65820Y-56742D01*
X65834Y-56714D01*
X65849Y-56700D01*
X65877Y-56685D01*
X65934Y-56671D01*
X66006Y-56671D01*
X66063Y-56685D01*
X66091Y-56700D01*
X66106Y-56714D01*
X66120Y-56742D01*
X66120Y-56771D01*
X66106Y-56800D01*
X66091Y-56814D01*
X66063Y-56828D01*
X66006Y-56842D01*
X65934Y-56842D01*
X65877Y-56828D01*
X65849Y-56814D01*
X65834Y-56800D01*
X65820Y-56771D01*
G54D23*
X65507Y-56264D02*
X65507Y-56035D01*
X65621Y-56150D02*
X65392Y-56150D01*
G54D15*
G54D20*
X73757Y-44493D02*
X73742Y-44508D01*
X73700Y-44522D01*
X73671Y-44522D01*
X73628Y-44508D01*
X73600Y-44479D01*
X73585Y-44451D01*
X73571Y-44393D01*
X73571Y-44351D01*
X73585Y-44293D01*
X73600Y-44265D01*
X73628Y-44236D01*
X73671Y-44222D01*
X73700Y-44222D01*
X73742Y-44236D01*
X73757Y-44251D01*
X74042Y-44522D02*
X73871Y-44522D01*
X73957Y-44522D02*
X73957Y-44222D01*
X73928Y-44265D01*
X73900Y-44293D01*
X73871Y-44308D01*
X74157Y-44251D02*
X74171Y-44236D01*
X74200Y-44222D01*
X74271Y-44222D01*
X74300Y-44236D01*
X74314Y-44251D01*
X74328Y-44279D01*
X74328Y-44308D01*
X74314Y-44351D01*
X74142Y-44522D01*
X74328Y-44522D01*
G54D23*
X72935Y-44907D02*
X73164Y-44907D01*
X73050Y-45021D02*
X73050Y-44792D01*
G54D15*
G54D20*
X86143Y-55692D02*
X86158Y-55707D01*
X86172Y-55750D01*
X86172Y-55778D01*
X86158Y-55821D01*
X86129Y-55850D01*
X86101Y-55864D01*
X86043Y-55878D01*
X86001Y-55878D01*
X85943Y-55864D01*
X85915Y-55850D01*
X85886Y-55821D01*
X85872Y-55778D01*
X85872Y-55750D01*
X85886Y-55707D01*
X85901Y-55692D01*
X86172Y-55407D02*
X86172Y-55578D01*
X86172Y-55492D02*
X85872Y-55492D01*
X85915Y-55521D01*
X85943Y-55550D01*
X85958Y-55578D01*
X86172Y-55121D02*
X86172Y-55292D01*
X86172Y-55207D02*
X85872Y-55207D01*
X85915Y-55235D01*
X85943Y-55264D01*
X85958Y-55292D01*
G54D23*
X86557Y-56514D02*
X86557Y-56285D01*
X86671Y-56400D02*
X86442Y-56400D01*
G54D15*
G54D10*
X87346Y-53390D02*
X87328Y-53409D01*
X87271Y-53427D01*
X87234Y-53427D01*
X87178Y-53409D01*
X87140Y-53371D01*
X87121Y-53334D01*
X87103Y-53259D01*
X87103Y-53202D01*
X87121Y-53127D01*
X87140Y-53090D01*
X87178Y-53052D01*
X87234Y-53034D01*
X87271Y-53034D01*
X87328Y-53052D01*
X87346Y-53071D01*
X87721Y-53427D02*
X87496Y-53427D01*
X87609Y-53427D02*
X87609Y-53034D01*
X87571Y-53090D01*
X87534Y-53127D01*
X87496Y-53146D01*
X87853Y-53034D02*
X88096Y-53034D01*
X87965Y-53184D01*
X88021Y-53184D01*
X88059Y-53202D01*
X88078Y-53221D01*
X88096Y-53259D01*
X88096Y-53352D01*
X88078Y-53390D01*
X88059Y-53409D01*
X88021Y-53427D01*
X87909Y-53427D01*
X87871Y-53409D01*
X87853Y-53390D01*
X86268Y-51309D02*
X86568Y-51309D01*
X88631Y-51309D02*
X88931Y-51309D01*
X88781Y-51459D02*
X88781Y-51159D01*
X76990Y-53315D02*
X77009Y-53334D01*
X77027Y-53390D01*
X77027Y-53428D01*
X77009Y-53484D01*
X76971Y-53521D01*
X76934Y-53540D01*
X76859Y-53559D01*
X76802Y-53559D01*
X76727Y-53540D01*
X76690Y-53521D01*
X76652Y-53484D01*
X76634Y-53428D01*
X76634Y-53390D01*
X76652Y-53334D01*
X76671Y-53315D01*
X76634Y-53184D02*
X76634Y-52921D01*
X77027Y-53090D01*
X74909Y-54581D02*
X74909Y-54281D01*
X74909Y-52218D02*
X74909Y-51918D01*
X75059Y-52068D02*
X74759Y-52068D01*
G54D20*
X81592Y-54680D02*
X81564Y-54661D01*
X81521Y-54661D01*
X81478Y-54680D01*
X81450Y-54719D01*
X81435Y-54757D01*
X81421Y-54833D01*
X81421Y-54890D01*
X81435Y-54966D01*
X81450Y-55004D01*
X81478Y-55042D01*
X81521Y-55061D01*
X81550Y-55061D01*
X81592Y-55042D01*
X81607Y-55023D01*
X81607Y-54890D01*
X81550Y-54890D01*
X81721Y-55042D02*
X81764Y-55061D01*
X81835Y-55061D01*
X81864Y-55042D01*
X81878Y-55023D01*
X81892Y-54985D01*
X81892Y-54947D01*
X81878Y-54909D01*
X81864Y-54890D01*
X81835Y-54871D01*
X81778Y-54852D01*
X81750Y-54833D01*
X81735Y-54814D01*
X81721Y-54776D01*
X81721Y-54738D01*
X81735Y-54700D01*
X81750Y-54680D01*
X81778Y-54661D01*
X81850Y-54661D01*
X81892Y-54680D01*
X82178Y-55061D02*
X82007Y-55061D01*
X82092Y-55061D02*
X82092Y-54661D01*
X82064Y-54719D01*
X82035Y-54757D01*
X82007Y-54776D01*
X74580Y-48207D02*
X74561Y-48235D01*
X74561Y-48278D01*
X74580Y-48321D01*
X74619Y-48350D01*
X74657Y-48364D01*
X74733Y-48378D01*
X74790Y-48378D01*
X74866Y-48364D01*
X74904Y-48350D01*
X74942Y-48321D01*
X74961Y-48278D01*
X74961Y-48250D01*
X74942Y-48207D01*
X74923Y-48192D01*
X74790Y-48192D01*
X74790Y-48250D01*
X74942Y-48078D02*
X74961Y-48035D01*
X74961Y-47964D01*
X74942Y-47935D01*
X74923Y-47921D01*
X74885Y-47907D01*
X74847Y-47907D01*
X74809Y-47921D01*
X74790Y-47935D01*
X74771Y-47964D01*
X74752Y-48021D01*
X74733Y-48050D01*
X74714Y-48064D01*
X74676Y-48078D01*
X74638Y-48078D01*
X74600Y-48064D01*
X74580Y-48050D01*
X74561Y-48021D01*
X74561Y-47950D01*
X74580Y-47907D01*
X74600Y-47792D02*
X74580Y-47778D01*
X74561Y-47750D01*
X74561Y-47678D01*
X74580Y-47650D01*
X74600Y-47635D01*
X74638Y-47621D01*
X74676Y-47621D01*
X74733Y-47635D01*
X74961Y-47807D01*
X74961Y-47621D01*
G54D21*
X54757Y-42742D02*
X54757Y-43228D01*
X54778Y-43285D01*
X54800Y-43314D01*
X54842Y-43342D01*
X54928Y-43342D01*
X54971Y-43314D01*
X54992Y-43285D01*
X55014Y-43228D01*
X55014Y-42742D01*
X55421Y-42942D02*
X55421Y-43342D01*
X55314Y-42714D02*
X55207Y-43142D01*
X55485Y-43142D01*
G54D19*
G54D21*
X42857Y-46042D02*
X42857Y-46528D01*
X42878Y-46585D01*
X42900Y-46614D01*
X42942Y-46642D01*
X43028Y-46642D01*
X43071Y-46614D01*
X43092Y-46585D01*
X43114Y-46528D01*
X43114Y-46042D01*
X43542Y-46042D02*
X43328Y-46042D01*
X43307Y-46328D01*
X43328Y-46300D01*
X43371Y-46271D01*
X43478Y-46271D01*
X43521Y-46300D01*
X43542Y-46328D01*
X43564Y-46385D01*
X43564Y-46528D01*
X43542Y-46585D01*
X43521Y-46614D01*
X43478Y-46642D01*
X43371Y-46642D01*
X43328Y-46614D01*
X43307Y-46585D01*
G54D19*
G54D24*
X53344Y-56326D02*
X53895Y-56326D01*
X53960Y-56305D01*
X53993Y-56285D01*
X54025Y-56244D01*
X54025Y-56163D01*
X53993Y-56122D01*
X53960Y-56101D01*
X53895Y-56081D01*
X53344Y-56081D01*
X54025Y-55653D02*
X54025Y-55898D01*
X54025Y-55775D02*
X53344Y-55775D01*
X53441Y-55816D01*
X53506Y-55857D01*
X53539Y-55898D01*
G54D19*
G54D10*
X23424Y-25855D02*
X23480Y-25874D01*
X23499Y-25892D01*
X23517Y-25930D01*
X23517Y-25986D01*
X23499Y-26024D01*
X23480Y-26042D01*
X23442Y-26061D01*
X23292Y-26061D01*
X23292Y-25668D01*
X23424Y-25668D01*
X23461Y-25686D01*
X23480Y-25705D01*
X23499Y-25743D01*
X23499Y-25780D01*
X23480Y-25817D01*
X23461Y-25836D01*
X23424Y-25855D01*
X23292Y-25855D01*
X22533Y-26022D02*
X22402Y-25834D01*
X22308Y-26022D02*
X22308Y-25628D01*
X22458Y-25628D01*
X22496Y-25647D01*
X22514Y-25666D01*
X22533Y-25703D01*
X22533Y-25759D01*
X22514Y-25797D01*
X22496Y-25816D01*
X22458Y-25834D01*
X22308Y-25834D01*
X21530Y-25686D02*
X21493Y-25668D01*
X21436Y-25668D01*
X21380Y-25686D01*
X21343Y-25724D01*
X21324Y-25761D01*
X21305Y-25836D01*
X21305Y-25892D01*
X21324Y-25967D01*
X21343Y-26005D01*
X21380Y-26042D01*
X21436Y-26061D01*
X21474Y-26061D01*
X21530Y-26042D01*
X21549Y-26024D01*
X21549Y-25892D01*
X21474Y-25892D01*
X20334Y-26970D02*
X20334Y-26671D01*
X20484Y-26820D02*
X20184Y-26820D01*
X20484Y-26277D02*
X20484Y-26502D01*
X20484Y-26389D02*
X20090Y-26389D01*
X20147Y-26427D01*
X20184Y-26464D01*
X20203Y-26502D01*
X20128Y-26127D02*
X20109Y-26108D01*
X20090Y-26071D01*
X20090Y-25977D01*
X20109Y-25939D01*
X20128Y-25921D01*
X20165Y-25902D01*
X20203Y-25902D01*
X20259Y-25921D01*
X20484Y-26146D01*
X20484Y-25902D01*
X20222Y-25771D02*
X20484Y-25677D01*
X20222Y-25583D01*
X29324Y-25855D02*
X29380Y-25874D01*
X29399Y-25892D01*
X29417Y-25930D01*
X29417Y-25986D01*
X29399Y-26024D01*
X29380Y-26042D01*
X29342Y-26061D01*
X29192Y-26061D01*
X29192Y-25668D01*
X29324Y-25668D01*
X29361Y-25686D01*
X29380Y-25705D01*
X29399Y-25743D01*
X29399Y-25780D01*
X29380Y-25817D01*
X29361Y-25836D01*
X29324Y-25855D01*
X29192Y-25855D01*
X28433Y-26022D02*
X28302Y-25834D01*
X28208Y-26022D02*
X28208Y-25628D01*
X28358Y-25628D01*
X28396Y-25647D01*
X28414Y-25666D01*
X28433Y-25703D01*
X28433Y-25759D01*
X28414Y-25797D01*
X28396Y-25816D01*
X28358Y-25834D01*
X28208Y-25834D01*
X27430Y-25686D02*
X27393Y-25668D01*
X27336Y-25668D01*
X27280Y-25686D01*
X27243Y-25724D01*
X27224Y-25761D01*
X27205Y-25836D01*
X27205Y-25892D01*
X27224Y-25967D01*
X27243Y-26005D01*
X27280Y-26042D01*
X27336Y-26061D01*
X27374Y-26061D01*
X27430Y-26042D01*
X27449Y-26024D01*
X27449Y-25892D01*
X27374Y-25892D01*
X26234Y-26970D02*
X26234Y-26671D01*
X26384Y-26820D02*
X26084Y-26820D01*
X26384Y-26277D02*
X26384Y-26502D01*
X26384Y-26389D02*
X25990Y-26389D01*
X26047Y-26427D01*
X26084Y-26464D01*
X26103Y-26502D01*
X26028Y-26127D02*
X26009Y-26108D01*
X25990Y-26071D01*
X25990Y-25977D01*
X26009Y-25939D01*
X26028Y-25921D01*
X26065Y-25902D01*
X26103Y-25902D01*
X26159Y-25921D01*
X26384Y-26146D01*
X26384Y-25902D01*
X26122Y-25771D02*
X26384Y-25677D01*
X26122Y-25583D01*
X43424Y-25655D02*
X43480Y-25674D01*
X43499Y-25692D01*
X43517Y-25730D01*
X43517Y-25786D01*
X43499Y-25824D01*
X43480Y-25842D01*
X43442Y-25861D01*
X43292Y-25861D01*
X43292Y-25468D01*
X43424Y-25468D01*
X43461Y-25486D01*
X43480Y-25505D01*
X43499Y-25543D01*
X43499Y-25580D01*
X43480Y-25617D01*
X43461Y-25636D01*
X43424Y-25655D01*
X43292Y-25655D01*
X42533Y-25822D02*
X42402Y-25634D01*
X42308Y-25822D02*
X42308Y-25428D01*
X42458Y-25428D01*
X42496Y-25447D01*
X42514Y-25466D01*
X42533Y-25503D01*
X42533Y-25559D01*
X42514Y-25597D01*
X42496Y-25616D01*
X42458Y-25634D01*
X42308Y-25634D01*
X41530Y-25486D02*
X41493Y-25468D01*
X41436Y-25468D01*
X41380Y-25486D01*
X41343Y-25524D01*
X41324Y-25561D01*
X41305Y-25636D01*
X41305Y-25692D01*
X41324Y-25767D01*
X41343Y-25805D01*
X41380Y-25842D01*
X41436Y-25861D01*
X41474Y-25861D01*
X41530Y-25842D01*
X41549Y-25824D01*
X41549Y-25692D01*
X41474Y-25692D01*
X40334Y-26770D02*
X40334Y-26471D01*
X40484Y-26620D02*
X40184Y-26620D01*
X40484Y-26077D02*
X40484Y-26302D01*
X40484Y-26189D02*
X40090Y-26189D01*
X40147Y-26227D01*
X40184Y-26264D01*
X40203Y-26302D01*
X40128Y-25927D02*
X40109Y-25908D01*
X40090Y-25871D01*
X40090Y-25777D01*
X40109Y-25739D01*
X40128Y-25721D01*
X40165Y-25702D01*
X40203Y-25702D01*
X40259Y-25721D01*
X40484Y-25946D01*
X40484Y-25702D01*
X40222Y-25571D02*
X40484Y-25477D01*
X40222Y-25383D01*
X49124Y-25655D02*
X49180Y-25674D01*
X49199Y-25692D01*
X49217Y-25730D01*
X49217Y-25786D01*
X49199Y-25824D01*
X49180Y-25842D01*
X49142Y-25861D01*
X48992Y-25861D01*
X48992Y-25468D01*
X49124Y-25468D01*
X49161Y-25486D01*
X49180Y-25505D01*
X49199Y-25543D01*
X49199Y-25580D01*
X49180Y-25617D01*
X49161Y-25636D01*
X49124Y-25655D01*
X48992Y-25655D01*
X48233Y-25822D02*
X48102Y-25634D01*
X48008Y-25822D02*
X48008Y-25428D01*
X48158Y-25428D01*
X48196Y-25447D01*
X48214Y-25466D01*
X48233Y-25503D01*
X48233Y-25559D01*
X48214Y-25597D01*
X48196Y-25616D01*
X48158Y-25634D01*
X48008Y-25634D01*
X47230Y-25486D02*
X47193Y-25468D01*
X47136Y-25468D01*
X47080Y-25486D01*
X47043Y-25524D01*
X47024Y-25561D01*
X47005Y-25636D01*
X47005Y-25692D01*
X47024Y-25767D01*
X47043Y-25805D01*
X47080Y-25842D01*
X47136Y-25861D01*
X47174Y-25861D01*
X47230Y-25842D01*
X47249Y-25824D01*
X47249Y-25692D01*
X47174Y-25692D01*
X46034Y-26770D02*
X46034Y-26471D01*
X46184Y-26620D02*
X45884Y-26620D01*
X46184Y-26077D02*
X46184Y-26302D01*
X46184Y-26189D02*
X45790Y-26189D01*
X45847Y-26227D01*
X45884Y-26264D01*
X45903Y-26302D01*
X45828Y-25927D02*
X45809Y-25908D01*
X45790Y-25871D01*
X45790Y-25777D01*
X45809Y-25739D01*
X45828Y-25721D01*
X45865Y-25702D01*
X45903Y-25702D01*
X45959Y-25721D01*
X46184Y-25946D01*
X46184Y-25702D01*
X45922Y-25571D02*
X46184Y-25477D01*
X45922Y-25383D01*
X61924Y-25655D02*
X61980Y-25674D01*
X61999Y-25692D01*
X62017Y-25730D01*
X62017Y-25786D01*
X61999Y-25824D01*
X61980Y-25842D01*
X61942Y-25861D01*
X61792Y-25861D01*
X61792Y-25468D01*
X61924Y-25468D01*
X61961Y-25486D01*
X61980Y-25505D01*
X61999Y-25543D01*
X61999Y-25580D01*
X61980Y-25617D01*
X61961Y-25636D01*
X61924Y-25655D01*
X61792Y-25655D01*
X61033Y-25822D02*
X60902Y-25634D01*
X60808Y-25822D02*
X60808Y-25428D01*
X60958Y-25428D01*
X60996Y-25447D01*
X61014Y-25466D01*
X61033Y-25503D01*
X61033Y-25559D01*
X61014Y-25597D01*
X60996Y-25616D01*
X60958Y-25634D01*
X60808Y-25634D01*
X60030Y-25486D02*
X59993Y-25468D01*
X59936Y-25468D01*
X59880Y-25486D01*
X59843Y-25524D01*
X59824Y-25561D01*
X59805Y-25636D01*
X59805Y-25692D01*
X59824Y-25767D01*
X59843Y-25805D01*
X59880Y-25842D01*
X59936Y-25861D01*
X59974Y-25861D01*
X60030Y-25842D01*
X60049Y-25824D01*
X60049Y-25692D01*
X59974Y-25692D01*
X58834Y-26770D02*
X58834Y-26471D01*
X58984Y-26620D02*
X58684Y-26620D01*
X58984Y-26077D02*
X58984Y-26302D01*
X58984Y-26189D02*
X58590Y-26189D01*
X58647Y-26227D01*
X58684Y-26264D01*
X58703Y-26302D01*
X58628Y-25927D02*
X58609Y-25908D01*
X58590Y-25871D01*
X58590Y-25777D01*
X58609Y-25739D01*
X58628Y-25721D01*
X58665Y-25702D01*
X58703Y-25702D01*
X58759Y-25721D01*
X58984Y-25946D01*
X58984Y-25702D01*
X58722Y-25571D02*
X58984Y-25477D01*
X58722Y-25383D01*
X68524Y-25655D02*
X68580Y-25674D01*
X68599Y-25692D01*
X68617Y-25730D01*
X68617Y-25786D01*
X68599Y-25824D01*
X68580Y-25842D01*
X68542Y-25861D01*
X68392Y-25861D01*
X68392Y-25468D01*
X68524Y-25468D01*
X68561Y-25486D01*
X68580Y-25505D01*
X68599Y-25543D01*
X68599Y-25580D01*
X68580Y-25617D01*
X68561Y-25636D01*
X68524Y-25655D01*
X68392Y-25655D01*
X67633Y-25822D02*
X67502Y-25634D01*
X67408Y-25822D02*
X67408Y-25428D01*
X67558Y-25428D01*
X67596Y-25447D01*
X67614Y-25466D01*
X67633Y-25503D01*
X67633Y-25559D01*
X67614Y-25597D01*
X67596Y-25616D01*
X67558Y-25634D01*
X67408Y-25634D01*
X66630Y-25486D02*
X66593Y-25468D01*
X66536Y-25468D01*
X66480Y-25486D01*
X66443Y-25524D01*
X66424Y-25561D01*
X66405Y-25636D01*
X66405Y-25692D01*
X66424Y-25767D01*
X66443Y-25805D01*
X66480Y-25842D01*
X66536Y-25861D01*
X66574Y-25861D01*
X66630Y-25842D01*
X66649Y-25824D01*
X66649Y-25692D01*
X66574Y-25692D01*
X65434Y-26770D02*
X65434Y-26471D01*
X65584Y-26620D02*
X65284Y-26620D01*
X65584Y-26077D02*
X65584Y-26302D01*
X65584Y-26189D02*
X65190Y-26189D01*
X65247Y-26227D01*
X65284Y-26264D01*
X65303Y-26302D01*
X65228Y-25927D02*
X65209Y-25908D01*
X65190Y-25871D01*
X65190Y-25777D01*
X65209Y-25739D01*
X65228Y-25721D01*
X65265Y-25702D01*
X65303Y-25702D01*
X65359Y-25721D01*
X65584Y-25946D01*
X65584Y-25702D01*
X65322Y-25571D02*
X65584Y-25477D01*
X65322Y-25383D01*
X80924Y-25855D02*
X80980Y-25874D01*
X80999Y-25892D01*
X81017Y-25930D01*
X81017Y-25986D01*
X80999Y-26024D01*
X80980Y-26042D01*
X80942Y-26061D01*
X80792Y-26061D01*
X80792Y-25668D01*
X80924Y-25668D01*
X80961Y-25686D01*
X80980Y-25705D01*
X80999Y-25743D01*
X80999Y-25780D01*
X80980Y-25817D01*
X80961Y-25836D01*
X80924Y-25855D01*
X80792Y-25855D01*
X80033Y-26022D02*
X79902Y-25834D01*
X79808Y-26022D02*
X79808Y-25628D01*
X79958Y-25628D01*
X79996Y-25647D01*
X80014Y-25666D01*
X80033Y-25703D01*
X80033Y-25759D01*
X80014Y-25797D01*
X79996Y-25816D01*
X79958Y-25834D01*
X79808Y-25834D01*
X79030Y-25686D02*
X78993Y-25668D01*
X78936Y-25668D01*
X78880Y-25686D01*
X78843Y-25724D01*
X78824Y-25761D01*
X78805Y-25836D01*
X78805Y-25892D01*
X78824Y-25967D01*
X78843Y-26005D01*
X78880Y-26042D01*
X78936Y-26061D01*
X78974Y-26061D01*
X79030Y-26042D01*
X79049Y-26024D01*
X79049Y-25892D01*
X78974Y-25892D01*
X77834Y-26970D02*
X77834Y-26671D01*
X77984Y-26820D02*
X77684Y-26820D01*
X77984Y-26277D02*
X77984Y-26502D01*
X77984Y-26389D02*
X77590Y-26389D01*
X77647Y-26427D01*
X77684Y-26464D01*
X77703Y-26502D01*
X77628Y-26127D02*
X77609Y-26108D01*
X77590Y-26071D01*
X77590Y-25977D01*
X77609Y-25939D01*
X77628Y-25921D01*
X77665Y-25902D01*
X77703Y-25902D01*
X77759Y-25921D01*
X77984Y-26146D01*
X77984Y-25902D01*
X77722Y-25771D02*
X77984Y-25677D01*
X77722Y-25583D01*
X87124Y-25855D02*
X87180Y-25874D01*
X87199Y-25892D01*
X87217Y-25930D01*
X87217Y-25986D01*
X87199Y-26024D01*
X87180Y-26042D01*
X87142Y-26061D01*
X86992Y-26061D01*
X86992Y-25668D01*
X87124Y-25668D01*
X87161Y-25686D01*
X87180Y-25705D01*
X87199Y-25743D01*
X87199Y-25780D01*
X87180Y-25817D01*
X87161Y-25836D01*
X87124Y-25855D01*
X86992Y-25855D01*
X86233Y-26022D02*
X86102Y-25834D01*
X86008Y-26022D02*
X86008Y-25628D01*
X86158Y-25628D01*
X86196Y-25647D01*
X86214Y-25666D01*
X86233Y-25703D01*
X86233Y-25759D01*
X86214Y-25797D01*
X86196Y-25816D01*
X86158Y-25834D01*
X86008Y-25834D01*
X85230Y-25686D02*
X85193Y-25668D01*
X85136Y-25668D01*
X85080Y-25686D01*
X85043Y-25724D01*
X85024Y-25761D01*
X85005Y-25836D01*
X85005Y-25892D01*
X85024Y-25967D01*
X85043Y-26005D01*
X85080Y-26042D01*
X85136Y-26061D01*
X85174Y-26061D01*
X85230Y-26042D01*
X85249Y-26024D01*
X85249Y-25892D01*
X85174Y-25892D01*
X84034Y-26970D02*
X84034Y-26671D01*
X84184Y-26820D02*
X83884Y-26820D01*
X84184Y-26277D02*
X84184Y-26502D01*
X84184Y-26389D02*
X83790Y-26389D01*
X83847Y-26427D01*
X83884Y-26464D01*
X83903Y-26502D01*
X83828Y-26127D02*
X83809Y-26108D01*
X83790Y-26071D01*
X83790Y-25977D01*
X83809Y-25939D01*
X83828Y-25921D01*
X83865Y-25902D01*
X83903Y-25902D01*
X83959Y-25921D01*
X84184Y-26146D01*
X84184Y-25902D01*
X83922Y-25771D02*
X84184Y-25677D01*
X83922Y-25583D01*
%LPC*%
G54D25*
X59100Y-46050D03*
G54D26*
X58100Y-46050D03*
X57100Y-46050D03*
X56100Y-46050D03*
X55100Y-46050D03*
X54100Y-46050D03*
X53100Y-46050D03*
X52100Y-46050D03*
X51100Y-46050D03*
X50100Y-46050D03*
X49100Y-46050D03*
X48100Y-46050D03*
X48072Y-47042D03*
X48072Y-48026D03*
X48072Y-50073D03*
X48072Y-51057D03*
X48100Y-52050D03*
X49100Y-52050D03*
X50100Y-52050D03*
X51100Y-52050D03*
X52100Y-52050D03*
X53100Y-52050D03*
X54100Y-52050D03*
X55100Y-52050D03*
X56100Y-52050D03*
X57100Y-52050D03*
X58100Y-52050D03*
X59100Y-52050D03*
G54D27*
X55631Y-51057D03*
X54647Y-51057D03*
G54D28*
X79100Y-58000D03*
G54D29*
X79100Y-57000D03*
X80100Y-58000D03*
X80100Y-57000D03*
X81100Y-58000D03*
X81100Y-57000D03*
G54D27*
X19450Y-52100D03*
X19450Y-51100D03*
G54D30*
X19450Y-50100D03*
G54D31*
X17481Y-51100D03*
G54D32*
X49450Y-35000D03*
X49450Y-32000D03*
X16750Y-35000D03*
X16750Y-32000D03*
X22950Y-35000D03*
X22950Y-32000D03*
X29350Y-35000D03*
X29350Y-32000D03*
X36250Y-35000D03*
X36250Y-32000D03*
X42850Y-35000D03*
X42850Y-32000D03*
X88550Y-35000D03*
X88550Y-32000D03*
X81950Y-35000D03*
X81950Y-32000D03*
X55650Y-35000D03*
X55650Y-32000D03*
X61650Y-35000D03*
X61650Y-32000D03*
X68450Y-35000D03*
X68450Y-32000D03*
G54D33*
X30950Y-35200D03*
X31950Y-35200D03*
X76950Y-35200D03*
X77950Y-35200D03*
X37750Y-35200D03*
X38750Y-35200D03*
X24550Y-35200D03*
X25550Y-35200D03*
X90150Y-35200D03*
X91150Y-35200D03*
X70050Y-35200D03*
X71050Y-35200D03*
X18400Y-35200D03*
X19400Y-35200D03*
X44450Y-35200D03*
X45450Y-35200D03*
X83450Y-35200D03*
X84450Y-35200D03*
X50950Y-35200D03*
X51950Y-35200D03*
X63250Y-35200D03*
X64250Y-35200D03*
X57250Y-35200D03*
X58250Y-35200D03*
G54D34*
X46450Y-27800D03*
G54D32*
X43450Y-27800D03*
G54D34*
X85450Y-27800D03*
G54D32*
X82450Y-27800D03*
G54D34*
X65250Y-27800D03*
G54D32*
X62250Y-27800D03*
G54D34*
X19650Y-27800D03*
G54D32*
X16650Y-27800D03*
G54D34*
X26550Y-27800D03*
G54D32*
X23550Y-27800D03*
G54D34*
X92050Y-27800D03*
G54D32*
X89050Y-27800D03*
G54D34*
X78950Y-27800D03*
G54D32*
X75950Y-27800D03*
G54D34*
X59150Y-27800D03*
G54D32*
X56150Y-27800D03*
G54D34*
X32850Y-27800D03*
G54D32*
X29850Y-27800D03*
G54D34*
X72050Y-27800D03*
G54D32*
X69050Y-27800D03*
G54D34*
X39750Y-27800D03*
G54D32*
X36750Y-27800D03*
G54D34*
X53050Y-27800D03*
G54D32*
X50050Y-27800D03*
G54D27*
X37300Y-30100D03*
X38300Y-30100D03*
G54D30*
X39300Y-30100D03*
G54D27*
X89600Y-30100D03*
X90600Y-30100D03*
G54D30*
X91600Y-30100D03*
G54D27*
X17100Y-30100D03*
X18100Y-30100D03*
G54D30*
X19100Y-30100D03*
G54D27*
X24050Y-30100D03*
X25050Y-30100D03*
G54D30*
X26050Y-30100D03*
G54D27*
X30400Y-30100D03*
X31400Y-30100D03*
G54D30*
X32400Y-30100D03*
G54D27*
X43950Y-30100D03*
X44950Y-30100D03*
G54D30*
X45950Y-30100D03*
G54D27*
X50500Y-30100D03*
X51500Y-30100D03*
G54D30*
X52500Y-30100D03*
G54D27*
X56700Y-30100D03*
X57700Y-30100D03*
G54D30*
X58700Y-30100D03*
G54D27*
X62750Y-30100D03*
X63750Y-30100D03*
G54D30*
X64750Y-30100D03*
G54D27*
X69550Y-30100D03*
X70550Y-30100D03*
G54D30*
X71550Y-30100D03*
G54D27*
X76450Y-30100D03*
X77450Y-30100D03*
G54D30*
X78450Y-30100D03*
G54D27*
X83000Y-30100D03*
X84000Y-30100D03*
G54D30*
X85000Y-30100D03*
G54D35*
X92050Y-53000D03*
G54D36*
X92050Y-51000D03*
X92050Y-49000D03*
G54D37*
X24515Y-53787D03*
X27468Y-53787D03*
X30421Y-53787D03*
X25500Y-52803D03*
X29437Y-52803D03*
X25598Y-57527D03*
X29535Y-57527D03*
G54D32*
X27350Y-48300D03*
X27350Y-51300D03*
X24450Y-48300D03*
X24450Y-51300D03*
X60750Y-56550D03*
X57750Y-56550D03*
X57750Y-57500D03*
X60750Y-57500D03*
X57750Y-58550D03*
X60750Y-58550D03*
G54D34*
X72452Y-52250D03*
G54D32*
X72452Y-51250D03*
X72452Y-50250D03*
X72452Y-49250D03*
X72452Y-48250D03*
X72452Y-47250D03*
X72452Y-46250D03*
X72452Y-45250D03*
X66500Y-45250D03*
X66500Y-46250D03*
X66500Y-47250D03*
X66500Y-48250D03*
X66500Y-49250D03*
X66500Y-50250D03*
X66500Y-51250D03*
X66500Y-52250D03*
G54D34*
X21250Y-52850D03*
G54D32*
X22250Y-52850D03*
G54D34*
X21600Y-47900D03*
G54D32*
X22600Y-47900D03*
G54D28*
X23100Y-45200D03*
G54D29*
X23100Y-46200D03*
G54D28*
X21600Y-45200D03*
G54D29*
X21600Y-46200D03*
G54D38*
X88515Y-37926D03*
X90877Y-37926D03*
X88515Y-39698D03*
X90877Y-39698D03*
X43015Y-37676D03*
X45377Y-37676D03*
X43015Y-39448D03*
X45377Y-39448D03*
X82015Y-37926D03*
X84377Y-37926D03*
X82015Y-39698D03*
X84377Y-39698D03*
X49765Y-37676D03*
X52127Y-37676D03*
X49765Y-39448D03*
X52127Y-39448D03*
X36465Y-37676D03*
X38827Y-37676D03*
X36465Y-39448D03*
X38827Y-39448D03*
X75515Y-37926D03*
X77877Y-37926D03*
X75515Y-39698D03*
X77877Y-39698D03*
X55765Y-37676D03*
X58127Y-37676D03*
X55765Y-39448D03*
X58127Y-39448D03*
X29465Y-37826D03*
X31827Y-37826D03*
X29465Y-39598D03*
X31827Y-39598D03*
X23115Y-37826D03*
X25477Y-37826D03*
X23115Y-39598D03*
X25477Y-39598D03*
X68765Y-37926D03*
X71127Y-37926D03*
X68765Y-39698D03*
X71127Y-39698D03*
X62015Y-37926D03*
X64377Y-37926D03*
X62015Y-39698D03*
X64377Y-39698D03*
X17615Y-37826D03*
X19977Y-37826D03*
X17615Y-39598D03*
X19977Y-39598D03*
G54D32*
X85300Y-52800D03*
X85300Y-49800D03*
X84350Y-49800D03*
X84350Y-52800D03*
X75450Y-44850D03*
X78450Y-44850D03*
X75150Y-48000D03*
X75150Y-51000D03*
X81500Y-45850D03*
X78500Y-45850D03*
X89350Y-45950D03*
X86350Y-45950D03*
X86350Y-46900D03*
X89350Y-46900D03*
G54D39*
X81500Y-51500D03*
G54D40*
X81500Y-50500D03*
X81500Y-49500D03*
X81500Y-48500D03*
X78500Y-48500D03*
X78500Y-49500D03*
X78500Y-50500D03*
X78500Y-51500D03*
G54D32*
X77700Y-52800D03*
X77700Y-53800D03*
X55000Y-54600D03*
X55000Y-55600D03*
X56150Y-54600D03*
X56150Y-55600D03*
X66450Y-54050D03*
X67450Y-54050D03*
G54D34*
X87350Y-44250D03*
G54D32*
X88350Y-44250D03*
G54D34*
X62700Y-54350D03*
G54D32*
X62700Y-55350D03*
X63700Y-55350D03*
X85900Y-54000D03*
X82900Y-54000D03*
X89050Y-58050D03*
X86050Y-58050D03*
G54D28*
X82900Y-58000D03*
G54D29*
X82900Y-57000D03*
X83900Y-58000D03*
X83900Y-57000D03*
X84900Y-58000D03*
X84900Y-57000D03*
G54D34*
X63250Y-57200D03*
G54D32*
X63250Y-58200D03*
G54D34*
X65500Y-56550D03*
G54D32*
X65500Y-57550D03*
G54D34*
X73450Y-44900D03*
G54D32*
X74450Y-44900D03*
G54D34*
X86550Y-56000D03*
G54D32*
X86550Y-55000D03*
G54D41*
X53550Y-32750D03*
X17950Y-56950D03*
X91000Y-56950D03*
G54D42*
X88092Y-51300D03*
G54D43*
X87107Y-51300D03*
G54D42*
X74900Y-52757D03*
G54D43*
X74900Y-53742D03*
G54D44*
X81300Y-55500D03*
X81800Y-55500D03*
X82300Y-55500D03*
G54D45*
X74200Y-47500D03*
X74200Y-48000D03*
X74200Y-48500D03*
G54D34*
X58300Y-41700D03*
G54D32*
X57300Y-41700D03*
X56300Y-41700D03*
X55300Y-41700D03*
X54300Y-41700D03*
X53300Y-41700D03*
X52300Y-41700D03*
X51300Y-41700D03*
X51300Y-44700D03*
X52300Y-44700D03*
X53300Y-44700D03*
X54300Y-44700D03*
X55300Y-44700D03*
X56300Y-44700D03*
X57300Y-44700D03*
X58300Y-44700D03*
G54D34*
X41700Y-42900D03*
G54D32*
X41700Y-43900D03*
X41700Y-44900D03*
X41700Y-45900D03*
X41700Y-46900D03*
X41700Y-47900D03*
X41700Y-48900D03*
X41700Y-49900D03*
X44700Y-49900D03*
X44700Y-48900D03*
X44700Y-47900D03*
X44700Y-46900D03*
X44700Y-45900D03*
X44700Y-44900D03*
X44700Y-43900D03*
X44700Y-42900D03*
G54D34*
X52750Y-53500D03*
G54D32*
X52750Y-54500D03*
X52750Y-55500D03*
X52750Y-56500D03*
X52750Y-57500D03*
X52750Y-58500D03*
X75400Y-34900D03*
X75400Y-31900D03*
G54D46*
X23400Y-24800D03*
X22400Y-24800D03*
X21400Y-24800D03*
G54D47*
X20400Y-24800D03*
G54D46*
X29300Y-24800D03*
X28300Y-24800D03*
X27300Y-24800D03*
G54D47*
X26300Y-24800D03*
G54D46*
X43400Y-24600D03*
X42400Y-24600D03*
X41400Y-24600D03*
G54D47*
X40400Y-24600D03*
G54D46*
X49100Y-24600D03*
X48100Y-24600D03*
X47100Y-24600D03*
G54D47*
X46100Y-24600D03*
G54D46*
X61900Y-24600D03*
X60900Y-24600D03*
X59900Y-24600D03*
G54D47*
X58900Y-24600D03*
G54D46*
X68500Y-24600D03*
X67500Y-24600D03*
X66500Y-24600D03*
G54D47*
X65500Y-24600D03*
G54D46*
X80900Y-24800D03*
X79900Y-24800D03*
X78900Y-24800D03*
G54D47*
X77900Y-24800D03*
G54D46*
X87100Y-24800D03*
X86100Y-24800D03*
X85100Y-24800D03*
G54D47*
X84100Y-24800D03*
M02*
