G04 (created by PCBNEW (2013-07-07 BZR 4022)-stable) date 26/01/2015 11:31:22*
%MOIN*%
G04 Gerber Fmt 3.4, Leading zero omitted, Abs format*
%FSLAX34Y34*%
G01*
G70*
G90*
G04 APERTURE LIST*
%ADD10C,0.00590551*%
%ADD11R,0.055X0.055*%
%ADD12C,0.055*%
%ADD13C,0.0787402*%
%ADD14R,0.06X0.12*%
%ADD15O,0.06X0.13*%
%ADD16O,0.06X0.12*%
%ADD17R,0.065X0.065*%
%ADD18C,0.065*%
%ADD19C,0.07*%
%ADD20R,0.07X0.07*%
%ADD21R,0.12X0.12*%
%ADD22C,0.066*%
%ADD23R,0.06X0.06*%
%ADD24C,0.06*%
%ADD25R,0.0393701X0.0393701*%
%ADD26C,0.0472441*%
%ADD27C,0.137795*%
%ADD28R,0.09X0.062*%
%ADD29O,0.09X0.062*%
%ADD30R,0.1X0.0590551*%
G04 APERTURE END LIST*
G54D10*
G54D11*
X83900Y-47100D03*
G54D12*
X84900Y-47100D03*
G54D13*
X62015Y-36076D03*
X64377Y-36076D03*
X62015Y-37848D03*
X64377Y-37848D03*
G54D14*
X79500Y-42600D03*
X80500Y-42600D03*
G54D15*
X81500Y-42600D03*
G54D16*
X24471Y-51082D03*
X25971Y-50082D03*
G54D14*
X29071Y-51082D03*
X27571Y-50082D03*
G54D17*
X45279Y-47295D03*
G54D18*
X44279Y-47295D03*
X43279Y-47295D03*
X42279Y-47295D03*
X41279Y-47295D03*
X40279Y-47295D03*
X39279Y-47295D03*
X38279Y-47295D03*
X37279Y-47295D03*
X36279Y-47295D03*
X35279Y-47295D03*
X34279Y-47295D03*
X34251Y-48287D03*
X34251Y-49271D03*
X34251Y-51318D03*
X34251Y-52303D03*
X34279Y-53295D03*
X35279Y-53295D03*
X36279Y-53295D03*
X37279Y-53295D03*
X38279Y-53295D03*
X39279Y-53295D03*
X40279Y-53295D03*
X41279Y-53295D03*
X42279Y-53295D03*
X43279Y-53295D03*
X44279Y-53295D03*
X45279Y-53295D03*
G54D19*
X41811Y-52303D03*
X40826Y-52303D03*
X19450Y-52100D03*
X19450Y-51100D03*
G54D20*
X19450Y-50100D03*
G54D21*
X17481Y-51100D03*
G54D12*
X49450Y-35000D03*
X49450Y-32000D03*
X16750Y-35000D03*
X16750Y-32000D03*
X22950Y-35000D03*
X22950Y-32000D03*
X29350Y-35000D03*
X29350Y-32000D03*
X36250Y-35000D03*
X36250Y-32000D03*
X42850Y-35000D03*
X42850Y-32000D03*
X88550Y-35000D03*
X88550Y-32000D03*
X81950Y-35000D03*
X81950Y-32000D03*
X55650Y-35000D03*
X55650Y-32000D03*
X61650Y-35000D03*
X61650Y-32000D03*
X68450Y-35000D03*
X68450Y-32000D03*
G54D22*
X30950Y-35200D03*
X31950Y-35200D03*
X37750Y-35200D03*
X38750Y-35200D03*
X24550Y-35200D03*
X25550Y-35200D03*
X90150Y-35200D03*
X91150Y-35200D03*
X70000Y-33800D03*
X71000Y-33800D03*
X18400Y-35200D03*
X19400Y-35200D03*
X44450Y-35200D03*
X45450Y-35200D03*
X83450Y-35200D03*
X84450Y-35200D03*
X50950Y-35200D03*
X51950Y-35200D03*
X63000Y-33600D03*
X64000Y-33600D03*
X57250Y-35200D03*
X58250Y-35200D03*
G54D11*
X46450Y-27800D03*
G54D12*
X43450Y-27800D03*
G54D11*
X85450Y-27800D03*
G54D12*
X82450Y-27800D03*
G54D11*
X65250Y-27800D03*
G54D12*
X62250Y-27800D03*
G54D11*
X19650Y-27800D03*
G54D12*
X16650Y-27800D03*
G54D11*
X26550Y-27800D03*
G54D12*
X23550Y-27800D03*
G54D11*
X92050Y-27800D03*
G54D12*
X89050Y-27800D03*
G54D11*
X78950Y-27800D03*
G54D12*
X75950Y-27800D03*
G54D11*
X59150Y-27800D03*
G54D12*
X56150Y-27800D03*
G54D11*
X32850Y-27800D03*
G54D12*
X29850Y-27800D03*
G54D11*
X72050Y-27800D03*
G54D12*
X69050Y-27800D03*
G54D11*
X39750Y-27800D03*
G54D12*
X36750Y-27800D03*
G54D11*
X53050Y-27800D03*
G54D12*
X50050Y-27800D03*
G54D19*
X37300Y-30100D03*
X38300Y-30100D03*
G54D20*
X39300Y-30100D03*
G54D19*
X89600Y-30100D03*
X90600Y-30100D03*
G54D20*
X91600Y-30100D03*
G54D19*
X17100Y-30100D03*
X18100Y-30100D03*
G54D20*
X19100Y-30100D03*
G54D19*
X24050Y-30100D03*
X25050Y-30100D03*
G54D20*
X26050Y-30100D03*
G54D19*
X30400Y-30100D03*
X31400Y-30100D03*
G54D20*
X32400Y-30100D03*
G54D19*
X43950Y-30100D03*
X44950Y-30100D03*
G54D20*
X45950Y-30100D03*
G54D19*
X50500Y-30100D03*
X51500Y-30100D03*
G54D20*
X52500Y-30100D03*
G54D19*
X56700Y-30100D03*
X57700Y-30100D03*
G54D20*
X58700Y-30100D03*
G54D19*
X62750Y-30100D03*
X63750Y-30100D03*
G54D20*
X64750Y-30100D03*
G54D19*
X69550Y-30100D03*
X70550Y-30100D03*
G54D20*
X71550Y-30100D03*
G54D19*
X76450Y-30100D03*
X77450Y-30100D03*
G54D20*
X78450Y-30100D03*
G54D19*
X83000Y-30100D03*
X84000Y-30100D03*
G54D20*
X85000Y-30100D03*
G54D11*
X21600Y-50100D03*
G54D12*
X22600Y-50100D03*
G54D11*
X21600Y-47900D03*
G54D12*
X22600Y-47900D03*
G54D23*
X21600Y-45200D03*
G54D24*
X21600Y-46200D03*
G54D13*
X88515Y-37926D03*
X90877Y-37926D03*
X88515Y-39698D03*
X90877Y-39698D03*
X43015Y-37676D03*
X45377Y-37676D03*
X43015Y-39448D03*
X45377Y-39448D03*
X82015Y-37926D03*
X84377Y-37926D03*
X82015Y-39698D03*
X84377Y-39698D03*
X49765Y-37676D03*
X52127Y-37676D03*
X49765Y-39448D03*
X52127Y-39448D03*
X36465Y-37676D03*
X38827Y-37676D03*
X36465Y-39448D03*
X38827Y-39448D03*
X75415Y-36076D03*
X77777Y-36076D03*
X75415Y-37848D03*
X77777Y-37848D03*
X55765Y-37676D03*
X58127Y-37676D03*
X55765Y-39448D03*
X58127Y-39448D03*
X29465Y-37826D03*
X31827Y-37826D03*
X29465Y-39598D03*
X31827Y-39598D03*
X23115Y-37826D03*
X25477Y-37826D03*
X23115Y-39598D03*
X25477Y-39598D03*
X68715Y-36076D03*
X71077Y-36076D03*
X68715Y-37848D03*
X71077Y-37848D03*
X17615Y-37826D03*
X19977Y-37826D03*
X17615Y-39598D03*
X19977Y-39598D03*
G54D12*
X88976Y-48039D03*
X88976Y-47039D03*
G54D11*
X51665Y-57480D03*
G54D12*
X52665Y-57480D03*
G54D25*
X90748Y-46062D03*
G54D26*
X91732Y-46062D03*
G54D25*
X90748Y-49311D03*
G54D26*
X91732Y-49311D03*
G54D12*
X75400Y-34900D03*
X75400Y-31900D03*
G54D16*
X23400Y-24800D03*
X22400Y-24800D03*
X21400Y-24800D03*
G54D14*
X20400Y-24800D03*
G54D16*
X29300Y-24800D03*
X28300Y-24800D03*
X27300Y-24800D03*
G54D14*
X26300Y-24800D03*
G54D16*
X43400Y-24600D03*
X42400Y-24600D03*
X41400Y-24600D03*
G54D14*
X40400Y-24600D03*
G54D16*
X49100Y-24600D03*
X48100Y-24600D03*
X47100Y-24600D03*
G54D14*
X46100Y-24600D03*
G54D16*
X61900Y-24600D03*
X60900Y-24600D03*
X59900Y-24600D03*
G54D14*
X58900Y-24600D03*
G54D16*
X68500Y-24600D03*
X67500Y-24600D03*
X66500Y-24600D03*
G54D14*
X65500Y-24600D03*
G54D16*
X80900Y-24800D03*
X79900Y-24800D03*
X78900Y-24800D03*
G54D14*
X77900Y-24800D03*
G54D16*
X87100Y-24800D03*
X86100Y-24800D03*
X85100Y-24800D03*
G54D14*
X84100Y-24800D03*
G54D11*
X46807Y-42102D03*
G54D12*
X45807Y-42102D03*
X44807Y-42102D03*
X43807Y-42102D03*
X42807Y-42102D03*
X41807Y-42102D03*
X40807Y-42102D03*
X39807Y-42102D03*
X39807Y-45102D03*
X40807Y-45102D03*
X41807Y-45102D03*
X42807Y-45102D03*
X43807Y-45102D03*
X44807Y-45102D03*
X45807Y-45102D03*
X46807Y-45102D03*
G54D11*
X37358Y-42102D03*
G54D12*
X36358Y-42102D03*
X35358Y-42102D03*
X34358Y-42102D03*
X33358Y-42102D03*
X32358Y-42102D03*
X31358Y-42102D03*
X30358Y-42102D03*
X30358Y-45102D03*
X31358Y-45102D03*
X32358Y-45102D03*
X33358Y-45102D03*
X34358Y-45102D03*
X35358Y-45102D03*
X36358Y-45102D03*
X37358Y-45102D03*
G54D13*
X59876Y-53384D03*
X59876Y-51022D03*
X61648Y-53384D03*
X61648Y-51022D03*
X56676Y-53384D03*
X56676Y-51022D03*
X58448Y-53384D03*
X58448Y-51022D03*
X53276Y-53384D03*
X53276Y-51022D03*
X55048Y-53384D03*
X55048Y-51022D03*
G54D11*
X22086Y-51610D03*
G54D12*
X22086Y-54610D03*
G54D23*
X27007Y-43885D03*
G54D24*
X27007Y-42885D03*
G54D11*
X48220Y-50984D03*
G54D12*
X49220Y-50984D03*
G54D11*
X48220Y-53051D03*
G54D12*
X49220Y-53051D03*
G54D22*
X76900Y-33800D03*
X77900Y-33800D03*
G54D27*
X90962Y-57492D03*
X18000Y-57393D03*
X91750Y-25750D03*
X18000Y-25750D03*
G54D11*
X36377Y-56692D03*
G54D12*
X37377Y-56692D03*
X38377Y-56692D03*
X39377Y-56692D03*
X40377Y-56692D03*
X41377Y-56692D03*
X40377Y-55216D03*
X37377Y-55216D03*
G54D28*
X78800Y-54100D03*
G54D29*
X78800Y-55100D03*
X78800Y-56100D03*
X78800Y-57100D03*
X81800Y-57100D03*
X81800Y-56100D03*
X81800Y-55100D03*
X81800Y-54100D03*
G54D25*
X87992Y-50200D03*
G54D26*
X87007Y-50200D03*
G54D12*
X77300Y-55000D03*
X76300Y-55000D03*
X85600Y-56800D03*
X84600Y-56800D03*
X84600Y-57900D03*
X85600Y-57900D03*
X76400Y-56200D03*
X77400Y-56200D03*
G54D25*
X76507Y-45500D03*
G54D26*
X77492Y-45500D03*
G54D12*
X24409Y-46940D03*
X24409Y-47940D03*
X27362Y-46940D03*
X27362Y-47940D03*
X45472Y-56192D03*
X45472Y-57192D03*
X44291Y-57291D03*
X44291Y-56291D03*
X43307Y-56192D03*
X43307Y-57192D03*
G54D14*
X78200Y-42600D03*
G54D16*
X77200Y-42600D03*
G54D15*
X76200Y-42600D03*
G54D30*
X74600Y-57800D03*
X74600Y-56800D03*
X74600Y-55800D03*
X74600Y-54800D03*
X74600Y-53800D03*
X74600Y-52800D03*
X74600Y-51800D03*
X74600Y-50800D03*
X74600Y-49800D03*
X74600Y-48800D03*
X74600Y-47800D03*
X74600Y-46800D03*
X74600Y-45800D03*
X74600Y-44800D03*
X74600Y-43800D03*
X74600Y-42800D03*
X65600Y-42800D03*
X65600Y-43800D03*
X65600Y-44800D03*
X65600Y-45800D03*
X65600Y-46800D03*
X65600Y-47800D03*
X65600Y-48800D03*
X65600Y-49800D03*
X65600Y-50800D03*
X65600Y-51800D03*
X65600Y-52800D03*
X65600Y-53800D03*
X65600Y-54800D03*
X65600Y-55800D03*
X65600Y-56800D03*
X65600Y-57800D03*
G54D12*
X61700Y-55600D03*
X61700Y-54600D03*
X58400Y-55600D03*
X58400Y-54600D03*
X55100Y-55600D03*
X55100Y-54600D03*
X83300Y-54200D03*
X84300Y-54200D03*
X84100Y-55400D03*
X83100Y-55400D03*
G54D11*
X52000Y-48900D03*
G54D12*
X53000Y-48900D03*
X54000Y-48900D03*
X55000Y-48900D03*
X56000Y-48900D03*
X57000Y-48900D03*
X58000Y-48900D03*
X59000Y-48900D03*
X60000Y-48900D03*
X61000Y-48900D03*
X62000Y-48900D03*
X63000Y-48900D03*
X63027Y-47907D03*
X63027Y-46923D03*
X63027Y-44876D03*
X63027Y-43892D03*
X63000Y-42900D03*
X62000Y-42900D03*
X61000Y-42900D03*
X60000Y-42900D03*
X59000Y-42900D03*
X58000Y-42900D03*
X57000Y-42900D03*
X56000Y-42900D03*
X55000Y-42900D03*
X54000Y-42900D03*
X53000Y-42900D03*
X52000Y-42900D03*
G54D19*
X55468Y-43892D03*
X56452Y-43892D03*
G54D23*
X60400Y-57300D03*
G54D24*
X61400Y-57300D03*
X62400Y-57300D03*
G54D23*
X48600Y-47300D03*
G54D24*
X48600Y-46300D03*
X48600Y-45300D03*
G54D12*
X76500Y-52900D03*
X78500Y-52900D03*
X77500Y-50900D03*
X80100Y-52900D03*
X82100Y-52900D03*
X81100Y-50900D03*
X85300Y-42100D03*
X83300Y-42100D03*
X84300Y-44100D03*
X86453Y-52753D03*
X85746Y-52046D03*
X82600Y-45200D03*
X83600Y-45200D03*
G54D28*
X79200Y-46300D03*
G54D29*
X79200Y-47300D03*
X79200Y-48300D03*
X79200Y-49300D03*
X82200Y-49300D03*
X82200Y-48300D03*
X82200Y-47300D03*
X82200Y-46300D03*
G54D11*
X83400Y-50000D03*
G54D12*
X84400Y-50000D03*
X84800Y-51800D03*
X83800Y-51800D03*
G54D23*
X77600Y-49300D03*
G54D24*
X77600Y-48300D03*
M02*
