M48
INCH,TZ
T1C0.025
T2C0.031
T3C0.032
T4C0.040
T5C0.047
T6C0.060
T7C0.100
T8C0.138
%
G90
G05
T1
X21142Y-51614
X21350Y-27900
X21350Y-40000
X21550Y-38700
X21550Y-43500
X28307Y-50591
X29000Y-51100
X29900Y-51100
X43701Y-43780
X45600Y-46500
X45600Y-48300
X47800Y-45400
X54200Y-50400
X56102Y-54606
X56700Y-49400
X58583Y-41339
X59173Y-54567
X60512Y-55079
X61500Y-49600
X62500Y-50600
X62800Y-41900
X63898Y-47008
X63898Y-51693
X73189Y-48071
X73465Y-45394
X73937Y-48268
X73937Y-49409
X74370Y-45866
X88228Y-48583
T2
X87108Y-51300
X87382Y-46063
X88092Y-51300
X88366Y-46063
T3
X16650Y-27800
X16750Y-32000
X16750Y-35000
X18400Y-35200
X19400Y-35200
X19650Y-27800
X21600Y-47900
X21600Y-50100
X22087Y-51610
X22087Y-54610
X22600Y-47900
X22600Y-50100
X22950Y-32000
X22950Y-35000
X23550Y-27800
X24450Y-48300
X24450Y-51300
X24550Y-35200
X25550Y-35200
X26550Y-27800
X27350Y-48300
X27350Y-51300
X29350Y-32000
X29350Y-35000
X29850Y-27800
X30950Y-35200
X31950Y-35200
X32850Y-27800
X36250Y-32000
X36250Y-35000
X36750Y-27800
X37750Y-35200
X38750Y-35200
X39750Y-27800
X41700Y-42900
X41700Y-43900
X41700Y-44900
X41700Y-45900
X41700Y-46900
X41700Y-47900
X41700Y-48900
X41700Y-49900
X42850Y-32000
X42850Y-35000
X43450Y-27800
X44450Y-35200
X44700Y-42900
X44700Y-43900
X44700Y-44900
X44700Y-45900
X44700Y-46900
X44700Y-47900
X44700Y-48900
X44700Y-49900
X45450Y-35200
X46450Y-27800
X48626Y-41295
X48626Y-44295
X49450Y-32000
X49450Y-35000
X49626Y-41295
X49626Y-44295
X50050Y-27800
X50626Y-41295
X50626Y-44295
X50750Y-53500
X50750Y-54500
X50750Y-55500
X50750Y-56500
X50750Y-57500
X50750Y-58500
X50950Y-35200
X51626Y-41295
X51626Y-44295
X51950Y-35200
X52626Y-41295
X52626Y-44295
X53050Y-27800
X53626Y-41295
X53626Y-44295
X54626Y-41295
X54626Y-44295
X55000Y-54600
X55000Y-55600
X55626Y-41295
X55626Y-44295
X55650Y-32000
X55650Y-35000
X56150Y-27800
X57250Y-35200
X57638Y-54579
X57638Y-55579
X57750Y-56550
X57750Y-57500
X57750Y-58550
X58250Y-35200
X59150Y-27800
X60750Y-56550
X60750Y-57500
X60750Y-58550
X61650Y-32000
X61650Y-35000
X62250Y-27800
X62700Y-54350
X62700Y-55350
X63250Y-35200
X63250Y-57200
X63250Y-58200
X63700Y-55350
X64250Y-35200
X65250Y-27800
X65500Y-56550
X65500Y-57550
X66450Y-54050
X66500Y-45250
X66500Y-46250
X66500Y-47250
X66500Y-48250
X66500Y-49250
X66500Y-50250
X66500Y-51250
X66500Y-52250
X67450Y-54050
X68450Y-32000
X68450Y-35000
X69050Y-27800
X70050Y-35200
X71050Y-35200
X72050Y-27800
X72453Y-45250
X72453Y-46250
X72453Y-47250
X72453Y-48250
X72453Y-49250
X72453Y-50250
X72453Y-51250
X72453Y-52250
X75400Y-31900
X75400Y-34900
X75950Y-27800
X76950Y-35200
X77950Y-35200
X78950Y-27800
X81950Y-32000
X81950Y-35000
X82450Y-27800
X83450Y-35200
X84450Y-35200
X85450Y-27800
X87374Y-42402
X88374Y-42402
X88550Y-32000
X88550Y-35000
X89050Y-27800
X90150Y-35200
X91150Y-35200
X92050Y-27800
T4
X17100Y-30100
X18100Y-30100
X19100Y-30100
X19450Y-50100
X19450Y-51100
X19450Y-52100
X20400Y-24800
X21400Y-24800
X21600Y-45200
X21600Y-46200
X22400Y-24800
X23400Y-24800
X24050Y-30100
X25050Y-30100
X26050Y-30100
X26300Y-24800
X27008Y-42886
X27008Y-43886
X27300Y-24800
X28300Y-24800
X29300Y-24800
X30400Y-30100
X31400Y-30100
X32400Y-30100
X37300Y-30100
X38300Y-30100
X39300Y-30100
X40400Y-24600
X41400Y-24600
X42400Y-24600
X43400Y-24600
X43950Y-30100
X44950Y-30100
X45950Y-30100
X46100Y-24600
X47100Y-24600
X48072Y-47042
X48072Y-48026
X48072Y-50074
X48072Y-51058
X48100Y-24600
X48100Y-46050
X48100Y-52050
X49100Y-24600
X49100Y-46050
X49100Y-52050
X50100Y-46050
X50100Y-52050
X50500Y-30100
X51100Y-46050
X51100Y-52050
X51500Y-30100
X52000Y-54500
X52100Y-46050
X52100Y-52050
X52500Y-30100
X53000Y-54500
X53100Y-46050
X53100Y-52050
X54100Y-46050
X54100Y-52050
X54647Y-51058
X55100Y-46050
X55100Y-52050
X55631Y-51058
X56100Y-46050
X56100Y-52050
X56700Y-30100
X57100Y-46050
X57100Y-52050
X57700Y-30100
X58100Y-46050
X58100Y-52050
X58700Y-30100
X58900Y-24600
X59100Y-46050
X59100Y-52050
X59900Y-24600
X60900Y-24600
X61900Y-24600
X62750Y-30100
X63750Y-30100
X64750Y-30100
X65500Y-24600
X66500Y-24600
X67008Y-42059
X67008Y-43059
X67500Y-24600
X68500Y-24600
X69550Y-30100
X70550Y-30100
X71550Y-30100
X74843Y-42031
X74843Y-43031
X74843Y-44031
X76450Y-30100
X77450Y-30100
X77900Y-24800
X78450Y-30100
X78900Y-24800
X79500Y-42250
X79900Y-24800
X80500Y-42250
X80900Y-24800
X81500Y-42250
X83000Y-30100
X84000Y-30100
X84100Y-24800
X85000Y-30100
X85100Y-24800
X86100Y-24800
X87100Y-24800
X89600Y-30100
X90600Y-30100
X91600Y-30100
T5
X17616Y-37826
X17616Y-39598
X19978Y-37826
X19978Y-39598
X23116Y-37826
X23116Y-39598
X25478Y-37826
X25478Y-39598
X29466Y-37826
X29466Y-39598
X31828Y-37826
X31828Y-39598
X36466Y-37676
X36466Y-39448
X38828Y-37676
X38828Y-39448
X43016Y-37676
X43016Y-39448
X45378Y-37676
X45378Y-39448
X49766Y-37676
X49766Y-39448
X52128Y-37676
X52128Y-39448
X55766Y-37676
X55766Y-39448
X58128Y-37676
X58128Y-39448
X62016Y-37926
X62016Y-39698
X64378Y-37926
X64378Y-39698
X68766Y-37926
X68766Y-39698
X71128Y-37926
X71128Y-39698
X75516Y-37926
X75516Y-39698
X76516Y-46226
X76516Y-47998
X76516Y-49476
X76516Y-51248
X76516Y-52726
X76516Y-54498
X77878Y-37926
X77878Y-39698
X78878Y-46226
X78878Y-47998
X78878Y-49476
X78878Y-51248
X78878Y-52726
X78878Y-54498
X82016Y-37926
X82016Y-39698
X84378Y-37926
X84378Y-39698
X88516Y-37926
X88516Y-39698
X90878Y-37926
X90878Y-39698
T6
X24516Y-53787
X25500Y-52803
X25598Y-57528
X27469Y-53787
X29437Y-52803
X29535Y-57528
X30421Y-53787
X92050Y-49000
X92050Y-51000
X92050Y-53000
T7
X17481Y-51100
T8
X18000Y-25750
X18000Y-57000
X91750Y-25750
X91750Y-57000
T0
M30
