G04 (created by PCBNEW (2013-07-07 BZR 4022)-stable) date 11/09/2014 13:11:16*
%MOIN*%
G04 Gerber Fmt 3.4, Leading zero omitted, Abs format*
%FSLAX34Y34*%
G01*
G70*
G90*
G04 APERTURE LIST*
%ADD10C,0.00590551*%
%ADD11C,0.011811*%
%ADD12R,0.055X0.055*%
%ADD13C,0.055*%
%ADD14R,0.065X0.065*%
%ADD15C,0.065*%
%ADD16C,0.07*%
%ADD17R,0.07X0.07*%
%ADD18R,0.12X0.12*%
%ADD19C,0.066*%
%ADD20R,0.1X0.1*%
%ADD21C,0.1*%
%ADD22C,0.095*%
%ADD23R,0.06X0.06*%
%ADD24C,0.06*%
%ADD25C,0.0787402*%
%ADD26R,0.0393701X0.0393701*%
%ADD27C,0.0472441*%
%ADD28O,0.06X0.12*%
%ADD29R,0.06X0.12*%
%ADD30C,0.137795*%
%ADD31C,0.035*%
%ADD32C,0.03*%
%ADD33C,0.02*%
%ADD34C,0.05*%
%ADD35C,0.04*%
%ADD36C,0.015*%
%ADD37C,0.025*%
%ADD38C,0.01*%
%ADD39C,0.027*%
%ADD40C,0.012*%
G04 APERTURE END LIST*
G54D10*
G54D11*
X89609Y-31347D02*
X89693Y-31375D01*
X89721Y-31403D01*
X89749Y-31459D01*
X89749Y-31543D01*
X89721Y-31600D01*
X89693Y-31628D01*
X89637Y-31656D01*
X89412Y-31656D01*
X89412Y-31065D01*
X89609Y-31065D01*
X89665Y-31093D01*
X89693Y-31122D01*
X89721Y-31178D01*
X89721Y-31234D01*
X89693Y-31290D01*
X89665Y-31318D01*
X89609Y-31347D01*
X89412Y-31347D01*
X85773Y-31695D02*
X85576Y-31414D01*
X85435Y-31695D02*
X85435Y-31105D01*
X85660Y-31105D01*
X85717Y-31133D01*
X85745Y-31161D01*
X85773Y-31217D01*
X85773Y-31302D01*
X85745Y-31358D01*
X85717Y-31386D01*
X85660Y-31414D01*
X85435Y-31414D01*
X79170Y-31172D02*
X79114Y-31144D01*
X79029Y-31144D01*
X78945Y-31172D01*
X78889Y-31228D01*
X78861Y-31285D01*
X78832Y-31397D01*
X78832Y-31482D01*
X78861Y-31594D01*
X78889Y-31650D01*
X78945Y-31706D01*
X79029Y-31735D01*
X79086Y-31735D01*
X79170Y-31706D01*
X79198Y-31678D01*
X79198Y-31482D01*
X79086Y-31482D01*
X72246Y-31386D02*
X72331Y-31414D01*
X72359Y-31442D01*
X72387Y-31498D01*
X72387Y-31583D01*
X72359Y-31639D01*
X72331Y-31667D01*
X72275Y-31695D01*
X72050Y-31695D01*
X72050Y-31105D01*
X72246Y-31105D01*
X72303Y-31133D01*
X72331Y-31161D01*
X72359Y-31217D01*
X72359Y-31273D01*
X72331Y-31330D01*
X72303Y-31358D01*
X72246Y-31386D01*
X72050Y-31386D01*
X65537Y-31695D02*
X65340Y-31414D01*
X65199Y-31695D02*
X65199Y-31105D01*
X65424Y-31105D01*
X65480Y-31133D01*
X65508Y-31161D01*
X65537Y-31217D01*
X65537Y-31302D01*
X65508Y-31358D01*
X65480Y-31386D01*
X65424Y-31414D01*
X65199Y-31414D01*
X59485Y-31133D02*
X59429Y-31105D01*
X59344Y-31105D01*
X59260Y-31133D01*
X59204Y-31189D01*
X59176Y-31245D01*
X59147Y-31358D01*
X59147Y-31442D01*
X59176Y-31555D01*
X59204Y-31611D01*
X59260Y-31667D01*
X59344Y-31695D01*
X59401Y-31695D01*
X59485Y-31667D01*
X59513Y-31639D01*
X59513Y-31442D01*
X59401Y-31442D01*
X53270Y-31386D02*
X53354Y-31414D01*
X53383Y-31442D01*
X53411Y-31498D01*
X53411Y-31583D01*
X53383Y-31639D01*
X53354Y-31667D01*
X53298Y-31695D01*
X53073Y-31695D01*
X53073Y-31105D01*
X53270Y-31105D01*
X53326Y-31133D01*
X53354Y-31161D01*
X53383Y-31217D01*
X53383Y-31273D01*
X53354Y-31330D01*
X53326Y-31358D01*
X53270Y-31386D01*
X53073Y-31386D01*
X46796Y-31735D02*
X46600Y-31453D01*
X46459Y-31735D02*
X46459Y-31144D01*
X46684Y-31144D01*
X46740Y-31172D01*
X46768Y-31200D01*
X46796Y-31257D01*
X46796Y-31341D01*
X46768Y-31397D01*
X46740Y-31425D01*
X46684Y-31453D01*
X46459Y-31453D01*
X40036Y-31212D02*
X39980Y-31183D01*
X39895Y-31183D01*
X39811Y-31212D01*
X39755Y-31268D01*
X39727Y-31324D01*
X39699Y-31437D01*
X39699Y-31521D01*
X39727Y-31633D01*
X39755Y-31690D01*
X39811Y-31746D01*
X39895Y-31774D01*
X39952Y-31774D01*
X40036Y-31746D01*
X40064Y-31718D01*
X40064Y-31521D01*
X39952Y-31521D01*
X33034Y-31504D02*
X33118Y-31532D01*
X33146Y-31560D01*
X33174Y-31616D01*
X33174Y-31701D01*
X33146Y-31757D01*
X33118Y-31785D01*
X33062Y-31813D01*
X32837Y-31813D01*
X32837Y-31223D01*
X33034Y-31223D01*
X33090Y-31251D01*
X33118Y-31279D01*
X33146Y-31335D01*
X33146Y-31392D01*
X33118Y-31448D01*
X33090Y-31476D01*
X33034Y-31504D01*
X32837Y-31504D01*
X26678Y-31853D02*
X26482Y-31571D01*
X26341Y-31853D02*
X26341Y-31262D01*
X26566Y-31262D01*
X26622Y-31290D01*
X26650Y-31318D01*
X26678Y-31375D01*
X26678Y-31459D01*
X26650Y-31515D01*
X26622Y-31543D01*
X26566Y-31571D01*
X26341Y-31571D01*
X19564Y-31290D02*
X19507Y-31262D01*
X19423Y-31262D01*
X19339Y-31290D01*
X19282Y-31347D01*
X19254Y-31403D01*
X19226Y-31515D01*
X19226Y-31600D01*
X19254Y-31712D01*
X19282Y-31768D01*
X19339Y-31825D01*
X19423Y-31853D01*
X19479Y-31853D01*
X19564Y-31825D01*
X19592Y-31796D01*
X19592Y-31600D01*
X19479Y-31600D01*
X16676Y-58939D02*
X16479Y-58657D01*
X16339Y-58939D02*
X16339Y-58348D01*
X16564Y-58348D01*
X16620Y-58376D01*
X16648Y-58404D01*
X16676Y-58460D01*
X16676Y-58545D01*
X16648Y-58601D01*
X16620Y-58629D01*
X16564Y-58657D01*
X16339Y-58657D01*
X17154Y-58910D02*
X17098Y-58939D01*
X16986Y-58939D01*
X16929Y-58910D01*
X16901Y-58854D01*
X16901Y-58629D01*
X16929Y-58573D01*
X16986Y-58545D01*
X17098Y-58545D01*
X17154Y-58573D01*
X17182Y-58629D01*
X17182Y-58685D01*
X16901Y-58742D01*
X17379Y-58545D02*
X17520Y-58939D01*
X17660Y-58545D01*
X18645Y-58939D02*
X18307Y-58939D01*
X18476Y-58939D02*
X18476Y-58348D01*
X18420Y-58432D01*
X18364Y-58489D01*
X18307Y-58517D01*
X18898Y-58882D02*
X18926Y-58910D01*
X18898Y-58939D01*
X18870Y-58910D01*
X18898Y-58882D01*
X18898Y-58939D01*
X19123Y-58348D02*
X19488Y-58348D01*
X19292Y-58573D01*
X19376Y-58573D01*
X19432Y-58601D01*
X19460Y-58629D01*
X19488Y-58685D01*
X19488Y-58826D01*
X19460Y-58882D01*
X19432Y-58910D01*
X19376Y-58939D01*
X19207Y-58939D01*
X19151Y-58910D01*
X19123Y-58882D01*
G54D12*
X62700Y-54350D03*
G54D13*
X62700Y-55350D03*
X63700Y-55350D03*
G54D14*
X59100Y-46050D03*
G54D15*
X58100Y-46050D03*
X57100Y-46050D03*
X56100Y-46050D03*
X55100Y-46050D03*
X54100Y-46050D03*
X53100Y-46050D03*
X52100Y-46050D03*
X51100Y-46050D03*
X50100Y-46050D03*
X49100Y-46050D03*
X48100Y-46050D03*
X48072Y-47042D03*
X48072Y-48026D03*
X48072Y-50073D03*
X48072Y-51057D03*
X48100Y-52050D03*
X49100Y-52050D03*
X50100Y-52050D03*
X51100Y-52050D03*
X52100Y-52050D03*
X53100Y-52050D03*
X54100Y-52050D03*
X55100Y-52050D03*
X56100Y-52050D03*
X57100Y-52050D03*
X58100Y-52050D03*
X59100Y-52050D03*
G54D16*
X55631Y-51057D03*
X54647Y-51057D03*
X19450Y-52100D03*
X19450Y-51100D03*
G54D17*
X19450Y-50100D03*
G54D18*
X17481Y-51100D03*
G54D13*
X49450Y-35000D03*
X49450Y-32000D03*
X16750Y-35000D03*
X16750Y-32000D03*
X22950Y-35000D03*
X22950Y-32000D03*
X29350Y-35000D03*
X29350Y-32000D03*
X36250Y-35000D03*
X36250Y-32000D03*
X42850Y-35000D03*
X42850Y-32000D03*
X88550Y-35000D03*
X88550Y-32000D03*
X81950Y-35000D03*
X81950Y-32000D03*
X55650Y-35000D03*
X55650Y-32000D03*
X61650Y-35000D03*
X61650Y-32000D03*
X68450Y-35000D03*
X68450Y-32000D03*
G54D19*
X30950Y-35200D03*
X31950Y-35200D03*
X37750Y-35200D03*
X38750Y-35200D03*
X24550Y-35200D03*
X25550Y-35200D03*
X90150Y-35200D03*
X91150Y-35200D03*
X70050Y-35200D03*
X71050Y-35200D03*
X18400Y-35200D03*
X19400Y-35200D03*
X44450Y-35200D03*
X45450Y-35200D03*
X83450Y-35200D03*
X84450Y-35200D03*
X50950Y-35200D03*
X51950Y-35200D03*
X63250Y-35200D03*
X64250Y-35200D03*
X57250Y-35200D03*
X58250Y-35200D03*
G54D12*
X46450Y-27800D03*
G54D13*
X43450Y-27800D03*
G54D12*
X85450Y-27800D03*
G54D13*
X82450Y-27800D03*
G54D12*
X65250Y-27800D03*
G54D13*
X62250Y-27800D03*
G54D12*
X19650Y-27800D03*
G54D13*
X16650Y-27800D03*
G54D12*
X26550Y-27800D03*
G54D13*
X23550Y-27800D03*
G54D12*
X92050Y-27800D03*
G54D13*
X89050Y-27800D03*
G54D12*
X78950Y-27800D03*
G54D13*
X75950Y-27800D03*
G54D12*
X59150Y-27800D03*
G54D13*
X56150Y-27800D03*
G54D12*
X32850Y-27800D03*
G54D13*
X29850Y-27800D03*
G54D12*
X72050Y-27800D03*
G54D13*
X69050Y-27800D03*
G54D12*
X39750Y-27800D03*
G54D13*
X36750Y-27800D03*
G54D12*
X53050Y-27800D03*
G54D13*
X50050Y-27800D03*
G54D16*
X37300Y-30100D03*
X38300Y-30100D03*
G54D17*
X39300Y-30100D03*
G54D16*
X89600Y-30100D03*
X90600Y-30100D03*
G54D17*
X91600Y-30100D03*
G54D16*
X17100Y-30100D03*
X18100Y-30100D03*
G54D17*
X19100Y-30100D03*
G54D16*
X24050Y-30100D03*
X25050Y-30100D03*
G54D17*
X26050Y-30100D03*
G54D16*
X30400Y-30100D03*
X31400Y-30100D03*
G54D17*
X32400Y-30100D03*
G54D16*
X43950Y-30100D03*
X44950Y-30100D03*
G54D17*
X45950Y-30100D03*
G54D16*
X50500Y-30100D03*
X51500Y-30100D03*
G54D17*
X52500Y-30100D03*
G54D16*
X56700Y-30100D03*
X57700Y-30100D03*
G54D17*
X58700Y-30100D03*
G54D16*
X62750Y-30100D03*
X63750Y-30100D03*
G54D17*
X64750Y-30100D03*
G54D16*
X69550Y-30100D03*
X70550Y-30100D03*
G54D17*
X71550Y-30100D03*
G54D16*
X76450Y-30100D03*
X77450Y-30100D03*
G54D17*
X78450Y-30100D03*
G54D16*
X83000Y-30100D03*
X84000Y-30100D03*
G54D17*
X85000Y-30100D03*
G54D20*
X92050Y-53000D03*
G54D21*
X92050Y-51000D03*
X92050Y-49000D03*
G54D22*
X24515Y-53787D03*
X27468Y-53787D03*
X30421Y-53787D03*
X25500Y-52803D03*
X29437Y-52803D03*
X25598Y-57527D03*
X29535Y-57527D03*
G54D13*
X27350Y-48300D03*
X27350Y-51300D03*
X24450Y-48300D03*
X24450Y-51300D03*
X60750Y-56550D03*
X57750Y-56550D03*
X57750Y-57500D03*
X60750Y-57500D03*
X57750Y-58550D03*
X60750Y-58550D03*
G54D12*
X72452Y-52250D03*
G54D13*
X72452Y-51250D03*
X72452Y-50250D03*
X72452Y-49250D03*
X72452Y-48250D03*
X72452Y-47250D03*
X72452Y-46250D03*
X72452Y-45250D03*
X66500Y-45250D03*
X66500Y-46250D03*
X66500Y-47250D03*
X66500Y-48250D03*
X66500Y-49250D03*
X66500Y-50250D03*
X66500Y-51250D03*
X66500Y-52250D03*
G54D12*
X21600Y-50100D03*
G54D13*
X22600Y-50100D03*
G54D12*
X21600Y-47900D03*
G54D13*
X22600Y-47900D03*
G54D23*
X21600Y-45200D03*
G54D24*
X21600Y-46200D03*
G54D25*
X88515Y-37926D03*
X90877Y-37926D03*
X88515Y-39698D03*
X90877Y-39698D03*
X43015Y-37676D03*
X45377Y-37676D03*
X43015Y-39448D03*
X45377Y-39448D03*
X82015Y-37926D03*
X84377Y-37926D03*
X82015Y-39698D03*
X84377Y-39698D03*
X49765Y-37676D03*
X52127Y-37676D03*
X49765Y-39448D03*
X52127Y-39448D03*
X36465Y-37676D03*
X38827Y-37676D03*
X36465Y-39448D03*
X38827Y-39448D03*
X75515Y-37926D03*
X77877Y-37926D03*
X75515Y-39698D03*
X77877Y-39698D03*
X55765Y-37676D03*
X58127Y-37676D03*
X55765Y-39448D03*
X58127Y-39448D03*
X29465Y-37826D03*
X31827Y-37826D03*
X29465Y-39598D03*
X31827Y-39598D03*
X23115Y-37826D03*
X25477Y-37826D03*
X23115Y-39598D03*
X25477Y-39598D03*
X68765Y-37926D03*
X71127Y-37926D03*
X68765Y-39698D03*
X71127Y-39698D03*
X62015Y-37926D03*
X64377Y-37926D03*
X62015Y-39698D03*
X64377Y-39698D03*
X17615Y-37826D03*
X19977Y-37826D03*
X17615Y-39598D03*
X19977Y-39598D03*
G54D13*
X87374Y-42401D03*
X88374Y-42401D03*
X66450Y-54050D03*
X67450Y-54050D03*
G54D12*
X63250Y-57200D03*
G54D13*
X63250Y-58200D03*
G54D12*
X65500Y-56550D03*
G54D13*
X65500Y-57550D03*
G54D26*
X88092Y-51300D03*
G54D27*
X87107Y-51300D03*
G54D26*
X87381Y-46062D03*
G54D27*
X88366Y-46062D03*
G54D13*
X75400Y-34900D03*
X75400Y-31900D03*
G54D28*
X23400Y-24800D03*
X22400Y-24800D03*
X21400Y-24800D03*
G54D29*
X20400Y-24800D03*
G54D28*
X29300Y-24800D03*
X28300Y-24800D03*
X27300Y-24800D03*
G54D29*
X26300Y-24800D03*
G54D28*
X43400Y-24600D03*
X42400Y-24600D03*
X41400Y-24600D03*
G54D29*
X40400Y-24600D03*
G54D28*
X49100Y-24600D03*
X48100Y-24600D03*
X47100Y-24600D03*
G54D29*
X46100Y-24600D03*
G54D28*
X61900Y-24600D03*
X60900Y-24600D03*
X59900Y-24600D03*
G54D29*
X58900Y-24600D03*
G54D28*
X68500Y-24600D03*
X67500Y-24600D03*
X66500Y-24600D03*
G54D29*
X65500Y-24600D03*
G54D28*
X80900Y-24800D03*
X79900Y-24800D03*
X78900Y-24800D03*
G54D29*
X77900Y-24800D03*
G54D28*
X87100Y-24800D03*
X86100Y-24800D03*
X85100Y-24800D03*
G54D29*
X84100Y-24800D03*
G54D12*
X55625Y-41295D03*
G54D13*
X54625Y-41295D03*
X53625Y-41295D03*
X52625Y-41295D03*
X51625Y-41295D03*
X50625Y-41295D03*
X49625Y-41295D03*
X48625Y-41295D03*
X48625Y-44295D03*
X49625Y-44295D03*
X50625Y-44295D03*
X51625Y-44295D03*
X52625Y-44295D03*
X53625Y-44295D03*
X54625Y-44295D03*
X55625Y-44295D03*
G54D12*
X41700Y-42900D03*
G54D13*
X41700Y-43900D03*
X41700Y-44900D03*
X41700Y-45900D03*
X41700Y-46900D03*
X41700Y-47900D03*
X41700Y-48900D03*
X41700Y-49900D03*
X44700Y-49900D03*
X44700Y-48900D03*
X44700Y-47900D03*
X44700Y-46900D03*
X44700Y-45900D03*
X44700Y-44900D03*
X44700Y-43900D03*
X44700Y-42900D03*
G54D12*
X50750Y-53500D03*
G54D13*
X50750Y-54500D03*
X50750Y-55500D03*
X50750Y-56500D03*
X50750Y-57500D03*
X50750Y-58500D03*
G54D25*
X76515Y-46226D03*
X78877Y-46226D03*
X76515Y-47998D03*
X78877Y-47998D03*
X76515Y-49476D03*
X78877Y-49476D03*
X76515Y-51248D03*
X78877Y-51248D03*
X76515Y-52726D03*
X78877Y-52726D03*
X76515Y-54498D03*
X78877Y-54498D03*
G54D12*
X22086Y-51610D03*
G54D13*
X22086Y-54610D03*
G54D23*
X27007Y-43885D03*
G54D24*
X27007Y-42885D03*
G54D23*
X67007Y-42059D03*
G54D24*
X67007Y-43059D03*
G54D23*
X74842Y-42031D03*
G54D24*
X74842Y-43031D03*
X74842Y-44031D03*
G54D12*
X55000Y-54600D03*
G54D13*
X55000Y-55600D03*
G54D12*
X57637Y-54578D03*
G54D13*
X57637Y-55578D03*
G54D19*
X76950Y-35200D03*
X77950Y-35200D03*
G54D29*
X79500Y-42250D03*
G54D28*
X80500Y-42250D03*
X81500Y-42250D03*
G54D23*
X53000Y-54500D03*
G54D24*
X52000Y-54500D03*
G54D30*
X91750Y-57000D03*
X18000Y-57000D03*
X91750Y-25750D03*
X18000Y-25750D03*
G54D31*
X88228Y-48582D03*
X21350Y-27900D03*
X21550Y-38700D03*
X21350Y-40000D03*
X63897Y-51692D03*
X63897Y-47007D03*
X60511Y-55078D03*
X59173Y-54566D03*
X56102Y-54606D03*
X28307Y-50590D03*
X43700Y-43779D03*
X21550Y-43500D03*
X62800Y-41900D03*
X56700Y-49400D03*
X58582Y-41338D03*
X29000Y-51100D03*
X29900Y-51100D03*
X54200Y-50400D03*
X73937Y-49409D03*
X73937Y-48267D03*
X74370Y-45866D03*
X62500Y-50600D03*
X61500Y-49600D03*
X73188Y-48070D03*
X73464Y-45393D03*
X21141Y-51614D03*
X47800Y-45400D03*
X45600Y-48300D03*
X45600Y-46500D03*
G54D32*
X87381Y-46062D02*
X87381Y-47736D01*
X87381Y-47736D02*
X88228Y-48582D01*
X87374Y-42401D02*
X87374Y-46055D01*
X87374Y-46055D02*
X87381Y-46062D01*
G54D33*
X22086Y-51610D02*
X22086Y-50586D01*
X22086Y-50586D02*
X21600Y-50100D01*
X19450Y-52100D02*
X19500Y-52100D01*
X21500Y-50100D02*
X21600Y-50100D01*
X19500Y-52100D02*
X21500Y-50100D01*
G54D34*
X92050Y-49000D02*
X92050Y-31900D01*
X92050Y-31900D02*
X92400Y-31550D01*
X92400Y-28150D02*
X92050Y-27800D01*
X92400Y-31550D02*
X92400Y-28150D01*
X19450Y-52100D02*
X18800Y-52100D01*
X21350Y-38500D02*
X21350Y-27900D01*
X21550Y-38700D02*
X21350Y-38500D01*
X18550Y-42800D02*
X21350Y-40000D01*
X18550Y-51850D02*
X18550Y-42800D01*
X18800Y-52100D02*
X18550Y-51850D01*
G54D35*
X92050Y-49000D02*
X92050Y-45800D01*
X92050Y-45800D02*
X92050Y-31900D01*
X92450Y-28200D02*
X92050Y-27800D01*
X92050Y-31900D02*
X92450Y-31500D01*
X92450Y-31500D02*
X92450Y-28200D01*
G54D33*
X65500Y-56550D02*
X65500Y-55000D01*
X65500Y-55000D02*
X66450Y-54050D01*
X66450Y-54050D02*
X66450Y-52300D01*
X66450Y-52300D02*
X66500Y-52250D01*
X66450Y-54050D02*
X63000Y-54050D01*
X63000Y-54050D02*
X62700Y-54350D01*
X64454Y-52250D02*
X66500Y-52250D01*
X63897Y-51692D02*
X64454Y-52250D01*
X67007Y-42059D02*
X65972Y-42059D01*
X63897Y-44133D02*
X63897Y-47007D01*
X65972Y-42059D02*
X63897Y-44133D01*
G54D36*
X66450Y-52300D02*
X66500Y-52250D01*
X65500Y-55000D02*
X66450Y-54050D01*
G54D37*
X53000Y-54500D02*
X54900Y-54500D01*
X54900Y-54500D02*
X55000Y-54600D01*
G54D33*
X57637Y-54578D02*
X59161Y-54578D01*
X60783Y-55350D02*
X62700Y-55350D01*
X60511Y-55078D02*
X60783Y-55350D01*
X59161Y-54578D02*
X59173Y-54566D01*
X56102Y-54606D02*
X57610Y-54606D01*
X57610Y-54606D02*
X57637Y-54578D01*
X55000Y-54600D02*
X56096Y-54600D01*
X56096Y-54600D02*
X56102Y-54606D01*
X27007Y-43885D02*
X27007Y-44022D01*
X27007Y-44022D02*
X25829Y-45200D01*
G54D36*
X49625Y-44295D02*
X49625Y-43759D01*
X48766Y-42900D02*
X44700Y-42900D01*
X49625Y-43759D02*
X48766Y-42900D01*
X55625Y-44295D02*
X62690Y-44295D01*
X62690Y-44295D02*
X62800Y-44404D01*
G54D32*
X25829Y-45200D02*
X23270Y-45200D01*
X28307Y-47677D02*
X25829Y-45200D01*
X28307Y-48346D02*
X28307Y-47677D01*
X28307Y-50590D02*
X28307Y-48346D01*
X24450Y-48300D02*
X27350Y-48300D01*
X21600Y-45200D02*
X23270Y-45200D01*
X24450Y-46379D02*
X24450Y-48300D01*
X23270Y-45200D02*
X24450Y-46379D01*
G54D38*
X44700Y-48900D02*
X44333Y-48900D01*
X43700Y-48267D02*
X43700Y-43779D01*
X44333Y-48900D02*
X43700Y-48267D01*
G54D36*
X63250Y-57200D02*
X63250Y-55900D01*
X63250Y-55900D02*
X62700Y-55350D01*
G54D32*
X90877Y-39698D02*
X90877Y-49827D01*
X90877Y-49827D02*
X92050Y-51000D01*
G54D39*
X21600Y-45200D02*
X21600Y-43550D01*
X21600Y-43550D02*
X21550Y-43500D01*
G54D37*
X62800Y-44600D02*
X62800Y-44404D01*
X62800Y-44404D02*
X62800Y-41900D01*
X62800Y-44900D02*
X62800Y-44600D01*
X60700Y-47000D02*
X62800Y-44900D01*
X59300Y-47000D02*
X60700Y-47000D01*
X56700Y-49400D02*
X59300Y-47000D01*
G54D36*
X90877Y-37926D02*
X90380Y-37926D01*
X55496Y-43425D02*
X54625Y-44295D01*
X57598Y-43425D02*
X55496Y-43425D01*
X59826Y-41196D02*
X57598Y-43425D01*
X85417Y-41196D02*
X59826Y-41196D01*
X87677Y-38937D02*
X85417Y-41196D01*
X89370Y-38937D02*
X87677Y-38937D01*
X90380Y-37926D02*
X89370Y-38937D01*
G54D38*
X41700Y-42900D02*
X37500Y-42900D01*
X32426Y-37826D02*
X31827Y-37826D01*
X37500Y-42900D02*
X32426Y-37826D01*
X41700Y-43900D02*
X41200Y-43900D01*
X28351Y-40700D02*
X25477Y-37826D01*
X35017Y-40700D02*
X28351Y-40700D01*
X37417Y-43100D02*
X35017Y-40700D01*
X40400Y-43100D02*
X37417Y-43100D01*
X41200Y-43900D02*
X40400Y-43100D01*
X41700Y-44900D02*
X41700Y-44700D01*
X21351Y-39200D02*
X19977Y-37826D01*
X21500Y-39200D02*
X21351Y-39200D01*
X23200Y-40900D02*
X21500Y-39200D01*
X34934Y-40900D02*
X23200Y-40900D01*
X37334Y-43300D02*
X34934Y-40900D01*
X40300Y-43300D02*
X37334Y-43300D01*
X41700Y-44700D02*
X40300Y-43300D01*
G54D36*
X83485Y-38818D02*
X84377Y-37926D01*
X81181Y-38818D02*
X83485Y-38818D01*
X79053Y-40946D02*
X81181Y-38818D01*
X58974Y-40946D02*
X79053Y-40946D01*
X58582Y-41338D02*
X58974Y-40946D01*
X54625Y-41295D02*
X54625Y-41673D01*
X77024Y-38779D02*
X77877Y-37926D01*
X73503Y-38779D02*
X77024Y-38779D01*
X71586Y-40696D02*
X73503Y-38779D01*
X58307Y-40696D02*
X71586Y-40696D01*
X56917Y-42086D02*
X58307Y-40696D01*
X55039Y-42086D02*
X56917Y-42086D01*
X54625Y-41673D02*
X55039Y-42086D01*
X53625Y-41295D02*
X53625Y-41112D01*
X70235Y-38818D02*
X71127Y-37926D01*
X67322Y-38818D02*
X70235Y-38818D01*
X65694Y-40446D02*
X67322Y-38818D01*
X54291Y-40446D02*
X65694Y-40446D01*
X53625Y-41112D02*
X54291Y-40446D01*
X52625Y-41295D02*
X52625Y-41153D01*
X63564Y-38740D02*
X64377Y-37926D01*
X60354Y-38740D02*
X63564Y-38740D01*
X58897Y-40196D02*
X60354Y-38740D01*
X53582Y-40196D02*
X58897Y-40196D01*
X52625Y-41153D02*
X53582Y-40196D01*
X51625Y-41295D02*
X51625Y-41208D01*
X57182Y-38622D02*
X58127Y-37676D01*
X54251Y-38622D02*
X57182Y-38622D01*
X52874Y-40000D02*
X54251Y-38622D01*
X52834Y-40000D02*
X52874Y-40000D01*
X51625Y-41208D02*
X52834Y-40000D01*
X50625Y-41295D02*
X50625Y-39178D01*
X50625Y-39178D02*
X52127Y-37676D01*
X49625Y-41295D02*
X49625Y-41122D01*
X46180Y-37676D02*
X45377Y-37676D01*
X49625Y-41122D02*
X46180Y-37676D01*
G54D38*
X38827Y-37676D02*
X38976Y-37676D01*
X43500Y-42700D02*
X44700Y-43900D01*
X43500Y-42200D02*
X43500Y-42700D01*
X38976Y-37676D02*
X43500Y-42200D01*
G54D36*
X50750Y-56500D02*
X49750Y-55500D01*
X51400Y-52750D02*
X52100Y-52050D01*
X50000Y-52750D02*
X51400Y-52750D01*
X49750Y-53000D02*
X50000Y-52750D01*
X49750Y-53750D02*
X49750Y-53000D01*
X49750Y-55500D02*
X49750Y-53750D01*
G54D33*
X60750Y-57500D02*
X60750Y-58550D01*
X53100Y-52050D02*
X53100Y-52400D01*
X59700Y-56450D02*
X60750Y-57500D01*
X59700Y-54100D02*
X59700Y-56450D01*
X59100Y-53500D02*
X59700Y-54100D01*
X54200Y-53500D02*
X59100Y-53500D01*
X53100Y-52400D02*
X54200Y-53500D01*
G54D36*
X33500Y-51300D02*
X33300Y-51300D01*
X52657Y-51057D02*
X51100Y-49500D01*
X51100Y-49500D02*
X47500Y-49500D01*
X47500Y-49500D02*
X47000Y-50000D01*
X47000Y-50000D02*
X47000Y-50700D01*
X46600Y-51300D02*
X33500Y-51300D01*
X54647Y-51057D02*
X52657Y-51057D01*
X47000Y-50900D02*
X46600Y-51300D01*
X47000Y-50700D02*
X47000Y-50900D01*
X25700Y-51300D02*
X24450Y-51300D01*
X26400Y-52000D02*
X25700Y-51300D01*
X26400Y-53900D02*
X26400Y-52000D01*
X27100Y-54600D02*
X26400Y-53900D01*
X30900Y-54600D02*
X27100Y-54600D01*
X31600Y-53900D02*
X30900Y-54600D01*
X31600Y-53000D02*
X31600Y-53900D01*
X33300Y-51300D02*
X31600Y-53000D01*
G54D37*
X24515Y-53787D02*
X24515Y-51365D01*
X24515Y-51365D02*
X24450Y-51300D01*
G54D36*
X28800Y-51300D02*
X27350Y-51300D01*
X29000Y-51100D02*
X28800Y-51300D01*
X29950Y-51049D02*
X29900Y-51100D01*
X46496Y-51049D02*
X29950Y-51049D01*
X46749Y-50796D02*
X46496Y-51049D01*
X46749Y-49850D02*
X46749Y-50796D01*
X47350Y-49249D02*
X46749Y-49850D01*
X53049Y-49249D02*
X47350Y-49249D01*
X54200Y-50400D02*
X53049Y-49249D01*
G54D37*
X27468Y-53787D02*
X27468Y-51418D01*
X27468Y-51418D02*
X27350Y-51300D01*
G54D38*
X52100Y-46050D02*
X52100Y-47500D01*
X57950Y-51250D02*
X66500Y-51250D01*
X57100Y-50400D02*
X57950Y-51250D01*
X55000Y-50400D02*
X57100Y-50400D01*
X52100Y-47500D02*
X55000Y-50400D01*
X54100Y-46050D02*
X54100Y-48817D01*
X67850Y-46250D02*
X72452Y-46250D01*
X67300Y-45700D02*
X67850Y-46250D01*
X66100Y-45700D02*
X67300Y-45700D01*
X61800Y-49999D02*
X66100Y-45700D01*
X55282Y-49999D02*
X61800Y-49999D01*
X54100Y-48817D02*
X55282Y-49999D01*
X53100Y-46050D02*
X53100Y-48100D01*
X62550Y-50199D02*
X66500Y-46250D01*
X55199Y-50199D02*
X62550Y-50199D01*
X53100Y-48100D02*
X55199Y-50199D01*
G54D37*
X75750Y-44750D02*
X75561Y-44750D01*
X81500Y-43500D02*
X80250Y-44750D01*
X80250Y-44750D02*
X75750Y-44750D01*
X81500Y-42250D02*
X81500Y-43500D01*
X75561Y-44750D02*
X74842Y-44031D01*
G54D33*
X73897Y-49805D02*
X72452Y-51250D01*
X73897Y-49448D02*
X73897Y-49805D01*
X73937Y-49409D02*
X73897Y-49448D01*
X73937Y-46299D02*
X73937Y-48267D01*
X74370Y-45866D02*
X73937Y-46299D01*
G54D36*
X76515Y-54498D02*
X78877Y-54498D01*
X72452Y-52250D02*
X73250Y-52250D01*
X75498Y-54498D02*
X76515Y-54498D01*
X73250Y-52250D02*
X75498Y-54498D01*
G54D38*
X55100Y-46050D02*
X55100Y-49500D01*
X70850Y-52250D02*
X72452Y-52250D01*
X69300Y-50700D02*
X70850Y-52250D01*
X62600Y-50700D02*
X69300Y-50700D01*
X62500Y-50600D02*
X62600Y-50700D01*
X61300Y-49799D02*
X61500Y-49600D01*
X55399Y-49799D02*
X61300Y-49799D01*
X55100Y-49500D02*
X55399Y-49799D01*
G54D33*
X23400Y-24800D02*
X23400Y-25200D01*
X28750Y-26700D02*
X29300Y-27250D01*
X24900Y-26700D02*
X28750Y-26700D01*
X23400Y-25200D02*
X24900Y-26700D01*
X29300Y-24800D02*
X29300Y-27250D01*
X29300Y-27250D02*
X29850Y-27800D01*
G54D37*
X29850Y-27800D02*
X30100Y-27800D01*
X31400Y-29100D02*
X31400Y-30100D01*
X30100Y-27800D02*
X31400Y-29100D01*
G54D33*
X41400Y-24600D02*
X41400Y-24000D01*
X47100Y-23600D02*
X47100Y-24600D01*
X46700Y-23200D02*
X47100Y-23600D01*
X42200Y-23200D02*
X46700Y-23200D01*
X41400Y-24000D02*
X42200Y-23200D01*
X36750Y-27800D02*
X36750Y-27650D01*
X41400Y-25600D02*
X41400Y-24600D01*
X40400Y-26600D02*
X41400Y-25600D01*
X37800Y-26600D02*
X40400Y-26600D01*
X36750Y-27650D02*
X37800Y-26600D01*
G54D37*
X36750Y-27800D02*
X36850Y-27800D01*
X38300Y-29250D02*
X38300Y-30100D01*
X36850Y-27800D02*
X38300Y-29250D01*
G54D36*
X42850Y-35000D02*
X44250Y-35000D01*
X44250Y-35000D02*
X44450Y-35200D01*
G54D40*
X43015Y-37676D02*
X43015Y-36865D01*
X42000Y-32850D02*
X42850Y-32000D01*
X42000Y-35850D02*
X42000Y-32850D01*
X43015Y-36865D02*
X42000Y-35850D01*
G54D36*
X42850Y-32000D02*
X42850Y-31200D01*
X42850Y-31200D02*
X43950Y-30100D01*
G54D40*
X23115Y-37826D02*
X23115Y-37015D01*
X22000Y-32950D02*
X22950Y-32000D01*
X22000Y-35900D02*
X22000Y-32950D01*
X23115Y-37015D02*
X22000Y-35900D01*
G54D36*
X22950Y-32000D02*
X22950Y-31200D01*
X22950Y-31200D02*
X24050Y-30100D01*
X22950Y-35000D02*
X24350Y-35000D01*
X24350Y-35000D02*
X24550Y-35200D01*
G54D33*
X21400Y-24800D02*
X21400Y-24000D01*
X27300Y-24000D02*
X27300Y-24800D01*
X26600Y-23300D02*
X27300Y-24000D01*
X22100Y-23300D02*
X26600Y-23300D01*
X21400Y-24000D02*
X22100Y-23300D01*
X21400Y-24800D02*
X21400Y-25400D01*
X17550Y-26900D02*
X16650Y-27800D01*
X19900Y-26900D02*
X17550Y-26900D01*
X21400Y-25400D02*
X19900Y-26900D01*
G54D37*
X16650Y-27800D02*
X16650Y-27850D01*
X18100Y-29300D02*
X18100Y-30100D01*
X16650Y-27850D02*
X18100Y-29300D01*
G54D36*
X16750Y-35000D02*
X18200Y-35000D01*
X18200Y-35000D02*
X18400Y-35200D01*
G54D40*
X17615Y-37826D02*
X18673Y-37826D01*
X18450Y-32000D02*
X16750Y-32000D01*
X20350Y-33900D02*
X18450Y-32000D01*
X20350Y-36150D02*
X20350Y-33900D01*
X18673Y-37826D02*
X20350Y-36150D01*
G54D36*
X17100Y-30100D02*
X17100Y-31650D01*
X17100Y-31650D02*
X16750Y-32000D01*
G54D40*
X82015Y-37926D02*
X82015Y-37215D01*
X81100Y-32850D02*
X81950Y-32000D01*
X81100Y-36300D02*
X81100Y-32850D01*
X82015Y-37215D02*
X81100Y-36300D01*
G54D36*
X81950Y-32000D02*
X81950Y-31150D01*
X81950Y-31150D02*
X83000Y-30100D01*
X36250Y-35000D02*
X37550Y-35000D01*
X37550Y-35000D02*
X37750Y-35200D01*
X81950Y-35000D02*
X83250Y-35000D01*
X83250Y-35000D02*
X83450Y-35200D01*
G54D33*
X78900Y-24800D02*
X78900Y-24100D01*
X85100Y-23700D02*
X85100Y-24800D01*
X84500Y-23100D02*
X85100Y-23700D01*
X79900Y-23100D02*
X84500Y-23100D01*
X78900Y-24100D02*
X79900Y-23100D01*
X75950Y-27800D02*
X75950Y-27750D01*
X78900Y-25900D02*
X78900Y-24800D01*
X78500Y-26300D02*
X78900Y-25900D01*
X77400Y-26300D02*
X78500Y-26300D01*
X75950Y-27750D02*
X77400Y-26300D01*
G54D37*
X75950Y-27800D02*
X75950Y-27900D01*
X77450Y-29400D02*
X77450Y-30100D01*
X75950Y-27900D02*
X77450Y-29400D01*
G54D36*
X75350Y-35000D02*
X76750Y-35000D01*
X76750Y-35000D02*
X76950Y-35200D01*
G54D40*
X75515Y-37926D02*
X75515Y-37515D01*
X74700Y-32600D02*
X75400Y-31900D01*
X74700Y-36700D02*
X74700Y-32600D01*
X75515Y-37515D02*
X74700Y-36700D01*
G54D33*
X75400Y-31900D02*
X75400Y-31150D01*
X75400Y-31150D02*
X76450Y-30100D01*
X79900Y-24800D02*
X79900Y-24300D01*
X86100Y-25700D02*
X86100Y-24800D01*
X85500Y-26300D02*
X86100Y-25700D01*
X83200Y-26300D02*
X85500Y-26300D01*
X82800Y-25900D02*
X83200Y-26300D01*
X82800Y-24800D02*
X82800Y-25900D01*
X81700Y-23700D02*
X82800Y-24800D01*
X80500Y-23700D02*
X81700Y-23700D01*
X79900Y-24300D02*
X80500Y-23700D01*
X79900Y-24800D02*
X79900Y-25900D01*
X81800Y-27800D02*
X82450Y-27800D01*
X79900Y-25900D02*
X81800Y-27800D01*
G54D37*
X82450Y-27800D02*
X82600Y-27800D01*
X84000Y-29200D02*
X84000Y-30100D01*
X82600Y-27800D02*
X84000Y-29200D01*
G54D33*
X89050Y-27800D02*
X89050Y-27750D01*
X89050Y-27750D02*
X87100Y-25800D01*
X80900Y-24800D02*
X80900Y-25000D01*
X80900Y-25000D02*
X82800Y-26900D01*
X82800Y-26900D02*
X86000Y-26900D01*
X86000Y-26900D02*
X87100Y-25800D01*
X87100Y-25800D02*
X87100Y-24800D01*
G54D37*
X89050Y-27800D02*
X89100Y-27800D01*
X90600Y-29300D02*
X90600Y-30100D01*
X89100Y-27800D02*
X90600Y-29300D01*
G54D36*
X88550Y-35000D02*
X89950Y-35000D01*
X89950Y-35000D02*
X90150Y-35200D01*
G54D40*
X88515Y-37926D02*
X88515Y-37415D01*
X87600Y-32950D02*
X88550Y-32000D01*
X87600Y-36500D02*
X87600Y-32950D01*
X88515Y-37415D02*
X87600Y-36500D01*
G54D36*
X88550Y-32000D02*
X88550Y-31150D01*
X88550Y-31150D02*
X89600Y-30100D01*
G54D33*
X59900Y-24600D02*
X59900Y-24000D01*
X66500Y-23700D02*
X66500Y-24600D01*
X66000Y-23200D02*
X66500Y-23700D01*
X60700Y-23200D02*
X66000Y-23200D01*
X59900Y-24000D02*
X60700Y-23200D01*
X56150Y-27800D02*
X56150Y-27650D01*
X59900Y-26000D02*
X59900Y-24600D01*
X59200Y-26700D02*
X59900Y-26000D01*
X57100Y-26700D02*
X59200Y-26700D01*
X56150Y-27650D02*
X57100Y-26700D01*
G54D37*
X56150Y-27800D02*
X56350Y-27800D01*
X57700Y-29150D02*
X57700Y-30100D01*
X56350Y-27800D02*
X57700Y-29150D01*
G54D40*
X36465Y-37676D02*
X36465Y-36865D01*
X35300Y-32950D02*
X36250Y-32000D01*
X35300Y-35700D02*
X35300Y-32950D01*
X36465Y-36865D02*
X35300Y-35700D01*
G54D36*
X36250Y-32000D02*
X36250Y-31150D01*
X36250Y-31150D02*
X37300Y-30100D01*
G54D40*
X55765Y-37676D02*
X55765Y-36965D01*
X55050Y-32600D02*
X55650Y-32000D01*
X55050Y-36250D02*
X55050Y-32600D01*
X55765Y-36965D02*
X55050Y-36250D01*
G54D36*
X55650Y-32000D02*
X55650Y-31150D01*
X55650Y-31150D02*
X56700Y-30100D01*
G54D33*
X43400Y-24600D02*
X43400Y-25600D01*
X49050Y-26900D02*
X49100Y-26850D01*
X44700Y-26900D02*
X49050Y-26900D01*
X43400Y-25600D02*
X44700Y-26900D01*
X49100Y-24600D02*
X49100Y-26850D01*
X49100Y-26850D02*
X50050Y-27800D01*
G54D37*
X50050Y-27800D02*
X50100Y-27800D01*
X51500Y-29200D02*
X51500Y-30100D01*
X50100Y-27800D02*
X51500Y-29200D01*
G54D36*
X61650Y-35000D02*
X63050Y-35000D01*
X63050Y-35000D02*
X63250Y-35200D01*
X55650Y-35000D02*
X57050Y-35000D01*
X57050Y-35000D02*
X57250Y-35200D01*
X68450Y-35000D02*
X69850Y-35000D01*
X69850Y-35000D02*
X70050Y-35200D01*
G54D40*
X68450Y-32000D02*
X68450Y-32550D01*
X67550Y-36710D02*
X68765Y-37926D01*
X67550Y-33450D02*
X67550Y-36710D01*
X68450Y-32550D02*
X67550Y-33450D01*
G54D36*
X68450Y-32000D02*
X68450Y-31200D01*
X68450Y-31200D02*
X69550Y-30100D01*
G54D33*
X69050Y-27800D02*
X69050Y-26850D01*
X68500Y-26300D02*
X68500Y-24600D01*
X69050Y-26850D02*
X68500Y-26300D01*
X61900Y-24600D02*
X61900Y-25500D01*
X68150Y-26900D02*
X69050Y-27800D01*
X63300Y-26900D02*
X68150Y-26900D01*
X61900Y-25500D02*
X63300Y-26900D01*
G54D37*
X69050Y-27800D02*
X69100Y-27800D01*
X70550Y-29250D02*
X70550Y-30100D01*
X69100Y-27800D02*
X70550Y-29250D01*
G54D40*
X62015Y-37926D02*
X62015Y-36815D01*
X60600Y-33050D02*
X61650Y-32000D01*
X60600Y-35400D02*
X60600Y-33050D01*
X62015Y-36815D02*
X60600Y-35400D01*
G54D36*
X61650Y-32000D02*
X61650Y-31200D01*
X61650Y-31200D02*
X62750Y-30100D01*
X29350Y-35000D02*
X30750Y-35000D01*
X30750Y-35000D02*
X30950Y-35200D01*
X52750Y-57500D02*
X57750Y-57500D01*
X50750Y-57500D02*
X52750Y-57500D01*
X57750Y-57500D02*
X57750Y-58550D01*
X57750Y-56550D02*
X57750Y-57500D01*
G54D33*
X60900Y-24600D02*
X60900Y-24100D01*
X67500Y-25600D02*
X67500Y-24600D01*
X67000Y-26100D02*
X67500Y-25600D01*
X64600Y-26100D02*
X67000Y-26100D01*
X64200Y-25700D02*
X64600Y-26100D01*
X64200Y-25000D02*
X64200Y-25700D01*
X62800Y-23600D02*
X64200Y-25000D01*
X61400Y-23600D02*
X62800Y-23600D01*
X60900Y-24100D02*
X61400Y-23600D01*
X60900Y-24600D02*
X60900Y-26450D01*
X60900Y-26450D02*
X62250Y-27800D01*
G54D37*
X62250Y-27800D02*
X62350Y-27800D01*
X63750Y-29200D02*
X63750Y-30100D01*
X62350Y-27800D02*
X63750Y-29200D01*
G54D33*
X73188Y-47362D02*
X73188Y-48070D01*
X73385Y-47165D02*
X73188Y-47362D01*
X73385Y-45472D02*
X73385Y-47165D01*
X73464Y-45393D02*
X73385Y-45472D01*
G54D37*
X52000Y-54500D02*
X50750Y-54500D01*
G54D32*
X21600Y-47900D02*
X21600Y-46200D01*
X19450Y-50100D02*
X19450Y-50050D01*
X19450Y-50050D02*
X21600Y-47900D01*
G54D37*
X19450Y-50050D02*
X21600Y-47900D01*
G54D33*
X21220Y-53744D02*
X22086Y-54610D01*
X21220Y-51692D02*
X21220Y-53744D01*
X21141Y-51614D02*
X21220Y-51692D01*
X19450Y-50050D02*
X21600Y-47900D01*
X22400Y-24800D02*
X22400Y-23900D01*
X28300Y-25600D02*
X28300Y-24800D01*
X27800Y-26100D02*
X28300Y-25600D01*
X26000Y-26100D02*
X27800Y-26100D01*
X25400Y-25500D02*
X26000Y-26100D01*
X25400Y-25100D02*
X25400Y-25500D01*
X24000Y-23700D02*
X25400Y-25100D01*
X22600Y-23700D02*
X24000Y-23700D01*
X22400Y-23900D02*
X22600Y-23700D01*
X22400Y-24800D02*
X22400Y-26650D01*
X22400Y-26650D02*
X23550Y-27800D01*
G54D37*
X23550Y-27800D02*
X23550Y-28000D01*
X25050Y-29500D02*
X25050Y-30100D01*
X23550Y-28000D02*
X25050Y-29500D01*
G54D36*
X48625Y-44295D02*
X46216Y-44295D01*
X45611Y-44900D02*
X44700Y-44900D01*
X46216Y-44295D02*
X45611Y-44900D01*
G54D40*
X29465Y-37826D02*
X29465Y-36915D01*
X28300Y-33050D02*
X29350Y-32000D01*
X28300Y-35750D02*
X28300Y-33050D01*
X29465Y-36915D02*
X28300Y-35750D01*
G54D36*
X29350Y-32000D02*
X29350Y-31150D01*
X29350Y-31150D02*
X30400Y-30100D01*
G54D33*
X42400Y-24600D02*
X42400Y-24000D01*
X48100Y-25800D02*
X48100Y-24600D01*
X47700Y-26200D02*
X48100Y-25800D01*
X45600Y-26200D02*
X47700Y-26200D01*
X45000Y-25600D02*
X45600Y-26200D01*
X45000Y-24200D02*
X45000Y-25600D01*
X44400Y-23600D02*
X45000Y-24200D01*
X42800Y-23600D02*
X44400Y-23600D01*
X42400Y-24000D02*
X42800Y-23600D01*
X42400Y-24600D02*
X42400Y-26750D01*
X42400Y-26750D02*
X43450Y-27800D01*
G54D37*
X43450Y-27800D02*
X43450Y-27900D01*
X44950Y-29400D02*
X44950Y-30100D01*
X43450Y-27900D02*
X44950Y-29400D01*
G54D36*
X49450Y-35000D02*
X50750Y-35000D01*
X50750Y-35000D02*
X50950Y-35200D01*
G54D40*
X49765Y-37676D02*
X49765Y-36915D01*
X48600Y-32850D02*
X49450Y-32000D01*
X48600Y-35750D02*
X48600Y-32850D01*
X49765Y-36915D02*
X48600Y-35750D01*
G54D36*
X49450Y-32000D02*
X49450Y-31150D01*
X49450Y-31150D02*
X50500Y-30100D01*
X74500Y-48750D02*
X68500Y-48750D01*
X68000Y-48250D02*
X66500Y-48250D01*
X68500Y-48750D02*
X68000Y-48250D01*
X76515Y-51248D02*
X78877Y-51248D01*
X75250Y-49982D02*
X76515Y-51248D01*
X75250Y-49500D02*
X75250Y-49982D01*
X74500Y-48750D02*
X75250Y-49500D01*
X66500Y-45250D02*
X68750Y-45250D01*
X73679Y-44500D02*
X74750Y-45570D01*
X69500Y-44500D02*
X73679Y-44500D01*
X68750Y-45250D02*
X69500Y-44500D01*
X76515Y-47998D02*
X78877Y-47998D01*
X74750Y-45570D02*
X74750Y-46232D01*
X74750Y-46232D02*
X76515Y-47998D01*
X48100Y-46050D02*
X48100Y-46033D01*
X49842Y-45078D02*
X50625Y-44295D01*
X49055Y-45078D02*
X49842Y-45078D01*
X48100Y-46033D02*
X49055Y-45078D01*
G54D38*
X44700Y-47900D02*
X45500Y-47900D01*
X47350Y-46050D02*
X48100Y-46050D01*
X45500Y-47900D02*
X47350Y-46050D01*
G54D36*
X51100Y-46050D02*
X51100Y-45907D01*
X52763Y-45157D02*
X53625Y-44295D01*
X51850Y-45157D02*
X52763Y-45157D01*
X51100Y-45907D02*
X51850Y-45157D01*
X49100Y-46050D02*
X49100Y-45860D01*
X50566Y-45354D02*
X51625Y-44295D01*
X49606Y-45354D02*
X50566Y-45354D01*
X49100Y-45860D02*
X49606Y-45354D01*
G54D38*
X44700Y-46900D02*
X45900Y-46900D01*
X47400Y-45400D02*
X47800Y-45400D01*
X45900Y-46900D02*
X47400Y-45400D01*
X44700Y-45900D02*
X45000Y-45900D01*
X50100Y-46900D02*
X50100Y-46050D01*
X48100Y-48900D02*
X50100Y-46900D01*
X46200Y-48900D02*
X48100Y-48900D01*
X45600Y-48300D02*
X46200Y-48900D01*
X45000Y-45900D02*
X45600Y-46500D01*
M02*
