G04 (created by PCBNEW (2013-07-07 BZR 4022)-stable) date 04/11/2014 12:21:28*
%MOIN*%
G04 Gerber Fmt 3.4, Leading zero omitted, Abs format*
%FSLAX34Y34*%
G01*
G70*
G90*
G04 APERTURE LIST*
%ADD10C,0.00590551*%
%ADD11C,0.011811*%
%ADD12O,0.0593X0.1187*%
%ADD13R,0.06X0.12*%
%ADD14O,0.06X0.12*%
%ADD15O,0.06X0.13*%
%ADD16R,0.055X0.055*%
%ADD17C,0.055*%
%ADD18R,0.065X0.065*%
%ADD19C,0.065*%
%ADD20C,0.07*%
%ADD21R,0.07X0.07*%
%ADD22R,0.12X0.12*%
%ADD23C,0.066*%
%ADD24R,0.06X0.06*%
%ADD25C,0.06*%
%ADD26C,0.0787402*%
%ADD27R,0.0393701X0.0393701*%
%ADD28C,0.0472441*%
%ADD29C,0.137795*%
%ADD30R,0.09X0.062*%
%ADD31O,0.09X0.062*%
%ADD32O,0.1187X0.0593*%
%ADD33R,0.08X0.08*%
%ADD34C,0.08*%
G04 APERTURE END LIST*
G54D10*
G54D11*
X77341Y-57011D02*
X77439Y-56224D01*
X77392Y-56599D02*
X77842Y-56599D01*
X77791Y-57011D02*
X77889Y-56224D01*
X78503Y-57011D02*
X78555Y-56599D01*
X78526Y-56524D01*
X78456Y-56486D01*
X78306Y-56486D01*
X78226Y-56524D01*
X78508Y-56974D02*
X78428Y-57011D01*
X78241Y-57011D01*
X78170Y-56974D01*
X78142Y-56899D01*
X78151Y-56824D01*
X78198Y-56749D01*
X78278Y-56711D01*
X78465Y-56711D01*
X78545Y-56674D01*
X79220Y-56974D02*
X79140Y-57011D01*
X78990Y-57011D01*
X78920Y-56974D01*
X78887Y-56936D01*
X78859Y-56861D01*
X78887Y-56636D01*
X78934Y-56561D01*
X78976Y-56524D01*
X79056Y-56486D01*
X79206Y-56486D01*
X79276Y-56524D01*
X79553Y-57011D02*
X79651Y-56224D01*
X79665Y-56711D02*
X79853Y-57011D01*
X79918Y-56486D02*
X79581Y-56786D01*
X80495Y-56974D02*
X80415Y-57011D01*
X80265Y-57011D01*
X80195Y-56974D01*
X80167Y-56899D01*
X80204Y-56599D01*
X80251Y-56524D01*
X80331Y-56486D01*
X80481Y-56486D01*
X80551Y-56524D01*
X80579Y-56599D01*
X80570Y-56674D01*
X80186Y-56749D01*
X80865Y-57011D02*
X80931Y-56486D01*
X80912Y-56636D02*
X80959Y-56561D01*
X81001Y-56524D01*
X81081Y-56486D01*
X81156Y-56486D01*
X81320Y-56974D02*
X81390Y-57011D01*
X81540Y-57011D01*
X81620Y-56974D01*
X81667Y-56899D01*
X81671Y-56861D01*
X81643Y-56786D01*
X81573Y-56749D01*
X81460Y-56749D01*
X81390Y-56711D01*
X81362Y-56636D01*
X81367Y-56599D01*
X81414Y-56524D01*
X81493Y-56486D01*
X81606Y-56486D01*
X81676Y-56524D01*
X82056Y-56486D02*
X81957Y-57274D01*
X82051Y-56524D02*
X82131Y-56486D01*
X82281Y-56486D01*
X82351Y-56524D01*
X82384Y-56561D01*
X82412Y-56636D01*
X82384Y-56861D01*
X82337Y-56936D01*
X82295Y-56974D01*
X82215Y-57011D01*
X82065Y-57011D01*
X81995Y-56974D01*
X83040Y-57011D02*
X83091Y-56599D01*
X83063Y-56524D01*
X82993Y-56486D01*
X82843Y-56486D01*
X82763Y-56524D01*
X83045Y-56974D02*
X82965Y-57011D01*
X82777Y-57011D01*
X82707Y-56974D01*
X82679Y-56899D01*
X82688Y-56824D01*
X82735Y-56749D01*
X82815Y-56711D01*
X83002Y-56711D01*
X83082Y-56674D01*
X83757Y-56974D02*
X83677Y-57011D01*
X83527Y-57011D01*
X83457Y-56974D01*
X83424Y-56936D01*
X83396Y-56861D01*
X83424Y-56636D01*
X83471Y-56561D01*
X83513Y-56524D01*
X83593Y-56486D01*
X83743Y-56486D01*
X83813Y-56524D01*
X84394Y-56974D02*
X84315Y-57011D01*
X84165Y-57011D01*
X84094Y-56974D01*
X84066Y-56899D01*
X84104Y-56599D01*
X84151Y-56524D01*
X84230Y-56486D01*
X84380Y-56486D01*
X84451Y-56524D01*
X84479Y-56599D01*
X84469Y-56674D01*
X84085Y-56749D01*
X79281Y-58157D02*
X79239Y-58194D01*
X79122Y-58232D01*
X79047Y-58232D01*
X78939Y-58194D01*
X78873Y-58119D01*
X78845Y-58044D01*
X78826Y-57894D01*
X78840Y-57782D01*
X78897Y-57632D01*
X78944Y-57557D01*
X79028Y-57482D01*
X79145Y-57444D01*
X79220Y-57444D01*
X79328Y-57482D01*
X79361Y-57519D01*
X79609Y-58232D02*
X79708Y-57444D01*
X79947Y-58232D02*
X79998Y-57819D01*
X79970Y-57744D01*
X79900Y-57707D01*
X79787Y-57707D01*
X79708Y-57744D01*
X79665Y-57782D01*
X80434Y-58232D02*
X80364Y-58194D01*
X80331Y-58157D01*
X80303Y-58082D01*
X80331Y-57857D01*
X80378Y-57782D01*
X80420Y-57744D01*
X80500Y-57707D01*
X80612Y-57707D01*
X80682Y-57744D01*
X80715Y-57782D01*
X80743Y-57857D01*
X80715Y-58082D01*
X80668Y-58157D01*
X80626Y-58194D01*
X80546Y-58232D01*
X80434Y-58232D01*
X81146Y-58232D02*
X81076Y-58194D01*
X81048Y-58119D01*
X81132Y-57444D01*
X81849Y-57707D02*
X81784Y-58232D01*
X81512Y-57707D02*
X81460Y-58119D01*
X81489Y-58194D01*
X81559Y-58232D01*
X81671Y-58232D01*
X81751Y-58194D01*
X81793Y-58157D01*
X82271Y-58232D02*
X82201Y-58194D01*
X82173Y-58119D01*
X82257Y-57444D01*
X82909Y-58232D02*
X82960Y-57819D01*
X82932Y-57744D01*
X82862Y-57707D01*
X82712Y-57707D01*
X82632Y-57744D01*
X82913Y-58194D02*
X82834Y-58232D01*
X82646Y-58232D01*
X82576Y-58194D01*
X82548Y-58119D01*
X82557Y-58044D01*
X82604Y-57969D01*
X82684Y-57932D01*
X82871Y-57932D01*
X82951Y-57894D01*
G54D12*
X82814Y-55118D03*
X81814Y-55118D03*
X80814Y-55118D03*
X79814Y-55118D03*
X78814Y-55118D03*
X77814Y-55118D03*
G54D13*
X79511Y-42716D03*
G54D14*
X80511Y-42716D03*
G54D15*
X81511Y-42716D03*
G54D14*
X24471Y-51082D03*
X25971Y-50082D03*
G54D13*
X29071Y-51082D03*
X27571Y-50082D03*
G54D16*
X51085Y-54350D03*
G54D17*
X51085Y-55350D03*
X52085Y-55350D03*
G54D18*
X45279Y-47295D03*
G54D19*
X44279Y-47295D03*
X43279Y-47295D03*
X42279Y-47295D03*
X41279Y-47295D03*
X40279Y-47295D03*
X39279Y-47295D03*
X38279Y-47295D03*
X37279Y-47295D03*
X36279Y-47295D03*
X35279Y-47295D03*
X34279Y-47295D03*
X34251Y-48287D03*
X34251Y-49271D03*
X34251Y-51318D03*
X34251Y-52303D03*
X34279Y-53295D03*
X35279Y-53295D03*
X36279Y-53295D03*
X37279Y-53295D03*
X38279Y-53295D03*
X39279Y-53295D03*
X40279Y-53295D03*
X41279Y-53295D03*
X42279Y-53295D03*
X43279Y-53295D03*
X44279Y-53295D03*
X45279Y-53295D03*
G54D20*
X41811Y-52303D03*
X40826Y-52303D03*
X19450Y-52100D03*
X19450Y-51100D03*
G54D21*
X19450Y-50100D03*
G54D22*
X17481Y-51100D03*
G54D17*
X49450Y-35000D03*
X49450Y-32000D03*
X16750Y-35000D03*
X16750Y-32000D03*
X22950Y-35000D03*
X22950Y-32000D03*
X29350Y-35000D03*
X29350Y-32000D03*
X36250Y-35000D03*
X36250Y-32000D03*
X42850Y-35000D03*
X42850Y-32000D03*
X88550Y-35000D03*
X88550Y-32000D03*
X81950Y-35000D03*
X81950Y-32000D03*
X55650Y-35000D03*
X55650Y-32000D03*
X61650Y-35000D03*
X61650Y-32000D03*
X68450Y-35000D03*
X68450Y-32000D03*
G54D23*
X30950Y-35200D03*
X31950Y-35200D03*
X37750Y-35200D03*
X38750Y-35200D03*
X24550Y-35200D03*
X25550Y-35200D03*
X90150Y-35200D03*
X91150Y-35200D03*
X70050Y-35200D03*
X71050Y-35200D03*
X18400Y-35200D03*
X19400Y-35200D03*
X44450Y-35200D03*
X45450Y-35200D03*
X83450Y-35200D03*
X84450Y-35200D03*
X50950Y-35200D03*
X51950Y-35200D03*
X63250Y-35200D03*
X64250Y-35200D03*
X57250Y-35200D03*
X58250Y-35200D03*
G54D16*
X46450Y-27800D03*
G54D17*
X43450Y-27800D03*
G54D16*
X85450Y-27800D03*
G54D17*
X82450Y-27800D03*
G54D16*
X65250Y-27800D03*
G54D17*
X62250Y-27800D03*
G54D16*
X19650Y-27800D03*
G54D17*
X16650Y-27800D03*
G54D16*
X26550Y-27800D03*
G54D17*
X23550Y-27800D03*
G54D16*
X92050Y-27800D03*
G54D17*
X89050Y-27800D03*
G54D16*
X78950Y-27800D03*
G54D17*
X75950Y-27800D03*
G54D16*
X59150Y-27800D03*
G54D17*
X56150Y-27800D03*
G54D16*
X32850Y-27800D03*
G54D17*
X29850Y-27800D03*
G54D16*
X72050Y-27800D03*
G54D17*
X69050Y-27800D03*
G54D16*
X39750Y-27800D03*
G54D17*
X36750Y-27800D03*
G54D16*
X53050Y-27800D03*
G54D17*
X50050Y-27800D03*
G54D20*
X37300Y-30100D03*
X38300Y-30100D03*
G54D21*
X39300Y-30100D03*
G54D20*
X89600Y-30100D03*
X90600Y-30100D03*
G54D21*
X91600Y-30100D03*
G54D20*
X17100Y-30100D03*
X18100Y-30100D03*
G54D21*
X19100Y-30100D03*
G54D20*
X24050Y-30100D03*
X25050Y-30100D03*
G54D21*
X26050Y-30100D03*
G54D20*
X30400Y-30100D03*
X31400Y-30100D03*
G54D21*
X32400Y-30100D03*
G54D20*
X43950Y-30100D03*
X44950Y-30100D03*
G54D21*
X45950Y-30100D03*
G54D20*
X50500Y-30100D03*
X51500Y-30100D03*
G54D21*
X52500Y-30100D03*
G54D20*
X56700Y-30100D03*
X57700Y-30100D03*
G54D21*
X58700Y-30100D03*
G54D20*
X62750Y-30100D03*
X63750Y-30100D03*
G54D21*
X64750Y-30100D03*
G54D20*
X69550Y-30100D03*
X70550Y-30100D03*
G54D21*
X71550Y-30100D03*
G54D20*
X76450Y-30100D03*
X77450Y-30100D03*
G54D21*
X78450Y-30100D03*
G54D20*
X83000Y-30100D03*
X84000Y-30100D03*
G54D21*
X85000Y-30100D03*
G54D16*
X60838Y-52250D03*
G54D17*
X60838Y-51250D03*
X60838Y-50250D03*
X60838Y-49250D03*
X60838Y-48250D03*
X60838Y-47250D03*
X60838Y-46250D03*
X60838Y-45250D03*
X54885Y-45250D03*
X54885Y-46250D03*
X54885Y-47250D03*
X54885Y-48250D03*
X54885Y-49250D03*
X54885Y-50250D03*
X54885Y-51250D03*
X54885Y-52250D03*
G54D16*
X21600Y-50100D03*
G54D17*
X22600Y-50100D03*
G54D16*
X21600Y-47900D03*
G54D17*
X22600Y-47900D03*
G54D24*
X21600Y-45200D03*
G54D25*
X21600Y-46200D03*
G54D26*
X88515Y-37926D03*
X90877Y-37926D03*
X88515Y-39698D03*
X90877Y-39698D03*
X43015Y-37676D03*
X45377Y-37676D03*
X43015Y-39448D03*
X45377Y-39448D03*
X82015Y-37926D03*
X84377Y-37926D03*
X82015Y-39698D03*
X84377Y-39698D03*
X49765Y-37676D03*
X52127Y-37676D03*
X49765Y-39448D03*
X52127Y-39448D03*
X36465Y-37676D03*
X38827Y-37676D03*
X36465Y-39448D03*
X38827Y-39448D03*
X75515Y-37926D03*
X77877Y-37926D03*
X75515Y-39698D03*
X77877Y-39698D03*
X55765Y-37676D03*
X58127Y-37676D03*
X55765Y-39448D03*
X58127Y-39448D03*
X29465Y-37826D03*
X31827Y-37826D03*
X29465Y-39598D03*
X31827Y-39598D03*
X23115Y-37826D03*
X25477Y-37826D03*
X23115Y-39598D03*
X25477Y-39598D03*
X68765Y-37926D03*
X71127Y-37926D03*
X68765Y-39698D03*
X71127Y-39698D03*
X62015Y-37926D03*
X64377Y-37926D03*
X62015Y-39698D03*
X64377Y-39698D03*
X17615Y-37826D03*
X19977Y-37826D03*
X17615Y-39598D03*
X19977Y-39598D03*
G54D17*
X88976Y-48039D03*
X88976Y-47039D03*
X52862Y-52362D03*
X51862Y-52362D03*
G54D16*
X51665Y-57480D03*
G54D17*
X52665Y-57480D03*
G54D27*
X90748Y-46062D03*
G54D28*
X91732Y-46062D03*
G54D27*
X90748Y-49311D03*
G54D28*
X91732Y-49311D03*
G54D17*
X75400Y-34900D03*
X75400Y-31900D03*
G54D14*
X23400Y-24800D03*
X22400Y-24800D03*
X21400Y-24800D03*
G54D13*
X20400Y-24800D03*
G54D14*
X29300Y-24800D03*
X28300Y-24800D03*
X27300Y-24800D03*
G54D13*
X26300Y-24800D03*
G54D14*
X43400Y-24600D03*
X42400Y-24600D03*
X41400Y-24600D03*
G54D13*
X40400Y-24600D03*
G54D14*
X49100Y-24600D03*
X48100Y-24600D03*
X47100Y-24600D03*
G54D13*
X46100Y-24600D03*
G54D14*
X61900Y-24600D03*
X60900Y-24600D03*
X59900Y-24600D03*
G54D13*
X58900Y-24600D03*
G54D14*
X68500Y-24600D03*
X67500Y-24600D03*
X66500Y-24600D03*
G54D13*
X65500Y-24600D03*
G54D14*
X80900Y-24800D03*
X79900Y-24800D03*
X78900Y-24800D03*
G54D13*
X77900Y-24800D03*
G54D14*
X87100Y-24800D03*
X86100Y-24800D03*
X85100Y-24800D03*
G54D13*
X84100Y-24800D03*
G54D16*
X46807Y-42102D03*
G54D17*
X45807Y-42102D03*
X44807Y-42102D03*
X43807Y-42102D03*
X42807Y-42102D03*
X41807Y-42102D03*
X40807Y-42102D03*
X39807Y-42102D03*
X39807Y-45102D03*
X40807Y-45102D03*
X41807Y-45102D03*
X42807Y-45102D03*
X43807Y-45102D03*
X44807Y-45102D03*
X45807Y-45102D03*
X46807Y-45102D03*
G54D16*
X37358Y-42102D03*
G54D17*
X36358Y-42102D03*
X35358Y-42102D03*
X34358Y-42102D03*
X33358Y-42102D03*
X32358Y-42102D03*
X31358Y-42102D03*
X30358Y-42102D03*
X30358Y-45102D03*
X31358Y-45102D03*
X32358Y-45102D03*
X33358Y-45102D03*
X34358Y-45102D03*
X35358Y-45102D03*
X36358Y-45102D03*
X37358Y-45102D03*
G54D26*
X64862Y-46259D03*
X67224Y-46259D03*
X64862Y-48031D03*
X67224Y-48031D03*
X64960Y-50393D03*
X67322Y-50393D03*
X64960Y-52165D03*
X67322Y-52165D03*
X64960Y-54724D03*
X67322Y-54724D03*
X64960Y-56496D03*
X67322Y-56496D03*
G54D16*
X22086Y-51610D03*
G54D17*
X22086Y-54610D03*
G54D24*
X27007Y-43885D03*
G54D25*
X27007Y-42885D03*
G54D24*
X55393Y-42059D03*
G54D25*
X55393Y-43059D03*
G54D24*
X63228Y-42031D03*
G54D25*
X63228Y-43031D03*
X63228Y-44031D03*
G54D16*
X48220Y-50984D03*
G54D17*
X49220Y-50984D03*
G54D16*
X48220Y-53051D03*
G54D17*
X49220Y-53051D03*
G54D23*
X76950Y-35200D03*
X77950Y-35200D03*
G54D29*
X90962Y-57492D03*
X18000Y-57393D03*
X91750Y-25750D03*
X18000Y-25750D03*
G54D16*
X36377Y-56692D03*
G54D17*
X37377Y-56692D03*
X38377Y-56692D03*
X39377Y-56692D03*
X40377Y-56692D03*
X41377Y-56692D03*
X40377Y-55216D03*
X37377Y-55216D03*
G54D30*
X70744Y-50271D03*
G54D31*
X70744Y-51271D03*
X70744Y-52271D03*
X70744Y-53271D03*
X73744Y-53271D03*
X73744Y-52271D03*
X73744Y-51271D03*
X73744Y-50271D03*
G54D30*
X82011Y-49629D03*
G54D31*
X82011Y-48629D03*
X82011Y-47629D03*
X82011Y-46629D03*
X79011Y-46629D03*
X79011Y-47629D03*
X79011Y-48629D03*
X79011Y-49629D03*
G54D27*
X73917Y-47440D03*
G54D28*
X72933Y-47440D03*
G54D27*
X76771Y-52460D03*
G54D28*
X76771Y-51476D03*
G54D17*
X68996Y-49696D03*
X68996Y-50696D03*
X70759Y-55905D03*
X71759Y-55905D03*
X73925Y-55905D03*
X72925Y-55905D03*
X76082Y-47925D03*
X76082Y-48925D03*
X84834Y-44488D03*
X85834Y-44488D03*
X85834Y-43307D03*
X84834Y-43307D03*
X68996Y-52566D03*
X68996Y-51566D03*
X71267Y-48818D03*
X70267Y-48818D03*
G54D32*
X92125Y-43708D03*
X92125Y-42708D03*
X92125Y-52763D03*
X92125Y-51763D03*
G54D33*
X86417Y-45850D03*
G54D34*
X86417Y-46850D03*
X86417Y-47850D03*
G54D27*
X81102Y-51968D03*
G54D28*
X80118Y-51968D03*
G54D17*
X83464Y-44397D03*
X83464Y-43397D03*
X84751Y-46161D03*
X83751Y-46161D03*
X84751Y-47834D03*
X83751Y-47834D03*
X77460Y-46744D03*
X77460Y-47744D03*
X24409Y-46940D03*
X24409Y-47940D03*
X27362Y-46940D03*
X27362Y-47940D03*
X45472Y-56192D03*
X45472Y-57192D03*
X44291Y-57291D03*
X44291Y-56291D03*
X43307Y-56192D03*
X43307Y-57192D03*
G54D13*
X70751Y-42716D03*
G54D14*
X71751Y-42716D03*
G54D15*
X72751Y-42716D03*
G54D16*
X54913Y-55511D03*
G54D17*
X55913Y-55511D03*
M02*
