G04 (created by PCBNEW (2013-07-07 BZR 4022)-stable) date 04/11/2014 12:21:28*
%MOIN*%
G04 Gerber Fmt 3.4, Leading zero omitted, Abs format*
%FSLAX34Y34*%
G01*
G70*
G90*
G04 APERTURE LIST*
%ADD10C,0.00590551*%
%ADD11R,0.06X0.12*%
%ADD12O,0.06X0.12*%
%ADD13O,0.06X0.13*%
%ADD14R,0.055X0.055*%
%ADD15C,0.055*%
%ADD16R,0.065X0.065*%
%ADD17C,0.065*%
%ADD18C,0.07*%
%ADD19R,0.07X0.07*%
%ADD20R,0.12X0.12*%
%ADD21C,0.066*%
%ADD22R,0.06X0.06*%
%ADD23C,0.06*%
%ADD24C,0.0787402*%
%ADD25R,0.0393701X0.0393701*%
%ADD26C,0.0472441*%
%ADD27C,0.137795*%
%ADD28R,0.09X0.062*%
%ADD29O,0.09X0.062*%
%ADD30R,0.08X0.08*%
%ADD31C,0.08*%
G04 APERTURE END LIST*
G54D10*
%LPC*%
G54D11*
X79511Y-42716D03*
G54D12*
X80511Y-42716D03*
G54D13*
X81511Y-42716D03*
G54D12*
X24471Y-51082D03*
X25971Y-50082D03*
G54D11*
X29071Y-51082D03*
X27571Y-50082D03*
G54D14*
X51085Y-54350D03*
G54D15*
X51085Y-55350D03*
X52085Y-55350D03*
G54D16*
X45279Y-47295D03*
G54D17*
X44279Y-47295D03*
X43279Y-47295D03*
X42279Y-47295D03*
X41279Y-47295D03*
X40279Y-47295D03*
X39279Y-47295D03*
X38279Y-47295D03*
X37279Y-47295D03*
X36279Y-47295D03*
X35279Y-47295D03*
X34279Y-47295D03*
X34251Y-48287D03*
X34251Y-49271D03*
X34251Y-51318D03*
X34251Y-52303D03*
X34279Y-53295D03*
X35279Y-53295D03*
X36279Y-53295D03*
X37279Y-53295D03*
X38279Y-53295D03*
X39279Y-53295D03*
X40279Y-53295D03*
X41279Y-53295D03*
X42279Y-53295D03*
X43279Y-53295D03*
X44279Y-53295D03*
X45279Y-53295D03*
G54D18*
X41811Y-52303D03*
X40826Y-52303D03*
X19450Y-52100D03*
X19450Y-51100D03*
G54D19*
X19450Y-50100D03*
G54D20*
X17481Y-51100D03*
G54D15*
X49450Y-35000D03*
X49450Y-32000D03*
X16750Y-35000D03*
X16750Y-32000D03*
X22950Y-35000D03*
X22950Y-32000D03*
X29350Y-35000D03*
X29350Y-32000D03*
X36250Y-35000D03*
X36250Y-32000D03*
X42850Y-35000D03*
X42850Y-32000D03*
X88550Y-35000D03*
X88550Y-32000D03*
X81950Y-35000D03*
X81950Y-32000D03*
X55650Y-35000D03*
X55650Y-32000D03*
X61650Y-35000D03*
X61650Y-32000D03*
X68450Y-35000D03*
X68450Y-32000D03*
G54D21*
X30950Y-35200D03*
X31950Y-35200D03*
X37750Y-35200D03*
X38750Y-35200D03*
X24550Y-35200D03*
X25550Y-35200D03*
X90150Y-35200D03*
X91150Y-35200D03*
X70050Y-35200D03*
X71050Y-35200D03*
X18400Y-35200D03*
X19400Y-35200D03*
X44450Y-35200D03*
X45450Y-35200D03*
X83450Y-35200D03*
X84450Y-35200D03*
X50950Y-35200D03*
X51950Y-35200D03*
X63250Y-35200D03*
X64250Y-35200D03*
X57250Y-35200D03*
X58250Y-35200D03*
G54D14*
X46450Y-27800D03*
G54D15*
X43450Y-27800D03*
G54D14*
X85450Y-27800D03*
G54D15*
X82450Y-27800D03*
G54D14*
X65250Y-27800D03*
G54D15*
X62250Y-27800D03*
G54D14*
X19650Y-27800D03*
G54D15*
X16650Y-27800D03*
G54D14*
X26550Y-27800D03*
G54D15*
X23550Y-27800D03*
G54D14*
X92050Y-27800D03*
G54D15*
X89050Y-27800D03*
G54D14*
X78950Y-27800D03*
G54D15*
X75950Y-27800D03*
G54D14*
X59150Y-27800D03*
G54D15*
X56150Y-27800D03*
G54D14*
X32850Y-27800D03*
G54D15*
X29850Y-27800D03*
G54D14*
X72050Y-27800D03*
G54D15*
X69050Y-27800D03*
G54D14*
X39750Y-27800D03*
G54D15*
X36750Y-27800D03*
G54D14*
X53050Y-27800D03*
G54D15*
X50050Y-27800D03*
G54D18*
X37300Y-30100D03*
X38300Y-30100D03*
G54D19*
X39300Y-30100D03*
G54D18*
X89600Y-30100D03*
X90600Y-30100D03*
G54D19*
X91600Y-30100D03*
G54D18*
X17100Y-30100D03*
X18100Y-30100D03*
G54D19*
X19100Y-30100D03*
G54D18*
X24050Y-30100D03*
X25050Y-30100D03*
G54D19*
X26050Y-30100D03*
G54D18*
X30400Y-30100D03*
X31400Y-30100D03*
G54D19*
X32400Y-30100D03*
G54D18*
X43950Y-30100D03*
X44950Y-30100D03*
G54D19*
X45950Y-30100D03*
G54D18*
X50500Y-30100D03*
X51500Y-30100D03*
G54D19*
X52500Y-30100D03*
G54D18*
X56700Y-30100D03*
X57700Y-30100D03*
G54D19*
X58700Y-30100D03*
G54D18*
X62750Y-30100D03*
X63750Y-30100D03*
G54D19*
X64750Y-30100D03*
G54D18*
X69550Y-30100D03*
X70550Y-30100D03*
G54D19*
X71550Y-30100D03*
G54D18*
X76450Y-30100D03*
X77450Y-30100D03*
G54D19*
X78450Y-30100D03*
G54D18*
X83000Y-30100D03*
X84000Y-30100D03*
G54D19*
X85000Y-30100D03*
G54D14*
X60838Y-52250D03*
G54D15*
X60838Y-51250D03*
X60838Y-50250D03*
X60838Y-49250D03*
X60838Y-48250D03*
X60838Y-47250D03*
X60838Y-46250D03*
X60838Y-45250D03*
X54885Y-45250D03*
X54885Y-46250D03*
X54885Y-47250D03*
X54885Y-48250D03*
X54885Y-49250D03*
X54885Y-50250D03*
X54885Y-51250D03*
X54885Y-52250D03*
G54D14*
X21600Y-50100D03*
G54D15*
X22600Y-50100D03*
G54D14*
X21600Y-47900D03*
G54D15*
X22600Y-47900D03*
G54D22*
X21600Y-45200D03*
G54D23*
X21600Y-46200D03*
G54D24*
X88515Y-37926D03*
X90877Y-37926D03*
X88515Y-39698D03*
X90877Y-39698D03*
X43015Y-37676D03*
X45377Y-37676D03*
X43015Y-39448D03*
X45377Y-39448D03*
X82015Y-37926D03*
X84377Y-37926D03*
X82015Y-39698D03*
X84377Y-39698D03*
X49765Y-37676D03*
X52127Y-37676D03*
X49765Y-39448D03*
X52127Y-39448D03*
X36465Y-37676D03*
X38827Y-37676D03*
X36465Y-39448D03*
X38827Y-39448D03*
X75515Y-37926D03*
X77877Y-37926D03*
X75515Y-39698D03*
X77877Y-39698D03*
X55765Y-37676D03*
X58127Y-37676D03*
X55765Y-39448D03*
X58127Y-39448D03*
X29465Y-37826D03*
X31827Y-37826D03*
X29465Y-39598D03*
X31827Y-39598D03*
X23115Y-37826D03*
X25477Y-37826D03*
X23115Y-39598D03*
X25477Y-39598D03*
X68765Y-37926D03*
X71127Y-37926D03*
X68765Y-39698D03*
X71127Y-39698D03*
X62015Y-37926D03*
X64377Y-37926D03*
X62015Y-39698D03*
X64377Y-39698D03*
X17615Y-37826D03*
X19977Y-37826D03*
X17615Y-39598D03*
X19977Y-39598D03*
G54D15*
X88976Y-48039D03*
X88976Y-47039D03*
X52862Y-52362D03*
X51862Y-52362D03*
G54D14*
X51665Y-57480D03*
G54D15*
X52665Y-57480D03*
G54D25*
X90748Y-46062D03*
G54D26*
X91732Y-46062D03*
G54D25*
X90748Y-49311D03*
G54D26*
X91732Y-49311D03*
G54D15*
X75400Y-34900D03*
X75400Y-31900D03*
G54D12*
X23400Y-24800D03*
X22400Y-24800D03*
X21400Y-24800D03*
G54D11*
X20400Y-24800D03*
G54D12*
X29300Y-24800D03*
X28300Y-24800D03*
X27300Y-24800D03*
G54D11*
X26300Y-24800D03*
G54D12*
X43400Y-24600D03*
X42400Y-24600D03*
X41400Y-24600D03*
G54D11*
X40400Y-24600D03*
G54D12*
X49100Y-24600D03*
X48100Y-24600D03*
X47100Y-24600D03*
G54D11*
X46100Y-24600D03*
G54D12*
X61900Y-24600D03*
X60900Y-24600D03*
X59900Y-24600D03*
G54D11*
X58900Y-24600D03*
G54D12*
X68500Y-24600D03*
X67500Y-24600D03*
X66500Y-24600D03*
G54D11*
X65500Y-24600D03*
G54D12*
X80900Y-24800D03*
X79900Y-24800D03*
X78900Y-24800D03*
G54D11*
X77900Y-24800D03*
G54D12*
X87100Y-24800D03*
X86100Y-24800D03*
X85100Y-24800D03*
G54D11*
X84100Y-24800D03*
G54D14*
X46807Y-42102D03*
G54D15*
X45807Y-42102D03*
X44807Y-42102D03*
X43807Y-42102D03*
X42807Y-42102D03*
X41807Y-42102D03*
X40807Y-42102D03*
X39807Y-42102D03*
X39807Y-45102D03*
X40807Y-45102D03*
X41807Y-45102D03*
X42807Y-45102D03*
X43807Y-45102D03*
X44807Y-45102D03*
X45807Y-45102D03*
X46807Y-45102D03*
G54D14*
X37358Y-42102D03*
G54D15*
X36358Y-42102D03*
X35358Y-42102D03*
X34358Y-42102D03*
X33358Y-42102D03*
X32358Y-42102D03*
X31358Y-42102D03*
X30358Y-42102D03*
X30358Y-45102D03*
X31358Y-45102D03*
X32358Y-45102D03*
X33358Y-45102D03*
X34358Y-45102D03*
X35358Y-45102D03*
X36358Y-45102D03*
X37358Y-45102D03*
G54D24*
X64862Y-46259D03*
X67224Y-46259D03*
X64862Y-48031D03*
X67224Y-48031D03*
X64960Y-50393D03*
X67322Y-50393D03*
X64960Y-52165D03*
X67322Y-52165D03*
X64960Y-54724D03*
X67322Y-54724D03*
X64960Y-56496D03*
X67322Y-56496D03*
G54D14*
X22086Y-51610D03*
G54D15*
X22086Y-54610D03*
G54D22*
X27007Y-43885D03*
G54D23*
X27007Y-42885D03*
G54D22*
X55393Y-42059D03*
G54D23*
X55393Y-43059D03*
G54D22*
X63228Y-42031D03*
G54D23*
X63228Y-43031D03*
X63228Y-44031D03*
G54D14*
X48220Y-50984D03*
G54D15*
X49220Y-50984D03*
G54D14*
X48220Y-53051D03*
G54D15*
X49220Y-53051D03*
G54D21*
X76950Y-35200D03*
X77950Y-35200D03*
G54D27*
X90962Y-57492D03*
X18000Y-57393D03*
X91750Y-25750D03*
X18000Y-25750D03*
G54D14*
X36377Y-56692D03*
G54D15*
X37377Y-56692D03*
X38377Y-56692D03*
X39377Y-56692D03*
X40377Y-56692D03*
X41377Y-56692D03*
X40377Y-55216D03*
X37377Y-55216D03*
G54D28*
X70744Y-50271D03*
G54D29*
X70744Y-51271D03*
X70744Y-52271D03*
X70744Y-53271D03*
X73744Y-53271D03*
X73744Y-52271D03*
X73744Y-51271D03*
X73744Y-50271D03*
G54D28*
X82011Y-49629D03*
G54D29*
X82011Y-48629D03*
X82011Y-47629D03*
X82011Y-46629D03*
X79011Y-46629D03*
X79011Y-47629D03*
X79011Y-48629D03*
X79011Y-49629D03*
G54D25*
X73917Y-47440D03*
G54D26*
X72933Y-47440D03*
G54D25*
X76771Y-52460D03*
G54D26*
X76771Y-51476D03*
G54D15*
X68996Y-49696D03*
X68996Y-50696D03*
X70759Y-55905D03*
X71759Y-55905D03*
X73925Y-55905D03*
X72925Y-55905D03*
X76082Y-47925D03*
X76082Y-48925D03*
X84834Y-44488D03*
X85834Y-44488D03*
X85834Y-43307D03*
X84834Y-43307D03*
X68996Y-52566D03*
X68996Y-51566D03*
X71267Y-48818D03*
X70267Y-48818D03*
G54D30*
X86417Y-45850D03*
G54D31*
X86417Y-46850D03*
X86417Y-47850D03*
G54D25*
X81102Y-51968D03*
G54D26*
X80118Y-51968D03*
G54D15*
X83464Y-44397D03*
X83464Y-43397D03*
X84751Y-46161D03*
X83751Y-46161D03*
X84751Y-47834D03*
X83751Y-47834D03*
X77460Y-46744D03*
X77460Y-47744D03*
X24409Y-46940D03*
X24409Y-47940D03*
X27362Y-46940D03*
X27362Y-47940D03*
X45472Y-56192D03*
X45472Y-57192D03*
X44291Y-57291D03*
X44291Y-56291D03*
X43307Y-56192D03*
X43307Y-57192D03*
G54D11*
X70751Y-42716D03*
G54D12*
X71751Y-42716D03*
G54D13*
X72751Y-42716D03*
G54D14*
X54913Y-55511D03*
G54D15*
X55913Y-55511D03*
M02*
