M48
INCH,TZ
T1C0.025
T2C0.031
T3C0.032
T4C0.039
T5C0.040
T6C0.047
T7C0.100
T8C0.138
%
G90
G05
T1
X21161Y-40748
X36122Y-45866
X36220Y-46358
X36811Y-43406
X37106Y-43996
X40551Y-50295
X45669Y-43799
X46260Y-48031
X47343Y-48425
X52165Y-45276
X52165Y-46654
X55807Y-51476
X55906Y-50098
X61575Y-48071
X61850Y-45394
X62323Y-48268
X62323Y-49409
X62756Y-45866
X70571Y-46260
X74606Y-53740
X75787Y-54331
X76378Y-53937
X76575Y-53346
X82874Y-52756
X82874Y-53937
T2
X72933Y-47441
X73917Y-47441
X76772Y-51476
X76772Y-52461
X80118Y-51969
X81102Y-51969
X90748Y-46063
X90748Y-49311
X91732Y-46063
X91732Y-49311
T3
X16650Y-27800
X16750Y-32000
X16750Y-35000
X18400Y-35200
X19400Y-35200
X19650Y-27800
X21600Y-47900
X21600Y-50100
X22087Y-51610
X22087Y-54610
X22600Y-47900
X22600Y-50100
X22950Y-32000
X22950Y-35000
X23550Y-27800
X24409Y-46941
X24409Y-47941
X24550Y-35200
X25550Y-35200
X26550Y-27800
X27362Y-46941
X27362Y-47941
X29350Y-32000
X29350Y-35000
X29850Y-27800
X30358Y-42102
X30358Y-45102
X30950Y-35200
X31358Y-42102
X31358Y-45102
X31950Y-35200
X32358Y-42102
X32358Y-45102
X32850Y-27800
X33358Y-42102
X33358Y-45102
X34358Y-42102
X34358Y-45102
X35358Y-42102
X35358Y-45102
X36250Y-32000
X36250Y-35000
X36358Y-42102
X36358Y-45102
X36378Y-56693
X36750Y-27800
X37358Y-42102
X37358Y-45102
X37378Y-55217
X37378Y-56693
X37750Y-35200
X38378Y-56693
X38750Y-35200
X39378Y-56693
X39750Y-27800
X39807Y-42102
X39807Y-45102
X40378Y-55217
X40378Y-56693
X40807Y-42102
X40807Y-45102
X41378Y-56693
X41807Y-42102
X41807Y-45102
X42807Y-42102
X42807Y-45102
X42850Y-32000
X42850Y-35000
X43307Y-56193
X43307Y-57193
X43450Y-27800
X43807Y-42102
X43807Y-45102
X44291Y-56291
X44291Y-57291
X44450Y-35200
X44807Y-42102
X44807Y-45102
X45450Y-35200
X45472Y-56193
X45472Y-57193
X45807Y-42102
X45807Y-45102
X46450Y-27800
X46807Y-42102
X46807Y-45102
X48220Y-50984
X48220Y-53051
X49220Y-50984
X49220Y-53051
X49450Y-32000
X49450Y-35000
X50050Y-27800
X50950Y-35200
X51086Y-54350
X51086Y-55350
X51665Y-57480
X51862Y-52362
X51950Y-35200
X52086Y-55350
X52665Y-57480
X52862Y-52362
X53050Y-27800
X54886Y-45250
X54886Y-46250
X54886Y-47250
X54886Y-48250
X54886Y-49250
X54886Y-50250
X54886Y-51250
X54886Y-52250
X54913Y-55512
X55650Y-32000
X55650Y-35000
X55913Y-55512
X56150Y-27800
X57250Y-35200
X58250Y-35200
X59150Y-27800
X60839Y-45250
X60839Y-46250
X60839Y-47250
X60839Y-48250
X60839Y-49250
X60839Y-50250
X60839Y-51250
X60839Y-52250
X61650Y-32000
X61650Y-35000
X62250Y-27800
X63250Y-35200
X64250Y-35200
X65250Y-27800
X68450Y-32000
X68450Y-35000
X68996Y-49697
X68996Y-50697
X68996Y-51567
X68996Y-52567
X69050Y-27800
X70050Y-35200
X70268Y-48819
X70744Y-50272
X70744Y-51272
X70744Y-52272
X70744Y-53272
X70760Y-55906
X71050Y-35200
X71268Y-48819
X71760Y-55906
X72050Y-27800
X72925Y-55906
X73744Y-50272
X73744Y-51272
X73744Y-52272
X73744Y-53272
X73925Y-55906
X75400Y-31900
X75400Y-34900
X75950Y-27800
X76083Y-47925
X76083Y-48925
X76950Y-35200
X77461Y-46744
X77461Y-47744
X77950Y-35200
X78950Y-27800
X79012Y-46630
X79012Y-47630
X79012Y-48630
X79012Y-49630
X81950Y-32000
X81950Y-35000
X82012Y-46630
X82012Y-47630
X82012Y-48630
X82012Y-49630
X82450Y-27800
X83450Y-35200
X83465Y-43398
X83465Y-44398
X83752Y-46161
X83752Y-47835
X84450Y-35200
X84752Y-46161
X84752Y-47835
X84835Y-43307
X84835Y-44488
X85450Y-27800
X85835Y-43307
X85835Y-44488
X88550Y-32000
X88550Y-35000
X88976Y-47039
X88976Y-48039
X89050Y-27800
X90150Y-35200
X91150Y-35200
X92050Y-27800
T4
X77815Y-55118
X78815Y-55118
X79815Y-55118
X80815Y-55118
X81815Y-55118
X82815Y-55118
X92126Y-42709
X92126Y-43709
X92126Y-51764
X92126Y-52764
T5
X17100Y-30100
X18100Y-30100
X19100Y-30100
X19450Y-50100
X19450Y-51100
X19450Y-52100
X20400Y-24800
X21400Y-24800
X21600Y-45200
X21600Y-46200
X22400Y-24800
X23400Y-24800
X24050Y-30100
X24472Y-51083
X25050Y-30100
X25972Y-50083
X26050Y-30100
X26300Y-24800
X27008Y-42886
X27008Y-43886
X27300Y-24800
X27572Y-50083
X28300Y-24800
X29072Y-51083
X29300Y-24800
X30400Y-30100
X31400Y-30100
X32400Y-30100
X34252Y-48287
X34252Y-49272
X34252Y-51319
X34252Y-52303
X34280Y-47295
X34280Y-53295
X35280Y-47295
X35280Y-53295
X36280Y-47295
X36280Y-53295
X37280Y-47295
X37280Y-53295
X37300Y-30100
X38280Y-47295
X38280Y-53295
X38300Y-30100
X39280Y-47295
X39280Y-53295
X39300Y-30100
X40280Y-47295
X40280Y-53295
X40400Y-24600
X40827Y-52303
X41280Y-47295
X41280Y-53295
X41400Y-24600
X41811Y-52303
X42280Y-47295
X42280Y-53295
X42400Y-24600
X43280Y-47295
X43280Y-53295
X43400Y-24600
X43950Y-30100
X44280Y-47295
X44280Y-53295
X44950Y-30100
X45280Y-47295
X45280Y-53295
X45950Y-30100
X46100Y-24600
X47100Y-24600
X48100Y-24600
X49100Y-24600
X50500Y-30100
X51500Y-30100
X52500Y-30100
X55394Y-42059
X55394Y-43059
X56700Y-30100
X57700Y-30100
X58700Y-30100
X58900Y-24600
X59900Y-24600
X60900Y-24600
X61900Y-24600
X62750Y-30100
X63228Y-42031
X63228Y-43031
X63228Y-44031
X63750Y-30100
X64750Y-30100
X65500Y-24600
X66500Y-24600
X67500Y-24600
X68500Y-24600
X69550Y-30100
X70550Y-30100
X70752Y-42717
X71550Y-30100
X71752Y-42717
X72752Y-42717
X76450Y-30100
X77450Y-30100
X77900Y-24800
X78450Y-30100
X78900Y-24800
X79512Y-42717
X79900Y-24800
X80512Y-42717
X80900Y-24800
X81512Y-42717
X83000Y-30100
X84000Y-30100
X84100Y-24800
X85000Y-30100
X85100Y-24800
X86100Y-24800
X86417Y-45850
X86417Y-46850
X86417Y-47850
X87100Y-24800
X89600Y-30100
X90600Y-30100
X91600Y-30100
T6
X17616Y-37826
X17616Y-39598
X19978Y-37826
X19978Y-39598
X23116Y-37826
X23116Y-39598
X25478Y-37826
X25478Y-39598
X29466Y-37826
X29466Y-39598
X31828Y-37826
X31828Y-39598
X36466Y-37676
X36466Y-39448
X38828Y-37676
X38828Y-39448
X43016Y-37676
X43016Y-39448
X45378Y-37676
X45378Y-39448
X49766Y-37676
X49766Y-39448
X52128Y-37676
X52128Y-39448
X55766Y-37676
X55766Y-39448
X58128Y-37676
X58128Y-39448
X62016Y-37926
X62016Y-39698
X64378Y-37926
X64378Y-39698
X64862Y-46260
X64862Y-48031
X64961Y-50394
X64961Y-52165
X64961Y-54724
X64961Y-56496
X67224Y-46260
X67224Y-48031
X67323Y-50394
X67323Y-52165
X67323Y-54724
X67323Y-56496
X68766Y-37926
X68766Y-39698
X71128Y-37926
X71128Y-39698
X75516Y-37926
X75516Y-39698
X77878Y-37926
X77878Y-39698
X82016Y-37926
X82016Y-39698
X84378Y-37926
X84378Y-39698
X88516Y-37926
X88516Y-39698
X90878Y-37926
X90878Y-39698
T7
X17481Y-51100
T8
X18000Y-25750
X18000Y-57394
X90963Y-57492
X91750Y-25750
T0
M30
