G04 (created by PCBNEW (2013-07-07 BZR 4022)-stable) date 14/10/2014 12:54:11*
%MOIN*%
G04 Gerber Fmt 3.4, Leading zero omitted, Abs format*
%FSLAX34Y34*%
G01*
G70*
G90*
G04 APERTURE LIST*
%ADD10C,0.00590551*%
%ADD11C,0.011811*%
%ADD12C,0.00787402*%
%ADD13C,0.00984252*%
%ADD14C,0.006*%
%ADD15C,0.012*%
%ADD16C,0.015*%
%ADD17C,0.008*%
%ADD18C,0.003*%
%ADD19C,0.01*%
%ADD20C,0.005*%
%ADD21C,0.0035*%
%ADD22C,0.01125*%
%ADD23C,0.0075*%
%ADD24C,0.0107*%
%ADD25O,0.0593X0.1187*%
%ADD26R,0.06X0.12*%
%ADD27O,0.06X0.12*%
%ADD28O,0.06X0.13*%
%ADD29R,0.055X0.055*%
%ADD30C,0.055*%
%ADD31R,0.065X0.065*%
%ADD32C,0.065*%
%ADD33C,0.07*%
%ADD34R,0.07X0.07*%
%ADD35R,0.12X0.12*%
%ADD36C,0.066*%
%ADD37R,0.06X0.06*%
%ADD38C,0.06*%
%ADD39C,0.0787402*%
%ADD40R,0.0393701X0.0393701*%
%ADD41C,0.0472441*%
%ADD42C,0.137795*%
%ADD43R,0.09X0.062*%
%ADD44O,0.09X0.062*%
%ADD45O,0.1187X0.0593*%
%ADD46R,0.08X0.08*%
%ADD47C,0.08*%
G04 APERTURE END LIST*
G54D10*
G54D11*
X83582Y-55357D02*
X83582Y-54766D01*
X83807Y-54766D01*
X83863Y-54794D01*
X83892Y-54822D01*
X83920Y-54879D01*
X83920Y-54963D01*
X83892Y-55019D01*
X83863Y-55047D01*
X83807Y-55075D01*
X83582Y-55075D01*
X84173Y-55357D02*
X84173Y-54963D01*
X84173Y-55075D02*
X84201Y-55019D01*
X84229Y-54991D01*
X84285Y-54963D01*
X84341Y-54963D01*
X84763Y-55329D02*
X84707Y-55357D01*
X84595Y-55357D01*
X84538Y-55329D01*
X84510Y-55272D01*
X84510Y-55047D01*
X84538Y-54991D01*
X84595Y-54963D01*
X84707Y-54963D01*
X84763Y-54991D01*
X84791Y-55047D01*
X84791Y-55104D01*
X84510Y-55160D01*
G54D10*
X81674Y-54000D02*
X81655Y-54038D01*
X81655Y-54094D01*
X81674Y-54150D01*
X81711Y-54188D01*
X81749Y-54206D01*
X81824Y-54225D01*
X81880Y-54225D01*
X81955Y-54206D01*
X81992Y-54188D01*
X82030Y-54150D01*
X82049Y-54094D01*
X82049Y-54056D01*
X82030Y-54000D01*
X82011Y-53982D01*
X81880Y-53982D01*
X81880Y-54056D01*
X82049Y-53813D02*
X81655Y-53813D01*
X82049Y-53588D01*
X81655Y-53588D01*
X82049Y-53400D02*
X81655Y-53400D01*
X81655Y-53307D01*
X81674Y-53250D01*
X81711Y-53213D01*
X81749Y-53194D01*
X81824Y-53175D01*
X81880Y-53175D01*
X81955Y-53194D01*
X81992Y-53213D01*
X82030Y-53250D01*
X82049Y-53307D01*
X82049Y-53400D01*
X80556Y-53702D02*
X80688Y-54096D01*
X80819Y-53702D01*
X80950Y-54096D02*
X80950Y-53702D01*
X80950Y-53852D02*
X80988Y-53833D01*
X81062Y-53833D01*
X81100Y-53852D01*
X81119Y-53871D01*
X81137Y-53908D01*
X81137Y-54021D01*
X81119Y-54058D01*
X81100Y-54077D01*
X81062Y-54096D01*
X80988Y-54096D01*
X80950Y-54077D01*
G54D11*
X79617Y-53951D02*
X80067Y-53951D01*
X78593Y-53951D02*
X79043Y-53951D01*
X78818Y-54176D02*
X78818Y-53726D01*
X75885Y-54766D02*
X75998Y-54766D01*
X76054Y-54794D01*
X76110Y-54850D01*
X76138Y-54963D01*
X76138Y-55160D01*
X76110Y-55272D01*
X76054Y-55329D01*
X75998Y-55357D01*
X75885Y-55357D01*
X75829Y-55329D01*
X75773Y-55272D01*
X75745Y-55160D01*
X75745Y-54963D01*
X75773Y-54850D01*
X75829Y-54794D01*
X75885Y-54766D01*
X76645Y-54963D02*
X76645Y-55357D01*
X76392Y-54963D02*
X76392Y-55272D01*
X76420Y-55329D01*
X76476Y-55357D01*
X76560Y-55357D01*
X76616Y-55329D01*
X76645Y-55300D01*
X76841Y-54963D02*
X77066Y-54963D01*
X76926Y-54766D02*
X76926Y-55272D01*
X76954Y-55329D01*
X77010Y-55357D01*
X77066Y-55357D01*
X72494Y-56249D02*
X72216Y-56806D01*
X72772Y-56527D01*
X72494Y-57084D02*
X72912Y-56667D01*
X72753Y-56826D02*
X72812Y-56845D01*
X72892Y-56925D01*
X72912Y-56985D01*
X72912Y-57024D01*
X72892Y-57084D01*
X72772Y-57203D01*
X72713Y-57223D01*
X72673Y-57223D01*
X72613Y-57203D01*
X72534Y-57124D01*
X72514Y-57064D01*
X72872Y-57462D02*
X73150Y-57184D01*
X73289Y-57044D02*
X73250Y-57044D01*
X73250Y-57084D01*
X73289Y-57084D01*
X73289Y-57044D01*
X73250Y-57084D01*
X73250Y-57840D02*
X73468Y-57621D01*
X73488Y-57561D01*
X73468Y-57502D01*
X73389Y-57422D01*
X73329Y-57402D01*
X73270Y-57820D02*
X73210Y-57800D01*
X73111Y-57701D01*
X73091Y-57641D01*
X73111Y-57581D01*
X73150Y-57541D01*
X73210Y-57522D01*
X73270Y-57541D01*
X73369Y-57641D01*
X73429Y-57661D01*
X73449Y-57999D02*
X73468Y-58058D01*
X73548Y-58138D01*
X73608Y-58158D01*
X73667Y-58138D01*
X73687Y-58118D01*
X73707Y-58058D01*
X73687Y-57999D01*
X73628Y-57939D01*
X73608Y-57880D01*
X73628Y-57820D01*
X73647Y-57800D01*
X73707Y-57780D01*
X73767Y-57800D01*
X73826Y-57860D01*
X73846Y-57919D01*
X72595Y-50520D02*
X72595Y-50857D01*
X72005Y-50688D02*
X72595Y-50688D01*
X72005Y-51335D02*
X72005Y-51054D01*
X72595Y-51054D01*
X72595Y-51645D02*
X72595Y-51701D01*
X72567Y-51757D01*
X72539Y-51785D01*
X72483Y-51813D01*
X72370Y-51841D01*
X72230Y-51841D01*
X72117Y-51813D01*
X72061Y-51785D01*
X72033Y-51757D01*
X72005Y-51701D01*
X72005Y-51645D01*
X72033Y-51588D01*
X72061Y-51560D01*
X72117Y-51532D01*
X72230Y-51504D01*
X72370Y-51504D01*
X72483Y-51532D01*
X72539Y-51560D01*
X72567Y-51588D01*
X72595Y-51645D01*
X72595Y-52038D02*
X72595Y-52432D01*
X72005Y-52179D01*
X72539Y-52629D02*
X72567Y-52657D01*
X72595Y-52713D01*
X72595Y-52854D01*
X72567Y-52910D01*
X72539Y-52938D01*
X72483Y-52966D01*
X72426Y-52966D01*
X72342Y-52938D01*
X72005Y-52601D01*
X72005Y-52966D01*
X80075Y-47033D02*
X80075Y-46751D01*
X80666Y-46751D01*
X80075Y-47230D02*
X80666Y-47230D01*
X80244Y-47426D01*
X80666Y-47623D01*
X80075Y-47623D01*
X80666Y-47848D02*
X80666Y-48214D01*
X80441Y-48017D01*
X80441Y-48101D01*
X80413Y-48158D01*
X80385Y-48186D01*
X80329Y-48214D01*
X80188Y-48214D01*
X80132Y-48186D01*
X80104Y-48158D01*
X80075Y-48101D01*
X80075Y-47933D01*
X80104Y-47876D01*
X80132Y-47848D01*
X80413Y-48551D02*
X80441Y-48495D01*
X80469Y-48467D01*
X80525Y-48439D01*
X80553Y-48439D01*
X80610Y-48467D01*
X80638Y-48495D01*
X80666Y-48551D01*
X80666Y-48664D01*
X80638Y-48720D01*
X80610Y-48748D01*
X80553Y-48776D01*
X80525Y-48776D01*
X80469Y-48748D01*
X80441Y-48720D01*
X80413Y-48664D01*
X80413Y-48551D01*
X80385Y-48495D01*
X80357Y-48467D01*
X80300Y-48439D01*
X80188Y-48439D01*
X80132Y-48467D01*
X80104Y-48495D01*
X80075Y-48551D01*
X80075Y-48664D01*
X80104Y-48720D01*
X80132Y-48748D01*
X80188Y-48776D01*
X80300Y-48776D01*
X80357Y-48748D01*
X80385Y-48720D01*
X80413Y-48664D01*
X80666Y-49282D02*
X80666Y-49170D01*
X80638Y-49114D01*
X80610Y-49086D01*
X80525Y-49029D01*
X80413Y-49001D01*
X80188Y-49001D01*
X80132Y-49029D01*
X80104Y-49057D01*
X80075Y-49114D01*
X80075Y-49226D01*
X80104Y-49282D01*
X80132Y-49311D01*
X80188Y-49339D01*
X80329Y-49339D01*
X80385Y-49311D01*
X80413Y-49282D01*
X80441Y-49226D01*
X80441Y-49114D01*
X80413Y-49057D01*
X80385Y-49029D01*
X80329Y-49001D01*
G54D12*
X23425Y-53740D02*
X23425Y-50393D01*
X30118Y-53740D02*
X23425Y-53740D01*
X30118Y-50393D02*
X30118Y-53740D01*
X28740Y-49015D02*
X30118Y-50393D01*
X24803Y-49015D02*
X28740Y-49015D01*
X23425Y-50393D02*
X24803Y-49015D01*
X25590Y-49212D02*
X26377Y-49212D01*
X29527Y-51968D02*
X29921Y-51574D01*
X28740Y-51968D02*
X29527Y-51968D01*
X28346Y-51574D02*
X28740Y-51968D01*
X27952Y-50984D02*
X28346Y-50590D01*
X27165Y-50984D02*
X27952Y-50984D01*
X26771Y-50590D02*
X27165Y-50984D01*
X26377Y-49212D02*
X26771Y-49606D01*
X25196Y-49606D02*
X25590Y-49212D01*
X24803Y-50196D02*
X25196Y-50590D01*
X24212Y-50196D02*
X24803Y-50196D01*
X23818Y-50590D02*
X24212Y-50196D01*
G54D11*
X90050Y-53007D02*
X90069Y-53067D01*
X90129Y-53126D01*
X90209Y-53166D01*
X90288Y-53166D01*
X90348Y-53146D01*
X90447Y-53087D01*
X90507Y-53027D01*
X90567Y-52927D01*
X90587Y-52868D01*
X90587Y-52788D01*
X90547Y-52709D01*
X90507Y-52669D01*
X90427Y-52629D01*
X90388Y-52629D01*
X90248Y-52768D01*
X90328Y-52848D01*
X90248Y-52410D02*
X89831Y-52828D01*
X90010Y-52172D01*
X89592Y-52589D01*
X89811Y-51973D02*
X89393Y-52391D01*
X89294Y-52291D01*
X89254Y-52212D01*
X89254Y-52132D01*
X89274Y-52072D01*
X89334Y-51973D01*
X89393Y-51913D01*
X89493Y-51854D01*
X89552Y-51834D01*
X89632Y-51834D01*
X89712Y-51874D01*
X89811Y-51973D01*
X90585Y-51565D02*
X90823Y-51804D01*
X90704Y-51685D02*
X90286Y-52102D01*
X90386Y-52082D01*
X90465Y-52082D01*
X90525Y-52102D01*
X90048Y-51784D02*
X90008Y-51784D01*
X89948Y-51764D01*
X89849Y-51665D01*
X89829Y-51605D01*
X89829Y-51565D01*
X89849Y-51506D01*
X89889Y-51466D01*
X89968Y-51426D01*
X90445Y-51426D01*
X90187Y-51168D01*
X89650Y-51466D02*
X89928Y-50909D01*
X89372Y-51188D01*
X82185Y-42294D02*
X82466Y-42294D01*
X82128Y-42463D02*
X82325Y-41872D01*
X82522Y-42463D01*
X82972Y-42069D02*
X82972Y-42463D01*
X82719Y-42069D02*
X82719Y-42379D01*
X82747Y-42435D01*
X82803Y-42463D01*
X82888Y-42463D01*
X82944Y-42435D01*
X82972Y-42407D01*
X83506Y-42463D02*
X83506Y-41872D01*
X83506Y-42435D02*
X83450Y-42463D01*
X83338Y-42463D01*
X83281Y-42435D01*
X83253Y-42407D01*
X83225Y-42350D01*
X83225Y-42182D01*
X83253Y-42125D01*
X83281Y-42097D01*
X83338Y-42069D01*
X83450Y-42069D01*
X83506Y-42097D01*
X83787Y-42463D02*
X83787Y-42069D01*
X83787Y-41872D02*
X83759Y-41901D01*
X83787Y-41929D01*
X83816Y-41901D01*
X83787Y-41872D01*
X83787Y-41929D01*
X84153Y-42463D02*
X84097Y-42435D01*
X84069Y-42407D01*
X84041Y-42350D01*
X84041Y-42182D01*
X84069Y-42125D01*
X84097Y-42097D01*
X84153Y-42069D01*
X84237Y-42069D01*
X84294Y-42097D01*
X84322Y-42125D01*
X84350Y-42182D01*
X84350Y-42350D01*
X84322Y-42407D01*
X84294Y-42435D01*
X84237Y-42463D01*
X84153Y-42463D01*
X77601Y-42491D02*
X77544Y-42463D01*
X77460Y-42463D01*
X77376Y-42491D01*
X77320Y-42547D01*
X77291Y-42604D01*
X77263Y-42716D01*
X77263Y-42800D01*
X77291Y-42913D01*
X77320Y-42969D01*
X77376Y-43025D01*
X77460Y-43053D01*
X77516Y-43053D01*
X77601Y-43025D01*
X77629Y-42997D01*
X77629Y-42800D01*
X77516Y-42800D01*
X77882Y-43053D02*
X77882Y-42463D01*
X78219Y-43053D01*
X78219Y-42463D01*
X78501Y-43053D02*
X78501Y-42463D01*
X78641Y-42463D01*
X78726Y-42491D01*
X78782Y-42547D01*
X78810Y-42604D01*
X78838Y-42716D01*
X78838Y-42800D01*
X78810Y-42913D01*
X78782Y-42969D01*
X78726Y-43025D01*
X78641Y-43053D01*
X78501Y-43053D01*
X73523Y-42885D02*
X73804Y-42885D01*
X73467Y-43053D02*
X73664Y-42463D01*
X73861Y-43053D01*
X74311Y-42660D02*
X74311Y-43053D01*
X74057Y-42660D02*
X74057Y-42969D01*
X74086Y-43025D01*
X74142Y-43053D01*
X74226Y-43053D01*
X74282Y-43025D01*
X74311Y-42997D01*
X74845Y-43053D02*
X74845Y-42463D01*
X74845Y-43025D02*
X74789Y-43053D01*
X74676Y-43053D01*
X74620Y-43025D01*
X74592Y-42997D01*
X74564Y-42941D01*
X74564Y-42772D01*
X74592Y-42716D01*
X74620Y-42688D01*
X74676Y-42660D01*
X74789Y-42660D01*
X74845Y-42688D01*
X75126Y-43053D02*
X75126Y-42660D01*
X75126Y-42463D02*
X75098Y-42491D01*
X75126Y-42519D01*
X75154Y-42491D01*
X75126Y-42463D01*
X75126Y-42519D01*
X75492Y-43053D02*
X75435Y-43025D01*
X75407Y-42997D01*
X75379Y-42941D01*
X75379Y-42772D01*
X75407Y-42716D01*
X75435Y-42688D01*
X75492Y-42660D01*
X75576Y-42660D01*
X75632Y-42688D01*
X75660Y-42716D01*
X75688Y-42772D01*
X75688Y-42941D01*
X75660Y-42997D01*
X75632Y-43025D01*
X75576Y-43053D01*
X75492Y-43053D01*
X68742Y-42393D02*
X68686Y-42365D01*
X68602Y-42365D01*
X68517Y-42393D01*
X68461Y-42449D01*
X68433Y-42505D01*
X68405Y-42618D01*
X68405Y-42702D01*
X68433Y-42814D01*
X68461Y-42871D01*
X68517Y-42927D01*
X68602Y-42955D01*
X68658Y-42955D01*
X68742Y-42927D01*
X68771Y-42899D01*
X68771Y-42702D01*
X68658Y-42702D01*
X69024Y-42955D02*
X69024Y-42365D01*
X69361Y-42955D01*
X69361Y-42365D01*
X69642Y-42955D02*
X69642Y-42365D01*
X69783Y-42365D01*
X69867Y-42393D01*
X69924Y-42449D01*
X69952Y-42505D01*
X69980Y-42618D01*
X69980Y-42702D01*
X69952Y-42814D01*
X69924Y-42871D01*
X69867Y-42927D01*
X69783Y-42955D01*
X69642Y-42955D01*
X71358Y-40987D02*
X71470Y-40987D01*
X71526Y-41015D01*
X71583Y-41071D01*
X71611Y-41183D01*
X71611Y-41380D01*
X71583Y-41493D01*
X71526Y-41549D01*
X71470Y-41577D01*
X71358Y-41577D01*
X71302Y-41549D01*
X71245Y-41493D01*
X71217Y-41380D01*
X71217Y-41183D01*
X71245Y-41071D01*
X71302Y-41015D01*
X71358Y-40987D01*
X72117Y-41183D02*
X72117Y-41577D01*
X71864Y-41183D02*
X71864Y-41493D01*
X71892Y-41549D01*
X71948Y-41577D01*
X72033Y-41577D01*
X72089Y-41549D01*
X72117Y-41521D01*
X72314Y-41183D02*
X72539Y-41183D01*
X72398Y-40987D02*
X72398Y-41493D01*
X72426Y-41549D01*
X72483Y-41577D01*
X72539Y-41577D01*
X80019Y-41479D02*
X80019Y-40888D01*
X80216Y-41310D01*
X80413Y-40888D01*
X80413Y-41479D01*
X80694Y-41479D02*
X80694Y-41085D01*
X80694Y-40888D02*
X80666Y-40916D01*
X80694Y-40944D01*
X80722Y-40916D01*
X80694Y-40888D01*
X80694Y-40944D01*
X81228Y-41451D02*
X81172Y-41479D01*
X81060Y-41479D01*
X81003Y-41451D01*
X80975Y-41422D01*
X80947Y-41366D01*
X80947Y-41197D01*
X80975Y-41141D01*
X81003Y-41113D01*
X81060Y-41085D01*
X81172Y-41085D01*
X81228Y-41113D01*
G54D12*
X91863Y-57492D02*
G75*
G03X91863Y-57492I-901J0D01*
G74*
G01*
X92651Y-25750D02*
G75*
G03X92651Y-25750I-901J0D01*
G74*
G01*
X18790Y-25750D02*
G75*
G03X18790Y-25750I-790J0D01*
G74*
G01*
X18901Y-57393D02*
G75*
G03X18901Y-57393I-901J0D01*
G74*
G01*
X73250Y-23000D02*
X73250Y-40250D01*
X54000Y-23000D02*
X54000Y-40250D01*
X34750Y-22750D02*
X34750Y-40250D01*
G54D11*
X56903Y-44215D02*
X56903Y-43624D01*
X57100Y-44046D01*
X57297Y-43624D01*
X57297Y-44215D01*
X57578Y-44215D02*
X57578Y-43624D01*
X57803Y-43624D01*
X57859Y-43652D01*
X57888Y-43681D01*
X57916Y-43737D01*
X57916Y-43821D01*
X57888Y-43877D01*
X57859Y-43906D01*
X57803Y-43934D01*
X57578Y-43934D01*
X58113Y-43624D02*
X58478Y-43624D01*
X58281Y-43849D01*
X58366Y-43849D01*
X58422Y-43877D01*
X58450Y-43906D01*
X58478Y-43962D01*
X58478Y-44102D01*
X58450Y-44159D01*
X58422Y-44187D01*
X58366Y-44215D01*
X58197Y-44215D01*
X58141Y-44187D01*
X58113Y-44159D01*
X59153Y-44187D02*
X59237Y-44215D01*
X59378Y-44215D01*
X59434Y-44187D01*
X59462Y-44159D01*
X59491Y-44102D01*
X59491Y-44046D01*
X59462Y-43990D01*
X59434Y-43962D01*
X59378Y-43934D01*
X59266Y-43906D01*
X59209Y-43877D01*
X59181Y-43849D01*
X59153Y-43793D01*
X59153Y-43737D01*
X59181Y-43681D01*
X59209Y-43652D01*
X59266Y-43624D01*
X59406Y-43624D01*
X59491Y-43652D01*
X59744Y-43821D02*
X59744Y-44412D01*
X59744Y-43849D02*
X59800Y-43821D01*
X59912Y-43821D01*
X59969Y-43849D01*
X59997Y-43877D01*
X60025Y-43934D01*
X60025Y-44102D01*
X59997Y-44159D01*
X59969Y-44187D01*
X59912Y-44215D01*
X59800Y-44215D01*
X59744Y-44187D01*
X60503Y-44187D02*
X60447Y-44215D01*
X60334Y-44215D01*
X60278Y-44187D01*
X60250Y-44131D01*
X60250Y-43906D01*
X60278Y-43849D01*
X60334Y-43821D01*
X60447Y-43821D01*
X60503Y-43849D01*
X60531Y-43906D01*
X60531Y-43962D01*
X60250Y-44018D01*
X61037Y-44215D02*
X61037Y-43906D01*
X61009Y-43849D01*
X60953Y-43821D01*
X60840Y-43821D01*
X60784Y-43849D01*
X61037Y-44187D02*
X60981Y-44215D01*
X60840Y-44215D01*
X60784Y-44187D01*
X60756Y-44131D01*
X60756Y-44074D01*
X60784Y-44018D01*
X60840Y-43990D01*
X60981Y-43990D01*
X61037Y-43962D01*
X61318Y-44215D02*
X61318Y-43624D01*
X61375Y-43990D02*
X61543Y-44215D01*
X61543Y-43821D02*
X61318Y-44046D01*
X62021Y-44187D02*
X61965Y-44215D01*
X61853Y-44215D01*
X61796Y-44187D01*
X61768Y-44131D01*
X61768Y-43906D01*
X61796Y-43849D01*
X61853Y-43821D01*
X61965Y-43821D01*
X62021Y-43849D01*
X62050Y-43906D01*
X62050Y-43962D01*
X61768Y-44018D01*
X62303Y-44215D02*
X62303Y-43821D01*
X62303Y-43934D02*
X62331Y-43877D01*
X62359Y-43849D01*
X62415Y-43821D01*
X62471Y-43821D01*
X61203Y-41723D02*
X61147Y-41695D01*
X61062Y-41695D01*
X60978Y-41723D01*
X60922Y-41780D01*
X60894Y-41836D01*
X60866Y-41948D01*
X60866Y-42033D01*
X60894Y-42145D01*
X60922Y-42201D01*
X60978Y-42258D01*
X61062Y-42286D01*
X61119Y-42286D01*
X61203Y-42258D01*
X61231Y-42230D01*
X61231Y-42033D01*
X61119Y-42033D01*
X61484Y-42286D02*
X61484Y-41695D01*
X61822Y-42286D01*
X61822Y-41695D01*
X62103Y-42286D02*
X62103Y-41695D01*
X62244Y-41695D01*
X62328Y-41723D01*
X62384Y-41780D01*
X62412Y-41836D01*
X62440Y-41948D01*
X62440Y-42033D01*
X62412Y-42145D01*
X62384Y-42201D01*
X62328Y-42258D01*
X62244Y-42286D01*
X62103Y-42286D01*
X57514Y-43309D02*
X57514Y-42719D01*
X57710Y-43141D01*
X57907Y-42719D01*
X57907Y-43309D01*
X58188Y-43309D02*
X58188Y-42719D01*
X58413Y-42719D01*
X58470Y-42747D01*
X58498Y-42775D01*
X58526Y-42831D01*
X58526Y-42916D01*
X58498Y-42972D01*
X58470Y-43000D01*
X58413Y-43028D01*
X58188Y-43028D01*
X58723Y-42719D02*
X59088Y-42719D01*
X58892Y-42944D01*
X58976Y-42944D01*
X59032Y-42972D01*
X59060Y-43000D01*
X59088Y-43056D01*
X59088Y-43197D01*
X59060Y-43253D01*
X59032Y-43281D01*
X58976Y-43309D01*
X58807Y-43309D01*
X58751Y-43281D01*
X58723Y-43253D01*
X59904Y-42719D02*
X60016Y-42719D01*
X60073Y-42747D01*
X60129Y-42803D01*
X60157Y-42916D01*
X60157Y-43113D01*
X60129Y-43225D01*
X60073Y-43281D01*
X60016Y-43309D01*
X59904Y-43309D01*
X59848Y-43281D01*
X59791Y-43225D01*
X59763Y-43113D01*
X59763Y-42916D01*
X59791Y-42803D01*
X59848Y-42747D01*
X59904Y-42719D01*
X60663Y-42916D02*
X60663Y-43309D01*
X60410Y-42916D02*
X60410Y-43225D01*
X60438Y-43281D01*
X60494Y-43309D01*
X60579Y-43309D01*
X60635Y-43281D01*
X60663Y-43253D01*
X60860Y-42916D02*
X61085Y-42916D01*
X60944Y-42719D02*
X60944Y-43225D01*
X60973Y-43281D01*
X61029Y-43309D01*
X61085Y-43309D01*
X61282Y-42916D02*
X61282Y-43506D01*
X61282Y-42944D02*
X61338Y-42916D01*
X61451Y-42916D01*
X61507Y-42944D01*
X61535Y-42972D01*
X61563Y-43028D01*
X61563Y-43197D01*
X61535Y-43253D01*
X61507Y-43281D01*
X61451Y-43309D01*
X61338Y-43309D01*
X61282Y-43281D01*
X62069Y-42916D02*
X62069Y-43309D01*
X61816Y-42916D02*
X61816Y-43225D01*
X61844Y-43281D01*
X61901Y-43309D01*
X61985Y-43309D01*
X62041Y-43281D01*
X62069Y-43253D01*
X62266Y-42916D02*
X62491Y-42916D01*
X62350Y-42719D02*
X62350Y-43225D01*
X62379Y-43281D01*
X62435Y-43309D01*
X62491Y-43309D01*
X53172Y-42865D02*
X53115Y-42837D01*
X53031Y-42837D01*
X52947Y-42865D01*
X52890Y-42921D01*
X52862Y-42978D01*
X52834Y-43090D01*
X52834Y-43174D01*
X52862Y-43287D01*
X52890Y-43343D01*
X52947Y-43399D01*
X53031Y-43428D01*
X53087Y-43428D01*
X53172Y-43399D01*
X53200Y-43371D01*
X53200Y-43174D01*
X53087Y-43174D01*
X53453Y-43428D02*
X53453Y-42837D01*
X53790Y-43428D01*
X53790Y-42837D01*
X54071Y-43428D02*
X54071Y-42837D01*
X54212Y-42837D01*
X54296Y-42865D01*
X54353Y-42921D01*
X54381Y-42978D01*
X54409Y-43090D01*
X54409Y-43174D01*
X54381Y-43287D01*
X54353Y-43343D01*
X54296Y-43399D01*
X54212Y-43428D01*
X54071Y-43428D01*
X52125Y-42100D02*
X52575Y-42100D01*
X52350Y-42325D02*
X52350Y-41875D01*
X52800Y-41735D02*
X53166Y-41735D01*
X52969Y-41960D01*
X53053Y-41960D01*
X53110Y-41988D01*
X53138Y-42016D01*
X53166Y-42072D01*
X53166Y-42213D01*
X53138Y-42269D01*
X53110Y-42297D01*
X53053Y-42325D01*
X52885Y-42325D01*
X52829Y-42297D01*
X52800Y-42269D01*
X53419Y-42269D02*
X53447Y-42297D01*
X53419Y-42325D01*
X53391Y-42297D01*
X53419Y-42269D01*
X53419Y-42325D01*
X53644Y-41735D02*
X54010Y-41735D01*
X53813Y-41960D01*
X53897Y-41960D01*
X53953Y-41988D01*
X53982Y-42016D01*
X54010Y-42072D01*
X54010Y-42213D01*
X53982Y-42269D01*
X53953Y-42297D01*
X53897Y-42325D01*
X53728Y-42325D01*
X53672Y-42297D01*
X53644Y-42269D01*
X54178Y-41735D02*
X54375Y-42325D01*
X54572Y-41735D01*
X24983Y-42629D02*
X24926Y-42601D01*
X24842Y-42601D01*
X24758Y-42629D01*
X24701Y-42685D01*
X24673Y-42741D01*
X24645Y-42854D01*
X24645Y-42938D01*
X24673Y-43051D01*
X24701Y-43107D01*
X24758Y-43163D01*
X24842Y-43191D01*
X24898Y-43191D01*
X24983Y-43163D01*
X25011Y-43135D01*
X25011Y-42938D01*
X24898Y-42938D01*
X25264Y-43191D02*
X25264Y-42601D01*
X25601Y-43191D01*
X25601Y-42601D01*
X25883Y-43191D02*
X25883Y-42601D01*
X26023Y-42601D01*
X26107Y-42629D01*
X26164Y-42685D01*
X26192Y-42741D01*
X26220Y-42854D01*
X26220Y-42938D01*
X26192Y-43051D01*
X26164Y-43107D01*
X26107Y-43163D01*
X26023Y-43191D01*
X25883Y-43191D01*
X24634Y-44029D02*
X25084Y-44029D01*
X24859Y-44254D02*
X24859Y-43804D01*
X25646Y-43664D02*
X25365Y-43664D01*
X25337Y-43945D01*
X25365Y-43917D01*
X25421Y-43889D01*
X25562Y-43889D01*
X25618Y-43917D01*
X25646Y-43945D01*
X25674Y-44001D01*
X25674Y-44142D01*
X25646Y-44198D01*
X25618Y-44226D01*
X25562Y-44254D01*
X25421Y-44254D01*
X25365Y-44226D01*
X25337Y-44198D01*
X25843Y-43664D02*
X26040Y-44254D01*
X26237Y-43664D01*
X27446Y-51223D02*
X27165Y-51223D01*
X27137Y-51504D01*
X27165Y-51476D01*
X27221Y-51448D01*
X27362Y-51448D01*
X27418Y-51476D01*
X27446Y-51504D01*
X27474Y-51560D01*
X27474Y-51701D01*
X27446Y-51757D01*
X27418Y-51785D01*
X27362Y-51813D01*
X27221Y-51813D01*
X27165Y-51785D01*
X27137Y-51757D01*
X27643Y-51223D02*
X27840Y-51813D01*
X28037Y-51223D01*
X28683Y-52235D02*
X28627Y-52207D01*
X28543Y-52207D01*
X28458Y-52235D01*
X28402Y-52291D01*
X28374Y-52348D01*
X28346Y-52460D01*
X28346Y-52544D01*
X28374Y-52657D01*
X28402Y-52713D01*
X28458Y-52769D01*
X28543Y-52798D01*
X28599Y-52798D01*
X28683Y-52769D01*
X28712Y-52741D01*
X28712Y-52544D01*
X28599Y-52544D01*
X28965Y-52798D02*
X28965Y-52207D01*
X29302Y-52798D01*
X29302Y-52207D01*
X29583Y-52798D02*
X29583Y-52207D01*
X29724Y-52207D01*
X29808Y-52235D01*
X29865Y-52291D01*
X29893Y-52348D01*
X29921Y-52460D01*
X29921Y-52544D01*
X29893Y-52657D01*
X29865Y-52713D01*
X29808Y-52769D01*
X29724Y-52798D01*
X29583Y-52798D01*
X23984Y-52544D02*
X24057Y-52569D01*
X24179Y-52569D01*
X24228Y-52544D01*
X24252Y-52520D01*
X24277Y-52471D01*
X24277Y-52423D01*
X24252Y-52374D01*
X24228Y-52350D01*
X24179Y-52325D01*
X24082Y-52301D01*
X24033Y-52276D01*
X24009Y-52252D01*
X23984Y-52203D01*
X23984Y-52155D01*
X24009Y-52106D01*
X24033Y-52081D01*
X24082Y-52057D01*
X24204Y-52057D01*
X24277Y-52081D01*
X24496Y-52569D02*
X24496Y-52057D01*
X24618Y-52057D01*
X24691Y-52081D01*
X24740Y-52130D01*
X24764Y-52179D01*
X24789Y-52276D01*
X24789Y-52350D01*
X24764Y-52447D01*
X24740Y-52496D01*
X24691Y-52544D01*
X24618Y-52569D01*
X24496Y-52569D01*
X24984Y-52423D02*
X25227Y-52423D01*
X24935Y-52569D02*
X25105Y-52057D01*
X25276Y-52569D01*
X24240Y-53257D02*
X24484Y-53257D01*
X24191Y-53404D02*
X24362Y-52892D01*
X24533Y-53404D01*
X24923Y-53062D02*
X24923Y-53404D01*
X24801Y-52867D02*
X24679Y-53233D01*
X24996Y-53233D01*
X25374Y-51363D02*
X25448Y-51388D01*
X25569Y-51388D01*
X25618Y-51363D01*
X25643Y-51339D01*
X25667Y-51290D01*
X25667Y-51242D01*
X25643Y-51193D01*
X25618Y-51168D01*
X25569Y-51144D01*
X25472Y-51120D01*
X25423Y-51095D01*
X25399Y-51071D01*
X25374Y-51022D01*
X25374Y-50973D01*
X25399Y-50925D01*
X25423Y-50900D01*
X25472Y-50876D01*
X25594Y-50876D01*
X25667Y-50900D01*
X26179Y-51339D02*
X26154Y-51363D01*
X26081Y-51388D01*
X26032Y-51388D01*
X25959Y-51363D01*
X25911Y-51315D01*
X25886Y-51266D01*
X25862Y-51168D01*
X25862Y-51095D01*
X25886Y-50998D01*
X25911Y-50949D01*
X25959Y-50900D01*
X26032Y-50876D01*
X26081Y-50876D01*
X26154Y-50900D01*
X26179Y-50925D01*
X26642Y-51388D02*
X26398Y-51388D01*
X26398Y-50876D01*
X25618Y-52076D02*
X25862Y-52076D01*
X25569Y-52222D02*
X25740Y-51711D01*
X25911Y-52222D01*
X26325Y-51711D02*
X26081Y-51711D01*
X26057Y-51954D01*
X26081Y-51930D01*
X26130Y-51906D01*
X26252Y-51906D01*
X26301Y-51930D01*
X26325Y-51954D01*
X26349Y-52003D01*
X26349Y-52125D01*
X26325Y-52174D01*
X26301Y-52198D01*
X26252Y-52222D01*
X26130Y-52222D01*
X26081Y-52198D01*
X26057Y-52174D01*
X65213Y-58014D02*
X65016Y-57733D01*
X64876Y-58014D02*
X64876Y-57424D01*
X65101Y-57424D01*
X65157Y-57452D01*
X65185Y-57480D01*
X65213Y-57536D01*
X65213Y-57620D01*
X65185Y-57677D01*
X65157Y-57705D01*
X65101Y-57733D01*
X64876Y-57733D01*
X65691Y-57986D02*
X65635Y-58014D01*
X65523Y-58014D01*
X65466Y-57986D01*
X65438Y-57930D01*
X65438Y-57705D01*
X65466Y-57649D01*
X65523Y-57620D01*
X65635Y-57620D01*
X65691Y-57649D01*
X65719Y-57705D01*
X65719Y-57761D01*
X65438Y-57817D01*
X65944Y-57986D02*
X66001Y-58014D01*
X66113Y-58014D01*
X66169Y-57986D01*
X66197Y-57930D01*
X66197Y-57902D01*
X66169Y-57845D01*
X66113Y-57817D01*
X66029Y-57817D01*
X65973Y-57789D01*
X65944Y-57733D01*
X65944Y-57705D01*
X65973Y-57649D01*
X66029Y-57620D01*
X66113Y-57620D01*
X66169Y-57649D01*
X66676Y-57986D02*
X66619Y-58014D01*
X66507Y-58014D01*
X66451Y-57986D01*
X66422Y-57930D01*
X66422Y-57705D01*
X66451Y-57649D01*
X66507Y-57620D01*
X66619Y-57620D01*
X66676Y-57649D01*
X66704Y-57705D01*
X66704Y-57761D01*
X66422Y-57817D01*
X66872Y-57620D02*
X67097Y-57620D01*
X66957Y-57424D02*
X66957Y-57930D01*
X66985Y-57986D01*
X67041Y-58014D01*
X67097Y-58014D01*
X65213Y-53487D02*
X65213Y-52896D01*
X65551Y-53487D01*
X65551Y-52896D01*
X66057Y-53458D02*
X66001Y-53487D01*
X65888Y-53487D01*
X65832Y-53458D01*
X65804Y-53402D01*
X65804Y-53177D01*
X65832Y-53121D01*
X65888Y-53093D01*
X66001Y-53093D01*
X66057Y-53121D01*
X66085Y-53177D01*
X66085Y-53233D01*
X65804Y-53290D01*
X66282Y-53487D02*
X66591Y-53093D01*
X66282Y-53093D02*
X66591Y-53487D01*
X66732Y-53093D02*
X66957Y-53093D01*
X66816Y-52896D02*
X66816Y-53402D01*
X66844Y-53458D01*
X66901Y-53487D01*
X66957Y-53487D01*
X64046Y-49353D02*
X64046Y-48762D01*
X64271Y-48762D01*
X64327Y-48790D01*
X64356Y-48818D01*
X64384Y-48875D01*
X64384Y-48959D01*
X64356Y-49015D01*
X64327Y-49043D01*
X64271Y-49071D01*
X64046Y-49071D01*
X64721Y-49353D02*
X64665Y-49325D01*
X64637Y-49268D01*
X64637Y-48762D01*
X65199Y-49353D02*
X65199Y-49043D01*
X65171Y-48987D01*
X65115Y-48959D01*
X65002Y-48959D01*
X64946Y-48987D01*
X65199Y-49325D02*
X65143Y-49353D01*
X65002Y-49353D01*
X64946Y-49325D01*
X64918Y-49268D01*
X64918Y-49212D01*
X64946Y-49156D01*
X65002Y-49128D01*
X65143Y-49128D01*
X65199Y-49100D01*
X65424Y-48959D02*
X65565Y-49353D01*
X65705Y-48959D02*
X65565Y-49353D01*
X65508Y-49493D01*
X65480Y-49521D01*
X65424Y-49550D01*
X66352Y-48734D02*
X65846Y-49493D01*
X66521Y-49325D02*
X66605Y-49353D01*
X66746Y-49353D01*
X66802Y-49325D01*
X66830Y-49296D01*
X66858Y-49240D01*
X66858Y-49184D01*
X66830Y-49128D01*
X66802Y-49100D01*
X66746Y-49071D01*
X66633Y-49043D01*
X66577Y-49015D01*
X66549Y-48987D01*
X66521Y-48931D01*
X66521Y-48875D01*
X66549Y-48818D01*
X66577Y-48790D01*
X66633Y-48762D01*
X66774Y-48762D01*
X66858Y-48790D01*
X67027Y-48959D02*
X67252Y-48959D01*
X67111Y-48762D02*
X67111Y-49268D01*
X67140Y-49325D01*
X67196Y-49353D01*
X67252Y-49353D01*
X67533Y-49353D02*
X67477Y-49325D01*
X67449Y-49296D01*
X67421Y-49240D01*
X67421Y-49071D01*
X67449Y-49015D01*
X67477Y-48987D01*
X67533Y-48959D01*
X67618Y-48959D01*
X67674Y-48987D01*
X67702Y-49015D01*
X67730Y-49071D01*
X67730Y-49240D01*
X67702Y-49296D01*
X67674Y-49325D01*
X67618Y-49353D01*
X67533Y-49353D01*
X67983Y-48959D02*
X67983Y-49550D01*
X67983Y-48987D02*
X68039Y-48959D01*
X68152Y-48959D01*
X68208Y-48987D01*
X68236Y-49015D01*
X68264Y-49071D01*
X68264Y-49240D01*
X68236Y-49296D01*
X68208Y-49325D01*
X68152Y-49353D01*
X68039Y-49353D01*
X67983Y-49325D01*
G54D10*
X60598Y-53159D02*
X60467Y-52971D01*
X60373Y-53159D02*
X60373Y-52765D01*
X60523Y-52765D01*
X60560Y-52784D01*
X60579Y-52803D01*
X60598Y-52840D01*
X60598Y-52896D01*
X60579Y-52934D01*
X60560Y-52953D01*
X60523Y-52971D01*
X60373Y-52971D01*
X60917Y-53140D02*
X60879Y-53159D01*
X60804Y-53159D01*
X60767Y-53140D01*
X60748Y-53103D01*
X60748Y-52953D01*
X60767Y-52915D01*
X60804Y-52896D01*
X60879Y-52896D01*
X60917Y-52915D01*
X60935Y-52953D01*
X60935Y-52990D01*
X60748Y-53028D01*
X61085Y-53140D02*
X61123Y-53159D01*
X61198Y-53159D01*
X61235Y-53140D01*
X61254Y-53103D01*
X61254Y-53084D01*
X61235Y-53046D01*
X61198Y-53028D01*
X61142Y-53028D01*
X61104Y-53009D01*
X61085Y-52971D01*
X61085Y-52953D01*
X61104Y-52915D01*
X61142Y-52896D01*
X61198Y-52896D01*
X61235Y-52915D01*
X61573Y-53140D02*
X61535Y-53159D01*
X61460Y-53159D01*
X61423Y-53140D01*
X61404Y-53103D01*
X61404Y-52953D01*
X61423Y-52915D01*
X61460Y-52896D01*
X61535Y-52896D01*
X61573Y-52915D01*
X61592Y-52953D01*
X61592Y-52990D01*
X61404Y-53028D01*
X61704Y-52896D02*
X61854Y-52896D01*
X61760Y-52765D02*
X61760Y-53103D01*
X61779Y-53140D01*
X61816Y-53159D01*
X61854Y-53159D01*
X53226Y-51153D02*
X53282Y-51171D01*
X53301Y-51190D01*
X53320Y-51228D01*
X53320Y-51284D01*
X53301Y-51321D01*
X53282Y-51340D01*
X53245Y-51359D01*
X53095Y-51359D01*
X53095Y-50965D01*
X53226Y-50965D01*
X53264Y-50984D01*
X53282Y-51003D01*
X53301Y-51040D01*
X53301Y-51078D01*
X53282Y-51115D01*
X53264Y-51134D01*
X53226Y-51153D01*
X53095Y-51153D01*
X53657Y-51096D02*
X53657Y-51359D01*
X53488Y-51096D02*
X53488Y-51303D01*
X53507Y-51340D01*
X53545Y-51359D01*
X53601Y-51359D01*
X53638Y-51340D01*
X53657Y-51321D01*
X53826Y-51340D02*
X53863Y-51359D01*
X53938Y-51359D01*
X53976Y-51340D01*
X53995Y-51303D01*
X53995Y-51284D01*
X53976Y-51246D01*
X53938Y-51228D01*
X53882Y-51228D01*
X53845Y-51209D01*
X53826Y-51171D01*
X53826Y-51153D01*
X53845Y-51115D01*
X53882Y-51096D01*
X53938Y-51096D01*
X53976Y-51115D01*
X54126Y-51096D02*
X54220Y-51359D01*
X54313Y-51096D02*
X54220Y-51359D01*
X54182Y-51453D01*
X54163Y-51471D01*
X54126Y-51490D01*
X61551Y-46421D02*
X61532Y-46440D01*
X61476Y-46459D01*
X61438Y-46459D01*
X61382Y-46440D01*
X61345Y-46403D01*
X61326Y-46365D01*
X61307Y-46290D01*
X61307Y-46234D01*
X61326Y-46159D01*
X61345Y-46121D01*
X61382Y-46084D01*
X61438Y-46065D01*
X61476Y-46065D01*
X61532Y-46084D01*
X61551Y-46103D01*
X61907Y-46459D02*
X61720Y-46459D01*
X61720Y-46065D01*
X62038Y-46459D02*
X62038Y-46065D01*
X62263Y-46459D02*
X62095Y-46234D01*
X62263Y-46065D02*
X62038Y-46290D01*
X53114Y-46459D02*
X53114Y-46065D01*
X53207Y-46065D01*
X53264Y-46084D01*
X53301Y-46121D01*
X53320Y-46159D01*
X53338Y-46234D01*
X53338Y-46290D01*
X53320Y-46365D01*
X53301Y-46403D01*
X53264Y-46440D01*
X53207Y-46459D01*
X53114Y-46459D01*
X53676Y-46459D02*
X53676Y-46253D01*
X53657Y-46215D01*
X53620Y-46196D01*
X53545Y-46196D01*
X53507Y-46215D01*
X53676Y-46440D02*
X53638Y-46459D01*
X53545Y-46459D01*
X53507Y-46440D01*
X53488Y-46403D01*
X53488Y-46365D01*
X53507Y-46328D01*
X53545Y-46309D01*
X53638Y-46309D01*
X53676Y-46290D01*
X53807Y-46196D02*
X53957Y-46196D01*
X53863Y-46065D02*
X53863Y-46403D01*
X53882Y-46440D01*
X53920Y-46459D01*
X53957Y-46459D01*
X54257Y-46459D02*
X54257Y-46253D01*
X54238Y-46215D01*
X54201Y-46196D01*
X54126Y-46196D01*
X54088Y-46215D01*
X54257Y-46440D02*
X54220Y-46459D01*
X54126Y-46459D01*
X54088Y-46440D01*
X54070Y-46403D01*
X54070Y-46365D01*
X54088Y-46328D01*
X54126Y-46309D01*
X54220Y-46309D01*
X54257Y-46290D01*
G54D13*
X87193Y-23465D02*
X87006Y-23465D01*
X86987Y-23653D01*
X87006Y-23634D01*
X87043Y-23615D01*
X87137Y-23615D01*
X87174Y-23634D01*
X87193Y-23653D01*
X87212Y-23690D01*
X87212Y-23784D01*
X87193Y-23821D01*
X87174Y-23840D01*
X87137Y-23859D01*
X87043Y-23859D01*
X87006Y-23840D01*
X86987Y-23821D01*
X86174Y-23465D02*
X86100Y-23465D01*
X86062Y-23484D01*
X86043Y-23503D01*
X86006Y-23559D01*
X85987Y-23634D01*
X85987Y-23784D01*
X86006Y-23821D01*
X86025Y-23840D01*
X86062Y-23859D01*
X86137Y-23859D01*
X86174Y-23840D01*
X86193Y-23821D01*
X86212Y-23784D01*
X86212Y-23690D01*
X86193Y-23653D01*
X86174Y-23634D01*
X86137Y-23615D01*
X86062Y-23615D01*
X86025Y-23634D01*
X86006Y-23653D01*
X85987Y-23690D01*
X84968Y-23465D02*
X85231Y-23465D01*
X85062Y-23859D01*
X84062Y-23634D02*
X84025Y-23615D01*
X84006Y-23596D01*
X83987Y-23559D01*
X83987Y-23540D01*
X84006Y-23503D01*
X84025Y-23484D01*
X84062Y-23465D01*
X84137Y-23465D01*
X84174Y-23484D01*
X84193Y-23503D01*
X84212Y-23540D01*
X84212Y-23559D01*
X84193Y-23596D01*
X84174Y-23615D01*
X84137Y-23634D01*
X84062Y-23634D01*
X84025Y-23653D01*
X84006Y-23671D01*
X83987Y-23709D01*
X83987Y-23784D01*
X84006Y-23821D01*
X84025Y-23840D01*
X84062Y-23859D01*
X84137Y-23859D01*
X84174Y-23840D01*
X84193Y-23821D01*
X84212Y-23784D01*
X84212Y-23709D01*
X84193Y-23671D01*
X84174Y-23653D01*
X84137Y-23634D01*
X81012Y-23859D02*
X80787Y-23859D01*
X80900Y-23859D02*
X80900Y-23465D01*
X80862Y-23521D01*
X80825Y-23559D01*
X80787Y-23578D01*
X79787Y-23503D02*
X79806Y-23484D01*
X79843Y-23465D01*
X79937Y-23465D01*
X79974Y-23484D01*
X79993Y-23503D01*
X80012Y-23540D01*
X80012Y-23578D01*
X79993Y-23634D01*
X79768Y-23859D01*
X80012Y-23859D01*
X78768Y-23465D02*
X79012Y-23465D01*
X78881Y-23615D01*
X78937Y-23615D01*
X78974Y-23634D01*
X78993Y-23653D01*
X79012Y-23690D01*
X79012Y-23784D01*
X78993Y-23821D01*
X78974Y-23840D01*
X78937Y-23859D01*
X78825Y-23859D01*
X78787Y-23840D01*
X78768Y-23821D01*
X77974Y-23596D02*
X77974Y-23859D01*
X77881Y-23446D02*
X77787Y-23728D01*
X78031Y-23728D01*
X68200Y-23303D02*
X68218Y-23284D01*
X68256Y-23265D01*
X68350Y-23265D01*
X68387Y-23284D01*
X68406Y-23303D01*
X68425Y-23340D01*
X68425Y-23378D01*
X68406Y-23434D01*
X68181Y-23659D01*
X68425Y-23659D01*
X68781Y-23265D02*
X68593Y-23265D01*
X68574Y-23453D01*
X68593Y-23434D01*
X68631Y-23415D01*
X68724Y-23415D01*
X68762Y-23434D01*
X68781Y-23453D01*
X68799Y-23490D01*
X68799Y-23584D01*
X68781Y-23621D01*
X68762Y-23640D01*
X68724Y-23659D01*
X68631Y-23659D01*
X68593Y-23640D01*
X68574Y-23621D01*
X67100Y-23303D02*
X67118Y-23284D01*
X67156Y-23265D01*
X67250Y-23265D01*
X67287Y-23284D01*
X67306Y-23303D01*
X67325Y-23340D01*
X67325Y-23378D01*
X67306Y-23434D01*
X67081Y-23659D01*
X67325Y-23659D01*
X67662Y-23396D02*
X67662Y-23659D01*
X67568Y-23246D02*
X67474Y-23528D01*
X67718Y-23528D01*
X66100Y-23303D02*
X66118Y-23284D01*
X66156Y-23265D01*
X66250Y-23265D01*
X66287Y-23284D01*
X66306Y-23303D01*
X66325Y-23340D01*
X66325Y-23378D01*
X66306Y-23434D01*
X66081Y-23659D01*
X66325Y-23659D01*
X66456Y-23265D02*
X66699Y-23265D01*
X66568Y-23415D01*
X66624Y-23415D01*
X66662Y-23434D01*
X66681Y-23453D01*
X66699Y-23490D01*
X66699Y-23584D01*
X66681Y-23621D01*
X66662Y-23640D01*
X66624Y-23659D01*
X66512Y-23659D01*
X66474Y-23640D01*
X66456Y-23621D01*
X65200Y-23303D02*
X65218Y-23284D01*
X65256Y-23265D01*
X65350Y-23265D01*
X65387Y-23284D01*
X65406Y-23303D01*
X65425Y-23340D01*
X65425Y-23378D01*
X65406Y-23434D01*
X65181Y-23659D01*
X65425Y-23659D01*
X65574Y-23303D02*
X65593Y-23284D01*
X65631Y-23265D01*
X65724Y-23265D01*
X65762Y-23284D01*
X65781Y-23303D01*
X65799Y-23340D01*
X65799Y-23378D01*
X65781Y-23434D01*
X65556Y-23659D01*
X65799Y-23659D01*
X61825Y-23659D02*
X61900Y-23659D01*
X61937Y-23640D01*
X61956Y-23621D01*
X61993Y-23565D01*
X62012Y-23490D01*
X62012Y-23340D01*
X61993Y-23303D01*
X61974Y-23284D01*
X61937Y-23265D01*
X61862Y-23265D01*
X61825Y-23284D01*
X61806Y-23303D01*
X61787Y-23340D01*
X61787Y-23434D01*
X61806Y-23471D01*
X61825Y-23490D01*
X61862Y-23509D01*
X61937Y-23509D01*
X61974Y-23490D01*
X61993Y-23471D01*
X62012Y-23434D01*
X60825Y-23659D02*
X60600Y-23659D01*
X60712Y-23659D02*
X60712Y-23265D01*
X60675Y-23321D01*
X60637Y-23359D01*
X60600Y-23378D01*
X61068Y-23265D02*
X61106Y-23265D01*
X61143Y-23284D01*
X61162Y-23303D01*
X61181Y-23340D01*
X61199Y-23415D01*
X61199Y-23509D01*
X61181Y-23584D01*
X61162Y-23621D01*
X61143Y-23640D01*
X61106Y-23659D01*
X61068Y-23659D01*
X61031Y-23640D01*
X61012Y-23621D01*
X60993Y-23584D01*
X60974Y-23509D01*
X60974Y-23415D01*
X60993Y-23340D01*
X61012Y-23303D01*
X61031Y-23284D01*
X61068Y-23265D01*
X59825Y-23659D02*
X59600Y-23659D01*
X59712Y-23659D02*
X59712Y-23265D01*
X59675Y-23321D01*
X59637Y-23359D01*
X59600Y-23378D01*
X60199Y-23659D02*
X59974Y-23659D01*
X60087Y-23659D02*
X60087Y-23265D01*
X60049Y-23321D01*
X60012Y-23359D01*
X59974Y-23378D01*
X49193Y-23265D02*
X49006Y-23265D01*
X48987Y-23453D01*
X49006Y-23434D01*
X49043Y-23415D01*
X49137Y-23415D01*
X49174Y-23434D01*
X49193Y-23453D01*
X49212Y-23490D01*
X49212Y-23584D01*
X49193Y-23621D01*
X49174Y-23640D01*
X49137Y-23659D01*
X49043Y-23659D01*
X49006Y-23640D01*
X48987Y-23621D01*
X48174Y-23265D02*
X48100Y-23265D01*
X48062Y-23284D01*
X48043Y-23303D01*
X48006Y-23359D01*
X47987Y-23434D01*
X47987Y-23584D01*
X48006Y-23621D01*
X48025Y-23640D01*
X48062Y-23659D01*
X48137Y-23659D01*
X48174Y-23640D01*
X48193Y-23621D01*
X48212Y-23584D01*
X48212Y-23490D01*
X48193Y-23453D01*
X48174Y-23434D01*
X48137Y-23415D01*
X48062Y-23415D01*
X48025Y-23434D01*
X48006Y-23453D01*
X47987Y-23490D01*
X43512Y-23659D02*
X43287Y-23659D01*
X43400Y-23659D02*
X43400Y-23265D01*
X43362Y-23321D01*
X43325Y-23359D01*
X43287Y-23378D01*
X42287Y-23303D02*
X42306Y-23284D01*
X42343Y-23265D01*
X42437Y-23265D01*
X42474Y-23284D01*
X42493Y-23303D01*
X42512Y-23340D01*
X42512Y-23378D01*
X42493Y-23434D01*
X42268Y-23659D01*
X42512Y-23659D01*
X41268Y-23265D02*
X41512Y-23265D01*
X41381Y-23415D01*
X41437Y-23415D01*
X41474Y-23434D01*
X41493Y-23453D01*
X41512Y-23490D01*
X41512Y-23584D01*
X41493Y-23621D01*
X41474Y-23640D01*
X41437Y-23659D01*
X41325Y-23659D01*
X41287Y-23640D01*
X41268Y-23621D01*
X29225Y-23859D02*
X29300Y-23859D01*
X29337Y-23840D01*
X29356Y-23821D01*
X29393Y-23765D01*
X29412Y-23690D01*
X29412Y-23540D01*
X29393Y-23503D01*
X29374Y-23484D01*
X29337Y-23465D01*
X29262Y-23465D01*
X29225Y-23484D01*
X29206Y-23503D01*
X29187Y-23540D01*
X29187Y-23634D01*
X29206Y-23671D01*
X29225Y-23690D01*
X29262Y-23709D01*
X29337Y-23709D01*
X29374Y-23690D01*
X29393Y-23671D01*
X29412Y-23634D01*
X28225Y-23859D02*
X28000Y-23859D01*
X28112Y-23859D02*
X28112Y-23465D01*
X28075Y-23521D01*
X28037Y-23559D01*
X28000Y-23578D01*
X28468Y-23465D02*
X28506Y-23465D01*
X28543Y-23484D01*
X28562Y-23503D01*
X28581Y-23540D01*
X28599Y-23615D01*
X28599Y-23709D01*
X28581Y-23784D01*
X28562Y-23821D01*
X28543Y-23840D01*
X28506Y-23859D01*
X28468Y-23859D01*
X28431Y-23840D01*
X28412Y-23821D01*
X28393Y-23784D01*
X28374Y-23709D01*
X28374Y-23615D01*
X28393Y-23540D01*
X28412Y-23503D01*
X28431Y-23484D01*
X28468Y-23465D01*
X27225Y-23859D02*
X27000Y-23859D01*
X27112Y-23859D02*
X27112Y-23465D01*
X27075Y-23521D01*
X27037Y-23559D01*
X27000Y-23578D01*
X27599Y-23859D02*
X27374Y-23859D01*
X27487Y-23859D02*
X27487Y-23465D01*
X27449Y-23521D01*
X27412Y-23559D01*
X27374Y-23578D01*
X26225Y-23859D02*
X26000Y-23859D01*
X26112Y-23859D02*
X26112Y-23465D01*
X26075Y-23521D01*
X26037Y-23559D01*
X26000Y-23578D01*
X26374Y-23503D02*
X26393Y-23484D01*
X26431Y-23465D01*
X26524Y-23465D01*
X26562Y-23484D01*
X26581Y-23503D01*
X26599Y-23540D01*
X26599Y-23578D01*
X26581Y-23634D01*
X26356Y-23859D01*
X26599Y-23859D01*
G54D11*
X88349Y-23976D02*
X88293Y-23948D01*
X88209Y-23948D01*
X88124Y-23976D01*
X88068Y-24032D01*
X88040Y-24089D01*
X88012Y-24201D01*
X88012Y-24285D01*
X88040Y-24398D01*
X88068Y-24454D01*
X88124Y-24510D01*
X88209Y-24539D01*
X88265Y-24539D01*
X88349Y-24510D01*
X88378Y-24482D01*
X88378Y-24285D01*
X88265Y-24285D01*
X88631Y-24539D02*
X88631Y-24145D01*
X88631Y-24257D02*
X88659Y-24201D01*
X88687Y-24173D01*
X88743Y-24145D01*
X88799Y-24145D01*
X89249Y-24145D02*
X89249Y-24539D01*
X88996Y-24145D02*
X88996Y-24454D01*
X89024Y-24510D01*
X89081Y-24539D01*
X89165Y-24539D01*
X89221Y-24510D01*
X89249Y-24482D01*
X89531Y-24145D02*
X89531Y-24735D01*
X89531Y-24173D02*
X89587Y-24145D01*
X89699Y-24145D01*
X89756Y-24173D01*
X89784Y-24201D01*
X89812Y-24257D01*
X89812Y-24426D01*
X89784Y-24482D01*
X89756Y-24510D01*
X89699Y-24539D01*
X89587Y-24539D01*
X89531Y-24510D01*
X90149Y-24539D02*
X90093Y-24510D01*
X90065Y-24482D01*
X90037Y-24426D01*
X90037Y-24257D01*
X90065Y-24201D01*
X90093Y-24173D01*
X90149Y-24145D01*
X90234Y-24145D01*
X90290Y-24173D01*
X90318Y-24201D01*
X90346Y-24257D01*
X90346Y-24426D01*
X90318Y-24482D01*
X90290Y-24510D01*
X90234Y-24539D01*
X90149Y-24539D01*
X91049Y-24539D02*
X91049Y-23948D01*
X91049Y-24229D02*
X91387Y-24229D01*
X91387Y-24539D02*
X91387Y-23948D01*
X88040Y-25483D02*
X88040Y-24893D01*
X88181Y-24893D01*
X88265Y-24921D01*
X88321Y-24977D01*
X88349Y-25033D01*
X88378Y-25146D01*
X88378Y-25230D01*
X88349Y-25343D01*
X88321Y-25399D01*
X88265Y-25455D01*
X88181Y-25483D01*
X88040Y-25483D01*
X88828Y-25174D02*
X88912Y-25202D01*
X88940Y-25230D01*
X88968Y-25287D01*
X88968Y-25371D01*
X88940Y-25427D01*
X88912Y-25455D01*
X88856Y-25483D01*
X88631Y-25483D01*
X88631Y-24893D01*
X88828Y-24893D01*
X88884Y-24921D01*
X88912Y-24949D01*
X88940Y-25005D01*
X88940Y-25062D01*
X88912Y-25118D01*
X88884Y-25146D01*
X88828Y-25174D01*
X88631Y-25174D01*
X89221Y-25258D02*
X89671Y-25258D01*
X90262Y-25483D02*
X89924Y-25483D01*
X90093Y-25483D02*
X90093Y-24893D01*
X90037Y-24977D01*
X89980Y-25033D01*
X89924Y-25062D01*
X74150Y-23976D02*
X74094Y-23948D01*
X74009Y-23948D01*
X73925Y-23976D01*
X73869Y-24032D01*
X73841Y-24089D01*
X73812Y-24201D01*
X73812Y-24285D01*
X73841Y-24398D01*
X73869Y-24454D01*
X73925Y-24510D01*
X74009Y-24539D01*
X74066Y-24539D01*
X74150Y-24510D01*
X74178Y-24482D01*
X74178Y-24285D01*
X74066Y-24285D01*
X74431Y-24539D02*
X74431Y-24145D01*
X74431Y-24257D02*
X74459Y-24201D01*
X74487Y-24173D01*
X74544Y-24145D01*
X74600Y-24145D01*
X75050Y-24145D02*
X75050Y-24539D01*
X74797Y-24145D02*
X74797Y-24454D01*
X74825Y-24510D01*
X74881Y-24539D01*
X74965Y-24539D01*
X75022Y-24510D01*
X75050Y-24482D01*
X75331Y-24145D02*
X75331Y-24735D01*
X75331Y-24173D02*
X75387Y-24145D01*
X75500Y-24145D01*
X75556Y-24173D01*
X75584Y-24201D01*
X75612Y-24257D01*
X75612Y-24426D01*
X75584Y-24482D01*
X75556Y-24510D01*
X75500Y-24539D01*
X75387Y-24539D01*
X75331Y-24510D01*
X75950Y-24539D02*
X75893Y-24510D01*
X75865Y-24482D01*
X75837Y-24426D01*
X75837Y-24257D01*
X75865Y-24201D01*
X75893Y-24173D01*
X75950Y-24145D01*
X76034Y-24145D01*
X76090Y-24173D01*
X76118Y-24201D01*
X76147Y-24257D01*
X76147Y-24426D01*
X76118Y-24482D01*
X76090Y-24510D01*
X76034Y-24539D01*
X75950Y-24539D01*
X77046Y-24229D02*
X77131Y-24257D01*
X77159Y-24285D01*
X77187Y-24342D01*
X77187Y-24426D01*
X77159Y-24482D01*
X77131Y-24510D01*
X77075Y-24539D01*
X76850Y-24539D01*
X76850Y-23948D01*
X77046Y-23948D01*
X77103Y-23976D01*
X77131Y-24004D01*
X77159Y-24060D01*
X77159Y-24117D01*
X77131Y-24173D01*
X77103Y-24201D01*
X77046Y-24229D01*
X76850Y-24229D01*
X74965Y-25483D02*
X74965Y-24893D01*
X75106Y-24893D01*
X75190Y-24921D01*
X75247Y-24977D01*
X75275Y-25033D01*
X75303Y-25146D01*
X75303Y-25230D01*
X75275Y-25343D01*
X75247Y-25399D01*
X75190Y-25455D01*
X75106Y-25483D01*
X74965Y-25483D01*
X75753Y-25174D02*
X75837Y-25202D01*
X75865Y-25230D01*
X75893Y-25287D01*
X75893Y-25371D01*
X75865Y-25427D01*
X75837Y-25455D01*
X75781Y-25483D01*
X75556Y-25483D01*
X75556Y-24893D01*
X75753Y-24893D01*
X75809Y-24921D01*
X75837Y-24949D01*
X75865Y-25005D01*
X75865Y-25062D01*
X75837Y-25118D01*
X75809Y-25146D01*
X75753Y-25174D01*
X75556Y-25174D01*
X76147Y-25258D02*
X76596Y-25258D01*
X77187Y-25483D02*
X76850Y-25483D01*
X77018Y-25483D02*
X77018Y-24893D01*
X76962Y-24977D01*
X76906Y-25033D01*
X76850Y-25062D01*
X69549Y-23776D02*
X69493Y-23748D01*
X69409Y-23748D01*
X69324Y-23776D01*
X69268Y-23832D01*
X69240Y-23889D01*
X69212Y-24001D01*
X69212Y-24085D01*
X69240Y-24198D01*
X69268Y-24254D01*
X69324Y-24310D01*
X69409Y-24339D01*
X69465Y-24339D01*
X69549Y-24310D01*
X69578Y-24282D01*
X69578Y-24085D01*
X69465Y-24085D01*
X69831Y-24339D02*
X69831Y-23945D01*
X69831Y-24057D02*
X69859Y-24001D01*
X69887Y-23973D01*
X69943Y-23945D01*
X69999Y-23945D01*
X70449Y-23945D02*
X70449Y-24339D01*
X70196Y-23945D02*
X70196Y-24254D01*
X70224Y-24310D01*
X70281Y-24339D01*
X70365Y-24339D01*
X70421Y-24310D01*
X70449Y-24282D01*
X70731Y-23945D02*
X70731Y-24535D01*
X70731Y-23973D02*
X70787Y-23945D01*
X70899Y-23945D01*
X70956Y-23973D01*
X70984Y-24001D01*
X71012Y-24057D01*
X71012Y-24226D01*
X70984Y-24282D01*
X70956Y-24310D01*
X70899Y-24339D01*
X70787Y-24339D01*
X70731Y-24310D01*
X71349Y-24339D02*
X71293Y-24310D01*
X71265Y-24282D01*
X71237Y-24226D01*
X71237Y-24057D01*
X71265Y-24001D01*
X71293Y-23973D01*
X71349Y-23945D01*
X71434Y-23945D01*
X71490Y-23973D01*
X71518Y-24001D01*
X71546Y-24057D01*
X71546Y-24226D01*
X71518Y-24282D01*
X71490Y-24310D01*
X71434Y-24339D01*
X71349Y-24339D01*
X72249Y-24339D02*
X72249Y-23748D01*
X72390Y-23748D01*
X72474Y-23776D01*
X72530Y-23832D01*
X72558Y-23889D01*
X72587Y-24001D01*
X72587Y-24085D01*
X72558Y-24198D01*
X72530Y-24254D01*
X72474Y-24310D01*
X72390Y-24339D01*
X72249Y-24339D01*
X69240Y-25283D02*
X69240Y-24693D01*
X69381Y-24693D01*
X69465Y-24721D01*
X69521Y-24777D01*
X69549Y-24833D01*
X69578Y-24946D01*
X69578Y-25030D01*
X69549Y-25143D01*
X69521Y-25199D01*
X69465Y-25255D01*
X69381Y-25283D01*
X69240Y-25283D01*
X70028Y-24974D02*
X70112Y-25002D01*
X70140Y-25030D01*
X70168Y-25087D01*
X70168Y-25171D01*
X70140Y-25227D01*
X70112Y-25255D01*
X70056Y-25283D01*
X69831Y-25283D01*
X69831Y-24693D01*
X70028Y-24693D01*
X70084Y-24721D01*
X70112Y-24749D01*
X70140Y-24805D01*
X70140Y-24862D01*
X70112Y-24918D01*
X70084Y-24946D01*
X70028Y-24974D01*
X69831Y-24974D01*
X70421Y-25058D02*
X70871Y-25058D01*
X71462Y-25283D02*
X71124Y-25283D01*
X71293Y-25283D02*
X71293Y-24693D01*
X71237Y-24777D01*
X71180Y-24833D01*
X71124Y-24862D01*
X54950Y-23776D02*
X54894Y-23748D01*
X54809Y-23748D01*
X54725Y-23776D01*
X54669Y-23832D01*
X54641Y-23889D01*
X54612Y-24001D01*
X54612Y-24085D01*
X54641Y-24198D01*
X54669Y-24254D01*
X54725Y-24310D01*
X54809Y-24339D01*
X54866Y-24339D01*
X54950Y-24310D01*
X54978Y-24282D01*
X54978Y-24085D01*
X54866Y-24085D01*
X55231Y-24339D02*
X55231Y-23945D01*
X55231Y-24057D02*
X55259Y-24001D01*
X55287Y-23973D01*
X55344Y-23945D01*
X55400Y-23945D01*
X55850Y-23945D02*
X55850Y-24339D01*
X55597Y-23945D02*
X55597Y-24254D01*
X55625Y-24310D01*
X55681Y-24339D01*
X55765Y-24339D01*
X55822Y-24310D01*
X55850Y-24282D01*
X56131Y-23945D02*
X56131Y-24535D01*
X56131Y-23973D02*
X56187Y-23945D01*
X56300Y-23945D01*
X56356Y-23973D01*
X56384Y-24001D01*
X56412Y-24057D01*
X56412Y-24226D01*
X56384Y-24282D01*
X56356Y-24310D01*
X56300Y-24339D01*
X56187Y-24339D01*
X56131Y-24310D01*
X56750Y-24339D02*
X56693Y-24310D01*
X56665Y-24282D01*
X56637Y-24226D01*
X56637Y-24057D01*
X56665Y-24001D01*
X56693Y-23973D01*
X56750Y-23945D01*
X56834Y-23945D01*
X56890Y-23973D01*
X56918Y-24001D01*
X56947Y-24057D01*
X56947Y-24226D01*
X56918Y-24282D01*
X56890Y-24310D01*
X56834Y-24339D01*
X56750Y-24339D01*
X57987Y-24282D02*
X57959Y-24310D01*
X57875Y-24339D01*
X57818Y-24339D01*
X57734Y-24310D01*
X57678Y-24254D01*
X57650Y-24198D01*
X57621Y-24085D01*
X57621Y-24001D01*
X57650Y-23889D01*
X57678Y-23832D01*
X57734Y-23776D01*
X57818Y-23748D01*
X57875Y-23748D01*
X57959Y-23776D01*
X57987Y-23804D01*
X55765Y-25283D02*
X55765Y-24693D01*
X55906Y-24693D01*
X55990Y-24721D01*
X56047Y-24777D01*
X56075Y-24833D01*
X56103Y-24946D01*
X56103Y-25030D01*
X56075Y-25143D01*
X56047Y-25199D01*
X55990Y-25255D01*
X55906Y-25283D01*
X55765Y-25283D01*
X56553Y-24974D02*
X56637Y-25002D01*
X56665Y-25030D01*
X56693Y-25087D01*
X56693Y-25171D01*
X56665Y-25227D01*
X56637Y-25255D01*
X56581Y-25283D01*
X56356Y-25283D01*
X56356Y-24693D01*
X56553Y-24693D01*
X56609Y-24721D01*
X56637Y-24749D01*
X56665Y-24805D01*
X56665Y-24862D01*
X56637Y-24918D01*
X56609Y-24946D01*
X56553Y-24974D01*
X56356Y-24974D01*
X56947Y-25058D02*
X57396Y-25058D01*
X57987Y-25283D02*
X57650Y-25283D01*
X57818Y-25283D02*
X57818Y-24693D01*
X57762Y-24777D01*
X57706Y-24833D01*
X57650Y-24862D01*
X16434Y-23176D02*
X16378Y-23148D01*
X16294Y-23148D01*
X16209Y-23176D01*
X16153Y-23232D01*
X16125Y-23289D01*
X16097Y-23401D01*
X16097Y-23485D01*
X16125Y-23598D01*
X16153Y-23654D01*
X16209Y-23710D01*
X16294Y-23739D01*
X16350Y-23739D01*
X16434Y-23710D01*
X16462Y-23682D01*
X16462Y-23485D01*
X16350Y-23485D01*
X16715Y-23739D02*
X16715Y-23345D01*
X16715Y-23457D02*
X16744Y-23401D01*
X16772Y-23373D01*
X16828Y-23345D01*
X16884Y-23345D01*
X17334Y-23345D02*
X17334Y-23739D01*
X17081Y-23345D02*
X17081Y-23654D01*
X17109Y-23710D01*
X17165Y-23739D01*
X17250Y-23739D01*
X17306Y-23710D01*
X17334Y-23682D01*
X17615Y-23345D02*
X17615Y-23935D01*
X17615Y-23373D02*
X17672Y-23345D01*
X17784Y-23345D01*
X17840Y-23373D01*
X17868Y-23401D01*
X17897Y-23457D01*
X17897Y-23626D01*
X17868Y-23682D01*
X17840Y-23710D01*
X17784Y-23739D01*
X17672Y-23739D01*
X17615Y-23710D01*
X18234Y-23739D02*
X18178Y-23710D01*
X18150Y-23682D01*
X18122Y-23626D01*
X18122Y-23457D01*
X18150Y-23401D01*
X18178Y-23373D01*
X18234Y-23345D01*
X18318Y-23345D01*
X18375Y-23373D01*
X18403Y-23401D01*
X18431Y-23457D01*
X18431Y-23626D01*
X18403Y-23682D01*
X18375Y-23710D01*
X18318Y-23739D01*
X18234Y-23739D01*
X19106Y-23570D02*
X19387Y-23570D01*
X19050Y-23739D02*
X19246Y-23148D01*
X19443Y-23739D01*
X17165Y-24683D02*
X17165Y-24093D01*
X17306Y-24093D01*
X17390Y-24121D01*
X17447Y-24177D01*
X17475Y-24233D01*
X17503Y-24346D01*
X17503Y-24430D01*
X17475Y-24543D01*
X17447Y-24599D01*
X17390Y-24655D01*
X17306Y-24683D01*
X17165Y-24683D01*
X17953Y-24374D02*
X18037Y-24402D01*
X18065Y-24430D01*
X18093Y-24487D01*
X18093Y-24571D01*
X18065Y-24627D01*
X18037Y-24655D01*
X17981Y-24683D01*
X17756Y-24683D01*
X17756Y-24093D01*
X17953Y-24093D01*
X18009Y-24121D01*
X18037Y-24149D01*
X18065Y-24205D01*
X18065Y-24262D01*
X18037Y-24318D01*
X18009Y-24346D01*
X17953Y-24374D01*
X17756Y-24374D01*
X18347Y-24458D02*
X18796Y-24458D01*
X19050Y-24149D02*
X19078Y-24121D01*
X19134Y-24093D01*
X19275Y-24093D01*
X19331Y-24121D01*
X19359Y-24149D01*
X19387Y-24205D01*
X19387Y-24262D01*
X19359Y-24346D01*
X19021Y-24683D01*
X19387Y-24683D01*
X30449Y-23976D02*
X30393Y-23948D01*
X30309Y-23948D01*
X30224Y-23976D01*
X30168Y-24032D01*
X30140Y-24089D01*
X30112Y-24201D01*
X30112Y-24285D01*
X30140Y-24398D01*
X30168Y-24454D01*
X30224Y-24510D01*
X30309Y-24539D01*
X30365Y-24539D01*
X30449Y-24510D01*
X30478Y-24482D01*
X30478Y-24285D01*
X30365Y-24285D01*
X30731Y-24539D02*
X30731Y-24145D01*
X30731Y-24257D02*
X30759Y-24201D01*
X30787Y-24173D01*
X30843Y-24145D01*
X30899Y-24145D01*
X31349Y-24145D02*
X31349Y-24539D01*
X31096Y-24145D02*
X31096Y-24454D01*
X31124Y-24510D01*
X31181Y-24539D01*
X31265Y-24539D01*
X31321Y-24510D01*
X31349Y-24482D01*
X31631Y-24145D02*
X31631Y-24735D01*
X31631Y-24173D02*
X31687Y-24145D01*
X31799Y-24145D01*
X31856Y-24173D01*
X31884Y-24201D01*
X31912Y-24257D01*
X31912Y-24426D01*
X31884Y-24482D01*
X31856Y-24510D01*
X31799Y-24539D01*
X31687Y-24539D01*
X31631Y-24510D01*
X32249Y-24539D02*
X32193Y-24510D01*
X32165Y-24482D01*
X32137Y-24426D01*
X32137Y-24257D01*
X32165Y-24201D01*
X32193Y-24173D01*
X32249Y-24145D01*
X32334Y-24145D01*
X32390Y-24173D01*
X32418Y-24201D01*
X32446Y-24257D01*
X32446Y-24426D01*
X32418Y-24482D01*
X32390Y-24510D01*
X32334Y-24539D01*
X32249Y-24539D01*
X33458Y-23976D02*
X33402Y-23948D01*
X33318Y-23948D01*
X33233Y-23976D01*
X33177Y-24032D01*
X33149Y-24089D01*
X33121Y-24201D01*
X33121Y-24285D01*
X33149Y-24398D01*
X33177Y-24454D01*
X33233Y-24510D01*
X33318Y-24539D01*
X33374Y-24539D01*
X33458Y-24510D01*
X33487Y-24482D01*
X33487Y-24285D01*
X33374Y-24285D01*
X30140Y-25483D02*
X30140Y-24893D01*
X30281Y-24893D01*
X30365Y-24921D01*
X30421Y-24977D01*
X30449Y-25033D01*
X30478Y-25146D01*
X30478Y-25230D01*
X30449Y-25343D01*
X30421Y-25399D01*
X30365Y-25455D01*
X30281Y-25483D01*
X30140Y-25483D01*
X30928Y-25174D02*
X31012Y-25202D01*
X31040Y-25230D01*
X31068Y-25287D01*
X31068Y-25371D01*
X31040Y-25427D01*
X31012Y-25455D01*
X30956Y-25483D01*
X30731Y-25483D01*
X30731Y-24893D01*
X30928Y-24893D01*
X30984Y-24921D01*
X31012Y-24949D01*
X31040Y-25005D01*
X31040Y-25062D01*
X31012Y-25118D01*
X30984Y-25146D01*
X30928Y-25174D01*
X30731Y-25174D01*
X31321Y-25258D02*
X31771Y-25258D01*
X32024Y-24949D02*
X32052Y-24921D01*
X32109Y-24893D01*
X32249Y-24893D01*
X32305Y-24921D01*
X32334Y-24949D01*
X32362Y-25005D01*
X32362Y-25062D01*
X32334Y-25146D01*
X31996Y-25483D01*
X32362Y-25483D01*
X50149Y-23776D02*
X50093Y-23748D01*
X50009Y-23748D01*
X49924Y-23776D01*
X49868Y-23832D01*
X49840Y-23889D01*
X49812Y-24001D01*
X49812Y-24085D01*
X49840Y-24198D01*
X49868Y-24254D01*
X49924Y-24310D01*
X50009Y-24339D01*
X50065Y-24339D01*
X50149Y-24310D01*
X50178Y-24282D01*
X50178Y-24085D01*
X50065Y-24085D01*
X50431Y-24339D02*
X50431Y-23945D01*
X50431Y-24057D02*
X50459Y-24001D01*
X50487Y-23973D01*
X50543Y-23945D01*
X50599Y-23945D01*
X51049Y-23945D02*
X51049Y-24339D01*
X50796Y-23945D02*
X50796Y-24254D01*
X50824Y-24310D01*
X50881Y-24339D01*
X50965Y-24339D01*
X51021Y-24310D01*
X51049Y-24282D01*
X51331Y-23945D02*
X51331Y-24535D01*
X51331Y-23973D02*
X51387Y-23945D01*
X51499Y-23945D01*
X51556Y-23973D01*
X51584Y-24001D01*
X51612Y-24057D01*
X51612Y-24226D01*
X51584Y-24282D01*
X51556Y-24310D01*
X51499Y-24339D01*
X51387Y-24339D01*
X51331Y-24310D01*
X51949Y-24339D02*
X51893Y-24310D01*
X51865Y-24282D01*
X51837Y-24226D01*
X51837Y-24057D01*
X51865Y-24001D01*
X51893Y-23973D01*
X51949Y-23945D01*
X52034Y-23945D01*
X52090Y-23973D01*
X52118Y-24001D01*
X52146Y-24057D01*
X52146Y-24226D01*
X52118Y-24282D01*
X52090Y-24310D01*
X52034Y-24339D01*
X51949Y-24339D01*
X52849Y-24339D02*
X52849Y-23748D01*
X49840Y-25283D02*
X49840Y-24693D01*
X49981Y-24693D01*
X50065Y-24721D01*
X50121Y-24777D01*
X50149Y-24833D01*
X50178Y-24946D01*
X50178Y-25030D01*
X50149Y-25143D01*
X50121Y-25199D01*
X50065Y-25255D01*
X49981Y-25283D01*
X49840Y-25283D01*
X50628Y-24974D02*
X50712Y-25002D01*
X50740Y-25030D01*
X50768Y-25087D01*
X50768Y-25171D01*
X50740Y-25227D01*
X50712Y-25255D01*
X50656Y-25283D01*
X50431Y-25283D01*
X50431Y-24693D01*
X50628Y-24693D01*
X50684Y-24721D01*
X50712Y-24749D01*
X50740Y-24805D01*
X50740Y-24862D01*
X50712Y-24918D01*
X50684Y-24946D01*
X50628Y-24974D01*
X50431Y-24974D01*
X51021Y-25058D02*
X51471Y-25058D01*
X51724Y-24749D02*
X51752Y-24721D01*
X51809Y-24693D01*
X51949Y-24693D01*
X52005Y-24721D01*
X52034Y-24749D01*
X52062Y-24805D01*
X52062Y-24862D01*
X52034Y-24946D01*
X51696Y-25283D01*
X52062Y-25283D01*
G54D13*
X58825Y-23659D02*
X58600Y-23659D01*
X58712Y-23659D02*
X58712Y-23265D01*
X58675Y-23321D01*
X58637Y-23359D01*
X58600Y-23378D01*
X58974Y-23303D02*
X58993Y-23284D01*
X59031Y-23265D01*
X59124Y-23265D01*
X59162Y-23284D01*
X59181Y-23303D01*
X59199Y-23340D01*
X59199Y-23378D01*
X59181Y-23434D01*
X58956Y-23659D01*
X59199Y-23659D01*
X46968Y-23265D02*
X47231Y-23265D01*
X47062Y-23659D01*
X46062Y-23434D02*
X46025Y-23415D01*
X46006Y-23396D01*
X45987Y-23359D01*
X45987Y-23340D01*
X46006Y-23303D01*
X46025Y-23284D01*
X46062Y-23265D01*
X46137Y-23265D01*
X46174Y-23284D01*
X46193Y-23303D01*
X46212Y-23340D01*
X46212Y-23359D01*
X46193Y-23396D01*
X46174Y-23415D01*
X46137Y-23434D01*
X46062Y-23434D01*
X46025Y-23453D01*
X46006Y-23471D01*
X45987Y-23509D01*
X45987Y-23584D01*
X46006Y-23621D01*
X46025Y-23640D01*
X46062Y-23659D01*
X46137Y-23659D01*
X46174Y-23640D01*
X46193Y-23621D01*
X46212Y-23584D01*
X46212Y-23509D01*
X46193Y-23471D01*
X46174Y-23453D01*
X46137Y-23434D01*
X40474Y-23396D02*
X40474Y-23659D01*
X40381Y-23246D02*
X40287Y-23528D01*
X40531Y-23528D01*
X20100Y-23503D02*
X20118Y-23484D01*
X20156Y-23465D01*
X20250Y-23465D01*
X20287Y-23484D01*
X20306Y-23503D01*
X20325Y-23540D01*
X20325Y-23578D01*
X20306Y-23634D01*
X20081Y-23859D01*
X20325Y-23859D01*
X20474Y-23503D02*
X20493Y-23484D01*
X20531Y-23465D01*
X20624Y-23465D01*
X20662Y-23484D01*
X20681Y-23503D01*
X20699Y-23540D01*
X20699Y-23578D01*
X20681Y-23634D01*
X20456Y-23859D01*
X20699Y-23859D01*
X21100Y-23503D02*
X21118Y-23484D01*
X21156Y-23465D01*
X21250Y-23465D01*
X21287Y-23484D01*
X21306Y-23503D01*
X21325Y-23540D01*
X21325Y-23578D01*
X21306Y-23634D01*
X21081Y-23859D01*
X21325Y-23859D01*
X21681Y-23465D02*
X21493Y-23465D01*
X21474Y-23653D01*
X21493Y-23634D01*
X21531Y-23615D01*
X21624Y-23615D01*
X21662Y-23634D01*
X21681Y-23653D01*
X21699Y-23690D01*
X21699Y-23784D01*
X21681Y-23821D01*
X21662Y-23840D01*
X21624Y-23859D01*
X21531Y-23859D01*
X21493Y-23840D01*
X21474Y-23821D01*
X22100Y-23503D02*
X22118Y-23484D01*
X22156Y-23465D01*
X22250Y-23465D01*
X22287Y-23484D01*
X22306Y-23503D01*
X22325Y-23540D01*
X22325Y-23578D01*
X22306Y-23634D01*
X22081Y-23859D01*
X22325Y-23859D01*
X22662Y-23596D02*
X22662Y-23859D01*
X22568Y-23446D02*
X22474Y-23728D01*
X22718Y-23728D01*
X23100Y-23503D02*
X23118Y-23484D01*
X23156Y-23465D01*
X23250Y-23465D01*
X23287Y-23484D01*
X23306Y-23503D01*
X23325Y-23540D01*
X23325Y-23578D01*
X23306Y-23634D01*
X23081Y-23859D01*
X23325Y-23859D01*
X23456Y-23465D02*
X23699Y-23465D01*
X23568Y-23615D01*
X23624Y-23615D01*
X23662Y-23634D01*
X23681Y-23653D01*
X23699Y-23690D01*
X23699Y-23784D01*
X23681Y-23821D01*
X23662Y-23840D01*
X23624Y-23859D01*
X23512Y-23859D01*
X23474Y-23840D01*
X23456Y-23821D01*
G54D11*
X36634Y-23776D02*
X36578Y-23748D01*
X36494Y-23748D01*
X36409Y-23776D01*
X36353Y-23832D01*
X36325Y-23889D01*
X36297Y-24001D01*
X36297Y-24085D01*
X36325Y-24198D01*
X36353Y-24254D01*
X36409Y-24310D01*
X36494Y-24339D01*
X36550Y-24339D01*
X36634Y-24310D01*
X36662Y-24282D01*
X36662Y-24085D01*
X36550Y-24085D01*
X36915Y-24339D02*
X36915Y-23945D01*
X36915Y-24057D02*
X36944Y-24001D01*
X36972Y-23973D01*
X37028Y-23945D01*
X37084Y-23945D01*
X37534Y-23945D02*
X37534Y-24339D01*
X37281Y-23945D02*
X37281Y-24254D01*
X37309Y-24310D01*
X37365Y-24339D01*
X37450Y-24339D01*
X37506Y-24310D01*
X37534Y-24282D01*
X37815Y-23945D02*
X37815Y-24535D01*
X37815Y-23973D02*
X37872Y-23945D01*
X37984Y-23945D01*
X38040Y-23973D01*
X38068Y-24001D01*
X38097Y-24057D01*
X38097Y-24226D01*
X38068Y-24282D01*
X38040Y-24310D01*
X37984Y-24339D01*
X37872Y-24339D01*
X37815Y-24310D01*
X38434Y-24339D02*
X38378Y-24310D01*
X38350Y-24282D01*
X38322Y-24226D01*
X38322Y-24057D01*
X38350Y-24001D01*
X38378Y-23973D01*
X38434Y-23945D01*
X38518Y-23945D01*
X38575Y-23973D01*
X38603Y-24001D01*
X38631Y-24057D01*
X38631Y-24226D01*
X38603Y-24282D01*
X38575Y-24310D01*
X38518Y-24339D01*
X38434Y-24339D01*
X39531Y-24029D02*
X39334Y-24029D01*
X39334Y-24339D02*
X39334Y-23748D01*
X39615Y-23748D01*
X37365Y-25283D02*
X37365Y-24693D01*
X37506Y-24693D01*
X37590Y-24721D01*
X37647Y-24777D01*
X37675Y-24833D01*
X37703Y-24946D01*
X37703Y-25030D01*
X37675Y-25143D01*
X37647Y-25199D01*
X37590Y-25255D01*
X37506Y-25283D01*
X37365Y-25283D01*
X38153Y-24974D02*
X38237Y-25002D01*
X38265Y-25030D01*
X38293Y-25087D01*
X38293Y-25171D01*
X38265Y-25227D01*
X38237Y-25255D01*
X38181Y-25283D01*
X37956Y-25283D01*
X37956Y-24693D01*
X38153Y-24693D01*
X38209Y-24721D01*
X38237Y-24749D01*
X38265Y-24805D01*
X38265Y-24862D01*
X38237Y-24918D01*
X38209Y-24946D01*
X38153Y-24974D01*
X37956Y-24974D01*
X38547Y-25058D02*
X38996Y-25058D01*
X39250Y-24749D02*
X39278Y-24721D01*
X39334Y-24693D01*
X39475Y-24693D01*
X39531Y-24721D01*
X39559Y-24749D01*
X39587Y-24805D01*
X39587Y-24862D01*
X39559Y-24946D01*
X39221Y-25283D01*
X39587Y-25283D01*
G54D12*
X93200Y-28600D02*
X15800Y-28600D01*
X31003Y-55901D02*
X21403Y-55901D01*
X31003Y-58401D02*
X31003Y-55901D01*
X21403Y-58401D02*
X31003Y-58401D01*
X21403Y-55901D02*
X21403Y-58401D01*
G54D11*
X90148Y-43853D02*
X90168Y-43913D01*
X90228Y-43973D01*
X90307Y-44013D01*
X90387Y-44013D01*
X90446Y-43993D01*
X90546Y-43933D01*
X90605Y-43873D01*
X90665Y-43774D01*
X90685Y-43714D01*
X90685Y-43635D01*
X90645Y-43555D01*
X90605Y-43515D01*
X90526Y-43476D01*
X90486Y-43476D01*
X90347Y-43615D01*
X90426Y-43694D01*
X90347Y-43257D02*
X89929Y-43674D01*
X90108Y-43018D01*
X89691Y-43436D01*
X89909Y-42819D02*
X89492Y-43237D01*
X89392Y-43138D01*
X89353Y-43058D01*
X89353Y-42978D01*
X89373Y-42919D01*
X89432Y-42819D01*
X89492Y-42760D01*
X89591Y-42700D01*
X89651Y-42680D01*
X89730Y-42680D01*
X89810Y-42720D01*
X89909Y-42819D01*
X90585Y-42313D02*
X90823Y-42552D01*
X90704Y-42433D02*
X90286Y-42850D01*
X90386Y-42830D01*
X90465Y-42830D01*
X90525Y-42850D01*
X90048Y-42532D02*
X90008Y-42532D01*
X89948Y-42512D01*
X89849Y-42413D01*
X89829Y-42353D01*
X89829Y-42313D01*
X89849Y-42254D01*
X89889Y-42214D01*
X89968Y-42174D01*
X90445Y-42174D01*
X90187Y-41916D01*
X89650Y-42214D02*
X89928Y-41657D01*
X89372Y-41936D01*
X22167Y-56845D02*
X22125Y-56882D01*
X22008Y-56920D01*
X21933Y-56920D01*
X21825Y-56882D01*
X21759Y-56807D01*
X21731Y-56732D01*
X21713Y-56582D01*
X21727Y-56470D01*
X21783Y-56320D01*
X21830Y-56245D01*
X21914Y-56170D01*
X22031Y-56132D01*
X22106Y-56132D01*
X22214Y-56170D01*
X22247Y-56207D01*
X22608Y-56920D02*
X22538Y-56882D01*
X22505Y-56845D01*
X22477Y-56770D01*
X22505Y-56545D01*
X22552Y-56470D01*
X22594Y-56432D01*
X22673Y-56395D01*
X22786Y-56395D01*
X22856Y-56432D01*
X22889Y-56470D01*
X22917Y-56545D01*
X22889Y-56770D01*
X22842Y-56845D01*
X22800Y-56882D01*
X22720Y-56920D01*
X22608Y-56920D01*
X23273Y-56395D02*
X23208Y-56920D01*
X23264Y-56470D02*
X23306Y-56432D01*
X23386Y-56395D01*
X23498Y-56395D01*
X23569Y-56432D01*
X23597Y-56507D01*
X23545Y-56920D01*
X23873Y-56395D02*
X24173Y-56395D01*
X24019Y-56132D02*
X23934Y-56807D01*
X23962Y-56882D01*
X24033Y-56920D01*
X24108Y-56920D01*
X24370Y-56920D02*
X24436Y-56395D01*
X24417Y-56545D02*
X24464Y-56470D01*
X24506Y-56432D01*
X24586Y-56395D01*
X24661Y-56395D01*
X24970Y-56920D02*
X24900Y-56882D01*
X24867Y-56845D01*
X24839Y-56770D01*
X24867Y-56545D01*
X24914Y-56470D01*
X24956Y-56432D01*
X25036Y-56395D01*
X25148Y-56395D01*
X25218Y-56432D01*
X25251Y-56470D01*
X25279Y-56545D01*
X25251Y-56770D01*
X25204Y-56845D01*
X25162Y-56882D01*
X25082Y-56920D01*
X24970Y-56920D01*
X25682Y-56920D02*
X25612Y-56882D01*
X25584Y-56807D01*
X25668Y-56132D01*
X26320Y-56920D02*
X26371Y-56507D01*
X26343Y-56432D01*
X26273Y-56395D01*
X26123Y-56395D01*
X26043Y-56432D01*
X26325Y-56882D02*
X26245Y-56920D01*
X26057Y-56920D01*
X25987Y-56882D01*
X25959Y-56807D01*
X25968Y-56732D01*
X26015Y-56657D01*
X26095Y-56620D01*
X26282Y-56620D01*
X26362Y-56582D01*
X27032Y-56920D02*
X27131Y-56132D01*
X27037Y-56882D02*
X26957Y-56920D01*
X26807Y-56920D01*
X26737Y-56882D01*
X26704Y-56845D01*
X26676Y-56770D01*
X26704Y-56545D01*
X26751Y-56470D01*
X26793Y-56432D01*
X26873Y-56395D01*
X27023Y-56395D01*
X27093Y-56432D01*
X27520Y-56920D02*
X27449Y-56882D01*
X27417Y-56845D01*
X27388Y-56770D01*
X27417Y-56545D01*
X27463Y-56470D01*
X27506Y-56432D01*
X27585Y-56395D01*
X27698Y-56395D01*
X27768Y-56432D01*
X27801Y-56470D01*
X27829Y-56545D01*
X27801Y-56770D01*
X27754Y-56845D01*
X27712Y-56882D01*
X27632Y-56920D01*
X27520Y-56920D01*
X28120Y-56920D02*
X28185Y-56395D01*
X28166Y-56545D02*
X28213Y-56470D01*
X28256Y-56432D01*
X28335Y-56395D01*
X28410Y-56395D01*
X29544Y-56920D02*
X29643Y-56132D01*
X29549Y-56882D02*
X29469Y-56920D01*
X29319Y-56920D01*
X29249Y-56882D01*
X29216Y-56845D01*
X29188Y-56770D01*
X29216Y-56545D01*
X29263Y-56470D01*
X29305Y-56432D01*
X29385Y-56395D01*
X29535Y-56395D01*
X29605Y-56432D01*
X30224Y-56882D02*
X30144Y-56920D01*
X29994Y-56920D01*
X29924Y-56882D01*
X29896Y-56807D01*
X29933Y-56507D01*
X29980Y-56432D01*
X30060Y-56395D01*
X30210Y-56395D01*
X30280Y-56432D01*
X30308Y-56507D01*
X30299Y-56582D01*
X29915Y-56657D01*
X21914Y-58140D02*
X21980Y-57615D01*
X21970Y-57690D02*
X22013Y-57653D01*
X22092Y-57615D01*
X22205Y-57615D01*
X22275Y-57653D01*
X22303Y-57728D01*
X22252Y-58140D01*
X22303Y-57728D02*
X22350Y-57653D01*
X22430Y-57615D01*
X22542Y-57615D01*
X22612Y-57653D01*
X22641Y-57728D01*
X22589Y-58140D01*
X23367Y-57615D02*
X23301Y-58140D01*
X23030Y-57615D02*
X22978Y-58028D01*
X23006Y-58103D01*
X23076Y-58140D01*
X23189Y-58140D01*
X23269Y-58103D01*
X23311Y-58065D01*
X23330Y-57315D02*
X23203Y-57428D01*
X23644Y-58103D02*
X23714Y-58140D01*
X23864Y-58140D01*
X23944Y-58103D01*
X23990Y-58028D01*
X23995Y-57990D01*
X23967Y-57915D01*
X23897Y-57878D01*
X23784Y-57878D01*
X23714Y-57840D01*
X23686Y-57765D01*
X23690Y-57728D01*
X23737Y-57653D01*
X23817Y-57615D01*
X23930Y-57615D01*
X24000Y-57653D01*
X24314Y-58140D02*
X24379Y-57615D01*
X24412Y-57353D02*
X24370Y-57390D01*
X24403Y-57428D01*
X24445Y-57390D01*
X24412Y-57353D01*
X24403Y-57428D01*
X25031Y-58103D02*
X24951Y-58140D01*
X24801Y-58140D01*
X24731Y-58103D01*
X24698Y-58065D01*
X24670Y-57990D01*
X24698Y-57765D01*
X24745Y-57690D01*
X24787Y-57653D01*
X24867Y-57615D01*
X25017Y-57615D01*
X25087Y-57653D01*
X25701Y-58140D02*
X25753Y-57728D01*
X25725Y-57653D01*
X25654Y-57615D01*
X25504Y-57615D01*
X25425Y-57653D01*
X25706Y-58103D02*
X25626Y-58140D01*
X25439Y-58140D01*
X25368Y-58103D01*
X25340Y-58028D01*
X25350Y-57953D01*
X25397Y-57878D01*
X25476Y-57840D01*
X25664Y-57840D01*
X25743Y-57803D01*
X26667Y-57615D02*
X26789Y-58140D01*
X27042Y-57615D02*
X26789Y-58140D01*
X26690Y-58328D01*
X26648Y-58365D01*
X26568Y-58403D01*
X27988Y-58140D02*
X27918Y-58103D01*
X27890Y-58028D01*
X27974Y-57353D01*
X28691Y-57615D02*
X28626Y-58140D01*
X28354Y-57615D02*
X28302Y-58028D01*
X28331Y-58103D01*
X28401Y-58140D01*
X28513Y-58140D01*
X28593Y-58103D01*
X28635Y-58065D01*
X29343Y-58103D02*
X29263Y-58140D01*
X29113Y-58140D01*
X29043Y-58103D01*
X29010Y-58065D01*
X28982Y-57990D01*
X29010Y-57765D01*
X29057Y-57690D01*
X29099Y-57653D01*
X29179Y-57615D01*
X29329Y-57615D01*
X29399Y-57653D01*
X29980Y-58103D02*
X29901Y-58140D01*
X29751Y-58140D01*
X29680Y-58103D01*
X29652Y-58028D01*
X29690Y-57728D01*
X29737Y-57653D01*
X29816Y-57615D01*
X29966Y-57615D01*
X30037Y-57653D01*
X30065Y-57728D01*
X30055Y-57803D01*
X29671Y-57878D01*
X30318Y-58103D02*
X30388Y-58140D01*
X30538Y-58140D01*
X30618Y-58103D01*
X30665Y-58028D01*
X30669Y-57990D01*
X30641Y-57915D01*
X30571Y-57878D01*
X30458Y-57878D01*
X30388Y-57840D01*
X30360Y-57765D01*
X30365Y-57728D01*
X30412Y-57653D01*
X30491Y-57615D01*
X30604Y-57615D01*
X30674Y-57653D01*
X90668Y-41189D02*
X90331Y-41189D01*
X90500Y-41189D02*
X90500Y-40598D01*
X90443Y-40682D01*
X90387Y-40739D01*
X90331Y-40767D01*
X83831Y-40654D02*
X83859Y-40626D01*
X83915Y-40598D01*
X84056Y-40598D01*
X84112Y-40626D01*
X84140Y-40654D01*
X84168Y-40710D01*
X84168Y-40767D01*
X84140Y-40851D01*
X83803Y-41189D01*
X84168Y-41189D01*
X77303Y-40598D02*
X77668Y-40598D01*
X77471Y-40823D01*
X77556Y-40823D01*
X77612Y-40851D01*
X77640Y-40879D01*
X77668Y-40935D01*
X77668Y-41076D01*
X77640Y-41132D01*
X77612Y-41160D01*
X77556Y-41189D01*
X77387Y-41189D01*
X77331Y-41160D01*
X77303Y-41132D01*
X67730Y-39313D02*
X67730Y-39707D01*
X67589Y-39088D02*
X67449Y-39510D01*
X67814Y-39510D01*
X61134Y-40696D02*
X60853Y-40696D01*
X60825Y-40978D01*
X60853Y-40950D01*
X60909Y-40921D01*
X61050Y-40921D01*
X61106Y-40950D01*
X61134Y-40978D01*
X61162Y-41034D01*
X61162Y-41174D01*
X61134Y-41231D01*
X61106Y-41259D01*
X61050Y-41287D01*
X60909Y-41287D01*
X60853Y-41259D01*
X60825Y-41231D01*
X54797Y-38231D02*
X54685Y-38231D01*
X54628Y-38259D01*
X54600Y-38287D01*
X54544Y-38371D01*
X54516Y-38484D01*
X54516Y-38709D01*
X54544Y-38765D01*
X54572Y-38793D01*
X54628Y-38821D01*
X54741Y-38821D01*
X54797Y-38793D01*
X54825Y-38765D01*
X54853Y-38709D01*
X54853Y-38568D01*
X54825Y-38512D01*
X54797Y-38484D01*
X54741Y-38456D01*
X54628Y-38456D01*
X54572Y-38484D01*
X54544Y-38512D01*
X54516Y-38568D01*
X48464Y-38270D02*
X48858Y-38270D01*
X48605Y-38861D01*
X41774Y-38582D02*
X41718Y-38554D01*
X41690Y-38526D01*
X41661Y-38470D01*
X41661Y-38442D01*
X41690Y-38385D01*
X41718Y-38357D01*
X41774Y-38329D01*
X41886Y-38329D01*
X41943Y-38357D01*
X41971Y-38385D01*
X41999Y-38442D01*
X41999Y-38470D01*
X41971Y-38526D01*
X41943Y-38554D01*
X41886Y-38582D01*
X41774Y-38582D01*
X41718Y-38610D01*
X41690Y-38638D01*
X41661Y-38695D01*
X41661Y-38807D01*
X41690Y-38863D01*
X41718Y-38892D01*
X41774Y-38920D01*
X41886Y-38920D01*
X41943Y-38892D01*
X41971Y-38863D01*
X41999Y-38807D01*
X41999Y-38695D01*
X41971Y-38638D01*
X41943Y-38610D01*
X41886Y-38582D01*
X35320Y-38821D02*
X35433Y-38821D01*
X35489Y-38793D01*
X35517Y-38765D01*
X35573Y-38681D01*
X35601Y-38568D01*
X35601Y-38343D01*
X35573Y-38287D01*
X35545Y-38259D01*
X35489Y-38231D01*
X35376Y-38231D01*
X35320Y-38259D01*
X35292Y-38287D01*
X35264Y-38343D01*
X35264Y-38484D01*
X35292Y-38540D01*
X35320Y-38568D01*
X35376Y-38596D01*
X35489Y-38596D01*
X35545Y-38568D01*
X35573Y-38540D01*
X35601Y-38484D01*
X28037Y-38821D02*
X27699Y-38821D01*
X27868Y-38821D02*
X27868Y-38231D01*
X27812Y-38315D01*
X27755Y-38371D01*
X27699Y-38399D01*
X28402Y-38231D02*
X28458Y-38231D01*
X28515Y-38259D01*
X28543Y-38287D01*
X28571Y-38343D01*
X28599Y-38456D01*
X28599Y-38596D01*
X28571Y-38709D01*
X28543Y-38765D01*
X28515Y-38793D01*
X28458Y-38821D01*
X28402Y-38821D01*
X28346Y-38793D01*
X28318Y-38765D01*
X28290Y-38709D01*
X28262Y-38596D01*
X28262Y-38456D01*
X28290Y-38343D01*
X28318Y-38287D01*
X28346Y-38259D01*
X28402Y-38231D01*
X21737Y-38821D02*
X21400Y-38821D01*
X21569Y-38821D02*
X21569Y-38231D01*
X21512Y-38315D01*
X21456Y-38371D01*
X21400Y-38399D01*
X22300Y-38821D02*
X21962Y-38821D01*
X22131Y-38821D02*
X22131Y-38231D01*
X22075Y-38315D01*
X22019Y-38371D01*
X21962Y-38399D01*
X16324Y-38821D02*
X15987Y-38821D01*
X16155Y-38821D02*
X16155Y-38231D01*
X16099Y-38315D01*
X16043Y-38371D01*
X15987Y-38399D01*
X16549Y-38287D02*
X16577Y-38259D01*
X16633Y-38231D01*
X16774Y-38231D01*
X16830Y-38259D01*
X16858Y-38287D01*
X16886Y-38343D01*
X16886Y-38399D01*
X16858Y-38484D01*
X16521Y-38821D01*
X16886Y-38821D01*
X40312Y-49451D02*
X40312Y-48861D01*
X40537Y-48861D01*
X40593Y-48889D01*
X40621Y-48917D01*
X40649Y-48973D01*
X40649Y-49057D01*
X40621Y-49114D01*
X40593Y-49142D01*
X40537Y-49170D01*
X40312Y-49170D01*
X40902Y-49451D02*
X40902Y-49057D01*
X40902Y-49170D02*
X40930Y-49114D01*
X40958Y-49086D01*
X41015Y-49057D01*
X41071Y-49057D01*
X41352Y-49451D02*
X41296Y-49423D01*
X41268Y-49395D01*
X41240Y-49339D01*
X41240Y-49170D01*
X41268Y-49114D01*
X41296Y-49086D01*
X41352Y-49057D01*
X41437Y-49057D01*
X41493Y-49086D01*
X41521Y-49114D01*
X41549Y-49170D01*
X41549Y-49339D01*
X41521Y-49395D01*
X41493Y-49423D01*
X41437Y-49451D01*
X41352Y-49451D01*
X42252Y-49451D02*
X42252Y-48861D01*
X42449Y-49282D01*
X42646Y-48861D01*
X42646Y-49451D01*
X42927Y-49451D02*
X42927Y-49057D01*
X42927Y-48861D02*
X42899Y-48889D01*
X42927Y-48917D01*
X42955Y-48889D01*
X42927Y-48861D01*
X42927Y-48917D01*
X43208Y-49057D02*
X43208Y-49451D01*
X43208Y-49114D02*
X43236Y-49086D01*
X43293Y-49057D01*
X43377Y-49057D01*
X43433Y-49086D01*
X43461Y-49142D01*
X43461Y-49451D01*
X43742Y-49451D02*
X43742Y-49057D01*
X43742Y-48861D02*
X43714Y-48889D01*
X43742Y-48917D01*
X43771Y-48889D01*
X43742Y-48861D01*
X43742Y-48917D01*
X23832Y-54963D02*
X23832Y-54372D01*
X23973Y-54372D01*
X24057Y-54401D01*
X24114Y-54457D01*
X24142Y-54513D01*
X24170Y-54625D01*
X24170Y-54710D01*
X24142Y-54822D01*
X24114Y-54879D01*
X24057Y-54935D01*
X23973Y-54963D01*
X23832Y-54963D01*
X24423Y-54963D02*
X24423Y-54372D01*
X24704Y-54963D02*
X24704Y-54372D01*
X25042Y-54963D01*
X25042Y-54372D01*
X25604Y-54372D02*
X25323Y-54372D01*
X25295Y-54654D01*
X25323Y-54625D01*
X25379Y-54597D01*
X25520Y-54597D01*
X25576Y-54625D01*
X25604Y-54654D01*
X25632Y-54710D01*
X25632Y-54850D01*
X25604Y-54907D01*
X25576Y-54935D01*
X25520Y-54963D01*
X25379Y-54963D01*
X25323Y-54935D01*
X25295Y-54907D01*
X26673Y-54907D02*
X26645Y-54935D01*
X26560Y-54963D01*
X26504Y-54963D01*
X26420Y-54935D01*
X26363Y-54879D01*
X26335Y-54822D01*
X26307Y-54710D01*
X26307Y-54625D01*
X26335Y-54513D01*
X26363Y-54457D01*
X26420Y-54401D01*
X26504Y-54372D01*
X26560Y-54372D01*
X26645Y-54401D01*
X26673Y-54429D01*
X27010Y-54963D02*
X26954Y-54935D01*
X26926Y-54907D01*
X26898Y-54850D01*
X26898Y-54682D01*
X26926Y-54625D01*
X26954Y-54597D01*
X27010Y-54569D01*
X27095Y-54569D01*
X27151Y-54597D01*
X27179Y-54625D01*
X27207Y-54682D01*
X27207Y-54850D01*
X27179Y-54907D01*
X27151Y-54935D01*
X27095Y-54963D01*
X27010Y-54963D01*
X27460Y-54569D02*
X27460Y-54963D01*
X27460Y-54625D02*
X27488Y-54597D01*
X27544Y-54569D01*
X27629Y-54569D01*
X27685Y-54597D01*
X27713Y-54654D01*
X27713Y-54963D01*
X27994Y-54569D02*
X27994Y-54963D01*
X27994Y-54625D02*
X28023Y-54597D01*
X28079Y-54569D01*
X28163Y-54569D01*
X28219Y-54597D01*
X28248Y-54654D01*
X28248Y-54963D01*
X28754Y-54935D02*
X28697Y-54963D01*
X28585Y-54963D01*
X28529Y-54935D01*
X28501Y-54879D01*
X28501Y-54654D01*
X28529Y-54597D01*
X28585Y-54569D01*
X28697Y-54569D01*
X28754Y-54597D01*
X28782Y-54654D01*
X28782Y-54710D01*
X28501Y-54766D01*
X29288Y-54935D02*
X29232Y-54963D01*
X29119Y-54963D01*
X29063Y-54935D01*
X29035Y-54907D01*
X29007Y-54850D01*
X29007Y-54682D01*
X29035Y-54625D01*
X29063Y-54597D01*
X29119Y-54569D01*
X29232Y-54569D01*
X29288Y-54597D01*
X29457Y-54569D02*
X29682Y-54569D01*
X29541Y-54372D02*
X29541Y-54879D01*
X29569Y-54935D01*
X29625Y-54963D01*
X29682Y-54963D01*
X29963Y-54963D02*
X29907Y-54935D01*
X29879Y-54907D01*
X29850Y-54850D01*
X29850Y-54682D01*
X29879Y-54625D01*
X29907Y-54597D01*
X29963Y-54569D01*
X30047Y-54569D01*
X30104Y-54597D01*
X30132Y-54625D01*
X30160Y-54682D01*
X30160Y-54850D01*
X30132Y-54907D01*
X30104Y-54935D01*
X30047Y-54963D01*
X29963Y-54963D01*
X30413Y-54963D02*
X30413Y-54569D01*
X30413Y-54682D02*
X30441Y-54625D01*
X30469Y-54597D01*
X30525Y-54569D01*
X30582Y-54569D01*
X56706Y-54097D02*
X56706Y-53506D01*
X56903Y-53928D01*
X57100Y-53506D01*
X57100Y-54097D01*
X57381Y-54097D02*
X57381Y-53506D01*
X57606Y-53506D01*
X57663Y-53534D01*
X57691Y-53562D01*
X57719Y-53619D01*
X57719Y-53703D01*
X57691Y-53759D01*
X57663Y-53787D01*
X57606Y-53816D01*
X57381Y-53816D01*
X57916Y-53506D02*
X58281Y-53506D01*
X58084Y-53731D01*
X58169Y-53731D01*
X58225Y-53759D01*
X58253Y-53787D01*
X58281Y-53844D01*
X58281Y-53984D01*
X58253Y-54041D01*
X58225Y-54069D01*
X58169Y-54097D01*
X58000Y-54097D01*
X57944Y-54069D01*
X57916Y-54041D01*
X58984Y-54097D02*
X58984Y-53506D01*
X59181Y-53928D01*
X59378Y-53506D01*
X59378Y-54097D01*
X59744Y-54097D02*
X59687Y-54069D01*
X59659Y-54041D01*
X59631Y-53984D01*
X59631Y-53816D01*
X59659Y-53759D01*
X59687Y-53731D01*
X59744Y-53703D01*
X59828Y-53703D01*
X59884Y-53731D01*
X59912Y-53759D01*
X59940Y-53816D01*
X59940Y-53984D01*
X59912Y-54041D01*
X59884Y-54069D01*
X59828Y-54097D01*
X59744Y-54097D01*
X60447Y-54097D02*
X60447Y-53506D01*
X60447Y-54069D02*
X60390Y-54097D01*
X60278Y-54097D01*
X60222Y-54069D01*
X60194Y-54041D01*
X60165Y-53984D01*
X60165Y-53816D01*
X60194Y-53759D01*
X60222Y-53731D01*
X60278Y-53703D01*
X60390Y-53703D01*
X60447Y-53731D01*
X60981Y-53703D02*
X60981Y-54097D01*
X60728Y-53703D02*
X60728Y-54012D01*
X60756Y-54069D01*
X60812Y-54097D01*
X60897Y-54097D01*
X60953Y-54069D01*
X60981Y-54041D01*
X61347Y-54097D02*
X61290Y-54069D01*
X61262Y-54012D01*
X61262Y-53506D01*
X61796Y-54069D02*
X61740Y-54097D01*
X61628Y-54097D01*
X61571Y-54069D01*
X61543Y-54012D01*
X61543Y-53787D01*
X61571Y-53731D01*
X61628Y-53703D01*
X61740Y-53703D01*
X61796Y-53731D01*
X61825Y-53787D01*
X61825Y-53844D01*
X61543Y-53900D01*
G54D10*
X80314Y-55918D02*
X80314Y-54318D01*
X81314Y-55918D02*
X81314Y-54318D01*
X77314Y-54318D02*
X83314Y-54318D01*
X83314Y-54318D02*
X83314Y-55918D01*
X83314Y-55918D02*
X77314Y-55918D01*
X77314Y-55918D02*
X77314Y-54318D01*
X82011Y-41716D02*
X82011Y-43616D01*
X79011Y-41716D02*
X79011Y-43616D01*
X81011Y-41716D02*
X81011Y-43616D01*
G54D14*
X79011Y-41716D02*
X82011Y-41716D01*
X82011Y-43616D02*
X79011Y-43616D01*
G54D15*
X52585Y-55350D02*
X51085Y-53850D01*
X51085Y-53850D02*
X50585Y-53850D01*
X50585Y-53850D02*
X50085Y-54350D01*
X50085Y-54350D02*
X50085Y-55350D01*
X50085Y-55350D02*
X51085Y-56350D01*
X51085Y-56350D02*
X52085Y-56350D01*
X52085Y-56350D02*
X52585Y-55850D01*
X52585Y-55850D02*
X52585Y-55350D01*
G54D10*
X40059Y-50295D02*
X38779Y-51574D01*
X38779Y-51574D02*
X37500Y-50295D01*
X37500Y-50295D02*
X38779Y-49015D01*
X38779Y-49015D02*
X40059Y-50295D01*
X46062Y-53838D02*
X46062Y-46653D01*
X46062Y-46653D02*
X33464Y-46653D01*
X33464Y-46653D02*
X33464Y-53838D01*
X33464Y-53838D02*
X46062Y-53838D01*
X16300Y-51690D02*
X16694Y-51690D01*
X16300Y-51395D02*
X16694Y-51395D01*
X16300Y-51100D02*
X16694Y-51100D01*
X16300Y-50804D02*
X16694Y-50804D01*
X16300Y-50509D02*
X16694Y-50509D01*
X18170Y-51985D02*
X16300Y-51985D01*
X18170Y-50214D02*
X16300Y-50214D01*
X20237Y-53166D02*
X20237Y-53659D01*
X20237Y-53659D02*
X16300Y-53659D01*
X16300Y-53659D02*
X16300Y-52871D01*
X16300Y-52871D02*
X18170Y-52871D01*
X18170Y-52871D02*
X18170Y-52281D01*
X18170Y-52281D02*
X16300Y-52281D01*
X16300Y-52281D02*
X16300Y-49918D01*
X16300Y-49918D02*
X18170Y-49918D01*
X18170Y-49918D02*
X18170Y-49426D01*
X18170Y-49426D02*
X18170Y-49229D01*
X18170Y-49229D02*
X16300Y-49229D01*
X16300Y-49229D02*
X16300Y-48540D01*
X16300Y-48540D02*
X20237Y-48540D01*
X20237Y-48540D02*
X20237Y-49131D01*
G54D16*
X18700Y-53100D02*
X18450Y-53100D01*
X18450Y-53100D02*
X18450Y-49100D01*
X18450Y-49100D02*
X18700Y-49100D01*
X20200Y-53100D02*
X18700Y-53100D01*
X18700Y-53100D02*
X18700Y-49100D01*
X18700Y-49100D02*
X20200Y-49100D01*
X20200Y-49100D02*
X20200Y-53100D01*
G54D17*
X49450Y-35000D02*
X49450Y-34800D01*
X49450Y-32000D02*
X49450Y-32200D01*
X49450Y-32200D02*
X49050Y-32200D01*
X49050Y-32200D02*
X49050Y-34800D01*
X49050Y-34800D02*
X49850Y-34800D01*
X49850Y-34800D02*
X49850Y-32200D01*
X49850Y-32200D02*
X49450Y-32200D01*
X49250Y-34800D02*
X49050Y-34600D01*
X16750Y-35000D02*
X16750Y-34800D01*
X16750Y-32000D02*
X16750Y-32200D01*
X16750Y-32200D02*
X16350Y-32200D01*
X16350Y-32200D02*
X16350Y-34800D01*
X16350Y-34800D02*
X17150Y-34800D01*
X17150Y-34800D02*
X17150Y-32200D01*
X17150Y-32200D02*
X16750Y-32200D01*
X16550Y-34800D02*
X16350Y-34600D01*
X22950Y-35000D02*
X22950Y-34800D01*
X22950Y-32000D02*
X22950Y-32200D01*
X22950Y-32200D02*
X22550Y-32200D01*
X22550Y-32200D02*
X22550Y-34800D01*
X22550Y-34800D02*
X23350Y-34800D01*
X23350Y-34800D02*
X23350Y-32200D01*
X23350Y-32200D02*
X22950Y-32200D01*
X22750Y-34800D02*
X22550Y-34600D01*
X29350Y-35000D02*
X29350Y-34800D01*
X29350Y-32000D02*
X29350Y-32200D01*
X29350Y-32200D02*
X28950Y-32200D01*
X28950Y-32200D02*
X28950Y-34800D01*
X28950Y-34800D02*
X29750Y-34800D01*
X29750Y-34800D02*
X29750Y-32200D01*
X29750Y-32200D02*
X29350Y-32200D01*
X29150Y-34800D02*
X28950Y-34600D01*
X36250Y-35000D02*
X36250Y-34800D01*
X36250Y-32000D02*
X36250Y-32200D01*
X36250Y-32200D02*
X35850Y-32200D01*
X35850Y-32200D02*
X35850Y-34800D01*
X35850Y-34800D02*
X36650Y-34800D01*
X36650Y-34800D02*
X36650Y-32200D01*
X36650Y-32200D02*
X36250Y-32200D01*
X36050Y-34800D02*
X35850Y-34600D01*
X42850Y-35000D02*
X42850Y-34800D01*
X42850Y-32000D02*
X42850Y-32200D01*
X42850Y-32200D02*
X42450Y-32200D01*
X42450Y-32200D02*
X42450Y-34800D01*
X42450Y-34800D02*
X43250Y-34800D01*
X43250Y-34800D02*
X43250Y-32200D01*
X43250Y-32200D02*
X42850Y-32200D01*
X42650Y-34800D02*
X42450Y-34600D01*
X88550Y-35000D02*
X88550Y-34800D01*
X88550Y-32000D02*
X88550Y-32200D01*
X88550Y-32200D02*
X88150Y-32200D01*
X88150Y-32200D02*
X88150Y-34800D01*
X88150Y-34800D02*
X88950Y-34800D01*
X88950Y-34800D02*
X88950Y-32200D01*
X88950Y-32200D02*
X88550Y-32200D01*
X88350Y-34800D02*
X88150Y-34600D01*
X81950Y-35000D02*
X81950Y-34800D01*
X81950Y-32000D02*
X81950Y-32200D01*
X81950Y-32200D02*
X81550Y-32200D01*
X81550Y-32200D02*
X81550Y-34800D01*
X81550Y-34800D02*
X82350Y-34800D01*
X82350Y-34800D02*
X82350Y-32200D01*
X82350Y-32200D02*
X81950Y-32200D01*
X81750Y-34800D02*
X81550Y-34600D01*
X55650Y-35000D02*
X55650Y-34800D01*
X55650Y-32000D02*
X55650Y-32200D01*
X55650Y-32200D02*
X55250Y-32200D01*
X55250Y-32200D02*
X55250Y-34800D01*
X55250Y-34800D02*
X56050Y-34800D01*
X56050Y-34800D02*
X56050Y-32200D01*
X56050Y-32200D02*
X55650Y-32200D01*
X55450Y-34800D02*
X55250Y-34600D01*
X61650Y-35000D02*
X61650Y-34800D01*
X61650Y-32000D02*
X61650Y-32200D01*
X61650Y-32200D02*
X61250Y-32200D01*
X61250Y-32200D02*
X61250Y-34800D01*
X61250Y-34800D02*
X62050Y-34800D01*
X62050Y-34800D02*
X62050Y-32200D01*
X62050Y-32200D02*
X61650Y-32200D01*
X61450Y-34800D02*
X61250Y-34600D01*
X68450Y-35000D02*
X68450Y-34800D01*
X68450Y-32000D02*
X68450Y-32200D01*
X68450Y-32200D02*
X68050Y-32200D01*
X68050Y-32200D02*
X68050Y-34800D01*
X68050Y-34800D02*
X68850Y-34800D01*
X68850Y-34800D02*
X68850Y-32200D01*
X68850Y-32200D02*
X68450Y-32200D01*
X68250Y-34800D02*
X68050Y-34600D01*
X32570Y-35950D02*
X32570Y-34450D01*
G54D18*
X32257Y-35200D02*
G75*
G03X32257Y-35200I-707J0D01*
G74*
G01*
G54D19*
X32549Y-34449D02*
G75*
G03X32549Y-35950I-999J-750D01*
G74*
G01*
G54D14*
X31550Y-34750D02*
G75*
G03X31100Y-35200I0J-450D01*
G74*
G01*
X31550Y-35650D02*
G75*
G03X32000Y-35200I0J450D01*
G74*
G01*
X31550Y-34550D02*
G75*
G03X30900Y-35200I0J-650D01*
G74*
G01*
X31550Y-35850D02*
G75*
G03X32200Y-35200I0J650D01*
G74*
G01*
X31550Y-34350D02*
G75*
G03X30700Y-35200I0J-850D01*
G74*
G01*
X31550Y-36050D02*
G75*
G03X32400Y-35200I0J850D01*
G74*
G01*
G54D17*
X39370Y-35950D02*
X39370Y-34450D01*
G54D18*
X39057Y-35200D02*
G75*
G03X39057Y-35200I-707J0D01*
G74*
G01*
G54D19*
X39349Y-34449D02*
G75*
G03X39349Y-35950I-999J-750D01*
G74*
G01*
G54D14*
X38350Y-34750D02*
G75*
G03X37900Y-35200I0J-450D01*
G74*
G01*
X38350Y-35650D02*
G75*
G03X38800Y-35200I0J450D01*
G74*
G01*
X38350Y-34550D02*
G75*
G03X37700Y-35200I0J-650D01*
G74*
G01*
X38350Y-35850D02*
G75*
G03X39000Y-35200I0J650D01*
G74*
G01*
X38350Y-34350D02*
G75*
G03X37500Y-35200I0J-850D01*
G74*
G01*
X38350Y-36050D02*
G75*
G03X39200Y-35200I0J850D01*
G74*
G01*
G54D17*
X26170Y-35950D02*
X26170Y-34450D01*
G54D18*
X25857Y-35200D02*
G75*
G03X25857Y-35200I-707J0D01*
G74*
G01*
G54D19*
X26149Y-34449D02*
G75*
G03X26149Y-35950I-999J-750D01*
G74*
G01*
G54D14*
X25150Y-34750D02*
G75*
G03X24700Y-35200I0J-450D01*
G74*
G01*
X25150Y-35650D02*
G75*
G03X25600Y-35200I0J450D01*
G74*
G01*
X25150Y-34550D02*
G75*
G03X24500Y-35200I0J-650D01*
G74*
G01*
X25150Y-35850D02*
G75*
G03X25800Y-35200I0J650D01*
G74*
G01*
X25150Y-34350D02*
G75*
G03X24300Y-35200I0J-850D01*
G74*
G01*
X25150Y-36050D02*
G75*
G03X26000Y-35200I0J850D01*
G74*
G01*
G54D17*
X91770Y-35950D02*
X91770Y-34450D01*
G54D18*
X91457Y-35200D02*
G75*
G03X91457Y-35200I-707J0D01*
G74*
G01*
G54D19*
X91749Y-34449D02*
G75*
G03X91749Y-35950I-999J-750D01*
G74*
G01*
G54D14*
X90750Y-34750D02*
G75*
G03X90300Y-35200I0J-450D01*
G74*
G01*
X90750Y-35650D02*
G75*
G03X91200Y-35200I0J450D01*
G74*
G01*
X90750Y-34550D02*
G75*
G03X90100Y-35200I0J-650D01*
G74*
G01*
X90750Y-35850D02*
G75*
G03X91400Y-35200I0J650D01*
G74*
G01*
X90750Y-34350D02*
G75*
G03X89900Y-35200I0J-850D01*
G74*
G01*
X90750Y-36050D02*
G75*
G03X91600Y-35200I0J850D01*
G74*
G01*
G54D17*
X71670Y-35950D02*
X71670Y-34450D01*
G54D18*
X71357Y-35200D02*
G75*
G03X71357Y-35200I-707J0D01*
G74*
G01*
G54D19*
X71649Y-34449D02*
G75*
G03X71649Y-35950I-999J-750D01*
G74*
G01*
G54D14*
X70650Y-34750D02*
G75*
G03X70200Y-35200I0J-450D01*
G74*
G01*
X70650Y-35650D02*
G75*
G03X71100Y-35200I0J450D01*
G74*
G01*
X70650Y-34550D02*
G75*
G03X70000Y-35200I0J-650D01*
G74*
G01*
X70650Y-35850D02*
G75*
G03X71300Y-35200I0J650D01*
G74*
G01*
X70650Y-34350D02*
G75*
G03X69800Y-35200I0J-850D01*
G74*
G01*
X70650Y-36050D02*
G75*
G03X71500Y-35200I0J850D01*
G74*
G01*
G54D17*
X20020Y-35950D02*
X20020Y-34450D01*
G54D18*
X19707Y-35200D02*
G75*
G03X19707Y-35200I-707J0D01*
G74*
G01*
G54D19*
X19999Y-34449D02*
G75*
G03X19999Y-35950I-999J-750D01*
G74*
G01*
G54D14*
X19000Y-34750D02*
G75*
G03X18550Y-35200I0J-450D01*
G74*
G01*
X19000Y-35650D02*
G75*
G03X19450Y-35200I0J450D01*
G74*
G01*
X19000Y-34550D02*
G75*
G03X18350Y-35200I0J-650D01*
G74*
G01*
X19000Y-35850D02*
G75*
G03X19650Y-35200I0J650D01*
G74*
G01*
X19000Y-34350D02*
G75*
G03X18150Y-35200I0J-850D01*
G74*
G01*
X19000Y-36050D02*
G75*
G03X19850Y-35200I0J850D01*
G74*
G01*
G54D17*
X46070Y-35950D02*
X46070Y-34450D01*
G54D18*
X45757Y-35200D02*
G75*
G03X45757Y-35200I-707J0D01*
G74*
G01*
G54D19*
X46049Y-34449D02*
G75*
G03X46049Y-35950I-999J-750D01*
G74*
G01*
G54D14*
X45050Y-34750D02*
G75*
G03X44600Y-35200I0J-450D01*
G74*
G01*
X45050Y-35650D02*
G75*
G03X45500Y-35200I0J450D01*
G74*
G01*
X45050Y-34550D02*
G75*
G03X44400Y-35200I0J-650D01*
G74*
G01*
X45050Y-35850D02*
G75*
G03X45700Y-35200I0J650D01*
G74*
G01*
X45050Y-34350D02*
G75*
G03X44200Y-35200I0J-850D01*
G74*
G01*
X45050Y-36050D02*
G75*
G03X45900Y-35200I0J850D01*
G74*
G01*
G54D17*
X85070Y-35950D02*
X85070Y-34450D01*
G54D18*
X84757Y-35200D02*
G75*
G03X84757Y-35200I-707J0D01*
G74*
G01*
G54D19*
X85049Y-34449D02*
G75*
G03X85049Y-35950I-999J-750D01*
G74*
G01*
G54D14*
X84050Y-34750D02*
G75*
G03X83600Y-35200I0J-450D01*
G74*
G01*
X84050Y-35650D02*
G75*
G03X84500Y-35200I0J450D01*
G74*
G01*
X84050Y-34550D02*
G75*
G03X83400Y-35200I0J-650D01*
G74*
G01*
X84050Y-35850D02*
G75*
G03X84700Y-35200I0J650D01*
G74*
G01*
X84050Y-34350D02*
G75*
G03X83200Y-35200I0J-850D01*
G74*
G01*
X84050Y-36050D02*
G75*
G03X84900Y-35200I0J850D01*
G74*
G01*
G54D17*
X52570Y-35950D02*
X52570Y-34450D01*
G54D18*
X52257Y-35200D02*
G75*
G03X52257Y-35200I-707J0D01*
G74*
G01*
G54D19*
X52549Y-34449D02*
G75*
G03X52549Y-35950I-999J-750D01*
G74*
G01*
G54D14*
X51550Y-34750D02*
G75*
G03X51100Y-35200I0J-450D01*
G74*
G01*
X51550Y-35650D02*
G75*
G03X52000Y-35200I0J450D01*
G74*
G01*
X51550Y-34550D02*
G75*
G03X50900Y-35200I0J-650D01*
G74*
G01*
X51550Y-35850D02*
G75*
G03X52200Y-35200I0J650D01*
G74*
G01*
X51550Y-34350D02*
G75*
G03X50700Y-35200I0J-850D01*
G74*
G01*
X51550Y-36050D02*
G75*
G03X52400Y-35200I0J850D01*
G74*
G01*
G54D17*
X64870Y-35950D02*
X64870Y-34450D01*
G54D18*
X64557Y-35200D02*
G75*
G03X64557Y-35200I-707J0D01*
G74*
G01*
G54D19*
X64849Y-34449D02*
G75*
G03X64849Y-35950I-999J-750D01*
G74*
G01*
G54D14*
X63850Y-34750D02*
G75*
G03X63400Y-35200I0J-450D01*
G74*
G01*
X63850Y-35650D02*
G75*
G03X64300Y-35200I0J450D01*
G74*
G01*
X63850Y-34550D02*
G75*
G03X63200Y-35200I0J-650D01*
G74*
G01*
X63850Y-35850D02*
G75*
G03X64500Y-35200I0J650D01*
G74*
G01*
X63850Y-34350D02*
G75*
G03X63000Y-35200I0J-850D01*
G74*
G01*
X63850Y-36050D02*
G75*
G03X64700Y-35200I0J850D01*
G74*
G01*
G54D17*
X58870Y-35950D02*
X58870Y-34450D01*
G54D18*
X58557Y-35200D02*
G75*
G03X58557Y-35200I-707J0D01*
G74*
G01*
G54D19*
X58849Y-34449D02*
G75*
G03X58849Y-35950I-999J-750D01*
G74*
G01*
G54D14*
X57850Y-34750D02*
G75*
G03X57400Y-35200I0J-450D01*
G74*
G01*
X57850Y-35650D02*
G75*
G03X58300Y-35200I0J450D01*
G74*
G01*
X57850Y-34550D02*
G75*
G03X57200Y-35200I0J-650D01*
G74*
G01*
X57850Y-35850D02*
G75*
G03X58500Y-35200I0J650D01*
G74*
G01*
X57850Y-34350D02*
G75*
G03X57000Y-35200I0J-850D01*
G74*
G01*
X57850Y-36050D02*
G75*
G03X58700Y-35200I0J850D01*
G74*
G01*
G54D15*
X46450Y-27800D02*
X46150Y-27800D01*
X46150Y-27800D02*
X46150Y-27400D01*
X46150Y-27400D02*
X43750Y-27400D01*
X43750Y-27400D02*
X43750Y-27800D01*
X43750Y-27800D02*
X43450Y-27800D01*
X43750Y-27800D02*
X43750Y-28200D01*
X43750Y-28200D02*
X46150Y-28200D01*
X46150Y-28200D02*
X46150Y-27800D01*
X45950Y-27400D02*
X45950Y-28200D01*
X45850Y-28200D02*
X45850Y-27400D01*
X85450Y-27800D02*
X85150Y-27800D01*
X85150Y-27800D02*
X85150Y-27400D01*
X85150Y-27400D02*
X82750Y-27400D01*
X82750Y-27400D02*
X82750Y-27800D01*
X82750Y-27800D02*
X82450Y-27800D01*
X82750Y-27800D02*
X82750Y-28200D01*
X82750Y-28200D02*
X85150Y-28200D01*
X85150Y-28200D02*
X85150Y-27800D01*
X84950Y-27400D02*
X84950Y-28200D01*
X84850Y-28200D02*
X84850Y-27400D01*
X65250Y-27800D02*
X64950Y-27800D01*
X64950Y-27800D02*
X64950Y-27400D01*
X64950Y-27400D02*
X62550Y-27400D01*
X62550Y-27400D02*
X62550Y-27800D01*
X62550Y-27800D02*
X62250Y-27800D01*
X62550Y-27800D02*
X62550Y-28200D01*
X62550Y-28200D02*
X64950Y-28200D01*
X64950Y-28200D02*
X64950Y-27800D01*
X64750Y-27400D02*
X64750Y-28200D01*
X64650Y-28200D02*
X64650Y-27400D01*
X19650Y-27800D02*
X19350Y-27800D01*
X19350Y-27800D02*
X19350Y-27400D01*
X19350Y-27400D02*
X16950Y-27400D01*
X16950Y-27400D02*
X16950Y-27800D01*
X16950Y-27800D02*
X16650Y-27800D01*
X16950Y-27800D02*
X16950Y-28200D01*
X16950Y-28200D02*
X19350Y-28200D01*
X19350Y-28200D02*
X19350Y-27800D01*
X19150Y-27400D02*
X19150Y-28200D01*
X19050Y-28200D02*
X19050Y-27400D01*
X26550Y-27800D02*
X26250Y-27800D01*
X26250Y-27800D02*
X26250Y-27400D01*
X26250Y-27400D02*
X23850Y-27400D01*
X23850Y-27400D02*
X23850Y-27800D01*
X23850Y-27800D02*
X23550Y-27800D01*
X23850Y-27800D02*
X23850Y-28200D01*
X23850Y-28200D02*
X26250Y-28200D01*
X26250Y-28200D02*
X26250Y-27800D01*
X26050Y-27400D02*
X26050Y-28200D01*
X25950Y-28200D02*
X25950Y-27400D01*
X92050Y-27800D02*
X91750Y-27800D01*
X91750Y-27800D02*
X91750Y-27400D01*
X91750Y-27400D02*
X89350Y-27400D01*
X89350Y-27400D02*
X89350Y-27800D01*
X89350Y-27800D02*
X89050Y-27800D01*
X89350Y-27800D02*
X89350Y-28200D01*
X89350Y-28200D02*
X91750Y-28200D01*
X91750Y-28200D02*
X91750Y-27800D01*
X91550Y-27400D02*
X91550Y-28200D01*
X91450Y-28200D02*
X91450Y-27400D01*
X78950Y-27800D02*
X78650Y-27800D01*
X78650Y-27800D02*
X78650Y-27400D01*
X78650Y-27400D02*
X76250Y-27400D01*
X76250Y-27400D02*
X76250Y-27800D01*
X76250Y-27800D02*
X75950Y-27800D01*
X76250Y-27800D02*
X76250Y-28200D01*
X76250Y-28200D02*
X78650Y-28200D01*
X78650Y-28200D02*
X78650Y-27800D01*
X78450Y-27400D02*
X78450Y-28200D01*
X78350Y-28200D02*
X78350Y-27400D01*
X59150Y-27800D02*
X58850Y-27800D01*
X58850Y-27800D02*
X58850Y-27400D01*
X58850Y-27400D02*
X56450Y-27400D01*
X56450Y-27400D02*
X56450Y-27800D01*
X56450Y-27800D02*
X56150Y-27800D01*
X56450Y-27800D02*
X56450Y-28200D01*
X56450Y-28200D02*
X58850Y-28200D01*
X58850Y-28200D02*
X58850Y-27800D01*
X58650Y-27400D02*
X58650Y-28200D01*
X58550Y-28200D02*
X58550Y-27400D01*
X32850Y-27800D02*
X32550Y-27800D01*
X32550Y-27800D02*
X32550Y-27400D01*
X32550Y-27400D02*
X30150Y-27400D01*
X30150Y-27400D02*
X30150Y-27800D01*
X30150Y-27800D02*
X29850Y-27800D01*
X30150Y-27800D02*
X30150Y-28200D01*
X30150Y-28200D02*
X32550Y-28200D01*
X32550Y-28200D02*
X32550Y-27800D01*
X32350Y-27400D02*
X32350Y-28200D01*
X32250Y-28200D02*
X32250Y-27400D01*
X72050Y-27800D02*
X71750Y-27800D01*
X71750Y-27800D02*
X71750Y-27400D01*
X71750Y-27400D02*
X69350Y-27400D01*
X69350Y-27400D02*
X69350Y-27800D01*
X69350Y-27800D02*
X69050Y-27800D01*
X69350Y-27800D02*
X69350Y-28200D01*
X69350Y-28200D02*
X71750Y-28200D01*
X71750Y-28200D02*
X71750Y-27800D01*
X71550Y-27400D02*
X71550Y-28200D01*
X71450Y-28200D02*
X71450Y-27400D01*
X39750Y-27800D02*
X39450Y-27800D01*
X39450Y-27800D02*
X39450Y-27400D01*
X39450Y-27400D02*
X37050Y-27400D01*
X37050Y-27400D02*
X37050Y-27800D01*
X37050Y-27800D02*
X36750Y-27800D01*
X37050Y-27800D02*
X37050Y-28200D01*
X37050Y-28200D02*
X39450Y-28200D01*
X39450Y-28200D02*
X39450Y-27800D01*
X39250Y-27400D02*
X39250Y-28200D01*
X39150Y-28200D02*
X39150Y-27400D01*
X53050Y-27800D02*
X52750Y-27800D01*
X52750Y-27800D02*
X52750Y-27400D01*
X52750Y-27400D02*
X50350Y-27400D01*
X50350Y-27400D02*
X50350Y-27800D01*
X50350Y-27800D02*
X50050Y-27800D01*
X50350Y-27800D02*
X50350Y-28200D01*
X50350Y-28200D02*
X52750Y-28200D01*
X52750Y-28200D02*
X52750Y-27800D01*
X52550Y-27400D02*
X52550Y-28200D01*
X52450Y-28200D02*
X52450Y-27400D01*
G54D16*
X36300Y-29350D02*
X36300Y-29100D01*
X36300Y-29100D02*
X40300Y-29100D01*
X40300Y-29100D02*
X40300Y-29350D01*
X36300Y-30850D02*
X36300Y-29350D01*
X36300Y-29350D02*
X40300Y-29350D01*
X40300Y-29350D02*
X40300Y-30850D01*
X40300Y-30850D02*
X36300Y-30850D01*
X88600Y-29350D02*
X88600Y-29100D01*
X88600Y-29100D02*
X92600Y-29100D01*
X92600Y-29100D02*
X92600Y-29350D01*
X88600Y-30850D02*
X88600Y-29350D01*
X88600Y-29350D02*
X92600Y-29350D01*
X92600Y-29350D02*
X92600Y-30850D01*
X92600Y-30850D02*
X88600Y-30850D01*
X16100Y-29350D02*
X16100Y-29100D01*
X16100Y-29100D02*
X20100Y-29100D01*
X20100Y-29100D02*
X20100Y-29350D01*
X16100Y-30850D02*
X16100Y-29350D01*
X16100Y-29350D02*
X20100Y-29350D01*
X20100Y-29350D02*
X20100Y-30850D01*
X20100Y-30850D02*
X16100Y-30850D01*
X23050Y-29350D02*
X23050Y-29100D01*
X23050Y-29100D02*
X27050Y-29100D01*
X27050Y-29100D02*
X27050Y-29350D01*
X23050Y-30850D02*
X23050Y-29350D01*
X23050Y-29350D02*
X27050Y-29350D01*
X27050Y-29350D02*
X27050Y-30850D01*
X27050Y-30850D02*
X23050Y-30850D01*
X29400Y-29350D02*
X29400Y-29100D01*
X29400Y-29100D02*
X33400Y-29100D01*
X33400Y-29100D02*
X33400Y-29350D01*
X29400Y-30850D02*
X29400Y-29350D01*
X29400Y-29350D02*
X33400Y-29350D01*
X33400Y-29350D02*
X33400Y-30850D01*
X33400Y-30850D02*
X29400Y-30850D01*
X42950Y-29350D02*
X42950Y-29100D01*
X42950Y-29100D02*
X46950Y-29100D01*
X46950Y-29100D02*
X46950Y-29350D01*
X42950Y-30850D02*
X42950Y-29350D01*
X42950Y-29350D02*
X46950Y-29350D01*
X46950Y-29350D02*
X46950Y-30850D01*
X46950Y-30850D02*
X42950Y-30850D01*
X49500Y-29350D02*
X49500Y-29100D01*
X49500Y-29100D02*
X53500Y-29100D01*
X53500Y-29100D02*
X53500Y-29350D01*
X49500Y-30850D02*
X49500Y-29350D01*
X49500Y-29350D02*
X53500Y-29350D01*
X53500Y-29350D02*
X53500Y-30850D01*
X53500Y-30850D02*
X49500Y-30850D01*
X55700Y-29350D02*
X55700Y-29100D01*
X55700Y-29100D02*
X59700Y-29100D01*
X59700Y-29100D02*
X59700Y-29350D01*
X55700Y-30850D02*
X55700Y-29350D01*
X55700Y-29350D02*
X59700Y-29350D01*
X59700Y-29350D02*
X59700Y-30850D01*
X59700Y-30850D02*
X55700Y-30850D01*
X61750Y-29350D02*
X61750Y-29100D01*
X61750Y-29100D02*
X65750Y-29100D01*
X65750Y-29100D02*
X65750Y-29350D01*
X61750Y-30850D02*
X61750Y-29350D01*
X61750Y-29350D02*
X65750Y-29350D01*
X65750Y-29350D02*
X65750Y-30850D01*
X65750Y-30850D02*
X61750Y-30850D01*
X68550Y-29350D02*
X68550Y-29100D01*
X68550Y-29100D02*
X72550Y-29100D01*
X72550Y-29100D02*
X72550Y-29350D01*
X68550Y-30850D02*
X68550Y-29350D01*
X68550Y-29350D02*
X72550Y-29350D01*
X72550Y-29350D02*
X72550Y-30850D01*
X72550Y-30850D02*
X68550Y-30850D01*
X75450Y-29350D02*
X75450Y-29100D01*
X75450Y-29100D02*
X79450Y-29100D01*
X79450Y-29100D02*
X79450Y-29350D01*
X75450Y-30850D02*
X75450Y-29350D01*
X75450Y-29350D02*
X79450Y-29350D01*
X79450Y-29350D02*
X79450Y-30850D01*
X79450Y-30850D02*
X75450Y-30850D01*
X82000Y-29350D02*
X82000Y-29100D01*
X82000Y-29100D02*
X86000Y-29100D01*
X86000Y-29100D02*
X86000Y-29350D01*
X82000Y-30850D02*
X82000Y-29350D01*
X82000Y-29350D02*
X86000Y-29350D01*
X86000Y-29350D02*
X86000Y-30850D01*
X86000Y-30850D02*
X82000Y-30850D01*
G54D10*
X57173Y-53179D02*
X57173Y-52785D01*
X57173Y-52785D02*
X58748Y-52785D01*
X58748Y-52785D02*
X58748Y-53179D01*
X55401Y-53179D02*
X60224Y-53179D01*
X60224Y-53179D02*
X60224Y-44812D01*
X60224Y-44812D02*
X55401Y-44812D01*
X55401Y-44812D02*
X55401Y-53179D01*
G54D20*
X23101Y-50100D02*
G75*
G03X23101Y-50100I-1001J0D01*
G74*
G01*
X23101Y-47900D02*
G75*
G03X23101Y-47900I-1001J0D01*
G74*
G01*
G54D14*
X21100Y-44700D02*
X22100Y-44700D01*
X22100Y-44700D02*
X22100Y-46700D01*
X22100Y-46700D02*
X21100Y-46700D01*
X21100Y-46700D02*
X21100Y-44700D01*
G54D10*
X89500Y-38650D02*
X89400Y-38650D01*
X89400Y-38650D02*
X89400Y-38950D01*
X89400Y-38950D02*
X89500Y-38950D01*
X89500Y-38550D02*
X89500Y-39050D01*
X89200Y-39750D02*
X90200Y-39750D01*
X89700Y-38950D02*
X89700Y-39750D01*
X89700Y-37850D02*
X89700Y-38650D01*
X89200Y-37850D02*
X90200Y-37850D01*
X90327Y-38812D02*
G75*
G03X90327Y-38812I-630J0D01*
G74*
G01*
X87925Y-37335D02*
X87925Y-40288D01*
X87925Y-40288D02*
X91468Y-40288D01*
X91468Y-40288D02*
X91468Y-37335D01*
X91468Y-37335D02*
X87925Y-37335D01*
X44000Y-38400D02*
X43900Y-38400D01*
X43900Y-38400D02*
X43900Y-38700D01*
X43900Y-38700D02*
X44000Y-38700D01*
X44000Y-38300D02*
X44000Y-38800D01*
X43700Y-39500D02*
X44700Y-39500D01*
X44200Y-38700D02*
X44200Y-39500D01*
X44200Y-37600D02*
X44200Y-38400D01*
X43700Y-37600D02*
X44700Y-37600D01*
X44827Y-38562D02*
G75*
G03X44827Y-38562I-630J0D01*
G74*
G01*
X42425Y-37085D02*
X42425Y-40038D01*
X42425Y-40038D02*
X45968Y-40038D01*
X45968Y-40038D02*
X45968Y-37085D01*
X45968Y-37085D02*
X42425Y-37085D01*
X83000Y-38650D02*
X82900Y-38650D01*
X82900Y-38650D02*
X82900Y-38950D01*
X82900Y-38950D02*
X83000Y-38950D01*
X83000Y-38550D02*
X83000Y-39050D01*
X82700Y-39750D02*
X83700Y-39750D01*
X83200Y-38950D02*
X83200Y-39750D01*
X83200Y-37850D02*
X83200Y-38650D01*
X82700Y-37850D02*
X83700Y-37850D01*
X83827Y-38812D02*
G75*
G03X83827Y-38812I-630J0D01*
G74*
G01*
X81425Y-37335D02*
X81425Y-40288D01*
X81425Y-40288D02*
X84968Y-40288D01*
X84968Y-40288D02*
X84968Y-37335D01*
X84968Y-37335D02*
X81425Y-37335D01*
X50750Y-38400D02*
X50650Y-38400D01*
X50650Y-38400D02*
X50650Y-38700D01*
X50650Y-38700D02*
X50750Y-38700D01*
X50750Y-38300D02*
X50750Y-38800D01*
X50450Y-39500D02*
X51450Y-39500D01*
X50950Y-38700D02*
X50950Y-39500D01*
X50950Y-37600D02*
X50950Y-38400D01*
X50450Y-37600D02*
X51450Y-37600D01*
X51577Y-38562D02*
G75*
G03X51577Y-38562I-630J0D01*
G74*
G01*
X49175Y-37085D02*
X49175Y-40038D01*
X49175Y-40038D02*
X52718Y-40038D01*
X52718Y-40038D02*
X52718Y-37085D01*
X52718Y-37085D02*
X49175Y-37085D01*
X37450Y-38400D02*
X37350Y-38400D01*
X37350Y-38400D02*
X37350Y-38700D01*
X37350Y-38700D02*
X37450Y-38700D01*
X37450Y-38300D02*
X37450Y-38800D01*
X37150Y-39500D02*
X38150Y-39500D01*
X37650Y-38700D02*
X37650Y-39500D01*
X37650Y-37600D02*
X37650Y-38400D01*
X37150Y-37600D02*
X38150Y-37600D01*
X38277Y-38562D02*
G75*
G03X38277Y-38562I-630J0D01*
G74*
G01*
X35875Y-37085D02*
X35875Y-40038D01*
X35875Y-40038D02*
X39418Y-40038D01*
X39418Y-40038D02*
X39418Y-37085D01*
X39418Y-37085D02*
X35875Y-37085D01*
X76500Y-38650D02*
X76400Y-38650D01*
X76400Y-38650D02*
X76400Y-38950D01*
X76400Y-38950D02*
X76500Y-38950D01*
X76500Y-38550D02*
X76500Y-39050D01*
X76200Y-39750D02*
X77200Y-39750D01*
X76700Y-38950D02*
X76700Y-39750D01*
X76700Y-37850D02*
X76700Y-38650D01*
X76200Y-37850D02*
X77200Y-37850D01*
X77327Y-38812D02*
G75*
G03X77327Y-38812I-630J0D01*
G74*
G01*
X74925Y-37335D02*
X74925Y-40288D01*
X74925Y-40288D02*
X78468Y-40288D01*
X78468Y-40288D02*
X78468Y-37335D01*
X78468Y-37335D02*
X74925Y-37335D01*
X56750Y-38400D02*
X56650Y-38400D01*
X56650Y-38400D02*
X56650Y-38700D01*
X56650Y-38700D02*
X56750Y-38700D01*
X56750Y-38300D02*
X56750Y-38800D01*
X56450Y-39500D02*
X57450Y-39500D01*
X56950Y-38700D02*
X56950Y-39500D01*
X56950Y-37600D02*
X56950Y-38400D01*
X56450Y-37600D02*
X57450Y-37600D01*
X57577Y-38562D02*
G75*
G03X57577Y-38562I-630J0D01*
G74*
G01*
X55175Y-37085D02*
X55175Y-40038D01*
X55175Y-40038D02*
X58718Y-40038D01*
X58718Y-40038D02*
X58718Y-37085D01*
X58718Y-37085D02*
X55175Y-37085D01*
X30450Y-38550D02*
X30350Y-38550D01*
X30350Y-38550D02*
X30350Y-38850D01*
X30350Y-38850D02*
X30450Y-38850D01*
X30450Y-38450D02*
X30450Y-38950D01*
X30150Y-39650D02*
X31150Y-39650D01*
X30650Y-38850D02*
X30650Y-39650D01*
X30650Y-37750D02*
X30650Y-38550D01*
X30150Y-37750D02*
X31150Y-37750D01*
X31277Y-38712D02*
G75*
G03X31277Y-38712I-630J0D01*
G74*
G01*
X28875Y-37235D02*
X28875Y-40188D01*
X28875Y-40188D02*
X32418Y-40188D01*
X32418Y-40188D02*
X32418Y-37235D01*
X32418Y-37235D02*
X28875Y-37235D01*
X24100Y-38550D02*
X24000Y-38550D01*
X24000Y-38550D02*
X24000Y-38850D01*
X24000Y-38850D02*
X24100Y-38850D01*
X24100Y-38450D02*
X24100Y-38950D01*
X23800Y-39650D02*
X24800Y-39650D01*
X24300Y-38850D02*
X24300Y-39650D01*
X24300Y-37750D02*
X24300Y-38550D01*
X23800Y-37750D02*
X24800Y-37750D01*
X24927Y-38712D02*
G75*
G03X24927Y-38712I-630J0D01*
G74*
G01*
X22525Y-37235D02*
X22525Y-40188D01*
X22525Y-40188D02*
X26068Y-40188D01*
X26068Y-40188D02*
X26068Y-37235D01*
X26068Y-37235D02*
X22525Y-37235D01*
X69750Y-38650D02*
X69650Y-38650D01*
X69650Y-38650D02*
X69650Y-38950D01*
X69650Y-38950D02*
X69750Y-38950D01*
X69750Y-38550D02*
X69750Y-39050D01*
X69450Y-39750D02*
X70450Y-39750D01*
X69950Y-38950D02*
X69950Y-39750D01*
X69950Y-37850D02*
X69950Y-38650D01*
X69450Y-37850D02*
X70450Y-37850D01*
X70577Y-38812D02*
G75*
G03X70577Y-38812I-630J0D01*
G74*
G01*
X68175Y-37335D02*
X68175Y-40288D01*
X68175Y-40288D02*
X71718Y-40288D01*
X71718Y-40288D02*
X71718Y-37335D01*
X71718Y-37335D02*
X68175Y-37335D01*
X63000Y-38650D02*
X62900Y-38650D01*
X62900Y-38650D02*
X62900Y-38950D01*
X62900Y-38950D02*
X63000Y-38950D01*
X63000Y-38550D02*
X63000Y-39050D01*
X62700Y-39750D02*
X63700Y-39750D01*
X63200Y-38950D02*
X63200Y-39750D01*
X63200Y-37850D02*
X63200Y-38650D01*
X62700Y-37850D02*
X63700Y-37850D01*
X63827Y-38812D02*
G75*
G03X63827Y-38812I-630J0D01*
G74*
G01*
X61425Y-37335D02*
X61425Y-40288D01*
X61425Y-40288D02*
X64968Y-40288D01*
X64968Y-40288D02*
X64968Y-37335D01*
X64968Y-37335D02*
X61425Y-37335D01*
X18600Y-38550D02*
X18500Y-38550D01*
X18500Y-38550D02*
X18500Y-38850D01*
X18500Y-38850D02*
X18600Y-38850D01*
X18600Y-38450D02*
X18600Y-38950D01*
X18300Y-39650D02*
X19300Y-39650D01*
X18800Y-38850D02*
X18800Y-39650D01*
X18800Y-37750D02*
X18800Y-38550D01*
X18300Y-37750D02*
X19300Y-37750D01*
X19427Y-38712D02*
G75*
G03X19427Y-38712I-630J0D01*
G74*
G01*
X17025Y-37235D02*
X17025Y-40188D01*
X17025Y-40188D02*
X20568Y-40188D01*
X20568Y-40188D02*
X20568Y-37235D01*
X20568Y-37235D02*
X17025Y-37235D01*
G54D15*
X88476Y-48519D02*
X88476Y-46539D01*
X88476Y-46539D02*
X89476Y-46539D01*
X89476Y-46539D02*
X89476Y-48539D01*
X89476Y-48539D02*
X88476Y-48539D01*
X88726Y-48539D02*
X88476Y-48289D01*
X53342Y-52862D02*
X51362Y-52862D01*
X51362Y-52862D02*
X51362Y-51862D01*
X51362Y-51862D02*
X53362Y-51862D01*
X53362Y-51862D02*
X53362Y-52862D01*
X53362Y-52612D02*
X53112Y-52862D01*
G54D20*
X53166Y-57480D02*
G75*
G03X53166Y-57480I-1001J0D01*
G74*
G01*
G54D10*
X92814Y-46062D02*
G75*
G03X92814Y-46062I-1574J0D01*
G74*
G01*
X92814Y-49311D02*
G75*
G03X92814Y-49311I-1574J0D01*
G74*
G01*
G54D17*
X75400Y-34900D02*
X75400Y-34700D01*
X75400Y-31900D02*
X75400Y-32100D01*
X75400Y-32100D02*
X75000Y-32100D01*
X75000Y-32100D02*
X75000Y-34700D01*
X75000Y-34700D02*
X75800Y-34700D01*
X75800Y-34700D02*
X75800Y-32100D01*
X75800Y-32100D02*
X75400Y-32100D01*
X75200Y-34700D02*
X75000Y-34500D01*
G54D10*
X20915Y-25548D02*
X20915Y-24051D01*
X23868Y-25548D02*
X19852Y-25548D01*
X19852Y-25548D02*
X19852Y-24051D01*
X19852Y-24051D02*
X23868Y-24051D01*
X23868Y-24051D02*
X23868Y-25548D01*
X26815Y-25548D02*
X26815Y-24051D01*
X29768Y-25548D02*
X25752Y-25548D01*
X25752Y-25548D02*
X25752Y-24051D01*
X25752Y-24051D02*
X29768Y-24051D01*
X29768Y-24051D02*
X29768Y-25548D01*
X40915Y-25348D02*
X40915Y-23851D01*
X43868Y-25348D02*
X39852Y-25348D01*
X39852Y-25348D02*
X39852Y-23851D01*
X39852Y-23851D02*
X43868Y-23851D01*
X43868Y-23851D02*
X43868Y-25348D01*
X46615Y-25348D02*
X46615Y-23851D01*
X49568Y-25348D02*
X45552Y-25348D01*
X45552Y-25348D02*
X45552Y-23851D01*
X45552Y-23851D02*
X49568Y-23851D01*
X49568Y-23851D02*
X49568Y-25348D01*
X59415Y-25348D02*
X59415Y-23851D01*
X62368Y-25348D02*
X58352Y-25348D01*
X58352Y-25348D02*
X58352Y-23851D01*
X58352Y-23851D02*
X62368Y-23851D01*
X62368Y-23851D02*
X62368Y-25348D01*
X66015Y-25348D02*
X66015Y-23851D01*
X68968Y-25348D02*
X64952Y-25348D01*
X64952Y-25348D02*
X64952Y-23851D01*
X64952Y-23851D02*
X68968Y-23851D01*
X68968Y-23851D02*
X68968Y-25348D01*
X78415Y-25548D02*
X78415Y-24051D01*
X81368Y-25548D02*
X77352Y-25548D01*
X77352Y-25548D02*
X77352Y-24051D01*
X77352Y-24051D02*
X81368Y-24051D01*
X81368Y-24051D02*
X81368Y-25548D01*
X84615Y-25548D02*
X84615Y-24051D01*
X87568Y-25548D02*
X83552Y-25548D01*
X83552Y-25548D02*
X83552Y-24051D01*
X83552Y-24051D02*
X87568Y-24051D01*
X87568Y-24051D02*
X87568Y-25548D01*
G54D16*
X47807Y-44102D02*
X47807Y-44102D01*
X47807Y-44102D02*
X47307Y-44102D01*
X47307Y-44102D02*
X47307Y-43102D01*
X47307Y-43102D02*
X47807Y-43102D01*
X47807Y-44602D02*
X38807Y-44602D01*
X38807Y-44602D02*
X38807Y-42602D01*
X38807Y-42602D02*
X47807Y-42602D01*
X47807Y-42602D02*
X47807Y-44602D01*
X38358Y-44102D02*
X38358Y-44102D01*
X38358Y-44102D02*
X37858Y-44102D01*
X37858Y-44102D02*
X37858Y-43102D01*
X37858Y-43102D02*
X38358Y-43102D01*
X38358Y-44602D02*
X29358Y-44602D01*
X29358Y-44602D02*
X29358Y-42602D01*
X29358Y-42602D02*
X38358Y-42602D01*
X38358Y-42602D02*
X38358Y-44602D01*
G54D10*
X65846Y-46983D02*
X65746Y-46983D01*
X65746Y-46983D02*
X65746Y-47283D01*
X65746Y-47283D02*
X65846Y-47283D01*
X65846Y-46883D02*
X65846Y-47383D01*
X65546Y-48083D02*
X66546Y-48083D01*
X66046Y-47283D02*
X66046Y-48083D01*
X66046Y-46183D02*
X66046Y-46983D01*
X65546Y-46183D02*
X66546Y-46183D01*
X66673Y-47145D02*
G75*
G03X66673Y-47145I-630J0D01*
G74*
G01*
X64271Y-45669D02*
X64271Y-48622D01*
X64271Y-48622D02*
X67814Y-48622D01*
X67814Y-48622D02*
X67814Y-45669D01*
X67814Y-45669D02*
X64271Y-45669D01*
X65944Y-51117D02*
X65844Y-51117D01*
X65844Y-51117D02*
X65844Y-51417D01*
X65844Y-51417D02*
X65944Y-51417D01*
X65944Y-51017D02*
X65944Y-51517D01*
X65644Y-52217D02*
X66644Y-52217D01*
X66144Y-51417D02*
X66144Y-52217D01*
X66144Y-50317D02*
X66144Y-51117D01*
X65644Y-50317D02*
X66644Y-50317D01*
X66771Y-51279D02*
G75*
G03X66771Y-51279I-630J0D01*
G74*
G01*
X64370Y-49803D02*
X64370Y-52755D01*
X64370Y-52755D02*
X67913Y-52755D01*
X67913Y-52755D02*
X67913Y-49803D01*
X67913Y-49803D02*
X64370Y-49803D01*
X65944Y-55448D02*
X65844Y-55448D01*
X65844Y-55448D02*
X65844Y-55748D01*
X65844Y-55748D02*
X65944Y-55748D01*
X65944Y-55348D02*
X65944Y-55848D01*
X65644Y-56548D02*
X66644Y-56548D01*
X66144Y-55748D02*
X66144Y-56548D01*
X66144Y-54648D02*
X66144Y-55448D01*
X65644Y-54648D02*
X66644Y-54648D01*
X66771Y-55610D02*
G75*
G03X66771Y-55610I-630J0D01*
G74*
G01*
X64370Y-54133D02*
X64370Y-57086D01*
X64370Y-57086D02*
X67913Y-57086D01*
X67913Y-57086D02*
X67913Y-54133D01*
X67913Y-54133D02*
X64370Y-54133D01*
G54D15*
X22086Y-51610D02*
X22086Y-51910D01*
X22086Y-51910D02*
X21686Y-51910D01*
X21686Y-51910D02*
X21686Y-54310D01*
X21686Y-54310D02*
X22086Y-54310D01*
X22086Y-54310D02*
X22086Y-54610D01*
X22086Y-54310D02*
X22486Y-54310D01*
X22486Y-54310D02*
X22486Y-51910D01*
X22486Y-51910D02*
X22086Y-51910D01*
X21686Y-52110D02*
X22486Y-52110D01*
X22486Y-52210D02*
X21686Y-52210D01*
G54D14*
X27507Y-44385D02*
X26507Y-44385D01*
X26507Y-44385D02*
X26507Y-42385D01*
X26507Y-42385D02*
X27507Y-42385D01*
X27507Y-42385D02*
X27507Y-44385D01*
X54893Y-41559D02*
X55893Y-41559D01*
X55893Y-41559D02*
X55893Y-43559D01*
X55893Y-43559D02*
X54893Y-43559D01*
X54893Y-43559D02*
X54893Y-41559D01*
X62728Y-41531D02*
X63728Y-41531D01*
X63728Y-41531D02*
X63728Y-44531D01*
X63728Y-44531D02*
X62728Y-44531D01*
X62728Y-44531D02*
X62728Y-41531D01*
X63728Y-42531D02*
X62728Y-42531D01*
G54D20*
X49721Y-50984D02*
G75*
G03X49721Y-50984I-1001J0D01*
G74*
G01*
X49721Y-53051D02*
G75*
G03X49721Y-53051I-1001J0D01*
G74*
G01*
G54D17*
X78570Y-35950D02*
X78570Y-34450D01*
G54D18*
X78257Y-35200D02*
G75*
G03X78257Y-35200I-707J0D01*
G74*
G01*
G54D19*
X78549Y-34449D02*
G75*
G03X78549Y-35950I-999J-750D01*
G74*
G01*
G54D14*
X77550Y-34750D02*
G75*
G03X77100Y-35200I0J-450D01*
G74*
G01*
X77550Y-35650D02*
G75*
G03X78000Y-35200I0J450D01*
G74*
G01*
X77550Y-34550D02*
G75*
G03X76900Y-35200I0J-650D01*
G74*
G01*
X77550Y-35850D02*
G75*
G03X78200Y-35200I0J650D01*
G74*
G01*
X77550Y-34350D02*
G75*
G03X76700Y-35200I0J-850D01*
G74*
G01*
X77550Y-36050D02*
G75*
G03X78400Y-35200I0J850D01*
G74*
G01*
G54D10*
X37007Y-58956D02*
X37007Y-58759D01*
X37007Y-58759D02*
X40649Y-58759D01*
X40649Y-58759D02*
X40649Y-58956D01*
X35925Y-57185D02*
X35925Y-58956D01*
X35925Y-58956D02*
X41830Y-58956D01*
X41830Y-58956D02*
X41830Y-57185D01*
X40255Y-58188D02*
X40374Y-58307D01*
X40374Y-58307D02*
X40492Y-58188D01*
X40374Y-58070D02*
X40374Y-58307D01*
X39350Y-58070D02*
X39468Y-58188D01*
X39232Y-58188D02*
X39350Y-58070D01*
X39350Y-58070D02*
X39350Y-58346D01*
G54D15*
X35877Y-57192D02*
X35877Y-56192D01*
X35877Y-56192D02*
X41877Y-56192D01*
X41877Y-56192D02*
X41877Y-57192D01*
X41877Y-57192D02*
X35877Y-57192D01*
X36877Y-57192D02*
X36877Y-56192D01*
G54D17*
X40377Y-55216D02*
X40177Y-55216D01*
X37377Y-55216D02*
X37577Y-55216D01*
X37577Y-55216D02*
X37577Y-55616D01*
X37577Y-55616D02*
X40177Y-55616D01*
X40177Y-55616D02*
X40177Y-54816D01*
X40177Y-54816D02*
X37577Y-54816D01*
X37577Y-54816D02*
X37577Y-55216D01*
X40177Y-55416D02*
X39977Y-55616D01*
G54D16*
X72744Y-49771D02*
X72744Y-50271D01*
X72744Y-50271D02*
X71744Y-50271D01*
X71744Y-50271D02*
X71744Y-49771D01*
X73244Y-49771D02*
X73244Y-53771D01*
X73244Y-53771D02*
X71244Y-53771D01*
X71244Y-53771D02*
X71244Y-49771D01*
X71244Y-49771D02*
X73244Y-49771D01*
X80011Y-50129D02*
X80011Y-49629D01*
X80011Y-49629D02*
X81011Y-49629D01*
X81011Y-49629D02*
X81011Y-50129D01*
X79511Y-50129D02*
X79511Y-46129D01*
X79511Y-46129D02*
X81511Y-46129D01*
X81511Y-46129D02*
X81511Y-50129D01*
X81511Y-50129D02*
X79511Y-50129D01*
G54D10*
X75000Y-47440D02*
G75*
G03X75000Y-47440I-1574J0D01*
G74*
G01*
X78346Y-51968D02*
G75*
G03X78346Y-51968I-1574J0D01*
G74*
G01*
G54D16*
X68996Y-49696D02*
X68996Y-50696D01*
X69555Y-49696D02*
G75*
G03X69555Y-49696I-559J0D01*
G74*
G01*
X70759Y-55905D02*
X71759Y-55905D01*
X71318Y-55905D02*
G75*
G03X71318Y-55905I-559J0D01*
G74*
G01*
X73925Y-55905D02*
X72925Y-55905D01*
X74484Y-55905D02*
G75*
G03X74484Y-55905I-559J0D01*
G74*
G01*
X76082Y-47925D02*
X76082Y-48925D01*
X76641Y-47925D02*
G75*
G03X76641Y-47925I-559J0D01*
G74*
G01*
X84834Y-44488D02*
X85834Y-44488D01*
X85393Y-44488D02*
G75*
G03X85393Y-44488I-559J0D01*
G74*
G01*
X85834Y-43307D02*
X84834Y-43307D01*
X86393Y-43307D02*
G75*
G03X86393Y-43307I-559J0D01*
G74*
G01*
X68996Y-52566D02*
X68996Y-51566D01*
X69555Y-52566D02*
G75*
G03X69555Y-52566I-559J0D01*
G74*
G01*
X71267Y-48818D02*
X70267Y-48818D01*
X71826Y-48818D02*
G75*
G03X71826Y-48818I-559J0D01*
G74*
G01*
G54D19*
X91625Y-42208D02*
X91625Y-44208D01*
X93375Y-42208D02*
X93375Y-44208D01*
X90875Y-44208D02*
X90875Y-42208D01*
X90875Y-44208D02*
X93375Y-44208D01*
X90875Y-42208D02*
X93375Y-42208D01*
X91625Y-51263D02*
X91625Y-53263D01*
X93375Y-51263D02*
X93375Y-53263D01*
X90875Y-53263D02*
X90875Y-51263D01*
X90875Y-53263D02*
X93375Y-53263D01*
X90875Y-51263D02*
X93375Y-51263D01*
G54D14*
X85917Y-45350D02*
X86917Y-45350D01*
X86917Y-45350D02*
X86917Y-48350D01*
X86917Y-48350D02*
X85917Y-48350D01*
X85917Y-48350D02*
X85917Y-45350D01*
X86917Y-46350D02*
X85917Y-46350D01*
G54D10*
X82185Y-51968D02*
G75*
G03X82185Y-51968I-1574J0D01*
G74*
G01*
G54D15*
X82964Y-44877D02*
X82964Y-42897D01*
X82964Y-42897D02*
X83964Y-42897D01*
X83964Y-42897D02*
X83964Y-44897D01*
X83964Y-44897D02*
X82964Y-44897D01*
X83214Y-44897D02*
X82964Y-44647D01*
X85231Y-46661D02*
X83251Y-46661D01*
X83251Y-46661D02*
X83251Y-45661D01*
X83251Y-45661D02*
X85251Y-45661D01*
X85251Y-45661D02*
X85251Y-46661D01*
X85251Y-46411D02*
X85001Y-46661D01*
X85231Y-48334D02*
X83251Y-48334D01*
X83251Y-48334D02*
X83251Y-47334D01*
X83251Y-47334D02*
X85251Y-47334D01*
X85251Y-47334D02*
X85251Y-48334D01*
X85251Y-48084D02*
X85001Y-48334D01*
X77960Y-46264D02*
X77960Y-48244D01*
X77960Y-48244D02*
X76960Y-48244D01*
X76960Y-48244D02*
X76960Y-46244D01*
X76960Y-46244D02*
X77960Y-46244D01*
X77710Y-46244D02*
X77960Y-46494D01*
G54D16*
X24409Y-46940D02*
X24409Y-47940D01*
X24968Y-46940D02*
G75*
G03X24968Y-46940I-559J0D01*
G74*
G01*
X27362Y-46940D02*
X27362Y-47940D01*
X27921Y-46940D02*
G75*
G03X27921Y-46940I-559J0D01*
G74*
G01*
X45472Y-56192D02*
X45472Y-57192D01*
X46031Y-56192D02*
G75*
G03X46031Y-56192I-559J0D01*
G74*
G01*
X44291Y-57291D02*
X44291Y-56291D01*
X44850Y-57291D02*
G75*
G03X44850Y-57291I-559J0D01*
G74*
G01*
X43307Y-56192D02*
X43307Y-57192D01*
X43866Y-56192D02*
G75*
G03X43866Y-56192I-559J0D01*
G74*
G01*
G54D10*
X73251Y-41716D02*
X73251Y-43616D01*
X70251Y-41716D02*
X70251Y-43616D01*
X71251Y-41716D02*
X71251Y-43616D01*
G54D14*
X70251Y-41716D02*
X73251Y-41716D01*
X73251Y-43616D02*
X70251Y-43616D01*
G54D20*
X56414Y-55511D02*
G75*
G03X56414Y-55511I-1001J0D01*
G74*
G01*
G54D21*
X82579Y-56780D02*
X82579Y-56380D01*
X82731Y-56380D01*
X82769Y-56399D01*
X82788Y-56418D01*
X82807Y-56456D01*
X82807Y-56513D01*
X82788Y-56551D01*
X82769Y-56570D01*
X82731Y-56589D01*
X82579Y-56589D01*
X83188Y-56780D02*
X82960Y-56780D01*
X83074Y-56780D02*
X83074Y-56380D01*
X83036Y-56437D01*
X82998Y-56475D01*
X82960Y-56494D01*
X83569Y-56780D02*
X83341Y-56780D01*
X83455Y-56780D02*
X83455Y-56380D01*
X83417Y-56437D01*
X83379Y-56475D01*
X83341Y-56494D01*
G54D14*
X80280Y-43757D02*
X80280Y-44043D01*
X80261Y-44100D01*
X80222Y-44138D01*
X80165Y-44157D01*
X80127Y-44157D01*
X80680Y-44157D02*
X80451Y-44157D01*
X80565Y-44157D02*
X80565Y-43757D01*
X80527Y-43815D01*
X80489Y-43853D01*
X80451Y-43872D01*
G54D17*
X26482Y-53114D02*
X26482Y-52714D01*
X26635Y-52714D01*
X26673Y-52733D01*
X26692Y-52752D01*
X26711Y-52790D01*
X26711Y-52847D01*
X26692Y-52886D01*
X26673Y-52905D01*
X26635Y-52924D01*
X26482Y-52924D01*
X27092Y-53114D02*
X26863Y-53114D01*
X26978Y-53114D02*
X26978Y-52714D01*
X26939Y-52771D01*
X26901Y-52809D01*
X26863Y-52828D01*
X27225Y-52714D02*
X27473Y-52714D01*
X27339Y-52867D01*
X27397Y-52867D01*
X27435Y-52886D01*
X27454Y-52905D01*
X27473Y-52943D01*
X27473Y-53038D01*
X27454Y-53076D01*
X27435Y-53095D01*
X27397Y-53114D01*
X27282Y-53114D01*
X27244Y-53095D01*
X27225Y-53076D01*
X53247Y-55797D02*
X53057Y-55930D01*
X53247Y-56026D02*
X52847Y-56026D01*
X52847Y-55873D01*
X52866Y-55835D01*
X52885Y-55816D01*
X52923Y-55797D01*
X52981Y-55797D01*
X53019Y-55816D01*
X53038Y-55835D01*
X53057Y-55873D01*
X53057Y-56026D01*
X53038Y-55626D02*
X53038Y-55492D01*
X53247Y-55435D02*
X53247Y-55626D01*
X52847Y-55626D01*
X52847Y-55435D01*
X52866Y-55054D02*
X52847Y-55092D01*
X52847Y-55150D01*
X52866Y-55207D01*
X52904Y-55245D01*
X52942Y-55264D01*
X53019Y-55283D01*
X53076Y-55283D01*
X53152Y-55264D01*
X53190Y-55245D01*
X53228Y-55207D01*
X53247Y-55150D01*
X53247Y-55111D01*
X53228Y-55054D01*
X53209Y-55035D01*
X53076Y-55035D01*
X53076Y-55111D01*
X53247Y-54654D02*
X53247Y-54883D01*
X53247Y-54769D02*
X52847Y-54769D01*
X52904Y-54807D01*
X52942Y-54845D01*
X52962Y-54883D01*
G54D22*
X38558Y-50478D02*
X38772Y-50478D01*
X38515Y-50678D02*
X38665Y-49978D01*
X38815Y-50678D01*
X39200Y-50678D02*
X38943Y-50678D01*
X39072Y-50678D02*
X39072Y-49978D01*
X39029Y-50078D01*
X38986Y-50145D01*
X38943Y-50178D01*
G54D15*
G54D17*
X20392Y-52554D02*
X20878Y-52554D01*
X20935Y-52535D01*
X20964Y-52516D01*
X20992Y-52478D01*
X20992Y-52402D01*
X20964Y-52364D01*
X20935Y-52345D01*
X20878Y-52326D01*
X20392Y-52326D01*
X20450Y-52154D02*
X20421Y-52135D01*
X20392Y-52097D01*
X20392Y-52002D01*
X20421Y-51964D01*
X20450Y-51945D01*
X20507Y-51926D01*
X20564Y-51926D01*
X20650Y-51945D01*
X20992Y-52173D01*
X20992Y-51926D01*
X49722Y-33583D02*
X49460Y-33750D01*
X49722Y-33869D02*
X49172Y-33869D01*
X49172Y-33678D01*
X49198Y-33630D01*
X49225Y-33607D01*
X49277Y-33583D01*
X49355Y-33583D01*
X49408Y-33607D01*
X49434Y-33630D01*
X49460Y-33678D01*
X49460Y-33869D01*
X49172Y-33416D02*
X49172Y-33083D01*
X49722Y-33297D01*
X17022Y-33821D02*
X16760Y-33988D01*
X17022Y-34107D02*
X16472Y-34107D01*
X16472Y-33916D01*
X16498Y-33869D01*
X16525Y-33845D01*
X16577Y-33821D01*
X16655Y-33821D01*
X16708Y-33845D01*
X16734Y-33869D01*
X16760Y-33916D01*
X16760Y-34107D01*
X17022Y-33345D02*
X17022Y-33630D01*
X17022Y-33488D02*
X16472Y-33488D01*
X16551Y-33535D01*
X16603Y-33583D01*
X16629Y-33630D01*
X16525Y-33154D02*
X16498Y-33130D01*
X16472Y-33083D01*
X16472Y-32964D01*
X16498Y-32916D01*
X16525Y-32892D01*
X16577Y-32869D01*
X16629Y-32869D01*
X16708Y-32892D01*
X17022Y-33178D01*
X17022Y-32869D01*
X23222Y-33821D02*
X22960Y-33988D01*
X23222Y-34107D02*
X22672Y-34107D01*
X22672Y-33916D01*
X22698Y-33869D01*
X22725Y-33845D01*
X22777Y-33821D01*
X22855Y-33821D01*
X22908Y-33845D01*
X22934Y-33869D01*
X22960Y-33916D01*
X22960Y-34107D01*
X23222Y-33345D02*
X23222Y-33630D01*
X23222Y-33488D02*
X22672Y-33488D01*
X22751Y-33535D01*
X22803Y-33583D01*
X22829Y-33630D01*
X23222Y-32869D02*
X23222Y-33154D01*
X23222Y-33011D02*
X22672Y-33011D01*
X22751Y-33059D01*
X22803Y-33107D01*
X22829Y-33154D01*
X29622Y-33821D02*
X29360Y-33988D01*
X29622Y-34107D02*
X29072Y-34107D01*
X29072Y-33916D01*
X29098Y-33869D01*
X29125Y-33845D01*
X29177Y-33821D01*
X29255Y-33821D01*
X29308Y-33845D01*
X29334Y-33869D01*
X29360Y-33916D01*
X29360Y-34107D01*
X29622Y-33345D02*
X29622Y-33630D01*
X29622Y-33488D02*
X29072Y-33488D01*
X29151Y-33535D01*
X29203Y-33583D01*
X29229Y-33630D01*
X29072Y-33035D02*
X29072Y-32988D01*
X29098Y-32940D01*
X29125Y-32916D01*
X29177Y-32892D01*
X29282Y-32869D01*
X29413Y-32869D01*
X29517Y-32892D01*
X29570Y-32916D01*
X29596Y-32940D01*
X29622Y-32988D01*
X29622Y-33035D01*
X29596Y-33083D01*
X29570Y-33107D01*
X29517Y-33130D01*
X29413Y-33154D01*
X29282Y-33154D01*
X29177Y-33130D01*
X29125Y-33107D01*
X29098Y-33083D01*
X29072Y-33035D01*
X36522Y-33583D02*
X36260Y-33750D01*
X36522Y-33869D02*
X35972Y-33869D01*
X35972Y-33678D01*
X35998Y-33630D01*
X36025Y-33607D01*
X36077Y-33583D01*
X36155Y-33583D01*
X36208Y-33607D01*
X36234Y-33630D01*
X36260Y-33678D01*
X36260Y-33869D01*
X36522Y-33345D02*
X36522Y-33250D01*
X36496Y-33202D01*
X36470Y-33178D01*
X36391Y-33130D01*
X36286Y-33107D01*
X36077Y-33107D01*
X36025Y-33130D01*
X35998Y-33154D01*
X35972Y-33202D01*
X35972Y-33297D01*
X35998Y-33345D01*
X36025Y-33369D01*
X36077Y-33392D01*
X36208Y-33392D01*
X36260Y-33369D01*
X36286Y-33345D01*
X36313Y-33297D01*
X36313Y-33202D01*
X36286Y-33154D01*
X36260Y-33130D01*
X36208Y-33107D01*
X43122Y-33583D02*
X42860Y-33750D01*
X43122Y-33869D02*
X42572Y-33869D01*
X42572Y-33678D01*
X42598Y-33630D01*
X42625Y-33607D01*
X42677Y-33583D01*
X42755Y-33583D01*
X42808Y-33607D01*
X42834Y-33630D01*
X42860Y-33678D01*
X42860Y-33869D01*
X42808Y-33297D02*
X42782Y-33345D01*
X42755Y-33369D01*
X42703Y-33392D01*
X42677Y-33392D01*
X42625Y-33369D01*
X42598Y-33345D01*
X42572Y-33297D01*
X42572Y-33202D01*
X42598Y-33154D01*
X42625Y-33130D01*
X42677Y-33107D01*
X42703Y-33107D01*
X42755Y-33130D01*
X42782Y-33154D01*
X42808Y-33202D01*
X42808Y-33297D01*
X42834Y-33345D01*
X42860Y-33369D01*
X42913Y-33392D01*
X43017Y-33392D01*
X43070Y-33369D01*
X43096Y-33345D01*
X43122Y-33297D01*
X43122Y-33202D01*
X43096Y-33154D01*
X43070Y-33130D01*
X43017Y-33107D01*
X42913Y-33107D01*
X42860Y-33130D01*
X42834Y-33154D01*
X42808Y-33202D01*
X88822Y-33583D02*
X88560Y-33750D01*
X88822Y-33869D02*
X88272Y-33869D01*
X88272Y-33678D01*
X88298Y-33630D01*
X88325Y-33607D01*
X88377Y-33583D01*
X88455Y-33583D01*
X88508Y-33607D01*
X88534Y-33630D01*
X88560Y-33678D01*
X88560Y-33869D01*
X88822Y-33107D02*
X88822Y-33392D01*
X88822Y-33250D02*
X88272Y-33250D01*
X88351Y-33297D01*
X88403Y-33345D01*
X88429Y-33392D01*
X82222Y-33583D02*
X81960Y-33750D01*
X82222Y-33869D02*
X81672Y-33869D01*
X81672Y-33678D01*
X81698Y-33630D01*
X81725Y-33607D01*
X81777Y-33583D01*
X81855Y-33583D01*
X81908Y-33607D01*
X81934Y-33630D01*
X81960Y-33678D01*
X81960Y-33869D01*
X81725Y-33392D02*
X81698Y-33369D01*
X81672Y-33321D01*
X81672Y-33202D01*
X81698Y-33154D01*
X81725Y-33130D01*
X81777Y-33107D01*
X81829Y-33107D01*
X81908Y-33130D01*
X82222Y-33416D01*
X82222Y-33107D01*
X55922Y-33583D02*
X55660Y-33750D01*
X55922Y-33869D02*
X55372Y-33869D01*
X55372Y-33678D01*
X55398Y-33630D01*
X55425Y-33607D01*
X55477Y-33583D01*
X55555Y-33583D01*
X55608Y-33607D01*
X55634Y-33630D01*
X55660Y-33678D01*
X55660Y-33869D01*
X55372Y-33154D02*
X55372Y-33250D01*
X55398Y-33297D01*
X55425Y-33321D01*
X55503Y-33369D01*
X55608Y-33392D01*
X55817Y-33392D01*
X55870Y-33369D01*
X55896Y-33345D01*
X55922Y-33297D01*
X55922Y-33202D01*
X55896Y-33154D01*
X55870Y-33130D01*
X55817Y-33107D01*
X55686Y-33107D01*
X55634Y-33130D01*
X55608Y-33154D01*
X55582Y-33202D01*
X55582Y-33297D01*
X55608Y-33345D01*
X55634Y-33369D01*
X55686Y-33392D01*
X61922Y-33583D02*
X61660Y-33750D01*
X61922Y-33869D02*
X61372Y-33869D01*
X61372Y-33678D01*
X61398Y-33630D01*
X61425Y-33607D01*
X61477Y-33583D01*
X61555Y-33583D01*
X61608Y-33607D01*
X61634Y-33630D01*
X61660Y-33678D01*
X61660Y-33869D01*
X61372Y-33130D02*
X61372Y-33369D01*
X61634Y-33392D01*
X61608Y-33369D01*
X61582Y-33321D01*
X61582Y-33202D01*
X61608Y-33154D01*
X61634Y-33130D01*
X61686Y-33107D01*
X61817Y-33107D01*
X61870Y-33130D01*
X61896Y-33154D01*
X61922Y-33202D01*
X61922Y-33321D01*
X61896Y-33369D01*
X61870Y-33392D01*
X68722Y-33583D02*
X68460Y-33750D01*
X68722Y-33869D02*
X68172Y-33869D01*
X68172Y-33678D01*
X68198Y-33630D01*
X68225Y-33607D01*
X68277Y-33583D01*
X68355Y-33583D01*
X68408Y-33607D01*
X68434Y-33630D01*
X68460Y-33678D01*
X68460Y-33869D01*
X68355Y-33154D02*
X68722Y-33154D01*
X68146Y-33273D02*
X68539Y-33392D01*
X68539Y-33083D01*
G54D21*
X31085Y-33821D02*
X31085Y-33521D01*
X31157Y-33521D01*
X31200Y-33535D01*
X31228Y-33564D01*
X31242Y-33592D01*
X31257Y-33650D01*
X31257Y-33692D01*
X31242Y-33750D01*
X31228Y-33778D01*
X31200Y-33807D01*
X31157Y-33821D01*
X31085Y-33821D01*
X31371Y-33550D02*
X31385Y-33535D01*
X31414Y-33521D01*
X31485Y-33521D01*
X31514Y-33535D01*
X31528Y-33550D01*
X31542Y-33578D01*
X31542Y-33607D01*
X31528Y-33650D01*
X31357Y-33821D01*
X31542Y-33821D01*
X31657Y-33550D02*
X31671Y-33535D01*
X31700Y-33521D01*
X31771Y-33521D01*
X31800Y-33535D01*
X31814Y-33550D01*
X31828Y-33578D01*
X31828Y-33607D01*
X31814Y-33650D01*
X31642Y-33821D01*
X31828Y-33821D01*
X37885Y-33821D02*
X37885Y-33521D01*
X37957Y-33521D01*
X38000Y-33535D01*
X38028Y-33564D01*
X38042Y-33592D01*
X38057Y-33650D01*
X38057Y-33692D01*
X38042Y-33750D01*
X38028Y-33778D01*
X38000Y-33807D01*
X37957Y-33821D01*
X37885Y-33821D01*
X38171Y-33550D02*
X38185Y-33535D01*
X38214Y-33521D01*
X38285Y-33521D01*
X38314Y-33535D01*
X38328Y-33550D01*
X38342Y-33578D01*
X38342Y-33607D01*
X38328Y-33650D01*
X38157Y-33821D01*
X38342Y-33821D01*
X38628Y-33821D02*
X38457Y-33821D01*
X38542Y-33821D02*
X38542Y-33521D01*
X38514Y-33564D01*
X38485Y-33592D01*
X38457Y-33607D01*
X24685Y-33821D02*
X24685Y-33521D01*
X24757Y-33521D01*
X24800Y-33535D01*
X24828Y-33564D01*
X24842Y-33592D01*
X24857Y-33650D01*
X24857Y-33692D01*
X24842Y-33750D01*
X24828Y-33778D01*
X24800Y-33807D01*
X24757Y-33821D01*
X24685Y-33821D01*
X24971Y-33550D02*
X24985Y-33535D01*
X25014Y-33521D01*
X25085Y-33521D01*
X25114Y-33535D01*
X25128Y-33550D01*
X25142Y-33578D01*
X25142Y-33607D01*
X25128Y-33650D01*
X24957Y-33821D01*
X25142Y-33821D01*
X25242Y-33521D02*
X25428Y-33521D01*
X25328Y-33635D01*
X25371Y-33635D01*
X25400Y-33650D01*
X25414Y-33664D01*
X25428Y-33692D01*
X25428Y-33764D01*
X25414Y-33792D01*
X25400Y-33807D01*
X25371Y-33821D01*
X25285Y-33821D01*
X25257Y-33807D01*
X25242Y-33792D01*
X90428Y-33821D02*
X90428Y-33521D01*
X90500Y-33521D01*
X90542Y-33535D01*
X90571Y-33564D01*
X90585Y-33592D01*
X90600Y-33650D01*
X90600Y-33692D01*
X90585Y-33750D01*
X90571Y-33778D01*
X90542Y-33807D01*
X90500Y-33821D01*
X90428Y-33821D01*
X90700Y-33521D02*
X90900Y-33521D01*
X90771Y-33821D01*
X70185Y-33821D02*
X70185Y-33521D01*
X70257Y-33521D01*
X70300Y-33535D01*
X70328Y-33564D01*
X70342Y-33592D01*
X70357Y-33650D01*
X70357Y-33692D01*
X70342Y-33750D01*
X70328Y-33778D01*
X70300Y-33807D01*
X70257Y-33821D01*
X70185Y-33821D01*
X70642Y-33821D02*
X70471Y-33821D01*
X70557Y-33821D02*
X70557Y-33521D01*
X70528Y-33564D01*
X70500Y-33592D01*
X70471Y-33607D01*
X70828Y-33521D02*
X70857Y-33521D01*
X70885Y-33535D01*
X70900Y-33550D01*
X70914Y-33578D01*
X70928Y-33635D01*
X70928Y-33707D01*
X70914Y-33764D01*
X70900Y-33792D01*
X70885Y-33807D01*
X70857Y-33821D01*
X70828Y-33821D01*
X70800Y-33807D01*
X70785Y-33792D01*
X70771Y-33764D01*
X70757Y-33707D01*
X70757Y-33635D01*
X70771Y-33578D01*
X70785Y-33550D01*
X70800Y-33535D01*
X70828Y-33521D01*
X18535Y-33821D02*
X18535Y-33521D01*
X18607Y-33521D01*
X18650Y-33535D01*
X18678Y-33564D01*
X18692Y-33592D01*
X18707Y-33650D01*
X18707Y-33692D01*
X18692Y-33750D01*
X18678Y-33778D01*
X18650Y-33807D01*
X18607Y-33821D01*
X18535Y-33821D01*
X18821Y-33550D02*
X18835Y-33535D01*
X18864Y-33521D01*
X18935Y-33521D01*
X18964Y-33535D01*
X18978Y-33550D01*
X18992Y-33578D01*
X18992Y-33607D01*
X18978Y-33650D01*
X18807Y-33821D01*
X18992Y-33821D01*
X19250Y-33621D02*
X19250Y-33821D01*
X19178Y-33507D02*
X19107Y-33721D01*
X19292Y-33721D01*
X44585Y-33821D02*
X44585Y-33521D01*
X44657Y-33521D01*
X44700Y-33535D01*
X44728Y-33564D01*
X44742Y-33592D01*
X44757Y-33650D01*
X44757Y-33692D01*
X44742Y-33750D01*
X44728Y-33778D01*
X44700Y-33807D01*
X44657Y-33821D01*
X44585Y-33821D01*
X44871Y-33550D02*
X44885Y-33535D01*
X44914Y-33521D01*
X44985Y-33521D01*
X45014Y-33535D01*
X45028Y-33550D01*
X45042Y-33578D01*
X45042Y-33607D01*
X45028Y-33650D01*
X44857Y-33821D01*
X45042Y-33821D01*
X45228Y-33521D02*
X45257Y-33521D01*
X45285Y-33535D01*
X45300Y-33550D01*
X45314Y-33578D01*
X45328Y-33635D01*
X45328Y-33707D01*
X45314Y-33764D01*
X45300Y-33792D01*
X45285Y-33807D01*
X45257Y-33821D01*
X45228Y-33821D01*
X45200Y-33807D01*
X45185Y-33792D01*
X45171Y-33764D01*
X45157Y-33707D01*
X45157Y-33635D01*
X45171Y-33578D01*
X45185Y-33550D01*
X45200Y-33535D01*
X45228Y-33521D01*
X83728Y-33821D02*
X83728Y-33521D01*
X83800Y-33521D01*
X83842Y-33535D01*
X83871Y-33564D01*
X83885Y-33592D01*
X83900Y-33650D01*
X83900Y-33692D01*
X83885Y-33750D01*
X83871Y-33778D01*
X83842Y-33807D01*
X83800Y-33821D01*
X83728Y-33821D01*
X84071Y-33650D02*
X84042Y-33635D01*
X84028Y-33621D01*
X84014Y-33592D01*
X84014Y-33578D01*
X84028Y-33550D01*
X84042Y-33535D01*
X84071Y-33521D01*
X84128Y-33521D01*
X84157Y-33535D01*
X84171Y-33550D01*
X84185Y-33578D01*
X84185Y-33592D01*
X84171Y-33621D01*
X84157Y-33635D01*
X84128Y-33650D01*
X84071Y-33650D01*
X84042Y-33664D01*
X84028Y-33678D01*
X84014Y-33707D01*
X84014Y-33764D01*
X84028Y-33792D01*
X84042Y-33807D01*
X84071Y-33821D01*
X84128Y-33821D01*
X84157Y-33807D01*
X84171Y-33792D01*
X84185Y-33764D01*
X84185Y-33707D01*
X84171Y-33678D01*
X84157Y-33664D01*
X84128Y-33650D01*
X51085Y-33821D02*
X51085Y-33521D01*
X51157Y-33521D01*
X51200Y-33535D01*
X51228Y-33564D01*
X51242Y-33592D01*
X51257Y-33650D01*
X51257Y-33692D01*
X51242Y-33750D01*
X51228Y-33778D01*
X51200Y-33807D01*
X51157Y-33821D01*
X51085Y-33821D01*
X51542Y-33821D02*
X51371Y-33821D01*
X51457Y-33821D02*
X51457Y-33521D01*
X51428Y-33564D01*
X51400Y-33592D01*
X51371Y-33607D01*
X51685Y-33821D02*
X51742Y-33821D01*
X51771Y-33807D01*
X51785Y-33792D01*
X51814Y-33750D01*
X51828Y-33692D01*
X51828Y-33578D01*
X51814Y-33550D01*
X51800Y-33535D01*
X51771Y-33521D01*
X51714Y-33521D01*
X51685Y-33535D01*
X51671Y-33550D01*
X51657Y-33578D01*
X51657Y-33650D01*
X51671Y-33678D01*
X51685Y-33692D01*
X51714Y-33707D01*
X51771Y-33707D01*
X51800Y-33692D01*
X51814Y-33678D01*
X51828Y-33650D01*
X63385Y-33821D02*
X63385Y-33521D01*
X63457Y-33521D01*
X63500Y-33535D01*
X63528Y-33564D01*
X63542Y-33592D01*
X63557Y-33650D01*
X63557Y-33692D01*
X63542Y-33750D01*
X63528Y-33778D01*
X63500Y-33807D01*
X63457Y-33821D01*
X63385Y-33821D01*
X63842Y-33821D02*
X63671Y-33821D01*
X63757Y-33821D02*
X63757Y-33521D01*
X63728Y-33564D01*
X63700Y-33592D01*
X63671Y-33607D01*
X64128Y-33821D02*
X63957Y-33821D01*
X64042Y-33821D02*
X64042Y-33521D01*
X64014Y-33564D01*
X63985Y-33592D01*
X63957Y-33607D01*
X57385Y-33821D02*
X57385Y-33521D01*
X57457Y-33521D01*
X57500Y-33535D01*
X57528Y-33564D01*
X57542Y-33592D01*
X57557Y-33650D01*
X57557Y-33692D01*
X57542Y-33750D01*
X57528Y-33778D01*
X57500Y-33807D01*
X57457Y-33821D01*
X57385Y-33821D01*
X57842Y-33821D02*
X57671Y-33821D01*
X57757Y-33821D02*
X57757Y-33521D01*
X57728Y-33564D01*
X57700Y-33592D01*
X57671Y-33607D01*
X57957Y-33550D02*
X57971Y-33535D01*
X58000Y-33521D01*
X58071Y-33521D01*
X58100Y-33535D01*
X58114Y-33550D01*
X58128Y-33578D01*
X58128Y-33607D01*
X58114Y-33650D01*
X57942Y-33821D01*
X58128Y-33821D01*
G54D17*
X44464Y-27961D02*
X44464Y-27561D01*
X44559Y-27561D01*
X44616Y-27580D01*
X44654Y-27619D01*
X44673Y-27657D01*
X44692Y-27733D01*
X44692Y-27790D01*
X44673Y-27866D01*
X44654Y-27904D01*
X44616Y-27942D01*
X44559Y-27961D01*
X44464Y-27961D01*
X45073Y-27961D02*
X44845Y-27961D01*
X44959Y-27961D02*
X44959Y-27561D01*
X44921Y-27619D01*
X44883Y-27657D01*
X44845Y-27676D01*
X45416Y-27695D02*
X45416Y-27961D01*
X45321Y-27542D02*
X45226Y-27828D01*
X45473Y-27828D01*
X83654Y-27961D02*
X83654Y-27561D01*
X83750Y-27561D01*
X83807Y-27580D01*
X83845Y-27619D01*
X83864Y-27657D01*
X83883Y-27733D01*
X83883Y-27790D01*
X83864Y-27866D01*
X83845Y-27904D01*
X83807Y-27942D01*
X83750Y-27961D01*
X83654Y-27961D01*
X84035Y-27600D02*
X84054Y-27580D01*
X84092Y-27561D01*
X84188Y-27561D01*
X84226Y-27580D01*
X84245Y-27600D01*
X84264Y-27638D01*
X84264Y-27676D01*
X84245Y-27733D01*
X84016Y-27961D01*
X84264Y-27961D01*
X63454Y-27961D02*
X63454Y-27561D01*
X63550Y-27561D01*
X63607Y-27580D01*
X63645Y-27619D01*
X63664Y-27657D01*
X63683Y-27733D01*
X63683Y-27790D01*
X63664Y-27866D01*
X63645Y-27904D01*
X63607Y-27942D01*
X63550Y-27961D01*
X63454Y-27961D01*
X64045Y-27561D02*
X63854Y-27561D01*
X63835Y-27752D01*
X63854Y-27733D01*
X63892Y-27714D01*
X63988Y-27714D01*
X64026Y-27733D01*
X64045Y-27752D01*
X64064Y-27790D01*
X64064Y-27885D01*
X64045Y-27923D01*
X64026Y-27942D01*
X63988Y-27961D01*
X63892Y-27961D01*
X63854Y-27942D01*
X63835Y-27923D01*
X17664Y-27961D02*
X17664Y-27561D01*
X17759Y-27561D01*
X17816Y-27580D01*
X17854Y-27619D01*
X17873Y-27657D01*
X17892Y-27733D01*
X17892Y-27790D01*
X17873Y-27866D01*
X17854Y-27904D01*
X17816Y-27942D01*
X17759Y-27961D01*
X17664Y-27961D01*
X18273Y-27961D02*
X18045Y-27961D01*
X18159Y-27961D02*
X18159Y-27561D01*
X18121Y-27619D01*
X18083Y-27657D01*
X18045Y-27676D01*
X18502Y-27733D02*
X18464Y-27714D01*
X18445Y-27695D01*
X18426Y-27657D01*
X18426Y-27638D01*
X18445Y-27600D01*
X18464Y-27580D01*
X18502Y-27561D01*
X18578Y-27561D01*
X18616Y-27580D01*
X18635Y-27600D01*
X18654Y-27638D01*
X18654Y-27657D01*
X18635Y-27695D01*
X18616Y-27714D01*
X18578Y-27733D01*
X18502Y-27733D01*
X18464Y-27752D01*
X18445Y-27771D01*
X18426Y-27809D01*
X18426Y-27885D01*
X18445Y-27923D01*
X18464Y-27942D01*
X18502Y-27961D01*
X18578Y-27961D01*
X18616Y-27942D01*
X18635Y-27923D01*
X18654Y-27885D01*
X18654Y-27809D01*
X18635Y-27771D01*
X18616Y-27752D01*
X18578Y-27733D01*
X24564Y-27961D02*
X24564Y-27561D01*
X24659Y-27561D01*
X24716Y-27580D01*
X24754Y-27619D01*
X24773Y-27657D01*
X24792Y-27733D01*
X24792Y-27790D01*
X24773Y-27866D01*
X24754Y-27904D01*
X24716Y-27942D01*
X24659Y-27961D01*
X24564Y-27961D01*
X25173Y-27961D02*
X24945Y-27961D01*
X25059Y-27961D02*
X25059Y-27561D01*
X25021Y-27619D01*
X24983Y-27657D01*
X24945Y-27676D01*
X25307Y-27561D02*
X25573Y-27561D01*
X25402Y-27961D01*
X90254Y-27961D02*
X90254Y-27561D01*
X90350Y-27561D01*
X90407Y-27580D01*
X90445Y-27619D01*
X90464Y-27657D01*
X90483Y-27733D01*
X90483Y-27790D01*
X90464Y-27866D01*
X90445Y-27904D01*
X90407Y-27942D01*
X90350Y-27961D01*
X90254Y-27961D01*
X90864Y-27961D02*
X90635Y-27961D01*
X90750Y-27961D02*
X90750Y-27561D01*
X90711Y-27619D01*
X90673Y-27657D01*
X90635Y-27676D01*
X77154Y-27961D02*
X77154Y-27561D01*
X77250Y-27561D01*
X77307Y-27580D01*
X77345Y-27619D01*
X77364Y-27657D01*
X77383Y-27733D01*
X77383Y-27790D01*
X77364Y-27866D01*
X77345Y-27904D01*
X77307Y-27942D01*
X77250Y-27961D01*
X77154Y-27961D01*
X77516Y-27561D02*
X77764Y-27561D01*
X77630Y-27714D01*
X77688Y-27714D01*
X77726Y-27733D01*
X77745Y-27752D01*
X77764Y-27790D01*
X77764Y-27885D01*
X77745Y-27923D01*
X77726Y-27942D01*
X77688Y-27961D01*
X77573Y-27961D01*
X77535Y-27942D01*
X77516Y-27923D01*
X57354Y-27961D02*
X57354Y-27561D01*
X57450Y-27561D01*
X57507Y-27580D01*
X57545Y-27619D01*
X57564Y-27657D01*
X57583Y-27733D01*
X57583Y-27790D01*
X57564Y-27866D01*
X57545Y-27904D01*
X57507Y-27942D01*
X57450Y-27961D01*
X57354Y-27961D01*
X57926Y-27561D02*
X57850Y-27561D01*
X57811Y-27580D01*
X57792Y-27600D01*
X57754Y-27657D01*
X57735Y-27733D01*
X57735Y-27885D01*
X57754Y-27923D01*
X57773Y-27942D01*
X57811Y-27961D01*
X57888Y-27961D01*
X57926Y-27942D01*
X57945Y-27923D01*
X57964Y-27885D01*
X57964Y-27790D01*
X57945Y-27752D01*
X57926Y-27733D01*
X57888Y-27714D01*
X57811Y-27714D01*
X57773Y-27733D01*
X57754Y-27752D01*
X57735Y-27790D01*
X30864Y-27961D02*
X30864Y-27561D01*
X30959Y-27561D01*
X31016Y-27580D01*
X31054Y-27619D01*
X31073Y-27657D01*
X31092Y-27733D01*
X31092Y-27790D01*
X31073Y-27866D01*
X31054Y-27904D01*
X31016Y-27942D01*
X30959Y-27961D01*
X30864Y-27961D01*
X31473Y-27961D02*
X31245Y-27961D01*
X31359Y-27961D02*
X31359Y-27561D01*
X31321Y-27619D01*
X31283Y-27657D01*
X31245Y-27676D01*
X31816Y-27561D02*
X31740Y-27561D01*
X31702Y-27580D01*
X31683Y-27600D01*
X31645Y-27657D01*
X31626Y-27733D01*
X31626Y-27885D01*
X31645Y-27923D01*
X31664Y-27942D01*
X31702Y-27961D01*
X31778Y-27961D01*
X31816Y-27942D01*
X31835Y-27923D01*
X31854Y-27885D01*
X31854Y-27790D01*
X31835Y-27752D01*
X31816Y-27733D01*
X31778Y-27714D01*
X31702Y-27714D01*
X31664Y-27733D01*
X31645Y-27752D01*
X31626Y-27790D01*
X70254Y-27961D02*
X70254Y-27561D01*
X70350Y-27561D01*
X70407Y-27580D01*
X70445Y-27619D01*
X70464Y-27657D01*
X70483Y-27733D01*
X70483Y-27790D01*
X70464Y-27866D01*
X70445Y-27904D01*
X70407Y-27942D01*
X70350Y-27961D01*
X70254Y-27961D01*
X70826Y-27695D02*
X70826Y-27961D01*
X70730Y-27542D02*
X70635Y-27828D01*
X70883Y-27828D01*
X37764Y-27961D02*
X37764Y-27561D01*
X37859Y-27561D01*
X37916Y-27580D01*
X37954Y-27619D01*
X37973Y-27657D01*
X37992Y-27733D01*
X37992Y-27790D01*
X37973Y-27866D01*
X37954Y-27904D01*
X37916Y-27942D01*
X37859Y-27961D01*
X37764Y-27961D01*
X38373Y-27961D02*
X38145Y-27961D01*
X38259Y-27961D02*
X38259Y-27561D01*
X38221Y-27619D01*
X38183Y-27657D01*
X38145Y-27676D01*
X38735Y-27561D02*
X38545Y-27561D01*
X38526Y-27752D01*
X38545Y-27733D01*
X38583Y-27714D01*
X38678Y-27714D01*
X38716Y-27733D01*
X38735Y-27752D01*
X38754Y-27790D01*
X38754Y-27885D01*
X38735Y-27923D01*
X38716Y-27942D01*
X38678Y-27961D01*
X38583Y-27961D01*
X38545Y-27942D01*
X38526Y-27923D01*
X51064Y-27961D02*
X51064Y-27561D01*
X51159Y-27561D01*
X51216Y-27580D01*
X51254Y-27619D01*
X51273Y-27657D01*
X51292Y-27733D01*
X51292Y-27790D01*
X51273Y-27866D01*
X51254Y-27904D01*
X51216Y-27942D01*
X51159Y-27961D01*
X51064Y-27961D01*
X51673Y-27961D02*
X51445Y-27961D01*
X51559Y-27961D02*
X51559Y-27561D01*
X51521Y-27619D01*
X51483Y-27657D01*
X51445Y-27676D01*
X51807Y-27561D02*
X52054Y-27561D01*
X51921Y-27714D01*
X51978Y-27714D01*
X52016Y-27733D01*
X52035Y-27752D01*
X52054Y-27790D01*
X52054Y-27885D01*
X52035Y-27923D01*
X52016Y-27942D01*
X51978Y-27961D01*
X51864Y-27961D01*
X51826Y-27942D01*
X51807Y-27923D01*
X38261Y-31650D02*
X38223Y-31621D01*
X38185Y-31564D01*
X38128Y-31478D01*
X38090Y-31450D01*
X38052Y-31450D01*
X38071Y-31592D02*
X38033Y-31564D01*
X37995Y-31507D01*
X37976Y-31392D01*
X37976Y-31192D01*
X37995Y-31078D01*
X38033Y-31021D01*
X38071Y-30992D01*
X38147Y-30992D01*
X38185Y-31021D01*
X38223Y-31078D01*
X38242Y-31192D01*
X38242Y-31392D01*
X38223Y-31507D01*
X38185Y-31564D01*
X38147Y-31592D01*
X38071Y-31592D01*
X38433Y-31592D02*
X38509Y-31592D01*
X38547Y-31564D01*
X38566Y-31535D01*
X38604Y-31450D01*
X38623Y-31335D01*
X38623Y-31107D01*
X38604Y-31050D01*
X38585Y-31021D01*
X38547Y-30992D01*
X38471Y-30992D01*
X38433Y-31021D01*
X38414Y-31050D01*
X38395Y-31107D01*
X38395Y-31250D01*
X38414Y-31307D01*
X38433Y-31335D01*
X38471Y-31364D01*
X38547Y-31364D01*
X38585Y-31335D01*
X38604Y-31307D01*
X38623Y-31250D01*
X90561Y-31650D02*
X90523Y-31621D01*
X90485Y-31564D01*
X90428Y-31478D01*
X90390Y-31450D01*
X90352Y-31450D01*
X90371Y-31592D02*
X90333Y-31564D01*
X90295Y-31507D01*
X90276Y-31392D01*
X90276Y-31192D01*
X90295Y-31078D01*
X90333Y-31021D01*
X90371Y-30992D01*
X90447Y-30992D01*
X90485Y-31021D01*
X90523Y-31078D01*
X90542Y-31192D01*
X90542Y-31392D01*
X90523Y-31507D01*
X90485Y-31564D01*
X90447Y-31592D01*
X90371Y-31592D01*
X90923Y-31592D02*
X90695Y-31592D01*
X90809Y-31592D02*
X90809Y-30992D01*
X90771Y-31078D01*
X90733Y-31135D01*
X90695Y-31164D01*
X17871Y-31650D02*
X17833Y-31621D01*
X17795Y-31564D01*
X17738Y-31478D01*
X17700Y-31450D01*
X17661Y-31450D01*
X17680Y-31592D02*
X17642Y-31564D01*
X17604Y-31507D01*
X17585Y-31392D01*
X17585Y-31192D01*
X17604Y-31078D01*
X17642Y-31021D01*
X17680Y-30992D01*
X17757Y-30992D01*
X17795Y-31021D01*
X17833Y-31078D01*
X17852Y-31192D01*
X17852Y-31392D01*
X17833Y-31507D01*
X17795Y-31564D01*
X17757Y-31592D01*
X17680Y-31592D01*
X18233Y-31592D02*
X18004Y-31592D01*
X18119Y-31592D02*
X18119Y-30992D01*
X18080Y-31078D01*
X18042Y-31135D01*
X18004Y-31164D01*
X18385Y-31050D02*
X18404Y-31021D01*
X18442Y-30992D01*
X18538Y-30992D01*
X18576Y-31021D01*
X18595Y-31050D01*
X18614Y-31107D01*
X18614Y-31164D01*
X18595Y-31250D01*
X18366Y-31592D01*
X18614Y-31592D01*
X24821Y-31650D02*
X24783Y-31621D01*
X24745Y-31564D01*
X24688Y-31478D01*
X24650Y-31450D01*
X24611Y-31450D01*
X24630Y-31592D02*
X24592Y-31564D01*
X24554Y-31507D01*
X24535Y-31392D01*
X24535Y-31192D01*
X24554Y-31078D01*
X24592Y-31021D01*
X24630Y-30992D01*
X24707Y-30992D01*
X24745Y-31021D01*
X24783Y-31078D01*
X24802Y-31192D01*
X24802Y-31392D01*
X24783Y-31507D01*
X24745Y-31564D01*
X24707Y-31592D01*
X24630Y-31592D01*
X25183Y-31592D02*
X24954Y-31592D01*
X25069Y-31592D02*
X25069Y-30992D01*
X25030Y-31078D01*
X24992Y-31135D01*
X24954Y-31164D01*
X25564Y-31592D02*
X25335Y-31592D01*
X25450Y-31592D02*
X25450Y-30992D01*
X25411Y-31078D01*
X25373Y-31135D01*
X25335Y-31164D01*
X31171Y-31650D02*
X31133Y-31621D01*
X31095Y-31564D01*
X31038Y-31478D01*
X31000Y-31450D01*
X30961Y-31450D01*
X30980Y-31592D02*
X30942Y-31564D01*
X30904Y-31507D01*
X30885Y-31392D01*
X30885Y-31192D01*
X30904Y-31078D01*
X30942Y-31021D01*
X30980Y-30992D01*
X31057Y-30992D01*
X31095Y-31021D01*
X31133Y-31078D01*
X31152Y-31192D01*
X31152Y-31392D01*
X31133Y-31507D01*
X31095Y-31564D01*
X31057Y-31592D01*
X30980Y-31592D01*
X31533Y-31592D02*
X31304Y-31592D01*
X31419Y-31592D02*
X31419Y-30992D01*
X31380Y-31078D01*
X31342Y-31135D01*
X31304Y-31164D01*
X31780Y-30992D02*
X31819Y-30992D01*
X31857Y-31021D01*
X31876Y-31050D01*
X31895Y-31107D01*
X31914Y-31221D01*
X31914Y-31364D01*
X31895Y-31478D01*
X31876Y-31535D01*
X31857Y-31564D01*
X31819Y-31592D01*
X31780Y-31592D01*
X31742Y-31564D01*
X31723Y-31535D01*
X31704Y-31478D01*
X31685Y-31364D01*
X31685Y-31221D01*
X31704Y-31107D01*
X31723Y-31050D01*
X31742Y-31021D01*
X31780Y-30992D01*
X44911Y-31650D02*
X44873Y-31621D01*
X44835Y-31564D01*
X44778Y-31478D01*
X44740Y-31450D01*
X44702Y-31450D01*
X44721Y-31592D02*
X44683Y-31564D01*
X44645Y-31507D01*
X44626Y-31392D01*
X44626Y-31192D01*
X44645Y-31078D01*
X44683Y-31021D01*
X44721Y-30992D01*
X44797Y-30992D01*
X44835Y-31021D01*
X44873Y-31078D01*
X44892Y-31192D01*
X44892Y-31392D01*
X44873Y-31507D01*
X44835Y-31564D01*
X44797Y-31592D01*
X44721Y-31592D01*
X45121Y-31250D02*
X45083Y-31221D01*
X45064Y-31192D01*
X45045Y-31135D01*
X45045Y-31107D01*
X45064Y-31050D01*
X45083Y-31021D01*
X45121Y-30992D01*
X45197Y-30992D01*
X45235Y-31021D01*
X45254Y-31050D01*
X45273Y-31107D01*
X45273Y-31135D01*
X45254Y-31192D01*
X45235Y-31221D01*
X45197Y-31250D01*
X45121Y-31250D01*
X45083Y-31278D01*
X45064Y-31307D01*
X45045Y-31364D01*
X45045Y-31478D01*
X45064Y-31535D01*
X45083Y-31564D01*
X45121Y-31592D01*
X45197Y-31592D01*
X45235Y-31564D01*
X45254Y-31535D01*
X45273Y-31478D01*
X45273Y-31364D01*
X45254Y-31307D01*
X45235Y-31278D01*
X45197Y-31250D01*
X51461Y-31650D02*
X51423Y-31621D01*
X51385Y-31564D01*
X51328Y-31478D01*
X51290Y-31450D01*
X51252Y-31450D01*
X51271Y-31592D02*
X51233Y-31564D01*
X51195Y-31507D01*
X51176Y-31392D01*
X51176Y-31192D01*
X51195Y-31078D01*
X51233Y-31021D01*
X51271Y-30992D01*
X51347Y-30992D01*
X51385Y-31021D01*
X51423Y-31078D01*
X51442Y-31192D01*
X51442Y-31392D01*
X51423Y-31507D01*
X51385Y-31564D01*
X51347Y-31592D01*
X51271Y-31592D01*
X51576Y-30992D02*
X51842Y-30992D01*
X51671Y-31592D01*
X57661Y-31650D02*
X57623Y-31621D01*
X57585Y-31564D01*
X57528Y-31478D01*
X57490Y-31450D01*
X57452Y-31450D01*
X57471Y-31592D02*
X57433Y-31564D01*
X57395Y-31507D01*
X57376Y-31392D01*
X57376Y-31192D01*
X57395Y-31078D01*
X57433Y-31021D01*
X57471Y-30992D01*
X57547Y-30992D01*
X57585Y-31021D01*
X57623Y-31078D01*
X57642Y-31192D01*
X57642Y-31392D01*
X57623Y-31507D01*
X57585Y-31564D01*
X57547Y-31592D01*
X57471Y-31592D01*
X57985Y-30992D02*
X57909Y-30992D01*
X57871Y-31021D01*
X57852Y-31050D01*
X57814Y-31135D01*
X57795Y-31250D01*
X57795Y-31478D01*
X57814Y-31535D01*
X57833Y-31564D01*
X57871Y-31592D01*
X57947Y-31592D01*
X57985Y-31564D01*
X58004Y-31535D01*
X58023Y-31478D01*
X58023Y-31335D01*
X58004Y-31278D01*
X57985Y-31250D01*
X57947Y-31221D01*
X57871Y-31221D01*
X57833Y-31250D01*
X57814Y-31278D01*
X57795Y-31335D01*
X63711Y-31650D02*
X63673Y-31621D01*
X63635Y-31564D01*
X63578Y-31478D01*
X63540Y-31450D01*
X63502Y-31450D01*
X63521Y-31592D02*
X63483Y-31564D01*
X63445Y-31507D01*
X63426Y-31392D01*
X63426Y-31192D01*
X63445Y-31078D01*
X63483Y-31021D01*
X63521Y-30992D01*
X63597Y-30992D01*
X63635Y-31021D01*
X63673Y-31078D01*
X63692Y-31192D01*
X63692Y-31392D01*
X63673Y-31507D01*
X63635Y-31564D01*
X63597Y-31592D01*
X63521Y-31592D01*
X64054Y-30992D02*
X63864Y-30992D01*
X63845Y-31278D01*
X63864Y-31250D01*
X63902Y-31221D01*
X63997Y-31221D01*
X64035Y-31250D01*
X64054Y-31278D01*
X64073Y-31335D01*
X64073Y-31478D01*
X64054Y-31535D01*
X64035Y-31564D01*
X63997Y-31592D01*
X63902Y-31592D01*
X63864Y-31564D01*
X63845Y-31535D01*
X70511Y-31650D02*
X70473Y-31621D01*
X70435Y-31564D01*
X70378Y-31478D01*
X70340Y-31450D01*
X70302Y-31450D01*
X70321Y-31592D02*
X70283Y-31564D01*
X70245Y-31507D01*
X70226Y-31392D01*
X70226Y-31192D01*
X70245Y-31078D01*
X70283Y-31021D01*
X70321Y-30992D01*
X70397Y-30992D01*
X70435Y-31021D01*
X70473Y-31078D01*
X70492Y-31192D01*
X70492Y-31392D01*
X70473Y-31507D01*
X70435Y-31564D01*
X70397Y-31592D01*
X70321Y-31592D01*
X70835Y-31192D02*
X70835Y-31592D01*
X70740Y-30964D02*
X70645Y-31392D01*
X70892Y-31392D01*
X77411Y-31650D02*
X77373Y-31621D01*
X77335Y-31564D01*
X77278Y-31478D01*
X77240Y-31450D01*
X77202Y-31450D01*
X77221Y-31592D02*
X77183Y-31564D01*
X77145Y-31507D01*
X77126Y-31392D01*
X77126Y-31192D01*
X77145Y-31078D01*
X77183Y-31021D01*
X77221Y-30992D01*
X77297Y-30992D01*
X77335Y-31021D01*
X77373Y-31078D01*
X77392Y-31192D01*
X77392Y-31392D01*
X77373Y-31507D01*
X77335Y-31564D01*
X77297Y-31592D01*
X77221Y-31592D01*
X77526Y-30992D02*
X77773Y-30992D01*
X77640Y-31221D01*
X77697Y-31221D01*
X77735Y-31250D01*
X77754Y-31278D01*
X77773Y-31335D01*
X77773Y-31478D01*
X77754Y-31535D01*
X77735Y-31564D01*
X77697Y-31592D01*
X77583Y-31592D01*
X77545Y-31564D01*
X77526Y-31535D01*
X83961Y-31650D02*
X83923Y-31621D01*
X83885Y-31564D01*
X83828Y-31478D01*
X83790Y-31450D01*
X83752Y-31450D01*
X83771Y-31592D02*
X83733Y-31564D01*
X83695Y-31507D01*
X83676Y-31392D01*
X83676Y-31192D01*
X83695Y-31078D01*
X83733Y-31021D01*
X83771Y-30992D01*
X83847Y-30992D01*
X83885Y-31021D01*
X83923Y-31078D01*
X83942Y-31192D01*
X83942Y-31392D01*
X83923Y-31507D01*
X83885Y-31564D01*
X83847Y-31592D01*
X83771Y-31592D01*
X84095Y-31050D02*
X84114Y-31021D01*
X84152Y-30992D01*
X84247Y-30992D01*
X84285Y-31021D01*
X84304Y-31050D01*
X84323Y-31107D01*
X84323Y-31164D01*
X84304Y-31250D01*
X84076Y-31592D01*
X84323Y-31592D01*
G54D22*
X57521Y-49342D02*
X57521Y-48742D01*
X57671Y-49171D01*
X57821Y-48742D01*
X57821Y-49342D01*
X58271Y-49342D02*
X58014Y-49342D01*
X58142Y-49342D02*
X58142Y-48742D01*
X58100Y-48828D01*
X58057Y-48885D01*
X58014Y-48914D01*
G54D15*
G54D20*
X22050Y-49693D02*
X22035Y-49708D01*
X21992Y-49722D01*
X21964Y-49722D01*
X21921Y-49708D01*
X21892Y-49679D01*
X21878Y-49651D01*
X21864Y-49593D01*
X21864Y-49551D01*
X21878Y-49493D01*
X21892Y-49465D01*
X21921Y-49436D01*
X21964Y-49422D01*
X21992Y-49422D01*
X22035Y-49436D01*
X22050Y-49451D01*
X22335Y-49722D02*
X22164Y-49722D01*
X22250Y-49722D02*
X22250Y-49422D01*
X22221Y-49465D01*
X22192Y-49493D01*
X22164Y-49508D01*
G54D23*
X21085Y-50107D02*
X21314Y-50107D01*
X21200Y-50221D02*
X21200Y-49992D01*
G54D17*
G54D20*
X22050Y-47493D02*
X22035Y-47508D01*
X21992Y-47522D01*
X21964Y-47522D01*
X21921Y-47508D01*
X21892Y-47479D01*
X21878Y-47451D01*
X21864Y-47393D01*
X21864Y-47351D01*
X21878Y-47293D01*
X21892Y-47265D01*
X21921Y-47236D01*
X21964Y-47222D01*
X21992Y-47222D01*
X22035Y-47236D01*
X22050Y-47251D01*
X22164Y-47251D02*
X22178Y-47236D01*
X22207Y-47222D01*
X22278Y-47222D01*
X22307Y-47236D01*
X22321Y-47251D01*
X22335Y-47279D01*
X22335Y-47308D01*
X22321Y-47351D01*
X22150Y-47522D01*
X22335Y-47522D01*
G54D23*
X21085Y-47907D02*
X21314Y-47907D01*
X21200Y-48021D02*
X21200Y-47792D01*
G54D17*
G54D14*
X21250Y-44321D02*
X21250Y-44535D01*
X21235Y-44578D01*
X21207Y-44607D01*
X21164Y-44621D01*
X21135Y-44621D01*
X21392Y-44621D02*
X21392Y-44321D01*
X21507Y-44321D01*
X21535Y-44335D01*
X21550Y-44350D01*
X21564Y-44378D01*
X21564Y-44421D01*
X21550Y-44450D01*
X21535Y-44464D01*
X21507Y-44478D01*
X21392Y-44478D01*
X21678Y-44350D02*
X21692Y-44335D01*
X21721Y-44321D01*
X21792Y-44321D01*
X21821Y-44335D01*
X21835Y-44350D01*
X21850Y-44378D01*
X21850Y-44407D01*
X21835Y-44450D01*
X21664Y-44621D01*
X21850Y-44621D01*
G54D10*
X88975Y-37140D02*
X89031Y-37159D01*
X89125Y-37159D01*
X89162Y-37140D01*
X89181Y-37121D01*
X89200Y-37084D01*
X89200Y-37046D01*
X89181Y-37009D01*
X89162Y-36990D01*
X89125Y-36971D01*
X89050Y-36953D01*
X89012Y-36934D01*
X88993Y-36915D01*
X88975Y-36878D01*
X88975Y-36840D01*
X88993Y-36803D01*
X89012Y-36784D01*
X89050Y-36765D01*
X89143Y-36765D01*
X89200Y-36784D01*
X89331Y-36765D02*
X89425Y-37159D01*
X89500Y-36878D01*
X89574Y-37159D01*
X89668Y-36765D01*
X90024Y-37159D02*
X89799Y-37159D01*
X89912Y-37159D02*
X89912Y-36765D01*
X89874Y-36821D01*
X89837Y-36859D01*
X89799Y-36878D01*
X43225Y-36890D02*
X43281Y-36909D01*
X43375Y-36909D01*
X43412Y-36890D01*
X43431Y-36871D01*
X43450Y-36834D01*
X43450Y-36796D01*
X43431Y-36759D01*
X43412Y-36740D01*
X43375Y-36721D01*
X43300Y-36703D01*
X43262Y-36684D01*
X43243Y-36665D01*
X43225Y-36628D01*
X43225Y-36590D01*
X43243Y-36553D01*
X43262Y-36534D01*
X43300Y-36515D01*
X43393Y-36515D01*
X43450Y-36534D01*
X43581Y-36515D02*
X43675Y-36909D01*
X43750Y-36628D01*
X43824Y-36909D01*
X43918Y-36515D01*
X44124Y-36684D02*
X44087Y-36665D01*
X44068Y-36646D01*
X44049Y-36609D01*
X44049Y-36590D01*
X44068Y-36553D01*
X44087Y-36534D01*
X44124Y-36515D01*
X44199Y-36515D01*
X44237Y-36534D01*
X44256Y-36553D01*
X44274Y-36590D01*
X44274Y-36609D01*
X44256Y-36646D01*
X44237Y-36665D01*
X44199Y-36684D01*
X44124Y-36684D01*
X44087Y-36703D01*
X44068Y-36721D01*
X44049Y-36759D01*
X44049Y-36834D01*
X44068Y-36871D01*
X44087Y-36890D01*
X44124Y-36909D01*
X44199Y-36909D01*
X44237Y-36890D01*
X44256Y-36871D01*
X44274Y-36834D01*
X44274Y-36759D01*
X44256Y-36721D01*
X44237Y-36703D01*
X44199Y-36684D01*
X82225Y-37140D02*
X82281Y-37159D01*
X82375Y-37159D01*
X82412Y-37140D01*
X82431Y-37121D01*
X82450Y-37084D01*
X82450Y-37046D01*
X82431Y-37009D01*
X82412Y-36990D01*
X82375Y-36971D01*
X82300Y-36953D01*
X82262Y-36934D01*
X82243Y-36915D01*
X82225Y-36878D01*
X82225Y-36840D01*
X82243Y-36803D01*
X82262Y-36784D01*
X82300Y-36765D01*
X82393Y-36765D01*
X82450Y-36784D01*
X82581Y-36765D02*
X82675Y-37159D01*
X82750Y-36878D01*
X82824Y-37159D01*
X82918Y-36765D01*
X83049Y-36803D02*
X83068Y-36784D01*
X83106Y-36765D01*
X83199Y-36765D01*
X83237Y-36784D01*
X83256Y-36803D01*
X83274Y-36840D01*
X83274Y-36878D01*
X83256Y-36934D01*
X83031Y-37159D01*
X83274Y-37159D01*
X49975Y-36890D02*
X50031Y-36909D01*
X50125Y-36909D01*
X50162Y-36890D01*
X50181Y-36871D01*
X50200Y-36834D01*
X50200Y-36796D01*
X50181Y-36759D01*
X50162Y-36740D01*
X50125Y-36721D01*
X50050Y-36703D01*
X50012Y-36684D01*
X49993Y-36665D01*
X49975Y-36628D01*
X49975Y-36590D01*
X49993Y-36553D01*
X50012Y-36534D01*
X50050Y-36515D01*
X50143Y-36515D01*
X50200Y-36534D01*
X50331Y-36515D02*
X50425Y-36909D01*
X50500Y-36628D01*
X50574Y-36909D01*
X50668Y-36515D01*
X50781Y-36515D02*
X51043Y-36515D01*
X50874Y-36909D01*
X36975Y-36890D02*
X37031Y-36909D01*
X37125Y-36909D01*
X37162Y-36890D01*
X37181Y-36871D01*
X37200Y-36834D01*
X37200Y-36796D01*
X37181Y-36759D01*
X37162Y-36740D01*
X37125Y-36721D01*
X37050Y-36703D01*
X37012Y-36684D01*
X36993Y-36665D01*
X36975Y-36628D01*
X36975Y-36590D01*
X36993Y-36553D01*
X37012Y-36534D01*
X37050Y-36515D01*
X37143Y-36515D01*
X37200Y-36534D01*
X37331Y-36515D02*
X37425Y-36909D01*
X37500Y-36628D01*
X37574Y-36909D01*
X37668Y-36515D01*
X37837Y-36909D02*
X37912Y-36909D01*
X37949Y-36890D01*
X37968Y-36871D01*
X38006Y-36815D01*
X38024Y-36740D01*
X38024Y-36590D01*
X38006Y-36553D01*
X37987Y-36534D01*
X37949Y-36515D01*
X37874Y-36515D01*
X37837Y-36534D01*
X37818Y-36553D01*
X37799Y-36590D01*
X37799Y-36684D01*
X37818Y-36721D01*
X37837Y-36740D01*
X37874Y-36759D01*
X37949Y-36759D01*
X37987Y-36740D01*
X38006Y-36721D01*
X38024Y-36684D01*
X75475Y-37140D02*
X75531Y-37159D01*
X75625Y-37159D01*
X75662Y-37140D01*
X75681Y-37121D01*
X75700Y-37084D01*
X75700Y-37046D01*
X75681Y-37009D01*
X75662Y-36990D01*
X75625Y-36971D01*
X75550Y-36953D01*
X75512Y-36934D01*
X75493Y-36915D01*
X75475Y-36878D01*
X75475Y-36840D01*
X75493Y-36803D01*
X75512Y-36784D01*
X75550Y-36765D01*
X75643Y-36765D01*
X75700Y-36784D01*
X75831Y-36765D02*
X75925Y-37159D01*
X76000Y-36878D01*
X76074Y-37159D01*
X76168Y-36765D01*
X76281Y-36765D02*
X76524Y-36765D01*
X76393Y-36915D01*
X76449Y-36915D01*
X76487Y-36934D01*
X76506Y-36953D01*
X76524Y-36990D01*
X76524Y-37084D01*
X76506Y-37121D01*
X76487Y-37140D01*
X76449Y-37159D01*
X76337Y-37159D01*
X76299Y-37140D01*
X76281Y-37121D01*
X55725Y-36890D02*
X55781Y-36909D01*
X55875Y-36909D01*
X55912Y-36890D01*
X55931Y-36871D01*
X55950Y-36834D01*
X55950Y-36796D01*
X55931Y-36759D01*
X55912Y-36740D01*
X55875Y-36721D01*
X55800Y-36703D01*
X55762Y-36684D01*
X55743Y-36665D01*
X55725Y-36628D01*
X55725Y-36590D01*
X55743Y-36553D01*
X55762Y-36534D01*
X55800Y-36515D01*
X55893Y-36515D01*
X55950Y-36534D01*
X56081Y-36515D02*
X56175Y-36909D01*
X56250Y-36628D01*
X56324Y-36909D01*
X56418Y-36515D01*
X56737Y-36515D02*
X56662Y-36515D01*
X56624Y-36534D01*
X56606Y-36553D01*
X56568Y-36609D01*
X56549Y-36684D01*
X56549Y-36834D01*
X56568Y-36871D01*
X56587Y-36890D01*
X56624Y-36909D01*
X56699Y-36909D01*
X56737Y-36890D01*
X56756Y-36871D01*
X56774Y-36834D01*
X56774Y-36740D01*
X56756Y-36703D01*
X56737Y-36684D01*
X56699Y-36665D01*
X56624Y-36665D01*
X56587Y-36684D01*
X56568Y-36703D01*
X56549Y-36740D01*
X29787Y-37140D02*
X29843Y-37159D01*
X29937Y-37159D01*
X29975Y-37140D01*
X29993Y-37121D01*
X30012Y-37084D01*
X30012Y-37046D01*
X29993Y-37009D01*
X29975Y-36990D01*
X29937Y-36971D01*
X29862Y-36953D01*
X29825Y-36934D01*
X29806Y-36915D01*
X29787Y-36878D01*
X29787Y-36840D01*
X29806Y-36803D01*
X29825Y-36784D01*
X29862Y-36765D01*
X29956Y-36765D01*
X30012Y-36784D01*
X30143Y-36765D02*
X30237Y-37159D01*
X30312Y-36878D01*
X30387Y-37159D01*
X30481Y-36765D01*
X30837Y-37159D02*
X30612Y-37159D01*
X30724Y-37159D02*
X30724Y-36765D01*
X30687Y-36821D01*
X30649Y-36859D01*
X30612Y-36878D01*
X31081Y-36765D02*
X31118Y-36765D01*
X31156Y-36784D01*
X31174Y-36803D01*
X31193Y-36840D01*
X31212Y-36915D01*
X31212Y-37009D01*
X31193Y-37084D01*
X31174Y-37121D01*
X31156Y-37140D01*
X31118Y-37159D01*
X31081Y-37159D01*
X31043Y-37140D01*
X31024Y-37121D01*
X31006Y-37084D01*
X30987Y-37009D01*
X30987Y-36915D01*
X31006Y-36840D01*
X31024Y-36803D01*
X31043Y-36784D01*
X31081Y-36765D01*
X23287Y-37140D02*
X23343Y-37159D01*
X23437Y-37159D01*
X23475Y-37140D01*
X23493Y-37121D01*
X23512Y-37084D01*
X23512Y-37046D01*
X23493Y-37009D01*
X23475Y-36990D01*
X23437Y-36971D01*
X23362Y-36953D01*
X23325Y-36934D01*
X23306Y-36915D01*
X23287Y-36878D01*
X23287Y-36840D01*
X23306Y-36803D01*
X23325Y-36784D01*
X23362Y-36765D01*
X23456Y-36765D01*
X23512Y-36784D01*
X23643Y-36765D02*
X23737Y-37159D01*
X23812Y-36878D01*
X23887Y-37159D01*
X23981Y-36765D01*
X24337Y-37159D02*
X24112Y-37159D01*
X24224Y-37159D02*
X24224Y-36765D01*
X24187Y-36821D01*
X24149Y-36859D01*
X24112Y-36878D01*
X24712Y-37159D02*
X24487Y-37159D01*
X24599Y-37159D02*
X24599Y-36765D01*
X24562Y-36821D01*
X24524Y-36859D01*
X24487Y-36878D01*
X68975Y-37140D02*
X69031Y-37159D01*
X69125Y-37159D01*
X69162Y-37140D01*
X69181Y-37121D01*
X69200Y-37084D01*
X69200Y-37046D01*
X69181Y-37009D01*
X69162Y-36990D01*
X69125Y-36971D01*
X69050Y-36953D01*
X69012Y-36934D01*
X68993Y-36915D01*
X68975Y-36878D01*
X68975Y-36840D01*
X68993Y-36803D01*
X69012Y-36784D01*
X69050Y-36765D01*
X69143Y-36765D01*
X69200Y-36784D01*
X69331Y-36765D02*
X69425Y-37159D01*
X69500Y-36878D01*
X69574Y-37159D01*
X69668Y-36765D01*
X69987Y-36896D02*
X69987Y-37159D01*
X69893Y-36746D02*
X69799Y-37028D01*
X70043Y-37028D01*
X62225Y-37140D02*
X62281Y-37159D01*
X62375Y-37159D01*
X62412Y-37140D01*
X62431Y-37121D01*
X62450Y-37084D01*
X62450Y-37046D01*
X62431Y-37009D01*
X62412Y-36990D01*
X62375Y-36971D01*
X62300Y-36953D01*
X62262Y-36934D01*
X62243Y-36915D01*
X62225Y-36878D01*
X62225Y-36840D01*
X62243Y-36803D01*
X62262Y-36784D01*
X62300Y-36765D01*
X62393Y-36765D01*
X62450Y-36784D01*
X62581Y-36765D02*
X62675Y-37159D01*
X62750Y-36878D01*
X62824Y-37159D01*
X62918Y-36765D01*
X63256Y-36765D02*
X63068Y-36765D01*
X63049Y-36953D01*
X63068Y-36934D01*
X63106Y-36915D01*
X63199Y-36915D01*
X63237Y-36934D01*
X63256Y-36953D01*
X63274Y-36990D01*
X63274Y-37084D01*
X63256Y-37121D01*
X63237Y-37140D01*
X63199Y-37159D01*
X63106Y-37159D01*
X63068Y-37140D01*
X63049Y-37121D01*
X18037Y-37140D02*
X18093Y-37159D01*
X18187Y-37159D01*
X18225Y-37140D01*
X18243Y-37121D01*
X18262Y-37084D01*
X18262Y-37046D01*
X18243Y-37009D01*
X18225Y-36990D01*
X18187Y-36971D01*
X18112Y-36953D01*
X18075Y-36934D01*
X18056Y-36915D01*
X18037Y-36878D01*
X18037Y-36840D01*
X18056Y-36803D01*
X18075Y-36784D01*
X18112Y-36765D01*
X18206Y-36765D01*
X18262Y-36784D01*
X18393Y-36765D02*
X18487Y-37159D01*
X18562Y-36878D01*
X18637Y-37159D01*
X18731Y-36765D01*
X19087Y-37159D02*
X18862Y-37159D01*
X18974Y-37159D02*
X18974Y-36765D01*
X18937Y-36821D01*
X18899Y-36859D01*
X18862Y-36878D01*
X19237Y-36803D02*
X19256Y-36784D01*
X19293Y-36765D01*
X19387Y-36765D01*
X19424Y-36784D01*
X19443Y-36803D01*
X19462Y-36840D01*
X19462Y-36878D01*
X19443Y-36934D01*
X19218Y-37159D01*
X19462Y-37159D01*
G54D17*
X88200Y-47506D02*
X88219Y-47525D01*
X88238Y-47582D01*
X88238Y-47620D01*
X88219Y-47677D01*
X88181Y-47715D01*
X88143Y-47734D01*
X88066Y-47753D01*
X88009Y-47753D01*
X87933Y-47734D01*
X87895Y-47715D01*
X87857Y-47677D01*
X87838Y-47620D01*
X87838Y-47582D01*
X87857Y-47525D01*
X87876Y-47506D01*
X87838Y-47163D02*
X87838Y-47239D01*
X87857Y-47277D01*
X87876Y-47296D01*
X87933Y-47334D01*
X88009Y-47353D01*
X88162Y-47353D01*
X88200Y-47334D01*
X88219Y-47315D01*
X88238Y-47277D01*
X88238Y-47201D01*
X88219Y-47163D01*
X88200Y-47144D01*
X88162Y-47125D01*
X88066Y-47125D01*
X88028Y-47144D01*
X88009Y-47163D01*
X87990Y-47201D01*
X87990Y-47277D01*
X88009Y-47315D01*
X88028Y-47334D01*
X88066Y-47353D01*
X52195Y-53386D02*
X52176Y-53405D01*
X52119Y-53424D01*
X52081Y-53424D01*
X52024Y-53405D01*
X51986Y-53366D01*
X51966Y-53328D01*
X51947Y-53252D01*
X51947Y-53195D01*
X51966Y-53119D01*
X51986Y-53081D01*
X52024Y-53043D01*
X52081Y-53024D01*
X52119Y-53024D01*
X52176Y-53043D01*
X52195Y-53062D01*
X52328Y-53024D02*
X52576Y-53024D01*
X52443Y-53176D01*
X52500Y-53176D01*
X52538Y-53195D01*
X52557Y-53214D01*
X52576Y-53252D01*
X52576Y-53347D01*
X52557Y-53386D01*
X52538Y-53405D01*
X52500Y-53424D01*
X52386Y-53424D01*
X52347Y-53405D01*
X52328Y-53386D01*
G54D20*
X52115Y-57074D02*
X52101Y-57088D01*
X52058Y-57102D01*
X52029Y-57102D01*
X51986Y-57088D01*
X51958Y-57059D01*
X51943Y-57031D01*
X51929Y-56974D01*
X51929Y-56931D01*
X51943Y-56874D01*
X51958Y-56845D01*
X51986Y-56817D01*
X52029Y-56802D01*
X52058Y-56802D01*
X52101Y-56817D01*
X52115Y-56831D01*
X52258Y-57102D02*
X52315Y-57102D01*
X52343Y-57088D01*
X52358Y-57074D01*
X52386Y-57031D01*
X52401Y-56974D01*
X52401Y-56859D01*
X52386Y-56831D01*
X52372Y-56817D01*
X52343Y-56802D01*
X52286Y-56802D01*
X52258Y-56817D01*
X52243Y-56831D01*
X52229Y-56859D01*
X52229Y-56931D01*
X52243Y-56959D01*
X52258Y-56974D01*
X52286Y-56988D01*
X52343Y-56988D01*
X52372Y-56974D01*
X52386Y-56959D01*
X52401Y-56931D01*
G54D23*
X51151Y-57487D02*
X51379Y-57487D01*
X51265Y-57601D02*
X51265Y-57373D01*
G54D17*
G54D10*
X90987Y-45397D02*
X90968Y-45416D01*
X90912Y-45434D01*
X90874Y-45434D01*
X90818Y-45416D01*
X90780Y-45378D01*
X90762Y-45341D01*
X90743Y-45266D01*
X90743Y-45209D01*
X90762Y-45134D01*
X90780Y-45097D01*
X90818Y-45059D01*
X90874Y-45041D01*
X90912Y-45041D01*
X90968Y-45059D01*
X90987Y-45078D01*
X91362Y-45434D02*
X91137Y-45434D01*
X91249Y-45434D02*
X91249Y-45041D01*
X91212Y-45097D01*
X91174Y-45134D01*
X91137Y-45153D01*
X91493Y-45041D02*
X91736Y-45041D01*
X91605Y-45191D01*
X91661Y-45191D01*
X91699Y-45209D01*
X91718Y-45228D01*
X91736Y-45266D01*
X91736Y-45359D01*
X91718Y-45397D01*
X91699Y-45416D01*
X91661Y-45434D01*
X91549Y-45434D01*
X91511Y-45416D01*
X91493Y-45397D01*
X92271Y-46072D02*
X92571Y-46072D01*
X89909Y-46072D02*
X90209Y-46072D01*
X90059Y-46222D02*
X90059Y-45922D01*
X91174Y-47464D02*
X91155Y-47483D01*
X91099Y-47501D01*
X91062Y-47501D01*
X91005Y-47483D01*
X90968Y-47445D01*
X90949Y-47408D01*
X90930Y-47333D01*
X90930Y-47276D01*
X90949Y-47201D01*
X90968Y-47164D01*
X91005Y-47126D01*
X91062Y-47108D01*
X91099Y-47108D01*
X91155Y-47126D01*
X91174Y-47145D01*
X91305Y-47108D02*
X91568Y-47108D01*
X91399Y-47501D01*
X92271Y-49320D02*
X92571Y-49320D01*
X89909Y-49320D02*
X90209Y-49320D01*
X90059Y-49470D02*
X90059Y-49170D01*
G54D17*
X75672Y-33483D02*
X75410Y-33650D01*
X75672Y-33769D02*
X75122Y-33769D01*
X75122Y-33578D01*
X75148Y-33530D01*
X75175Y-33507D01*
X75227Y-33483D01*
X75305Y-33483D01*
X75358Y-33507D01*
X75384Y-33530D01*
X75410Y-33578D01*
X75410Y-33769D01*
X75122Y-33316D02*
X75122Y-33007D01*
X75332Y-33173D01*
X75332Y-33102D01*
X75358Y-33054D01*
X75384Y-33030D01*
X75436Y-33007D01*
X75567Y-33007D01*
X75620Y-33030D01*
X75646Y-33054D01*
X75672Y-33102D01*
X75672Y-33245D01*
X75646Y-33292D01*
X75620Y-33316D01*
G54D10*
X23424Y-25855D02*
X23480Y-25874D01*
X23499Y-25892D01*
X23517Y-25930D01*
X23517Y-25986D01*
X23499Y-26024D01*
X23480Y-26042D01*
X23442Y-26061D01*
X23292Y-26061D01*
X23292Y-25668D01*
X23424Y-25668D01*
X23461Y-25686D01*
X23480Y-25705D01*
X23499Y-25743D01*
X23499Y-25780D01*
X23480Y-25817D01*
X23461Y-25836D01*
X23424Y-25855D01*
X23292Y-25855D01*
X22533Y-26022D02*
X22402Y-25834D01*
X22308Y-26022D02*
X22308Y-25628D01*
X22458Y-25628D01*
X22496Y-25647D01*
X22514Y-25666D01*
X22533Y-25703D01*
X22533Y-25759D01*
X22514Y-25797D01*
X22496Y-25816D01*
X22458Y-25834D01*
X22308Y-25834D01*
X21530Y-25686D02*
X21493Y-25668D01*
X21436Y-25668D01*
X21380Y-25686D01*
X21343Y-25724D01*
X21324Y-25761D01*
X21305Y-25836D01*
X21305Y-25892D01*
X21324Y-25967D01*
X21343Y-26005D01*
X21380Y-26042D01*
X21436Y-26061D01*
X21474Y-26061D01*
X21530Y-26042D01*
X21549Y-26024D01*
X21549Y-25892D01*
X21474Y-25892D01*
X20334Y-26970D02*
X20334Y-26671D01*
X20484Y-26820D02*
X20184Y-26820D01*
X20484Y-26277D02*
X20484Y-26502D01*
X20484Y-26389D02*
X20090Y-26389D01*
X20147Y-26427D01*
X20184Y-26464D01*
X20203Y-26502D01*
X20128Y-26127D02*
X20109Y-26108D01*
X20090Y-26071D01*
X20090Y-25977D01*
X20109Y-25939D01*
X20128Y-25921D01*
X20165Y-25902D01*
X20203Y-25902D01*
X20259Y-25921D01*
X20484Y-26146D01*
X20484Y-25902D01*
X20222Y-25771D02*
X20484Y-25677D01*
X20222Y-25583D01*
X29324Y-25855D02*
X29380Y-25874D01*
X29399Y-25892D01*
X29417Y-25930D01*
X29417Y-25986D01*
X29399Y-26024D01*
X29380Y-26042D01*
X29342Y-26061D01*
X29192Y-26061D01*
X29192Y-25668D01*
X29324Y-25668D01*
X29361Y-25686D01*
X29380Y-25705D01*
X29399Y-25743D01*
X29399Y-25780D01*
X29380Y-25817D01*
X29361Y-25836D01*
X29324Y-25855D01*
X29192Y-25855D01*
X28433Y-26022D02*
X28302Y-25834D01*
X28208Y-26022D02*
X28208Y-25628D01*
X28358Y-25628D01*
X28396Y-25647D01*
X28414Y-25666D01*
X28433Y-25703D01*
X28433Y-25759D01*
X28414Y-25797D01*
X28396Y-25816D01*
X28358Y-25834D01*
X28208Y-25834D01*
X27430Y-25686D02*
X27393Y-25668D01*
X27336Y-25668D01*
X27280Y-25686D01*
X27243Y-25724D01*
X27224Y-25761D01*
X27205Y-25836D01*
X27205Y-25892D01*
X27224Y-25967D01*
X27243Y-26005D01*
X27280Y-26042D01*
X27336Y-26061D01*
X27374Y-26061D01*
X27430Y-26042D01*
X27449Y-26024D01*
X27449Y-25892D01*
X27374Y-25892D01*
X26234Y-26970D02*
X26234Y-26671D01*
X26384Y-26820D02*
X26084Y-26820D01*
X26384Y-26277D02*
X26384Y-26502D01*
X26384Y-26389D02*
X25990Y-26389D01*
X26047Y-26427D01*
X26084Y-26464D01*
X26103Y-26502D01*
X26028Y-26127D02*
X26009Y-26108D01*
X25990Y-26071D01*
X25990Y-25977D01*
X26009Y-25939D01*
X26028Y-25921D01*
X26065Y-25902D01*
X26103Y-25902D01*
X26159Y-25921D01*
X26384Y-26146D01*
X26384Y-25902D01*
X26122Y-25771D02*
X26384Y-25677D01*
X26122Y-25583D01*
X43424Y-25655D02*
X43480Y-25674D01*
X43499Y-25692D01*
X43517Y-25730D01*
X43517Y-25786D01*
X43499Y-25824D01*
X43480Y-25842D01*
X43442Y-25861D01*
X43292Y-25861D01*
X43292Y-25468D01*
X43424Y-25468D01*
X43461Y-25486D01*
X43480Y-25505D01*
X43499Y-25543D01*
X43499Y-25580D01*
X43480Y-25617D01*
X43461Y-25636D01*
X43424Y-25655D01*
X43292Y-25655D01*
X42533Y-25822D02*
X42402Y-25634D01*
X42308Y-25822D02*
X42308Y-25428D01*
X42458Y-25428D01*
X42496Y-25447D01*
X42514Y-25466D01*
X42533Y-25503D01*
X42533Y-25559D01*
X42514Y-25597D01*
X42496Y-25616D01*
X42458Y-25634D01*
X42308Y-25634D01*
X41530Y-25486D02*
X41493Y-25468D01*
X41436Y-25468D01*
X41380Y-25486D01*
X41343Y-25524D01*
X41324Y-25561D01*
X41305Y-25636D01*
X41305Y-25692D01*
X41324Y-25767D01*
X41343Y-25805D01*
X41380Y-25842D01*
X41436Y-25861D01*
X41474Y-25861D01*
X41530Y-25842D01*
X41549Y-25824D01*
X41549Y-25692D01*
X41474Y-25692D01*
X40334Y-26770D02*
X40334Y-26471D01*
X40484Y-26620D02*
X40184Y-26620D01*
X40484Y-26077D02*
X40484Y-26302D01*
X40484Y-26189D02*
X40090Y-26189D01*
X40147Y-26227D01*
X40184Y-26264D01*
X40203Y-26302D01*
X40128Y-25927D02*
X40109Y-25908D01*
X40090Y-25871D01*
X40090Y-25777D01*
X40109Y-25739D01*
X40128Y-25721D01*
X40165Y-25702D01*
X40203Y-25702D01*
X40259Y-25721D01*
X40484Y-25946D01*
X40484Y-25702D01*
X40222Y-25571D02*
X40484Y-25477D01*
X40222Y-25383D01*
X49124Y-25655D02*
X49180Y-25674D01*
X49199Y-25692D01*
X49217Y-25730D01*
X49217Y-25786D01*
X49199Y-25824D01*
X49180Y-25842D01*
X49142Y-25861D01*
X48992Y-25861D01*
X48992Y-25468D01*
X49124Y-25468D01*
X49161Y-25486D01*
X49180Y-25505D01*
X49199Y-25543D01*
X49199Y-25580D01*
X49180Y-25617D01*
X49161Y-25636D01*
X49124Y-25655D01*
X48992Y-25655D01*
X48233Y-25822D02*
X48102Y-25634D01*
X48008Y-25822D02*
X48008Y-25428D01*
X48158Y-25428D01*
X48196Y-25447D01*
X48214Y-25466D01*
X48233Y-25503D01*
X48233Y-25559D01*
X48214Y-25597D01*
X48196Y-25616D01*
X48158Y-25634D01*
X48008Y-25634D01*
X47230Y-25486D02*
X47193Y-25468D01*
X47136Y-25468D01*
X47080Y-25486D01*
X47043Y-25524D01*
X47024Y-25561D01*
X47005Y-25636D01*
X47005Y-25692D01*
X47024Y-25767D01*
X47043Y-25805D01*
X47080Y-25842D01*
X47136Y-25861D01*
X47174Y-25861D01*
X47230Y-25842D01*
X47249Y-25824D01*
X47249Y-25692D01*
X47174Y-25692D01*
X46034Y-26770D02*
X46034Y-26471D01*
X46184Y-26620D02*
X45884Y-26620D01*
X46184Y-26077D02*
X46184Y-26302D01*
X46184Y-26189D02*
X45790Y-26189D01*
X45847Y-26227D01*
X45884Y-26264D01*
X45903Y-26302D01*
X45828Y-25927D02*
X45809Y-25908D01*
X45790Y-25871D01*
X45790Y-25777D01*
X45809Y-25739D01*
X45828Y-25721D01*
X45865Y-25702D01*
X45903Y-25702D01*
X45959Y-25721D01*
X46184Y-25946D01*
X46184Y-25702D01*
X45922Y-25571D02*
X46184Y-25477D01*
X45922Y-25383D01*
X61924Y-25655D02*
X61980Y-25674D01*
X61999Y-25692D01*
X62017Y-25730D01*
X62017Y-25786D01*
X61999Y-25824D01*
X61980Y-25842D01*
X61942Y-25861D01*
X61792Y-25861D01*
X61792Y-25468D01*
X61924Y-25468D01*
X61961Y-25486D01*
X61980Y-25505D01*
X61999Y-25543D01*
X61999Y-25580D01*
X61980Y-25617D01*
X61961Y-25636D01*
X61924Y-25655D01*
X61792Y-25655D01*
X61033Y-25822D02*
X60902Y-25634D01*
X60808Y-25822D02*
X60808Y-25428D01*
X60958Y-25428D01*
X60996Y-25447D01*
X61014Y-25466D01*
X61033Y-25503D01*
X61033Y-25559D01*
X61014Y-25597D01*
X60996Y-25616D01*
X60958Y-25634D01*
X60808Y-25634D01*
X60030Y-25486D02*
X59993Y-25468D01*
X59936Y-25468D01*
X59880Y-25486D01*
X59843Y-25524D01*
X59824Y-25561D01*
X59805Y-25636D01*
X59805Y-25692D01*
X59824Y-25767D01*
X59843Y-25805D01*
X59880Y-25842D01*
X59936Y-25861D01*
X59974Y-25861D01*
X60030Y-25842D01*
X60049Y-25824D01*
X60049Y-25692D01*
X59974Y-25692D01*
X58834Y-26770D02*
X58834Y-26471D01*
X58984Y-26620D02*
X58684Y-26620D01*
X58984Y-26077D02*
X58984Y-26302D01*
X58984Y-26189D02*
X58590Y-26189D01*
X58647Y-26227D01*
X58684Y-26264D01*
X58703Y-26302D01*
X58628Y-25927D02*
X58609Y-25908D01*
X58590Y-25871D01*
X58590Y-25777D01*
X58609Y-25739D01*
X58628Y-25721D01*
X58665Y-25702D01*
X58703Y-25702D01*
X58759Y-25721D01*
X58984Y-25946D01*
X58984Y-25702D01*
X58722Y-25571D02*
X58984Y-25477D01*
X58722Y-25383D01*
X68524Y-25655D02*
X68580Y-25674D01*
X68599Y-25692D01*
X68617Y-25730D01*
X68617Y-25786D01*
X68599Y-25824D01*
X68580Y-25842D01*
X68542Y-25861D01*
X68392Y-25861D01*
X68392Y-25468D01*
X68524Y-25468D01*
X68561Y-25486D01*
X68580Y-25505D01*
X68599Y-25543D01*
X68599Y-25580D01*
X68580Y-25617D01*
X68561Y-25636D01*
X68524Y-25655D01*
X68392Y-25655D01*
X67633Y-25822D02*
X67502Y-25634D01*
X67408Y-25822D02*
X67408Y-25428D01*
X67558Y-25428D01*
X67596Y-25447D01*
X67614Y-25466D01*
X67633Y-25503D01*
X67633Y-25559D01*
X67614Y-25597D01*
X67596Y-25616D01*
X67558Y-25634D01*
X67408Y-25634D01*
X66630Y-25486D02*
X66593Y-25468D01*
X66536Y-25468D01*
X66480Y-25486D01*
X66443Y-25524D01*
X66424Y-25561D01*
X66405Y-25636D01*
X66405Y-25692D01*
X66424Y-25767D01*
X66443Y-25805D01*
X66480Y-25842D01*
X66536Y-25861D01*
X66574Y-25861D01*
X66630Y-25842D01*
X66649Y-25824D01*
X66649Y-25692D01*
X66574Y-25692D01*
X65434Y-26770D02*
X65434Y-26471D01*
X65584Y-26620D02*
X65284Y-26620D01*
X65584Y-26077D02*
X65584Y-26302D01*
X65584Y-26189D02*
X65190Y-26189D01*
X65247Y-26227D01*
X65284Y-26264D01*
X65303Y-26302D01*
X65228Y-25927D02*
X65209Y-25908D01*
X65190Y-25871D01*
X65190Y-25777D01*
X65209Y-25739D01*
X65228Y-25721D01*
X65265Y-25702D01*
X65303Y-25702D01*
X65359Y-25721D01*
X65584Y-25946D01*
X65584Y-25702D01*
X65322Y-25571D02*
X65584Y-25477D01*
X65322Y-25383D01*
X80924Y-25855D02*
X80980Y-25874D01*
X80999Y-25892D01*
X81017Y-25930D01*
X81017Y-25986D01*
X80999Y-26024D01*
X80980Y-26042D01*
X80942Y-26061D01*
X80792Y-26061D01*
X80792Y-25668D01*
X80924Y-25668D01*
X80961Y-25686D01*
X80980Y-25705D01*
X80999Y-25743D01*
X80999Y-25780D01*
X80980Y-25817D01*
X80961Y-25836D01*
X80924Y-25855D01*
X80792Y-25855D01*
X80033Y-26022D02*
X79902Y-25834D01*
X79808Y-26022D02*
X79808Y-25628D01*
X79958Y-25628D01*
X79996Y-25647D01*
X80014Y-25666D01*
X80033Y-25703D01*
X80033Y-25759D01*
X80014Y-25797D01*
X79996Y-25816D01*
X79958Y-25834D01*
X79808Y-25834D01*
X79030Y-25686D02*
X78993Y-25668D01*
X78936Y-25668D01*
X78880Y-25686D01*
X78843Y-25724D01*
X78824Y-25761D01*
X78805Y-25836D01*
X78805Y-25892D01*
X78824Y-25967D01*
X78843Y-26005D01*
X78880Y-26042D01*
X78936Y-26061D01*
X78974Y-26061D01*
X79030Y-26042D01*
X79049Y-26024D01*
X79049Y-25892D01*
X78974Y-25892D01*
X77834Y-26970D02*
X77834Y-26671D01*
X77984Y-26820D02*
X77684Y-26820D01*
X77984Y-26277D02*
X77984Y-26502D01*
X77984Y-26389D02*
X77590Y-26389D01*
X77647Y-26427D01*
X77684Y-26464D01*
X77703Y-26502D01*
X77628Y-26127D02*
X77609Y-26108D01*
X77590Y-26071D01*
X77590Y-25977D01*
X77609Y-25939D01*
X77628Y-25921D01*
X77665Y-25902D01*
X77703Y-25902D01*
X77759Y-25921D01*
X77984Y-26146D01*
X77984Y-25902D01*
X77722Y-25771D02*
X77984Y-25677D01*
X77722Y-25583D01*
X87124Y-25855D02*
X87180Y-25874D01*
X87199Y-25892D01*
X87217Y-25930D01*
X87217Y-25986D01*
X87199Y-26024D01*
X87180Y-26042D01*
X87142Y-26061D01*
X86992Y-26061D01*
X86992Y-25668D01*
X87124Y-25668D01*
X87161Y-25686D01*
X87180Y-25705D01*
X87199Y-25743D01*
X87199Y-25780D01*
X87180Y-25817D01*
X87161Y-25836D01*
X87124Y-25855D01*
X86992Y-25855D01*
X86233Y-26022D02*
X86102Y-25834D01*
X86008Y-26022D02*
X86008Y-25628D01*
X86158Y-25628D01*
X86196Y-25647D01*
X86214Y-25666D01*
X86233Y-25703D01*
X86233Y-25759D01*
X86214Y-25797D01*
X86196Y-25816D01*
X86158Y-25834D01*
X86008Y-25834D01*
X85230Y-25686D02*
X85193Y-25668D01*
X85136Y-25668D01*
X85080Y-25686D01*
X85043Y-25724D01*
X85024Y-25761D01*
X85005Y-25836D01*
X85005Y-25892D01*
X85024Y-25967D01*
X85043Y-26005D01*
X85080Y-26042D01*
X85136Y-26061D01*
X85174Y-26061D01*
X85230Y-26042D01*
X85249Y-26024D01*
X85249Y-25892D01*
X85174Y-25892D01*
X84034Y-26970D02*
X84034Y-26671D01*
X84184Y-26820D02*
X83884Y-26820D01*
X84184Y-26277D02*
X84184Y-26502D01*
X84184Y-26389D02*
X83790Y-26389D01*
X83847Y-26427D01*
X83884Y-26464D01*
X83903Y-26502D01*
X83828Y-26127D02*
X83809Y-26108D01*
X83790Y-26071D01*
X83790Y-25977D01*
X83809Y-25939D01*
X83828Y-25921D01*
X83865Y-25902D01*
X83903Y-25902D01*
X83959Y-25921D01*
X84184Y-26146D01*
X84184Y-25902D01*
X83922Y-25771D02*
X84184Y-25677D01*
X83922Y-25583D01*
G54D22*
X44342Y-43205D02*
X44342Y-43691D01*
X44363Y-43748D01*
X44385Y-43777D01*
X44427Y-43805D01*
X44513Y-43805D01*
X44556Y-43777D01*
X44577Y-43748D01*
X44599Y-43691D01*
X44599Y-43205D01*
X45006Y-43405D02*
X45006Y-43805D01*
X44899Y-43177D02*
X44792Y-43605D01*
X45070Y-43605D01*
G54D15*
G54D22*
X34893Y-43205D02*
X34893Y-43691D01*
X34914Y-43748D01*
X34936Y-43777D01*
X34979Y-43805D01*
X35064Y-43805D01*
X35107Y-43777D01*
X35129Y-43748D01*
X35150Y-43691D01*
X35150Y-43205D01*
X35579Y-43205D02*
X35364Y-43205D01*
X35343Y-43491D01*
X35364Y-43462D01*
X35407Y-43434D01*
X35514Y-43434D01*
X35557Y-43462D01*
X35579Y-43491D01*
X35600Y-43548D01*
X35600Y-43691D01*
X35579Y-43748D01*
X35557Y-43777D01*
X35514Y-43805D01*
X35407Y-43805D01*
X35364Y-43777D01*
X35343Y-43748D01*
G54D15*
G54D17*
X22248Y-53595D02*
X21848Y-53595D01*
X21848Y-53500D01*
X21867Y-53443D01*
X21905Y-53405D01*
X21943Y-53386D01*
X22019Y-53367D01*
X22077Y-53367D01*
X22153Y-53386D01*
X22191Y-53405D01*
X22229Y-53443D01*
X22248Y-53500D01*
X22248Y-53595D01*
X21886Y-53214D02*
X21867Y-53195D01*
X21848Y-53157D01*
X21848Y-53062D01*
X21867Y-53024D01*
X21886Y-53005D01*
X21924Y-52986D01*
X21962Y-52986D01*
X22019Y-53005D01*
X22248Y-53234D01*
X22248Y-52986D01*
X21848Y-52624D02*
X21848Y-52814D01*
X22038Y-52834D01*
X22019Y-52814D01*
X22000Y-52776D01*
X22000Y-52681D01*
X22019Y-52643D01*
X22038Y-52624D01*
X22077Y-52605D01*
X22172Y-52605D01*
X22210Y-52624D01*
X22229Y-52643D01*
X22248Y-52681D01*
X22248Y-52776D01*
X22229Y-52814D01*
X22210Y-52834D01*
G54D14*
X26629Y-44467D02*
X26800Y-44467D01*
X26715Y-44767D02*
X26715Y-44467D01*
X26900Y-44767D02*
X26900Y-44467D01*
X27015Y-44467D01*
X27043Y-44481D01*
X27057Y-44495D01*
X27072Y-44524D01*
X27072Y-44567D01*
X27057Y-44595D01*
X27043Y-44609D01*
X27015Y-44624D01*
X26900Y-44624D01*
X27186Y-44495D02*
X27200Y-44481D01*
X27229Y-44467D01*
X27300Y-44467D01*
X27329Y-44481D01*
X27343Y-44495D01*
X27357Y-44524D01*
X27357Y-44552D01*
X27343Y-44595D01*
X27172Y-44767D01*
X27357Y-44767D01*
X55015Y-43837D02*
X55186Y-43837D01*
X55100Y-44137D02*
X55100Y-43837D01*
X55286Y-44137D02*
X55286Y-43837D01*
X55400Y-43837D01*
X55429Y-43851D01*
X55443Y-43865D01*
X55457Y-43894D01*
X55457Y-43937D01*
X55443Y-43965D01*
X55429Y-43980D01*
X55400Y-43994D01*
X55286Y-43994D01*
X55557Y-43837D02*
X55743Y-43837D01*
X55643Y-43951D01*
X55686Y-43951D01*
X55715Y-43965D01*
X55729Y-43980D01*
X55743Y-44008D01*
X55743Y-44080D01*
X55729Y-44108D01*
X55715Y-44122D01*
X55686Y-44137D01*
X55600Y-44137D01*
X55572Y-44122D01*
X55557Y-44108D01*
X62631Y-41011D02*
X62859Y-41011D01*
X62745Y-41411D02*
X62745Y-41011D01*
X62992Y-41411D02*
X62992Y-41011D01*
X63145Y-41011D01*
X63183Y-41030D01*
X63202Y-41050D01*
X63221Y-41088D01*
X63221Y-41145D01*
X63202Y-41183D01*
X63183Y-41202D01*
X63145Y-41221D01*
X62992Y-41221D01*
X63602Y-41411D02*
X63373Y-41411D01*
X63488Y-41411D02*
X63488Y-41011D01*
X63450Y-41069D01*
X63412Y-41107D01*
X63373Y-41126D01*
G54D20*
X48670Y-50578D02*
X48656Y-50592D01*
X48613Y-50606D01*
X48584Y-50606D01*
X48541Y-50592D01*
X48513Y-50563D01*
X48499Y-50535D01*
X48484Y-50478D01*
X48484Y-50435D01*
X48499Y-50378D01*
X48513Y-50349D01*
X48541Y-50320D01*
X48584Y-50306D01*
X48613Y-50306D01*
X48656Y-50320D01*
X48670Y-50335D01*
X48941Y-50306D02*
X48799Y-50306D01*
X48784Y-50449D01*
X48799Y-50435D01*
X48827Y-50420D01*
X48899Y-50420D01*
X48927Y-50435D01*
X48941Y-50449D01*
X48956Y-50478D01*
X48956Y-50549D01*
X48941Y-50578D01*
X48927Y-50592D01*
X48899Y-50606D01*
X48827Y-50606D01*
X48799Y-50592D01*
X48784Y-50578D01*
G54D23*
X47706Y-50991D02*
X47934Y-50991D01*
X47820Y-51105D02*
X47820Y-50877D01*
G54D17*
G54D20*
X48670Y-52645D02*
X48656Y-52659D01*
X48613Y-52673D01*
X48584Y-52673D01*
X48541Y-52659D01*
X48513Y-52630D01*
X48499Y-52602D01*
X48484Y-52545D01*
X48484Y-52502D01*
X48499Y-52445D01*
X48513Y-52416D01*
X48541Y-52387D01*
X48584Y-52373D01*
X48613Y-52373D01*
X48656Y-52387D01*
X48670Y-52402D01*
X48927Y-52473D02*
X48927Y-52673D01*
X48856Y-52359D02*
X48784Y-52573D01*
X48970Y-52573D01*
G54D23*
X47706Y-53058D02*
X47934Y-53058D01*
X47820Y-53172D02*
X47820Y-52944D01*
G54D17*
G54D21*
X77228Y-33821D02*
X77228Y-33521D01*
X77300Y-33521D01*
X77342Y-33535D01*
X77371Y-33564D01*
X77385Y-33592D01*
X77400Y-33650D01*
X77400Y-33692D01*
X77385Y-33750D01*
X77371Y-33778D01*
X77342Y-33807D01*
X77300Y-33821D01*
X77228Y-33821D01*
X77542Y-33821D02*
X77600Y-33821D01*
X77628Y-33807D01*
X77642Y-33792D01*
X77671Y-33750D01*
X77685Y-33692D01*
X77685Y-33578D01*
X77671Y-33550D01*
X77657Y-33535D01*
X77628Y-33521D01*
X77571Y-33521D01*
X77542Y-33535D01*
X77528Y-33550D01*
X77514Y-33578D01*
X77514Y-33650D01*
X77528Y-33678D01*
X77542Y-33692D01*
X77571Y-33707D01*
X77628Y-33707D01*
X77657Y-33692D01*
X77671Y-33678D01*
X77685Y-33650D01*
G54D24*
X35008Y-56385D02*
X35008Y-56937D01*
X35028Y-57002D01*
X35049Y-57034D01*
X35090Y-57066D01*
X35171Y-57066D01*
X35212Y-57034D01*
X35232Y-57002D01*
X35253Y-56937D01*
X35253Y-56385D01*
X35681Y-57066D02*
X35436Y-57066D01*
X35558Y-57066D02*
X35558Y-56385D01*
X35518Y-56483D01*
X35477Y-56548D01*
X35436Y-56580D01*
G54D15*
G54D10*
X41538Y-58869D02*
X41556Y-58813D01*
X41556Y-58719D01*
X41538Y-58682D01*
X41519Y-58663D01*
X41482Y-58644D01*
X41444Y-58644D01*
X41407Y-58663D01*
X41388Y-58682D01*
X41369Y-58719D01*
X41350Y-58794D01*
X41332Y-58832D01*
X41313Y-58850D01*
X41275Y-58869D01*
X41238Y-58869D01*
X41200Y-58850D01*
X41182Y-58832D01*
X41163Y-58794D01*
X41163Y-58700D01*
X41182Y-58644D01*
X41163Y-58532D02*
X41163Y-58307D01*
X41556Y-58419D02*
X41163Y-58419D01*
X41444Y-58194D02*
X41444Y-58007D01*
X41556Y-58232D02*
X41163Y-58100D01*
X41556Y-57969D01*
X41163Y-57894D02*
X41163Y-57669D01*
X41556Y-57782D02*
X41163Y-57782D01*
X41350Y-57538D02*
X41350Y-57407D01*
X41556Y-57350D02*
X41556Y-57538D01*
X41163Y-57538D01*
X41163Y-57350D01*
X40572Y-57703D02*
X40385Y-57834D01*
X40572Y-57928D02*
X40179Y-57928D01*
X40179Y-57778D01*
X40197Y-57740D01*
X40216Y-57722D01*
X40254Y-57703D01*
X40310Y-57703D01*
X40347Y-57722D01*
X40366Y-57740D01*
X40385Y-57778D01*
X40385Y-57928D01*
X40179Y-57572D02*
X40572Y-57309D01*
X40179Y-57309D02*
X40572Y-57572D01*
X39155Y-57977D02*
X39155Y-57752D01*
X39549Y-57864D02*
X39155Y-57864D01*
X39155Y-57658D02*
X39549Y-57395D01*
X39155Y-57395D02*
X39549Y-57658D01*
X38189Y-58173D02*
X38171Y-58211D01*
X38171Y-58267D01*
X38189Y-58323D01*
X38227Y-58361D01*
X38264Y-58380D01*
X38339Y-58398D01*
X38396Y-58398D01*
X38471Y-58380D01*
X38508Y-58361D01*
X38546Y-58323D01*
X38564Y-58267D01*
X38564Y-58230D01*
X38546Y-58173D01*
X38527Y-58155D01*
X38396Y-58155D01*
X38396Y-58230D01*
X38564Y-57986D02*
X38171Y-57986D01*
X38564Y-57761D01*
X38171Y-57761D01*
X38564Y-57574D02*
X38171Y-57574D01*
X38171Y-57480D01*
X38189Y-57424D01*
X38227Y-57386D01*
X38264Y-57367D01*
X38339Y-57349D01*
X38396Y-57349D01*
X38471Y-57367D01*
X38508Y-57386D01*
X38546Y-57424D01*
X38564Y-57480D01*
X38564Y-57574D01*
X37068Y-58342D02*
X37462Y-58211D01*
X37068Y-58080D01*
X37443Y-57780D02*
X37462Y-57817D01*
X37462Y-57892D01*
X37443Y-57930D01*
X37425Y-57949D01*
X37387Y-57967D01*
X37275Y-57967D01*
X37237Y-57949D01*
X37218Y-57930D01*
X37200Y-57892D01*
X37200Y-57817D01*
X37218Y-57780D01*
X37443Y-57442D02*
X37462Y-57480D01*
X37462Y-57555D01*
X37443Y-57592D01*
X37425Y-57611D01*
X37387Y-57630D01*
X37275Y-57630D01*
X37237Y-57611D01*
X37218Y-57592D01*
X37200Y-57555D01*
X37200Y-57480D01*
X37218Y-57442D01*
X36311Y-57900D02*
X36311Y-57769D01*
X36517Y-57712D02*
X36517Y-57900D01*
X36123Y-57900D01*
X36123Y-57712D01*
X36255Y-57544D02*
X36517Y-57544D01*
X36292Y-57544D02*
X36273Y-57525D01*
X36255Y-57487D01*
X36255Y-57431D01*
X36273Y-57394D01*
X36311Y-57375D01*
X36517Y-57375D01*
G54D22*
X71901Y-53914D02*
X71901Y-54480D01*
X71922Y-54547D01*
X71944Y-54580D01*
X71986Y-54614D01*
X72072Y-54614D01*
X72115Y-54580D01*
X72136Y-54547D01*
X72158Y-54480D01*
X72158Y-53914D01*
X72565Y-53914D02*
X72479Y-53914D01*
X72436Y-53947D01*
X72415Y-53980D01*
X72372Y-54080D01*
X72351Y-54214D01*
X72351Y-54480D01*
X72372Y-54547D01*
X72394Y-54580D01*
X72436Y-54614D01*
X72522Y-54614D01*
X72565Y-54580D01*
X72586Y-54547D01*
X72608Y-54480D01*
X72608Y-54314D01*
X72586Y-54247D01*
X72565Y-54214D01*
X72522Y-54180D01*
X72436Y-54180D01*
X72394Y-54214D01*
X72372Y-54247D01*
X72351Y-54314D01*
G54D15*
G54D22*
X80168Y-45252D02*
X80168Y-45819D01*
X80190Y-45885D01*
X80211Y-45919D01*
X80254Y-45952D01*
X80340Y-45952D01*
X80383Y-45919D01*
X80404Y-45885D01*
X80426Y-45819D01*
X80426Y-45252D01*
X80597Y-45252D02*
X80876Y-45252D01*
X80726Y-45519D01*
X80790Y-45519D01*
X80833Y-45552D01*
X80854Y-45585D01*
X80876Y-45652D01*
X80876Y-45819D01*
X80854Y-45885D01*
X80833Y-45919D01*
X80790Y-45952D01*
X80661Y-45952D01*
X80618Y-45919D01*
X80597Y-45885D01*
G54D15*
G54D10*
X73172Y-48448D02*
X73153Y-48467D01*
X73097Y-48486D01*
X73059Y-48486D01*
X73003Y-48467D01*
X72965Y-48429D01*
X72947Y-48392D01*
X72928Y-48317D01*
X72928Y-48261D01*
X72947Y-48186D01*
X72965Y-48148D01*
X73003Y-48111D01*
X73059Y-48092D01*
X73097Y-48092D01*
X73153Y-48111D01*
X73172Y-48129D01*
X73547Y-48486D02*
X73322Y-48486D01*
X73434Y-48486D02*
X73434Y-48092D01*
X73397Y-48148D01*
X73359Y-48186D01*
X73322Y-48204D01*
X73678Y-48092D02*
X73940Y-48092D01*
X73772Y-48486D01*
X72094Y-47450D02*
X72394Y-47450D01*
X74456Y-47450D02*
X74756Y-47450D01*
X74606Y-47600D02*
X74606Y-47300D01*
X74925Y-52221D02*
X74943Y-52240D01*
X74962Y-52296D01*
X74962Y-52334D01*
X74943Y-52390D01*
X74906Y-52427D01*
X74868Y-52446D01*
X74793Y-52465D01*
X74737Y-52465D01*
X74662Y-52446D01*
X74625Y-52427D01*
X74587Y-52390D01*
X74568Y-52334D01*
X74568Y-52296D01*
X74587Y-52240D01*
X74606Y-52221D01*
X74962Y-51846D02*
X74962Y-52071D01*
X74962Y-51959D02*
X74568Y-51959D01*
X74625Y-51996D01*
X74662Y-52034D01*
X74681Y-52071D01*
X74568Y-51490D02*
X74568Y-51677D01*
X74756Y-51696D01*
X74737Y-51677D01*
X74718Y-51640D01*
X74718Y-51546D01*
X74737Y-51509D01*
X74756Y-51490D01*
X74793Y-51471D01*
X74887Y-51471D01*
X74925Y-51490D01*
X74943Y-51509D01*
X74962Y-51546D01*
X74962Y-51640D01*
X74943Y-51677D01*
X74925Y-51696D01*
X76781Y-50937D02*
X76781Y-50637D01*
X76781Y-53299D02*
X76781Y-52999D01*
X76931Y-53149D02*
X76631Y-53149D01*
G54D17*
X69218Y-48648D02*
X68956Y-48814D01*
X69218Y-48933D02*
X68668Y-48933D01*
X68668Y-48743D01*
X68694Y-48695D01*
X68721Y-48672D01*
X68773Y-48648D01*
X68852Y-48648D01*
X68904Y-48672D01*
X68930Y-48695D01*
X68956Y-48743D01*
X68956Y-48933D01*
X68721Y-48457D02*
X68694Y-48433D01*
X68668Y-48386D01*
X68668Y-48267D01*
X68694Y-48219D01*
X68721Y-48195D01*
X68773Y-48172D01*
X68825Y-48172D01*
X68904Y-48195D01*
X69218Y-48481D01*
X69218Y-48172D01*
X68721Y-47981D02*
X68694Y-47957D01*
X68668Y-47910D01*
X68668Y-47791D01*
X68694Y-47743D01*
X68721Y-47719D01*
X68773Y-47695D01*
X68825Y-47695D01*
X68904Y-47719D01*
X69218Y-48005D01*
X69218Y-47695D01*
X70538Y-57128D02*
X70371Y-56866D01*
X70252Y-57128D02*
X70252Y-56578D01*
X70443Y-56578D01*
X70490Y-56604D01*
X70514Y-56630D01*
X70538Y-56682D01*
X70538Y-56761D01*
X70514Y-56813D01*
X70490Y-56840D01*
X70443Y-56866D01*
X70252Y-56866D01*
X70728Y-56630D02*
X70752Y-56604D01*
X70800Y-56578D01*
X70919Y-56578D01*
X70966Y-56604D01*
X70990Y-56630D01*
X71014Y-56682D01*
X71014Y-56735D01*
X70990Y-56813D01*
X70705Y-57128D01*
X71014Y-57128D01*
X71466Y-56578D02*
X71228Y-56578D01*
X71205Y-56840D01*
X71228Y-56813D01*
X71276Y-56787D01*
X71395Y-56787D01*
X71443Y-56813D01*
X71466Y-56840D01*
X71490Y-56892D01*
X71490Y-57023D01*
X71466Y-57075D01*
X71443Y-57101D01*
X71395Y-57128D01*
X71276Y-57128D01*
X71228Y-57101D01*
X71205Y-57075D01*
X73503Y-55128D02*
X73337Y-54866D01*
X73218Y-55128D02*
X73218Y-54578D01*
X73408Y-54578D01*
X73456Y-54604D01*
X73479Y-54630D01*
X73503Y-54682D01*
X73503Y-54761D01*
X73479Y-54813D01*
X73456Y-54840D01*
X73408Y-54866D01*
X73218Y-54866D01*
X73694Y-54630D02*
X73718Y-54604D01*
X73765Y-54578D01*
X73884Y-54578D01*
X73932Y-54604D01*
X73956Y-54630D01*
X73979Y-54682D01*
X73979Y-54735D01*
X73956Y-54813D01*
X73670Y-55128D01*
X73979Y-55128D01*
X74408Y-54761D02*
X74408Y-55128D01*
X74289Y-54551D02*
X74170Y-54944D01*
X74479Y-54944D01*
X76403Y-46876D02*
X76141Y-47043D01*
X76403Y-47162D02*
X75853Y-47162D01*
X75853Y-46971D01*
X75879Y-46924D01*
X75906Y-46900D01*
X75958Y-46876D01*
X76037Y-46876D01*
X76089Y-46900D01*
X76115Y-46924D01*
X76141Y-46971D01*
X76141Y-47162D01*
X75906Y-46686D02*
X75879Y-46662D01*
X75853Y-46614D01*
X75853Y-46495D01*
X75879Y-46447D01*
X75906Y-46424D01*
X75958Y-46400D01*
X76010Y-46400D01*
X76089Y-46424D01*
X76403Y-46709D01*
X76403Y-46400D01*
X75853Y-46090D02*
X75853Y-46043D01*
X75879Y-45995D01*
X75906Y-45971D01*
X75958Y-45947D01*
X76063Y-45924D01*
X76194Y-45924D01*
X76298Y-45947D01*
X76351Y-45971D01*
X76377Y-45995D01*
X76403Y-46043D01*
X76403Y-46090D01*
X76377Y-46138D01*
X76351Y-46162D01*
X76298Y-46186D01*
X76194Y-46209D01*
X76063Y-46209D01*
X75958Y-46186D01*
X75906Y-46162D01*
X75879Y-46138D01*
X75853Y-46090D01*
X86981Y-44710D02*
X86815Y-44448D01*
X86696Y-44710D02*
X86696Y-44160D01*
X86886Y-44160D01*
X86934Y-44186D01*
X86957Y-44213D01*
X86981Y-44265D01*
X86981Y-44344D01*
X86957Y-44396D01*
X86934Y-44422D01*
X86886Y-44448D01*
X86696Y-44448D01*
X87457Y-44710D02*
X87172Y-44710D01*
X87315Y-44710D02*
X87315Y-44160D01*
X87267Y-44239D01*
X87219Y-44291D01*
X87172Y-44317D01*
X87696Y-44710D02*
X87791Y-44710D01*
X87838Y-44684D01*
X87862Y-44658D01*
X87910Y-44579D01*
X87934Y-44475D01*
X87934Y-44265D01*
X87910Y-44213D01*
X87886Y-44186D01*
X87838Y-44160D01*
X87743Y-44160D01*
X87696Y-44186D01*
X87672Y-44213D01*
X87648Y-44265D01*
X87648Y-44396D01*
X87672Y-44448D01*
X87696Y-44475D01*
X87743Y-44501D01*
X87838Y-44501D01*
X87886Y-44475D01*
X87910Y-44448D01*
X87934Y-44396D01*
X86981Y-43529D02*
X86815Y-43267D01*
X86696Y-43529D02*
X86696Y-42979D01*
X86886Y-42979D01*
X86934Y-43005D01*
X86957Y-43032D01*
X86981Y-43084D01*
X86981Y-43163D01*
X86957Y-43215D01*
X86934Y-43241D01*
X86886Y-43267D01*
X86696Y-43267D01*
X87457Y-43529D02*
X87172Y-43529D01*
X87315Y-43529D02*
X87315Y-42979D01*
X87267Y-43058D01*
X87219Y-43110D01*
X87172Y-43136D01*
X87743Y-43215D02*
X87696Y-43189D01*
X87672Y-43163D01*
X87648Y-43110D01*
X87648Y-43084D01*
X87672Y-43032D01*
X87696Y-43005D01*
X87743Y-42979D01*
X87838Y-42979D01*
X87886Y-43005D01*
X87910Y-43032D01*
X87934Y-43084D01*
X87934Y-43110D01*
X87910Y-43163D01*
X87886Y-43189D01*
X87838Y-43215D01*
X87743Y-43215D01*
X87696Y-43241D01*
X87672Y-43267D01*
X87648Y-43320D01*
X87648Y-43424D01*
X87672Y-43477D01*
X87696Y-43503D01*
X87743Y-43529D01*
X87838Y-43529D01*
X87886Y-43503D01*
X87910Y-43477D01*
X87934Y-43424D01*
X87934Y-43320D01*
X87910Y-43267D01*
X87886Y-43241D01*
X87838Y-43215D01*
X69218Y-54258D02*
X68956Y-54425D01*
X69218Y-54544D02*
X68668Y-54544D01*
X68668Y-54353D01*
X68694Y-54306D01*
X68721Y-54282D01*
X68773Y-54258D01*
X68852Y-54258D01*
X68904Y-54282D01*
X68930Y-54306D01*
X68956Y-54353D01*
X68956Y-54544D01*
X68721Y-54067D02*
X68694Y-54044D01*
X68668Y-53996D01*
X68668Y-53877D01*
X68694Y-53829D01*
X68721Y-53806D01*
X68773Y-53782D01*
X68825Y-53782D01*
X68904Y-53806D01*
X69218Y-54091D01*
X69218Y-53782D01*
X69218Y-53306D02*
X69218Y-53591D01*
X69218Y-53448D02*
X68668Y-53448D01*
X68747Y-53496D01*
X68799Y-53544D01*
X68825Y-53591D01*
X70347Y-48057D02*
X70181Y-47795D01*
X70062Y-48057D02*
X70062Y-47507D01*
X70252Y-47507D01*
X70300Y-47533D01*
X70324Y-47559D01*
X70347Y-47612D01*
X70347Y-47690D01*
X70324Y-47742D01*
X70300Y-47769D01*
X70252Y-47795D01*
X70062Y-47795D01*
X70538Y-47559D02*
X70562Y-47533D01*
X70609Y-47507D01*
X70728Y-47507D01*
X70776Y-47533D01*
X70800Y-47559D01*
X70824Y-47612D01*
X70824Y-47664D01*
X70800Y-47742D01*
X70514Y-48057D01*
X70824Y-48057D01*
X70990Y-47507D02*
X71300Y-47507D01*
X71133Y-47716D01*
X71205Y-47716D01*
X71252Y-47742D01*
X71276Y-47769D01*
X71300Y-47821D01*
X71300Y-47952D01*
X71276Y-48004D01*
X71252Y-48031D01*
X71205Y-48057D01*
X71062Y-48057D01*
X71014Y-48031D01*
X70990Y-48004D01*
G54D21*
X92027Y-41992D02*
X92027Y-41592D01*
X92179Y-41592D01*
X92218Y-41611D01*
X92237Y-41630D01*
X92256Y-41668D01*
X92256Y-41725D01*
X92237Y-41764D01*
X92218Y-41783D01*
X92179Y-41802D01*
X92027Y-41802D01*
X92446Y-41992D02*
X92522Y-41992D01*
X92560Y-41973D01*
X92579Y-41954D01*
X92618Y-41897D01*
X92637Y-41821D01*
X92637Y-41668D01*
X92618Y-41630D01*
X92599Y-41611D01*
X92560Y-41592D01*
X92484Y-41592D01*
X92446Y-41611D01*
X92427Y-41630D01*
X92408Y-41668D01*
X92408Y-41764D01*
X92427Y-41802D01*
X92446Y-41821D01*
X92484Y-41840D01*
X92560Y-41840D01*
X92599Y-41821D01*
X92618Y-41802D01*
X92637Y-41764D01*
X90787Y-53499D02*
X90387Y-53499D01*
X90387Y-53347D01*
X90406Y-53309D01*
X90425Y-53289D01*
X90464Y-53270D01*
X90521Y-53270D01*
X90559Y-53289D01*
X90578Y-53309D01*
X90597Y-53347D01*
X90597Y-53499D01*
X90787Y-52889D02*
X90787Y-53118D01*
X90787Y-53004D02*
X90387Y-53004D01*
X90445Y-53042D01*
X90483Y-53080D01*
X90502Y-53118D01*
X90387Y-52642D02*
X90387Y-52604D01*
X90406Y-52566D01*
X90425Y-52547D01*
X90464Y-52528D01*
X90540Y-52509D01*
X90635Y-52509D01*
X90711Y-52528D01*
X90749Y-52547D01*
X90768Y-52566D01*
X90787Y-52604D01*
X90787Y-52642D01*
X90768Y-52680D01*
X90749Y-52699D01*
X90711Y-52718D01*
X90635Y-52737D01*
X90540Y-52737D01*
X90464Y-52718D01*
X90425Y-52699D01*
X90406Y-52680D01*
X90387Y-52642D01*
G54D14*
X87429Y-47188D02*
X87238Y-47321D01*
X87429Y-47417D02*
X87029Y-47417D01*
X87029Y-47264D01*
X87048Y-47226D01*
X87067Y-47207D01*
X87105Y-47188D01*
X87162Y-47188D01*
X87200Y-47207D01*
X87219Y-47226D01*
X87238Y-47264D01*
X87238Y-47417D01*
X87029Y-47074D02*
X87429Y-46940D01*
X87029Y-46807D01*
X87429Y-46464D02*
X87429Y-46693D01*
X87429Y-46578D02*
X87029Y-46578D01*
X87086Y-46617D01*
X87124Y-46655D01*
X87143Y-46693D01*
G54D10*
X82502Y-52090D02*
X82484Y-52109D01*
X82427Y-52127D01*
X82390Y-52127D01*
X82334Y-52109D01*
X82296Y-52071D01*
X82277Y-52034D01*
X82259Y-51959D01*
X82259Y-51902D01*
X82277Y-51827D01*
X82296Y-51790D01*
X82334Y-51752D01*
X82390Y-51734D01*
X82427Y-51734D01*
X82484Y-51752D01*
X82502Y-51771D01*
X82877Y-52127D02*
X82652Y-52127D01*
X82765Y-52127D02*
X82765Y-51734D01*
X82727Y-51790D01*
X82690Y-51827D01*
X82652Y-51846D01*
X83215Y-51865D02*
X83215Y-52127D01*
X83121Y-51715D02*
X83027Y-51996D01*
X83271Y-51996D01*
X79279Y-51977D02*
X79579Y-51977D01*
X81641Y-51977D02*
X81941Y-51977D01*
X81791Y-52127D02*
X81791Y-51827D01*
G54D17*
X83397Y-45399D02*
X83378Y-45418D01*
X83321Y-45437D01*
X83283Y-45437D01*
X83226Y-45418D01*
X83188Y-45380D01*
X83169Y-45342D01*
X83150Y-45266D01*
X83150Y-45208D01*
X83169Y-45132D01*
X83188Y-45094D01*
X83226Y-45056D01*
X83283Y-45037D01*
X83321Y-45037D01*
X83378Y-45056D01*
X83397Y-45075D01*
X83626Y-45208D02*
X83588Y-45189D01*
X83569Y-45170D01*
X83550Y-45132D01*
X83550Y-45113D01*
X83569Y-45075D01*
X83588Y-45056D01*
X83626Y-45037D01*
X83702Y-45037D01*
X83740Y-45056D01*
X83759Y-45075D01*
X83778Y-45113D01*
X83778Y-45132D01*
X83759Y-45170D01*
X83740Y-45189D01*
X83702Y-45208D01*
X83626Y-45208D01*
X83588Y-45227D01*
X83569Y-45247D01*
X83550Y-45285D01*
X83550Y-45361D01*
X83569Y-45399D01*
X83588Y-45418D01*
X83626Y-45437D01*
X83702Y-45437D01*
X83740Y-45418D01*
X83759Y-45399D01*
X83778Y-45361D01*
X83778Y-45285D01*
X83759Y-45247D01*
X83740Y-45227D01*
X83702Y-45208D01*
X83894Y-47185D02*
X83875Y-47204D01*
X83818Y-47223D01*
X83780Y-47223D01*
X83723Y-47204D01*
X83685Y-47166D01*
X83666Y-47128D01*
X83647Y-47051D01*
X83647Y-46994D01*
X83666Y-46918D01*
X83685Y-46880D01*
X83723Y-46842D01*
X83780Y-46823D01*
X83818Y-46823D01*
X83875Y-46842D01*
X83894Y-46861D01*
X84275Y-47223D02*
X84047Y-47223D01*
X84161Y-47223D02*
X84161Y-46823D01*
X84123Y-46880D01*
X84085Y-46918D01*
X84047Y-46937D01*
X84656Y-47223D02*
X84428Y-47223D01*
X84542Y-47223D02*
X84542Y-46823D01*
X84504Y-46880D01*
X84466Y-46918D01*
X84428Y-46937D01*
X83894Y-48858D02*
X83875Y-48877D01*
X83818Y-48896D01*
X83780Y-48896D01*
X83723Y-48877D01*
X83685Y-48839D01*
X83666Y-48801D01*
X83647Y-48725D01*
X83647Y-48667D01*
X83666Y-48591D01*
X83685Y-48553D01*
X83723Y-48515D01*
X83780Y-48496D01*
X83818Y-48496D01*
X83875Y-48515D01*
X83894Y-48534D01*
X84275Y-48896D02*
X84047Y-48896D01*
X84161Y-48896D02*
X84161Y-48496D01*
X84123Y-48553D01*
X84085Y-48591D01*
X84047Y-48610D01*
X84428Y-48534D02*
X84447Y-48515D01*
X84485Y-48496D01*
X84580Y-48496D01*
X84618Y-48515D01*
X84637Y-48534D01*
X84656Y-48572D01*
X84656Y-48610D01*
X84637Y-48667D01*
X84409Y-48896D01*
X84656Y-48896D01*
X78484Y-47601D02*
X78503Y-47620D01*
X78522Y-47677D01*
X78522Y-47715D01*
X78503Y-47772D01*
X78465Y-47810D01*
X78427Y-47829D01*
X78351Y-47848D01*
X78293Y-47848D01*
X78217Y-47829D01*
X78179Y-47810D01*
X78141Y-47772D01*
X78122Y-47715D01*
X78122Y-47677D01*
X78141Y-47620D01*
X78160Y-47601D01*
X78522Y-47220D02*
X78522Y-47448D01*
X78522Y-47334D02*
X78122Y-47334D01*
X78179Y-47372D01*
X78217Y-47410D01*
X78236Y-47448D01*
X78122Y-46877D02*
X78122Y-46953D01*
X78141Y-46991D01*
X78160Y-47010D01*
X78217Y-47048D01*
X78293Y-47067D01*
X78446Y-47067D01*
X78484Y-47048D01*
X78503Y-47029D01*
X78522Y-46991D01*
X78522Y-46915D01*
X78503Y-46877D01*
X78484Y-46858D01*
X78446Y-46839D01*
X78351Y-46839D01*
X78313Y-46858D01*
X78293Y-46877D01*
X78274Y-46915D01*
X78274Y-46991D01*
X78293Y-47029D01*
X78313Y-47048D01*
X78351Y-47067D01*
X23632Y-47362D02*
X23370Y-47529D01*
X23632Y-47648D02*
X23082Y-47648D01*
X23082Y-47457D01*
X23108Y-47409D01*
X23134Y-47386D01*
X23186Y-47362D01*
X23265Y-47362D01*
X23317Y-47386D01*
X23343Y-47409D01*
X23370Y-47457D01*
X23370Y-47648D01*
X23632Y-46886D02*
X23632Y-47171D01*
X23632Y-47029D02*
X23082Y-47029D01*
X23160Y-47076D01*
X23213Y-47124D01*
X23239Y-47171D01*
X23082Y-46719D02*
X23082Y-46409D01*
X23291Y-46576D01*
X23291Y-46505D01*
X23317Y-46457D01*
X23343Y-46433D01*
X23396Y-46409D01*
X23527Y-46409D01*
X23579Y-46433D01*
X23605Y-46457D01*
X23632Y-46505D01*
X23632Y-46648D01*
X23605Y-46695D01*
X23579Y-46719D01*
X26584Y-47362D02*
X26322Y-47529D01*
X26584Y-47648D02*
X26034Y-47648D01*
X26034Y-47457D01*
X26061Y-47409D01*
X26087Y-47386D01*
X26139Y-47362D01*
X26218Y-47362D01*
X26270Y-47386D01*
X26296Y-47409D01*
X26322Y-47457D01*
X26322Y-47648D01*
X26584Y-46886D02*
X26584Y-47171D01*
X26584Y-47029D02*
X26034Y-47029D01*
X26113Y-47076D01*
X26165Y-47124D01*
X26191Y-47171D01*
X26218Y-46457D02*
X26584Y-46457D01*
X26008Y-46576D02*
X26401Y-46695D01*
X26401Y-46386D01*
X45739Y-55043D02*
X45477Y-55210D01*
X45739Y-55329D02*
X45189Y-55329D01*
X45189Y-55139D01*
X45215Y-55091D01*
X45241Y-55067D01*
X45294Y-55043D01*
X45372Y-55043D01*
X45425Y-55067D01*
X45451Y-55091D01*
X45477Y-55139D01*
X45477Y-55329D01*
X45739Y-54567D02*
X45739Y-54853D01*
X45739Y-54710D02*
X45189Y-54710D01*
X45268Y-54758D01*
X45320Y-54805D01*
X45346Y-54853D01*
X45189Y-54139D02*
X45189Y-54234D01*
X45215Y-54281D01*
X45241Y-54305D01*
X45320Y-54353D01*
X45425Y-54377D01*
X45634Y-54377D01*
X45687Y-54353D01*
X45713Y-54329D01*
X45739Y-54281D01*
X45739Y-54186D01*
X45713Y-54139D01*
X45687Y-54115D01*
X45634Y-54091D01*
X45503Y-54091D01*
X45451Y-54115D01*
X45425Y-54139D01*
X45399Y-54186D01*
X45399Y-54281D01*
X45425Y-54329D01*
X45451Y-54353D01*
X45503Y-54377D01*
X44494Y-55142D02*
X44232Y-55308D01*
X44494Y-55428D02*
X43944Y-55428D01*
X43944Y-55237D01*
X43970Y-55189D01*
X43996Y-55166D01*
X44049Y-55142D01*
X44127Y-55142D01*
X44179Y-55166D01*
X44206Y-55189D01*
X44232Y-55237D01*
X44232Y-55428D01*
X44494Y-54666D02*
X44494Y-54951D01*
X44494Y-54808D02*
X43944Y-54808D01*
X44022Y-54856D01*
X44075Y-54904D01*
X44101Y-54951D01*
X43944Y-54213D02*
X43944Y-54451D01*
X44206Y-54475D01*
X44179Y-54451D01*
X44153Y-54404D01*
X44153Y-54285D01*
X44179Y-54237D01*
X44206Y-54213D01*
X44258Y-54189D01*
X44389Y-54189D01*
X44441Y-54213D01*
X44468Y-54237D01*
X44494Y-54285D01*
X44494Y-54404D01*
X44468Y-54451D01*
X44441Y-54475D01*
X43529Y-55045D02*
X43267Y-55212D01*
X43529Y-55331D02*
X42979Y-55331D01*
X42979Y-55141D01*
X43005Y-55093D01*
X43032Y-55069D01*
X43084Y-55045D01*
X43163Y-55045D01*
X43215Y-55069D01*
X43241Y-55093D01*
X43267Y-55141D01*
X43267Y-55331D01*
X43529Y-54569D02*
X43529Y-54855D01*
X43529Y-54712D02*
X42979Y-54712D01*
X43058Y-54760D01*
X43110Y-54807D01*
X43136Y-54855D01*
X42979Y-54402D02*
X42979Y-54069D01*
X43529Y-54283D01*
G54D14*
X72602Y-43757D02*
X72602Y-44043D01*
X72583Y-44100D01*
X72545Y-44138D01*
X72488Y-44157D01*
X72450Y-44157D01*
X72774Y-43796D02*
X72793Y-43777D01*
X72831Y-43757D01*
X72926Y-43757D01*
X72964Y-43777D01*
X72983Y-43796D01*
X73002Y-43834D01*
X73002Y-43872D01*
X72983Y-43929D01*
X72755Y-44157D01*
X73002Y-44157D01*
G54D20*
X55220Y-55105D02*
X55206Y-55119D01*
X55163Y-55134D01*
X55134Y-55134D01*
X55091Y-55119D01*
X55063Y-55091D01*
X55049Y-55062D01*
X55034Y-55005D01*
X55034Y-54962D01*
X55049Y-54905D01*
X55063Y-54877D01*
X55091Y-54848D01*
X55134Y-54834D01*
X55163Y-54834D01*
X55206Y-54848D01*
X55220Y-54862D01*
X55506Y-55134D02*
X55334Y-55134D01*
X55420Y-55134D02*
X55420Y-54834D01*
X55391Y-54877D01*
X55363Y-54905D01*
X55334Y-54919D01*
X55691Y-54834D02*
X55720Y-54834D01*
X55749Y-54848D01*
X55763Y-54862D01*
X55777Y-54891D01*
X55791Y-54948D01*
X55791Y-55019D01*
X55777Y-55077D01*
X55763Y-55105D01*
X55749Y-55119D01*
X55720Y-55134D01*
X55691Y-55134D01*
X55663Y-55119D01*
X55649Y-55105D01*
X55634Y-55077D01*
X55620Y-55019D01*
X55620Y-54948D01*
X55634Y-54891D01*
X55649Y-54862D01*
X55663Y-54848D01*
X55691Y-54834D01*
G54D23*
X54399Y-55518D02*
X54627Y-55518D01*
X54513Y-55633D02*
X54513Y-55404D01*
G54D17*
%LPC*%
G54D11*
X77341Y-57011D02*
X77439Y-56224D01*
X77392Y-56599D02*
X77842Y-56599D01*
X77791Y-57011D02*
X77889Y-56224D01*
X78503Y-57011D02*
X78555Y-56599D01*
X78526Y-56524D01*
X78456Y-56486D01*
X78306Y-56486D01*
X78226Y-56524D01*
X78508Y-56974D02*
X78428Y-57011D01*
X78241Y-57011D01*
X78170Y-56974D01*
X78142Y-56899D01*
X78151Y-56824D01*
X78198Y-56749D01*
X78278Y-56711D01*
X78465Y-56711D01*
X78545Y-56674D01*
X79220Y-56974D02*
X79140Y-57011D01*
X78990Y-57011D01*
X78920Y-56974D01*
X78887Y-56936D01*
X78859Y-56861D01*
X78887Y-56636D01*
X78934Y-56561D01*
X78976Y-56524D01*
X79056Y-56486D01*
X79206Y-56486D01*
X79276Y-56524D01*
X79553Y-57011D02*
X79651Y-56224D01*
X79665Y-56711D02*
X79853Y-57011D01*
X79918Y-56486D02*
X79581Y-56786D01*
X80495Y-56974D02*
X80415Y-57011D01*
X80265Y-57011D01*
X80195Y-56974D01*
X80167Y-56899D01*
X80204Y-56599D01*
X80251Y-56524D01*
X80331Y-56486D01*
X80481Y-56486D01*
X80551Y-56524D01*
X80579Y-56599D01*
X80570Y-56674D01*
X80186Y-56749D01*
X80865Y-57011D02*
X80931Y-56486D01*
X80912Y-56636D02*
X80959Y-56561D01*
X81001Y-56524D01*
X81081Y-56486D01*
X81156Y-56486D01*
X81320Y-56974D02*
X81390Y-57011D01*
X81540Y-57011D01*
X81620Y-56974D01*
X81667Y-56899D01*
X81671Y-56861D01*
X81643Y-56786D01*
X81573Y-56749D01*
X81460Y-56749D01*
X81390Y-56711D01*
X81362Y-56636D01*
X81367Y-56599D01*
X81414Y-56524D01*
X81493Y-56486D01*
X81606Y-56486D01*
X81676Y-56524D01*
X82056Y-56486D02*
X81957Y-57274D01*
X82051Y-56524D02*
X82131Y-56486D01*
X82281Y-56486D01*
X82351Y-56524D01*
X82384Y-56561D01*
X82412Y-56636D01*
X82384Y-56861D01*
X82337Y-56936D01*
X82295Y-56974D01*
X82215Y-57011D01*
X82065Y-57011D01*
X81995Y-56974D01*
X83040Y-57011D02*
X83091Y-56599D01*
X83063Y-56524D01*
X82993Y-56486D01*
X82843Y-56486D01*
X82763Y-56524D01*
X83045Y-56974D02*
X82965Y-57011D01*
X82777Y-57011D01*
X82707Y-56974D01*
X82679Y-56899D01*
X82688Y-56824D01*
X82735Y-56749D01*
X82815Y-56711D01*
X83002Y-56711D01*
X83082Y-56674D01*
X83757Y-56974D02*
X83677Y-57011D01*
X83527Y-57011D01*
X83457Y-56974D01*
X83424Y-56936D01*
X83396Y-56861D01*
X83424Y-56636D01*
X83471Y-56561D01*
X83513Y-56524D01*
X83593Y-56486D01*
X83743Y-56486D01*
X83813Y-56524D01*
X84394Y-56974D02*
X84315Y-57011D01*
X84165Y-57011D01*
X84094Y-56974D01*
X84066Y-56899D01*
X84104Y-56599D01*
X84151Y-56524D01*
X84230Y-56486D01*
X84380Y-56486D01*
X84451Y-56524D01*
X84479Y-56599D01*
X84469Y-56674D01*
X84085Y-56749D01*
X79281Y-58157D02*
X79239Y-58194D01*
X79122Y-58232D01*
X79047Y-58232D01*
X78939Y-58194D01*
X78873Y-58119D01*
X78845Y-58044D01*
X78826Y-57894D01*
X78840Y-57782D01*
X78897Y-57632D01*
X78944Y-57557D01*
X79028Y-57482D01*
X79145Y-57444D01*
X79220Y-57444D01*
X79328Y-57482D01*
X79361Y-57519D01*
X79609Y-58232D02*
X79708Y-57444D01*
X79947Y-58232D02*
X79998Y-57819D01*
X79970Y-57744D01*
X79900Y-57707D01*
X79787Y-57707D01*
X79708Y-57744D01*
X79665Y-57782D01*
X80434Y-58232D02*
X80364Y-58194D01*
X80331Y-58157D01*
X80303Y-58082D01*
X80331Y-57857D01*
X80378Y-57782D01*
X80420Y-57744D01*
X80500Y-57707D01*
X80612Y-57707D01*
X80682Y-57744D01*
X80715Y-57782D01*
X80743Y-57857D01*
X80715Y-58082D01*
X80668Y-58157D01*
X80626Y-58194D01*
X80546Y-58232D01*
X80434Y-58232D01*
X81146Y-58232D02*
X81076Y-58194D01*
X81048Y-58119D01*
X81132Y-57444D01*
X81849Y-57707D02*
X81784Y-58232D01*
X81512Y-57707D02*
X81460Y-58119D01*
X81489Y-58194D01*
X81559Y-58232D01*
X81671Y-58232D01*
X81751Y-58194D01*
X81793Y-58157D01*
X82271Y-58232D02*
X82201Y-58194D01*
X82173Y-58119D01*
X82257Y-57444D01*
X82909Y-58232D02*
X82960Y-57819D01*
X82932Y-57744D01*
X82862Y-57707D01*
X82712Y-57707D01*
X82632Y-57744D01*
X82913Y-58194D02*
X82834Y-58232D01*
X82646Y-58232D01*
X82576Y-58194D01*
X82548Y-58119D01*
X82557Y-58044D01*
X82604Y-57969D01*
X82684Y-57932D01*
X82871Y-57932D01*
X82951Y-57894D01*
G54D25*
X82814Y-55118D03*
X81814Y-55118D03*
X80814Y-55118D03*
X79814Y-55118D03*
X78814Y-55118D03*
X77814Y-55118D03*
G54D26*
X79511Y-42716D03*
G54D27*
X80511Y-42716D03*
G54D28*
X81511Y-42716D03*
G54D27*
X24471Y-51082D03*
X25971Y-50082D03*
G54D26*
X29071Y-51082D03*
X27571Y-50082D03*
G54D29*
X51085Y-54350D03*
G54D30*
X51085Y-55350D03*
X52085Y-55350D03*
G54D31*
X45279Y-47295D03*
G54D32*
X44279Y-47295D03*
X43279Y-47295D03*
X42279Y-47295D03*
X41279Y-47295D03*
X40279Y-47295D03*
X39279Y-47295D03*
X38279Y-47295D03*
X37279Y-47295D03*
X36279Y-47295D03*
X35279Y-47295D03*
X34279Y-47295D03*
X34251Y-48287D03*
X34251Y-49271D03*
X34251Y-51318D03*
X34251Y-52303D03*
X34279Y-53295D03*
X35279Y-53295D03*
X36279Y-53295D03*
X37279Y-53295D03*
X38279Y-53295D03*
X39279Y-53295D03*
X40279Y-53295D03*
X41279Y-53295D03*
X42279Y-53295D03*
X43279Y-53295D03*
X44279Y-53295D03*
X45279Y-53295D03*
G54D33*
X41811Y-52303D03*
X40826Y-52303D03*
X19450Y-52100D03*
X19450Y-51100D03*
G54D34*
X19450Y-50100D03*
G54D35*
X17481Y-51100D03*
G54D30*
X49450Y-35000D03*
X49450Y-32000D03*
X16750Y-35000D03*
X16750Y-32000D03*
X22950Y-35000D03*
X22950Y-32000D03*
X29350Y-35000D03*
X29350Y-32000D03*
X36250Y-35000D03*
X36250Y-32000D03*
X42850Y-35000D03*
X42850Y-32000D03*
X88550Y-35000D03*
X88550Y-32000D03*
X81950Y-35000D03*
X81950Y-32000D03*
X55650Y-35000D03*
X55650Y-32000D03*
X61650Y-35000D03*
X61650Y-32000D03*
X68450Y-35000D03*
X68450Y-32000D03*
G54D36*
X30950Y-35200D03*
X31950Y-35200D03*
X37750Y-35200D03*
X38750Y-35200D03*
X24550Y-35200D03*
X25550Y-35200D03*
X90150Y-35200D03*
X91150Y-35200D03*
X70050Y-35200D03*
X71050Y-35200D03*
X18400Y-35200D03*
X19400Y-35200D03*
X44450Y-35200D03*
X45450Y-35200D03*
X83450Y-35200D03*
X84450Y-35200D03*
X50950Y-35200D03*
X51950Y-35200D03*
X63250Y-35200D03*
X64250Y-35200D03*
X57250Y-35200D03*
X58250Y-35200D03*
G54D29*
X46450Y-27800D03*
G54D30*
X43450Y-27800D03*
G54D29*
X85450Y-27800D03*
G54D30*
X82450Y-27800D03*
G54D29*
X65250Y-27800D03*
G54D30*
X62250Y-27800D03*
G54D29*
X19650Y-27800D03*
G54D30*
X16650Y-27800D03*
G54D29*
X26550Y-27800D03*
G54D30*
X23550Y-27800D03*
G54D29*
X92050Y-27800D03*
G54D30*
X89050Y-27800D03*
G54D29*
X78950Y-27800D03*
G54D30*
X75950Y-27800D03*
G54D29*
X59150Y-27800D03*
G54D30*
X56150Y-27800D03*
G54D29*
X32850Y-27800D03*
G54D30*
X29850Y-27800D03*
G54D29*
X72050Y-27800D03*
G54D30*
X69050Y-27800D03*
G54D29*
X39750Y-27800D03*
G54D30*
X36750Y-27800D03*
G54D29*
X53050Y-27800D03*
G54D30*
X50050Y-27800D03*
G54D33*
X37300Y-30100D03*
X38300Y-30100D03*
G54D34*
X39300Y-30100D03*
G54D33*
X89600Y-30100D03*
X90600Y-30100D03*
G54D34*
X91600Y-30100D03*
G54D33*
X17100Y-30100D03*
X18100Y-30100D03*
G54D34*
X19100Y-30100D03*
G54D33*
X24050Y-30100D03*
X25050Y-30100D03*
G54D34*
X26050Y-30100D03*
G54D33*
X30400Y-30100D03*
X31400Y-30100D03*
G54D34*
X32400Y-30100D03*
G54D33*
X43950Y-30100D03*
X44950Y-30100D03*
G54D34*
X45950Y-30100D03*
G54D33*
X50500Y-30100D03*
X51500Y-30100D03*
G54D34*
X52500Y-30100D03*
G54D33*
X56700Y-30100D03*
X57700Y-30100D03*
G54D34*
X58700Y-30100D03*
G54D33*
X62750Y-30100D03*
X63750Y-30100D03*
G54D34*
X64750Y-30100D03*
G54D33*
X69550Y-30100D03*
X70550Y-30100D03*
G54D34*
X71550Y-30100D03*
G54D33*
X76450Y-30100D03*
X77450Y-30100D03*
G54D34*
X78450Y-30100D03*
G54D33*
X83000Y-30100D03*
X84000Y-30100D03*
G54D34*
X85000Y-30100D03*
G54D29*
X60838Y-52250D03*
G54D30*
X60838Y-51250D03*
X60838Y-50250D03*
X60838Y-49250D03*
X60838Y-48250D03*
X60838Y-47250D03*
X60838Y-46250D03*
X60838Y-45250D03*
X54885Y-45250D03*
X54885Y-46250D03*
X54885Y-47250D03*
X54885Y-48250D03*
X54885Y-49250D03*
X54885Y-50250D03*
X54885Y-51250D03*
X54885Y-52250D03*
G54D29*
X21600Y-50100D03*
G54D30*
X22600Y-50100D03*
G54D29*
X21600Y-47900D03*
G54D30*
X22600Y-47900D03*
G54D37*
X21600Y-45200D03*
G54D38*
X21600Y-46200D03*
G54D39*
X88515Y-37926D03*
X90877Y-37926D03*
X88515Y-39698D03*
X90877Y-39698D03*
X43015Y-37676D03*
X45377Y-37676D03*
X43015Y-39448D03*
X45377Y-39448D03*
X82015Y-37926D03*
X84377Y-37926D03*
X82015Y-39698D03*
X84377Y-39698D03*
X49765Y-37676D03*
X52127Y-37676D03*
X49765Y-39448D03*
X52127Y-39448D03*
X36465Y-37676D03*
X38827Y-37676D03*
X36465Y-39448D03*
X38827Y-39448D03*
X75515Y-37926D03*
X77877Y-37926D03*
X75515Y-39698D03*
X77877Y-39698D03*
X55765Y-37676D03*
X58127Y-37676D03*
X55765Y-39448D03*
X58127Y-39448D03*
X29465Y-37826D03*
X31827Y-37826D03*
X29465Y-39598D03*
X31827Y-39598D03*
X23115Y-37826D03*
X25477Y-37826D03*
X23115Y-39598D03*
X25477Y-39598D03*
X68765Y-37926D03*
X71127Y-37926D03*
X68765Y-39698D03*
X71127Y-39698D03*
X62015Y-37926D03*
X64377Y-37926D03*
X62015Y-39698D03*
X64377Y-39698D03*
X17615Y-37826D03*
X19977Y-37826D03*
X17615Y-39598D03*
X19977Y-39598D03*
G54D30*
X88976Y-48039D03*
X88976Y-47039D03*
X52862Y-52362D03*
X51862Y-52362D03*
G54D29*
X51665Y-57480D03*
G54D30*
X52665Y-57480D03*
G54D40*
X90748Y-46062D03*
G54D41*
X91732Y-46062D03*
G54D40*
X90748Y-49311D03*
G54D41*
X91732Y-49311D03*
G54D30*
X75400Y-34900D03*
X75400Y-31900D03*
G54D27*
X23400Y-24800D03*
X22400Y-24800D03*
X21400Y-24800D03*
G54D26*
X20400Y-24800D03*
G54D27*
X29300Y-24800D03*
X28300Y-24800D03*
X27300Y-24800D03*
G54D26*
X26300Y-24800D03*
G54D27*
X43400Y-24600D03*
X42400Y-24600D03*
X41400Y-24600D03*
G54D26*
X40400Y-24600D03*
G54D27*
X49100Y-24600D03*
X48100Y-24600D03*
X47100Y-24600D03*
G54D26*
X46100Y-24600D03*
G54D27*
X61900Y-24600D03*
X60900Y-24600D03*
X59900Y-24600D03*
G54D26*
X58900Y-24600D03*
G54D27*
X68500Y-24600D03*
X67500Y-24600D03*
X66500Y-24600D03*
G54D26*
X65500Y-24600D03*
G54D27*
X80900Y-24800D03*
X79900Y-24800D03*
X78900Y-24800D03*
G54D26*
X77900Y-24800D03*
G54D27*
X87100Y-24800D03*
X86100Y-24800D03*
X85100Y-24800D03*
G54D26*
X84100Y-24800D03*
G54D29*
X46807Y-42102D03*
G54D30*
X45807Y-42102D03*
X44807Y-42102D03*
X43807Y-42102D03*
X42807Y-42102D03*
X41807Y-42102D03*
X40807Y-42102D03*
X39807Y-42102D03*
X39807Y-45102D03*
X40807Y-45102D03*
X41807Y-45102D03*
X42807Y-45102D03*
X43807Y-45102D03*
X44807Y-45102D03*
X45807Y-45102D03*
X46807Y-45102D03*
G54D29*
X37358Y-42102D03*
G54D30*
X36358Y-42102D03*
X35358Y-42102D03*
X34358Y-42102D03*
X33358Y-42102D03*
X32358Y-42102D03*
X31358Y-42102D03*
X30358Y-42102D03*
X30358Y-45102D03*
X31358Y-45102D03*
X32358Y-45102D03*
X33358Y-45102D03*
X34358Y-45102D03*
X35358Y-45102D03*
X36358Y-45102D03*
X37358Y-45102D03*
G54D39*
X64862Y-46259D03*
X67224Y-46259D03*
X64862Y-48031D03*
X67224Y-48031D03*
X64960Y-50393D03*
X67322Y-50393D03*
X64960Y-52165D03*
X67322Y-52165D03*
X64960Y-54724D03*
X67322Y-54724D03*
X64960Y-56496D03*
X67322Y-56496D03*
G54D29*
X22086Y-51610D03*
G54D30*
X22086Y-54610D03*
G54D37*
X27007Y-43885D03*
G54D38*
X27007Y-42885D03*
G54D37*
X55393Y-42059D03*
G54D38*
X55393Y-43059D03*
G54D37*
X63228Y-42031D03*
G54D38*
X63228Y-43031D03*
X63228Y-44031D03*
G54D29*
X48220Y-50984D03*
G54D30*
X49220Y-50984D03*
G54D29*
X48220Y-53051D03*
G54D30*
X49220Y-53051D03*
G54D36*
X76950Y-35200D03*
X77950Y-35200D03*
G54D42*
X90962Y-57492D03*
X18000Y-57393D03*
X91750Y-25750D03*
X18000Y-25750D03*
G54D29*
X36377Y-56692D03*
G54D30*
X37377Y-56692D03*
X38377Y-56692D03*
X39377Y-56692D03*
X40377Y-56692D03*
X41377Y-56692D03*
X40377Y-55216D03*
X37377Y-55216D03*
G54D43*
X70744Y-50271D03*
G54D44*
X70744Y-51271D03*
X70744Y-52271D03*
X70744Y-53271D03*
X73744Y-53271D03*
X73744Y-52271D03*
X73744Y-51271D03*
X73744Y-50271D03*
G54D43*
X82011Y-49629D03*
G54D44*
X82011Y-48629D03*
X82011Y-47629D03*
X82011Y-46629D03*
X79011Y-46629D03*
X79011Y-47629D03*
X79011Y-48629D03*
X79011Y-49629D03*
G54D40*
X73917Y-47440D03*
G54D41*
X72933Y-47440D03*
G54D40*
X76771Y-52460D03*
G54D41*
X76771Y-51476D03*
G54D30*
X68996Y-49696D03*
X68996Y-50696D03*
X70759Y-55905D03*
X71759Y-55905D03*
X73925Y-55905D03*
X72925Y-55905D03*
X76082Y-47925D03*
X76082Y-48925D03*
X84834Y-44488D03*
X85834Y-44488D03*
X85834Y-43307D03*
X84834Y-43307D03*
X68996Y-52566D03*
X68996Y-51566D03*
X71267Y-48818D03*
X70267Y-48818D03*
G54D45*
X92125Y-43708D03*
X92125Y-42708D03*
X92125Y-52763D03*
X92125Y-51763D03*
G54D46*
X86417Y-45850D03*
G54D47*
X86417Y-46850D03*
X86417Y-47850D03*
G54D40*
X81102Y-51968D03*
G54D41*
X80118Y-51968D03*
G54D30*
X83464Y-44397D03*
X83464Y-43397D03*
X84751Y-46161D03*
X83751Y-46161D03*
X84751Y-47834D03*
X83751Y-47834D03*
X77460Y-46744D03*
X77460Y-47744D03*
X24409Y-46940D03*
X24409Y-47940D03*
X27362Y-46940D03*
X27362Y-47940D03*
X45472Y-56192D03*
X45472Y-57192D03*
X44291Y-57291D03*
X44291Y-56291D03*
X43307Y-56192D03*
X43307Y-57192D03*
G54D26*
X70751Y-42716D03*
G54D27*
X71751Y-42716D03*
G54D28*
X72751Y-42716D03*
G54D29*
X54913Y-55511D03*
G54D30*
X55913Y-55511D03*
M02*
