G04 (created by PCBNEW (2013-07-07 BZR 4022)-stable) date 04/11/2014 12:21:28*
%MOIN*%
G04 Gerber Fmt 3.4, Leading zero omitted, Abs format*
%FSLAX34Y34*%
G01*
G70*
G90*
G04 APERTURE LIST*
%ADD10C,0.00590551*%
%ADD11C,0.011811*%
%ADD12O,0.0593X0.1187*%
%ADD13R,0.06X0.12*%
%ADD14O,0.06X0.12*%
%ADD15O,0.06X0.13*%
%ADD16R,0.055X0.055*%
%ADD17C,0.055*%
%ADD18R,0.065X0.065*%
%ADD19C,0.065*%
%ADD20C,0.07*%
%ADD21R,0.07X0.07*%
%ADD22R,0.12X0.12*%
%ADD23C,0.066*%
%ADD24R,0.06X0.06*%
%ADD25C,0.06*%
%ADD26C,0.0787402*%
%ADD27R,0.0393701X0.0393701*%
%ADD28C,0.0472441*%
%ADD29C,0.137795*%
%ADD30R,0.09X0.062*%
%ADD31O,0.09X0.062*%
%ADD32O,0.1187X0.0593*%
%ADD33R,0.08X0.08*%
%ADD34C,0.08*%
%ADD35C,0.035*%
%ADD36C,0.05*%
%ADD37C,0.03*%
%ADD38C,0.025*%
%ADD39C,0.015*%
%ADD40C,0.02*%
%ADD41C,0.04*%
%ADD42C,0.012*%
%ADD43C,0.01*%
G04 APERTURE END LIST*
G54D10*
G54D11*
X77341Y-57011D02*
X77439Y-56224D01*
X77392Y-56599D02*
X77842Y-56599D01*
X77791Y-57011D02*
X77889Y-56224D01*
X78503Y-57011D02*
X78555Y-56599D01*
X78526Y-56524D01*
X78456Y-56486D01*
X78306Y-56486D01*
X78226Y-56524D01*
X78508Y-56974D02*
X78428Y-57011D01*
X78241Y-57011D01*
X78170Y-56974D01*
X78142Y-56899D01*
X78151Y-56824D01*
X78198Y-56749D01*
X78278Y-56711D01*
X78465Y-56711D01*
X78545Y-56674D01*
X79220Y-56974D02*
X79140Y-57011D01*
X78990Y-57011D01*
X78920Y-56974D01*
X78887Y-56936D01*
X78859Y-56861D01*
X78887Y-56636D01*
X78934Y-56561D01*
X78976Y-56524D01*
X79056Y-56486D01*
X79206Y-56486D01*
X79276Y-56524D01*
X79553Y-57011D02*
X79651Y-56224D01*
X79665Y-56711D02*
X79853Y-57011D01*
X79918Y-56486D02*
X79581Y-56786D01*
X80495Y-56974D02*
X80415Y-57011D01*
X80265Y-57011D01*
X80195Y-56974D01*
X80167Y-56899D01*
X80204Y-56599D01*
X80251Y-56524D01*
X80331Y-56486D01*
X80481Y-56486D01*
X80551Y-56524D01*
X80579Y-56599D01*
X80570Y-56674D01*
X80186Y-56749D01*
X80865Y-57011D02*
X80931Y-56486D01*
X80912Y-56636D02*
X80959Y-56561D01*
X81001Y-56524D01*
X81081Y-56486D01*
X81156Y-56486D01*
X81320Y-56974D02*
X81390Y-57011D01*
X81540Y-57011D01*
X81620Y-56974D01*
X81667Y-56899D01*
X81671Y-56861D01*
X81643Y-56786D01*
X81573Y-56749D01*
X81460Y-56749D01*
X81390Y-56711D01*
X81362Y-56636D01*
X81367Y-56599D01*
X81414Y-56524D01*
X81493Y-56486D01*
X81606Y-56486D01*
X81676Y-56524D01*
X82056Y-56486D02*
X81957Y-57274D01*
X82051Y-56524D02*
X82131Y-56486D01*
X82281Y-56486D01*
X82351Y-56524D01*
X82384Y-56561D01*
X82412Y-56636D01*
X82384Y-56861D01*
X82337Y-56936D01*
X82295Y-56974D01*
X82215Y-57011D01*
X82065Y-57011D01*
X81995Y-56974D01*
X83040Y-57011D02*
X83091Y-56599D01*
X83063Y-56524D01*
X82993Y-56486D01*
X82843Y-56486D01*
X82763Y-56524D01*
X83045Y-56974D02*
X82965Y-57011D01*
X82777Y-57011D01*
X82707Y-56974D01*
X82679Y-56899D01*
X82688Y-56824D01*
X82735Y-56749D01*
X82815Y-56711D01*
X83002Y-56711D01*
X83082Y-56674D01*
X83757Y-56974D02*
X83677Y-57011D01*
X83527Y-57011D01*
X83457Y-56974D01*
X83424Y-56936D01*
X83396Y-56861D01*
X83424Y-56636D01*
X83471Y-56561D01*
X83513Y-56524D01*
X83593Y-56486D01*
X83743Y-56486D01*
X83813Y-56524D01*
X84394Y-56974D02*
X84315Y-57011D01*
X84165Y-57011D01*
X84094Y-56974D01*
X84066Y-56899D01*
X84104Y-56599D01*
X84151Y-56524D01*
X84230Y-56486D01*
X84380Y-56486D01*
X84451Y-56524D01*
X84479Y-56599D01*
X84469Y-56674D01*
X84085Y-56749D01*
X79281Y-58157D02*
X79239Y-58194D01*
X79122Y-58232D01*
X79047Y-58232D01*
X78939Y-58194D01*
X78873Y-58119D01*
X78845Y-58044D01*
X78826Y-57894D01*
X78840Y-57782D01*
X78897Y-57632D01*
X78944Y-57557D01*
X79028Y-57482D01*
X79145Y-57444D01*
X79220Y-57444D01*
X79328Y-57482D01*
X79361Y-57519D01*
X79609Y-58232D02*
X79708Y-57444D01*
X79947Y-58232D02*
X79998Y-57819D01*
X79970Y-57744D01*
X79900Y-57707D01*
X79787Y-57707D01*
X79708Y-57744D01*
X79665Y-57782D01*
X80434Y-58232D02*
X80364Y-58194D01*
X80331Y-58157D01*
X80303Y-58082D01*
X80331Y-57857D01*
X80378Y-57782D01*
X80420Y-57744D01*
X80500Y-57707D01*
X80612Y-57707D01*
X80682Y-57744D01*
X80715Y-57782D01*
X80743Y-57857D01*
X80715Y-58082D01*
X80668Y-58157D01*
X80626Y-58194D01*
X80546Y-58232D01*
X80434Y-58232D01*
X81146Y-58232D02*
X81076Y-58194D01*
X81048Y-58119D01*
X81132Y-57444D01*
X81849Y-57707D02*
X81784Y-58232D01*
X81512Y-57707D02*
X81460Y-58119D01*
X81489Y-58194D01*
X81559Y-58232D01*
X81671Y-58232D01*
X81751Y-58194D01*
X81793Y-58157D01*
X82271Y-58232D02*
X82201Y-58194D01*
X82173Y-58119D01*
X82257Y-57444D01*
X82909Y-58232D02*
X82960Y-57819D01*
X82932Y-57744D01*
X82862Y-57707D01*
X82712Y-57707D01*
X82632Y-57744D01*
X82913Y-58194D02*
X82834Y-58232D01*
X82646Y-58232D01*
X82576Y-58194D01*
X82548Y-58119D01*
X82557Y-58044D01*
X82604Y-57969D01*
X82684Y-57932D01*
X82871Y-57932D01*
X82951Y-57894D01*
X89609Y-31347D02*
X89693Y-31375D01*
X89721Y-31403D01*
X89749Y-31459D01*
X89749Y-31543D01*
X89721Y-31600D01*
X89693Y-31628D01*
X89637Y-31656D01*
X89412Y-31656D01*
X89412Y-31065D01*
X89609Y-31065D01*
X89665Y-31093D01*
X89693Y-31122D01*
X89721Y-31178D01*
X89721Y-31234D01*
X89693Y-31290D01*
X89665Y-31318D01*
X89609Y-31347D01*
X89412Y-31347D01*
X85773Y-31695D02*
X85576Y-31414D01*
X85435Y-31695D02*
X85435Y-31105D01*
X85660Y-31105D01*
X85717Y-31133D01*
X85745Y-31161D01*
X85773Y-31217D01*
X85773Y-31302D01*
X85745Y-31358D01*
X85717Y-31386D01*
X85660Y-31414D01*
X85435Y-31414D01*
X79170Y-31172D02*
X79114Y-31144D01*
X79029Y-31144D01*
X78945Y-31172D01*
X78889Y-31228D01*
X78861Y-31285D01*
X78832Y-31397D01*
X78832Y-31482D01*
X78861Y-31594D01*
X78889Y-31650D01*
X78945Y-31706D01*
X79029Y-31735D01*
X79086Y-31735D01*
X79170Y-31706D01*
X79198Y-31678D01*
X79198Y-31482D01*
X79086Y-31482D01*
X72246Y-31386D02*
X72331Y-31414D01*
X72359Y-31442D01*
X72387Y-31498D01*
X72387Y-31583D01*
X72359Y-31639D01*
X72331Y-31667D01*
X72275Y-31695D01*
X72050Y-31695D01*
X72050Y-31105D01*
X72246Y-31105D01*
X72303Y-31133D01*
X72331Y-31161D01*
X72359Y-31217D01*
X72359Y-31273D01*
X72331Y-31330D01*
X72303Y-31358D01*
X72246Y-31386D01*
X72050Y-31386D01*
X65537Y-31695D02*
X65340Y-31414D01*
X65199Y-31695D02*
X65199Y-31105D01*
X65424Y-31105D01*
X65480Y-31133D01*
X65508Y-31161D01*
X65537Y-31217D01*
X65537Y-31302D01*
X65508Y-31358D01*
X65480Y-31386D01*
X65424Y-31414D01*
X65199Y-31414D01*
X59485Y-31133D02*
X59429Y-31105D01*
X59344Y-31105D01*
X59260Y-31133D01*
X59204Y-31189D01*
X59176Y-31245D01*
X59147Y-31358D01*
X59147Y-31442D01*
X59176Y-31555D01*
X59204Y-31611D01*
X59260Y-31667D01*
X59344Y-31695D01*
X59401Y-31695D01*
X59485Y-31667D01*
X59513Y-31639D01*
X59513Y-31442D01*
X59401Y-31442D01*
X53270Y-31386D02*
X53354Y-31414D01*
X53383Y-31442D01*
X53411Y-31498D01*
X53411Y-31583D01*
X53383Y-31639D01*
X53354Y-31667D01*
X53298Y-31695D01*
X53073Y-31695D01*
X53073Y-31105D01*
X53270Y-31105D01*
X53326Y-31133D01*
X53354Y-31161D01*
X53383Y-31217D01*
X53383Y-31273D01*
X53354Y-31330D01*
X53326Y-31358D01*
X53270Y-31386D01*
X53073Y-31386D01*
X46796Y-31735D02*
X46600Y-31453D01*
X46459Y-31735D02*
X46459Y-31144D01*
X46684Y-31144D01*
X46740Y-31172D01*
X46768Y-31200D01*
X46796Y-31257D01*
X46796Y-31341D01*
X46768Y-31397D01*
X46740Y-31425D01*
X46684Y-31453D01*
X46459Y-31453D01*
X40036Y-31212D02*
X39980Y-31183D01*
X39895Y-31183D01*
X39811Y-31212D01*
X39755Y-31268D01*
X39727Y-31324D01*
X39699Y-31437D01*
X39699Y-31521D01*
X39727Y-31633D01*
X39755Y-31690D01*
X39811Y-31746D01*
X39895Y-31774D01*
X39952Y-31774D01*
X40036Y-31746D01*
X40064Y-31718D01*
X40064Y-31521D01*
X39952Y-31521D01*
X33034Y-31504D02*
X33118Y-31532D01*
X33146Y-31560D01*
X33174Y-31616D01*
X33174Y-31701D01*
X33146Y-31757D01*
X33118Y-31785D01*
X33062Y-31813D01*
X32837Y-31813D01*
X32837Y-31223D01*
X33034Y-31223D01*
X33090Y-31251D01*
X33118Y-31279D01*
X33146Y-31335D01*
X33146Y-31392D01*
X33118Y-31448D01*
X33090Y-31476D01*
X33034Y-31504D01*
X32837Y-31504D01*
X26678Y-31853D02*
X26482Y-31571D01*
X26341Y-31853D02*
X26341Y-31262D01*
X26566Y-31262D01*
X26622Y-31290D01*
X26650Y-31318D01*
X26678Y-31375D01*
X26678Y-31459D01*
X26650Y-31515D01*
X26622Y-31543D01*
X26566Y-31571D01*
X26341Y-31571D01*
X19564Y-31290D02*
X19507Y-31262D01*
X19423Y-31262D01*
X19339Y-31290D01*
X19282Y-31347D01*
X19254Y-31403D01*
X19226Y-31515D01*
X19226Y-31600D01*
X19254Y-31712D01*
X19282Y-31768D01*
X19339Y-31825D01*
X19423Y-31853D01*
X19479Y-31853D01*
X19564Y-31825D01*
X19592Y-31796D01*
X19592Y-31600D01*
X19479Y-31600D01*
X16676Y-58939D02*
X16479Y-58657D01*
X16339Y-58939D02*
X16339Y-58348D01*
X16564Y-58348D01*
X16620Y-58376D01*
X16648Y-58404D01*
X16676Y-58460D01*
X16676Y-58545D01*
X16648Y-58601D01*
X16620Y-58629D01*
X16564Y-58657D01*
X16339Y-58657D01*
X17154Y-58910D02*
X17098Y-58939D01*
X16986Y-58939D01*
X16929Y-58910D01*
X16901Y-58854D01*
X16901Y-58629D01*
X16929Y-58573D01*
X16986Y-58545D01*
X17098Y-58545D01*
X17154Y-58573D01*
X17182Y-58629D01*
X17182Y-58685D01*
X16901Y-58742D01*
X17379Y-58545D02*
X17520Y-58939D01*
X17660Y-58545D01*
X18645Y-58939D02*
X18307Y-58939D01*
X18476Y-58939D02*
X18476Y-58348D01*
X18420Y-58432D01*
X18364Y-58489D01*
X18307Y-58517D01*
X18898Y-58882D02*
X18926Y-58910D01*
X18898Y-58939D01*
X18870Y-58910D01*
X18898Y-58882D01*
X18898Y-58939D01*
X19432Y-58545D02*
X19432Y-58939D01*
X19292Y-58320D02*
X19151Y-58742D01*
X19516Y-58742D01*
G54D12*
X82814Y-55118D03*
X81814Y-55118D03*
X80814Y-55118D03*
X79814Y-55118D03*
X78814Y-55118D03*
X77814Y-55118D03*
G54D13*
X79511Y-42716D03*
G54D14*
X80511Y-42716D03*
G54D15*
X81511Y-42716D03*
G54D14*
X24471Y-51082D03*
X25971Y-50082D03*
G54D13*
X29071Y-51082D03*
X27571Y-50082D03*
G54D16*
X51085Y-54350D03*
G54D17*
X51085Y-55350D03*
X52085Y-55350D03*
G54D18*
X45279Y-47295D03*
G54D19*
X44279Y-47295D03*
X43279Y-47295D03*
X42279Y-47295D03*
X41279Y-47295D03*
X40279Y-47295D03*
X39279Y-47295D03*
X38279Y-47295D03*
X37279Y-47295D03*
X36279Y-47295D03*
X35279Y-47295D03*
X34279Y-47295D03*
X34251Y-48287D03*
X34251Y-49271D03*
X34251Y-51318D03*
X34251Y-52303D03*
X34279Y-53295D03*
X35279Y-53295D03*
X36279Y-53295D03*
X37279Y-53295D03*
X38279Y-53295D03*
X39279Y-53295D03*
X40279Y-53295D03*
X41279Y-53295D03*
X42279Y-53295D03*
X43279Y-53295D03*
X44279Y-53295D03*
X45279Y-53295D03*
G54D20*
X41811Y-52303D03*
X40826Y-52303D03*
X19450Y-52100D03*
X19450Y-51100D03*
G54D21*
X19450Y-50100D03*
G54D22*
X17481Y-51100D03*
G54D17*
X49450Y-35000D03*
X49450Y-32000D03*
X16750Y-35000D03*
X16750Y-32000D03*
X22950Y-35000D03*
X22950Y-32000D03*
X29350Y-35000D03*
X29350Y-32000D03*
X36250Y-35000D03*
X36250Y-32000D03*
X42850Y-35000D03*
X42850Y-32000D03*
X88550Y-35000D03*
X88550Y-32000D03*
X81950Y-35000D03*
X81950Y-32000D03*
X55650Y-35000D03*
X55650Y-32000D03*
X61650Y-35000D03*
X61650Y-32000D03*
X68450Y-35000D03*
X68450Y-32000D03*
G54D23*
X30950Y-35200D03*
X31950Y-35200D03*
X37750Y-35200D03*
X38750Y-35200D03*
X24550Y-35200D03*
X25550Y-35200D03*
X90150Y-35200D03*
X91150Y-35200D03*
X70050Y-35200D03*
X71050Y-35200D03*
X18400Y-35200D03*
X19400Y-35200D03*
X44450Y-35200D03*
X45450Y-35200D03*
X83450Y-35200D03*
X84450Y-35200D03*
X50950Y-35200D03*
X51950Y-35200D03*
X63250Y-35200D03*
X64250Y-35200D03*
X57250Y-35200D03*
X58250Y-35200D03*
G54D16*
X46450Y-27800D03*
G54D17*
X43450Y-27800D03*
G54D16*
X85450Y-27800D03*
G54D17*
X82450Y-27800D03*
G54D16*
X65250Y-27800D03*
G54D17*
X62250Y-27800D03*
G54D16*
X19650Y-27800D03*
G54D17*
X16650Y-27800D03*
G54D16*
X26550Y-27800D03*
G54D17*
X23550Y-27800D03*
G54D16*
X92050Y-27800D03*
G54D17*
X89050Y-27800D03*
G54D16*
X78950Y-27800D03*
G54D17*
X75950Y-27800D03*
G54D16*
X59150Y-27800D03*
G54D17*
X56150Y-27800D03*
G54D16*
X32850Y-27800D03*
G54D17*
X29850Y-27800D03*
G54D16*
X72050Y-27800D03*
G54D17*
X69050Y-27800D03*
G54D16*
X39750Y-27800D03*
G54D17*
X36750Y-27800D03*
G54D16*
X53050Y-27800D03*
G54D17*
X50050Y-27800D03*
G54D20*
X37300Y-30100D03*
X38300Y-30100D03*
G54D21*
X39300Y-30100D03*
G54D20*
X89600Y-30100D03*
X90600Y-30100D03*
G54D21*
X91600Y-30100D03*
G54D20*
X17100Y-30100D03*
X18100Y-30100D03*
G54D21*
X19100Y-30100D03*
G54D20*
X24050Y-30100D03*
X25050Y-30100D03*
G54D21*
X26050Y-30100D03*
G54D20*
X30400Y-30100D03*
X31400Y-30100D03*
G54D21*
X32400Y-30100D03*
G54D20*
X43950Y-30100D03*
X44950Y-30100D03*
G54D21*
X45950Y-30100D03*
G54D20*
X50500Y-30100D03*
X51500Y-30100D03*
G54D21*
X52500Y-30100D03*
G54D20*
X56700Y-30100D03*
X57700Y-30100D03*
G54D21*
X58700Y-30100D03*
G54D20*
X62750Y-30100D03*
X63750Y-30100D03*
G54D21*
X64750Y-30100D03*
G54D20*
X69550Y-30100D03*
X70550Y-30100D03*
G54D21*
X71550Y-30100D03*
G54D20*
X76450Y-30100D03*
X77450Y-30100D03*
G54D21*
X78450Y-30100D03*
G54D20*
X83000Y-30100D03*
X84000Y-30100D03*
G54D21*
X85000Y-30100D03*
G54D16*
X60838Y-52250D03*
G54D17*
X60838Y-51250D03*
X60838Y-50250D03*
X60838Y-49250D03*
X60838Y-48250D03*
X60838Y-47250D03*
X60838Y-46250D03*
X60838Y-45250D03*
X54885Y-45250D03*
X54885Y-46250D03*
X54885Y-47250D03*
X54885Y-48250D03*
X54885Y-49250D03*
X54885Y-50250D03*
X54885Y-51250D03*
X54885Y-52250D03*
G54D16*
X21600Y-50100D03*
G54D17*
X22600Y-50100D03*
G54D16*
X21600Y-47900D03*
G54D17*
X22600Y-47900D03*
G54D24*
X21600Y-45200D03*
G54D25*
X21600Y-46200D03*
G54D26*
X88515Y-37926D03*
X90877Y-37926D03*
X88515Y-39698D03*
X90877Y-39698D03*
X43015Y-37676D03*
X45377Y-37676D03*
X43015Y-39448D03*
X45377Y-39448D03*
X82015Y-37926D03*
X84377Y-37926D03*
X82015Y-39698D03*
X84377Y-39698D03*
X49765Y-37676D03*
X52127Y-37676D03*
X49765Y-39448D03*
X52127Y-39448D03*
X36465Y-37676D03*
X38827Y-37676D03*
X36465Y-39448D03*
X38827Y-39448D03*
X75515Y-37926D03*
X77877Y-37926D03*
X75515Y-39698D03*
X77877Y-39698D03*
X55765Y-37676D03*
X58127Y-37676D03*
X55765Y-39448D03*
X58127Y-39448D03*
X29465Y-37826D03*
X31827Y-37826D03*
X29465Y-39598D03*
X31827Y-39598D03*
X23115Y-37826D03*
X25477Y-37826D03*
X23115Y-39598D03*
X25477Y-39598D03*
X68765Y-37926D03*
X71127Y-37926D03*
X68765Y-39698D03*
X71127Y-39698D03*
X62015Y-37926D03*
X64377Y-37926D03*
X62015Y-39698D03*
X64377Y-39698D03*
X17615Y-37826D03*
X19977Y-37826D03*
X17615Y-39598D03*
X19977Y-39598D03*
G54D17*
X88976Y-48039D03*
X88976Y-47039D03*
X52862Y-52362D03*
X51862Y-52362D03*
G54D16*
X51665Y-57480D03*
G54D17*
X52665Y-57480D03*
G54D27*
X90748Y-46062D03*
G54D28*
X91732Y-46062D03*
G54D27*
X90748Y-49311D03*
G54D28*
X91732Y-49311D03*
G54D17*
X75400Y-34900D03*
X75400Y-31900D03*
G54D14*
X23400Y-24800D03*
X22400Y-24800D03*
X21400Y-24800D03*
G54D13*
X20400Y-24800D03*
G54D14*
X29300Y-24800D03*
X28300Y-24800D03*
X27300Y-24800D03*
G54D13*
X26300Y-24800D03*
G54D14*
X43400Y-24600D03*
X42400Y-24600D03*
X41400Y-24600D03*
G54D13*
X40400Y-24600D03*
G54D14*
X49100Y-24600D03*
X48100Y-24600D03*
X47100Y-24600D03*
G54D13*
X46100Y-24600D03*
G54D14*
X61900Y-24600D03*
X60900Y-24600D03*
X59900Y-24600D03*
G54D13*
X58900Y-24600D03*
G54D14*
X68500Y-24600D03*
X67500Y-24600D03*
X66500Y-24600D03*
G54D13*
X65500Y-24600D03*
G54D14*
X80900Y-24800D03*
X79900Y-24800D03*
X78900Y-24800D03*
G54D13*
X77900Y-24800D03*
G54D14*
X87100Y-24800D03*
X86100Y-24800D03*
X85100Y-24800D03*
G54D13*
X84100Y-24800D03*
G54D16*
X46807Y-42102D03*
G54D17*
X45807Y-42102D03*
X44807Y-42102D03*
X43807Y-42102D03*
X42807Y-42102D03*
X41807Y-42102D03*
X40807Y-42102D03*
X39807Y-42102D03*
X39807Y-45102D03*
X40807Y-45102D03*
X41807Y-45102D03*
X42807Y-45102D03*
X43807Y-45102D03*
X44807Y-45102D03*
X45807Y-45102D03*
X46807Y-45102D03*
G54D16*
X37358Y-42102D03*
G54D17*
X36358Y-42102D03*
X35358Y-42102D03*
X34358Y-42102D03*
X33358Y-42102D03*
X32358Y-42102D03*
X31358Y-42102D03*
X30358Y-42102D03*
X30358Y-45102D03*
X31358Y-45102D03*
X32358Y-45102D03*
X33358Y-45102D03*
X34358Y-45102D03*
X35358Y-45102D03*
X36358Y-45102D03*
X37358Y-45102D03*
G54D26*
X64862Y-46259D03*
X67224Y-46259D03*
X64862Y-48031D03*
X67224Y-48031D03*
X64960Y-50393D03*
X67322Y-50393D03*
X64960Y-52165D03*
X67322Y-52165D03*
X64960Y-54724D03*
X67322Y-54724D03*
X64960Y-56496D03*
X67322Y-56496D03*
G54D16*
X22086Y-51610D03*
G54D17*
X22086Y-54610D03*
G54D24*
X27007Y-43885D03*
G54D25*
X27007Y-42885D03*
G54D24*
X55393Y-42059D03*
G54D25*
X55393Y-43059D03*
G54D24*
X63228Y-42031D03*
G54D25*
X63228Y-43031D03*
X63228Y-44031D03*
G54D16*
X48220Y-50984D03*
G54D17*
X49220Y-50984D03*
G54D16*
X48220Y-53051D03*
G54D17*
X49220Y-53051D03*
G54D23*
X76950Y-35200D03*
X77950Y-35200D03*
G54D29*
X90962Y-57492D03*
X18000Y-57393D03*
X91750Y-25750D03*
X18000Y-25750D03*
G54D16*
X36377Y-56692D03*
G54D17*
X37377Y-56692D03*
X38377Y-56692D03*
X39377Y-56692D03*
X40377Y-56692D03*
X41377Y-56692D03*
X40377Y-55216D03*
X37377Y-55216D03*
G54D30*
X70744Y-50271D03*
G54D31*
X70744Y-51271D03*
X70744Y-52271D03*
X70744Y-53271D03*
X73744Y-53271D03*
X73744Y-52271D03*
X73744Y-51271D03*
X73744Y-50271D03*
G54D30*
X82011Y-49629D03*
G54D31*
X82011Y-48629D03*
X82011Y-47629D03*
X82011Y-46629D03*
X79011Y-46629D03*
X79011Y-47629D03*
X79011Y-48629D03*
X79011Y-49629D03*
G54D27*
X73917Y-47440D03*
G54D28*
X72933Y-47440D03*
G54D27*
X76771Y-52460D03*
G54D28*
X76771Y-51476D03*
G54D17*
X68996Y-49696D03*
X68996Y-50696D03*
X70759Y-55905D03*
X71759Y-55905D03*
X73925Y-55905D03*
X72925Y-55905D03*
X76082Y-47925D03*
X76082Y-48925D03*
X84834Y-44488D03*
X85834Y-44488D03*
X85834Y-43307D03*
X84834Y-43307D03*
X68996Y-52566D03*
X68996Y-51566D03*
X71267Y-48818D03*
X70267Y-48818D03*
G54D32*
X92125Y-43708D03*
X92125Y-42708D03*
X92125Y-52763D03*
X92125Y-51763D03*
G54D33*
X86417Y-45850D03*
G54D34*
X86417Y-46850D03*
X86417Y-47850D03*
G54D27*
X81102Y-51968D03*
G54D28*
X80118Y-51968D03*
G54D17*
X83464Y-44397D03*
X83464Y-43397D03*
X84751Y-46161D03*
X83751Y-46161D03*
X84751Y-47834D03*
X83751Y-47834D03*
X77460Y-46744D03*
X77460Y-47744D03*
X24409Y-46940D03*
X24409Y-47940D03*
X27362Y-46940D03*
X27362Y-47940D03*
X45472Y-56192D03*
X45472Y-57192D03*
X44291Y-57291D03*
X44291Y-56291D03*
X43307Y-56192D03*
X43307Y-57192D03*
G54D13*
X70751Y-42716D03*
G54D14*
X71751Y-42716D03*
G54D15*
X72751Y-42716D03*
G54D16*
X54913Y-55511D03*
G54D17*
X55913Y-55511D03*
G54D35*
X52165Y-45275D03*
X52165Y-46653D03*
X55905Y-50098D03*
X55807Y-51476D03*
X21161Y-40748D03*
X45669Y-43799D03*
X37106Y-43996D03*
X36811Y-43405D03*
X40551Y-50295D03*
X82874Y-53937D03*
X82874Y-52755D03*
X62322Y-49409D03*
X62322Y-48267D03*
X62755Y-45866D03*
X46259Y-48031D03*
X47342Y-48425D03*
X74606Y-53740D03*
X75787Y-54330D03*
X76377Y-53937D03*
X76574Y-53346D03*
X61574Y-48070D03*
X61850Y-45393D03*
X70570Y-46259D03*
X36122Y-45866D03*
X36220Y-46358D03*
G54D36*
X92125Y-51763D02*
X88984Y-51763D01*
X49901Y-58858D02*
X86220Y-58858D01*
X89566Y-53248D02*
X91051Y-51763D01*
X89566Y-55511D02*
X89566Y-53248D01*
X86220Y-58858D02*
X89566Y-55511D01*
X22086Y-51610D02*
X22086Y-51811D01*
X34842Y-58858D02*
X49901Y-58858D01*
X49901Y-58858D02*
X49901Y-58858D01*
X31299Y-55314D02*
X34842Y-58858D01*
X25590Y-55314D02*
X31299Y-55314D01*
X22086Y-51811D02*
X25590Y-55314D01*
X19450Y-52100D02*
X19651Y-52100D01*
X21600Y-50151D02*
X21600Y-50100D01*
X19651Y-52100D02*
X21600Y-50151D01*
X22086Y-51610D02*
X22086Y-51023D01*
X22086Y-51023D02*
X21600Y-50537D01*
X21600Y-50537D02*
X21600Y-50100D01*
G54D37*
X76771Y-52460D02*
X76771Y-52657D01*
X87401Y-53346D02*
X88984Y-51763D01*
X77460Y-53346D02*
X87401Y-53346D01*
X76771Y-52657D02*
X77460Y-53346D01*
X88984Y-51763D02*
X91051Y-51763D01*
X91051Y-51763D02*
X92125Y-51763D01*
X73925Y-55905D02*
X73925Y-55307D01*
X73925Y-55307D02*
X76771Y-52460D01*
X76771Y-52460D02*
X77066Y-52460D01*
X78551Y-47629D02*
X79011Y-47629D01*
X77755Y-48425D02*
X78551Y-47629D01*
X77755Y-51771D02*
X77755Y-48425D01*
X77066Y-52460D02*
X77755Y-51771D01*
X73744Y-50271D02*
X74188Y-50271D01*
X76377Y-52460D02*
X76771Y-52460D01*
X74188Y-50271D02*
X76377Y-52460D01*
G54D38*
X90748Y-49311D02*
X90748Y-48720D01*
X90952Y-42708D02*
X92125Y-42708D01*
X90846Y-42814D02*
X90952Y-42708D01*
X90846Y-44094D02*
X90846Y-42814D01*
X91437Y-44685D02*
X90846Y-44094D01*
X91732Y-44685D02*
X91437Y-44685D01*
X92618Y-45570D02*
X91732Y-44685D01*
X92618Y-46850D02*
X92618Y-45570D01*
X90748Y-48720D02*
X92618Y-46850D01*
G54D37*
X88976Y-48039D02*
X89476Y-48039D01*
X89476Y-48039D02*
X90748Y-49311D01*
G54D39*
X53885Y-55550D02*
X54875Y-55550D01*
X52685Y-54350D02*
X53885Y-55550D01*
X51085Y-54350D02*
X52685Y-54350D01*
X54875Y-55550D02*
X54913Y-55511D01*
X54885Y-52250D02*
X55033Y-52250D01*
X54102Y-42059D02*
X55393Y-42059D01*
X52165Y-43996D02*
X54102Y-42059D01*
X52165Y-45275D02*
X52165Y-43996D01*
X52165Y-47637D02*
X52165Y-46653D01*
X54232Y-49704D02*
X52165Y-47637D01*
X55511Y-49704D02*
X54232Y-49704D01*
X55905Y-50098D02*
X55511Y-49704D01*
X55033Y-52250D02*
X55807Y-51476D01*
X51085Y-54350D02*
X51085Y-54138D01*
X51085Y-54138D02*
X52862Y-52362D01*
X54885Y-52250D02*
X52974Y-52250D01*
X52974Y-52250D02*
X52862Y-52362D01*
G54D40*
X54835Y-52300D02*
X54885Y-52250D01*
G54D39*
X54835Y-52300D02*
X54885Y-52250D01*
G54D41*
X21600Y-45200D02*
X21600Y-41186D01*
X21600Y-41186D02*
X21161Y-40748D01*
G54D37*
X51085Y-55350D02*
X51085Y-56900D01*
X51085Y-56900D02*
X51665Y-57480D01*
X48220Y-53051D02*
X48220Y-54421D01*
X49149Y-55350D02*
X51085Y-55350D01*
X48220Y-54421D02*
X49149Y-55350D01*
X48220Y-53051D02*
X48220Y-50984D01*
X48220Y-50984D02*
X43208Y-50984D01*
X43208Y-50984D02*
X43110Y-50885D01*
X27571Y-50082D02*
X28066Y-50082D01*
X42279Y-53094D02*
X42279Y-53295D01*
X43110Y-52263D02*
X42279Y-53094D01*
X43110Y-50393D02*
X43110Y-50885D01*
X43110Y-50885D02*
X43110Y-52263D01*
X42519Y-49803D02*
X43110Y-50393D01*
X39763Y-49803D02*
X42519Y-49803D01*
X39566Y-50000D02*
X39763Y-49803D01*
X32874Y-50000D02*
X39566Y-50000D01*
X32677Y-49803D02*
X32874Y-50000D01*
X28346Y-49803D02*
X32677Y-49803D01*
X28066Y-50082D02*
X28346Y-49803D01*
G54D39*
X45472Y-43996D02*
X39763Y-43996D01*
X45669Y-43799D02*
X45472Y-43996D01*
X40807Y-45102D02*
X40807Y-45039D01*
X39763Y-43996D02*
X37106Y-43996D01*
X40807Y-45039D02*
X39763Y-43996D01*
X36996Y-43885D02*
X30141Y-43885D01*
X37106Y-43996D02*
X36996Y-43885D01*
X27007Y-43885D02*
X30141Y-43885D01*
X30141Y-43885D02*
X31358Y-45102D01*
G54D37*
X90748Y-46062D02*
X90748Y-45374D01*
X88877Y-40060D02*
X88515Y-39698D01*
X88877Y-43503D02*
X88877Y-40060D01*
X90748Y-45374D02*
X88877Y-43503D01*
G54D39*
X40377Y-55216D02*
X40377Y-55196D01*
X40377Y-55196D02*
X42279Y-53295D01*
G54D38*
X27571Y-50082D02*
X27571Y-49396D01*
X27362Y-45177D02*
X25852Y-45177D01*
X28641Y-46456D02*
X27362Y-45177D01*
X28641Y-48326D02*
X28641Y-46456D01*
X27571Y-49396D02*
X28641Y-48326D01*
G54D39*
X27350Y-46937D02*
X24450Y-46937D01*
X24450Y-46937D02*
X24450Y-45924D01*
X24450Y-45924D02*
X25174Y-45200D01*
G54D40*
X27007Y-43885D02*
X27007Y-44022D01*
X27007Y-44022D02*
X25852Y-45177D01*
X25852Y-45177D02*
X25829Y-45200D01*
G54D37*
X25829Y-45200D02*
X25174Y-45200D01*
X25174Y-45200D02*
X23270Y-45200D01*
X21600Y-45200D02*
X23270Y-45200D01*
G54D39*
X67322Y-41157D02*
X67718Y-41157D01*
X67878Y-40998D02*
X68897Y-40998D01*
X67718Y-41157D02*
X67878Y-40998D01*
X54035Y-41407D02*
X54494Y-41407D01*
X54744Y-41157D02*
X56496Y-41157D01*
X54494Y-41407D02*
X54744Y-41157D01*
X48425Y-41830D02*
X48794Y-41830D01*
X49217Y-41407D02*
X50984Y-41407D01*
X48794Y-41830D02*
X49217Y-41407D01*
X45807Y-45102D02*
X45807Y-44350D01*
X89926Y-38877D02*
X90877Y-37926D01*
X50984Y-41407D02*
X54035Y-41407D01*
X56496Y-41157D02*
X67322Y-41157D01*
X68897Y-40998D02*
X85281Y-40998D01*
X85281Y-40998D02*
X87401Y-38877D01*
X87401Y-38877D02*
X89926Y-38877D01*
X48326Y-41830D02*
X48425Y-41830D01*
X45807Y-44350D02*
X48326Y-41830D01*
X31827Y-37826D02*
X33082Y-37826D01*
X33082Y-37826D02*
X37358Y-42102D01*
X25477Y-37826D02*
X25621Y-37826D01*
X35147Y-40891D02*
X36358Y-42102D01*
X28687Y-40891D02*
X35147Y-40891D01*
X25621Y-37826D02*
X28687Y-40891D01*
X35358Y-42102D02*
X35358Y-41657D01*
X19977Y-38088D02*
X19977Y-37826D01*
X23031Y-41141D02*
X19977Y-38088D01*
X34842Y-41141D02*
X23031Y-41141D01*
X35358Y-41657D02*
X34842Y-41141D01*
X67322Y-40907D02*
X67615Y-40907D01*
X67774Y-40748D02*
X68261Y-40748D01*
X67615Y-40907D02*
X67774Y-40748D01*
X54133Y-41157D02*
X54391Y-41157D01*
X54641Y-40907D02*
X56003Y-40907D01*
X54391Y-41157D02*
X54641Y-40907D01*
X48425Y-41535D02*
X48736Y-41535D01*
X49114Y-41157D02*
X50590Y-41157D01*
X48736Y-41535D02*
X49114Y-41157D01*
X46807Y-42102D02*
X46807Y-42070D01*
X83524Y-38779D02*
X84377Y-37926D01*
X50590Y-41157D02*
X54133Y-41157D01*
X56003Y-40907D02*
X67322Y-40907D01*
X68261Y-40748D02*
X78543Y-40748D01*
X78543Y-40748D02*
X80511Y-38779D01*
X80511Y-38779D02*
X83524Y-38779D01*
X47342Y-41535D02*
X48425Y-41535D01*
X46807Y-42070D02*
X47342Y-41535D01*
X54232Y-40907D02*
X54287Y-40907D01*
X54537Y-40657D02*
X55314Y-40657D01*
X54287Y-40907D02*
X54537Y-40657D01*
X48425Y-41255D02*
X48568Y-41255D01*
X48917Y-40907D02*
X50000Y-40907D01*
X48568Y-41255D02*
X48917Y-40907D01*
X45807Y-42102D02*
X45807Y-41610D01*
X77024Y-38779D02*
X77877Y-37926D01*
X55314Y-40657D02*
X67511Y-40657D01*
X67511Y-40657D02*
X67716Y-40452D01*
X67716Y-40452D02*
X72637Y-40452D01*
X72637Y-40452D02*
X74311Y-38779D01*
X74311Y-38779D02*
X77024Y-38779D01*
X50000Y-40907D02*
X54232Y-40907D01*
X46161Y-41255D02*
X48425Y-41255D01*
X45807Y-41610D02*
X46161Y-41255D01*
X53937Y-40657D02*
X54184Y-40657D01*
X54434Y-40407D02*
X54822Y-40407D01*
X54184Y-40657D02*
X54434Y-40407D01*
X47834Y-41005D02*
X48372Y-41005D01*
X48720Y-40657D02*
X49704Y-40657D01*
X48372Y-41005D02*
X48720Y-40657D01*
X44807Y-42102D02*
X44807Y-41769D01*
X70274Y-38779D02*
X71127Y-37926D01*
X49704Y-40657D02*
X53937Y-40657D01*
X54822Y-40407D02*
X65498Y-40407D01*
X65498Y-40407D02*
X67125Y-38779D01*
X67125Y-38779D02*
X70274Y-38779D01*
X45570Y-41005D02*
X47834Y-41005D01*
X44807Y-41769D02*
X45570Y-41005D01*
X43807Y-42102D02*
X43807Y-41830D01*
X63524Y-38779D02*
X64377Y-37926D01*
X61318Y-38779D02*
X63524Y-38779D01*
X59940Y-40157D02*
X61318Y-38779D01*
X54330Y-40157D02*
X59940Y-40157D01*
X54080Y-40407D02*
X54330Y-40157D01*
X48523Y-40407D02*
X54080Y-40407D01*
X48175Y-40755D02*
X48523Y-40407D01*
X44881Y-40755D02*
X48175Y-40755D01*
X43807Y-41830D02*
X44881Y-40755D01*
X42807Y-42102D02*
X42807Y-41694D01*
X57418Y-38385D02*
X58127Y-37676D01*
X55216Y-38385D02*
X57418Y-38385D01*
X53444Y-40157D02*
X55216Y-38385D01*
X48228Y-40157D02*
X53444Y-40157D01*
X47879Y-40505D02*
X48228Y-40157D01*
X43996Y-40505D02*
X47879Y-40505D01*
X42807Y-41694D02*
X43996Y-40505D01*
X41807Y-42102D02*
X41807Y-41559D01*
X51221Y-38582D02*
X52127Y-37676D01*
X48917Y-38582D02*
X51221Y-38582D01*
X47244Y-40255D02*
X48917Y-38582D01*
X43110Y-40255D02*
X47244Y-40255D01*
X41807Y-41559D02*
X43110Y-40255D01*
X40807Y-42102D02*
X40807Y-40393D01*
X44570Y-38484D02*
X45377Y-37676D01*
X42716Y-38484D02*
X44570Y-38484D01*
X40807Y-40393D02*
X42716Y-38484D01*
X39960Y-38809D02*
X38827Y-37676D01*
X39960Y-40846D02*
X39960Y-38809D01*
X37598Y-43208D02*
X39960Y-40846D01*
X37007Y-43208D02*
X37598Y-43208D01*
X36811Y-43405D02*
X37007Y-43208D01*
X39377Y-56692D02*
X39377Y-55618D01*
X38279Y-54519D02*
X38279Y-53295D01*
X39377Y-55618D02*
X38279Y-54519D01*
X43307Y-56192D02*
X42216Y-56192D01*
X39279Y-55125D02*
X39279Y-53295D01*
X40059Y-55905D02*
X39279Y-55125D01*
X41929Y-55905D02*
X40059Y-55905D01*
X42216Y-56192D02*
X41929Y-55905D01*
X43307Y-56192D02*
X44389Y-56192D01*
G54D42*
X25971Y-50082D02*
X25971Y-51660D01*
X40377Y-50468D02*
X40551Y-50295D01*
X32979Y-50468D02*
X40377Y-50468D01*
X31011Y-52437D02*
X32979Y-50468D01*
X26748Y-52437D02*
X31011Y-52437D01*
X25971Y-51660D02*
X26748Y-52437D01*
G54D39*
X25971Y-50082D02*
X25971Y-49331D01*
X25971Y-49331D02*
X27362Y-47940D01*
G54D42*
X24471Y-51082D02*
X24471Y-51440D01*
X41811Y-51555D02*
X41811Y-52303D01*
X40944Y-50688D02*
X41811Y-51555D01*
X33070Y-50688D02*
X40944Y-50688D01*
X31102Y-52657D02*
X33070Y-50688D01*
X25688Y-52657D02*
X31102Y-52657D01*
X24471Y-51440D02*
X25688Y-52657D01*
G54D39*
X24409Y-47940D02*
X24409Y-51020D01*
X24409Y-51020D02*
X24471Y-51082D01*
X80708Y-52362D02*
X80629Y-52283D01*
X82814Y-53996D02*
X82874Y-53937D01*
X82874Y-52755D02*
X82677Y-52559D01*
X82677Y-52559D02*
X80905Y-52559D01*
X80905Y-52559D02*
X80708Y-52362D01*
X82814Y-55118D02*
X82814Y-53996D01*
X74783Y-45590D02*
X72933Y-47440D01*
X80078Y-45590D02*
X74783Y-45590D01*
X80629Y-46141D02*
X80078Y-45590D01*
X80629Y-52283D02*
X80629Y-46141D01*
X69881Y-47440D02*
X72933Y-47440D01*
X68996Y-49696D02*
X68996Y-48326D01*
X68996Y-48326D02*
X69881Y-47440D01*
G54D42*
X38279Y-47295D02*
X38279Y-47531D01*
X53809Y-51250D02*
X54885Y-51250D01*
X51424Y-48865D02*
X53809Y-51250D01*
X39613Y-48865D02*
X51424Y-48865D01*
X38279Y-47531D02*
X39613Y-48865D01*
X59448Y-46250D02*
X57076Y-46250D01*
X49015Y-45767D02*
X46358Y-48425D01*
X56594Y-45767D02*
X49015Y-45767D01*
X57076Y-46250D02*
X56594Y-45767D01*
X60838Y-46250D02*
X59448Y-46250D01*
X41409Y-48425D02*
X40279Y-47295D01*
X46358Y-48425D02*
X41409Y-48425D01*
X39279Y-47295D02*
X39279Y-47645D01*
X48844Y-46250D02*
X54885Y-46250D01*
X46449Y-48645D02*
X48844Y-46250D01*
X40279Y-48645D02*
X46449Y-48645D01*
X39279Y-47645D02*
X40279Y-48645D01*
G54D39*
X60838Y-51250D02*
X61092Y-51250D01*
X68118Y-53444D02*
X68996Y-52566D01*
X63287Y-53444D02*
X68118Y-53444D01*
X61092Y-51250D02*
X63287Y-53444D01*
G54D40*
X62283Y-49805D02*
X60838Y-51250D01*
X62283Y-49448D02*
X62283Y-49805D01*
X62322Y-49409D02*
X62283Y-49448D01*
X62322Y-46299D02*
X62322Y-48267D01*
X62755Y-45866D02*
X62322Y-46299D01*
G54D39*
X64960Y-56496D02*
X67322Y-56496D01*
X60838Y-52250D02*
X60838Y-52472D01*
X64862Y-56496D02*
X64960Y-56496D01*
X60838Y-52472D02*
X64862Y-56496D01*
G54D42*
X60838Y-52250D02*
X57564Y-52250D01*
X42114Y-48129D02*
X41279Y-47295D01*
X46161Y-48129D02*
X42114Y-48129D01*
X46259Y-48031D02*
X46161Y-48129D01*
X47562Y-48645D02*
X47342Y-48425D01*
X51515Y-48645D02*
X47562Y-48645D01*
X53657Y-50787D02*
X51515Y-48645D01*
X56102Y-50787D02*
X53657Y-50787D01*
X57564Y-52250D02*
X56102Y-50787D01*
G54D40*
X41400Y-24600D02*
X41400Y-24000D01*
X47100Y-23600D02*
X47100Y-24600D01*
X46700Y-23200D02*
X47100Y-23600D01*
X42200Y-23200D02*
X46700Y-23200D01*
X41400Y-24000D02*
X42200Y-23200D01*
X36750Y-27800D02*
X36750Y-27650D01*
X41400Y-25600D02*
X41400Y-24600D01*
X40400Y-26600D02*
X41400Y-25600D01*
X37800Y-26600D02*
X40400Y-26600D01*
X36750Y-27650D02*
X37800Y-26600D01*
G54D38*
X36750Y-27800D02*
X36850Y-27800D01*
X38300Y-29250D02*
X38300Y-30100D01*
X36850Y-27800D02*
X38300Y-29250D01*
G54D42*
X55765Y-37676D02*
X55765Y-36965D01*
X55050Y-32600D02*
X55650Y-32000D01*
X55050Y-36250D02*
X55050Y-32600D01*
X55765Y-36965D02*
X55050Y-36250D01*
G54D39*
X55650Y-32000D02*
X55650Y-31150D01*
X55650Y-31150D02*
X56700Y-30100D01*
G54D40*
X42400Y-24600D02*
X42400Y-24000D01*
X48100Y-25800D02*
X48100Y-24600D01*
X47700Y-26200D02*
X48100Y-25800D01*
X45600Y-26200D02*
X47700Y-26200D01*
X45000Y-25600D02*
X45600Y-26200D01*
X45000Y-24200D02*
X45000Y-25600D01*
X44400Y-23600D02*
X45000Y-24200D01*
X42800Y-23600D02*
X44400Y-23600D01*
X42400Y-24000D02*
X42800Y-23600D01*
X42400Y-24600D02*
X42400Y-26750D01*
X42400Y-26750D02*
X43450Y-27800D01*
G54D38*
X43450Y-27800D02*
X43450Y-27900D01*
X44950Y-29400D02*
X44950Y-30100D01*
X43450Y-27900D02*
X44950Y-29400D01*
G54D39*
X49450Y-35000D02*
X50750Y-35000D01*
X50750Y-35000D02*
X50950Y-35200D01*
G54D42*
X49765Y-37676D02*
X49765Y-36915D01*
X48600Y-32850D02*
X49450Y-32000D01*
X48600Y-35750D02*
X48600Y-32850D01*
X49765Y-36915D02*
X48600Y-35750D01*
G54D39*
X49450Y-32000D02*
X49450Y-31150D01*
X49450Y-31150D02*
X50500Y-30100D01*
X40377Y-56692D02*
X40377Y-57307D01*
X42822Y-57677D02*
X43307Y-57192D01*
X40748Y-57677D02*
X42822Y-57677D01*
X40377Y-57307D02*
X40748Y-57677D01*
X44389Y-57192D02*
X43307Y-57192D01*
X45472Y-57192D02*
X44389Y-57192D01*
X16750Y-35000D02*
X18200Y-35000D01*
X18200Y-35000D02*
X18400Y-35200D01*
G54D42*
X17615Y-37826D02*
X18673Y-37826D01*
X18450Y-32000D02*
X16750Y-32000D01*
X20350Y-33900D02*
X18450Y-32000D01*
X20350Y-36150D02*
X20350Y-33900D01*
X18673Y-37826D02*
X20350Y-36150D01*
G54D39*
X17100Y-30100D02*
X17100Y-31650D01*
X17100Y-31650D02*
X16750Y-32000D01*
G54D37*
X21600Y-47900D02*
X21600Y-46200D01*
X19450Y-50100D02*
X19450Y-50050D01*
X19450Y-50050D02*
X21600Y-47900D01*
X19450Y-50100D02*
X19191Y-50100D01*
X19964Y-54610D02*
X22086Y-54610D01*
X18503Y-53149D02*
X19964Y-54610D01*
X18503Y-50787D02*
X18503Y-53149D01*
X19191Y-50100D02*
X18503Y-50787D01*
X19450Y-50050D02*
X21600Y-47900D01*
G54D38*
X19450Y-50050D02*
X21600Y-47900D01*
G54D40*
X19450Y-50050D02*
X21600Y-47900D01*
G54D39*
X42850Y-35000D02*
X44250Y-35000D01*
X44250Y-35000D02*
X44450Y-35200D01*
G54D40*
X22400Y-24800D02*
X22400Y-23900D01*
X28300Y-25600D02*
X28300Y-24800D01*
X27800Y-26100D02*
X28300Y-25600D01*
X26000Y-26100D02*
X27800Y-26100D01*
X25400Y-25500D02*
X26000Y-26100D01*
X25400Y-25100D02*
X25400Y-25500D01*
X24000Y-23700D02*
X25400Y-25100D01*
X22600Y-23700D02*
X24000Y-23700D01*
X22400Y-23900D02*
X22600Y-23700D01*
X22400Y-24800D02*
X22400Y-26650D01*
X22400Y-26650D02*
X23550Y-27800D01*
G54D38*
X23550Y-27800D02*
X23550Y-28000D01*
X25050Y-29500D02*
X25050Y-30100D01*
X23550Y-28000D02*
X25050Y-29500D01*
G54D42*
X23115Y-37826D02*
X23115Y-37015D01*
X22000Y-32950D02*
X22950Y-32000D01*
X22000Y-35900D02*
X22000Y-32950D01*
X23115Y-37015D02*
X22000Y-35900D01*
G54D39*
X22950Y-32000D02*
X22950Y-31200D01*
X22950Y-31200D02*
X24050Y-30100D01*
X29350Y-35000D02*
X30750Y-35000D01*
X30750Y-35000D02*
X30950Y-35200D01*
G54D42*
X29465Y-37826D02*
X29465Y-36915D01*
X28300Y-33050D02*
X29350Y-32000D01*
X28300Y-35750D02*
X28300Y-33050D01*
X29465Y-36915D02*
X28300Y-35750D01*
G54D39*
X29350Y-32000D02*
X29350Y-31150D01*
X29350Y-31150D02*
X30400Y-30100D01*
G54D40*
X21400Y-24800D02*
X21400Y-24000D01*
X27300Y-24000D02*
X27300Y-24800D01*
X26600Y-23300D02*
X27300Y-24000D01*
X22100Y-23300D02*
X26600Y-23300D01*
X21400Y-24000D02*
X22100Y-23300D01*
X21400Y-24800D02*
X21400Y-25400D01*
X17550Y-26900D02*
X16650Y-27800D01*
X19900Y-26900D02*
X17550Y-26900D01*
X21400Y-25400D02*
X19900Y-26900D01*
G54D38*
X16650Y-27800D02*
X16650Y-27850D01*
X18100Y-29300D02*
X18100Y-30100D01*
X16650Y-27850D02*
X18100Y-29300D01*
G54D39*
X22950Y-35000D02*
X24350Y-35000D01*
X24350Y-35000D02*
X24550Y-35200D01*
X74606Y-52362D02*
X74606Y-52133D01*
X74606Y-52133D02*
X73744Y-51271D01*
X77814Y-55118D02*
X76574Y-55118D01*
X74606Y-53740D02*
X74606Y-52362D01*
X76574Y-55118D02*
X75787Y-54330D01*
G54D40*
X89050Y-27800D02*
X89050Y-27750D01*
X89050Y-27750D02*
X87100Y-25800D01*
X80900Y-24800D02*
X80900Y-25000D01*
X80900Y-25000D02*
X82800Y-26900D01*
X82800Y-26900D02*
X86000Y-26900D01*
X86000Y-26900D02*
X87100Y-25800D01*
X87100Y-25800D02*
X87100Y-24800D01*
G54D38*
X89050Y-27800D02*
X89100Y-27800D01*
X90600Y-29300D02*
X90600Y-30100D01*
X89100Y-27800D02*
X90600Y-29300D01*
G54D39*
X78814Y-54405D02*
X78814Y-55118D01*
X78346Y-53937D02*
X78814Y-54405D01*
X76377Y-53937D02*
X78346Y-53937D01*
G54D42*
X43015Y-37676D02*
X43015Y-36865D01*
X42000Y-32850D02*
X42850Y-32000D01*
X42000Y-35850D02*
X42000Y-32850D01*
X43015Y-36865D02*
X42000Y-35850D01*
G54D39*
X42850Y-32000D02*
X42850Y-31200D01*
X42850Y-31200D02*
X43950Y-30100D01*
X79814Y-55118D02*
X79814Y-54027D01*
X76899Y-53671D02*
X76574Y-53346D01*
X79458Y-53671D02*
X76899Y-53671D01*
X79814Y-54027D02*
X79458Y-53671D01*
G54D40*
X79900Y-24800D02*
X79900Y-24300D01*
X86100Y-25700D02*
X86100Y-24800D01*
X85500Y-26300D02*
X86100Y-25700D01*
X83200Y-26300D02*
X85500Y-26300D01*
X82800Y-25900D02*
X83200Y-26300D01*
X82800Y-24800D02*
X82800Y-25900D01*
X81700Y-23700D02*
X82800Y-24800D01*
X80500Y-23700D02*
X81700Y-23700D01*
X79900Y-24300D02*
X80500Y-23700D01*
X79900Y-24800D02*
X79900Y-25900D01*
X81800Y-27800D02*
X82450Y-27800D01*
X79900Y-25900D02*
X81800Y-27800D01*
G54D38*
X82450Y-27800D02*
X82600Y-27800D01*
X84000Y-29200D02*
X84000Y-30100D01*
X82600Y-27800D02*
X84000Y-29200D01*
G54D39*
X88550Y-35000D02*
X89950Y-35000D01*
X89950Y-35000D02*
X90150Y-35200D01*
G54D42*
X88515Y-37926D02*
X88515Y-37415D01*
X87600Y-32950D02*
X88550Y-32000D01*
X87600Y-36500D02*
X87600Y-32950D01*
X88515Y-37415D02*
X87600Y-36500D01*
G54D39*
X88550Y-32000D02*
X88550Y-31150D01*
X88550Y-31150D02*
X89600Y-30100D01*
G54D40*
X61574Y-47362D02*
X61574Y-48070D01*
X61771Y-47165D02*
X61574Y-47362D01*
X61771Y-45472D02*
X61771Y-47165D01*
X61850Y-45393D02*
X61771Y-45472D01*
G54D39*
X81511Y-42716D02*
X85244Y-42716D01*
X85244Y-42716D02*
X85834Y-43307D01*
G54D40*
X60900Y-24600D02*
X60900Y-24100D01*
X67500Y-25600D02*
X67500Y-24600D01*
X67000Y-26100D02*
X67500Y-25600D01*
X64600Y-26100D02*
X67000Y-26100D01*
X64200Y-25700D02*
X64600Y-26100D01*
X64200Y-25000D02*
X64200Y-25700D01*
X62800Y-23600D02*
X64200Y-25000D01*
X61400Y-23600D02*
X62800Y-23600D01*
X60900Y-24100D02*
X61400Y-23600D01*
X60900Y-24600D02*
X60900Y-26450D01*
X60900Y-26450D02*
X62250Y-27800D01*
G54D38*
X62250Y-27800D02*
X62350Y-27800D01*
X63750Y-29200D02*
X63750Y-30100D01*
X62350Y-27800D02*
X63750Y-29200D01*
G54D39*
X68450Y-35000D02*
X69850Y-35000D01*
X69850Y-35000D02*
X70050Y-35200D01*
G54D42*
X68450Y-32000D02*
X68450Y-32550D01*
X67550Y-36710D02*
X68765Y-37926D01*
X67550Y-33450D02*
X67550Y-36710D01*
X68450Y-32550D02*
X67550Y-33450D01*
G54D39*
X68450Y-32000D02*
X68450Y-31200D01*
X68450Y-31200D02*
X69550Y-30100D01*
G54D40*
X59900Y-24600D02*
X59900Y-24000D01*
X66500Y-23700D02*
X66500Y-24600D01*
X66000Y-23200D02*
X66500Y-23700D01*
X60700Y-23200D02*
X66000Y-23200D01*
X59900Y-24000D02*
X60700Y-23200D01*
X56150Y-27800D02*
X56150Y-27650D01*
X59900Y-26000D02*
X59900Y-24600D01*
X59200Y-26700D02*
X59900Y-26000D01*
X57100Y-26700D02*
X59200Y-26700D01*
X56150Y-27650D02*
X57100Y-26700D01*
G54D38*
X56150Y-27800D02*
X56350Y-27800D01*
X57700Y-29150D02*
X57700Y-30100D01*
X56350Y-27800D02*
X57700Y-29150D01*
G54D39*
X61650Y-35000D02*
X63050Y-35000D01*
X63050Y-35000D02*
X63250Y-35200D01*
G54D42*
X62015Y-37926D02*
X62015Y-36815D01*
X60600Y-33050D02*
X61650Y-32000D01*
X60600Y-35400D02*
X60600Y-33050D01*
X62015Y-36815D02*
X60600Y-35400D01*
G54D39*
X61650Y-32000D02*
X61650Y-31200D01*
X61650Y-31200D02*
X62750Y-30100D01*
G54D40*
X78900Y-24800D02*
X78900Y-24100D01*
X85100Y-23700D02*
X85100Y-24800D01*
X84500Y-23100D02*
X85100Y-23700D01*
X79900Y-23100D02*
X84500Y-23100D01*
X78900Y-24100D02*
X79900Y-23100D01*
X75950Y-27800D02*
X75950Y-27750D01*
X78900Y-25900D02*
X78900Y-24800D01*
X78500Y-26300D02*
X78900Y-25900D01*
X77400Y-26300D02*
X78500Y-26300D01*
X75950Y-27750D02*
X77400Y-26300D01*
G54D38*
X75950Y-27800D02*
X75950Y-27900D01*
X77450Y-29400D02*
X77450Y-30100D01*
X75950Y-27900D02*
X77450Y-29400D01*
G54D39*
X81950Y-35000D02*
X83250Y-35000D01*
X83250Y-35000D02*
X83450Y-35200D01*
G54D42*
X82015Y-37926D02*
X82015Y-37215D01*
X81100Y-32850D02*
X81950Y-32000D01*
X81100Y-36300D02*
X81100Y-32850D01*
X82015Y-37215D02*
X81100Y-36300D01*
G54D39*
X81950Y-32000D02*
X81950Y-31150D01*
X81950Y-31150D02*
X83000Y-30100D01*
X75350Y-35000D02*
X76750Y-35000D01*
X76750Y-35000D02*
X76950Y-35200D01*
G54D40*
X69050Y-27800D02*
X69050Y-26850D01*
X68500Y-26300D02*
X68500Y-24600D01*
X69050Y-26850D02*
X68500Y-26300D01*
X61900Y-24600D02*
X61900Y-25500D01*
X68150Y-26900D02*
X69050Y-27800D01*
X63300Y-26900D02*
X68150Y-26900D01*
X61900Y-25500D02*
X63300Y-26900D01*
G54D38*
X69050Y-27800D02*
X69100Y-27800D01*
X70550Y-29250D02*
X70550Y-30100D01*
X69100Y-27800D02*
X70550Y-29250D01*
G54D40*
X23400Y-24800D02*
X23400Y-25200D01*
X28750Y-26700D02*
X29300Y-27250D01*
X24900Y-26700D02*
X28750Y-26700D01*
X23400Y-25200D02*
X24900Y-26700D01*
X29300Y-24800D02*
X29300Y-27250D01*
X29300Y-27250D02*
X29850Y-27800D01*
G54D38*
X29850Y-27800D02*
X30100Y-27800D01*
X31400Y-29100D02*
X31400Y-30100D01*
X30100Y-27800D02*
X31400Y-29100D01*
G54D42*
X75515Y-37926D02*
X75515Y-37515D01*
X74700Y-32600D02*
X75400Y-31900D01*
X74700Y-36700D02*
X74700Y-32600D01*
X75515Y-37515D02*
X74700Y-36700D01*
G54D40*
X75400Y-31900D02*
X75400Y-31150D01*
X75400Y-31150D02*
X76450Y-30100D01*
G54D39*
X71751Y-42716D02*
X72751Y-42716D01*
X71751Y-45078D02*
X71751Y-42716D01*
X70570Y-46259D02*
X71751Y-45078D01*
X70744Y-50271D02*
X70744Y-49295D01*
X70744Y-49295D02*
X70267Y-48818D01*
X70744Y-51271D02*
X71366Y-51271D01*
X71653Y-49204D02*
X71267Y-48818D01*
X71653Y-50984D02*
X71653Y-49204D01*
X71366Y-51271D02*
X71653Y-50984D01*
X68996Y-51566D02*
X70448Y-51566D01*
X70448Y-51566D02*
X70744Y-51271D01*
X68996Y-51566D02*
X68996Y-50696D01*
G54D38*
X37377Y-56692D02*
X37377Y-55216D01*
G54D39*
X83751Y-47834D02*
X82216Y-47834D01*
X82216Y-47834D02*
X82011Y-47629D01*
X80118Y-51968D02*
X80118Y-50736D01*
X80118Y-50736D02*
X79011Y-49629D01*
X36250Y-35000D02*
X37550Y-35000D01*
X37550Y-35000D02*
X37750Y-35200D01*
X81102Y-51968D02*
X81102Y-50539D01*
X81102Y-50539D02*
X82011Y-49629D01*
X84751Y-47834D02*
X85433Y-47834D01*
X85433Y-47834D02*
X86417Y-46850D01*
X84751Y-46161D02*
X86106Y-46161D01*
X86106Y-46161D02*
X86417Y-45850D01*
X85834Y-44488D02*
X85834Y-45267D01*
X85834Y-45267D02*
X86417Y-45850D01*
X83464Y-44397D02*
X84456Y-44397D01*
X84547Y-44488D02*
X84834Y-44488D01*
X84456Y-44397D02*
X84547Y-44488D01*
X84834Y-44488D02*
X84834Y-43307D01*
X76082Y-47925D02*
X77279Y-47925D01*
X77279Y-47925D02*
X77460Y-47744D01*
X75590Y-46850D02*
X77354Y-46850D01*
X75000Y-47440D02*
X75590Y-46850D01*
X73917Y-47440D02*
X75000Y-47440D01*
X77354Y-46850D02*
X77460Y-46744D01*
X77460Y-46744D02*
X78897Y-46744D01*
X78897Y-46744D02*
X79011Y-46629D01*
G54D43*
X39807Y-45102D02*
X39807Y-44925D01*
X36070Y-44389D02*
X35358Y-45102D01*
X39271Y-44389D02*
X36070Y-44389D01*
X39807Y-44925D02*
X39271Y-44389D01*
G54D42*
X36465Y-37676D02*
X36465Y-36865D01*
X35300Y-32950D02*
X36250Y-32000D01*
X35300Y-35700D02*
X35300Y-32950D01*
X36465Y-36865D02*
X35300Y-35700D01*
G54D39*
X36250Y-32000D02*
X36250Y-31150D01*
X36250Y-31150D02*
X37300Y-30100D01*
G54D40*
X43400Y-24600D02*
X43400Y-25600D01*
X49050Y-26900D02*
X49100Y-26850D01*
X44700Y-26900D02*
X49050Y-26900D01*
X43400Y-25600D02*
X44700Y-26900D01*
X49100Y-24600D02*
X49100Y-26850D01*
X49100Y-26850D02*
X50050Y-27800D01*
G54D38*
X50050Y-27800D02*
X50100Y-27800D01*
X51500Y-29200D02*
X51500Y-30100D01*
X50100Y-27800D02*
X51500Y-29200D01*
G54D39*
X55650Y-35000D02*
X57050Y-35000D01*
X57050Y-35000D02*
X57250Y-35200D01*
X64960Y-52165D02*
X67322Y-52165D01*
X63635Y-49982D02*
X63635Y-50840D01*
X63635Y-50840D02*
X64960Y-52165D01*
X62885Y-48750D02*
X56885Y-48750D01*
X62885Y-48750D02*
X63635Y-49500D01*
X63635Y-49500D02*
X63635Y-49982D01*
X56885Y-48750D02*
X56385Y-48250D01*
X56385Y-48250D02*
X54885Y-48250D01*
X54885Y-45250D02*
X57135Y-45250D01*
X62064Y-44500D02*
X63135Y-45570D01*
X57885Y-44500D02*
X62064Y-44500D01*
X57135Y-45250D02*
X57885Y-44500D01*
X64901Y-47998D02*
X67263Y-47998D01*
X63135Y-45570D02*
X63135Y-46232D01*
X63135Y-46232D02*
X64901Y-47998D01*
G54D43*
X41807Y-45102D02*
X41807Y-45299D01*
X36220Y-45767D02*
X36122Y-45866D01*
X41338Y-45767D02*
X36220Y-45767D01*
X41807Y-45299D02*
X41338Y-45767D01*
X34279Y-47295D02*
X34279Y-47023D01*
X34279Y-47023D02*
X32358Y-45102D01*
X37279Y-47295D02*
X37279Y-47070D01*
X43541Y-46367D02*
X44807Y-45102D01*
X37982Y-46367D02*
X43541Y-46367D01*
X37279Y-47070D02*
X37982Y-46367D01*
X42807Y-45102D02*
X42807Y-45283D01*
X36611Y-45967D02*
X36220Y-46358D01*
X42122Y-45967D02*
X36611Y-45967D01*
X42807Y-45283D02*
X42122Y-45967D01*
X33358Y-45102D02*
X33358Y-45374D01*
X33358Y-45374D02*
X35279Y-47295D01*
X43807Y-45102D02*
X43807Y-45169D01*
X37407Y-46167D02*
X36279Y-47295D01*
X42808Y-46167D02*
X37407Y-46167D01*
X43807Y-45169D02*
X42808Y-46167D01*
X34358Y-45102D02*
X34358Y-45374D01*
X34358Y-45374D02*
X36279Y-47295D01*
G54D39*
X72925Y-55905D02*
X72925Y-56192D01*
X80814Y-55602D02*
X80814Y-55118D01*
X80511Y-55905D02*
X80814Y-55602D01*
X75984Y-55905D02*
X80511Y-55905D01*
X75393Y-56496D02*
X75984Y-55905D01*
X73228Y-56496D02*
X75393Y-56496D01*
X72925Y-56192D02*
X73228Y-56496D01*
X70744Y-52271D02*
X71661Y-52271D01*
X72342Y-52952D02*
X72342Y-55905D01*
X71661Y-52271D02*
X72342Y-52952D01*
X71759Y-55905D02*
X72342Y-55905D01*
X72342Y-55905D02*
X72925Y-55905D01*
G54D10*
G36*
X92930Y-42514D02*
X92844Y-42357D01*
X92678Y-42222D01*
X92575Y-42192D01*
X92575Y-28025D01*
X92575Y-27574D01*
X92574Y-27475D01*
X92536Y-27383D01*
X92466Y-27312D01*
X92374Y-27274D01*
X92162Y-27275D01*
X92100Y-27337D01*
X92100Y-27750D01*
X92512Y-27750D01*
X92575Y-27687D01*
X92575Y-27574D01*
X92575Y-28025D01*
X92575Y-27912D01*
X92512Y-27850D01*
X92100Y-27850D01*
X92100Y-28262D01*
X92162Y-28325D01*
X92374Y-28325D01*
X92466Y-28287D01*
X92536Y-28216D01*
X92574Y-28124D01*
X92575Y-28025D01*
X92575Y-42192D01*
X92472Y-42162D01*
X92175Y-42162D01*
X92175Y-42658D01*
X92183Y-42658D01*
X92183Y-42758D01*
X92175Y-42758D01*
X92175Y-42766D01*
X92075Y-42766D01*
X92075Y-42758D01*
X92075Y-42658D01*
X92075Y-42162D01*
X91778Y-42162D01*
X91573Y-42222D01*
X91407Y-42357D01*
X91304Y-42545D01*
X91299Y-42574D01*
X91347Y-42658D01*
X92075Y-42658D01*
X92075Y-42758D01*
X91347Y-42758D01*
X91299Y-42843D01*
X91304Y-42871D01*
X91407Y-43059D01*
X91529Y-43158D01*
X91240Y-43158D01*
X91093Y-43158D01*
X91093Y-42814D01*
X91093Y-40305D01*
X91242Y-40244D01*
X91423Y-40063D01*
X91521Y-39826D01*
X91521Y-39570D01*
X91423Y-39333D01*
X91243Y-39152D01*
X91093Y-39090D01*
X91093Y-38533D01*
X91242Y-38472D01*
X91423Y-38291D01*
X91521Y-38054D01*
X91521Y-37798D01*
X91423Y-37562D01*
X91243Y-37380D01*
X91093Y-37318D01*
X91093Y-35779D01*
X91264Y-35780D01*
X91478Y-35691D01*
X91641Y-35528D01*
X91729Y-35315D01*
X91730Y-35085D01*
X91641Y-34871D01*
X91478Y-34708D01*
X91265Y-34620D01*
X91093Y-34619D01*
X91093Y-30646D01*
X91108Y-30661D01*
X91200Y-30699D01*
X91299Y-30700D01*
X91999Y-30700D01*
X92091Y-30662D01*
X92161Y-30591D01*
X92199Y-30499D01*
X92200Y-30400D01*
X92200Y-29700D01*
X92162Y-29608D01*
X92091Y-29538D01*
X92000Y-29500D01*
X92000Y-28262D01*
X92000Y-27850D01*
X92000Y-27750D01*
X92000Y-27337D01*
X91937Y-27275D01*
X91725Y-27274D01*
X91633Y-27312D01*
X91563Y-27383D01*
X91525Y-27475D01*
X91524Y-27574D01*
X91525Y-27687D01*
X91587Y-27750D01*
X92000Y-27750D01*
X92000Y-27850D01*
X91587Y-27850D01*
X91525Y-27912D01*
X91524Y-28025D01*
X91525Y-28124D01*
X91563Y-28216D01*
X91633Y-28287D01*
X91725Y-28325D01*
X91937Y-28325D01*
X92000Y-28262D01*
X92000Y-29500D01*
X91999Y-29500D01*
X91900Y-29499D01*
X91200Y-29499D01*
X91108Y-29537D01*
X91093Y-29553D01*
X91093Y-27116D01*
X92930Y-27116D01*
X92930Y-42514D01*
X92930Y-42514D01*
G37*
G54D43*
X92930Y-42514D02*
X92844Y-42357D01*
X92678Y-42222D01*
X92575Y-42192D01*
X92575Y-28025D01*
X92575Y-27574D01*
X92574Y-27475D01*
X92536Y-27383D01*
X92466Y-27312D01*
X92374Y-27274D01*
X92162Y-27275D01*
X92100Y-27337D01*
X92100Y-27750D01*
X92512Y-27750D01*
X92575Y-27687D01*
X92575Y-27574D01*
X92575Y-28025D01*
X92575Y-27912D01*
X92512Y-27850D01*
X92100Y-27850D01*
X92100Y-28262D01*
X92162Y-28325D01*
X92374Y-28325D01*
X92466Y-28287D01*
X92536Y-28216D01*
X92574Y-28124D01*
X92575Y-28025D01*
X92575Y-42192D01*
X92472Y-42162D01*
X92175Y-42162D01*
X92175Y-42658D01*
X92183Y-42658D01*
X92183Y-42758D01*
X92175Y-42758D01*
X92175Y-42766D01*
X92075Y-42766D01*
X92075Y-42758D01*
X92075Y-42658D01*
X92075Y-42162D01*
X91778Y-42162D01*
X91573Y-42222D01*
X91407Y-42357D01*
X91304Y-42545D01*
X91299Y-42574D01*
X91347Y-42658D01*
X92075Y-42658D01*
X92075Y-42758D01*
X91347Y-42758D01*
X91299Y-42843D01*
X91304Y-42871D01*
X91407Y-43059D01*
X91529Y-43158D01*
X91240Y-43158D01*
X91093Y-43158D01*
X91093Y-42814D01*
X91093Y-40305D01*
X91242Y-40244D01*
X91423Y-40063D01*
X91521Y-39826D01*
X91521Y-39570D01*
X91423Y-39333D01*
X91243Y-39152D01*
X91093Y-39090D01*
X91093Y-38533D01*
X91242Y-38472D01*
X91423Y-38291D01*
X91521Y-38054D01*
X91521Y-37798D01*
X91423Y-37562D01*
X91243Y-37380D01*
X91093Y-37318D01*
X91093Y-35779D01*
X91264Y-35780D01*
X91478Y-35691D01*
X91641Y-35528D01*
X91729Y-35315D01*
X91730Y-35085D01*
X91641Y-34871D01*
X91478Y-34708D01*
X91265Y-34620D01*
X91093Y-34619D01*
X91093Y-30646D01*
X91108Y-30661D01*
X91200Y-30699D01*
X91299Y-30700D01*
X91999Y-30700D01*
X92091Y-30662D01*
X92161Y-30591D01*
X92199Y-30499D01*
X92200Y-30400D01*
X92200Y-29700D01*
X92162Y-29608D01*
X92091Y-29538D01*
X92000Y-29500D01*
X92000Y-28262D01*
X92000Y-27850D01*
X92000Y-27750D01*
X92000Y-27337D01*
X91937Y-27275D01*
X91725Y-27274D01*
X91633Y-27312D01*
X91563Y-27383D01*
X91525Y-27475D01*
X91524Y-27574D01*
X91525Y-27687D01*
X91587Y-27750D01*
X92000Y-27750D01*
X92000Y-27850D01*
X91587Y-27850D01*
X91525Y-27912D01*
X91524Y-28025D01*
X91525Y-28124D01*
X91563Y-28216D01*
X91633Y-28287D01*
X91725Y-28325D01*
X91937Y-28325D01*
X92000Y-28262D01*
X92000Y-29500D01*
X91999Y-29500D01*
X91900Y-29499D01*
X91200Y-29499D01*
X91108Y-29537D01*
X91093Y-29553D01*
X91093Y-27116D01*
X92930Y-27116D01*
X92930Y-42514D01*
M02*
