M48
INCH,TZ
T1C0.025
T2C0.031
T3C0.032
T4C0.039
T5C0.040
T6C0.047
T7C0.100
T8C0.138
%
G90
G05
T1
X21161Y-40748
X36122Y-45866
X36220Y-46358
X36811Y-43406
X37106Y-43996
X40551Y-50295
X43900Y-49800
X44600Y-49200
X45669Y-43799
X54600Y-43900
X54800Y-46100
X57400Y-48200
X58600Y-48100
X63800Y-56500
X77600Y-53500
X78200Y-45700
X78200Y-47000
X80500Y-46800
X80600Y-51900
X80800Y-58300
X81600Y-45800
X81700Y-51900
X83000Y-47200
X83000Y-48400
X83800Y-57300
X83900Y-53100
T2
X77000Y-48208
X77000Y-49192
X84300Y-49808
X84300Y-50792
X87008Y-50200
X87992Y-50200
X90748Y-46063
X90748Y-49311
X91732Y-46063
X91732Y-49311
T3
X16650Y-27800
X16750Y-32000
X16750Y-35000
X18400Y-35200
X19400Y-35200
X19650Y-27800
X21600Y-47900
X21600Y-50100
X22087Y-51610
X22087Y-54610
X22600Y-47900
X22600Y-50100
X22950Y-32000
X22950Y-35000
X23550Y-27800
X24409Y-46941
X24409Y-47941
X24550Y-35200
X25550Y-35200
X26550Y-27800
X27362Y-46941
X27362Y-47941
X29350Y-32000
X29350Y-35000
X29850Y-27800
X30358Y-42102
X30358Y-45102
X30950Y-35200
X31358Y-42102
X31358Y-45102
X31950Y-35200
X32358Y-42102
X32358Y-45102
X32850Y-27800
X33358Y-42102
X33358Y-45102
X34358Y-42102
X34358Y-45102
X35358Y-42102
X35358Y-45102
X36250Y-32000
X36250Y-35000
X36358Y-42102
X36358Y-45102
X36378Y-56693
X36750Y-27800
X37358Y-42102
X37358Y-45102
X37378Y-55217
X37378Y-56693
X37750Y-35200
X38378Y-56693
X38750Y-35200
X39378Y-56693
X39750Y-27800
X39807Y-42102
X39807Y-45102
X40378Y-55217
X40378Y-56693
X40807Y-42102
X40807Y-45102
X41378Y-56693
X41807Y-42102
X41807Y-45102
X42807Y-42102
X42807Y-45102
X42850Y-32000
X42850Y-35000
X43307Y-56193
X43307Y-57193
X43450Y-27800
X43807Y-42102
X43807Y-45102
X44291Y-56291
X44291Y-57291
X44450Y-35200
X44807Y-42102
X44807Y-45102
X45450Y-35200
X45472Y-56193
X45472Y-57193
X45807Y-42102
X45807Y-45102
X46450Y-27800
X46807Y-42102
X46807Y-45102
X48220Y-50984
X48220Y-53051
X49220Y-50984
X49220Y-53051
X49450Y-32000
X49450Y-35000
X50050Y-27800
X50950Y-35200
X51665Y-57480
X51950Y-35200
X52000Y-42900
X52000Y-48900
X52665Y-57480
X53000Y-42900
X53000Y-48900
X53050Y-27800
X54000Y-42900
X54000Y-48900
X55000Y-42900
X55000Y-48900
X55100Y-54600
X55100Y-55600
X55469Y-43892
X55650Y-32000
X55650Y-35000
X56000Y-42900
X56000Y-48900
X56150Y-27800
X56453Y-43892
X57000Y-42900
X57000Y-48900
X57250Y-35200
X58000Y-42900
X58000Y-48900
X58250Y-35200
X58400Y-54600
X58400Y-55600
X59000Y-42900
X59000Y-48900
X59150Y-27800
X60000Y-42900
X60000Y-48900
X61000Y-42900
X61000Y-48900
X61650Y-32000
X61650Y-35000
X61700Y-54600
X61700Y-55600
X62000Y-42900
X62000Y-48900
X62250Y-27800
X63000Y-33600
X63000Y-42900
X63000Y-48900
X63028Y-43892
X63028Y-44876
X63028Y-46924
X63028Y-47908
X64000Y-33600
X65250Y-27800
X68450Y-32000
X68450Y-35000
X69050Y-27800
X70000Y-33800
X71000Y-33800
X72050Y-27800
X75400Y-31900
X75400Y-34900
X75950Y-27800
X76200Y-45200
X76200Y-46200
X76300Y-55000
X76400Y-56200
X76500Y-52900
X76900Y-33800
X77300Y-55000
X77400Y-56200
X77500Y-45200
X77500Y-46200
X77500Y-50900
X77900Y-33800
X78500Y-52900
X78800Y-54100
X78800Y-55100
X78800Y-56100
X78800Y-57100
X78950Y-27800
X79100Y-46600
X79100Y-47600
X79100Y-48600
X79100Y-49600
X80100Y-52900
X81100Y-50900
X81800Y-54100
X81800Y-55100
X81800Y-56100
X81800Y-57100
X81950Y-32000
X81950Y-35000
X82100Y-46600
X82100Y-47600
X82100Y-48600
X82100Y-49600
X82100Y-52900
X82450Y-27800
X83100Y-55400
X83300Y-54200
X83450Y-35200
X83465Y-43398
X83465Y-44398
X83752Y-46161
X83752Y-47835
X84100Y-55400
X84300Y-54200
X84450Y-35200
X84600Y-56800
X84600Y-57900
X84752Y-46161
X84752Y-47835
X84835Y-43307
X84835Y-44488
X85450Y-27800
X85600Y-56800
X85600Y-57900
X85835Y-43307
X85835Y-44488
X85900Y-45800
X85900Y-47800
X87900Y-46800
X88550Y-32000
X88550Y-35000
X88976Y-47039
X88976Y-48039
X89050Y-27800
X90150Y-35200
X91150Y-35200
X92050Y-27800
T4
X92126Y-42709
X92126Y-43709
X92126Y-51764
X92126Y-52764
T5
X17100Y-30100
X18100Y-30100
X19100Y-30100
X19450Y-50100
X19450Y-51100
X19450Y-52100
X20400Y-24800
X21400Y-24800
X21600Y-45200
X21600Y-46200
X22400Y-24800
X23400Y-24800
X24050Y-30100
X24472Y-51083
X25050Y-30100
X25972Y-50083
X26050Y-30100
X26300Y-24800
X27008Y-42886
X27008Y-43886
X27300Y-24800
X27572Y-50083
X28300Y-24800
X29072Y-51083
X29300Y-24800
X30400Y-30100
X31400Y-30100
X32400Y-30100
X34252Y-48287
X34252Y-49272
X34252Y-51319
X34252Y-52303
X34280Y-47295
X34280Y-53295
X35280Y-47295
X35280Y-53295
X36280Y-47295
X36280Y-53295
X37280Y-47295
X37280Y-53295
X37300Y-30100
X38280Y-47295
X38280Y-53295
X38300Y-30100
X39280Y-47295
X39280Y-53295
X39300Y-30100
X40280Y-47295
X40280Y-53295
X40400Y-24600
X40827Y-52303
X41280Y-47295
X41280Y-53295
X41400Y-24600
X41811Y-52303
X42280Y-47295
X42280Y-53295
X42400Y-24600
X43280Y-47295
X43280Y-53295
X43400Y-24600
X43950Y-30100
X44280Y-47295
X44280Y-53295
X44950Y-30100
X45280Y-47295
X45280Y-53295
X45950Y-30100
X46100Y-24600
X47100Y-24600
X48100Y-24600
X48600Y-45300
X48600Y-46300
X48600Y-47300
X49100Y-24600
X50500Y-30100
X51500Y-30100
X52500Y-30100
X56700Y-30100
X57700Y-30100
X58700Y-30100
X58900Y-24600
X59900Y-24600
X60400Y-57300
X60900Y-24600
X61400Y-57300
X61900Y-24600
X62400Y-57300
X62750Y-30100
X63750Y-30100
X64750Y-30100
X65500Y-24600
X65600Y-42800
X65600Y-43800
X65600Y-44800
X65600Y-45800
X65600Y-46800
X65600Y-47800
X65600Y-48800
X65600Y-49800
X65600Y-50800
X65600Y-51800
X65600Y-52800
X65600Y-53800
X65600Y-54800
X65600Y-55800
X65600Y-56800
X65600Y-57800
X66500Y-24600
X67500Y-24600
X68500Y-24600
X69550Y-30100
X70550Y-30100
X71550Y-30100
X74600Y-42800
X74600Y-43800
X74600Y-44800
X74600Y-45800
X74600Y-46800
X74600Y-47800
X74600Y-48800
X74600Y-49800
X74600Y-50800
X74600Y-51800
X74600Y-52800
X74600Y-53800
X74600Y-54800
X74600Y-55800
X74600Y-56800
X74600Y-57800
X76200Y-42600
X76450Y-30100
X77200Y-42600
X77450Y-30100
X77900Y-24800
X78200Y-42600
X78450Y-30100
X78900Y-24800
X79500Y-42600
X79900Y-24800
X80500Y-42600
X80900Y-24800
X81500Y-42600
X83000Y-30100
X84000Y-30100
X84100Y-24800
X85000Y-30100
X85100Y-24800
X86100Y-24800
X87100Y-24800
X89600Y-30100
X90600Y-30100
X91600Y-30100
T6
X17616Y-37826
X17616Y-39598
X19978Y-37826
X19978Y-39598
X23116Y-37826
X23116Y-39598
X25478Y-37826
X25478Y-39598
X29466Y-37826
X29466Y-39598
X31828Y-37826
X31828Y-39598
X36466Y-37676
X36466Y-39448
X38828Y-37676
X38828Y-39448
X43016Y-37676
X43016Y-39448
X45378Y-37676
X45378Y-39448
X49766Y-37676
X49766Y-39448
X52128Y-37676
X52128Y-39448
X53276Y-51022
X53276Y-53384
X55048Y-51022
X55048Y-53384
X55766Y-37676
X55766Y-39448
X56676Y-51022
X56676Y-53384
X58128Y-37676
X58128Y-39448
X58448Y-51022
X58448Y-53384
X59876Y-51022
X59876Y-53384
X61648Y-51022
X61648Y-53384
X62016Y-36076
X62016Y-37848
X64378Y-36076
X64378Y-37848
X68716Y-36076
X68716Y-37848
X71078Y-36076
X71078Y-37848
X75416Y-36076
X75416Y-37848
X77778Y-36076
X77778Y-37848
X82016Y-37926
X82016Y-39698
X84378Y-37926
X84378Y-39698
X88516Y-37926
X88516Y-39698
X90878Y-37926
X90878Y-39698
T7
X17481Y-51100
T8
X18000Y-25750
X18000Y-57394
X90963Y-57492
X91750Y-25750
T0
M30
