G04 (created by PCBNEW (2013-07-07 BZR 4022)-stable) date 26/01/2015 11:31:22*
%MOIN*%
G04 Gerber Fmt 3.4, Leading zero omitted, Abs format*
%FSLAX34Y34*%
G01*
G70*
G90*
G04 APERTURE LIST*
%ADD10C,0.00590551*%
%ADD11C,0.011811*%
%ADD12R,0.055X0.055*%
%ADD13C,0.055*%
%ADD14C,0.0787402*%
%ADD15R,0.06X0.12*%
%ADD16O,0.06X0.13*%
%ADD17O,0.06X0.12*%
%ADD18R,0.065X0.065*%
%ADD19C,0.065*%
%ADD20C,0.07*%
%ADD21R,0.07X0.07*%
%ADD22R,0.12X0.12*%
%ADD23C,0.066*%
%ADD24R,0.06X0.06*%
%ADD25C,0.06*%
%ADD26R,0.0393701X0.0393701*%
%ADD27C,0.0472441*%
%ADD28C,0.137795*%
%ADD29R,0.09X0.062*%
%ADD30O,0.09X0.062*%
%ADD31O,0.1187X0.0593*%
%ADD32R,0.1X0.0590551*%
G04 APERTURE END LIST*
G54D10*
G54D11*
X18181Y-40635D02*
X18968Y-40734D01*
X18593Y-40687D02*
X18593Y-41137D01*
X18181Y-41085D02*
X18968Y-41183D01*
X18181Y-41797D02*
X18593Y-41849D01*
X18668Y-41821D01*
X18706Y-41751D01*
X18706Y-41601D01*
X18668Y-41521D01*
X18218Y-41802D02*
X18181Y-41722D01*
X18181Y-41535D01*
X18218Y-41465D01*
X18293Y-41437D01*
X18368Y-41446D01*
X18443Y-41493D01*
X18481Y-41572D01*
X18481Y-41760D01*
X18518Y-41840D01*
X18218Y-42515D02*
X18181Y-42435D01*
X18181Y-42285D01*
X18218Y-42215D01*
X18256Y-42182D01*
X18331Y-42154D01*
X18556Y-42182D01*
X18631Y-42229D01*
X18668Y-42271D01*
X18706Y-42351D01*
X18706Y-42500D01*
X18668Y-42571D01*
X18181Y-42847D02*
X18968Y-42946D01*
X18481Y-42960D02*
X18181Y-43147D01*
X18706Y-43213D02*
X18406Y-42875D01*
X18218Y-43789D02*
X18181Y-43710D01*
X18181Y-43560D01*
X18218Y-43489D01*
X18293Y-43461D01*
X18593Y-43499D01*
X18668Y-43546D01*
X18706Y-43625D01*
X18706Y-43775D01*
X18668Y-43846D01*
X18593Y-43874D01*
X18518Y-43864D01*
X18443Y-43480D01*
X18181Y-44160D02*
X18706Y-44225D01*
X18556Y-44207D02*
X18631Y-44253D01*
X18668Y-44296D01*
X18706Y-44375D01*
X18706Y-44450D01*
X18218Y-44614D02*
X18181Y-44685D01*
X18181Y-44835D01*
X18218Y-44914D01*
X18293Y-44961D01*
X18331Y-44966D01*
X18406Y-44938D01*
X18443Y-44867D01*
X18443Y-44755D01*
X18481Y-44685D01*
X18556Y-44656D01*
X18593Y-44661D01*
X18668Y-44708D01*
X18706Y-44788D01*
X18706Y-44900D01*
X18668Y-44970D01*
X18706Y-45350D02*
X17918Y-45252D01*
X18668Y-45345D02*
X18706Y-45425D01*
X18706Y-45575D01*
X18668Y-45645D01*
X18631Y-45678D01*
X18556Y-45706D01*
X18331Y-45678D01*
X18256Y-45631D01*
X18218Y-45589D01*
X18181Y-45509D01*
X18181Y-45360D01*
X18218Y-45289D01*
X18181Y-46334D02*
X18593Y-46386D01*
X18668Y-46358D01*
X18706Y-46288D01*
X18706Y-46138D01*
X18668Y-46058D01*
X18218Y-46339D02*
X18181Y-46259D01*
X18181Y-46072D01*
X18218Y-46002D01*
X18293Y-45973D01*
X18368Y-45983D01*
X18443Y-46030D01*
X18481Y-46109D01*
X18481Y-46297D01*
X18518Y-46377D01*
X18218Y-47051D02*
X18181Y-46972D01*
X18181Y-46822D01*
X18218Y-46752D01*
X18256Y-46719D01*
X18331Y-46691D01*
X18556Y-46719D01*
X18631Y-46766D01*
X18668Y-46808D01*
X18706Y-46887D01*
X18706Y-47037D01*
X18668Y-47108D01*
X18218Y-47689D02*
X18181Y-47609D01*
X18181Y-47459D01*
X18218Y-47389D01*
X18293Y-47361D01*
X18593Y-47398D01*
X18668Y-47445D01*
X18706Y-47525D01*
X18706Y-47675D01*
X18668Y-47745D01*
X18593Y-47773D01*
X18518Y-47764D01*
X18443Y-47380D01*
X17035Y-42575D02*
X16998Y-42533D01*
X16960Y-42416D01*
X16960Y-42341D01*
X16998Y-42233D01*
X17073Y-42168D01*
X17148Y-42140D01*
X17298Y-42121D01*
X17410Y-42135D01*
X17560Y-42191D01*
X17635Y-42238D01*
X17710Y-42322D01*
X17748Y-42440D01*
X17748Y-42515D01*
X17710Y-42622D01*
X17673Y-42655D01*
X16960Y-42904D02*
X17748Y-43002D01*
X16960Y-43241D02*
X17373Y-43293D01*
X17448Y-43264D01*
X17485Y-43194D01*
X17485Y-43082D01*
X17448Y-43002D01*
X17410Y-42960D01*
X16960Y-43728D02*
X16998Y-43658D01*
X17035Y-43625D01*
X17110Y-43597D01*
X17335Y-43625D01*
X17410Y-43672D01*
X17448Y-43714D01*
X17485Y-43794D01*
X17485Y-43907D01*
X17448Y-43977D01*
X17410Y-44010D01*
X17335Y-44038D01*
X17110Y-44010D01*
X17035Y-43963D01*
X16998Y-43921D01*
X16960Y-43841D01*
X16960Y-43728D01*
X16960Y-44441D02*
X16998Y-44371D01*
X17073Y-44342D01*
X17748Y-44427D01*
X17485Y-45144D02*
X16960Y-45078D01*
X17485Y-44806D02*
X17073Y-44755D01*
X16998Y-44783D01*
X16960Y-44853D01*
X16960Y-44966D01*
X16998Y-45045D01*
X17035Y-45088D01*
X16960Y-45566D02*
X16998Y-45495D01*
X17073Y-45467D01*
X17748Y-45552D01*
X16960Y-46203D02*
X17373Y-46255D01*
X17448Y-46227D01*
X17485Y-46156D01*
X17485Y-46006D01*
X17448Y-45927D01*
X16998Y-46208D02*
X16960Y-46128D01*
X16960Y-45941D01*
X16998Y-45870D01*
X17073Y-45842D01*
X17148Y-45852D01*
X17223Y-45899D01*
X17260Y-45978D01*
X17260Y-46166D01*
X17298Y-46245D01*
G54D12*
X83900Y-47100D03*
G54D13*
X84900Y-47100D03*
G54D14*
X62015Y-36076D03*
X64377Y-36076D03*
X62015Y-37848D03*
X64377Y-37848D03*
G54D15*
X79500Y-42600D03*
X80500Y-42600D03*
G54D16*
X81500Y-42600D03*
G54D17*
X24471Y-51082D03*
X25971Y-50082D03*
G54D15*
X29071Y-51082D03*
X27571Y-50082D03*
G54D18*
X45279Y-47295D03*
G54D19*
X44279Y-47295D03*
X43279Y-47295D03*
X42279Y-47295D03*
X41279Y-47295D03*
X40279Y-47295D03*
X39279Y-47295D03*
X38279Y-47295D03*
X37279Y-47295D03*
X36279Y-47295D03*
X35279Y-47295D03*
X34279Y-47295D03*
X34251Y-48287D03*
X34251Y-49271D03*
X34251Y-51318D03*
X34251Y-52303D03*
X34279Y-53295D03*
X35279Y-53295D03*
X36279Y-53295D03*
X37279Y-53295D03*
X38279Y-53295D03*
X39279Y-53295D03*
X40279Y-53295D03*
X41279Y-53295D03*
X42279Y-53295D03*
X43279Y-53295D03*
X44279Y-53295D03*
X45279Y-53295D03*
G54D20*
X41811Y-52303D03*
X40826Y-52303D03*
X19450Y-52100D03*
X19450Y-51100D03*
G54D21*
X19450Y-50100D03*
G54D22*
X17481Y-51100D03*
G54D13*
X49450Y-35000D03*
X49450Y-32000D03*
X16750Y-35000D03*
X16750Y-32000D03*
X22950Y-35000D03*
X22950Y-32000D03*
X29350Y-35000D03*
X29350Y-32000D03*
X36250Y-35000D03*
X36250Y-32000D03*
X42850Y-35000D03*
X42850Y-32000D03*
X88550Y-35000D03*
X88550Y-32000D03*
X81950Y-35000D03*
X81950Y-32000D03*
X55650Y-35000D03*
X55650Y-32000D03*
X61650Y-35000D03*
X61650Y-32000D03*
X68450Y-35000D03*
X68450Y-32000D03*
G54D23*
X30950Y-35200D03*
X31950Y-35200D03*
X37750Y-35200D03*
X38750Y-35200D03*
X24550Y-35200D03*
X25550Y-35200D03*
X90150Y-35200D03*
X91150Y-35200D03*
X70000Y-33800D03*
X71000Y-33800D03*
X18400Y-35200D03*
X19400Y-35200D03*
X44450Y-35200D03*
X45450Y-35200D03*
X83450Y-35200D03*
X84450Y-35200D03*
X50950Y-35200D03*
X51950Y-35200D03*
X63000Y-33600D03*
X64000Y-33600D03*
X57250Y-35200D03*
X58250Y-35200D03*
G54D12*
X46450Y-27800D03*
G54D13*
X43450Y-27800D03*
G54D12*
X85450Y-27800D03*
G54D13*
X82450Y-27800D03*
G54D12*
X65250Y-27800D03*
G54D13*
X62250Y-27800D03*
G54D12*
X19650Y-27800D03*
G54D13*
X16650Y-27800D03*
G54D12*
X26550Y-27800D03*
G54D13*
X23550Y-27800D03*
G54D12*
X92050Y-27800D03*
G54D13*
X89050Y-27800D03*
G54D12*
X78950Y-27800D03*
G54D13*
X75950Y-27800D03*
G54D12*
X59150Y-27800D03*
G54D13*
X56150Y-27800D03*
G54D12*
X32850Y-27800D03*
G54D13*
X29850Y-27800D03*
G54D12*
X72050Y-27800D03*
G54D13*
X69050Y-27800D03*
G54D12*
X39750Y-27800D03*
G54D13*
X36750Y-27800D03*
G54D12*
X53050Y-27800D03*
G54D13*
X50050Y-27800D03*
G54D20*
X37300Y-30100D03*
X38300Y-30100D03*
G54D21*
X39300Y-30100D03*
G54D20*
X89600Y-30100D03*
X90600Y-30100D03*
G54D21*
X91600Y-30100D03*
G54D20*
X17100Y-30100D03*
X18100Y-30100D03*
G54D21*
X19100Y-30100D03*
G54D20*
X24050Y-30100D03*
X25050Y-30100D03*
G54D21*
X26050Y-30100D03*
G54D20*
X30400Y-30100D03*
X31400Y-30100D03*
G54D21*
X32400Y-30100D03*
G54D20*
X43950Y-30100D03*
X44950Y-30100D03*
G54D21*
X45950Y-30100D03*
G54D20*
X50500Y-30100D03*
X51500Y-30100D03*
G54D21*
X52500Y-30100D03*
G54D20*
X56700Y-30100D03*
X57700Y-30100D03*
G54D21*
X58700Y-30100D03*
G54D20*
X62750Y-30100D03*
X63750Y-30100D03*
G54D21*
X64750Y-30100D03*
G54D20*
X69550Y-30100D03*
X70550Y-30100D03*
G54D21*
X71550Y-30100D03*
G54D20*
X76450Y-30100D03*
X77450Y-30100D03*
G54D21*
X78450Y-30100D03*
G54D20*
X83000Y-30100D03*
X84000Y-30100D03*
G54D21*
X85000Y-30100D03*
G54D12*
X21600Y-50100D03*
G54D13*
X22600Y-50100D03*
G54D12*
X21600Y-47900D03*
G54D13*
X22600Y-47900D03*
G54D24*
X21600Y-45200D03*
G54D25*
X21600Y-46200D03*
G54D14*
X88515Y-37926D03*
X90877Y-37926D03*
X88515Y-39698D03*
X90877Y-39698D03*
X43015Y-37676D03*
X45377Y-37676D03*
X43015Y-39448D03*
X45377Y-39448D03*
X82015Y-37926D03*
X84377Y-37926D03*
X82015Y-39698D03*
X84377Y-39698D03*
X49765Y-37676D03*
X52127Y-37676D03*
X49765Y-39448D03*
X52127Y-39448D03*
X36465Y-37676D03*
X38827Y-37676D03*
X36465Y-39448D03*
X38827Y-39448D03*
X75415Y-36076D03*
X77777Y-36076D03*
X75415Y-37848D03*
X77777Y-37848D03*
X55765Y-37676D03*
X58127Y-37676D03*
X55765Y-39448D03*
X58127Y-39448D03*
X29465Y-37826D03*
X31827Y-37826D03*
X29465Y-39598D03*
X31827Y-39598D03*
X23115Y-37826D03*
X25477Y-37826D03*
X23115Y-39598D03*
X25477Y-39598D03*
X68715Y-36076D03*
X71077Y-36076D03*
X68715Y-37848D03*
X71077Y-37848D03*
X17615Y-37826D03*
X19977Y-37826D03*
X17615Y-39598D03*
X19977Y-39598D03*
G54D13*
X88976Y-48039D03*
X88976Y-47039D03*
G54D12*
X51665Y-57480D03*
G54D13*
X52665Y-57480D03*
G54D26*
X90748Y-46062D03*
G54D27*
X91732Y-46062D03*
G54D26*
X90748Y-49311D03*
G54D27*
X91732Y-49311D03*
G54D13*
X75400Y-34900D03*
X75400Y-31900D03*
G54D17*
X23400Y-24800D03*
X22400Y-24800D03*
X21400Y-24800D03*
G54D15*
X20400Y-24800D03*
G54D17*
X29300Y-24800D03*
X28300Y-24800D03*
X27300Y-24800D03*
G54D15*
X26300Y-24800D03*
G54D17*
X43400Y-24600D03*
X42400Y-24600D03*
X41400Y-24600D03*
G54D15*
X40400Y-24600D03*
G54D17*
X49100Y-24600D03*
X48100Y-24600D03*
X47100Y-24600D03*
G54D15*
X46100Y-24600D03*
G54D17*
X61900Y-24600D03*
X60900Y-24600D03*
X59900Y-24600D03*
G54D15*
X58900Y-24600D03*
G54D17*
X68500Y-24600D03*
X67500Y-24600D03*
X66500Y-24600D03*
G54D15*
X65500Y-24600D03*
G54D17*
X80900Y-24800D03*
X79900Y-24800D03*
X78900Y-24800D03*
G54D15*
X77900Y-24800D03*
G54D17*
X87100Y-24800D03*
X86100Y-24800D03*
X85100Y-24800D03*
G54D15*
X84100Y-24800D03*
G54D12*
X46807Y-42102D03*
G54D13*
X45807Y-42102D03*
X44807Y-42102D03*
X43807Y-42102D03*
X42807Y-42102D03*
X41807Y-42102D03*
X40807Y-42102D03*
X39807Y-42102D03*
X39807Y-45102D03*
X40807Y-45102D03*
X41807Y-45102D03*
X42807Y-45102D03*
X43807Y-45102D03*
X44807Y-45102D03*
X45807Y-45102D03*
X46807Y-45102D03*
G54D12*
X37358Y-42102D03*
G54D13*
X36358Y-42102D03*
X35358Y-42102D03*
X34358Y-42102D03*
X33358Y-42102D03*
X32358Y-42102D03*
X31358Y-42102D03*
X30358Y-42102D03*
X30358Y-45102D03*
X31358Y-45102D03*
X32358Y-45102D03*
X33358Y-45102D03*
X34358Y-45102D03*
X35358Y-45102D03*
X36358Y-45102D03*
X37358Y-45102D03*
G54D14*
X59876Y-53384D03*
X59876Y-51022D03*
X61648Y-53384D03*
X61648Y-51022D03*
X56676Y-53384D03*
X56676Y-51022D03*
X58448Y-53384D03*
X58448Y-51022D03*
X53276Y-53384D03*
X53276Y-51022D03*
X55048Y-53384D03*
X55048Y-51022D03*
G54D12*
X22086Y-51610D03*
G54D13*
X22086Y-54610D03*
G54D24*
X27007Y-43885D03*
G54D25*
X27007Y-42885D03*
G54D12*
X48220Y-50984D03*
G54D13*
X49220Y-50984D03*
G54D12*
X48220Y-53051D03*
G54D13*
X49220Y-53051D03*
G54D23*
X76900Y-33800D03*
X77900Y-33800D03*
G54D28*
X90962Y-57492D03*
X18000Y-57393D03*
X91750Y-25750D03*
X18000Y-25750D03*
G54D12*
X36377Y-56692D03*
G54D13*
X37377Y-56692D03*
X38377Y-56692D03*
X39377Y-56692D03*
X40377Y-56692D03*
X41377Y-56692D03*
X40377Y-55216D03*
X37377Y-55216D03*
G54D29*
X78800Y-54100D03*
G54D30*
X78800Y-55100D03*
X78800Y-56100D03*
X78800Y-57100D03*
X81800Y-57100D03*
X81800Y-56100D03*
X81800Y-55100D03*
X81800Y-54100D03*
G54D26*
X87992Y-50200D03*
G54D27*
X87007Y-50200D03*
G54D13*
X77300Y-55000D03*
X76300Y-55000D03*
X85600Y-56800D03*
X84600Y-56800D03*
X84600Y-57900D03*
X85600Y-57900D03*
X76400Y-56200D03*
X77400Y-56200D03*
G54D31*
X92125Y-43708D03*
X92125Y-42708D03*
X92125Y-52763D03*
X92125Y-51763D03*
G54D26*
X76507Y-45500D03*
G54D27*
X77492Y-45500D03*
G54D13*
X24409Y-46940D03*
X24409Y-47940D03*
X27362Y-46940D03*
X27362Y-47940D03*
X45472Y-56192D03*
X45472Y-57192D03*
X44291Y-57291D03*
X44291Y-56291D03*
X43307Y-56192D03*
X43307Y-57192D03*
G54D15*
X78200Y-42600D03*
G54D17*
X77200Y-42600D03*
G54D16*
X76200Y-42600D03*
G54D32*
X74600Y-57800D03*
X74600Y-56800D03*
X74600Y-55800D03*
X74600Y-54800D03*
X74600Y-53800D03*
X74600Y-52800D03*
X74600Y-51800D03*
X74600Y-50800D03*
X74600Y-49800D03*
X74600Y-48800D03*
X74600Y-47800D03*
X74600Y-46800D03*
X74600Y-45800D03*
X74600Y-44800D03*
X74600Y-43800D03*
X74600Y-42800D03*
X65600Y-42800D03*
X65600Y-43800D03*
X65600Y-44800D03*
X65600Y-45800D03*
X65600Y-46800D03*
X65600Y-47800D03*
X65600Y-48800D03*
X65600Y-49800D03*
X65600Y-50800D03*
X65600Y-51800D03*
X65600Y-52800D03*
X65600Y-53800D03*
X65600Y-54800D03*
X65600Y-55800D03*
X65600Y-56800D03*
X65600Y-57800D03*
G54D13*
X61700Y-55600D03*
X61700Y-54600D03*
X58400Y-55600D03*
X58400Y-54600D03*
X55100Y-55600D03*
X55100Y-54600D03*
X83300Y-54200D03*
X84300Y-54200D03*
X84100Y-55400D03*
X83100Y-55400D03*
G54D12*
X52000Y-48900D03*
G54D13*
X53000Y-48900D03*
X54000Y-48900D03*
X55000Y-48900D03*
X56000Y-48900D03*
X57000Y-48900D03*
X58000Y-48900D03*
X59000Y-48900D03*
X60000Y-48900D03*
X61000Y-48900D03*
X62000Y-48900D03*
X63000Y-48900D03*
X63027Y-47907D03*
X63027Y-46923D03*
X63027Y-44876D03*
X63027Y-43892D03*
X63000Y-42900D03*
X62000Y-42900D03*
X61000Y-42900D03*
X60000Y-42900D03*
X59000Y-42900D03*
X58000Y-42900D03*
X57000Y-42900D03*
X56000Y-42900D03*
X55000Y-42900D03*
X54000Y-42900D03*
X53000Y-42900D03*
X52000Y-42900D03*
G54D20*
X55468Y-43892D03*
X56452Y-43892D03*
G54D24*
X60400Y-57300D03*
G54D25*
X61400Y-57300D03*
X62400Y-57300D03*
G54D24*
X48600Y-47300D03*
G54D25*
X48600Y-46300D03*
X48600Y-45300D03*
G54D13*
X76500Y-52900D03*
X78500Y-52900D03*
X77500Y-50900D03*
X80100Y-52900D03*
X82100Y-52900D03*
X81100Y-50900D03*
X85300Y-42100D03*
X83300Y-42100D03*
X84300Y-44100D03*
X86453Y-52753D03*
X85746Y-52046D03*
X82600Y-45200D03*
X83600Y-45200D03*
G54D29*
X79200Y-46300D03*
G54D30*
X79200Y-47300D03*
X79200Y-48300D03*
X79200Y-49300D03*
X82200Y-49300D03*
X82200Y-48300D03*
X82200Y-47300D03*
X82200Y-46300D03*
G54D12*
X83400Y-50000D03*
G54D13*
X84400Y-50000D03*
X84800Y-51800D03*
X83800Y-51800D03*
G54D24*
X77600Y-49300D03*
G54D25*
X77600Y-48300D03*
M02*
