G04 (created by PCBNEW (2013-07-07 BZR 4022)-stable) date 11/09/2014 13:11:16*
%MOIN*%
G04 Gerber Fmt 3.4, Leading zero omitted, Abs format*
%FSLAX34Y34*%
G01*
G70*
G90*
G04 APERTURE LIST*
%ADD10C,0.00590551*%
%ADD11C,0.00787402*%
%ADD12C,0.011811*%
%ADD13C,0.00984252*%
%ADD14C,0.012*%
%ADD15C,0.015*%
%ADD16C,0.008*%
%ADD17C,0.003*%
%ADD18C,0.01*%
%ADD19C,0.006*%
%ADD20C,0.005*%
%ADD21C,0.01125*%
%ADD22C,0.0035*%
%ADD23C,0.0075*%
%ADD24C,0.0107*%
%ADD25R,0.055X0.055*%
%ADD26C,0.055*%
%ADD27R,0.065X0.065*%
%ADD28C,0.065*%
%ADD29C,0.07*%
%ADD30R,0.07X0.07*%
%ADD31R,0.12X0.12*%
%ADD32C,0.066*%
%ADD33R,0.1X0.1*%
%ADD34C,0.1*%
%ADD35C,0.095*%
%ADD36R,0.06X0.06*%
%ADD37C,0.06*%
%ADD38C,0.0787402*%
%ADD39R,0.0393701X0.0393701*%
%ADD40C,0.0472441*%
%ADD41O,0.06X0.12*%
%ADD42R,0.06X0.12*%
%ADD43C,0.137795*%
G04 APERTURE END LIST*
G54D10*
G54D11*
X92651Y-57000D02*
G75*
G03X92651Y-57000I-901J0D01*
G74*
G01*
X92651Y-25750D02*
G75*
G03X92651Y-25750I-901J0D01*
G74*
G01*
X18790Y-25750D02*
G75*
G03X18790Y-25750I-790J0D01*
G74*
G01*
X18901Y-57000D02*
G75*
G03X18901Y-57000I-901J0D01*
G74*
G01*
X73250Y-23000D02*
X73250Y-40250D01*
X54000Y-23000D02*
X54000Y-40250D01*
X34750Y-22750D02*
X34750Y-40250D01*
G54D12*
X82417Y-42320D02*
X82698Y-42320D01*
X82361Y-42489D02*
X82557Y-41898D01*
X82754Y-42489D01*
X83204Y-42095D02*
X83204Y-42489D01*
X82951Y-42095D02*
X82951Y-42404D01*
X82979Y-42460D01*
X83035Y-42489D01*
X83120Y-42489D01*
X83176Y-42460D01*
X83204Y-42432D01*
X83739Y-42489D02*
X83739Y-41898D01*
X83739Y-42460D02*
X83682Y-42489D01*
X83570Y-42489D01*
X83514Y-42460D01*
X83485Y-42432D01*
X83457Y-42376D01*
X83457Y-42207D01*
X83485Y-42151D01*
X83514Y-42123D01*
X83570Y-42095D01*
X83682Y-42095D01*
X83739Y-42123D01*
X84020Y-42489D02*
X84020Y-42095D01*
X84020Y-41898D02*
X83992Y-41926D01*
X84020Y-41954D01*
X84048Y-41926D01*
X84020Y-41898D01*
X84020Y-41954D01*
X84385Y-42489D02*
X84329Y-42460D01*
X84301Y-42432D01*
X84273Y-42376D01*
X84273Y-42207D01*
X84301Y-42151D01*
X84329Y-42123D01*
X84385Y-42095D01*
X84470Y-42095D01*
X84526Y-42123D01*
X84554Y-42151D01*
X84582Y-42207D01*
X84582Y-42376D01*
X84554Y-42432D01*
X84526Y-42460D01*
X84470Y-42489D01*
X84385Y-42489D01*
X80134Y-41489D02*
X79796Y-41489D01*
X79965Y-41489D02*
X79965Y-40898D01*
X79909Y-40982D01*
X79853Y-41039D01*
X79796Y-41067D01*
X80359Y-40954D02*
X80387Y-40926D01*
X80443Y-40898D01*
X80584Y-40898D01*
X80640Y-40926D01*
X80668Y-40954D01*
X80696Y-41010D01*
X80696Y-41067D01*
X80668Y-41151D01*
X80331Y-41489D01*
X80696Y-41489D01*
X80865Y-40898D02*
X81062Y-41489D01*
X81259Y-40898D01*
X77550Y-41926D02*
X77493Y-41898D01*
X77409Y-41898D01*
X77325Y-41926D01*
X77268Y-41982D01*
X77240Y-42039D01*
X77212Y-42151D01*
X77212Y-42235D01*
X77240Y-42348D01*
X77268Y-42404D01*
X77325Y-42460D01*
X77409Y-42489D01*
X77465Y-42489D01*
X77550Y-42460D01*
X77578Y-42432D01*
X77578Y-42235D01*
X77465Y-42235D01*
X77831Y-42489D02*
X77831Y-41898D01*
X78168Y-42489D01*
X78168Y-41898D01*
X78449Y-42489D02*
X78449Y-41898D01*
X78590Y-41898D01*
X78674Y-41926D01*
X78731Y-41982D01*
X78759Y-42039D01*
X78787Y-42151D01*
X78787Y-42235D01*
X78759Y-42348D01*
X78731Y-42404D01*
X78674Y-42460D01*
X78590Y-42489D01*
X78449Y-42489D01*
X68517Y-44215D02*
X68517Y-43624D01*
X68714Y-44046D01*
X68911Y-43624D01*
X68911Y-44215D01*
X69192Y-44215D02*
X69192Y-43624D01*
X69417Y-43624D01*
X69474Y-43652D01*
X69502Y-43681D01*
X69530Y-43737D01*
X69530Y-43821D01*
X69502Y-43877D01*
X69474Y-43906D01*
X69417Y-43934D01*
X69192Y-43934D01*
X69727Y-43624D02*
X70092Y-43624D01*
X69895Y-43849D01*
X69980Y-43849D01*
X70036Y-43877D01*
X70064Y-43906D01*
X70092Y-43962D01*
X70092Y-44102D01*
X70064Y-44159D01*
X70036Y-44187D01*
X69980Y-44215D01*
X69811Y-44215D01*
X69755Y-44187D01*
X69727Y-44159D01*
X70767Y-44187D02*
X70852Y-44215D01*
X70992Y-44215D01*
X71048Y-44187D01*
X71077Y-44159D01*
X71105Y-44102D01*
X71105Y-44046D01*
X71077Y-43990D01*
X71048Y-43962D01*
X70992Y-43934D01*
X70880Y-43906D01*
X70823Y-43877D01*
X70795Y-43849D01*
X70767Y-43793D01*
X70767Y-43737D01*
X70795Y-43681D01*
X70823Y-43652D01*
X70880Y-43624D01*
X71020Y-43624D01*
X71105Y-43652D01*
X71358Y-43821D02*
X71358Y-44412D01*
X71358Y-43849D02*
X71414Y-43821D01*
X71526Y-43821D01*
X71583Y-43849D01*
X71611Y-43877D01*
X71639Y-43934D01*
X71639Y-44102D01*
X71611Y-44159D01*
X71583Y-44187D01*
X71526Y-44215D01*
X71414Y-44215D01*
X71358Y-44187D01*
X72117Y-44187D02*
X72061Y-44215D01*
X71948Y-44215D01*
X71892Y-44187D01*
X71864Y-44131D01*
X71864Y-43906D01*
X71892Y-43849D01*
X71948Y-43821D01*
X72061Y-43821D01*
X72117Y-43849D01*
X72145Y-43906D01*
X72145Y-43962D01*
X71864Y-44018D01*
X72651Y-44215D02*
X72651Y-43906D01*
X72623Y-43849D01*
X72567Y-43821D01*
X72455Y-43821D01*
X72398Y-43849D01*
X72651Y-44187D02*
X72595Y-44215D01*
X72455Y-44215D01*
X72398Y-44187D01*
X72370Y-44131D01*
X72370Y-44074D01*
X72398Y-44018D01*
X72455Y-43990D01*
X72595Y-43990D01*
X72651Y-43962D01*
X72933Y-44215D02*
X72933Y-43624D01*
X72989Y-43990D02*
X73158Y-44215D01*
X73158Y-43821D02*
X72933Y-44046D01*
X73636Y-44187D02*
X73579Y-44215D01*
X73467Y-44215D01*
X73411Y-44187D01*
X73383Y-44131D01*
X73383Y-43906D01*
X73411Y-43849D01*
X73467Y-43821D01*
X73579Y-43821D01*
X73636Y-43849D01*
X73664Y-43906D01*
X73664Y-43962D01*
X73383Y-44018D01*
X73917Y-44215D02*
X73917Y-43821D01*
X73917Y-43934D02*
X73945Y-43877D01*
X73973Y-43849D01*
X74029Y-43821D01*
X74086Y-43821D01*
X72817Y-41723D02*
X72761Y-41695D01*
X72677Y-41695D01*
X72592Y-41723D01*
X72536Y-41780D01*
X72508Y-41836D01*
X72480Y-41948D01*
X72480Y-42033D01*
X72508Y-42145D01*
X72536Y-42201D01*
X72592Y-42258D01*
X72677Y-42286D01*
X72733Y-42286D01*
X72817Y-42258D01*
X72845Y-42230D01*
X72845Y-42033D01*
X72733Y-42033D01*
X73098Y-42286D02*
X73098Y-41695D01*
X73436Y-42286D01*
X73436Y-41695D01*
X73717Y-42286D02*
X73717Y-41695D01*
X73858Y-41695D01*
X73942Y-41723D01*
X73998Y-41780D01*
X74026Y-41836D01*
X74055Y-41948D01*
X74055Y-42033D01*
X74026Y-42145D01*
X73998Y-42201D01*
X73942Y-42258D01*
X73858Y-42286D01*
X73717Y-42286D01*
X69128Y-43309D02*
X69128Y-42719D01*
X69325Y-43141D01*
X69521Y-42719D01*
X69521Y-43309D01*
X69803Y-43309D02*
X69803Y-42719D01*
X70028Y-42719D01*
X70084Y-42747D01*
X70112Y-42775D01*
X70140Y-42831D01*
X70140Y-42916D01*
X70112Y-42972D01*
X70084Y-43000D01*
X70028Y-43028D01*
X69803Y-43028D01*
X70337Y-42719D02*
X70703Y-42719D01*
X70506Y-42944D01*
X70590Y-42944D01*
X70646Y-42972D01*
X70674Y-43000D01*
X70703Y-43056D01*
X70703Y-43197D01*
X70674Y-43253D01*
X70646Y-43281D01*
X70590Y-43309D01*
X70421Y-43309D01*
X70365Y-43281D01*
X70337Y-43253D01*
X71518Y-42719D02*
X71631Y-42719D01*
X71687Y-42747D01*
X71743Y-42803D01*
X71771Y-42916D01*
X71771Y-43113D01*
X71743Y-43225D01*
X71687Y-43281D01*
X71631Y-43309D01*
X71518Y-43309D01*
X71462Y-43281D01*
X71406Y-43225D01*
X71377Y-43113D01*
X71377Y-42916D01*
X71406Y-42803D01*
X71462Y-42747D01*
X71518Y-42719D01*
X72277Y-42916D02*
X72277Y-43309D01*
X72024Y-42916D02*
X72024Y-43225D01*
X72052Y-43281D01*
X72109Y-43309D01*
X72193Y-43309D01*
X72249Y-43281D01*
X72277Y-43253D01*
X72474Y-42916D02*
X72699Y-42916D01*
X72559Y-42719D02*
X72559Y-43225D01*
X72587Y-43281D01*
X72643Y-43309D01*
X72699Y-43309D01*
X72896Y-42916D02*
X72896Y-43506D01*
X72896Y-42944D02*
X72952Y-42916D01*
X73065Y-42916D01*
X73121Y-42944D01*
X73149Y-42972D01*
X73177Y-43028D01*
X73177Y-43197D01*
X73149Y-43253D01*
X73121Y-43281D01*
X73065Y-43309D01*
X72952Y-43309D01*
X72896Y-43281D01*
X73683Y-42916D02*
X73683Y-43309D01*
X73430Y-42916D02*
X73430Y-43225D01*
X73458Y-43281D01*
X73515Y-43309D01*
X73599Y-43309D01*
X73655Y-43281D01*
X73683Y-43253D01*
X73880Y-42916D02*
X74105Y-42916D01*
X73965Y-42719D02*
X73965Y-43225D01*
X73993Y-43281D01*
X74049Y-43309D01*
X74105Y-43309D01*
X64786Y-42865D02*
X64730Y-42837D01*
X64645Y-42837D01*
X64561Y-42865D01*
X64505Y-42921D01*
X64476Y-42978D01*
X64448Y-43090D01*
X64448Y-43174D01*
X64476Y-43287D01*
X64505Y-43343D01*
X64561Y-43399D01*
X64645Y-43428D01*
X64701Y-43428D01*
X64786Y-43399D01*
X64814Y-43371D01*
X64814Y-43174D01*
X64701Y-43174D01*
X65067Y-43428D02*
X65067Y-42837D01*
X65404Y-43428D01*
X65404Y-42837D01*
X65686Y-43428D02*
X65686Y-42837D01*
X65826Y-42837D01*
X65911Y-42865D01*
X65967Y-42921D01*
X65995Y-42978D01*
X66023Y-43090D01*
X66023Y-43174D01*
X65995Y-43287D01*
X65967Y-43343D01*
X65911Y-43399D01*
X65826Y-43428D01*
X65686Y-43428D01*
X63740Y-42100D02*
X64190Y-42100D01*
X63965Y-42325D02*
X63965Y-41875D01*
X64415Y-41735D02*
X64780Y-41735D01*
X64583Y-41960D01*
X64668Y-41960D01*
X64724Y-41988D01*
X64752Y-42016D01*
X64780Y-42072D01*
X64780Y-42213D01*
X64752Y-42269D01*
X64724Y-42297D01*
X64668Y-42325D01*
X64499Y-42325D01*
X64443Y-42297D01*
X64415Y-42269D01*
X65033Y-42269D02*
X65061Y-42297D01*
X65033Y-42325D01*
X65005Y-42297D01*
X65033Y-42269D01*
X65033Y-42325D01*
X65258Y-41735D02*
X65624Y-41735D01*
X65427Y-41960D01*
X65511Y-41960D01*
X65568Y-41988D01*
X65596Y-42016D01*
X65624Y-42072D01*
X65624Y-42213D01*
X65596Y-42269D01*
X65568Y-42297D01*
X65511Y-42325D01*
X65343Y-42325D01*
X65286Y-42297D01*
X65258Y-42269D01*
X65793Y-41735D02*
X65989Y-42325D01*
X66186Y-41735D01*
X24983Y-42629D02*
X24926Y-42601D01*
X24842Y-42601D01*
X24758Y-42629D01*
X24701Y-42685D01*
X24673Y-42741D01*
X24645Y-42854D01*
X24645Y-42938D01*
X24673Y-43051D01*
X24701Y-43107D01*
X24758Y-43163D01*
X24842Y-43191D01*
X24898Y-43191D01*
X24983Y-43163D01*
X25011Y-43135D01*
X25011Y-42938D01*
X24898Y-42938D01*
X25264Y-43191D02*
X25264Y-42601D01*
X25601Y-43191D01*
X25601Y-42601D01*
X25883Y-43191D02*
X25883Y-42601D01*
X26023Y-42601D01*
X26107Y-42629D01*
X26164Y-42685D01*
X26192Y-42741D01*
X26220Y-42854D01*
X26220Y-42938D01*
X26192Y-43051D01*
X26164Y-43107D01*
X26107Y-43163D01*
X26023Y-43191D01*
X25883Y-43191D01*
X24634Y-44029D02*
X25084Y-44029D01*
X24859Y-44254D02*
X24859Y-43804D01*
X25646Y-43664D02*
X25365Y-43664D01*
X25337Y-43945D01*
X25365Y-43917D01*
X25421Y-43889D01*
X25562Y-43889D01*
X25618Y-43917D01*
X25646Y-43945D01*
X25674Y-44001D01*
X25674Y-44142D01*
X25646Y-44198D01*
X25618Y-44226D01*
X25562Y-44254D01*
X25421Y-44254D01*
X25365Y-44226D01*
X25337Y-44198D01*
X25843Y-43664D02*
X26040Y-44254D01*
X26237Y-43664D01*
X30478Y-52246D02*
X30196Y-52246D01*
X30168Y-52528D01*
X30196Y-52500D01*
X30253Y-52471D01*
X30393Y-52471D01*
X30449Y-52500D01*
X30478Y-52528D01*
X30506Y-52584D01*
X30506Y-52724D01*
X30478Y-52781D01*
X30449Y-52809D01*
X30393Y-52837D01*
X30253Y-52837D01*
X30196Y-52809D01*
X30168Y-52781D01*
X30674Y-52246D02*
X30871Y-52837D01*
X31068Y-52246D01*
X29904Y-54715D02*
X29848Y-54687D01*
X29763Y-54687D01*
X29679Y-54715D01*
X29623Y-54772D01*
X29595Y-54828D01*
X29566Y-54940D01*
X29566Y-55025D01*
X29595Y-55137D01*
X29623Y-55194D01*
X29679Y-55250D01*
X29763Y-55278D01*
X29820Y-55278D01*
X29904Y-55250D01*
X29932Y-55222D01*
X29932Y-55025D01*
X29820Y-55025D01*
X30185Y-55278D02*
X30185Y-54687D01*
X30523Y-55278D01*
X30523Y-54687D01*
X30804Y-55278D02*
X30804Y-54687D01*
X30944Y-54687D01*
X31029Y-54715D01*
X31085Y-54772D01*
X31113Y-54828D01*
X31141Y-54940D01*
X31141Y-55025D01*
X31113Y-55137D01*
X31085Y-55194D01*
X31029Y-55250D01*
X30944Y-55278D01*
X30804Y-55278D01*
X26802Y-55289D02*
X26886Y-55317D01*
X27027Y-55317D01*
X27083Y-55289D01*
X27111Y-55261D01*
X27140Y-55205D01*
X27140Y-55149D01*
X27111Y-55092D01*
X27083Y-55064D01*
X27027Y-55036D01*
X26915Y-55008D01*
X26858Y-54980D01*
X26830Y-54952D01*
X26802Y-54895D01*
X26802Y-54839D01*
X26830Y-54783D01*
X26858Y-54755D01*
X26915Y-54727D01*
X27055Y-54727D01*
X27140Y-54755D01*
X27393Y-55317D02*
X27393Y-54727D01*
X27533Y-54727D01*
X27618Y-54755D01*
X27674Y-54811D01*
X27702Y-54867D01*
X27730Y-54980D01*
X27730Y-55064D01*
X27702Y-55177D01*
X27674Y-55233D01*
X27618Y-55289D01*
X27533Y-55317D01*
X27393Y-55317D01*
X27955Y-55149D02*
X28236Y-55149D01*
X27899Y-55317D02*
X28096Y-54727D01*
X28293Y-55317D01*
X27097Y-56093D02*
X27379Y-56093D01*
X27041Y-56262D02*
X27238Y-55672D01*
X27435Y-56262D01*
X27913Y-55672D02*
X27632Y-55672D01*
X27604Y-55953D01*
X27632Y-55925D01*
X27688Y-55897D01*
X27829Y-55897D01*
X27885Y-55925D01*
X27913Y-55953D01*
X27941Y-56009D01*
X27941Y-56150D01*
X27913Y-56206D01*
X27885Y-56234D01*
X27829Y-56262D01*
X27688Y-56262D01*
X27632Y-56234D01*
X27604Y-56206D01*
X23824Y-55329D02*
X23908Y-55357D01*
X24049Y-55357D01*
X24105Y-55329D01*
X24133Y-55300D01*
X24161Y-55244D01*
X24161Y-55188D01*
X24133Y-55132D01*
X24105Y-55104D01*
X24049Y-55075D01*
X23937Y-55047D01*
X23880Y-55019D01*
X23852Y-54991D01*
X23824Y-54935D01*
X23824Y-54879D01*
X23852Y-54822D01*
X23880Y-54794D01*
X23937Y-54766D01*
X24077Y-54766D01*
X24161Y-54794D01*
X24752Y-55300D02*
X24724Y-55329D01*
X24640Y-55357D01*
X24583Y-55357D01*
X24499Y-55329D01*
X24443Y-55272D01*
X24415Y-55216D01*
X24386Y-55104D01*
X24386Y-55019D01*
X24415Y-54907D01*
X24443Y-54850D01*
X24499Y-54794D01*
X24583Y-54766D01*
X24640Y-54766D01*
X24724Y-54794D01*
X24752Y-54822D01*
X25286Y-55357D02*
X25005Y-55357D01*
X25005Y-54766D01*
X24105Y-56133D02*
X24386Y-56133D01*
X24049Y-56302D02*
X24246Y-55711D01*
X24443Y-56302D01*
X24893Y-55908D02*
X24893Y-56302D01*
X24752Y-55683D02*
X24611Y-56105D01*
X24977Y-56105D01*
X80518Y-53989D02*
X80321Y-53707D01*
X80181Y-53989D02*
X80181Y-53398D01*
X80406Y-53398D01*
X80462Y-53426D01*
X80490Y-53454D01*
X80518Y-53510D01*
X80518Y-53595D01*
X80490Y-53651D01*
X80462Y-53679D01*
X80406Y-53707D01*
X80181Y-53707D01*
X80996Y-53960D02*
X80940Y-53989D01*
X80828Y-53989D01*
X80771Y-53960D01*
X80743Y-53904D01*
X80743Y-53679D01*
X80771Y-53623D01*
X80828Y-53595D01*
X80940Y-53595D01*
X80996Y-53623D01*
X81025Y-53679D01*
X81025Y-53735D01*
X80743Y-53792D01*
X81250Y-53960D02*
X81306Y-53989D01*
X81418Y-53989D01*
X81474Y-53960D01*
X81503Y-53904D01*
X81503Y-53876D01*
X81474Y-53820D01*
X81418Y-53792D01*
X81334Y-53792D01*
X81278Y-53764D01*
X81250Y-53707D01*
X81250Y-53679D01*
X81278Y-53623D01*
X81334Y-53595D01*
X81418Y-53595D01*
X81474Y-53623D01*
X81981Y-53960D02*
X81924Y-53989D01*
X81812Y-53989D01*
X81756Y-53960D01*
X81728Y-53904D01*
X81728Y-53679D01*
X81756Y-53623D01*
X81812Y-53595D01*
X81924Y-53595D01*
X81981Y-53623D01*
X82009Y-53679D01*
X82009Y-53735D01*
X81728Y-53792D01*
X82178Y-53595D02*
X82402Y-53595D01*
X82262Y-53398D02*
X82262Y-53904D01*
X82290Y-53960D01*
X82346Y-53989D01*
X82402Y-53989D01*
X80420Y-50739D02*
X80420Y-50148D01*
X80757Y-50739D01*
X80757Y-50148D01*
X81264Y-50710D02*
X81207Y-50739D01*
X81095Y-50739D01*
X81039Y-50710D01*
X81010Y-50654D01*
X81010Y-50429D01*
X81039Y-50373D01*
X81095Y-50345D01*
X81207Y-50345D01*
X81264Y-50373D01*
X81292Y-50429D01*
X81292Y-50485D01*
X81010Y-50542D01*
X81489Y-50739D02*
X81798Y-50345D01*
X81489Y-50345D02*
X81798Y-50739D01*
X81938Y-50345D02*
X82163Y-50345D01*
X82023Y-50148D02*
X82023Y-50654D01*
X82051Y-50710D01*
X82107Y-50739D01*
X82163Y-50739D01*
X80154Y-47489D02*
X80154Y-46898D01*
X80379Y-46898D01*
X80436Y-46926D01*
X80464Y-46954D01*
X80492Y-47010D01*
X80492Y-47095D01*
X80464Y-47151D01*
X80436Y-47179D01*
X80379Y-47207D01*
X80154Y-47207D01*
X80829Y-47489D02*
X80773Y-47460D01*
X80745Y-47404D01*
X80745Y-46898D01*
X81307Y-47489D02*
X81307Y-47179D01*
X81279Y-47123D01*
X81223Y-47095D01*
X81111Y-47095D01*
X81054Y-47123D01*
X81307Y-47460D02*
X81251Y-47489D01*
X81111Y-47489D01*
X81054Y-47460D01*
X81026Y-47404D01*
X81026Y-47348D01*
X81054Y-47292D01*
X81111Y-47264D01*
X81251Y-47264D01*
X81307Y-47235D01*
X81532Y-47095D02*
X81673Y-47489D01*
X81814Y-47095D02*
X81673Y-47489D01*
X81617Y-47629D01*
X81589Y-47657D01*
X81532Y-47685D01*
X82460Y-46870D02*
X81954Y-47629D01*
X82629Y-47460D02*
X82714Y-47489D01*
X82854Y-47489D01*
X82910Y-47460D01*
X82938Y-47432D01*
X82967Y-47376D01*
X82967Y-47320D01*
X82938Y-47264D01*
X82910Y-47235D01*
X82854Y-47207D01*
X82742Y-47179D01*
X82685Y-47151D01*
X82657Y-47123D01*
X82629Y-47067D01*
X82629Y-47010D01*
X82657Y-46954D01*
X82685Y-46926D01*
X82742Y-46898D01*
X82882Y-46898D01*
X82967Y-46926D01*
X83135Y-47095D02*
X83360Y-47095D01*
X83220Y-46898D02*
X83220Y-47404D01*
X83248Y-47460D01*
X83304Y-47489D01*
X83360Y-47489D01*
X83642Y-47489D02*
X83585Y-47460D01*
X83557Y-47432D01*
X83529Y-47376D01*
X83529Y-47207D01*
X83557Y-47151D01*
X83585Y-47123D01*
X83642Y-47095D01*
X83726Y-47095D01*
X83782Y-47123D01*
X83810Y-47151D01*
X83838Y-47207D01*
X83838Y-47376D01*
X83810Y-47432D01*
X83782Y-47460D01*
X83726Y-47489D01*
X83642Y-47489D01*
X84091Y-47095D02*
X84091Y-47685D01*
X84091Y-47123D02*
X84148Y-47095D01*
X84260Y-47095D01*
X84316Y-47123D01*
X84345Y-47151D01*
X84373Y-47207D01*
X84373Y-47376D01*
X84345Y-47432D01*
X84316Y-47460D01*
X84260Y-47489D01*
X84148Y-47489D01*
X84091Y-47460D01*
G54D10*
X72212Y-53159D02*
X72081Y-52971D01*
X71987Y-53159D02*
X71987Y-52765D01*
X72137Y-52765D01*
X72175Y-52784D01*
X72193Y-52803D01*
X72212Y-52840D01*
X72212Y-52896D01*
X72193Y-52934D01*
X72175Y-52953D01*
X72137Y-52971D01*
X71987Y-52971D01*
X72531Y-53140D02*
X72493Y-53159D01*
X72418Y-53159D01*
X72381Y-53140D01*
X72362Y-53103D01*
X72362Y-52953D01*
X72381Y-52915D01*
X72418Y-52896D01*
X72493Y-52896D01*
X72531Y-52915D01*
X72550Y-52953D01*
X72550Y-52990D01*
X72362Y-53028D01*
X72700Y-53140D02*
X72737Y-53159D01*
X72812Y-53159D01*
X72849Y-53140D01*
X72868Y-53103D01*
X72868Y-53084D01*
X72849Y-53046D01*
X72812Y-53028D01*
X72756Y-53028D01*
X72718Y-53009D01*
X72700Y-52971D01*
X72700Y-52953D01*
X72718Y-52915D01*
X72756Y-52896D01*
X72812Y-52896D01*
X72849Y-52915D01*
X73187Y-53140D02*
X73149Y-53159D01*
X73074Y-53159D01*
X73037Y-53140D01*
X73018Y-53103D01*
X73018Y-52953D01*
X73037Y-52915D01*
X73074Y-52896D01*
X73149Y-52896D01*
X73187Y-52915D01*
X73206Y-52953D01*
X73206Y-52990D01*
X73018Y-53028D01*
X73318Y-52896D02*
X73468Y-52896D01*
X73374Y-52765D02*
X73374Y-53103D01*
X73393Y-53140D01*
X73431Y-53159D01*
X73468Y-53159D01*
X64840Y-51153D02*
X64896Y-51171D01*
X64915Y-51190D01*
X64934Y-51228D01*
X64934Y-51284D01*
X64915Y-51321D01*
X64896Y-51340D01*
X64859Y-51359D01*
X64709Y-51359D01*
X64709Y-50965D01*
X64840Y-50965D01*
X64878Y-50984D01*
X64896Y-51003D01*
X64915Y-51040D01*
X64915Y-51078D01*
X64896Y-51115D01*
X64878Y-51134D01*
X64840Y-51153D01*
X64709Y-51153D01*
X65271Y-51096D02*
X65271Y-51359D01*
X65103Y-51096D02*
X65103Y-51303D01*
X65121Y-51340D01*
X65159Y-51359D01*
X65215Y-51359D01*
X65253Y-51340D01*
X65271Y-51321D01*
X65440Y-51340D02*
X65478Y-51359D01*
X65553Y-51359D01*
X65590Y-51340D01*
X65609Y-51303D01*
X65609Y-51284D01*
X65590Y-51246D01*
X65553Y-51228D01*
X65496Y-51228D01*
X65459Y-51209D01*
X65440Y-51171D01*
X65440Y-51153D01*
X65459Y-51115D01*
X65496Y-51096D01*
X65553Y-51096D01*
X65590Y-51115D01*
X65740Y-51096D02*
X65834Y-51359D01*
X65928Y-51096D02*
X65834Y-51359D01*
X65796Y-51453D01*
X65778Y-51471D01*
X65740Y-51490D01*
X73165Y-46421D02*
X73146Y-46440D01*
X73090Y-46459D01*
X73053Y-46459D01*
X72996Y-46440D01*
X72959Y-46403D01*
X72940Y-46365D01*
X72921Y-46290D01*
X72921Y-46234D01*
X72940Y-46159D01*
X72959Y-46121D01*
X72996Y-46084D01*
X73053Y-46065D01*
X73090Y-46065D01*
X73146Y-46084D01*
X73165Y-46103D01*
X73521Y-46459D02*
X73334Y-46459D01*
X73334Y-46065D01*
X73653Y-46459D02*
X73653Y-46065D01*
X73878Y-46459D02*
X73709Y-46234D01*
X73878Y-46065D02*
X73653Y-46290D01*
X64728Y-46459D02*
X64728Y-46065D01*
X64821Y-46065D01*
X64878Y-46084D01*
X64915Y-46121D01*
X64934Y-46159D01*
X64953Y-46234D01*
X64953Y-46290D01*
X64934Y-46365D01*
X64915Y-46403D01*
X64878Y-46440D01*
X64821Y-46459D01*
X64728Y-46459D01*
X65290Y-46459D02*
X65290Y-46253D01*
X65271Y-46215D01*
X65234Y-46196D01*
X65159Y-46196D01*
X65121Y-46215D01*
X65290Y-46440D02*
X65253Y-46459D01*
X65159Y-46459D01*
X65121Y-46440D01*
X65103Y-46403D01*
X65103Y-46365D01*
X65121Y-46328D01*
X65159Y-46309D01*
X65253Y-46309D01*
X65290Y-46290D01*
X65421Y-46196D02*
X65571Y-46196D01*
X65478Y-46065D02*
X65478Y-46403D01*
X65496Y-46440D01*
X65534Y-46459D01*
X65571Y-46459D01*
X65871Y-46459D02*
X65871Y-46253D01*
X65853Y-46215D01*
X65815Y-46196D01*
X65740Y-46196D01*
X65703Y-46215D01*
X65871Y-46440D02*
X65834Y-46459D01*
X65740Y-46459D01*
X65703Y-46440D01*
X65684Y-46403D01*
X65684Y-46365D01*
X65703Y-46328D01*
X65740Y-46309D01*
X65834Y-46309D01*
X65871Y-46290D01*
G54D13*
X87193Y-23465D02*
X87006Y-23465D01*
X86987Y-23653D01*
X87006Y-23634D01*
X87043Y-23615D01*
X87137Y-23615D01*
X87174Y-23634D01*
X87193Y-23653D01*
X87212Y-23690D01*
X87212Y-23784D01*
X87193Y-23821D01*
X87174Y-23840D01*
X87137Y-23859D01*
X87043Y-23859D01*
X87006Y-23840D01*
X86987Y-23821D01*
X86174Y-23465D02*
X86100Y-23465D01*
X86062Y-23484D01*
X86043Y-23503D01*
X86006Y-23559D01*
X85987Y-23634D01*
X85987Y-23784D01*
X86006Y-23821D01*
X86025Y-23840D01*
X86062Y-23859D01*
X86137Y-23859D01*
X86174Y-23840D01*
X86193Y-23821D01*
X86212Y-23784D01*
X86212Y-23690D01*
X86193Y-23653D01*
X86174Y-23634D01*
X86137Y-23615D01*
X86062Y-23615D01*
X86025Y-23634D01*
X86006Y-23653D01*
X85987Y-23690D01*
X84968Y-23465D02*
X85231Y-23465D01*
X85062Y-23859D01*
X84062Y-23634D02*
X84025Y-23615D01*
X84006Y-23596D01*
X83987Y-23559D01*
X83987Y-23540D01*
X84006Y-23503D01*
X84025Y-23484D01*
X84062Y-23465D01*
X84137Y-23465D01*
X84174Y-23484D01*
X84193Y-23503D01*
X84212Y-23540D01*
X84212Y-23559D01*
X84193Y-23596D01*
X84174Y-23615D01*
X84137Y-23634D01*
X84062Y-23634D01*
X84025Y-23653D01*
X84006Y-23671D01*
X83987Y-23709D01*
X83987Y-23784D01*
X84006Y-23821D01*
X84025Y-23840D01*
X84062Y-23859D01*
X84137Y-23859D01*
X84174Y-23840D01*
X84193Y-23821D01*
X84212Y-23784D01*
X84212Y-23709D01*
X84193Y-23671D01*
X84174Y-23653D01*
X84137Y-23634D01*
X81012Y-23859D02*
X80787Y-23859D01*
X80900Y-23859D02*
X80900Y-23465D01*
X80862Y-23521D01*
X80825Y-23559D01*
X80787Y-23578D01*
X79787Y-23503D02*
X79806Y-23484D01*
X79843Y-23465D01*
X79937Y-23465D01*
X79974Y-23484D01*
X79993Y-23503D01*
X80012Y-23540D01*
X80012Y-23578D01*
X79993Y-23634D01*
X79768Y-23859D01*
X80012Y-23859D01*
X78768Y-23465D02*
X79012Y-23465D01*
X78881Y-23615D01*
X78937Y-23615D01*
X78974Y-23634D01*
X78993Y-23653D01*
X79012Y-23690D01*
X79012Y-23784D01*
X78993Y-23821D01*
X78974Y-23840D01*
X78937Y-23859D01*
X78825Y-23859D01*
X78787Y-23840D01*
X78768Y-23821D01*
X77974Y-23596D02*
X77974Y-23859D01*
X77881Y-23446D02*
X77787Y-23728D01*
X78031Y-23728D01*
X68200Y-23303D02*
X68218Y-23284D01*
X68256Y-23265D01*
X68350Y-23265D01*
X68387Y-23284D01*
X68406Y-23303D01*
X68425Y-23340D01*
X68425Y-23378D01*
X68406Y-23434D01*
X68181Y-23659D01*
X68425Y-23659D01*
X68781Y-23265D02*
X68593Y-23265D01*
X68574Y-23453D01*
X68593Y-23434D01*
X68631Y-23415D01*
X68724Y-23415D01*
X68762Y-23434D01*
X68781Y-23453D01*
X68799Y-23490D01*
X68799Y-23584D01*
X68781Y-23621D01*
X68762Y-23640D01*
X68724Y-23659D01*
X68631Y-23659D01*
X68593Y-23640D01*
X68574Y-23621D01*
X67100Y-23303D02*
X67118Y-23284D01*
X67156Y-23265D01*
X67250Y-23265D01*
X67287Y-23284D01*
X67306Y-23303D01*
X67325Y-23340D01*
X67325Y-23378D01*
X67306Y-23434D01*
X67081Y-23659D01*
X67325Y-23659D01*
X67662Y-23396D02*
X67662Y-23659D01*
X67568Y-23246D02*
X67474Y-23528D01*
X67718Y-23528D01*
X66100Y-23303D02*
X66118Y-23284D01*
X66156Y-23265D01*
X66250Y-23265D01*
X66287Y-23284D01*
X66306Y-23303D01*
X66325Y-23340D01*
X66325Y-23378D01*
X66306Y-23434D01*
X66081Y-23659D01*
X66325Y-23659D01*
X66456Y-23265D02*
X66699Y-23265D01*
X66568Y-23415D01*
X66624Y-23415D01*
X66662Y-23434D01*
X66681Y-23453D01*
X66699Y-23490D01*
X66699Y-23584D01*
X66681Y-23621D01*
X66662Y-23640D01*
X66624Y-23659D01*
X66512Y-23659D01*
X66474Y-23640D01*
X66456Y-23621D01*
X65200Y-23303D02*
X65218Y-23284D01*
X65256Y-23265D01*
X65350Y-23265D01*
X65387Y-23284D01*
X65406Y-23303D01*
X65425Y-23340D01*
X65425Y-23378D01*
X65406Y-23434D01*
X65181Y-23659D01*
X65425Y-23659D01*
X65574Y-23303D02*
X65593Y-23284D01*
X65631Y-23265D01*
X65724Y-23265D01*
X65762Y-23284D01*
X65781Y-23303D01*
X65799Y-23340D01*
X65799Y-23378D01*
X65781Y-23434D01*
X65556Y-23659D01*
X65799Y-23659D01*
X61825Y-23659D02*
X61900Y-23659D01*
X61937Y-23640D01*
X61956Y-23621D01*
X61993Y-23565D01*
X62012Y-23490D01*
X62012Y-23340D01*
X61993Y-23303D01*
X61974Y-23284D01*
X61937Y-23265D01*
X61862Y-23265D01*
X61825Y-23284D01*
X61806Y-23303D01*
X61787Y-23340D01*
X61787Y-23434D01*
X61806Y-23471D01*
X61825Y-23490D01*
X61862Y-23509D01*
X61937Y-23509D01*
X61974Y-23490D01*
X61993Y-23471D01*
X62012Y-23434D01*
X60825Y-23659D02*
X60600Y-23659D01*
X60712Y-23659D02*
X60712Y-23265D01*
X60675Y-23321D01*
X60637Y-23359D01*
X60600Y-23378D01*
X61068Y-23265D02*
X61106Y-23265D01*
X61143Y-23284D01*
X61162Y-23303D01*
X61181Y-23340D01*
X61199Y-23415D01*
X61199Y-23509D01*
X61181Y-23584D01*
X61162Y-23621D01*
X61143Y-23640D01*
X61106Y-23659D01*
X61068Y-23659D01*
X61031Y-23640D01*
X61012Y-23621D01*
X60993Y-23584D01*
X60974Y-23509D01*
X60974Y-23415D01*
X60993Y-23340D01*
X61012Y-23303D01*
X61031Y-23284D01*
X61068Y-23265D01*
X59825Y-23659D02*
X59600Y-23659D01*
X59712Y-23659D02*
X59712Y-23265D01*
X59675Y-23321D01*
X59637Y-23359D01*
X59600Y-23378D01*
X60199Y-23659D02*
X59974Y-23659D01*
X60087Y-23659D02*
X60087Y-23265D01*
X60049Y-23321D01*
X60012Y-23359D01*
X59974Y-23378D01*
X49193Y-23265D02*
X49006Y-23265D01*
X48987Y-23453D01*
X49006Y-23434D01*
X49043Y-23415D01*
X49137Y-23415D01*
X49174Y-23434D01*
X49193Y-23453D01*
X49212Y-23490D01*
X49212Y-23584D01*
X49193Y-23621D01*
X49174Y-23640D01*
X49137Y-23659D01*
X49043Y-23659D01*
X49006Y-23640D01*
X48987Y-23621D01*
X48174Y-23265D02*
X48100Y-23265D01*
X48062Y-23284D01*
X48043Y-23303D01*
X48006Y-23359D01*
X47987Y-23434D01*
X47987Y-23584D01*
X48006Y-23621D01*
X48025Y-23640D01*
X48062Y-23659D01*
X48137Y-23659D01*
X48174Y-23640D01*
X48193Y-23621D01*
X48212Y-23584D01*
X48212Y-23490D01*
X48193Y-23453D01*
X48174Y-23434D01*
X48137Y-23415D01*
X48062Y-23415D01*
X48025Y-23434D01*
X48006Y-23453D01*
X47987Y-23490D01*
X43512Y-23659D02*
X43287Y-23659D01*
X43400Y-23659D02*
X43400Y-23265D01*
X43362Y-23321D01*
X43325Y-23359D01*
X43287Y-23378D01*
X42287Y-23303D02*
X42306Y-23284D01*
X42343Y-23265D01*
X42437Y-23265D01*
X42474Y-23284D01*
X42493Y-23303D01*
X42512Y-23340D01*
X42512Y-23378D01*
X42493Y-23434D01*
X42268Y-23659D01*
X42512Y-23659D01*
X41268Y-23265D02*
X41512Y-23265D01*
X41381Y-23415D01*
X41437Y-23415D01*
X41474Y-23434D01*
X41493Y-23453D01*
X41512Y-23490D01*
X41512Y-23584D01*
X41493Y-23621D01*
X41474Y-23640D01*
X41437Y-23659D01*
X41325Y-23659D01*
X41287Y-23640D01*
X41268Y-23621D01*
X29225Y-23859D02*
X29300Y-23859D01*
X29337Y-23840D01*
X29356Y-23821D01*
X29393Y-23765D01*
X29412Y-23690D01*
X29412Y-23540D01*
X29393Y-23503D01*
X29374Y-23484D01*
X29337Y-23465D01*
X29262Y-23465D01*
X29225Y-23484D01*
X29206Y-23503D01*
X29187Y-23540D01*
X29187Y-23634D01*
X29206Y-23671D01*
X29225Y-23690D01*
X29262Y-23709D01*
X29337Y-23709D01*
X29374Y-23690D01*
X29393Y-23671D01*
X29412Y-23634D01*
X28225Y-23859D02*
X28000Y-23859D01*
X28112Y-23859D02*
X28112Y-23465D01*
X28075Y-23521D01*
X28037Y-23559D01*
X28000Y-23578D01*
X28468Y-23465D02*
X28506Y-23465D01*
X28543Y-23484D01*
X28562Y-23503D01*
X28581Y-23540D01*
X28599Y-23615D01*
X28599Y-23709D01*
X28581Y-23784D01*
X28562Y-23821D01*
X28543Y-23840D01*
X28506Y-23859D01*
X28468Y-23859D01*
X28431Y-23840D01*
X28412Y-23821D01*
X28393Y-23784D01*
X28374Y-23709D01*
X28374Y-23615D01*
X28393Y-23540D01*
X28412Y-23503D01*
X28431Y-23484D01*
X28468Y-23465D01*
X27225Y-23859D02*
X27000Y-23859D01*
X27112Y-23859D02*
X27112Y-23465D01*
X27075Y-23521D01*
X27037Y-23559D01*
X27000Y-23578D01*
X27599Y-23859D02*
X27374Y-23859D01*
X27487Y-23859D02*
X27487Y-23465D01*
X27449Y-23521D01*
X27412Y-23559D01*
X27374Y-23578D01*
X26225Y-23859D02*
X26000Y-23859D01*
X26112Y-23859D02*
X26112Y-23465D01*
X26075Y-23521D01*
X26037Y-23559D01*
X26000Y-23578D01*
X26374Y-23503D02*
X26393Y-23484D01*
X26431Y-23465D01*
X26524Y-23465D01*
X26562Y-23484D01*
X26581Y-23503D01*
X26599Y-23540D01*
X26599Y-23578D01*
X26581Y-23634D01*
X26356Y-23859D01*
X26599Y-23859D01*
G54D12*
X88349Y-23976D02*
X88293Y-23948D01*
X88209Y-23948D01*
X88124Y-23976D01*
X88068Y-24032D01*
X88040Y-24089D01*
X88012Y-24201D01*
X88012Y-24285D01*
X88040Y-24398D01*
X88068Y-24454D01*
X88124Y-24510D01*
X88209Y-24539D01*
X88265Y-24539D01*
X88349Y-24510D01*
X88378Y-24482D01*
X88378Y-24285D01*
X88265Y-24285D01*
X88631Y-24539D02*
X88631Y-24145D01*
X88631Y-24257D02*
X88659Y-24201D01*
X88687Y-24173D01*
X88743Y-24145D01*
X88799Y-24145D01*
X89249Y-24145D02*
X89249Y-24539D01*
X88996Y-24145D02*
X88996Y-24454D01*
X89024Y-24510D01*
X89081Y-24539D01*
X89165Y-24539D01*
X89221Y-24510D01*
X89249Y-24482D01*
X89531Y-24145D02*
X89531Y-24735D01*
X89531Y-24173D02*
X89587Y-24145D01*
X89699Y-24145D01*
X89756Y-24173D01*
X89784Y-24201D01*
X89812Y-24257D01*
X89812Y-24426D01*
X89784Y-24482D01*
X89756Y-24510D01*
X89699Y-24539D01*
X89587Y-24539D01*
X89531Y-24510D01*
X90149Y-24539D02*
X90093Y-24510D01*
X90065Y-24482D01*
X90037Y-24426D01*
X90037Y-24257D01*
X90065Y-24201D01*
X90093Y-24173D01*
X90149Y-24145D01*
X90234Y-24145D01*
X90290Y-24173D01*
X90318Y-24201D01*
X90346Y-24257D01*
X90346Y-24426D01*
X90318Y-24482D01*
X90290Y-24510D01*
X90234Y-24539D01*
X90149Y-24539D01*
X91049Y-24539D02*
X91049Y-23948D01*
X91049Y-24229D02*
X91387Y-24229D01*
X91387Y-24539D02*
X91387Y-23948D01*
X88040Y-25483D02*
X88040Y-24893D01*
X88181Y-24893D01*
X88265Y-24921D01*
X88321Y-24977D01*
X88349Y-25033D01*
X88378Y-25146D01*
X88378Y-25230D01*
X88349Y-25343D01*
X88321Y-25399D01*
X88265Y-25455D01*
X88181Y-25483D01*
X88040Y-25483D01*
X88828Y-25174D02*
X88912Y-25202D01*
X88940Y-25230D01*
X88968Y-25287D01*
X88968Y-25371D01*
X88940Y-25427D01*
X88912Y-25455D01*
X88856Y-25483D01*
X88631Y-25483D01*
X88631Y-24893D01*
X88828Y-24893D01*
X88884Y-24921D01*
X88912Y-24949D01*
X88940Y-25005D01*
X88940Y-25062D01*
X88912Y-25118D01*
X88884Y-25146D01*
X88828Y-25174D01*
X88631Y-25174D01*
X89221Y-25258D02*
X89671Y-25258D01*
X90262Y-25483D02*
X89924Y-25483D01*
X90093Y-25483D02*
X90093Y-24893D01*
X90037Y-24977D01*
X89980Y-25033D01*
X89924Y-25062D01*
X74150Y-23976D02*
X74094Y-23948D01*
X74009Y-23948D01*
X73925Y-23976D01*
X73869Y-24032D01*
X73841Y-24089D01*
X73812Y-24201D01*
X73812Y-24285D01*
X73841Y-24398D01*
X73869Y-24454D01*
X73925Y-24510D01*
X74009Y-24539D01*
X74066Y-24539D01*
X74150Y-24510D01*
X74178Y-24482D01*
X74178Y-24285D01*
X74066Y-24285D01*
X74431Y-24539D02*
X74431Y-24145D01*
X74431Y-24257D02*
X74459Y-24201D01*
X74487Y-24173D01*
X74544Y-24145D01*
X74600Y-24145D01*
X75050Y-24145D02*
X75050Y-24539D01*
X74797Y-24145D02*
X74797Y-24454D01*
X74825Y-24510D01*
X74881Y-24539D01*
X74965Y-24539D01*
X75022Y-24510D01*
X75050Y-24482D01*
X75331Y-24145D02*
X75331Y-24735D01*
X75331Y-24173D02*
X75387Y-24145D01*
X75500Y-24145D01*
X75556Y-24173D01*
X75584Y-24201D01*
X75612Y-24257D01*
X75612Y-24426D01*
X75584Y-24482D01*
X75556Y-24510D01*
X75500Y-24539D01*
X75387Y-24539D01*
X75331Y-24510D01*
X75950Y-24539D02*
X75893Y-24510D01*
X75865Y-24482D01*
X75837Y-24426D01*
X75837Y-24257D01*
X75865Y-24201D01*
X75893Y-24173D01*
X75950Y-24145D01*
X76034Y-24145D01*
X76090Y-24173D01*
X76118Y-24201D01*
X76147Y-24257D01*
X76147Y-24426D01*
X76118Y-24482D01*
X76090Y-24510D01*
X76034Y-24539D01*
X75950Y-24539D01*
X77046Y-24229D02*
X77131Y-24257D01*
X77159Y-24285D01*
X77187Y-24342D01*
X77187Y-24426D01*
X77159Y-24482D01*
X77131Y-24510D01*
X77075Y-24539D01*
X76850Y-24539D01*
X76850Y-23948D01*
X77046Y-23948D01*
X77103Y-23976D01*
X77131Y-24004D01*
X77159Y-24060D01*
X77159Y-24117D01*
X77131Y-24173D01*
X77103Y-24201D01*
X77046Y-24229D01*
X76850Y-24229D01*
X74965Y-25483D02*
X74965Y-24893D01*
X75106Y-24893D01*
X75190Y-24921D01*
X75247Y-24977D01*
X75275Y-25033D01*
X75303Y-25146D01*
X75303Y-25230D01*
X75275Y-25343D01*
X75247Y-25399D01*
X75190Y-25455D01*
X75106Y-25483D01*
X74965Y-25483D01*
X75753Y-25174D02*
X75837Y-25202D01*
X75865Y-25230D01*
X75893Y-25287D01*
X75893Y-25371D01*
X75865Y-25427D01*
X75837Y-25455D01*
X75781Y-25483D01*
X75556Y-25483D01*
X75556Y-24893D01*
X75753Y-24893D01*
X75809Y-24921D01*
X75837Y-24949D01*
X75865Y-25005D01*
X75865Y-25062D01*
X75837Y-25118D01*
X75809Y-25146D01*
X75753Y-25174D01*
X75556Y-25174D01*
X76147Y-25258D02*
X76596Y-25258D01*
X77187Y-25483D02*
X76850Y-25483D01*
X77018Y-25483D02*
X77018Y-24893D01*
X76962Y-24977D01*
X76906Y-25033D01*
X76850Y-25062D01*
X69549Y-23776D02*
X69493Y-23748D01*
X69409Y-23748D01*
X69324Y-23776D01*
X69268Y-23832D01*
X69240Y-23889D01*
X69212Y-24001D01*
X69212Y-24085D01*
X69240Y-24198D01*
X69268Y-24254D01*
X69324Y-24310D01*
X69409Y-24339D01*
X69465Y-24339D01*
X69549Y-24310D01*
X69578Y-24282D01*
X69578Y-24085D01*
X69465Y-24085D01*
X69831Y-24339D02*
X69831Y-23945D01*
X69831Y-24057D02*
X69859Y-24001D01*
X69887Y-23973D01*
X69943Y-23945D01*
X69999Y-23945D01*
X70449Y-23945D02*
X70449Y-24339D01*
X70196Y-23945D02*
X70196Y-24254D01*
X70224Y-24310D01*
X70281Y-24339D01*
X70365Y-24339D01*
X70421Y-24310D01*
X70449Y-24282D01*
X70731Y-23945D02*
X70731Y-24535D01*
X70731Y-23973D02*
X70787Y-23945D01*
X70899Y-23945D01*
X70956Y-23973D01*
X70984Y-24001D01*
X71012Y-24057D01*
X71012Y-24226D01*
X70984Y-24282D01*
X70956Y-24310D01*
X70899Y-24339D01*
X70787Y-24339D01*
X70731Y-24310D01*
X71349Y-24339D02*
X71293Y-24310D01*
X71265Y-24282D01*
X71237Y-24226D01*
X71237Y-24057D01*
X71265Y-24001D01*
X71293Y-23973D01*
X71349Y-23945D01*
X71434Y-23945D01*
X71490Y-23973D01*
X71518Y-24001D01*
X71546Y-24057D01*
X71546Y-24226D01*
X71518Y-24282D01*
X71490Y-24310D01*
X71434Y-24339D01*
X71349Y-24339D01*
X72249Y-24339D02*
X72249Y-23748D01*
X72390Y-23748D01*
X72474Y-23776D01*
X72530Y-23832D01*
X72558Y-23889D01*
X72587Y-24001D01*
X72587Y-24085D01*
X72558Y-24198D01*
X72530Y-24254D01*
X72474Y-24310D01*
X72390Y-24339D01*
X72249Y-24339D01*
X69240Y-25283D02*
X69240Y-24693D01*
X69381Y-24693D01*
X69465Y-24721D01*
X69521Y-24777D01*
X69549Y-24833D01*
X69578Y-24946D01*
X69578Y-25030D01*
X69549Y-25143D01*
X69521Y-25199D01*
X69465Y-25255D01*
X69381Y-25283D01*
X69240Y-25283D01*
X70028Y-24974D02*
X70112Y-25002D01*
X70140Y-25030D01*
X70168Y-25087D01*
X70168Y-25171D01*
X70140Y-25227D01*
X70112Y-25255D01*
X70056Y-25283D01*
X69831Y-25283D01*
X69831Y-24693D01*
X70028Y-24693D01*
X70084Y-24721D01*
X70112Y-24749D01*
X70140Y-24805D01*
X70140Y-24862D01*
X70112Y-24918D01*
X70084Y-24946D01*
X70028Y-24974D01*
X69831Y-24974D01*
X70421Y-25058D02*
X70871Y-25058D01*
X71462Y-25283D02*
X71124Y-25283D01*
X71293Y-25283D02*
X71293Y-24693D01*
X71237Y-24777D01*
X71180Y-24833D01*
X71124Y-24862D01*
X54950Y-23776D02*
X54894Y-23748D01*
X54809Y-23748D01*
X54725Y-23776D01*
X54669Y-23832D01*
X54641Y-23889D01*
X54612Y-24001D01*
X54612Y-24085D01*
X54641Y-24198D01*
X54669Y-24254D01*
X54725Y-24310D01*
X54809Y-24339D01*
X54866Y-24339D01*
X54950Y-24310D01*
X54978Y-24282D01*
X54978Y-24085D01*
X54866Y-24085D01*
X55231Y-24339D02*
X55231Y-23945D01*
X55231Y-24057D02*
X55259Y-24001D01*
X55287Y-23973D01*
X55344Y-23945D01*
X55400Y-23945D01*
X55850Y-23945D02*
X55850Y-24339D01*
X55597Y-23945D02*
X55597Y-24254D01*
X55625Y-24310D01*
X55681Y-24339D01*
X55765Y-24339D01*
X55822Y-24310D01*
X55850Y-24282D01*
X56131Y-23945D02*
X56131Y-24535D01*
X56131Y-23973D02*
X56187Y-23945D01*
X56300Y-23945D01*
X56356Y-23973D01*
X56384Y-24001D01*
X56412Y-24057D01*
X56412Y-24226D01*
X56384Y-24282D01*
X56356Y-24310D01*
X56300Y-24339D01*
X56187Y-24339D01*
X56131Y-24310D01*
X56750Y-24339D02*
X56693Y-24310D01*
X56665Y-24282D01*
X56637Y-24226D01*
X56637Y-24057D01*
X56665Y-24001D01*
X56693Y-23973D01*
X56750Y-23945D01*
X56834Y-23945D01*
X56890Y-23973D01*
X56918Y-24001D01*
X56947Y-24057D01*
X56947Y-24226D01*
X56918Y-24282D01*
X56890Y-24310D01*
X56834Y-24339D01*
X56750Y-24339D01*
X57987Y-24282D02*
X57959Y-24310D01*
X57875Y-24339D01*
X57818Y-24339D01*
X57734Y-24310D01*
X57678Y-24254D01*
X57650Y-24198D01*
X57621Y-24085D01*
X57621Y-24001D01*
X57650Y-23889D01*
X57678Y-23832D01*
X57734Y-23776D01*
X57818Y-23748D01*
X57875Y-23748D01*
X57959Y-23776D01*
X57987Y-23804D01*
X55765Y-25283D02*
X55765Y-24693D01*
X55906Y-24693D01*
X55990Y-24721D01*
X56047Y-24777D01*
X56075Y-24833D01*
X56103Y-24946D01*
X56103Y-25030D01*
X56075Y-25143D01*
X56047Y-25199D01*
X55990Y-25255D01*
X55906Y-25283D01*
X55765Y-25283D01*
X56553Y-24974D02*
X56637Y-25002D01*
X56665Y-25030D01*
X56693Y-25087D01*
X56693Y-25171D01*
X56665Y-25227D01*
X56637Y-25255D01*
X56581Y-25283D01*
X56356Y-25283D01*
X56356Y-24693D01*
X56553Y-24693D01*
X56609Y-24721D01*
X56637Y-24749D01*
X56665Y-24805D01*
X56665Y-24862D01*
X56637Y-24918D01*
X56609Y-24946D01*
X56553Y-24974D01*
X56356Y-24974D01*
X56947Y-25058D02*
X57396Y-25058D01*
X57987Y-25283D02*
X57650Y-25283D01*
X57818Y-25283D02*
X57818Y-24693D01*
X57762Y-24777D01*
X57706Y-24833D01*
X57650Y-24862D01*
X16434Y-23176D02*
X16378Y-23148D01*
X16294Y-23148D01*
X16209Y-23176D01*
X16153Y-23232D01*
X16125Y-23289D01*
X16097Y-23401D01*
X16097Y-23485D01*
X16125Y-23598D01*
X16153Y-23654D01*
X16209Y-23710D01*
X16294Y-23739D01*
X16350Y-23739D01*
X16434Y-23710D01*
X16462Y-23682D01*
X16462Y-23485D01*
X16350Y-23485D01*
X16715Y-23739D02*
X16715Y-23345D01*
X16715Y-23457D02*
X16744Y-23401D01*
X16772Y-23373D01*
X16828Y-23345D01*
X16884Y-23345D01*
X17334Y-23345D02*
X17334Y-23739D01*
X17081Y-23345D02*
X17081Y-23654D01*
X17109Y-23710D01*
X17165Y-23739D01*
X17250Y-23739D01*
X17306Y-23710D01*
X17334Y-23682D01*
X17615Y-23345D02*
X17615Y-23935D01*
X17615Y-23373D02*
X17672Y-23345D01*
X17784Y-23345D01*
X17840Y-23373D01*
X17868Y-23401D01*
X17897Y-23457D01*
X17897Y-23626D01*
X17868Y-23682D01*
X17840Y-23710D01*
X17784Y-23739D01*
X17672Y-23739D01*
X17615Y-23710D01*
X18234Y-23739D02*
X18178Y-23710D01*
X18150Y-23682D01*
X18122Y-23626D01*
X18122Y-23457D01*
X18150Y-23401D01*
X18178Y-23373D01*
X18234Y-23345D01*
X18318Y-23345D01*
X18375Y-23373D01*
X18403Y-23401D01*
X18431Y-23457D01*
X18431Y-23626D01*
X18403Y-23682D01*
X18375Y-23710D01*
X18318Y-23739D01*
X18234Y-23739D01*
X19106Y-23570D02*
X19387Y-23570D01*
X19050Y-23739D02*
X19246Y-23148D01*
X19443Y-23739D01*
X17165Y-24683D02*
X17165Y-24093D01*
X17306Y-24093D01*
X17390Y-24121D01*
X17447Y-24177D01*
X17475Y-24233D01*
X17503Y-24346D01*
X17503Y-24430D01*
X17475Y-24543D01*
X17447Y-24599D01*
X17390Y-24655D01*
X17306Y-24683D01*
X17165Y-24683D01*
X17953Y-24374D02*
X18037Y-24402D01*
X18065Y-24430D01*
X18093Y-24487D01*
X18093Y-24571D01*
X18065Y-24627D01*
X18037Y-24655D01*
X17981Y-24683D01*
X17756Y-24683D01*
X17756Y-24093D01*
X17953Y-24093D01*
X18009Y-24121D01*
X18037Y-24149D01*
X18065Y-24205D01*
X18065Y-24262D01*
X18037Y-24318D01*
X18009Y-24346D01*
X17953Y-24374D01*
X17756Y-24374D01*
X18347Y-24458D02*
X18796Y-24458D01*
X19050Y-24149D02*
X19078Y-24121D01*
X19134Y-24093D01*
X19275Y-24093D01*
X19331Y-24121D01*
X19359Y-24149D01*
X19387Y-24205D01*
X19387Y-24262D01*
X19359Y-24346D01*
X19021Y-24683D01*
X19387Y-24683D01*
X30449Y-23976D02*
X30393Y-23948D01*
X30309Y-23948D01*
X30224Y-23976D01*
X30168Y-24032D01*
X30140Y-24089D01*
X30112Y-24201D01*
X30112Y-24285D01*
X30140Y-24398D01*
X30168Y-24454D01*
X30224Y-24510D01*
X30309Y-24539D01*
X30365Y-24539D01*
X30449Y-24510D01*
X30478Y-24482D01*
X30478Y-24285D01*
X30365Y-24285D01*
X30731Y-24539D02*
X30731Y-24145D01*
X30731Y-24257D02*
X30759Y-24201D01*
X30787Y-24173D01*
X30843Y-24145D01*
X30899Y-24145D01*
X31349Y-24145D02*
X31349Y-24539D01*
X31096Y-24145D02*
X31096Y-24454D01*
X31124Y-24510D01*
X31181Y-24539D01*
X31265Y-24539D01*
X31321Y-24510D01*
X31349Y-24482D01*
X31631Y-24145D02*
X31631Y-24735D01*
X31631Y-24173D02*
X31687Y-24145D01*
X31799Y-24145D01*
X31856Y-24173D01*
X31884Y-24201D01*
X31912Y-24257D01*
X31912Y-24426D01*
X31884Y-24482D01*
X31856Y-24510D01*
X31799Y-24539D01*
X31687Y-24539D01*
X31631Y-24510D01*
X32249Y-24539D02*
X32193Y-24510D01*
X32165Y-24482D01*
X32137Y-24426D01*
X32137Y-24257D01*
X32165Y-24201D01*
X32193Y-24173D01*
X32249Y-24145D01*
X32334Y-24145D01*
X32390Y-24173D01*
X32418Y-24201D01*
X32446Y-24257D01*
X32446Y-24426D01*
X32418Y-24482D01*
X32390Y-24510D01*
X32334Y-24539D01*
X32249Y-24539D01*
X33458Y-23976D02*
X33402Y-23948D01*
X33318Y-23948D01*
X33233Y-23976D01*
X33177Y-24032D01*
X33149Y-24089D01*
X33121Y-24201D01*
X33121Y-24285D01*
X33149Y-24398D01*
X33177Y-24454D01*
X33233Y-24510D01*
X33318Y-24539D01*
X33374Y-24539D01*
X33458Y-24510D01*
X33487Y-24482D01*
X33487Y-24285D01*
X33374Y-24285D01*
X30140Y-25483D02*
X30140Y-24893D01*
X30281Y-24893D01*
X30365Y-24921D01*
X30421Y-24977D01*
X30449Y-25033D01*
X30478Y-25146D01*
X30478Y-25230D01*
X30449Y-25343D01*
X30421Y-25399D01*
X30365Y-25455D01*
X30281Y-25483D01*
X30140Y-25483D01*
X30928Y-25174D02*
X31012Y-25202D01*
X31040Y-25230D01*
X31068Y-25287D01*
X31068Y-25371D01*
X31040Y-25427D01*
X31012Y-25455D01*
X30956Y-25483D01*
X30731Y-25483D01*
X30731Y-24893D01*
X30928Y-24893D01*
X30984Y-24921D01*
X31012Y-24949D01*
X31040Y-25005D01*
X31040Y-25062D01*
X31012Y-25118D01*
X30984Y-25146D01*
X30928Y-25174D01*
X30731Y-25174D01*
X31321Y-25258D02*
X31771Y-25258D01*
X32024Y-24949D02*
X32052Y-24921D01*
X32109Y-24893D01*
X32249Y-24893D01*
X32305Y-24921D01*
X32334Y-24949D01*
X32362Y-25005D01*
X32362Y-25062D01*
X32334Y-25146D01*
X31996Y-25483D01*
X32362Y-25483D01*
X50149Y-23776D02*
X50093Y-23748D01*
X50009Y-23748D01*
X49924Y-23776D01*
X49868Y-23832D01*
X49840Y-23889D01*
X49812Y-24001D01*
X49812Y-24085D01*
X49840Y-24198D01*
X49868Y-24254D01*
X49924Y-24310D01*
X50009Y-24339D01*
X50065Y-24339D01*
X50149Y-24310D01*
X50178Y-24282D01*
X50178Y-24085D01*
X50065Y-24085D01*
X50431Y-24339D02*
X50431Y-23945D01*
X50431Y-24057D02*
X50459Y-24001D01*
X50487Y-23973D01*
X50543Y-23945D01*
X50599Y-23945D01*
X51049Y-23945D02*
X51049Y-24339D01*
X50796Y-23945D02*
X50796Y-24254D01*
X50824Y-24310D01*
X50881Y-24339D01*
X50965Y-24339D01*
X51021Y-24310D01*
X51049Y-24282D01*
X51331Y-23945D02*
X51331Y-24535D01*
X51331Y-23973D02*
X51387Y-23945D01*
X51499Y-23945D01*
X51556Y-23973D01*
X51584Y-24001D01*
X51612Y-24057D01*
X51612Y-24226D01*
X51584Y-24282D01*
X51556Y-24310D01*
X51499Y-24339D01*
X51387Y-24339D01*
X51331Y-24310D01*
X51949Y-24339D02*
X51893Y-24310D01*
X51865Y-24282D01*
X51837Y-24226D01*
X51837Y-24057D01*
X51865Y-24001D01*
X51893Y-23973D01*
X51949Y-23945D01*
X52034Y-23945D01*
X52090Y-23973D01*
X52118Y-24001D01*
X52146Y-24057D01*
X52146Y-24226D01*
X52118Y-24282D01*
X52090Y-24310D01*
X52034Y-24339D01*
X51949Y-24339D01*
X52849Y-24339D02*
X52849Y-23748D01*
X49840Y-25283D02*
X49840Y-24693D01*
X49981Y-24693D01*
X50065Y-24721D01*
X50121Y-24777D01*
X50149Y-24833D01*
X50178Y-24946D01*
X50178Y-25030D01*
X50149Y-25143D01*
X50121Y-25199D01*
X50065Y-25255D01*
X49981Y-25283D01*
X49840Y-25283D01*
X50628Y-24974D02*
X50712Y-25002D01*
X50740Y-25030D01*
X50768Y-25087D01*
X50768Y-25171D01*
X50740Y-25227D01*
X50712Y-25255D01*
X50656Y-25283D01*
X50431Y-25283D01*
X50431Y-24693D01*
X50628Y-24693D01*
X50684Y-24721D01*
X50712Y-24749D01*
X50740Y-24805D01*
X50740Y-24862D01*
X50712Y-24918D01*
X50684Y-24946D01*
X50628Y-24974D01*
X50431Y-24974D01*
X51021Y-25058D02*
X51471Y-25058D01*
X51724Y-24749D02*
X51752Y-24721D01*
X51809Y-24693D01*
X51949Y-24693D01*
X52005Y-24721D01*
X52034Y-24749D01*
X52062Y-24805D01*
X52062Y-24862D01*
X52034Y-24946D01*
X51696Y-25283D01*
X52062Y-25283D01*
G54D13*
X58825Y-23659D02*
X58600Y-23659D01*
X58712Y-23659D02*
X58712Y-23265D01*
X58675Y-23321D01*
X58637Y-23359D01*
X58600Y-23378D01*
X58974Y-23303D02*
X58993Y-23284D01*
X59031Y-23265D01*
X59124Y-23265D01*
X59162Y-23284D01*
X59181Y-23303D01*
X59199Y-23340D01*
X59199Y-23378D01*
X59181Y-23434D01*
X58956Y-23659D01*
X59199Y-23659D01*
X46968Y-23265D02*
X47231Y-23265D01*
X47062Y-23659D01*
X46062Y-23434D02*
X46025Y-23415D01*
X46006Y-23396D01*
X45987Y-23359D01*
X45987Y-23340D01*
X46006Y-23303D01*
X46025Y-23284D01*
X46062Y-23265D01*
X46137Y-23265D01*
X46174Y-23284D01*
X46193Y-23303D01*
X46212Y-23340D01*
X46212Y-23359D01*
X46193Y-23396D01*
X46174Y-23415D01*
X46137Y-23434D01*
X46062Y-23434D01*
X46025Y-23453D01*
X46006Y-23471D01*
X45987Y-23509D01*
X45987Y-23584D01*
X46006Y-23621D01*
X46025Y-23640D01*
X46062Y-23659D01*
X46137Y-23659D01*
X46174Y-23640D01*
X46193Y-23621D01*
X46212Y-23584D01*
X46212Y-23509D01*
X46193Y-23471D01*
X46174Y-23453D01*
X46137Y-23434D01*
X40474Y-23396D02*
X40474Y-23659D01*
X40381Y-23246D02*
X40287Y-23528D01*
X40531Y-23528D01*
X20100Y-23503D02*
X20118Y-23484D01*
X20156Y-23465D01*
X20250Y-23465D01*
X20287Y-23484D01*
X20306Y-23503D01*
X20325Y-23540D01*
X20325Y-23578D01*
X20306Y-23634D01*
X20081Y-23859D01*
X20325Y-23859D01*
X20474Y-23503D02*
X20493Y-23484D01*
X20531Y-23465D01*
X20624Y-23465D01*
X20662Y-23484D01*
X20681Y-23503D01*
X20699Y-23540D01*
X20699Y-23578D01*
X20681Y-23634D01*
X20456Y-23859D01*
X20699Y-23859D01*
X21100Y-23503D02*
X21118Y-23484D01*
X21156Y-23465D01*
X21250Y-23465D01*
X21287Y-23484D01*
X21306Y-23503D01*
X21325Y-23540D01*
X21325Y-23578D01*
X21306Y-23634D01*
X21081Y-23859D01*
X21325Y-23859D01*
X21681Y-23465D02*
X21493Y-23465D01*
X21474Y-23653D01*
X21493Y-23634D01*
X21531Y-23615D01*
X21624Y-23615D01*
X21662Y-23634D01*
X21681Y-23653D01*
X21699Y-23690D01*
X21699Y-23784D01*
X21681Y-23821D01*
X21662Y-23840D01*
X21624Y-23859D01*
X21531Y-23859D01*
X21493Y-23840D01*
X21474Y-23821D01*
X22100Y-23503D02*
X22118Y-23484D01*
X22156Y-23465D01*
X22250Y-23465D01*
X22287Y-23484D01*
X22306Y-23503D01*
X22325Y-23540D01*
X22325Y-23578D01*
X22306Y-23634D01*
X22081Y-23859D01*
X22325Y-23859D01*
X22662Y-23596D02*
X22662Y-23859D01*
X22568Y-23446D02*
X22474Y-23728D01*
X22718Y-23728D01*
X23100Y-23503D02*
X23118Y-23484D01*
X23156Y-23465D01*
X23250Y-23465D01*
X23287Y-23484D01*
X23306Y-23503D01*
X23325Y-23540D01*
X23325Y-23578D01*
X23306Y-23634D01*
X23081Y-23859D01*
X23325Y-23859D01*
X23456Y-23465D02*
X23699Y-23465D01*
X23568Y-23615D01*
X23624Y-23615D01*
X23662Y-23634D01*
X23681Y-23653D01*
X23699Y-23690D01*
X23699Y-23784D01*
X23681Y-23821D01*
X23662Y-23840D01*
X23624Y-23859D01*
X23512Y-23859D01*
X23474Y-23840D01*
X23456Y-23821D01*
G54D12*
X36634Y-23776D02*
X36578Y-23748D01*
X36494Y-23748D01*
X36409Y-23776D01*
X36353Y-23832D01*
X36325Y-23889D01*
X36297Y-24001D01*
X36297Y-24085D01*
X36325Y-24198D01*
X36353Y-24254D01*
X36409Y-24310D01*
X36494Y-24339D01*
X36550Y-24339D01*
X36634Y-24310D01*
X36662Y-24282D01*
X36662Y-24085D01*
X36550Y-24085D01*
X36915Y-24339D02*
X36915Y-23945D01*
X36915Y-24057D02*
X36944Y-24001D01*
X36972Y-23973D01*
X37028Y-23945D01*
X37084Y-23945D01*
X37534Y-23945D02*
X37534Y-24339D01*
X37281Y-23945D02*
X37281Y-24254D01*
X37309Y-24310D01*
X37365Y-24339D01*
X37450Y-24339D01*
X37506Y-24310D01*
X37534Y-24282D01*
X37815Y-23945D02*
X37815Y-24535D01*
X37815Y-23973D02*
X37872Y-23945D01*
X37984Y-23945D01*
X38040Y-23973D01*
X38068Y-24001D01*
X38097Y-24057D01*
X38097Y-24226D01*
X38068Y-24282D01*
X38040Y-24310D01*
X37984Y-24339D01*
X37872Y-24339D01*
X37815Y-24310D01*
X38434Y-24339D02*
X38378Y-24310D01*
X38350Y-24282D01*
X38322Y-24226D01*
X38322Y-24057D01*
X38350Y-24001D01*
X38378Y-23973D01*
X38434Y-23945D01*
X38518Y-23945D01*
X38575Y-23973D01*
X38603Y-24001D01*
X38631Y-24057D01*
X38631Y-24226D01*
X38603Y-24282D01*
X38575Y-24310D01*
X38518Y-24339D01*
X38434Y-24339D01*
X39531Y-24029D02*
X39334Y-24029D01*
X39334Y-24339D02*
X39334Y-23748D01*
X39615Y-23748D01*
X37365Y-25283D02*
X37365Y-24693D01*
X37506Y-24693D01*
X37590Y-24721D01*
X37647Y-24777D01*
X37675Y-24833D01*
X37703Y-24946D01*
X37703Y-25030D01*
X37675Y-25143D01*
X37647Y-25199D01*
X37590Y-25255D01*
X37506Y-25283D01*
X37365Y-25283D01*
X38153Y-24974D02*
X38237Y-25002D01*
X38265Y-25030D01*
X38293Y-25087D01*
X38293Y-25171D01*
X38265Y-25227D01*
X38237Y-25255D01*
X38181Y-25283D01*
X37956Y-25283D01*
X37956Y-24693D01*
X38153Y-24693D01*
X38209Y-24721D01*
X38237Y-24749D01*
X38265Y-24805D01*
X38265Y-24862D01*
X38237Y-24918D01*
X38209Y-24946D01*
X38153Y-24974D01*
X37956Y-24974D01*
X38547Y-25058D02*
X38996Y-25058D01*
X39250Y-24749D02*
X39278Y-24721D01*
X39334Y-24693D01*
X39475Y-24693D01*
X39531Y-24721D01*
X39559Y-24749D01*
X39587Y-24805D01*
X39587Y-24862D01*
X39559Y-24946D01*
X39221Y-25283D01*
X39587Y-25283D01*
G54D11*
X93200Y-28600D02*
X15800Y-28600D01*
X37500Y-43500D02*
X27900Y-43500D01*
X37500Y-46000D02*
X37500Y-43500D01*
X27900Y-46000D02*
X37500Y-46000D01*
X27900Y-43500D02*
X27900Y-46000D01*
G54D12*
X89639Y-53246D02*
X89659Y-53306D01*
X89719Y-53366D01*
X89798Y-53405D01*
X89878Y-53405D01*
X89937Y-53386D01*
X90037Y-53326D01*
X90096Y-53266D01*
X90156Y-53167D01*
X90176Y-53107D01*
X90176Y-53028D01*
X90136Y-52948D01*
X90096Y-52908D01*
X90017Y-52869D01*
X89977Y-52869D01*
X89838Y-53008D01*
X89917Y-53087D01*
X89838Y-52650D02*
X89420Y-53067D01*
X89599Y-52411D01*
X89182Y-52829D01*
X89400Y-52212D02*
X88983Y-52630D01*
X88883Y-52530D01*
X88844Y-52451D01*
X88844Y-52371D01*
X88863Y-52312D01*
X88923Y-52212D01*
X88983Y-52153D01*
X89082Y-52093D01*
X89142Y-52073D01*
X89221Y-52073D01*
X89301Y-52113D01*
X89400Y-52212D01*
X89480Y-50978D02*
X89679Y-51176D01*
X89898Y-50997D01*
X89858Y-50997D01*
X89799Y-50978D01*
X89699Y-50878D01*
X89679Y-50819D01*
X89679Y-50779D01*
X89699Y-50719D01*
X89799Y-50620D01*
X89858Y-50600D01*
X89898Y-50600D01*
X89958Y-50620D01*
X90057Y-50719D01*
X90077Y-50779D01*
X90077Y-50819D01*
X89341Y-50838D02*
X89620Y-50282D01*
X89063Y-50560D01*
X90077Y-48439D02*
X90316Y-48678D01*
X90196Y-48558D02*
X89779Y-48976D01*
X89878Y-48956D01*
X89958Y-48956D01*
X90017Y-48976D01*
X89540Y-48658D02*
X89500Y-48658D01*
X89441Y-48638D01*
X89341Y-48538D01*
X89321Y-48479D01*
X89321Y-48439D01*
X89341Y-48379D01*
X89381Y-48340D01*
X89461Y-48300D01*
X89938Y-48300D01*
X89679Y-48041D01*
X89142Y-48340D02*
X89421Y-47783D01*
X88864Y-48061D01*
X28663Y-44443D02*
X28621Y-44481D01*
X28504Y-44518D01*
X28429Y-44518D01*
X28321Y-44481D01*
X28256Y-44406D01*
X28227Y-44331D01*
X28209Y-44181D01*
X28223Y-44068D01*
X28279Y-43918D01*
X28326Y-43843D01*
X28410Y-43768D01*
X28527Y-43731D01*
X28602Y-43731D01*
X28710Y-43768D01*
X28743Y-43806D01*
X29104Y-44518D02*
X29034Y-44481D01*
X29001Y-44443D01*
X28973Y-44368D01*
X29001Y-44143D01*
X29048Y-44068D01*
X29090Y-44031D01*
X29169Y-43993D01*
X29282Y-43993D01*
X29352Y-44031D01*
X29385Y-44068D01*
X29413Y-44143D01*
X29385Y-44368D01*
X29338Y-44443D01*
X29296Y-44481D01*
X29216Y-44518D01*
X29104Y-44518D01*
X29769Y-43993D02*
X29704Y-44518D01*
X29760Y-44068D02*
X29802Y-44031D01*
X29882Y-43993D01*
X29994Y-43993D01*
X30065Y-44031D01*
X30093Y-44106D01*
X30041Y-44518D01*
X30369Y-43993D02*
X30669Y-43993D01*
X30515Y-43731D02*
X30430Y-44406D01*
X30458Y-44481D01*
X30529Y-44518D01*
X30604Y-44518D01*
X30866Y-44518D02*
X30932Y-43993D01*
X30913Y-44143D02*
X30960Y-44068D01*
X31002Y-44031D01*
X31082Y-43993D01*
X31157Y-43993D01*
X31466Y-44518D02*
X31396Y-44481D01*
X31363Y-44443D01*
X31335Y-44368D01*
X31363Y-44143D01*
X31410Y-44068D01*
X31452Y-44031D01*
X31532Y-43993D01*
X31644Y-43993D01*
X31714Y-44031D01*
X31747Y-44068D01*
X31775Y-44143D01*
X31747Y-44368D01*
X31700Y-44443D01*
X31658Y-44481D01*
X31579Y-44518D01*
X31466Y-44518D01*
X32178Y-44518D02*
X32108Y-44481D01*
X32080Y-44406D01*
X32164Y-43731D01*
X32816Y-44518D02*
X32867Y-44106D01*
X32839Y-44031D01*
X32769Y-43993D01*
X32619Y-43993D01*
X32539Y-44031D01*
X32821Y-44481D02*
X32741Y-44518D01*
X32553Y-44518D01*
X32483Y-44481D01*
X32455Y-44406D01*
X32464Y-44331D01*
X32511Y-44256D01*
X32591Y-44218D01*
X32778Y-44218D01*
X32858Y-44181D01*
X33528Y-44518D02*
X33627Y-43731D01*
X33533Y-44481D02*
X33453Y-44518D01*
X33303Y-44518D01*
X33233Y-44481D01*
X33200Y-44443D01*
X33172Y-44368D01*
X33200Y-44143D01*
X33247Y-44068D01*
X33289Y-44031D01*
X33369Y-43993D01*
X33519Y-43993D01*
X33589Y-44031D01*
X34016Y-44518D02*
X33945Y-44481D01*
X33913Y-44443D01*
X33885Y-44368D01*
X33913Y-44143D01*
X33960Y-44068D01*
X34002Y-44031D01*
X34081Y-43993D01*
X34194Y-43993D01*
X34264Y-44031D01*
X34297Y-44068D01*
X34325Y-44143D01*
X34297Y-44368D01*
X34250Y-44443D01*
X34208Y-44481D01*
X34128Y-44518D01*
X34016Y-44518D01*
X34616Y-44518D02*
X34681Y-43993D01*
X34663Y-44143D02*
X34709Y-44068D01*
X34752Y-44031D01*
X34831Y-43993D01*
X34906Y-43993D01*
X36041Y-44518D02*
X36139Y-43731D01*
X36045Y-44481D02*
X35966Y-44518D01*
X35816Y-44518D01*
X35745Y-44481D01*
X35712Y-44443D01*
X35684Y-44368D01*
X35712Y-44143D01*
X35759Y-44068D01*
X35801Y-44031D01*
X35881Y-43993D01*
X36031Y-43993D01*
X36101Y-44031D01*
X36720Y-44481D02*
X36640Y-44518D01*
X36490Y-44518D01*
X36420Y-44481D01*
X36392Y-44406D01*
X36430Y-44106D01*
X36476Y-44031D01*
X36556Y-43993D01*
X36706Y-43993D01*
X36776Y-44031D01*
X36804Y-44106D01*
X36795Y-44181D01*
X36411Y-44256D01*
X28410Y-45739D02*
X28476Y-45214D01*
X28466Y-45289D02*
X28509Y-45251D01*
X28588Y-45214D01*
X28701Y-45214D01*
X28771Y-45251D01*
X28799Y-45326D01*
X28748Y-45739D01*
X28799Y-45326D02*
X28846Y-45251D01*
X28926Y-45214D01*
X29038Y-45214D01*
X29109Y-45251D01*
X29137Y-45326D01*
X29085Y-45739D01*
X29863Y-45214D02*
X29798Y-45739D01*
X29526Y-45214D02*
X29474Y-45626D01*
X29502Y-45701D01*
X29573Y-45739D01*
X29685Y-45739D01*
X29765Y-45701D01*
X29807Y-45664D01*
X29826Y-44914D02*
X29699Y-45026D01*
X30140Y-45701D02*
X30210Y-45739D01*
X30360Y-45739D01*
X30440Y-45701D01*
X30487Y-45626D01*
X30491Y-45589D01*
X30463Y-45514D01*
X30393Y-45476D01*
X30280Y-45476D01*
X30210Y-45439D01*
X30182Y-45364D01*
X30187Y-45326D01*
X30233Y-45251D01*
X30313Y-45214D01*
X30426Y-45214D01*
X30496Y-45251D01*
X30810Y-45739D02*
X30876Y-45214D01*
X30908Y-44951D02*
X30866Y-44989D01*
X30899Y-45026D01*
X30941Y-44989D01*
X30908Y-44951D01*
X30899Y-45026D01*
X31527Y-45701D02*
X31447Y-45739D01*
X31297Y-45739D01*
X31227Y-45701D01*
X31194Y-45664D01*
X31166Y-45589D01*
X31194Y-45364D01*
X31241Y-45289D01*
X31283Y-45251D01*
X31363Y-45214D01*
X31513Y-45214D01*
X31583Y-45251D01*
X32197Y-45739D02*
X32249Y-45326D01*
X32221Y-45251D01*
X32150Y-45214D01*
X32000Y-45214D01*
X31921Y-45251D01*
X32202Y-45701D02*
X32122Y-45739D01*
X31935Y-45739D01*
X31864Y-45701D01*
X31836Y-45626D01*
X31846Y-45551D01*
X31893Y-45476D01*
X31972Y-45439D01*
X32160Y-45439D01*
X32239Y-45401D01*
X33163Y-45214D02*
X33285Y-45739D01*
X33538Y-45214D02*
X33285Y-45739D01*
X33186Y-45926D01*
X33144Y-45964D01*
X33064Y-46001D01*
X34484Y-45739D02*
X34414Y-45701D01*
X34386Y-45626D01*
X34470Y-44951D01*
X35187Y-45214D02*
X35122Y-45739D01*
X34850Y-45214D02*
X34798Y-45626D01*
X34827Y-45701D01*
X34897Y-45739D01*
X35009Y-45739D01*
X35089Y-45701D01*
X35131Y-45664D01*
X35839Y-45701D02*
X35759Y-45739D01*
X35609Y-45739D01*
X35539Y-45701D01*
X35506Y-45664D01*
X35478Y-45589D01*
X35506Y-45364D01*
X35553Y-45289D01*
X35595Y-45251D01*
X35675Y-45214D01*
X35825Y-45214D01*
X35895Y-45251D01*
X36476Y-45701D02*
X36397Y-45739D01*
X36247Y-45739D01*
X36176Y-45701D01*
X36148Y-45626D01*
X36186Y-45326D01*
X36233Y-45251D01*
X36312Y-45214D01*
X36462Y-45214D01*
X36533Y-45251D01*
X36561Y-45326D01*
X36551Y-45401D01*
X36167Y-45476D01*
X36814Y-45701D02*
X36884Y-45739D01*
X37034Y-45739D01*
X37114Y-45701D01*
X37161Y-45626D01*
X37165Y-45589D01*
X37137Y-45514D01*
X37067Y-45476D01*
X36954Y-45476D01*
X36884Y-45439D01*
X36856Y-45364D01*
X36861Y-45326D01*
X36908Y-45251D01*
X36987Y-45214D01*
X37100Y-45214D01*
X37170Y-45251D01*
X91046Y-58148D02*
X91384Y-58148D01*
X91215Y-58739D02*
X91215Y-58148D01*
X91665Y-58739D02*
X91609Y-58710D01*
X91581Y-58682D01*
X91553Y-58626D01*
X91553Y-58457D01*
X91581Y-58401D01*
X91609Y-58373D01*
X91665Y-58345D01*
X91750Y-58345D01*
X91806Y-58373D01*
X91834Y-58401D01*
X91862Y-58457D01*
X91862Y-58626D01*
X91834Y-58682D01*
X91806Y-58710D01*
X91750Y-58739D01*
X91665Y-58739D01*
X92115Y-58345D02*
X92115Y-58935D01*
X92115Y-58373D02*
X92171Y-58345D01*
X92284Y-58345D01*
X92340Y-58373D01*
X92368Y-58401D01*
X92396Y-58457D01*
X92396Y-58626D01*
X92368Y-58682D01*
X92340Y-58710D01*
X92284Y-58739D01*
X92171Y-58739D01*
X92115Y-58710D01*
X90668Y-41189D02*
X90331Y-41189D01*
X90500Y-41189D02*
X90500Y-40598D01*
X90443Y-40682D01*
X90387Y-40739D01*
X90331Y-40767D01*
X83831Y-40654D02*
X83859Y-40626D01*
X83915Y-40598D01*
X84056Y-40598D01*
X84112Y-40626D01*
X84140Y-40654D01*
X84168Y-40710D01*
X84168Y-40767D01*
X84140Y-40851D01*
X83803Y-41189D01*
X84168Y-41189D01*
X77303Y-40598D02*
X77668Y-40598D01*
X77471Y-40823D01*
X77556Y-40823D01*
X77612Y-40851D01*
X77640Y-40879D01*
X77668Y-40935D01*
X77668Y-41076D01*
X77640Y-41132D01*
X77612Y-41160D01*
X77556Y-41189D01*
X77387Y-41189D01*
X77331Y-41160D01*
X77303Y-41132D01*
X70612Y-40795D02*
X70612Y-41189D01*
X70471Y-40570D02*
X70331Y-40992D01*
X70696Y-40992D01*
X63890Y-40598D02*
X63609Y-40598D01*
X63581Y-40879D01*
X63609Y-40851D01*
X63665Y-40823D01*
X63806Y-40823D01*
X63862Y-40851D01*
X63890Y-40879D01*
X63918Y-40935D01*
X63918Y-41076D01*
X63890Y-41132D01*
X63862Y-41160D01*
X63806Y-41189D01*
X63665Y-41189D01*
X63609Y-41160D01*
X63581Y-41132D01*
X54797Y-38231D02*
X54685Y-38231D01*
X54628Y-38259D01*
X54600Y-38287D01*
X54544Y-38371D01*
X54516Y-38484D01*
X54516Y-38709D01*
X54544Y-38765D01*
X54572Y-38793D01*
X54628Y-38821D01*
X54741Y-38821D01*
X54797Y-38793D01*
X54825Y-38765D01*
X54853Y-38709D01*
X54853Y-38568D01*
X54825Y-38512D01*
X54797Y-38484D01*
X54741Y-38456D01*
X54628Y-38456D01*
X54572Y-38484D01*
X54544Y-38512D01*
X54516Y-38568D01*
X48464Y-38270D02*
X48858Y-38270D01*
X48605Y-38861D01*
X44943Y-40851D02*
X44887Y-40823D01*
X44859Y-40795D01*
X44831Y-40739D01*
X44831Y-40710D01*
X44859Y-40654D01*
X44887Y-40626D01*
X44943Y-40598D01*
X45056Y-40598D01*
X45112Y-40626D01*
X45140Y-40654D01*
X45168Y-40710D01*
X45168Y-40739D01*
X45140Y-40795D01*
X45112Y-40823D01*
X45056Y-40851D01*
X44943Y-40851D01*
X44887Y-40879D01*
X44859Y-40907D01*
X44831Y-40964D01*
X44831Y-41076D01*
X44859Y-41132D01*
X44887Y-41160D01*
X44943Y-41189D01*
X45056Y-41189D01*
X45112Y-41160D01*
X45140Y-41132D01*
X45168Y-41076D01*
X45168Y-40964D01*
X45140Y-40907D01*
X45112Y-40879D01*
X45056Y-40851D01*
X38137Y-41189D02*
X38250Y-41189D01*
X38306Y-41160D01*
X38334Y-41132D01*
X38390Y-41048D01*
X38418Y-40935D01*
X38418Y-40710D01*
X38390Y-40654D01*
X38362Y-40626D01*
X38306Y-40598D01*
X38193Y-40598D01*
X38137Y-40626D01*
X38109Y-40654D01*
X38081Y-40710D01*
X38081Y-40851D01*
X38109Y-40907D01*
X38137Y-40935D01*
X38193Y-40964D01*
X38306Y-40964D01*
X38362Y-40935D01*
X38390Y-40907D01*
X38418Y-40851D01*
X31137Y-41189D02*
X30800Y-41189D01*
X30968Y-41189D02*
X30968Y-40598D01*
X30912Y-40682D01*
X30856Y-40739D01*
X30800Y-40767D01*
X31503Y-40598D02*
X31559Y-40598D01*
X31615Y-40626D01*
X31643Y-40654D01*
X31671Y-40710D01*
X31699Y-40823D01*
X31699Y-40964D01*
X31671Y-41076D01*
X31643Y-41132D01*
X31615Y-41160D01*
X31559Y-41189D01*
X31503Y-41189D01*
X31446Y-41160D01*
X31418Y-41132D01*
X31390Y-41076D01*
X31362Y-40964D01*
X31362Y-40823D01*
X31390Y-40710D01*
X31418Y-40654D01*
X31446Y-40626D01*
X31503Y-40598D01*
X24887Y-41189D02*
X24550Y-41189D01*
X24718Y-41189D02*
X24718Y-40598D01*
X24662Y-40682D01*
X24606Y-40739D01*
X24550Y-40767D01*
X25449Y-41189D02*
X25112Y-41189D01*
X25281Y-41189D02*
X25281Y-40598D01*
X25224Y-40682D01*
X25168Y-40739D01*
X25112Y-40767D01*
X18588Y-41183D02*
X18250Y-41183D01*
X18419Y-41183D02*
X18419Y-40593D01*
X18363Y-40677D01*
X18307Y-40733D01*
X18250Y-40762D01*
X18813Y-40649D02*
X18841Y-40621D01*
X18897Y-40593D01*
X19038Y-40593D01*
X19094Y-40621D01*
X19122Y-40649D01*
X19150Y-40705D01*
X19150Y-40762D01*
X19122Y-40846D01*
X18785Y-41183D01*
X19150Y-41183D01*
X60060Y-47284D02*
X60651Y-47284D01*
X60651Y-47509D01*
X60623Y-47565D01*
X60595Y-47593D01*
X60539Y-47622D01*
X60454Y-47622D01*
X60398Y-47593D01*
X60370Y-47565D01*
X60342Y-47509D01*
X60342Y-47284D01*
X60060Y-47875D02*
X60454Y-47875D01*
X60342Y-47875D02*
X60398Y-47903D01*
X60426Y-47931D01*
X60454Y-47987D01*
X60454Y-48043D01*
X60060Y-48325D02*
X60089Y-48268D01*
X60117Y-48240D01*
X60173Y-48212D01*
X60342Y-48212D01*
X60398Y-48240D01*
X60426Y-48268D01*
X60454Y-48325D01*
X60454Y-48409D01*
X60426Y-48465D01*
X60398Y-48493D01*
X60342Y-48521D01*
X60173Y-48521D01*
X60117Y-48493D01*
X60089Y-48465D01*
X60060Y-48409D01*
X60060Y-48325D01*
X60060Y-49224D02*
X60651Y-49224D01*
X60229Y-49421D01*
X60651Y-49618D01*
X60060Y-49618D01*
X60060Y-49899D02*
X60454Y-49899D01*
X60651Y-49899D02*
X60623Y-49871D01*
X60595Y-49899D01*
X60623Y-49928D01*
X60651Y-49899D01*
X60595Y-49899D01*
X60454Y-50181D02*
X60060Y-50181D01*
X60398Y-50181D02*
X60426Y-50209D01*
X60454Y-50265D01*
X60454Y-50349D01*
X60426Y-50406D01*
X60370Y-50434D01*
X60060Y-50434D01*
X60060Y-50715D02*
X60454Y-50715D01*
X60651Y-50715D02*
X60623Y-50687D01*
X60595Y-50715D01*
X60623Y-50743D01*
X60651Y-50715D01*
X60595Y-50715D01*
X32443Y-58411D02*
X31853Y-58411D01*
X31853Y-58270D01*
X31881Y-58186D01*
X31937Y-58129D01*
X31993Y-58101D01*
X32106Y-58073D01*
X32190Y-58073D01*
X32303Y-58101D01*
X32359Y-58129D01*
X32415Y-58186D01*
X32443Y-58270D01*
X32443Y-58411D01*
X32443Y-57820D02*
X31853Y-57820D01*
X32443Y-57539D02*
X31853Y-57539D01*
X32443Y-57201D01*
X31853Y-57201D01*
X31853Y-56639D02*
X31853Y-56920D01*
X32134Y-56948D01*
X32106Y-56920D01*
X32078Y-56864D01*
X32078Y-56723D01*
X32106Y-56667D01*
X32134Y-56639D01*
X32190Y-56611D01*
X32331Y-56611D01*
X32387Y-56639D01*
X32415Y-56667D01*
X32443Y-56723D01*
X32443Y-56864D01*
X32415Y-56920D01*
X32387Y-56948D01*
X32387Y-55570D02*
X32415Y-55598D01*
X32443Y-55683D01*
X32443Y-55739D01*
X32415Y-55823D01*
X32359Y-55880D01*
X32303Y-55908D01*
X32190Y-55936D01*
X32106Y-55936D01*
X31993Y-55908D01*
X31937Y-55880D01*
X31881Y-55823D01*
X31853Y-55739D01*
X31853Y-55683D01*
X31881Y-55598D01*
X31909Y-55570D01*
X32443Y-55233D02*
X32415Y-55289D01*
X32387Y-55317D01*
X32331Y-55345D01*
X32162Y-55345D01*
X32106Y-55317D01*
X32078Y-55289D01*
X32050Y-55233D01*
X32050Y-55149D01*
X32078Y-55092D01*
X32106Y-55064D01*
X32162Y-55036D01*
X32331Y-55036D01*
X32387Y-55064D01*
X32415Y-55092D01*
X32443Y-55149D01*
X32443Y-55233D01*
X32050Y-54783D02*
X32443Y-54783D01*
X32106Y-54783D02*
X32078Y-54755D01*
X32050Y-54699D01*
X32050Y-54614D01*
X32078Y-54558D01*
X32134Y-54530D01*
X32443Y-54530D01*
X32050Y-54249D02*
X32443Y-54249D01*
X32106Y-54249D02*
X32078Y-54221D01*
X32050Y-54164D01*
X32050Y-54080D01*
X32078Y-54024D01*
X32134Y-53996D01*
X32443Y-53996D01*
X32415Y-53489D02*
X32443Y-53546D01*
X32443Y-53658D01*
X32415Y-53714D01*
X32359Y-53742D01*
X32134Y-53742D01*
X32078Y-53714D01*
X32050Y-53658D01*
X32050Y-53546D01*
X32078Y-53489D01*
X32134Y-53461D01*
X32190Y-53461D01*
X32246Y-53742D01*
X32415Y-52955D02*
X32443Y-53011D01*
X32443Y-53124D01*
X32415Y-53180D01*
X32387Y-53208D01*
X32331Y-53236D01*
X32162Y-53236D01*
X32106Y-53208D01*
X32078Y-53180D01*
X32050Y-53124D01*
X32050Y-53011D01*
X32078Y-52955D01*
X32050Y-52786D02*
X32050Y-52561D01*
X31853Y-52702D02*
X32359Y-52702D01*
X32415Y-52674D01*
X32443Y-52618D01*
X32443Y-52561D01*
X32443Y-52280D02*
X32415Y-52336D01*
X32387Y-52365D01*
X32331Y-52393D01*
X32162Y-52393D01*
X32106Y-52365D01*
X32078Y-52336D01*
X32050Y-52280D01*
X32050Y-52196D01*
X32078Y-52140D01*
X32106Y-52111D01*
X32162Y-52083D01*
X32331Y-52083D01*
X32387Y-52111D01*
X32415Y-52140D01*
X32443Y-52196D01*
X32443Y-52280D01*
X32443Y-51830D02*
X32050Y-51830D01*
X32162Y-51830D02*
X32106Y-51802D01*
X32078Y-51774D01*
X32050Y-51718D01*
X32050Y-51661D01*
X68321Y-54097D02*
X68321Y-53506D01*
X68517Y-53928D01*
X68714Y-53506D01*
X68714Y-54097D01*
X68996Y-54097D02*
X68996Y-53506D01*
X69221Y-53506D01*
X69277Y-53534D01*
X69305Y-53562D01*
X69333Y-53619D01*
X69333Y-53703D01*
X69305Y-53759D01*
X69277Y-53787D01*
X69221Y-53816D01*
X68996Y-53816D01*
X69530Y-53506D02*
X69895Y-53506D01*
X69699Y-53731D01*
X69783Y-53731D01*
X69839Y-53759D01*
X69867Y-53787D01*
X69895Y-53844D01*
X69895Y-53984D01*
X69867Y-54041D01*
X69839Y-54069D01*
X69783Y-54097D01*
X69614Y-54097D01*
X69558Y-54069D01*
X69530Y-54041D01*
X70598Y-54097D02*
X70598Y-53506D01*
X70795Y-53928D01*
X70992Y-53506D01*
X70992Y-54097D01*
X71358Y-54097D02*
X71302Y-54069D01*
X71273Y-54041D01*
X71245Y-53984D01*
X71245Y-53816D01*
X71273Y-53759D01*
X71302Y-53731D01*
X71358Y-53703D01*
X71442Y-53703D01*
X71498Y-53731D01*
X71526Y-53759D01*
X71555Y-53816D01*
X71555Y-53984D01*
X71526Y-54041D01*
X71498Y-54069D01*
X71442Y-54097D01*
X71358Y-54097D01*
X72061Y-54097D02*
X72061Y-53506D01*
X72061Y-54069D02*
X72005Y-54097D01*
X71892Y-54097D01*
X71836Y-54069D01*
X71808Y-54041D01*
X71780Y-53984D01*
X71780Y-53816D01*
X71808Y-53759D01*
X71836Y-53731D01*
X71892Y-53703D01*
X72005Y-53703D01*
X72061Y-53731D01*
X72595Y-53703D02*
X72595Y-54097D01*
X72342Y-53703D02*
X72342Y-54012D01*
X72370Y-54069D01*
X72426Y-54097D01*
X72511Y-54097D01*
X72567Y-54069D01*
X72595Y-54041D01*
X72961Y-54097D02*
X72904Y-54069D01*
X72876Y-54012D01*
X72876Y-53506D01*
X73411Y-54069D02*
X73354Y-54097D01*
X73242Y-54097D01*
X73186Y-54069D01*
X73158Y-54012D01*
X73158Y-53787D01*
X73186Y-53731D01*
X73242Y-53703D01*
X73354Y-53703D01*
X73411Y-53731D01*
X73439Y-53787D01*
X73439Y-53844D01*
X73158Y-53900D01*
X39706Y-58429D02*
X39791Y-58457D01*
X39819Y-58485D01*
X39847Y-58542D01*
X39847Y-58626D01*
X39819Y-58682D01*
X39791Y-58710D01*
X39734Y-58739D01*
X39509Y-58739D01*
X39509Y-58148D01*
X39706Y-58148D01*
X39762Y-58176D01*
X39791Y-58204D01*
X39819Y-58260D01*
X39819Y-58317D01*
X39791Y-58373D01*
X39762Y-58401D01*
X39706Y-58429D01*
X39509Y-58429D01*
X40184Y-58739D02*
X40128Y-58710D01*
X40100Y-58654D01*
X40100Y-58148D01*
X40662Y-58345D02*
X40662Y-58739D01*
X40409Y-58345D02*
X40409Y-58654D01*
X40437Y-58710D01*
X40494Y-58739D01*
X40578Y-58739D01*
X40634Y-58710D01*
X40662Y-58682D01*
X41169Y-58710D02*
X41112Y-58739D01*
X41000Y-58739D01*
X40944Y-58710D01*
X40915Y-58654D01*
X40915Y-58429D01*
X40944Y-58373D01*
X41000Y-58345D01*
X41112Y-58345D01*
X41169Y-58373D01*
X41197Y-58429D01*
X41197Y-58485D01*
X40915Y-58542D01*
X41365Y-58345D02*
X41590Y-58345D01*
X41450Y-58148D02*
X41450Y-58654D01*
X41478Y-58710D01*
X41534Y-58739D01*
X41590Y-58739D01*
X41872Y-58739D02*
X41815Y-58710D01*
X41787Y-58682D01*
X41759Y-58626D01*
X41759Y-58457D01*
X41787Y-58401D01*
X41815Y-58373D01*
X41872Y-58345D01*
X41956Y-58345D01*
X42012Y-58373D01*
X42040Y-58401D01*
X42068Y-58457D01*
X42068Y-58626D01*
X42040Y-58682D01*
X42012Y-58710D01*
X41956Y-58739D01*
X41872Y-58739D01*
X42406Y-58739D02*
X42350Y-58710D01*
X42321Y-58682D01*
X42293Y-58626D01*
X42293Y-58457D01*
X42321Y-58401D01*
X42350Y-58373D01*
X42406Y-58345D01*
X42490Y-58345D01*
X42546Y-58373D01*
X42575Y-58401D01*
X42603Y-58457D01*
X42603Y-58626D01*
X42575Y-58682D01*
X42546Y-58710D01*
X42490Y-58739D01*
X42406Y-58739D01*
X42771Y-58345D02*
X42996Y-58345D01*
X42856Y-58148D02*
X42856Y-58654D01*
X42884Y-58710D01*
X42940Y-58739D01*
X42996Y-58739D01*
X43193Y-58739D02*
X43193Y-58148D01*
X43446Y-58739D02*
X43446Y-58429D01*
X43418Y-58373D01*
X43362Y-58345D01*
X43278Y-58345D01*
X43221Y-58373D01*
X43193Y-58401D01*
X44178Y-58739D02*
X44178Y-58148D01*
X44374Y-58570D01*
X44571Y-58148D01*
X44571Y-58739D01*
X44937Y-58739D02*
X44881Y-58710D01*
X44852Y-58682D01*
X44824Y-58626D01*
X44824Y-58457D01*
X44852Y-58401D01*
X44881Y-58373D01*
X44937Y-58345D01*
X45021Y-58345D01*
X45077Y-58373D01*
X45106Y-58401D01*
X45134Y-58457D01*
X45134Y-58626D01*
X45106Y-58682D01*
X45077Y-58710D01*
X45021Y-58739D01*
X44937Y-58739D01*
X45640Y-58739D02*
X45640Y-58148D01*
X45640Y-58710D02*
X45584Y-58739D01*
X45471Y-58739D01*
X45415Y-58710D01*
X45387Y-58682D01*
X45359Y-58626D01*
X45359Y-58457D01*
X45387Y-58401D01*
X45415Y-58373D01*
X45471Y-58345D01*
X45584Y-58345D01*
X45640Y-58373D01*
X46174Y-58345D02*
X46174Y-58739D01*
X45921Y-58345D02*
X45921Y-58654D01*
X45949Y-58710D01*
X46005Y-58739D01*
X46090Y-58739D01*
X46146Y-58710D01*
X46174Y-58682D01*
X46540Y-58739D02*
X46483Y-58710D01*
X46455Y-58654D01*
X46455Y-58148D01*
X46990Y-58710D02*
X46933Y-58739D01*
X46821Y-58739D01*
X46765Y-58710D01*
X46737Y-58654D01*
X46737Y-58429D01*
X46765Y-58373D01*
X46821Y-58345D01*
X46933Y-58345D01*
X46990Y-58373D01*
X47018Y-58429D01*
X47018Y-58485D01*
X46737Y-58542D01*
G54D14*
X64200Y-55350D02*
X62700Y-53850D01*
X62700Y-53850D02*
X62200Y-53850D01*
X62200Y-53850D02*
X61700Y-54350D01*
X61700Y-54350D02*
X61700Y-55350D01*
X61700Y-55350D02*
X62700Y-56350D01*
X62700Y-56350D02*
X63700Y-56350D01*
X63700Y-56350D02*
X64200Y-55850D01*
X64200Y-55850D02*
X64200Y-55350D01*
G54D10*
X53879Y-49050D02*
X52600Y-50329D01*
X52600Y-50329D02*
X51320Y-49050D01*
X51320Y-49050D02*
X52600Y-47770D01*
X52600Y-47770D02*
X53879Y-49050D01*
X59883Y-52593D02*
X59883Y-45408D01*
X59883Y-45408D02*
X47285Y-45408D01*
X47285Y-45408D02*
X47285Y-52593D01*
X47285Y-52593D02*
X59883Y-52593D01*
X16300Y-51690D02*
X16694Y-51690D01*
X16300Y-51395D02*
X16694Y-51395D01*
X16300Y-51100D02*
X16694Y-51100D01*
X16300Y-50804D02*
X16694Y-50804D01*
X16300Y-50509D02*
X16694Y-50509D01*
X18170Y-51985D02*
X16300Y-51985D01*
X18170Y-50214D02*
X16300Y-50214D01*
X20237Y-53166D02*
X20237Y-53659D01*
X20237Y-53659D02*
X16300Y-53659D01*
X16300Y-53659D02*
X16300Y-52871D01*
X16300Y-52871D02*
X18170Y-52871D01*
X18170Y-52871D02*
X18170Y-52281D01*
X18170Y-52281D02*
X16300Y-52281D01*
X16300Y-52281D02*
X16300Y-49918D01*
X16300Y-49918D02*
X18170Y-49918D01*
X18170Y-49918D02*
X18170Y-49426D01*
X18170Y-49426D02*
X18170Y-49229D01*
X18170Y-49229D02*
X16300Y-49229D01*
X16300Y-49229D02*
X16300Y-48540D01*
X16300Y-48540D02*
X20237Y-48540D01*
X20237Y-48540D02*
X20237Y-49131D01*
G54D15*
X18700Y-53100D02*
X18450Y-53100D01*
X18450Y-53100D02*
X18450Y-49100D01*
X18450Y-49100D02*
X18700Y-49100D01*
X20200Y-53100D02*
X18700Y-53100D01*
X18700Y-53100D02*
X18700Y-49100D01*
X18700Y-49100D02*
X20200Y-49100D01*
X20200Y-49100D02*
X20200Y-53100D01*
G54D16*
X49450Y-35000D02*
X49450Y-34800D01*
X49450Y-32000D02*
X49450Y-32200D01*
X49450Y-32200D02*
X49050Y-32200D01*
X49050Y-32200D02*
X49050Y-34800D01*
X49050Y-34800D02*
X49850Y-34800D01*
X49850Y-34800D02*
X49850Y-32200D01*
X49850Y-32200D02*
X49450Y-32200D01*
X49250Y-34800D02*
X49050Y-34600D01*
X16750Y-35000D02*
X16750Y-34800D01*
X16750Y-32000D02*
X16750Y-32200D01*
X16750Y-32200D02*
X16350Y-32200D01*
X16350Y-32200D02*
X16350Y-34800D01*
X16350Y-34800D02*
X17150Y-34800D01*
X17150Y-34800D02*
X17150Y-32200D01*
X17150Y-32200D02*
X16750Y-32200D01*
X16550Y-34800D02*
X16350Y-34600D01*
X22950Y-35000D02*
X22950Y-34800D01*
X22950Y-32000D02*
X22950Y-32200D01*
X22950Y-32200D02*
X22550Y-32200D01*
X22550Y-32200D02*
X22550Y-34800D01*
X22550Y-34800D02*
X23350Y-34800D01*
X23350Y-34800D02*
X23350Y-32200D01*
X23350Y-32200D02*
X22950Y-32200D01*
X22750Y-34800D02*
X22550Y-34600D01*
X29350Y-35000D02*
X29350Y-34800D01*
X29350Y-32000D02*
X29350Y-32200D01*
X29350Y-32200D02*
X28950Y-32200D01*
X28950Y-32200D02*
X28950Y-34800D01*
X28950Y-34800D02*
X29750Y-34800D01*
X29750Y-34800D02*
X29750Y-32200D01*
X29750Y-32200D02*
X29350Y-32200D01*
X29150Y-34800D02*
X28950Y-34600D01*
X36250Y-35000D02*
X36250Y-34800D01*
X36250Y-32000D02*
X36250Y-32200D01*
X36250Y-32200D02*
X35850Y-32200D01*
X35850Y-32200D02*
X35850Y-34800D01*
X35850Y-34800D02*
X36650Y-34800D01*
X36650Y-34800D02*
X36650Y-32200D01*
X36650Y-32200D02*
X36250Y-32200D01*
X36050Y-34800D02*
X35850Y-34600D01*
X42850Y-35000D02*
X42850Y-34800D01*
X42850Y-32000D02*
X42850Y-32200D01*
X42850Y-32200D02*
X42450Y-32200D01*
X42450Y-32200D02*
X42450Y-34800D01*
X42450Y-34800D02*
X43250Y-34800D01*
X43250Y-34800D02*
X43250Y-32200D01*
X43250Y-32200D02*
X42850Y-32200D01*
X42650Y-34800D02*
X42450Y-34600D01*
X88550Y-35000D02*
X88550Y-34800D01*
X88550Y-32000D02*
X88550Y-32200D01*
X88550Y-32200D02*
X88150Y-32200D01*
X88150Y-32200D02*
X88150Y-34800D01*
X88150Y-34800D02*
X88950Y-34800D01*
X88950Y-34800D02*
X88950Y-32200D01*
X88950Y-32200D02*
X88550Y-32200D01*
X88350Y-34800D02*
X88150Y-34600D01*
X81950Y-35000D02*
X81950Y-34800D01*
X81950Y-32000D02*
X81950Y-32200D01*
X81950Y-32200D02*
X81550Y-32200D01*
X81550Y-32200D02*
X81550Y-34800D01*
X81550Y-34800D02*
X82350Y-34800D01*
X82350Y-34800D02*
X82350Y-32200D01*
X82350Y-32200D02*
X81950Y-32200D01*
X81750Y-34800D02*
X81550Y-34600D01*
X55650Y-35000D02*
X55650Y-34800D01*
X55650Y-32000D02*
X55650Y-32200D01*
X55650Y-32200D02*
X55250Y-32200D01*
X55250Y-32200D02*
X55250Y-34800D01*
X55250Y-34800D02*
X56050Y-34800D01*
X56050Y-34800D02*
X56050Y-32200D01*
X56050Y-32200D02*
X55650Y-32200D01*
X55450Y-34800D02*
X55250Y-34600D01*
X61650Y-35000D02*
X61650Y-34800D01*
X61650Y-32000D02*
X61650Y-32200D01*
X61650Y-32200D02*
X61250Y-32200D01*
X61250Y-32200D02*
X61250Y-34800D01*
X61250Y-34800D02*
X62050Y-34800D01*
X62050Y-34800D02*
X62050Y-32200D01*
X62050Y-32200D02*
X61650Y-32200D01*
X61450Y-34800D02*
X61250Y-34600D01*
X68450Y-35000D02*
X68450Y-34800D01*
X68450Y-32000D02*
X68450Y-32200D01*
X68450Y-32200D02*
X68050Y-32200D01*
X68050Y-32200D02*
X68050Y-34800D01*
X68050Y-34800D02*
X68850Y-34800D01*
X68850Y-34800D02*
X68850Y-32200D01*
X68850Y-32200D02*
X68450Y-32200D01*
X68250Y-34800D02*
X68050Y-34600D01*
X32570Y-35950D02*
X32570Y-34450D01*
G54D17*
X32257Y-35200D02*
G75*
G03X32257Y-35200I-707J0D01*
G74*
G01*
G54D18*
X32549Y-34449D02*
G75*
G03X32549Y-35950I-999J-750D01*
G74*
G01*
G54D19*
X31550Y-34750D02*
G75*
G03X31100Y-35200I0J-450D01*
G74*
G01*
X31550Y-35650D02*
G75*
G03X32000Y-35200I0J450D01*
G74*
G01*
X31550Y-34550D02*
G75*
G03X30900Y-35200I0J-650D01*
G74*
G01*
X31550Y-35850D02*
G75*
G03X32200Y-35200I0J650D01*
G74*
G01*
X31550Y-34350D02*
G75*
G03X30700Y-35200I0J-850D01*
G74*
G01*
X31550Y-36050D02*
G75*
G03X32400Y-35200I0J850D01*
G74*
G01*
G54D16*
X39370Y-35950D02*
X39370Y-34450D01*
G54D17*
X39057Y-35200D02*
G75*
G03X39057Y-35200I-707J0D01*
G74*
G01*
G54D18*
X39349Y-34449D02*
G75*
G03X39349Y-35950I-999J-750D01*
G74*
G01*
G54D19*
X38350Y-34750D02*
G75*
G03X37900Y-35200I0J-450D01*
G74*
G01*
X38350Y-35650D02*
G75*
G03X38800Y-35200I0J450D01*
G74*
G01*
X38350Y-34550D02*
G75*
G03X37700Y-35200I0J-650D01*
G74*
G01*
X38350Y-35850D02*
G75*
G03X39000Y-35200I0J650D01*
G74*
G01*
X38350Y-34350D02*
G75*
G03X37500Y-35200I0J-850D01*
G74*
G01*
X38350Y-36050D02*
G75*
G03X39200Y-35200I0J850D01*
G74*
G01*
G54D16*
X26170Y-35950D02*
X26170Y-34450D01*
G54D17*
X25857Y-35200D02*
G75*
G03X25857Y-35200I-707J0D01*
G74*
G01*
G54D18*
X26149Y-34449D02*
G75*
G03X26149Y-35950I-999J-750D01*
G74*
G01*
G54D19*
X25150Y-34750D02*
G75*
G03X24700Y-35200I0J-450D01*
G74*
G01*
X25150Y-35650D02*
G75*
G03X25600Y-35200I0J450D01*
G74*
G01*
X25150Y-34550D02*
G75*
G03X24500Y-35200I0J-650D01*
G74*
G01*
X25150Y-35850D02*
G75*
G03X25800Y-35200I0J650D01*
G74*
G01*
X25150Y-34350D02*
G75*
G03X24300Y-35200I0J-850D01*
G74*
G01*
X25150Y-36050D02*
G75*
G03X26000Y-35200I0J850D01*
G74*
G01*
G54D16*
X91770Y-35950D02*
X91770Y-34450D01*
G54D17*
X91457Y-35200D02*
G75*
G03X91457Y-35200I-707J0D01*
G74*
G01*
G54D18*
X91749Y-34449D02*
G75*
G03X91749Y-35950I-999J-750D01*
G74*
G01*
G54D19*
X90750Y-34750D02*
G75*
G03X90300Y-35200I0J-450D01*
G74*
G01*
X90750Y-35650D02*
G75*
G03X91200Y-35200I0J450D01*
G74*
G01*
X90750Y-34550D02*
G75*
G03X90100Y-35200I0J-650D01*
G74*
G01*
X90750Y-35850D02*
G75*
G03X91400Y-35200I0J650D01*
G74*
G01*
X90750Y-34350D02*
G75*
G03X89900Y-35200I0J-850D01*
G74*
G01*
X90750Y-36050D02*
G75*
G03X91600Y-35200I0J850D01*
G74*
G01*
G54D16*
X71670Y-35950D02*
X71670Y-34450D01*
G54D17*
X71357Y-35200D02*
G75*
G03X71357Y-35200I-707J0D01*
G74*
G01*
G54D18*
X71649Y-34449D02*
G75*
G03X71649Y-35950I-999J-750D01*
G74*
G01*
G54D19*
X70650Y-34750D02*
G75*
G03X70200Y-35200I0J-450D01*
G74*
G01*
X70650Y-35650D02*
G75*
G03X71100Y-35200I0J450D01*
G74*
G01*
X70650Y-34550D02*
G75*
G03X70000Y-35200I0J-650D01*
G74*
G01*
X70650Y-35850D02*
G75*
G03X71300Y-35200I0J650D01*
G74*
G01*
X70650Y-34350D02*
G75*
G03X69800Y-35200I0J-850D01*
G74*
G01*
X70650Y-36050D02*
G75*
G03X71500Y-35200I0J850D01*
G74*
G01*
G54D16*
X20020Y-35950D02*
X20020Y-34450D01*
G54D17*
X19707Y-35200D02*
G75*
G03X19707Y-35200I-707J0D01*
G74*
G01*
G54D18*
X19999Y-34449D02*
G75*
G03X19999Y-35950I-999J-750D01*
G74*
G01*
G54D19*
X19000Y-34750D02*
G75*
G03X18550Y-35200I0J-450D01*
G74*
G01*
X19000Y-35650D02*
G75*
G03X19450Y-35200I0J450D01*
G74*
G01*
X19000Y-34550D02*
G75*
G03X18350Y-35200I0J-650D01*
G74*
G01*
X19000Y-35850D02*
G75*
G03X19650Y-35200I0J650D01*
G74*
G01*
X19000Y-34350D02*
G75*
G03X18150Y-35200I0J-850D01*
G74*
G01*
X19000Y-36050D02*
G75*
G03X19850Y-35200I0J850D01*
G74*
G01*
G54D16*
X46070Y-35950D02*
X46070Y-34450D01*
G54D17*
X45757Y-35200D02*
G75*
G03X45757Y-35200I-707J0D01*
G74*
G01*
G54D18*
X46049Y-34449D02*
G75*
G03X46049Y-35950I-999J-750D01*
G74*
G01*
G54D19*
X45050Y-34750D02*
G75*
G03X44600Y-35200I0J-450D01*
G74*
G01*
X45050Y-35650D02*
G75*
G03X45500Y-35200I0J450D01*
G74*
G01*
X45050Y-34550D02*
G75*
G03X44400Y-35200I0J-650D01*
G74*
G01*
X45050Y-35850D02*
G75*
G03X45700Y-35200I0J650D01*
G74*
G01*
X45050Y-34350D02*
G75*
G03X44200Y-35200I0J-850D01*
G74*
G01*
X45050Y-36050D02*
G75*
G03X45900Y-35200I0J850D01*
G74*
G01*
G54D16*
X85070Y-35950D02*
X85070Y-34450D01*
G54D17*
X84757Y-35200D02*
G75*
G03X84757Y-35200I-707J0D01*
G74*
G01*
G54D18*
X85049Y-34449D02*
G75*
G03X85049Y-35950I-999J-750D01*
G74*
G01*
G54D19*
X84050Y-34750D02*
G75*
G03X83600Y-35200I0J-450D01*
G74*
G01*
X84050Y-35650D02*
G75*
G03X84500Y-35200I0J450D01*
G74*
G01*
X84050Y-34550D02*
G75*
G03X83400Y-35200I0J-650D01*
G74*
G01*
X84050Y-35850D02*
G75*
G03X84700Y-35200I0J650D01*
G74*
G01*
X84050Y-34350D02*
G75*
G03X83200Y-35200I0J-850D01*
G74*
G01*
X84050Y-36050D02*
G75*
G03X84900Y-35200I0J850D01*
G74*
G01*
G54D16*
X52570Y-35950D02*
X52570Y-34450D01*
G54D17*
X52257Y-35200D02*
G75*
G03X52257Y-35200I-707J0D01*
G74*
G01*
G54D18*
X52549Y-34449D02*
G75*
G03X52549Y-35950I-999J-750D01*
G74*
G01*
G54D19*
X51550Y-34750D02*
G75*
G03X51100Y-35200I0J-450D01*
G74*
G01*
X51550Y-35650D02*
G75*
G03X52000Y-35200I0J450D01*
G74*
G01*
X51550Y-34550D02*
G75*
G03X50900Y-35200I0J-650D01*
G74*
G01*
X51550Y-35850D02*
G75*
G03X52200Y-35200I0J650D01*
G74*
G01*
X51550Y-34350D02*
G75*
G03X50700Y-35200I0J-850D01*
G74*
G01*
X51550Y-36050D02*
G75*
G03X52400Y-35200I0J850D01*
G74*
G01*
G54D16*
X64870Y-35950D02*
X64870Y-34450D01*
G54D17*
X64557Y-35200D02*
G75*
G03X64557Y-35200I-707J0D01*
G74*
G01*
G54D18*
X64849Y-34449D02*
G75*
G03X64849Y-35950I-999J-750D01*
G74*
G01*
G54D19*
X63850Y-34750D02*
G75*
G03X63400Y-35200I0J-450D01*
G74*
G01*
X63850Y-35650D02*
G75*
G03X64300Y-35200I0J450D01*
G74*
G01*
X63850Y-34550D02*
G75*
G03X63200Y-35200I0J-650D01*
G74*
G01*
X63850Y-35850D02*
G75*
G03X64500Y-35200I0J650D01*
G74*
G01*
X63850Y-34350D02*
G75*
G03X63000Y-35200I0J-850D01*
G74*
G01*
X63850Y-36050D02*
G75*
G03X64700Y-35200I0J850D01*
G74*
G01*
G54D16*
X58870Y-35950D02*
X58870Y-34450D01*
G54D17*
X58557Y-35200D02*
G75*
G03X58557Y-35200I-707J0D01*
G74*
G01*
G54D18*
X58849Y-34449D02*
G75*
G03X58849Y-35950I-999J-750D01*
G74*
G01*
G54D19*
X57850Y-34750D02*
G75*
G03X57400Y-35200I0J-450D01*
G74*
G01*
X57850Y-35650D02*
G75*
G03X58300Y-35200I0J450D01*
G74*
G01*
X57850Y-34550D02*
G75*
G03X57200Y-35200I0J-650D01*
G74*
G01*
X57850Y-35850D02*
G75*
G03X58500Y-35200I0J650D01*
G74*
G01*
X57850Y-34350D02*
G75*
G03X57000Y-35200I0J-850D01*
G74*
G01*
X57850Y-36050D02*
G75*
G03X58700Y-35200I0J850D01*
G74*
G01*
G54D14*
X46450Y-27800D02*
X46150Y-27800D01*
X46150Y-27800D02*
X46150Y-27400D01*
X46150Y-27400D02*
X43750Y-27400D01*
X43750Y-27400D02*
X43750Y-27800D01*
X43750Y-27800D02*
X43450Y-27800D01*
X43750Y-27800D02*
X43750Y-28200D01*
X43750Y-28200D02*
X46150Y-28200D01*
X46150Y-28200D02*
X46150Y-27800D01*
X45950Y-27400D02*
X45950Y-28200D01*
X45850Y-28200D02*
X45850Y-27400D01*
X85450Y-27800D02*
X85150Y-27800D01*
X85150Y-27800D02*
X85150Y-27400D01*
X85150Y-27400D02*
X82750Y-27400D01*
X82750Y-27400D02*
X82750Y-27800D01*
X82750Y-27800D02*
X82450Y-27800D01*
X82750Y-27800D02*
X82750Y-28200D01*
X82750Y-28200D02*
X85150Y-28200D01*
X85150Y-28200D02*
X85150Y-27800D01*
X84950Y-27400D02*
X84950Y-28200D01*
X84850Y-28200D02*
X84850Y-27400D01*
X65250Y-27800D02*
X64950Y-27800D01*
X64950Y-27800D02*
X64950Y-27400D01*
X64950Y-27400D02*
X62550Y-27400D01*
X62550Y-27400D02*
X62550Y-27800D01*
X62550Y-27800D02*
X62250Y-27800D01*
X62550Y-27800D02*
X62550Y-28200D01*
X62550Y-28200D02*
X64950Y-28200D01*
X64950Y-28200D02*
X64950Y-27800D01*
X64750Y-27400D02*
X64750Y-28200D01*
X64650Y-28200D02*
X64650Y-27400D01*
X19650Y-27800D02*
X19350Y-27800D01*
X19350Y-27800D02*
X19350Y-27400D01*
X19350Y-27400D02*
X16950Y-27400D01*
X16950Y-27400D02*
X16950Y-27800D01*
X16950Y-27800D02*
X16650Y-27800D01*
X16950Y-27800D02*
X16950Y-28200D01*
X16950Y-28200D02*
X19350Y-28200D01*
X19350Y-28200D02*
X19350Y-27800D01*
X19150Y-27400D02*
X19150Y-28200D01*
X19050Y-28200D02*
X19050Y-27400D01*
X26550Y-27800D02*
X26250Y-27800D01*
X26250Y-27800D02*
X26250Y-27400D01*
X26250Y-27400D02*
X23850Y-27400D01*
X23850Y-27400D02*
X23850Y-27800D01*
X23850Y-27800D02*
X23550Y-27800D01*
X23850Y-27800D02*
X23850Y-28200D01*
X23850Y-28200D02*
X26250Y-28200D01*
X26250Y-28200D02*
X26250Y-27800D01*
X26050Y-27400D02*
X26050Y-28200D01*
X25950Y-28200D02*
X25950Y-27400D01*
X92050Y-27800D02*
X91750Y-27800D01*
X91750Y-27800D02*
X91750Y-27400D01*
X91750Y-27400D02*
X89350Y-27400D01*
X89350Y-27400D02*
X89350Y-27800D01*
X89350Y-27800D02*
X89050Y-27800D01*
X89350Y-27800D02*
X89350Y-28200D01*
X89350Y-28200D02*
X91750Y-28200D01*
X91750Y-28200D02*
X91750Y-27800D01*
X91550Y-27400D02*
X91550Y-28200D01*
X91450Y-28200D02*
X91450Y-27400D01*
X78950Y-27800D02*
X78650Y-27800D01*
X78650Y-27800D02*
X78650Y-27400D01*
X78650Y-27400D02*
X76250Y-27400D01*
X76250Y-27400D02*
X76250Y-27800D01*
X76250Y-27800D02*
X75950Y-27800D01*
X76250Y-27800D02*
X76250Y-28200D01*
X76250Y-28200D02*
X78650Y-28200D01*
X78650Y-28200D02*
X78650Y-27800D01*
X78450Y-27400D02*
X78450Y-28200D01*
X78350Y-28200D02*
X78350Y-27400D01*
X59150Y-27800D02*
X58850Y-27800D01*
X58850Y-27800D02*
X58850Y-27400D01*
X58850Y-27400D02*
X56450Y-27400D01*
X56450Y-27400D02*
X56450Y-27800D01*
X56450Y-27800D02*
X56150Y-27800D01*
X56450Y-27800D02*
X56450Y-28200D01*
X56450Y-28200D02*
X58850Y-28200D01*
X58850Y-28200D02*
X58850Y-27800D01*
X58650Y-27400D02*
X58650Y-28200D01*
X58550Y-28200D02*
X58550Y-27400D01*
X32850Y-27800D02*
X32550Y-27800D01*
X32550Y-27800D02*
X32550Y-27400D01*
X32550Y-27400D02*
X30150Y-27400D01*
X30150Y-27400D02*
X30150Y-27800D01*
X30150Y-27800D02*
X29850Y-27800D01*
X30150Y-27800D02*
X30150Y-28200D01*
X30150Y-28200D02*
X32550Y-28200D01*
X32550Y-28200D02*
X32550Y-27800D01*
X32350Y-27400D02*
X32350Y-28200D01*
X32250Y-28200D02*
X32250Y-27400D01*
X72050Y-27800D02*
X71750Y-27800D01*
X71750Y-27800D02*
X71750Y-27400D01*
X71750Y-27400D02*
X69350Y-27400D01*
X69350Y-27400D02*
X69350Y-27800D01*
X69350Y-27800D02*
X69050Y-27800D01*
X69350Y-27800D02*
X69350Y-28200D01*
X69350Y-28200D02*
X71750Y-28200D01*
X71750Y-28200D02*
X71750Y-27800D01*
X71550Y-27400D02*
X71550Y-28200D01*
X71450Y-28200D02*
X71450Y-27400D01*
X39750Y-27800D02*
X39450Y-27800D01*
X39450Y-27800D02*
X39450Y-27400D01*
X39450Y-27400D02*
X37050Y-27400D01*
X37050Y-27400D02*
X37050Y-27800D01*
X37050Y-27800D02*
X36750Y-27800D01*
X37050Y-27800D02*
X37050Y-28200D01*
X37050Y-28200D02*
X39450Y-28200D01*
X39450Y-28200D02*
X39450Y-27800D01*
X39250Y-27400D02*
X39250Y-28200D01*
X39150Y-28200D02*
X39150Y-27400D01*
X53050Y-27800D02*
X52750Y-27800D01*
X52750Y-27800D02*
X52750Y-27400D01*
X52750Y-27400D02*
X50350Y-27400D01*
X50350Y-27400D02*
X50350Y-27800D01*
X50350Y-27800D02*
X50050Y-27800D01*
X50350Y-27800D02*
X50350Y-28200D01*
X50350Y-28200D02*
X52750Y-28200D01*
X52750Y-28200D02*
X52750Y-27800D01*
X52550Y-27400D02*
X52550Y-28200D01*
X52450Y-28200D02*
X52450Y-27400D01*
G54D15*
X36300Y-29350D02*
X36300Y-29100D01*
X36300Y-29100D02*
X40300Y-29100D01*
X40300Y-29100D02*
X40300Y-29350D01*
X36300Y-30850D02*
X36300Y-29350D01*
X36300Y-29350D02*
X40300Y-29350D01*
X40300Y-29350D02*
X40300Y-30850D01*
X40300Y-30850D02*
X36300Y-30850D01*
X88600Y-29350D02*
X88600Y-29100D01*
X88600Y-29100D02*
X92600Y-29100D01*
X92600Y-29100D02*
X92600Y-29350D01*
X88600Y-30850D02*
X88600Y-29350D01*
X88600Y-29350D02*
X92600Y-29350D01*
X92600Y-29350D02*
X92600Y-30850D01*
X92600Y-30850D02*
X88600Y-30850D01*
X16100Y-29350D02*
X16100Y-29100D01*
X16100Y-29100D02*
X20100Y-29100D01*
X20100Y-29100D02*
X20100Y-29350D01*
X16100Y-30850D02*
X16100Y-29350D01*
X16100Y-29350D02*
X20100Y-29350D01*
X20100Y-29350D02*
X20100Y-30850D01*
X20100Y-30850D02*
X16100Y-30850D01*
X23050Y-29350D02*
X23050Y-29100D01*
X23050Y-29100D02*
X27050Y-29100D01*
X27050Y-29100D02*
X27050Y-29350D01*
X23050Y-30850D02*
X23050Y-29350D01*
X23050Y-29350D02*
X27050Y-29350D01*
X27050Y-29350D02*
X27050Y-30850D01*
X27050Y-30850D02*
X23050Y-30850D01*
X29400Y-29350D02*
X29400Y-29100D01*
X29400Y-29100D02*
X33400Y-29100D01*
X33400Y-29100D02*
X33400Y-29350D01*
X29400Y-30850D02*
X29400Y-29350D01*
X29400Y-29350D02*
X33400Y-29350D01*
X33400Y-29350D02*
X33400Y-30850D01*
X33400Y-30850D02*
X29400Y-30850D01*
X42950Y-29350D02*
X42950Y-29100D01*
X42950Y-29100D02*
X46950Y-29100D01*
X46950Y-29100D02*
X46950Y-29350D01*
X42950Y-30850D02*
X42950Y-29350D01*
X42950Y-29350D02*
X46950Y-29350D01*
X46950Y-29350D02*
X46950Y-30850D01*
X46950Y-30850D02*
X42950Y-30850D01*
X49500Y-29350D02*
X49500Y-29100D01*
X49500Y-29100D02*
X53500Y-29100D01*
X53500Y-29100D02*
X53500Y-29350D01*
X49500Y-30850D02*
X49500Y-29350D01*
X49500Y-29350D02*
X53500Y-29350D01*
X53500Y-29350D02*
X53500Y-30850D01*
X53500Y-30850D02*
X49500Y-30850D01*
X55700Y-29350D02*
X55700Y-29100D01*
X55700Y-29100D02*
X59700Y-29100D01*
X59700Y-29100D02*
X59700Y-29350D01*
X55700Y-30850D02*
X55700Y-29350D01*
X55700Y-29350D02*
X59700Y-29350D01*
X59700Y-29350D02*
X59700Y-30850D01*
X59700Y-30850D02*
X55700Y-30850D01*
X61750Y-29350D02*
X61750Y-29100D01*
X61750Y-29100D02*
X65750Y-29100D01*
X65750Y-29100D02*
X65750Y-29350D01*
X61750Y-30850D02*
X61750Y-29350D01*
X61750Y-29350D02*
X65750Y-29350D01*
X65750Y-29350D02*
X65750Y-30850D01*
X65750Y-30850D02*
X61750Y-30850D01*
X68550Y-29350D02*
X68550Y-29100D01*
X68550Y-29100D02*
X72550Y-29100D01*
X72550Y-29100D02*
X72550Y-29350D01*
X68550Y-30850D02*
X68550Y-29350D01*
X68550Y-29350D02*
X72550Y-29350D01*
X72550Y-29350D02*
X72550Y-30850D01*
X72550Y-30850D02*
X68550Y-30850D01*
X75450Y-29350D02*
X75450Y-29100D01*
X75450Y-29100D02*
X79450Y-29100D01*
X79450Y-29100D02*
X79450Y-29350D01*
X75450Y-30850D02*
X75450Y-29350D01*
X75450Y-29350D02*
X79450Y-29350D01*
X79450Y-29350D02*
X79450Y-30850D01*
X79450Y-30850D02*
X75450Y-30850D01*
X82000Y-29350D02*
X82000Y-29100D01*
X82000Y-29100D02*
X86000Y-29100D01*
X86000Y-29100D02*
X86000Y-29350D01*
X82000Y-30850D02*
X82000Y-29350D01*
X82000Y-29350D02*
X86000Y-29350D01*
X86000Y-29350D02*
X86000Y-30850D01*
X86000Y-30850D02*
X82000Y-30850D01*
G54D14*
X93550Y-54000D02*
X90550Y-54000D01*
X93550Y-48000D02*
X90550Y-48000D01*
X93050Y-54000D02*
X93050Y-48000D01*
X90550Y-54000D02*
X90550Y-48000D01*
X93550Y-54000D02*
X93550Y-48000D01*
G54D10*
X23728Y-58708D02*
X32291Y-58708D01*
X32291Y-58708D02*
X32291Y-59496D01*
X32291Y-59496D02*
X22842Y-59496D01*
X22842Y-59496D02*
X22842Y-58708D01*
X22842Y-58708D02*
X23728Y-58708D01*
X31503Y-58708D02*
X31503Y-52015D01*
X31503Y-52015D02*
X23728Y-52015D01*
X23728Y-52015D02*
X23728Y-58708D01*
G54D16*
X27350Y-48300D02*
X27350Y-48500D01*
X27350Y-51300D02*
X27350Y-51100D01*
X27350Y-51100D02*
X27750Y-51100D01*
X27750Y-51100D02*
X27750Y-48500D01*
X27750Y-48500D02*
X26950Y-48500D01*
X26950Y-48500D02*
X26950Y-51100D01*
X26950Y-51100D02*
X27350Y-51100D01*
X27550Y-48500D02*
X27750Y-48700D01*
X24450Y-48300D02*
X24450Y-48500D01*
X24450Y-51300D02*
X24450Y-51100D01*
X24450Y-51100D02*
X24850Y-51100D01*
X24850Y-51100D02*
X24850Y-48500D01*
X24850Y-48500D02*
X24050Y-48500D01*
X24050Y-48500D02*
X24050Y-51100D01*
X24050Y-51100D02*
X24450Y-51100D01*
X24650Y-48500D02*
X24850Y-48700D01*
X60750Y-56550D02*
X60550Y-56550D01*
X57750Y-56550D02*
X57950Y-56550D01*
X57950Y-56550D02*
X57950Y-56950D01*
X57950Y-56950D02*
X60550Y-56950D01*
X60550Y-56950D02*
X60550Y-56150D01*
X60550Y-56150D02*
X57950Y-56150D01*
X57950Y-56150D02*
X57950Y-56550D01*
X60550Y-56750D02*
X60350Y-56950D01*
X57750Y-57500D02*
X57950Y-57500D01*
X60750Y-57500D02*
X60550Y-57500D01*
X60550Y-57500D02*
X60550Y-57100D01*
X60550Y-57100D02*
X57950Y-57100D01*
X57950Y-57100D02*
X57950Y-57900D01*
X57950Y-57900D02*
X60550Y-57900D01*
X60550Y-57900D02*
X60550Y-57500D01*
X57950Y-57300D02*
X58150Y-57100D01*
X57750Y-58550D02*
X57950Y-58550D01*
X60750Y-58550D02*
X60550Y-58550D01*
X60550Y-58550D02*
X60550Y-58150D01*
X60550Y-58150D02*
X57950Y-58150D01*
X57950Y-58150D02*
X57950Y-58950D01*
X57950Y-58950D02*
X60550Y-58950D01*
X60550Y-58950D02*
X60550Y-58550D01*
X57950Y-58350D02*
X58150Y-58150D01*
G54D10*
X68787Y-53179D02*
X68787Y-52785D01*
X68787Y-52785D02*
X70362Y-52785D01*
X70362Y-52785D02*
X70362Y-53179D01*
X67015Y-53179D02*
X71838Y-53179D01*
X71838Y-53179D02*
X71838Y-44812D01*
X71838Y-44812D02*
X67015Y-44812D01*
X67015Y-44812D02*
X67015Y-53179D01*
G54D20*
X23101Y-50100D02*
G75*
G03X23101Y-50100I-1001J0D01*
G74*
G01*
X23101Y-47900D02*
G75*
G03X23101Y-47900I-1001J0D01*
G74*
G01*
G54D19*
X21100Y-44700D02*
X22100Y-44700D01*
X22100Y-44700D02*
X22100Y-46700D01*
X22100Y-46700D02*
X21100Y-46700D01*
X21100Y-46700D02*
X21100Y-44700D01*
G54D10*
X89500Y-38650D02*
X89400Y-38650D01*
X89400Y-38650D02*
X89400Y-38950D01*
X89400Y-38950D02*
X89500Y-38950D01*
X89500Y-38550D02*
X89500Y-39050D01*
X89200Y-39750D02*
X90200Y-39750D01*
X89700Y-38950D02*
X89700Y-39750D01*
X89700Y-37850D02*
X89700Y-38650D01*
X89200Y-37850D02*
X90200Y-37850D01*
X90327Y-38812D02*
G75*
G03X90327Y-38812I-630J0D01*
G74*
G01*
X87925Y-37335D02*
X87925Y-40288D01*
X87925Y-40288D02*
X91468Y-40288D01*
X91468Y-40288D02*
X91468Y-37335D01*
X91468Y-37335D02*
X87925Y-37335D01*
X44000Y-38400D02*
X43900Y-38400D01*
X43900Y-38400D02*
X43900Y-38700D01*
X43900Y-38700D02*
X44000Y-38700D01*
X44000Y-38300D02*
X44000Y-38800D01*
X43700Y-39500D02*
X44700Y-39500D01*
X44200Y-38700D02*
X44200Y-39500D01*
X44200Y-37600D02*
X44200Y-38400D01*
X43700Y-37600D02*
X44700Y-37600D01*
X44827Y-38562D02*
G75*
G03X44827Y-38562I-630J0D01*
G74*
G01*
X42425Y-37085D02*
X42425Y-40038D01*
X42425Y-40038D02*
X45968Y-40038D01*
X45968Y-40038D02*
X45968Y-37085D01*
X45968Y-37085D02*
X42425Y-37085D01*
X83000Y-38650D02*
X82900Y-38650D01*
X82900Y-38650D02*
X82900Y-38950D01*
X82900Y-38950D02*
X83000Y-38950D01*
X83000Y-38550D02*
X83000Y-39050D01*
X82700Y-39750D02*
X83700Y-39750D01*
X83200Y-38950D02*
X83200Y-39750D01*
X83200Y-37850D02*
X83200Y-38650D01*
X82700Y-37850D02*
X83700Y-37850D01*
X83827Y-38812D02*
G75*
G03X83827Y-38812I-630J0D01*
G74*
G01*
X81425Y-37335D02*
X81425Y-40288D01*
X81425Y-40288D02*
X84968Y-40288D01*
X84968Y-40288D02*
X84968Y-37335D01*
X84968Y-37335D02*
X81425Y-37335D01*
X50750Y-38400D02*
X50650Y-38400D01*
X50650Y-38400D02*
X50650Y-38700D01*
X50650Y-38700D02*
X50750Y-38700D01*
X50750Y-38300D02*
X50750Y-38800D01*
X50450Y-39500D02*
X51450Y-39500D01*
X50950Y-38700D02*
X50950Y-39500D01*
X50950Y-37600D02*
X50950Y-38400D01*
X50450Y-37600D02*
X51450Y-37600D01*
X51577Y-38562D02*
G75*
G03X51577Y-38562I-630J0D01*
G74*
G01*
X49175Y-37085D02*
X49175Y-40038D01*
X49175Y-40038D02*
X52718Y-40038D01*
X52718Y-40038D02*
X52718Y-37085D01*
X52718Y-37085D02*
X49175Y-37085D01*
X37450Y-38400D02*
X37350Y-38400D01*
X37350Y-38400D02*
X37350Y-38700D01*
X37350Y-38700D02*
X37450Y-38700D01*
X37450Y-38300D02*
X37450Y-38800D01*
X37150Y-39500D02*
X38150Y-39500D01*
X37650Y-38700D02*
X37650Y-39500D01*
X37650Y-37600D02*
X37650Y-38400D01*
X37150Y-37600D02*
X38150Y-37600D01*
X38277Y-38562D02*
G75*
G03X38277Y-38562I-630J0D01*
G74*
G01*
X35875Y-37085D02*
X35875Y-40038D01*
X35875Y-40038D02*
X39418Y-40038D01*
X39418Y-40038D02*
X39418Y-37085D01*
X39418Y-37085D02*
X35875Y-37085D01*
X76500Y-38650D02*
X76400Y-38650D01*
X76400Y-38650D02*
X76400Y-38950D01*
X76400Y-38950D02*
X76500Y-38950D01*
X76500Y-38550D02*
X76500Y-39050D01*
X76200Y-39750D02*
X77200Y-39750D01*
X76700Y-38950D02*
X76700Y-39750D01*
X76700Y-37850D02*
X76700Y-38650D01*
X76200Y-37850D02*
X77200Y-37850D01*
X77327Y-38812D02*
G75*
G03X77327Y-38812I-630J0D01*
G74*
G01*
X74925Y-37335D02*
X74925Y-40288D01*
X74925Y-40288D02*
X78468Y-40288D01*
X78468Y-40288D02*
X78468Y-37335D01*
X78468Y-37335D02*
X74925Y-37335D01*
X56750Y-38400D02*
X56650Y-38400D01*
X56650Y-38400D02*
X56650Y-38700D01*
X56650Y-38700D02*
X56750Y-38700D01*
X56750Y-38300D02*
X56750Y-38800D01*
X56450Y-39500D02*
X57450Y-39500D01*
X56950Y-38700D02*
X56950Y-39500D01*
X56950Y-37600D02*
X56950Y-38400D01*
X56450Y-37600D02*
X57450Y-37600D01*
X57577Y-38562D02*
G75*
G03X57577Y-38562I-630J0D01*
G74*
G01*
X55175Y-37085D02*
X55175Y-40038D01*
X55175Y-40038D02*
X58718Y-40038D01*
X58718Y-40038D02*
X58718Y-37085D01*
X58718Y-37085D02*
X55175Y-37085D01*
X30450Y-38550D02*
X30350Y-38550D01*
X30350Y-38550D02*
X30350Y-38850D01*
X30350Y-38850D02*
X30450Y-38850D01*
X30450Y-38450D02*
X30450Y-38950D01*
X30150Y-39650D02*
X31150Y-39650D01*
X30650Y-38850D02*
X30650Y-39650D01*
X30650Y-37750D02*
X30650Y-38550D01*
X30150Y-37750D02*
X31150Y-37750D01*
X31277Y-38712D02*
G75*
G03X31277Y-38712I-630J0D01*
G74*
G01*
X28875Y-37235D02*
X28875Y-40188D01*
X28875Y-40188D02*
X32418Y-40188D01*
X32418Y-40188D02*
X32418Y-37235D01*
X32418Y-37235D02*
X28875Y-37235D01*
X24100Y-38550D02*
X24000Y-38550D01*
X24000Y-38550D02*
X24000Y-38850D01*
X24000Y-38850D02*
X24100Y-38850D01*
X24100Y-38450D02*
X24100Y-38950D01*
X23800Y-39650D02*
X24800Y-39650D01*
X24300Y-38850D02*
X24300Y-39650D01*
X24300Y-37750D02*
X24300Y-38550D01*
X23800Y-37750D02*
X24800Y-37750D01*
X24927Y-38712D02*
G75*
G03X24927Y-38712I-630J0D01*
G74*
G01*
X22525Y-37235D02*
X22525Y-40188D01*
X22525Y-40188D02*
X26068Y-40188D01*
X26068Y-40188D02*
X26068Y-37235D01*
X26068Y-37235D02*
X22525Y-37235D01*
X69750Y-38650D02*
X69650Y-38650D01*
X69650Y-38650D02*
X69650Y-38950D01*
X69650Y-38950D02*
X69750Y-38950D01*
X69750Y-38550D02*
X69750Y-39050D01*
X69450Y-39750D02*
X70450Y-39750D01*
X69950Y-38950D02*
X69950Y-39750D01*
X69950Y-37850D02*
X69950Y-38650D01*
X69450Y-37850D02*
X70450Y-37850D01*
X70577Y-38812D02*
G75*
G03X70577Y-38812I-630J0D01*
G74*
G01*
X68175Y-37335D02*
X68175Y-40288D01*
X68175Y-40288D02*
X71718Y-40288D01*
X71718Y-40288D02*
X71718Y-37335D01*
X71718Y-37335D02*
X68175Y-37335D01*
X63000Y-38650D02*
X62900Y-38650D01*
X62900Y-38650D02*
X62900Y-38950D01*
X62900Y-38950D02*
X63000Y-38950D01*
X63000Y-38550D02*
X63000Y-39050D01*
X62700Y-39750D02*
X63700Y-39750D01*
X63200Y-38950D02*
X63200Y-39750D01*
X63200Y-37850D02*
X63200Y-38650D01*
X62700Y-37850D02*
X63700Y-37850D01*
X63827Y-38812D02*
G75*
G03X63827Y-38812I-630J0D01*
G74*
G01*
X61425Y-37335D02*
X61425Y-40288D01*
X61425Y-40288D02*
X64968Y-40288D01*
X64968Y-40288D02*
X64968Y-37335D01*
X64968Y-37335D02*
X61425Y-37335D01*
X18600Y-38550D02*
X18500Y-38550D01*
X18500Y-38550D02*
X18500Y-38850D01*
X18500Y-38850D02*
X18600Y-38850D01*
X18600Y-38450D02*
X18600Y-38950D01*
X18300Y-39650D02*
X19300Y-39650D01*
X18800Y-38850D02*
X18800Y-39650D01*
X18800Y-37750D02*
X18800Y-38550D01*
X18300Y-37750D02*
X19300Y-37750D01*
X19427Y-38712D02*
G75*
G03X19427Y-38712I-630J0D01*
G74*
G01*
X17025Y-37235D02*
X17025Y-40188D01*
X17025Y-40188D02*
X20568Y-40188D01*
X20568Y-40188D02*
X20568Y-37235D01*
X20568Y-37235D02*
X17025Y-37235D01*
G54D14*
X86894Y-41901D02*
X88874Y-41901D01*
X88874Y-41901D02*
X88874Y-42901D01*
X88874Y-42901D02*
X86874Y-42901D01*
X86874Y-42901D02*
X86874Y-41901D01*
X86874Y-42151D02*
X87124Y-41901D01*
X65970Y-53550D02*
X67950Y-53550D01*
X67950Y-53550D02*
X67950Y-54550D01*
X67950Y-54550D02*
X65950Y-54550D01*
X65950Y-54550D02*
X65950Y-53550D01*
X65950Y-53800D02*
X66200Y-53550D01*
G54D20*
X64251Y-57700D02*
G75*
G03X64251Y-57700I-1001J0D01*
G74*
G01*
X66501Y-57050D02*
G75*
G03X66501Y-57050I-1001J0D01*
G74*
G01*
G54D10*
X89174Y-51300D02*
G75*
G03X89174Y-51300I-1574J0D01*
G74*
G01*
X89448Y-46062D02*
G75*
G03X89448Y-46062I-1574J0D01*
G74*
G01*
G54D16*
X75400Y-34900D02*
X75400Y-34700D01*
X75400Y-31900D02*
X75400Y-32100D01*
X75400Y-32100D02*
X75000Y-32100D01*
X75000Y-32100D02*
X75000Y-34700D01*
X75000Y-34700D02*
X75800Y-34700D01*
X75800Y-34700D02*
X75800Y-32100D01*
X75800Y-32100D02*
X75400Y-32100D01*
X75200Y-34700D02*
X75000Y-34500D01*
G54D10*
X20915Y-25548D02*
X20915Y-24051D01*
X23868Y-25548D02*
X19852Y-25548D01*
X19852Y-25548D02*
X19852Y-24051D01*
X19852Y-24051D02*
X23868Y-24051D01*
X23868Y-24051D02*
X23868Y-25548D01*
X26815Y-25548D02*
X26815Y-24051D01*
X29768Y-25548D02*
X25752Y-25548D01*
X25752Y-25548D02*
X25752Y-24051D01*
X25752Y-24051D02*
X29768Y-24051D01*
X29768Y-24051D02*
X29768Y-25548D01*
X40915Y-25348D02*
X40915Y-23851D01*
X43868Y-25348D02*
X39852Y-25348D01*
X39852Y-25348D02*
X39852Y-23851D01*
X39852Y-23851D02*
X43868Y-23851D01*
X43868Y-23851D02*
X43868Y-25348D01*
X46615Y-25348D02*
X46615Y-23851D01*
X49568Y-25348D02*
X45552Y-25348D01*
X45552Y-25348D02*
X45552Y-23851D01*
X45552Y-23851D02*
X49568Y-23851D01*
X49568Y-23851D02*
X49568Y-25348D01*
X59415Y-25348D02*
X59415Y-23851D01*
X62368Y-25348D02*
X58352Y-25348D01*
X58352Y-25348D02*
X58352Y-23851D01*
X58352Y-23851D02*
X62368Y-23851D01*
X62368Y-23851D02*
X62368Y-25348D01*
X66015Y-25348D02*
X66015Y-23851D01*
X68968Y-25348D02*
X64952Y-25348D01*
X64952Y-25348D02*
X64952Y-23851D01*
X64952Y-23851D02*
X68968Y-23851D01*
X68968Y-23851D02*
X68968Y-25348D01*
X78415Y-25548D02*
X78415Y-24051D01*
X81368Y-25548D02*
X77352Y-25548D01*
X77352Y-25548D02*
X77352Y-24051D01*
X77352Y-24051D02*
X81368Y-24051D01*
X81368Y-24051D02*
X81368Y-25548D01*
X84615Y-25548D02*
X84615Y-24051D01*
X87568Y-25548D02*
X83552Y-25548D01*
X83552Y-25548D02*
X83552Y-24051D01*
X83552Y-24051D02*
X87568Y-24051D01*
X87568Y-24051D02*
X87568Y-25548D01*
G54D15*
X56625Y-43295D02*
X56625Y-43295D01*
X56625Y-43295D02*
X56125Y-43295D01*
X56125Y-43295D02*
X56125Y-42295D01*
X56125Y-42295D02*
X56625Y-42295D01*
X56625Y-43795D02*
X47625Y-43795D01*
X47625Y-43795D02*
X47625Y-41795D01*
X47625Y-41795D02*
X56625Y-41795D01*
X56625Y-41795D02*
X56625Y-43795D01*
X43700Y-41900D02*
X43700Y-41900D01*
X43700Y-41900D02*
X43700Y-42400D01*
X43700Y-42400D02*
X42700Y-42400D01*
X42700Y-42400D02*
X42700Y-41900D01*
X44200Y-41900D02*
X44200Y-50900D01*
X44200Y-50900D02*
X42200Y-50900D01*
X42200Y-50900D02*
X42200Y-41900D01*
X42200Y-41900D02*
X44200Y-41900D01*
G54D10*
X49253Y-57377D02*
X49135Y-57496D01*
X49135Y-57496D02*
X49253Y-57614D01*
X49372Y-57496D02*
X49135Y-57496D01*
X49372Y-56472D02*
X49253Y-56590D01*
X49253Y-56354D02*
X49372Y-56472D01*
X49372Y-56472D02*
X49096Y-56472D01*
X48663Y-53834D02*
X40631Y-53834D01*
X40631Y-53834D02*
X40592Y-57929D01*
X40592Y-57929D02*
X48742Y-57929D01*
X48742Y-57929D02*
X48742Y-53834D01*
X48742Y-53834D02*
X48663Y-53834D01*
X38742Y-53244D02*
X38742Y-58657D01*
X38545Y-53047D02*
X36773Y-53047D01*
X36773Y-53047D02*
X36773Y-58952D01*
X36773Y-58952D02*
X38545Y-58952D01*
X48092Y-54622D02*
X45927Y-54622D01*
X45927Y-54622D02*
X45927Y-57181D01*
X45927Y-57181D02*
X48092Y-57181D01*
X48092Y-57181D02*
X48092Y-54622D01*
X44155Y-54622D02*
X44155Y-57181D01*
X44155Y-57181D02*
X41891Y-57181D01*
X41891Y-57181D02*
X41891Y-54622D01*
X41891Y-54622D02*
X44155Y-54622D01*
X38053Y-53637D02*
X38151Y-53637D01*
X38151Y-53637D02*
X38151Y-53736D01*
X38151Y-53736D02*
X37167Y-53736D01*
X37167Y-53736D02*
X37167Y-54228D01*
X37167Y-54228D02*
X38151Y-54228D01*
X38151Y-54228D02*
X38151Y-55212D01*
X38151Y-55212D02*
X37167Y-55212D01*
X37167Y-55212D02*
X37167Y-55803D01*
X37167Y-55803D02*
X38151Y-55803D01*
X38151Y-55803D02*
X38151Y-56787D01*
X38151Y-56787D02*
X37167Y-56787D01*
X37167Y-56787D02*
X37167Y-57279D01*
X37167Y-57279D02*
X38151Y-57279D01*
X38151Y-57279D02*
X38151Y-58165D01*
X38151Y-58165D02*
X37167Y-58165D01*
X37167Y-58165D02*
X37167Y-58362D01*
X37167Y-58362D02*
X38151Y-58362D01*
X38151Y-58362D02*
X38151Y-58460D01*
X38151Y-58460D02*
X38053Y-58460D01*
X44253Y-54523D02*
X41793Y-54523D01*
X41793Y-54523D02*
X41793Y-57279D01*
X41793Y-57279D02*
X44253Y-57279D01*
X44253Y-57279D02*
X44253Y-54523D01*
X47895Y-54523D02*
X45828Y-54523D01*
X45828Y-54523D02*
X45828Y-57279D01*
X45828Y-57279D02*
X47895Y-57279D01*
X47895Y-57279D02*
X48190Y-57279D01*
X48190Y-57279D02*
X48190Y-54523D01*
X48190Y-54523D02*
X47895Y-54523D01*
X38053Y-53637D02*
X37068Y-53637D01*
X37068Y-53637D02*
X37068Y-54326D01*
X37068Y-54326D02*
X38053Y-54326D01*
X38053Y-54326D02*
X38053Y-55114D01*
X38053Y-55114D02*
X37068Y-55114D01*
X37068Y-55114D02*
X37068Y-55901D01*
X37068Y-55901D02*
X38053Y-55901D01*
X38053Y-55901D02*
X38053Y-56688D01*
X38053Y-56688D02*
X37068Y-56688D01*
X37068Y-56688D02*
X37068Y-57377D01*
X37068Y-57377D02*
X38053Y-57377D01*
X38053Y-57377D02*
X38053Y-58066D01*
X38053Y-58066D02*
X37068Y-58066D01*
X37068Y-58066D02*
X37068Y-58460D01*
X37068Y-58460D02*
X38053Y-58460D01*
X50257Y-53047D02*
X38545Y-53047D01*
X38545Y-58952D02*
X50257Y-58952D01*
G54D14*
X50250Y-53000D02*
X51250Y-53000D01*
X51250Y-53000D02*
X51250Y-59000D01*
X51250Y-59000D02*
X50250Y-59000D01*
X50250Y-59000D02*
X50250Y-53000D01*
X50250Y-54000D02*
X51250Y-54000D01*
G54D10*
X77500Y-46950D02*
X77400Y-46950D01*
X77400Y-46950D02*
X77400Y-47250D01*
X77400Y-47250D02*
X77500Y-47250D01*
X77500Y-46850D02*
X77500Y-47350D01*
X77200Y-48050D02*
X78200Y-48050D01*
X77700Y-47250D02*
X77700Y-48050D01*
X77700Y-46150D02*
X77700Y-46950D01*
X77200Y-46150D02*
X78200Y-46150D01*
X78327Y-47112D02*
G75*
G03X78327Y-47112I-630J0D01*
G74*
G01*
X75925Y-45635D02*
X75925Y-48588D01*
X75925Y-48588D02*
X79468Y-48588D01*
X79468Y-48588D02*
X79468Y-45635D01*
X79468Y-45635D02*
X75925Y-45635D01*
X77500Y-50200D02*
X77400Y-50200D01*
X77400Y-50200D02*
X77400Y-50500D01*
X77400Y-50500D02*
X77500Y-50500D01*
X77500Y-50100D02*
X77500Y-50600D01*
X77200Y-51300D02*
X78200Y-51300D01*
X77700Y-50500D02*
X77700Y-51300D01*
X77700Y-49400D02*
X77700Y-50200D01*
X77200Y-49400D02*
X78200Y-49400D01*
X78327Y-50362D02*
G75*
G03X78327Y-50362I-630J0D01*
G74*
G01*
X75925Y-48885D02*
X75925Y-51838D01*
X75925Y-51838D02*
X79468Y-51838D01*
X79468Y-51838D02*
X79468Y-48885D01*
X79468Y-48885D02*
X75925Y-48885D01*
X77500Y-53450D02*
X77400Y-53450D01*
X77400Y-53450D02*
X77400Y-53750D01*
X77400Y-53750D02*
X77500Y-53750D01*
X77500Y-53350D02*
X77500Y-53850D01*
X77200Y-54550D02*
X78200Y-54550D01*
X77700Y-53750D02*
X77700Y-54550D01*
X77700Y-52650D02*
X77700Y-53450D01*
X77200Y-52650D02*
X78200Y-52650D01*
X78327Y-53612D02*
G75*
G03X78327Y-53612I-630J0D01*
G74*
G01*
X75925Y-52135D02*
X75925Y-55088D01*
X75925Y-55088D02*
X79468Y-55088D01*
X79468Y-55088D02*
X79468Y-52135D01*
X79468Y-52135D02*
X75925Y-52135D01*
G54D14*
X22086Y-51610D02*
X22086Y-51910D01*
X22086Y-51910D02*
X21686Y-51910D01*
X21686Y-51910D02*
X21686Y-54310D01*
X21686Y-54310D02*
X22086Y-54310D01*
X22086Y-54310D02*
X22086Y-54610D01*
X22086Y-54310D02*
X22486Y-54310D01*
X22486Y-54310D02*
X22486Y-51910D01*
X22486Y-51910D02*
X22086Y-51910D01*
X21686Y-52110D02*
X22486Y-52110D01*
X22486Y-52210D02*
X21686Y-52210D01*
G54D19*
X27507Y-44385D02*
X26507Y-44385D01*
X26507Y-44385D02*
X26507Y-42385D01*
X26507Y-42385D02*
X27507Y-42385D01*
X27507Y-42385D02*
X27507Y-44385D01*
X66507Y-41559D02*
X67507Y-41559D01*
X67507Y-41559D02*
X67507Y-43559D01*
X67507Y-43559D02*
X66507Y-43559D01*
X66507Y-43559D02*
X66507Y-41559D01*
X74342Y-41531D02*
X75342Y-41531D01*
X75342Y-41531D02*
X75342Y-44531D01*
X75342Y-44531D02*
X74342Y-44531D01*
X74342Y-44531D02*
X74342Y-41531D01*
X75342Y-42531D02*
X74342Y-42531D01*
G54D20*
X56001Y-55100D02*
G75*
G03X56001Y-55100I-1001J0D01*
G74*
G01*
X58639Y-55078D02*
G75*
G03X58639Y-55078I-1001J0D01*
G74*
G01*
G54D16*
X78570Y-35950D02*
X78570Y-34450D01*
G54D17*
X78257Y-35200D02*
G75*
G03X78257Y-35200I-707J0D01*
G74*
G01*
G54D18*
X78549Y-34449D02*
G75*
G03X78549Y-35950I-999J-750D01*
G74*
G01*
G54D19*
X77550Y-34750D02*
G75*
G03X77100Y-35200I0J-450D01*
G74*
G01*
X77550Y-35650D02*
G75*
G03X78000Y-35200I0J450D01*
G74*
G01*
X77550Y-34550D02*
G75*
G03X76900Y-35200I0J-650D01*
G74*
G01*
X77550Y-35850D02*
G75*
G03X78200Y-35200I0J650D01*
G74*
G01*
X77550Y-34350D02*
G75*
G03X76700Y-35200I0J-850D01*
G74*
G01*
X77550Y-36050D02*
G75*
G03X78400Y-35200I0J850D01*
G74*
G01*
X79000Y-42750D02*
X79000Y-41750D01*
X79000Y-41750D02*
X82000Y-41750D01*
X82000Y-41750D02*
X82000Y-42750D01*
X82000Y-42750D02*
X79000Y-42750D01*
X80000Y-41750D02*
X80000Y-42750D01*
X53500Y-54000D02*
X53500Y-55000D01*
X53500Y-55000D02*
X51500Y-55000D01*
X51500Y-55000D02*
X51500Y-54000D01*
X51500Y-54000D02*
X53500Y-54000D01*
G54D16*
X64861Y-55797D02*
X64671Y-55930D01*
X64861Y-56026D02*
X64461Y-56026D01*
X64461Y-55873D01*
X64480Y-55835D01*
X64500Y-55816D01*
X64538Y-55797D01*
X64595Y-55797D01*
X64633Y-55816D01*
X64652Y-55835D01*
X64671Y-55873D01*
X64671Y-56026D01*
X64652Y-55626D02*
X64652Y-55492D01*
X64861Y-55435D02*
X64861Y-55626D01*
X64461Y-55626D01*
X64461Y-55435D01*
X64480Y-55054D02*
X64461Y-55092D01*
X64461Y-55150D01*
X64480Y-55207D01*
X64519Y-55245D01*
X64557Y-55264D01*
X64633Y-55283D01*
X64690Y-55283D01*
X64766Y-55264D01*
X64804Y-55245D01*
X64842Y-55207D01*
X64861Y-55150D01*
X64861Y-55111D01*
X64842Y-55054D01*
X64823Y-55035D01*
X64690Y-55035D01*
X64690Y-55111D01*
X64861Y-54654D02*
X64861Y-54883D01*
X64861Y-54769D02*
X64461Y-54769D01*
X64519Y-54807D01*
X64557Y-54845D01*
X64576Y-54883D01*
G54D21*
X52378Y-49233D02*
X52592Y-49233D01*
X52335Y-49433D02*
X52485Y-48733D01*
X52635Y-49433D01*
X53021Y-49433D02*
X52764Y-49433D01*
X52892Y-49433D02*
X52892Y-48733D01*
X52850Y-48833D01*
X52807Y-48900D01*
X52764Y-48933D01*
G54D14*
G54D16*
X20392Y-52554D02*
X20878Y-52554D01*
X20935Y-52535D01*
X20964Y-52516D01*
X20992Y-52478D01*
X20992Y-52402D01*
X20964Y-52364D01*
X20935Y-52345D01*
X20878Y-52326D01*
X20392Y-52326D01*
X20450Y-52154D02*
X20421Y-52135D01*
X20392Y-52097D01*
X20392Y-52002D01*
X20421Y-51964D01*
X20450Y-51945D01*
X20507Y-51926D01*
X20564Y-51926D01*
X20650Y-51945D01*
X20992Y-52173D01*
X20992Y-51926D01*
X49722Y-33583D02*
X49460Y-33750D01*
X49722Y-33869D02*
X49172Y-33869D01*
X49172Y-33678D01*
X49198Y-33630D01*
X49225Y-33607D01*
X49277Y-33583D01*
X49355Y-33583D01*
X49408Y-33607D01*
X49434Y-33630D01*
X49460Y-33678D01*
X49460Y-33869D01*
X49172Y-33416D02*
X49172Y-33083D01*
X49722Y-33297D01*
X17022Y-33821D02*
X16760Y-33988D01*
X17022Y-34107D02*
X16472Y-34107D01*
X16472Y-33916D01*
X16498Y-33869D01*
X16525Y-33845D01*
X16577Y-33821D01*
X16655Y-33821D01*
X16708Y-33845D01*
X16734Y-33869D01*
X16760Y-33916D01*
X16760Y-34107D01*
X17022Y-33345D02*
X17022Y-33630D01*
X17022Y-33488D02*
X16472Y-33488D01*
X16551Y-33535D01*
X16603Y-33583D01*
X16629Y-33630D01*
X16525Y-33154D02*
X16498Y-33130D01*
X16472Y-33083D01*
X16472Y-32964D01*
X16498Y-32916D01*
X16525Y-32892D01*
X16577Y-32869D01*
X16629Y-32869D01*
X16708Y-32892D01*
X17022Y-33178D01*
X17022Y-32869D01*
X23222Y-33821D02*
X22960Y-33988D01*
X23222Y-34107D02*
X22672Y-34107D01*
X22672Y-33916D01*
X22698Y-33869D01*
X22725Y-33845D01*
X22777Y-33821D01*
X22855Y-33821D01*
X22908Y-33845D01*
X22934Y-33869D01*
X22960Y-33916D01*
X22960Y-34107D01*
X23222Y-33345D02*
X23222Y-33630D01*
X23222Y-33488D02*
X22672Y-33488D01*
X22751Y-33535D01*
X22803Y-33583D01*
X22829Y-33630D01*
X23222Y-32869D02*
X23222Y-33154D01*
X23222Y-33011D02*
X22672Y-33011D01*
X22751Y-33059D01*
X22803Y-33107D01*
X22829Y-33154D01*
X29622Y-33821D02*
X29360Y-33988D01*
X29622Y-34107D02*
X29072Y-34107D01*
X29072Y-33916D01*
X29098Y-33869D01*
X29125Y-33845D01*
X29177Y-33821D01*
X29255Y-33821D01*
X29308Y-33845D01*
X29334Y-33869D01*
X29360Y-33916D01*
X29360Y-34107D01*
X29622Y-33345D02*
X29622Y-33630D01*
X29622Y-33488D02*
X29072Y-33488D01*
X29151Y-33535D01*
X29203Y-33583D01*
X29229Y-33630D01*
X29072Y-33035D02*
X29072Y-32988D01*
X29098Y-32940D01*
X29125Y-32916D01*
X29177Y-32892D01*
X29282Y-32869D01*
X29413Y-32869D01*
X29517Y-32892D01*
X29570Y-32916D01*
X29596Y-32940D01*
X29622Y-32988D01*
X29622Y-33035D01*
X29596Y-33083D01*
X29570Y-33107D01*
X29517Y-33130D01*
X29413Y-33154D01*
X29282Y-33154D01*
X29177Y-33130D01*
X29125Y-33107D01*
X29098Y-33083D01*
X29072Y-33035D01*
X36522Y-33583D02*
X36260Y-33750D01*
X36522Y-33869D02*
X35972Y-33869D01*
X35972Y-33678D01*
X35998Y-33630D01*
X36025Y-33607D01*
X36077Y-33583D01*
X36155Y-33583D01*
X36208Y-33607D01*
X36234Y-33630D01*
X36260Y-33678D01*
X36260Y-33869D01*
X36522Y-33345D02*
X36522Y-33250D01*
X36496Y-33202D01*
X36470Y-33178D01*
X36391Y-33130D01*
X36286Y-33107D01*
X36077Y-33107D01*
X36025Y-33130D01*
X35998Y-33154D01*
X35972Y-33202D01*
X35972Y-33297D01*
X35998Y-33345D01*
X36025Y-33369D01*
X36077Y-33392D01*
X36208Y-33392D01*
X36260Y-33369D01*
X36286Y-33345D01*
X36313Y-33297D01*
X36313Y-33202D01*
X36286Y-33154D01*
X36260Y-33130D01*
X36208Y-33107D01*
X43122Y-33583D02*
X42860Y-33750D01*
X43122Y-33869D02*
X42572Y-33869D01*
X42572Y-33678D01*
X42598Y-33630D01*
X42625Y-33607D01*
X42677Y-33583D01*
X42755Y-33583D01*
X42808Y-33607D01*
X42834Y-33630D01*
X42860Y-33678D01*
X42860Y-33869D01*
X42808Y-33297D02*
X42782Y-33345D01*
X42755Y-33369D01*
X42703Y-33392D01*
X42677Y-33392D01*
X42625Y-33369D01*
X42598Y-33345D01*
X42572Y-33297D01*
X42572Y-33202D01*
X42598Y-33154D01*
X42625Y-33130D01*
X42677Y-33107D01*
X42703Y-33107D01*
X42755Y-33130D01*
X42782Y-33154D01*
X42808Y-33202D01*
X42808Y-33297D01*
X42834Y-33345D01*
X42860Y-33369D01*
X42913Y-33392D01*
X43017Y-33392D01*
X43070Y-33369D01*
X43096Y-33345D01*
X43122Y-33297D01*
X43122Y-33202D01*
X43096Y-33154D01*
X43070Y-33130D01*
X43017Y-33107D01*
X42913Y-33107D01*
X42860Y-33130D01*
X42834Y-33154D01*
X42808Y-33202D01*
X88822Y-33583D02*
X88560Y-33750D01*
X88822Y-33869D02*
X88272Y-33869D01*
X88272Y-33678D01*
X88298Y-33630D01*
X88325Y-33607D01*
X88377Y-33583D01*
X88455Y-33583D01*
X88508Y-33607D01*
X88534Y-33630D01*
X88560Y-33678D01*
X88560Y-33869D01*
X88822Y-33107D02*
X88822Y-33392D01*
X88822Y-33250D02*
X88272Y-33250D01*
X88351Y-33297D01*
X88403Y-33345D01*
X88429Y-33392D01*
X82222Y-33583D02*
X81960Y-33750D01*
X82222Y-33869D02*
X81672Y-33869D01*
X81672Y-33678D01*
X81698Y-33630D01*
X81725Y-33607D01*
X81777Y-33583D01*
X81855Y-33583D01*
X81908Y-33607D01*
X81934Y-33630D01*
X81960Y-33678D01*
X81960Y-33869D01*
X81725Y-33392D02*
X81698Y-33369D01*
X81672Y-33321D01*
X81672Y-33202D01*
X81698Y-33154D01*
X81725Y-33130D01*
X81777Y-33107D01*
X81829Y-33107D01*
X81908Y-33130D01*
X82222Y-33416D01*
X82222Y-33107D01*
X55922Y-33583D02*
X55660Y-33750D01*
X55922Y-33869D02*
X55372Y-33869D01*
X55372Y-33678D01*
X55398Y-33630D01*
X55425Y-33607D01*
X55477Y-33583D01*
X55555Y-33583D01*
X55608Y-33607D01*
X55634Y-33630D01*
X55660Y-33678D01*
X55660Y-33869D01*
X55372Y-33154D02*
X55372Y-33250D01*
X55398Y-33297D01*
X55425Y-33321D01*
X55503Y-33369D01*
X55608Y-33392D01*
X55817Y-33392D01*
X55870Y-33369D01*
X55896Y-33345D01*
X55922Y-33297D01*
X55922Y-33202D01*
X55896Y-33154D01*
X55870Y-33130D01*
X55817Y-33107D01*
X55686Y-33107D01*
X55634Y-33130D01*
X55608Y-33154D01*
X55582Y-33202D01*
X55582Y-33297D01*
X55608Y-33345D01*
X55634Y-33369D01*
X55686Y-33392D01*
X61922Y-33583D02*
X61660Y-33750D01*
X61922Y-33869D02*
X61372Y-33869D01*
X61372Y-33678D01*
X61398Y-33630D01*
X61425Y-33607D01*
X61477Y-33583D01*
X61555Y-33583D01*
X61608Y-33607D01*
X61634Y-33630D01*
X61660Y-33678D01*
X61660Y-33869D01*
X61372Y-33130D02*
X61372Y-33369D01*
X61634Y-33392D01*
X61608Y-33369D01*
X61582Y-33321D01*
X61582Y-33202D01*
X61608Y-33154D01*
X61634Y-33130D01*
X61686Y-33107D01*
X61817Y-33107D01*
X61870Y-33130D01*
X61896Y-33154D01*
X61922Y-33202D01*
X61922Y-33321D01*
X61896Y-33369D01*
X61870Y-33392D01*
X68722Y-33583D02*
X68460Y-33750D01*
X68722Y-33869D02*
X68172Y-33869D01*
X68172Y-33678D01*
X68198Y-33630D01*
X68225Y-33607D01*
X68277Y-33583D01*
X68355Y-33583D01*
X68408Y-33607D01*
X68434Y-33630D01*
X68460Y-33678D01*
X68460Y-33869D01*
X68355Y-33154D02*
X68722Y-33154D01*
X68146Y-33273D02*
X68539Y-33392D01*
X68539Y-33083D01*
G54D22*
X31085Y-33821D02*
X31085Y-33521D01*
X31157Y-33521D01*
X31200Y-33535D01*
X31228Y-33564D01*
X31242Y-33592D01*
X31257Y-33650D01*
X31257Y-33692D01*
X31242Y-33750D01*
X31228Y-33778D01*
X31200Y-33807D01*
X31157Y-33821D01*
X31085Y-33821D01*
X31371Y-33550D02*
X31385Y-33535D01*
X31414Y-33521D01*
X31485Y-33521D01*
X31514Y-33535D01*
X31528Y-33550D01*
X31542Y-33578D01*
X31542Y-33607D01*
X31528Y-33650D01*
X31357Y-33821D01*
X31542Y-33821D01*
X31657Y-33550D02*
X31671Y-33535D01*
X31700Y-33521D01*
X31771Y-33521D01*
X31800Y-33535D01*
X31814Y-33550D01*
X31828Y-33578D01*
X31828Y-33607D01*
X31814Y-33650D01*
X31642Y-33821D01*
X31828Y-33821D01*
X37885Y-33821D02*
X37885Y-33521D01*
X37957Y-33521D01*
X38000Y-33535D01*
X38028Y-33564D01*
X38042Y-33592D01*
X38057Y-33650D01*
X38057Y-33692D01*
X38042Y-33750D01*
X38028Y-33778D01*
X38000Y-33807D01*
X37957Y-33821D01*
X37885Y-33821D01*
X38171Y-33550D02*
X38185Y-33535D01*
X38214Y-33521D01*
X38285Y-33521D01*
X38314Y-33535D01*
X38328Y-33550D01*
X38342Y-33578D01*
X38342Y-33607D01*
X38328Y-33650D01*
X38157Y-33821D01*
X38342Y-33821D01*
X38628Y-33821D02*
X38457Y-33821D01*
X38542Y-33821D02*
X38542Y-33521D01*
X38514Y-33564D01*
X38485Y-33592D01*
X38457Y-33607D01*
X24685Y-33821D02*
X24685Y-33521D01*
X24757Y-33521D01*
X24800Y-33535D01*
X24828Y-33564D01*
X24842Y-33592D01*
X24857Y-33650D01*
X24857Y-33692D01*
X24842Y-33750D01*
X24828Y-33778D01*
X24800Y-33807D01*
X24757Y-33821D01*
X24685Y-33821D01*
X24971Y-33550D02*
X24985Y-33535D01*
X25014Y-33521D01*
X25085Y-33521D01*
X25114Y-33535D01*
X25128Y-33550D01*
X25142Y-33578D01*
X25142Y-33607D01*
X25128Y-33650D01*
X24957Y-33821D01*
X25142Y-33821D01*
X25242Y-33521D02*
X25428Y-33521D01*
X25328Y-33635D01*
X25371Y-33635D01*
X25400Y-33650D01*
X25414Y-33664D01*
X25428Y-33692D01*
X25428Y-33764D01*
X25414Y-33792D01*
X25400Y-33807D01*
X25371Y-33821D01*
X25285Y-33821D01*
X25257Y-33807D01*
X25242Y-33792D01*
X90428Y-33821D02*
X90428Y-33521D01*
X90500Y-33521D01*
X90542Y-33535D01*
X90571Y-33564D01*
X90585Y-33592D01*
X90600Y-33650D01*
X90600Y-33692D01*
X90585Y-33750D01*
X90571Y-33778D01*
X90542Y-33807D01*
X90500Y-33821D01*
X90428Y-33821D01*
X90700Y-33521D02*
X90900Y-33521D01*
X90771Y-33821D01*
X70185Y-33821D02*
X70185Y-33521D01*
X70257Y-33521D01*
X70300Y-33535D01*
X70328Y-33564D01*
X70342Y-33592D01*
X70357Y-33650D01*
X70357Y-33692D01*
X70342Y-33750D01*
X70328Y-33778D01*
X70300Y-33807D01*
X70257Y-33821D01*
X70185Y-33821D01*
X70642Y-33821D02*
X70471Y-33821D01*
X70557Y-33821D02*
X70557Y-33521D01*
X70528Y-33564D01*
X70500Y-33592D01*
X70471Y-33607D01*
X70828Y-33521D02*
X70857Y-33521D01*
X70885Y-33535D01*
X70900Y-33550D01*
X70914Y-33578D01*
X70928Y-33635D01*
X70928Y-33707D01*
X70914Y-33764D01*
X70900Y-33792D01*
X70885Y-33807D01*
X70857Y-33821D01*
X70828Y-33821D01*
X70800Y-33807D01*
X70785Y-33792D01*
X70771Y-33764D01*
X70757Y-33707D01*
X70757Y-33635D01*
X70771Y-33578D01*
X70785Y-33550D01*
X70800Y-33535D01*
X70828Y-33521D01*
X18535Y-33821D02*
X18535Y-33521D01*
X18607Y-33521D01*
X18650Y-33535D01*
X18678Y-33564D01*
X18692Y-33592D01*
X18707Y-33650D01*
X18707Y-33692D01*
X18692Y-33750D01*
X18678Y-33778D01*
X18650Y-33807D01*
X18607Y-33821D01*
X18535Y-33821D01*
X18821Y-33550D02*
X18835Y-33535D01*
X18864Y-33521D01*
X18935Y-33521D01*
X18964Y-33535D01*
X18978Y-33550D01*
X18992Y-33578D01*
X18992Y-33607D01*
X18978Y-33650D01*
X18807Y-33821D01*
X18992Y-33821D01*
X19250Y-33621D02*
X19250Y-33821D01*
X19178Y-33507D02*
X19107Y-33721D01*
X19292Y-33721D01*
X44585Y-33821D02*
X44585Y-33521D01*
X44657Y-33521D01*
X44700Y-33535D01*
X44728Y-33564D01*
X44742Y-33592D01*
X44757Y-33650D01*
X44757Y-33692D01*
X44742Y-33750D01*
X44728Y-33778D01*
X44700Y-33807D01*
X44657Y-33821D01*
X44585Y-33821D01*
X44871Y-33550D02*
X44885Y-33535D01*
X44914Y-33521D01*
X44985Y-33521D01*
X45014Y-33535D01*
X45028Y-33550D01*
X45042Y-33578D01*
X45042Y-33607D01*
X45028Y-33650D01*
X44857Y-33821D01*
X45042Y-33821D01*
X45228Y-33521D02*
X45257Y-33521D01*
X45285Y-33535D01*
X45300Y-33550D01*
X45314Y-33578D01*
X45328Y-33635D01*
X45328Y-33707D01*
X45314Y-33764D01*
X45300Y-33792D01*
X45285Y-33807D01*
X45257Y-33821D01*
X45228Y-33821D01*
X45200Y-33807D01*
X45185Y-33792D01*
X45171Y-33764D01*
X45157Y-33707D01*
X45157Y-33635D01*
X45171Y-33578D01*
X45185Y-33550D01*
X45200Y-33535D01*
X45228Y-33521D01*
X83728Y-33821D02*
X83728Y-33521D01*
X83800Y-33521D01*
X83842Y-33535D01*
X83871Y-33564D01*
X83885Y-33592D01*
X83900Y-33650D01*
X83900Y-33692D01*
X83885Y-33750D01*
X83871Y-33778D01*
X83842Y-33807D01*
X83800Y-33821D01*
X83728Y-33821D01*
X84071Y-33650D02*
X84042Y-33635D01*
X84028Y-33621D01*
X84014Y-33592D01*
X84014Y-33578D01*
X84028Y-33550D01*
X84042Y-33535D01*
X84071Y-33521D01*
X84128Y-33521D01*
X84157Y-33535D01*
X84171Y-33550D01*
X84185Y-33578D01*
X84185Y-33592D01*
X84171Y-33621D01*
X84157Y-33635D01*
X84128Y-33650D01*
X84071Y-33650D01*
X84042Y-33664D01*
X84028Y-33678D01*
X84014Y-33707D01*
X84014Y-33764D01*
X84028Y-33792D01*
X84042Y-33807D01*
X84071Y-33821D01*
X84128Y-33821D01*
X84157Y-33807D01*
X84171Y-33792D01*
X84185Y-33764D01*
X84185Y-33707D01*
X84171Y-33678D01*
X84157Y-33664D01*
X84128Y-33650D01*
X51085Y-33821D02*
X51085Y-33521D01*
X51157Y-33521D01*
X51200Y-33535D01*
X51228Y-33564D01*
X51242Y-33592D01*
X51257Y-33650D01*
X51257Y-33692D01*
X51242Y-33750D01*
X51228Y-33778D01*
X51200Y-33807D01*
X51157Y-33821D01*
X51085Y-33821D01*
X51542Y-33821D02*
X51371Y-33821D01*
X51457Y-33821D02*
X51457Y-33521D01*
X51428Y-33564D01*
X51400Y-33592D01*
X51371Y-33607D01*
X51685Y-33821D02*
X51742Y-33821D01*
X51771Y-33807D01*
X51785Y-33792D01*
X51814Y-33750D01*
X51828Y-33692D01*
X51828Y-33578D01*
X51814Y-33550D01*
X51800Y-33535D01*
X51771Y-33521D01*
X51714Y-33521D01*
X51685Y-33535D01*
X51671Y-33550D01*
X51657Y-33578D01*
X51657Y-33650D01*
X51671Y-33678D01*
X51685Y-33692D01*
X51714Y-33707D01*
X51771Y-33707D01*
X51800Y-33692D01*
X51814Y-33678D01*
X51828Y-33650D01*
X63385Y-33821D02*
X63385Y-33521D01*
X63457Y-33521D01*
X63500Y-33535D01*
X63528Y-33564D01*
X63542Y-33592D01*
X63557Y-33650D01*
X63557Y-33692D01*
X63542Y-33750D01*
X63528Y-33778D01*
X63500Y-33807D01*
X63457Y-33821D01*
X63385Y-33821D01*
X63842Y-33821D02*
X63671Y-33821D01*
X63757Y-33821D02*
X63757Y-33521D01*
X63728Y-33564D01*
X63700Y-33592D01*
X63671Y-33607D01*
X64128Y-33821D02*
X63957Y-33821D01*
X64042Y-33821D02*
X64042Y-33521D01*
X64014Y-33564D01*
X63985Y-33592D01*
X63957Y-33607D01*
X57385Y-33821D02*
X57385Y-33521D01*
X57457Y-33521D01*
X57500Y-33535D01*
X57528Y-33564D01*
X57542Y-33592D01*
X57557Y-33650D01*
X57557Y-33692D01*
X57542Y-33750D01*
X57528Y-33778D01*
X57500Y-33807D01*
X57457Y-33821D01*
X57385Y-33821D01*
X57842Y-33821D02*
X57671Y-33821D01*
X57757Y-33821D02*
X57757Y-33521D01*
X57728Y-33564D01*
X57700Y-33592D01*
X57671Y-33607D01*
X57957Y-33550D02*
X57971Y-33535D01*
X58000Y-33521D01*
X58071Y-33521D01*
X58100Y-33535D01*
X58114Y-33550D01*
X58128Y-33578D01*
X58128Y-33607D01*
X58114Y-33650D01*
X57942Y-33821D01*
X58128Y-33821D01*
G54D16*
X44464Y-27961D02*
X44464Y-27561D01*
X44559Y-27561D01*
X44616Y-27580D01*
X44654Y-27619D01*
X44673Y-27657D01*
X44692Y-27733D01*
X44692Y-27790D01*
X44673Y-27866D01*
X44654Y-27904D01*
X44616Y-27942D01*
X44559Y-27961D01*
X44464Y-27961D01*
X45073Y-27961D02*
X44845Y-27961D01*
X44959Y-27961D02*
X44959Y-27561D01*
X44921Y-27619D01*
X44883Y-27657D01*
X44845Y-27676D01*
X45416Y-27695D02*
X45416Y-27961D01*
X45321Y-27542D02*
X45226Y-27828D01*
X45473Y-27828D01*
X83654Y-27961D02*
X83654Y-27561D01*
X83750Y-27561D01*
X83807Y-27580D01*
X83845Y-27619D01*
X83864Y-27657D01*
X83883Y-27733D01*
X83883Y-27790D01*
X83864Y-27866D01*
X83845Y-27904D01*
X83807Y-27942D01*
X83750Y-27961D01*
X83654Y-27961D01*
X84035Y-27600D02*
X84054Y-27580D01*
X84092Y-27561D01*
X84188Y-27561D01*
X84226Y-27580D01*
X84245Y-27600D01*
X84264Y-27638D01*
X84264Y-27676D01*
X84245Y-27733D01*
X84016Y-27961D01*
X84264Y-27961D01*
X63454Y-27961D02*
X63454Y-27561D01*
X63550Y-27561D01*
X63607Y-27580D01*
X63645Y-27619D01*
X63664Y-27657D01*
X63683Y-27733D01*
X63683Y-27790D01*
X63664Y-27866D01*
X63645Y-27904D01*
X63607Y-27942D01*
X63550Y-27961D01*
X63454Y-27961D01*
X64045Y-27561D02*
X63854Y-27561D01*
X63835Y-27752D01*
X63854Y-27733D01*
X63892Y-27714D01*
X63988Y-27714D01*
X64026Y-27733D01*
X64045Y-27752D01*
X64064Y-27790D01*
X64064Y-27885D01*
X64045Y-27923D01*
X64026Y-27942D01*
X63988Y-27961D01*
X63892Y-27961D01*
X63854Y-27942D01*
X63835Y-27923D01*
X17664Y-27961D02*
X17664Y-27561D01*
X17759Y-27561D01*
X17816Y-27580D01*
X17854Y-27619D01*
X17873Y-27657D01*
X17892Y-27733D01*
X17892Y-27790D01*
X17873Y-27866D01*
X17854Y-27904D01*
X17816Y-27942D01*
X17759Y-27961D01*
X17664Y-27961D01*
X18273Y-27961D02*
X18045Y-27961D01*
X18159Y-27961D02*
X18159Y-27561D01*
X18121Y-27619D01*
X18083Y-27657D01*
X18045Y-27676D01*
X18502Y-27733D02*
X18464Y-27714D01*
X18445Y-27695D01*
X18426Y-27657D01*
X18426Y-27638D01*
X18445Y-27600D01*
X18464Y-27580D01*
X18502Y-27561D01*
X18578Y-27561D01*
X18616Y-27580D01*
X18635Y-27600D01*
X18654Y-27638D01*
X18654Y-27657D01*
X18635Y-27695D01*
X18616Y-27714D01*
X18578Y-27733D01*
X18502Y-27733D01*
X18464Y-27752D01*
X18445Y-27771D01*
X18426Y-27809D01*
X18426Y-27885D01*
X18445Y-27923D01*
X18464Y-27942D01*
X18502Y-27961D01*
X18578Y-27961D01*
X18616Y-27942D01*
X18635Y-27923D01*
X18654Y-27885D01*
X18654Y-27809D01*
X18635Y-27771D01*
X18616Y-27752D01*
X18578Y-27733D01*
X24564Y-27961D02*
X24564Y-27561D01*
X24659Y-27561D01*
X24716Y-27580D01*
X24754Y-27619D01*
X24773Y-27657D01*
X24792Y-27733D01*
X24792Y-27790D01*
X24773Y-27866D01*
X24754Y-27904D01*
X24716Y-27942D01*
X24659Y-27961D01*
X24564Y-27961D01*
X25173Y-27961D02*
X24945Y-27961D01*
X25059Y-27961D02*
X25059Y-27561D01*
X25021Y-27619D01*
X24983Y-27657D01*
X24945Y-27676D01*
X25307Y-27561D02*
X25573Y-27561D01*
X25402Y-27961D01*
X90254Y-27961D02*
X90254Y-27561D01*
X90350Y-27561D01*
X90407Y-27580D01*
X90445Y-27619D01*
X90464Y-27657D01*
X90483Y-27733D01*
X90483Y-27790D01*
X90464Y-27866D01*
X90445Y-27904D01*
X90407Y-27942D01*
X90350Y-27961D01*
X90254Y-27961D01*
X90864Y-27961D02*
X90635Y-27961D01*
X90750Y-27961D02*
X90750Y-27561D01*
X90711Y-27619D01*
X90673Y-27657D01*
X90635Y-27676D01*
X77154Y-27961D02*
X77154Y-27561D01*
X77250Y-27561D01*
X77307Y-27580D01*
X77345Y-27619D01*
X77364Y-27657D01*
X77383Y-27733D01*
X77383Y-27790D01*
X77364Y-27866D01*
X77345Y-27904D01*
X77307Y-27942D01*
X77250Y-27961D01*
X77154Y-27961D01*
X77516Y-27561D02*
X77764Y-27561D01*
X77630Y-27714D01*
X77688Y-27714D01*
X77726Y-27733D01*
X77745Y-27752D01*
X77764Y-27790D01*
X77764Y-27885D01*
X77745Y-27923D01*
X77726Y-27942D01*
X77688Y-27961D01*
X77573Y-27961D01*
X77535Y-27942D01*
X77516Y-27923D01*
X57354Y-27961D02*
X57354Y-27561D01*
X57450Y-27561D01*
X57507Y-27580D01*
X57545Y-27619D01*
X57564Y-27657D01*
X57583Y-27733D01*
X57583Y-27790D01*
X57564Y-27866D01*
X57545Y-27904D01*
X57507Y-27942D01*
X57450Y-27961D01*
X57354Y-27961D01*
X57926Y-27561D02*
X57850Y-27561D01*
X57811Y-27580D01*
X57792Y-27600D01*
X57754Y-27657D01*
X57735Y-27733D01*
X57735Y-27885D01*
X57754Y-27923D01*
X57773Y-27942D01*
X57811Y-27961D01*
X57888Y-27961D01*
X57926Y-27942D01*
X57945Y-27923D01*
X57964Y-27885D01*
X57964Y-27790D01*
X57945Y-27752D01*
X57926Y-27733D01*
X57888Y-27714D01*
X57811Y-27714D01*
X57773Y-27733D01*
X57754Y-27752D01*
X57735Y-27790D01*
X30864Y-27961D02*
X30864Y-27561D01*
X30959Y-27561D01*
X31016Y-27580D01*
X31054Y-27619D01*
X31073Y-27657D01*
X31092Y-27733D01*
X31092Y-27790D01*
X31073Y-27866D01*
X31054Y-27904D01*
X31016Y-27942D01*
X30959Y-27961D01*
X30864Y-27961D01*
X31473Y-27961D02*
X31245Y-27961D01*
X31359Y-27961D02*
X31359Y-27561D01*
X31321Y-27619D01*
X31283Y-27657D01*
X31245Y-27676D01*
X31816Y-27561D02*
X31740Y-27561D01*
X31702Y-27580D01*
X31683Y-27600D01*
X31645Y-27657D01*
X31626Y-27733D01*
X31626Y-27885D01*
X31645Y-27923D01*
X31664Y-27942D01*
X31702Y-27961D01*
X31778Y-27961D01*
X31816Y-27942D01*
X31835Y-27923D01*
X31854Y-27885D01*
X31854Y-27790D01*
X31835Y-27752D01*
X31816Y-27733D01*
X31778Y-27714D01*
X31702Y-27714D01*
X31664Y-27733D01*
X31645Y-27752D01*
X31626Y-27790D01*
X70254Y-27961D02*
X70254Y-27561D01*
X70350Y-27561D01*
X70407Y-27580D01*
X70445Y-27619D01*
X70464Y-27657D01*
X70483Y-27733D01*
X70483Y-27790D01*
X70464Y-27866D01*
X70445Y-27904D01*
X70407Y-27942D01*
X70350Y-27961D01*
X70254Y-27961D01*
X70826Y-27695D02*
X70826Y-27961D01*
X70730Y-27542D02*
X70635Y-27828D01*
X70883Y-27828D01*
X37764Y-27961D02*
X37764Y-27561D01*
X37859Y-27561D01*
X37916Y-27580D01*
X37954Y-27619D01*
X37973Y-27657D01*
X37992Y-27733D01*
X37992Y-27790D01*
X37973Y-27866D01*
X37954Y-27904D01*
X37916Y-27942D01*
X37859Y-27961D01*
X37764Y-27961D01*
X38373Y-27961D02*
X38145Y-27961D01*
X38259Y-27961D02*
X38259Y-27561D01*
X38221Y-27619D01*
X38183Y-27657D01*
X38145Y-27676D01*
X38735Y-27561D02*
X38545Y-27561D01*
X38526Y-27752D01*
X38545Y-27733D01*
X38583Y-27714D01*
X38678Y-27714D01*
X38716Y-27733D01*
X38735Y-27752D01*
X38754Y-27790D01*
X38754Y-27885D01*
X38735Y-27923D01*
X38716Y-27942D01*
X38678Y-27961D01*
X38583Y-27961D01*
X38545Y-27942D01*
X38526Y-27923D01*
X51064Y-27961D02*
X51064Y-27561D01*
X51159Y-27561D01*
X51216Y-27580D01*
X51254Y-27619D01*
X51273Y-27657D01*
X51292Y-27733D01*
X51292Y-27790D01*
X51273Y-27866D01*
X51254Y-27904D01*
X51216Y-27942D01*
X51159Y-27961D01*
X51064Y-27961D01*
X51673Y-27961D02*
X51445Y-27961D01*
X51559Y-27961D02*
X51559Y-27561D01*
X51521Y-27619D01*
X51483Y-27657D01*
X51445Y-27676D01*
X51807Y-27561D02*
X52054Y-27561D01*
X51921Y-27714D01*
X51978Y-27714D01*
X52016Y-27733D01*
X52035Y-27752D01*
X52054Y-27790D01*
X52054Y-27885D01*
X52035Y-27923D01*
X52016Y-27942D01*
X51978Y-27961D01*
X51864Y-27961D01*
X51826Y-27942D01*
X51807Y-27923D01*
X38261Y-31650D02*
X38223Y-31621D01*
X38185Y-31564D01*
X38128Y-31478D01*
X38090Y-31450D01*
X38052Y-31450D01*
X38071Y-31592D02*
X38033Y-31564D01*
X37995Y-31507D01*
X37976Y-31392D01*
X37976Y-31192D01*
X37995Y-31078D01*
X38033Y-31021D01*
X38071Y-30992D01*
X38147Y-30992D01*
X38185Y-31021D01*
X38223Y-31078D01*
X38242Y-31192D01*
X38242Y-31392D01*
X38223Y-31507D01*
X38185Y-31564D01*
X38147Y-31592D01*
X38071Y-31592D01*
X38433Y-31592D02*
X38509Y-31592D01*
X38547Y-31564D01*
X38566Y-31535D01*
X38604Y-31450D01*
X38623Y-31335D01*
X38623Y-31107D01*
X38604Y-31050D01*
X38585Y-31021D01*
X38547Y-30992D01*
X38471Y-30992D01*
X38433Y-31021D01*
X38414Y-31050D01*
X38395Y-31107D01*
X38395Y-31250D01*
X38414Y-31307D01*
X38433Y-31335D01*
X38471Y-31364D01*
X38547Y-31364D01*
X38585Y-31335D01*
X38604Y-31307D01*
X38623Y-31250D01*
X90561Y-31650D02*
X90523Y-31621D01*
X90485Y-31564D01*
X90428Y-31478D01*
X90390Y-31450D01*
X90352Y-31450D01*
X90371Y-31592D02*
X90333Y-31564D01*
X90295Y-31507D01*
X90276Y-31392D01*
X90276Y-31192D01*
X90295Y-31078D01*
X90333Y-31021D01*
X90371Y-30992D01*
X90447Y-30992D01*
X90485Y-31021D01*
X90523Y-31078D01*
X90542Y-31192D01*
X90542Y-31392D01*
X90523Y-31507D01*
X90485Y-31564D01*
X90447Y-31592D01*
X90371Y-31592D01*
X90923Y-31592D02*
X90695Y-31592D01*
X90809Y-31592D02*
X90809Y-30992D01*
X90771Y-31078D01*
X90733Y-31135D01*
X90695Y-31164D01*
X17871Y-31650D02*
X17833Y-31621D01*
X17795Y-31564D01*
X17738Y-31478D01*
X17700Y-31450D01*
X17661Y-31450D01*
X17680Y-31592D02*
X17642Y-31564D01*
X17604Y-31507D01*
X17585Y-31392D01*
X17585Y-31192D01*
X17604Y-31078D01*
X17642Y-31021D01*
X17680Y-30992D01*
X17757Y-30992D01*
X17795Y-31021D01*
X17833Y-31078D01*
X17852Y-31192D01*
X17852Y-31392D01*
X17833Y-31507D01*
X17795Y-31564D01*
X17757Y-31592D01*
X17680Y-31592D01*
X18233Y-31592D02*
X18004Y-31592D01*
X18119Y-31592D02*
X18119Y-30992D01*
X18080Y-31078D01*
X18042Y-31135D01*
X18004Y-31164D01*
X18385Y-31050D02*
X18404Y-31021D01*
X18442Y-30992D01*
X18538Y-30992D01*
X18576Y-31021D01*
X18595Y-31050D01*
X18614Y-31107D01*
X18614Y-31164D01*
X18595Y-31250D01*
X18366Y-31592D01*
X18614Y-31592D01*
X24821Y-31650D02*
X24783Y-31621D01*
X24745Y-31564D01*
X24688Y-31478D01*
X24650Y-31450D01*
X24611Y-31450D01*
X24630Y-31592D02*
X24592Y-31564D01*
X24554Y-31507D01*
X24535Y-31392D01*
X24535Y-31192D01*
X24554Y-31078D01*
X24592Y-31021D01*
X24630Y-30992D01*
X24707Y-30992D01*
X24745Y-31021D01*
X24783Y-31078D01*
X24802Y-31192D01*
X24802Y-31392D01*
X24783Y-31507D01*
X24745Y-31564D01*
X24707Y-31592D01*
X24630Y-31592D01*
X25183Y-31592D02*
X24954Y-31592D01*
X25069Y-31592D02*
X25069Y-30992D01*
X25030Y-31078D01*
X24992Y-31135D01*
X24954Y-31164D01*
X25564Y-31592D02*
X25335Y-31592D01*
X25450Y-31592D02*
X25450Y-30992D01*
X25411Y-31078D01*
X25373Y-31135D01*
X25335Y-31164D01*
X31171Y-31650D02*
X31133Y-31621D01*
X31095Y-31564D01*
X31038Y-31478D01*
X31000Y-31450D01*
X30961Y-31450D01*
X30980Y-31592D02*
X30942Y-31564D01*
X30904Y-31507D01*
X30885Y-31392D01*
X30885Y-31192D01*
X30904Y-31078D01*
X30942Y-31021D01*
X30980Y-30992D01*
X31057Y-30992D01*
X31095Y-31021D01*
X31133Y-31078D01*
X31152Y-31192D01*
X31152Y-31392D01*
X31133Y-31507D01*
X31095Y-31564D01*
X31057Y-31592D01*
X30980Y-31592D01*
X31533Y-31592D02*
X31304Y-31592D01*
X31419Y-31592D02*
X31419Y-30992D01*
X31380Y-31078D01*
X31342Y-31135D01*
X31304Y-31164D01*
X31780Y-30992D02*
X31819Y-30992D01*
X31857Y-31021D01*
X31876Y-31050D01*
X31895Y-31107D01*
X31914Y-31221D01*
X31914Y-31364D01*
X31895Y-31478D01*
X31876Y-31535D01*
X31857Y-31564D01*
X31819Y-31592D01*
X31780Y-31592D01*
X31742Y-31564D01*
X31723Y-31535D01*
X31704Y-31478D01*
X31685Y-31364D01*
X31685Y-31221D01*
X31704Y-31107D01*
X31723Y-31050D01*
X31742Y-31021D01*
X31780Y-30992D01*
X44911Y-31650D02*
X44873Y-31621D01*
X44835Y-31564D01*
X44778Y-31478D01*
X44740Y-31450D01*
X44702Y-31450D01*
X44721Y-31592D02*
X44683Y-31564D01*
X44645Y-31507D01*
X44626Y-31392D01*
X44626Y-31192D01*
X44645Y-31078D01*
X44683Y-31021D01*
X44721Y-30992D01*
X44797Y-30992D01*
X44835Y-31021D01*
X44873Y-31078D01*
X44892Y-31192D01*
X44892Y-31392D01*
X44873Y-31507D01*
X44835Y-31564D01*
X44797Y-31592D01*
X44721Y-31592D01*
X45121Y-31250D02*
X45083Y-31221D01*
X45064Y-31192D01*
X45045Y-31135D01*
X45045Y-31107D01*
X45064Y-31050D01*
X45083Y-31021D01*
X45121Y-30992D01*
X45197Y-30992D01*
X45235Y-31021D01*
X45254Y-31050D01*
X45273Y-31107D01*
X45273Y-31135D01*
X45254Y-31192D01*
X45235Y-31221D01*
X45197Y-31250D01*
X45121Y-31250D01*
X45083Y-31278D01*
X45064Y-31307D01*
X45045Y-31364D01*
X45045Y-31478D01*
X45064Y-31535D01*
X45083Y-31564D01*
X45121Y-31592D01*
X45197Y-31592D01*
X45235Y-31564D01*
X45254Y-31535D01*
X45273Y-31478D01*
X45273Y-31364D01*
X45254Y-31307D01*
X45235Y-31278D01*
X45197Y-31250D01*
X51461Y-31650D02*
X51423Y-31621D01*
X51385Y-31564D01*
X51328Y-31478D01*
X51290Y-31450D01*
X51252Y-31450D01*
X51271Y-31592D02*
X51233Y-31564D01*
X51195Y-31507D01*
X51176Y-31392D01*
X51176Y-31192D01*
X51195Y-31078D01*
X51233Y-31021D01*
X51271Y-30992D01*
X51347Y-30992D01*
X51385Y-31021D01*
X51423Y-31078D01*
X51442Y-31192D01*
X51442Y-31392D01*
X51423Y-31507D01*
X51385Y-31564D01*
X51347Y-31592D01*
X51271Y-31592D01*
X51576Y-30992D02*
X51842Y-30992D01*
X51671Y-31592D01*
X57661Y-31650D02*
X57623Y-31621D01*
X57585Y-31564D01*
X57528Y-31478D01*
X57490Y-31450D01*
X57452Y-31450D01*
X57471Y-31592D02*
X57433Y-31564D01*
X57395Y-31507D01*
X57376Y-31392D01*
X57376Y-31192D01*
X57395Y-31078D01*
X57433Y-31021D01*
X57471Y-30992D01*
X57547Y-30992D01*
X57585Y-31021D01*
X57623Y-31078D01*
X57642Y-31192D01*
X57642Y-31392D01*
X57623Y-31507D01*
X57585Y-31564D01*
X57547Y-31592D01*
X57471Y-31592D01*
X57985Y-30992D02*
X57909Y-30992D01*
X57871Y-31021D01*
X57852Y-31050D01*
X57814Y-31135D01*
X57795Y-31250D01*
X57795Y-31478D01*
X57814Y-31535D01*
X57833Y-31564D01*
X57871Y-31592D01*
X57947Y-31592D01*
X57985Y-31564D01*
X58004Y-31535D01*
X58023Y-31478D01*
X58023Y-31335D01*
X58004Y-31278D01*
X57985Y-31250D01*
X57947Y-31221D01*
X57871Y-31221D01*
X57833Y-31250D01*
X57814Y-31278D01*
X57795Y-31335D01*
X63711Y-31650D02*
X63673Y-31621D01*
X63635Y-31564D01*
X63578Y-31478D01*
X63540Y-31450D01*
X63502Y-31450D01*
X63521Y-31592D02*
X63483Y-31564D01*
X63445Y-31507D01*
X63426Y-31392D01*
X63426Y-31192D01*
X63445Y-31078D01*
X63483Y-31021D01*
X63521Y-30992D01*
X63597Y-30992D01*
X63635Y-31021D01*
X63673Y-31078D01*
X63692Y-31192D01*
X63692Y-31392D01*
X63673Y-31507D01*
X63635Y-31564D01*
X63597Y-31592D01*
X63521Y-31592D01*
X64054Y-30992D02*
X63864Y-30992D01*
X63845Y-31278D01*
X63864Y-31250D01*
X63902Y-31221D01*
X63997Y-31221D01*
X64035Y-31250D01*
X64054Y-31278D01*
X64073Y-31335D01*
X64073Y-31478D01*
X64054Y-31535D01*
X64035Y-31564D01*
X63997Y-31592D01*
X63902Y-31592D01*
X63864Y-31564D01*
X63845Y-31535D01*
X70511Y-31650D02*
X70473Y-31621D01*
X70435Y-31564D01*
X70378Y-31478D01*
X70340Y-31450D01*
X70302Y-31450D01*
X70321Y-31592D02*
X70283Y-31564D01*
X70245Y-31507D01*
X70226Y-31392D01*
X70226Y-31192D01*
X70245Y-31078D01*
X70283Y-31021D01*
X70321Y-30992D01*
X70397Y-30992D01*
X70435Y-31021D01*
X70473Y-31078D01*
X70492Y-31192D01*
X70492Y-31392D01*
X70473Y-31507D01*
X70435Y-31564D01*
X70397Y-31592D01*
X70321Y-31592D01*
X70835Y-31192D02*
X70835Y-31592D01*
X70740Y-30964D02*
X70645Y-31392D01*
X70892Y-31392D01*
X77411Y-31650D02*
X77373Y-31621D01*
X77335Y-31564D01*
X77278Y-31478D01*
X77240Y-31450D01*
X77202Y-31450D01*
X77221Y-31592D02*
X77183Y-31564D01*
X77145Y-31507D01*
X77126Y-31392D01*
X77126Y-31192D01*
X77145Y-31078D01*
X77183Y-31021D01*
X77221Y-30992D01*
X77297Y-30992D01*
X77335Y-31021D01*
X77373Y-31078D01*
X77392Y-31192D01*
X77392Y-31392D01*
X77373Y-31507D01*
X77335Y-31564D01*
X77297Y-31592D01*
X77221Y-31592D01*
X77526Y-30992D02*
X77773Y-30992D01*
X77640Y-31221D01*
X77697Y-31221D01*
X77735Y-31250D01*
X77754Y-31278D01*
X77773Y-31335D01*
X77773Y-31478D01*
X77754Y-31535D01*
X77735Y-31564D01*
X77697Y-31592D01*
X77583Y-31592D01*
X77545Y-31564D01*
X77526Y-31535D01*
X83961Y-31650D02*
X83923Y-31621D01*
X83885Y-31564D01*
X83828Y-31478D01*
X83790Y-31450D01*
X83752Y-31450D01*
X83771Y-31592D02*
X83733Y-31564D01*
X83695Y-31507D01*
X83676Y-31392D01*
X83676Y-31192D01*
X83695Y-31078D01*
X83733Y-31021D01*
X83771Y-30992D01*
X83847Y-30992D01*
X83885Y-31021D01*
X83923Y-31078D01*
X83942Y-31192D01*
X83942Y-31392D01*
X83923Y-31507D01*
X83885Y-31564D01*
X83847Y-31592D01*
X83771Y-31592D01*
X84095Y-31050D02*
X84114Y-31021D01*
X84152Y-30992D01*
X84247Y-30992D01*
X84285Y-31021D01*
X84304Y-31050D01*
X84323Y-31107D01*
X84323Y-31164D01*
X84304Y-31250D01*
X84076Y-31592D01*
X84323Y-31592D01*
G54D14*
X91092Y-53492D02*
X90492Y-53492D01*
X91092Y-53150D02*
X90750Y-53407D01*
X90492Y-53150D02*
X90835Y-53492D01*
X91092Y-52578D02*
X91092Y-52921D01*
X91092Y-52750D02*
X90492Y-52750D01*
X90578Y-52807D01*
X90635Y-52864D01*
X90664Y-52921D01*
G54D10*
X28871Y-56759D02*
X28871Y-56365D01*
X29021Y-56365D01*
X29059Y-56384D01*
X29078Y-56403D01*
X29096Y-56440D01*
X29096Y-56496D01*
X29078Y-56534D01*
X29059Y-56553D01*
X29021Y-56571D01*
X28871Y-56571D01*
X29471Y-56759D02*
X29246Y-56759D01*
X29359Y-56759D02*
X29359Y-56365D01*
X29321Y-56421D01*
X29284Y-56459D01*
X29246Y-56478D01*
X29603Y-56365D02*
X29846Y-56365D01*
X29715Y-56515D01*
X29771Y-56515D01*
X29809Y-56534D01*
X29828Y-56553D01*
X29846Y-56590D01*
X29846Y-56684D01*
X29828Y-56721D01*
X29809Y-56740D01*
X29771Y-56759D01*
X29659Y-56759D01*
X29621Y-56740D01*
X29603Y-56721D01*
G54D16*
X27522Y-50121D02*
X27260Y-50288D01*
X27522Y-50407D02*
X26972Y-50407D01*
X26972Y-50216D01*
X26998Y-50169D01*
X27025Y-50145D01*
X27077Y-50121D01*
X27155Y-50121D01*
X27208Y-50145D01*
X27234Y-50169D01*
X27260Y-50216D01*
X27260Y-50407D01*
X27522Y-49645D02*
X27522Y-49930D01*
X27522Y-49788D02*
X26972Y-49788D01*
X27051Y-49835D01*
X27103Y-49883D01*
X27129Y-49930D01*
X26972Y-49478D02*
X26972Y-49169D01*
X27182Y-49335D01*
X27182Y-49264D01*
X27208Y-49216D01*
X27234Y-49192D01*
X27286Y-49169D01*
X27417Y-49169D01*
X27470Y-49192D01*
X27496Y-49216D01*
X27522Y-49264D01*
X27522Y-49407D01*
X27496Y-49454D01*
X27470Y-49478D01*
X24622Y-50121D02*
X24360Y-50288D01*
X24622Y-50407D02*
X24072Y-50407D01*
X24072Y-50216D01*
X24098Y-50169D01*
X24125Y-50145D01*
X24177Y-50121D01*
X24255Y-50121D01*
X24308Y-50145D01*
X24334Y-50169D01*
X24360Y-50216D01*
X24360Y-50407D01*
X24622Y-49645D02*
X24622Y-49930D01*
X24622Y-49788D02*
X24072Y-49788D01*
X24151Y-49835D01*
X24203Y-49883D01*
X24229Y-49930D01*
X24255Y-49216D02*
X24622Y-49216D01*
X24046Y-49335D02*
X24439Y-49454D01*
X24439Y-49145D01*
X58928Y-56722D02*
X58761Y-56460D01*
X58642Y-56722D02*
X58642Y-56172D01*
X58833Y-56172D01*
X58880Y-56198D01*
X58904Y-56225D01*
X58928Y-56277D01*
X58928Y-56355D01*
X58904Y-56408D01*
X58880Y-56434D01*
X58833Y-56460D01*
X58642Y-56460D01*
X59404Y-56722D02*
X59119Y-56722D01*
X59261Y-56722D02*
X59261Y-56172D01*
X59214Y-56251D01*
X59166Y-56303D01*
X59119Y-56329D01*
X59833Y-56172D02*
X59738Y-56172D01*
X59690Y-56198D01*
X59666Y-56225D01*
X59619Y-56303D01*
X59595Y-56408D01*
X59595Y-56617D01*
X59619Y-56670D01*
X59642Y-56696D01*
X59690Y-56722D01*
X59785Y-56722D01*
X59833Y-56696D01*
X59857Y-56670D01*
X59880Y-56617D01*
X59880Y-56486D01*
X59857Y-56434D01*
X59833Y-56408D01*
X59785Y-56382D01*
X59690Y-56382D01*
X59642Y-56408D01*
X59619Y-56434D01*
X59595Y-56486D01*
X58928Y-57772D02*
X58761Y-57510D01*
X58642Y-57772D02*
X58642Y-57222D01*
X58833Y-57222D01*
X58880Y-57248D01*
X58904Y-57275D01*
X58928Y-57327D01*
X58928Y-57405D01*
X58904Y-57458D01*
X58880Y-57484D01*
X58833Y-57510D01*
X58642Y-57510D01*
X59404Y-57772D02*
X59119Y-57772D01*
X59261Y-57772D02*
X59261Y-57222D01*
X59214Y-57301D01*
X59166Y-57353D01*
X59119Y-57379D01*
X59857Y-57222D02*
X59619Y-57222D01*
X59595Y-57484D01*
X59619Y-57458D01*
X59666Y-57432D01*
X59785Y-57432D01*
X59833Y-57458D01*
X59857Y-57484D01*
X59880Y-57536D01*
X59880Y-57667D01*
X59857Y-57720D01*
X59833Y-57746D01*
X59785Y-57772D01*
X59666Y-57772D01*
X59619Y-57746D01*
X59595Y-57720D01*
X58928Y-58822D02*
X58761Y-58560D01*
X58642Y-58822D02*
X58642Y-58272D01*
X58833Y-58272D01*
X58880Y-58298D01*
X58904Y-58325D01*
X58928Y-58377D01*
X58928Y-58455D01*
X58904Y-58508D01*
X58880Y-58534D01*
X58833Y-58560D01*
X58642Y-58560D01*
X59404Y-58822D02*
X59119Y-58822D01*
X59261Y-58822D02*
X59261Y-58272D01*
X59214Y-58351D01*
X59166Y-58403D01*
X59119Y-58429D01*
X59571Y-58272D02*
X59904Y-58272D01*
X59690Y-58822D01*
G54D21*
X69135Y-49342D02*
X69135Y-48742D01*
X69285Y-49171D01*
X69435Y-48742D01*
X69435Y-49342D01*
X69885Y-49342D02*
X69628Y-49342D01*
X69757Y-49342D02*
X69757Y-48742D01*
X69714Y-48828D01*
X69671Y-48885D01*
X69628Y-48914D01*
G54D14*
G54D20*
X22050Y-49693D02*
X22035Y-49708D01*
X21992Y-49722D01*
X21964Y-49722D01*
X21921Y-49708D01*
X21892Y-49679D01*
X21878Y-49651D01*
X21864Y-49593D01*
X21864Y-49551D01*
X21878Y-49493D01*
X21892Y-49465D01*
X21921Y-49436D01*
X21964Y-49422D01*
X21992Y-49422D01*
X22035Y-49436D01*
X22050Y-49451D01*
X22335Y-49722D02*
X22164Y-49722D01*
X22250Y-49722D02*
X22250Y-49422D01*
X22221Y-49465D01*
X22192Y-49493D01*
X22164Y-49508D01*
G54D23*
X21085Y-50107D02*
X21314Y-50107D01*
X21200Y-50221D02*
X21200Y-49992D01*
G54D16*
G54D20*
X22050Y-47493D02*
X22035Y-47508D01*
X21992Y-47522D01*
X21964Y-47522D01*
X21921Y-47508D01*
X21892Y-47479D01*
X21878Y-47451D01*
X21864Y-47393D01*
X21864Y-47351D01*
X21878Y-47293D01*
X21892Y-47265D01*
X21921Y-47236D01*
X21964Y-47222D01*
X21992Y-47222D01*
X22035Y-47236D01*
X22050Y-47251D01*
X22164Y-47251D02*
X22178Y-47236D01*
X22207Y-47222D01*
X22278Y-47222D01*
X22307Y-47236D01*
X22321Y-47251D01*
X22335Y-47279D01*
X22335Y-47308D01*
X22321Y-47351D01*
X22150Y-47522D01*
X22335Y-47522D01*
G54D23*
X21085Y-47907D02*
X21314Y-47907D01*
X21200Y-48021D02*
X21200Y-47792D01*
G54D16*
G54D19*
X21250Y-44321D02*
X21250Y-44535D01*
X21235Y-44578D01*
X21207Y-44607D01*
X21164Y-44621D01*
X21135Y-44621D01*
X21392Y-44621D02*
X21392Y-44321D01*
X21507Y-44321D01*
X21535Y-44335D01*
X21550Y-44350D01*
X21564Y-44378D01*
X21564Y-44421D01*
X21550Y-44450D01*
X21535Y-44464D01*
X21507Y-44478D01*
X21392Y-44478D01*
X21678Y-44350D02*
X21692Y-44335D01*
X21721Y-44321D01*
X21792Y-44321D01*
X21821Y-44335D01*
X21835Y-44350D01*
X21850Y-44378D01*
X21850Y-44407D01*
X21835Y-44450D01*
X21664Y-44621D01*
X21850Y-44621D01*
G54D10*
X88975Y-37140D02*
X89031Y-37159D01*
X89125Y-37159D01*
X89162Y-37140D01*
X89181Y-37121D01*
X89200Y-37084D01*
X89200Y-37046D01*
X89181Y-37009D01*
X89162Y-36990D01*
X89125Y-36971D01*
X89050Y-36953D01*
X89012Y-36934D01*
X88993Y-36915D01*
X88975Y-36878D01*
X88975Y-36840D01*
X88993Y-36803D01*
X89012Y-36784D01*
X89050Y-36765D01*
X89143Y-36765D01*
X89200Y-36784D01*
X89331Y-36765D02*
X89425Y-37159D01*
X89500Y-36878D01*
X89574Y-37159D01*
X89668Y-36765D01*
X90024Y-37159D02*
X89799Y-37159D01*
X89912Y-37159D02*
X89912Y-36765D01*
X89874Y-36821D01*
X89837Y-36859D01*
X89799Y-36878D01*
X43225Y-36890D02*
X43281Y-36909D01*
X43375Y-36909D01*
X43412Y-36890D01*
X43431Y-36871D01*
X43450Y-36834D01*
X43450Y-36796D01*
X43431Y-36759D01*
X43412Y-36740D01*
X43375Y-36721D01*
X43300Y-36703D01*
X43262Y-36684D01*
X43243Y-36665D01*
X43225Y-36628D01*
X43225Y-36590D01*
X43243Y-36553D01*
X43262Y-36534D01*
X43300Y-36515D01*
X43393Y-36515D01*
X43450Y-36534D01*
X43581Y-36515D02*
X43675Y-36909D01*
X43750Y-36628D01*
X43824Y-36909D01*
X43918Y-36515D01*
X44124Y-36684D02*
X44087Y-36665D01*
X44068Y-36646D01*
X44049Y-36609D01*
X44049Y-36590D01*
X44068Y-36553D01*
X44087Y-36534D01*
X44124Y-36515D01*
X44199Y-36515D01*
X44237Y-36534D01*
X44256Y-36553D01*
X44274Y-36590D01*
X44274Y-36609D01*
X44256Y-36646D01*
X44237Y-36665D01*
X44199Y-36684D01*
X44124Y-36684D01*
X44087Y-36703D01*
X44068Y-36721D01*
X44049Y-36759D01*
X44049Y-36834D01*
X44068Y-36871D01*
X44087Y-36890D01*
X44124Y-36909D01*
X44199Y-36909D01*
X44237Y-36890D01*
X44256Y-36871D01*
X44274Y-36834D01*
X44274Y-36759D01*
X44256Y-36721D01*
X44237Y-36703D01*
X44199Y-36684D01*
X82225Y-37140D02*
X82281Y-37159D01*
X82375Y-37159D01*
X82412Y-37140D01*
X82431Y-37121D01*
X82450Y-37084D01*
X82450Y-37046D01*
X82431Y-37009D01*
X82412Y-36990D01*
X82375Y-36971D01*
X82300Y-36953D01*
X82262Y-36934D01*
X82243Y-36915D01*
X82225Y-36878D01*
X82225Y-36840D01*
X82243Y-36803D01*
X82262Y-36784D01*
X82300Y-36765D01*
X82393Y-36765D01*
X82450Y-36784D01*
X82581Y-36765D02*
X82675Y-37159D01*
X82750Y-36878D01*
X82824Y-37159D01*
X82918Y-36765D01*
X83049Y-36803D02*
X83068Y-36784D01*
X83106Y-36765D01*
X83199Y-36765D01*
X83237Y-36784D01*
X83256Y-36803D01*
X83274Y-36840D01*
X83274Y-36878D01*
X83256Y-36934D01*
X83031Y-37159D01*
X83274Y-37159D01*
X49975Y-36890D02*
X50031Y-36909D01*
X50125Y-36909D01*
X50162Y-36890D01*
X50181Y-36871D01*
X50200Y-36834D01*
X50200Y-36796D01*
X50181Y-36759D01*
X50162Y-36740D01*
X50125Y-36721D01*
X50050Y-36703D01*
X50012Y-36684D01*
X49993Y-36665D01*
X49975Y-36628D01*
X49975Y-36590D01*
X49993Y-36553D01*
X50012Y-36534D01*
X50050Y-36515D01*
X50143Y-36515D01*
X50200Y-36534D01*
X50331Y-36515D02*
X50425Y-36909D01*
X50500Y-36628D01*
X50574Y-36909D01*
X50668Y-36515D01*
X50781Y-36515D02*
X51043Y-36515D01*
X50874Y-36909D01*
X36975Y-36890D02*
X37031Y-36909D01*
X37125Y-36909D01*
X37162Y-36890D01*
X37181Y-36871D01*
X37200Y-36834D01*
X37200Y-36796D01*
X37181Y-36759D01*
X37162Y-36740D01*
X37125Y-36721D01*
X37050Y-36703D01*
X37012Y-36684D01*
X36993Y-36665D01*
X36975Y-36628D01*
X36975Y-36590D01*
X36993Y-36553D01*
X37012Y-36534D01*
X37050Y-36515D01*
X37143Y-36515D01*
X37200Y-36534D01*
X37331Y-36515D02*
X37425Y-36909D01*
X37500Y-36628D01*
X37574Y-36909D01*
X37668Y-36515D01*
X37837Y-36909D02*
X37912Y-36909D01*
X37949Y-36890D01*
X37968Y-36871D01*
X38006Y-36815D01*
X38024Y-36740D01*
X38024Y-36590D01*
X38006Y-36553D01*
X37987Y-36534D01*
X37949Y-36515D01*
X37874Y-36515D01*
X37837Y-36534D01*
X37818Y-36553D01*
X37799Y-36590D01*
X37799Y-36684D01*
X37818Y-36721D01*
X37837Y-36740D01*
X37874Y-36759D01*
X37949Y-36759D01*
X37987Y-36740D01*
X38006Y-36721D01*
X38024Y-36684D01*
X75475Y-37140D02*
X75531Y-37159D01*
X75625Y-37159D01*
X75662Y-37140D01*
X75681Y-37121D01*
X75700Y-37084D01*
X75700Y-37046D01*
X75681Y-37009D01*
X75662Y-36990D01*
X75625Y-36971D01*
X75550Y-36953D01*
X75512Y-36934D01*
X75493Y-36915D01*
X75475Y-36878D01*
X75475Y-36840D01*
X75493Y-36803D01*
X75512Y-36784D01*
X75550Y-36765D01*
X75643Y-36765D01*
X75700Y-36784D01*
X75831Y-36765D02*
X75925Y-37159D01*
X76000Y-36878D01*
X76074Y-37159D01*
X76168Y-36765D01*
X76281Y-36765D02*
X76524Y-36765D01*
X76393Y-36915D01*
X76449Y-36915D01*
X76487Y-36934D01*
X76506Y-36953D01*
X76524Y-36990D01*
X76524Y-37084D01*
X76506Y-37121D01*
X76487Y-37140D01*
X76449Y-37159D01*
X76337Y-37159D01*
X76299Y-37140D01*
X76281Y-37121D01*
X55725Y-36890D02*
X55781Y-36909D01*
X55875Y-36909D01*
X55912Y-36890D01*
X55931Y-36871D01*
X55950Y-36834D01*
X55950Y-36796D01*
X55931Y-36759D01*
X55912Y-36740D01*
X55875Y-36721D01*
X55800Y-36703D01*
X55762Y-36684D01*
X55743Y-36665D01*
X55725Y-36628D01*
X55725Y-36590D01*
X55743Y-36553D01*
X55762Y-36534D01*
X55800Y-36515D01*
X55893Y-36515D01*
X55950Y-36534D01*
X56081Y-36515D02*
X56175Y-36909D01*
X56250Y-36628D01*
X56324Y-36909D01*
X56418Y-36515D01*
X56737Y-36515D02*
X56662Y-36515D01*
X56624Y-36534D01*
X56606Y-36553D01*
X56568Y-36609D01*
X56549Y-36684D01*
X56549Y-36834D01*
X56568Y-36871D01*
X56587Y-36890D01*
X56624Y-36909D01*
X56699Y-36909D01*
X56737Y-36890D01*
X56756Y-36871D01*
X56774Y-36834D01*
X56774Y-36740D01*
X56756Y-36703D01*
X56737Y-36684D01*
X56699Y-36665D01*
X56624Y-36665D01*
X56587Y-36684D01*
X56568Y-36703D01*
X56549Y-36740D01*
X29787Y-37140D02*
X29843Y-37159D01*
X29937Y-37159D01*
X29975Y-37140D01*
X29993Y-37121D01*
X30012Y-37084D01*
X30012Y-37046D01*
X29993Y-37009D01*
X29975Y-36990D01*
X29937Y-36971D01*
X29862Y-36953D01*
X29825Y-36934D01*
X29806Y-36915D01*
X29787Y-36878D01*
X29787Y-36840D01*
X29806Y-36803D01*
X29825Y-36784D01*
X29862Y-36765D01*
X29956Y-36765D01*
X30012Y-36784D01*
X30143Y-36765D02*
X30237Y-37159D01*
X30312Y-36878D01*
X30387Y-37159D01*
X30481Y-36765D01*
X30837Y-37159D02*
X30612Y-37159D01*
X30724Y-37159D02*
X30724Y-36765D01*
X30687Y-36821D01*
X30649Y-36859D01*
X30612Y-36878D01*
X31081Y-36765D02*
X31118Y-36765D01*
X31156Y-36784D01*
X31174Y-36803D01*
X31193Y-36840D01*
X31212Y-36915D01*
X31212Y-37009D01*
X31193Y-37084D01*
X31174Y-37121D01*
X31156Y-37140D01*
X31118Y-37159D01*
X31081Y-37159D01*
X31043Y-37140D01*
X31024Y-37121D01*
X31006Y-37084D01*
X30987Y-37009D01*
X30987Y-36915D01*
X31006Y-36840D01*
X31024Y-36803D01*
X31043Y-36784D01*
X31081Y-36765D01*
X23287Y-37140D02*
X23343Y-37159D01*
X23437Y-37159D01*
X23475Y-37140D01*
X23493Y-37121D01*
X23512Y-37084D01*
X23512Y-37046D01*
X23493Y-37009D01*
X23475Y-36990D01*
X23437Y-36971D01*
X23362Y-36953D01*
X23325Y-36934D01*
X23306Y-36915D01*
X23287Y-36878D01*
X23287Y-36840D01*
X23306Y-36803D01*
X23325Y-36784D01*
X23362Y-36765D01*
X23456Y-36765D01*
X23512Y-36784D01*
X23643Y-36765D02*
X23737Y-37159D01*
X23812Y-36878D01*
X23887Y-37159D01*
X23981Y-36765D01*
X24337Y-37159D02*
X24112Y-37159D01*
X24224Y-37159D02*
X24224Y-36765D01*
X24187Y-36821D01*
X24149Y-36859D01*
X24112Y-36878D01*
X24712Y-37159D02*
X24487Y-37159D01*
X24599Y-37159D02*
X24599Y-36765D01*
X24562Y-36821D01*
X24524Y-36859D01*
X24487Y-36878D01*
X68975Y-37140D02*
X69031Y-37159D01*
X69125Y-37159D01*
X69162Y-37140D01*
X69181Y-37121D01*
X69200Y-37084D01*
X69200Y-37046D01*
X69181Y-37009D01*
X69162Y-36990D01*
X69125Y-36971D01*
X69050Y-36953D01*
X69012Y-36934D01*
X68993Y-36915D01*
X68975Y-36878D01*
X68975Y-36840D01*
X68993Y-36803D01*
X69012Y-36784D01*
X69050Y-36765D01*
X69143Y-36765D01*
X69200Y-36784D01*
X69331Y-36765D02*
X69425Y-37159D01*
X69500Y-36878D01*
X69574Y-37159D01*
X69668Y-36765D01*
X69987Y-36896D02*
X69987Y-37159D01*
X69893Y-36746D02*
X69799Y-37028D01*
X70043Y-37028D01*
X62225Y-37140D02*
X62281Y-37159D01*
X62375Y-37159D01*
X62412Y-37140D01*
X62431Y-37121D01*
X62450Y-37084D01*
X62450Y-37046D01*
X62431Y-37009D01*
X62412Y-36990D01*
X62375Y-36971D01*
X62300Y-36953D01*
X62262Y-36934D01*
X62243Y-36915D01*
X62225Y-36878D01*
X62225Y-36840D01*
X62243Y-36803D01*
X62262Y-36784D01*
X62300Y-36765D01*
X62393Y-36765D01*
X62450Y-36784D01*
X62581Y-36765D02*
X62675Y-37159D01*
X62750Y-36878D01*
X62824Y-37159D01*
X62918Y-36765D01*
X63256Y-36765D02*
X63068Y-36765D01*
X63049Y-36953D01*
X63068Y-36934D01*
X63106Y-36915D01*
X63199Y-36915D01*
X63237Y-36934D01*
X63256Y-36953D01*
X63274Y-36990D01*
X63274Y-37084D01*
X63256Y-37121D01*
X63237Y-37140D01*
X63199Y-37159D01*
X63106Y-37159D01*
X63068Y-37140D01*
X63049Y-37121D01*
X18037Y-37140D02*
X18093Y-37159D01*
X18187Y-37159D01*
X18225Y-37140D01*
X18243Y-37121D01*
X18262Y-37084D01*
X18262Y-37046D01*
X18243Y-37009D01*
X18225Y-36990D01*
X18187Y-36971D01*
X18112Y-36953D01*
X18075Y-36934D01*
X18056Y-36915D01*
X18037Y-36878D01*
X18037Y-36840D01*
X18056Y-36803D01*
X18075Y-36784D01*
X18112Y-36765D01*
X18206Y-36765D01*
X18262Y-36784D01*
X18393Y-36765D02*
X18487Y-37159D01*
X18562Y-36878D01*
X18637Y-37159D01*
X18731Y-36765D01*
X19087Y-37159D02*
X18862Y-37159D01*
X18974Y-37159D02*
X18974Y-36765D01*
X18937Y-36821D01*
X18899Y-36859D01*
X18862Y-36878D01*
X19237Y-36803D02*
X19256Y-36784D01*
X19293Y-36765D01*
X19387Y-36765D01*
X19424Y-36784D01*
X19443Y-36803D01*
X19462Y-36840D01*
X19462Y-36878D01*
X19443Y-36934D01*
X19218Y-37159D01*
X19462Y-37159D01*
G54D16*
X87907Y-41625D02*
X87888Y-41644D01*
X87831Y-41663D01*
X87793Y-41663D01*
X87735Y-41644D01*
X87697Y-41606D01*
X87678Y-41568D01*
X87659Y-41492D01*
X87659Y-41434D01*
X87678Y-41358D01*
X87697Y-41320D01*
X87735Y-41282D01*
X87793Y-41263D01*
X87831Y-41263D01*
X87888Y-41282D01*
X87907Y-41301D01*
X88250Y-41263D02*
X88174Y-41263D01*
X88135Y-41282D01*
X88116Y-41301D01*
X88078Y-41358D01*
X88059Y-41434D01*
X88059Y-41587D01*
X88078Y-41625D01*
X88097Y-41644D01*
X88135Y-41663D01*
X88212Y-41663D01*
X88250Y-41644D01*
X88269Y-41625D01*
X88288Y-41587D01*
X88288Y-41492D01*
X88269Y-41453D01*
X88250Y-41434D01*
X88212Y-41415D01*
X88135Y-41415D01*
X88097Y-41434D01*
X88078Y-41453D01*
X88059Y-41492D01*
X66983Y-53273D02*
X66964Y-53292D01*
X66907Y-53311D01*
X66869Y-53311D01*
X66811Y-53292D01*
X66773Y-53254D01*
X66754Y-53216D01*
X66735Y-53140D01*
X66735Y-53083D01*
X66754Y-53007D01*
X66773Y-52969D01*
X66811Y-52930D01*
X66869Y-52911D01*
X66907Y-52911D01*
X66964Y-52930D01*
X66983Y-52950D01*
X67116Y-52911D02*
X67364Y-52911D01*
X67230Y-53064D01*
X67288Y-53064D01*
X67326Y-53083D01*
X67345Y-53102D01*
X67364Y-53140D01*
X67364Y-53235D01*
X67345Y-53273D01*
X67326Y-53292D01*
X67288Y-53311D01*
X67173Y-53311D01*
X67135Y-53292D01*
X67116Y-53273D01*
G54D20*
X63841Y-57750D02*
X63856Y-57764D01*
X63870Y-57807D01*
X63870Y-57835D01*
X63856Y-57878D01*
X63827Y-57907D01*
X63799Y-57921D01*
X63741Y-57935D01*
X63699Y-57935D01*
X63641Y-57921D01*
X63613Y-57907D01*
X63584Y-57878D01*
X63570Y-57835D01*
X63570Y-57807D01*
X63584Y-57764D01*
X63599Y-57750D01*
X63870Y-57607D02*
X63870Y-57550D01*
X63856Y-57521D01*
X63841Y-57507D01*
X63799Y-57478D01*
X63741Y-57464D01*
X63627Y-57464D01*
X63599Y-57478D01*
X63584Y-57492D01*
X63570Y-57521D01*
X63570Y-57578D01*
X63584Y-57607D01*
X63599Y-57621D01*
X63627Y-57635D01*
X63699Y-57635D01*
X63727Y-57621D01*
X63741Y-57607D01*
X63756Y-57578D01*
X63756Y-57521D01*
X63741Y-57492D01*
X63727Y-57478D01*
X63699Y-57464D01*
G54D23*
X63257Y-56914D02*
X63257Y-56685D01*
X63371Y-56800D02*
X63142Y-56800D01*
G54D16*
G54D20*
X66091Y-57242D02*
X66106Y-57257D01*
X66120Y-57300D01*
X66120Y-57328D01*
X66106Y-57371D01*
X66077Y-57400D01*
X66049Y-57414D01*
X65991Y-57428D01*
X65949Y-57428D01*
X65891Y-57414D01*
X65863Y-57400D01*
X65834Y-57371D01*
X65820Y-57328D01*
X65820Y-57300D01*
X65834Y-57257D01*
X65849Y-57242D01*
X66120Y-56957D02*
X66120Y-57128D01*
X66120Y-57042D02*
X65820Y-57042D01*
X65863Y-57071D01*
X65891Y-57100D01*
X65906Y-57128D01*
X65820Y-56771D02*
X65820Y-56742D01*
X65834Y-56714D01*
X65849Y-56700D01*
X65877Y-56685D01*
X65934Y-56671D01*
X66006Y-56671D01*
X66063Y-56685D01*
X66091Y-56700D01*
X66106Y-56714D01*
X66120Y-56742D01*
X66120Y-56771D01*
X66106Y-56800D01*
X66091Y-56814D01*
X66063Y-56828D01*
X66006Y-56842D01*
X65934Y-56842D01*
X65877Y-56828D01*
X65849Y-56814D01*
X65834Y-56800D01*
X65820Y-56771D01*
G54D23*
X65507Y-56264D02*
X65507Y-56035D01*
X65621Y-56150D02*
X65392Y-56150D01*
G54D16*
G54D10*
X87346Y-53390D02*
X87328Y-53409D01*
X87271Y-53427D01*
X87234Y-53427D01*
X87178Y-53409D01*
X87140Y-53371D01*
X87121Y-53334D01*
X87103Y-53259D01*
X87103Y-53202D01*
X87121Y-53127D01*
X87140Y-53090D01*
X87178Y-53052D01*
X87234Y-53034D01*
X87271Y-53034D01*
X87328Y-53052D01*
X87346Y-53071D01*
X87721Y-53427D02*
X87496Y-53427D01*
X87609Y-53427D02*
X87609Y-53034D01*
X87571Y-53090D01*
X87534Y-53127D01*
X87496Y-53146D01*
X87853Y-53034D02*
X88096Y-53034D01*
X87965Y-53184D01*
X88021Y-53184D01*
X88059Y-53202D01*
X88078Y-53221D01*
X88096Y-53259D01*
X88096Y-53352D01*
X88078Y-53390D01*
X88059Y-53409D01*
X88021Y-53427D01*
X87909Y-53427D01*
X87871Y-53409D01*
X87853Y-53390D01*
X86268Y-51309D02*
X86568Y-51309D01*
X88631Y-51309D02*
X88931Y-51309D01*
X88781Y-51459D02*
X88781Y-51159D01*
X87808Y-44216D02*
X87789Y-44235D01*
X87733Y-44253D01*
X87695Y-44253D01*
X87639Y-44235D01*
X87602Y-44197D01*
X87583Y-44160D01*
X87564Y-44085D01*
X87564Y-44028D01*
X87583Y-43953D01*
X87602Y-43916D01*
X87639Y-43878D01*
X87695Y-43860D01*
X87733Y-43860D01*
X87789Y-43878D01*
X87808Y-43897D01*
X87939Y-43860D02*
X88202Y-43860D01*
X88033Y-44253D01*
X88905Y-46072D02*
X89205Y-46072D01*
X86542Y-46072D02*
X86842Y-46072D01*
X86692Y-46222D02*
X86692Y-45922D01*
G54D16*
X75672Y-33483D02*
X75410Y-33650D01*
X75672Y-33769D02*
X75122Y-33769D01*
X75122Y-33578D01*
X75148Y-33530D01*
X75175Y-33507D01*
X75227Y-33483D01*
X75305Y-33483D01*
X75358Y-33507D01*
X75384Y-33530D01*
X75410Y-33578D01*
X75410Y-33769D01*
X75122Y-33316D02*
X75122Y-33007D01*
X75332Y-33173D01*
X75332Y-33102D01*
X75358Y-33054D01*
X75384Y-33030D01*
X75436Y-33007D01*
X75567Y-33007D01*
X75620Y-33030D01*
X75646Y-33054D01*
X75672Y-33102D01*
X75672Y-33245D01*
X75646Y-33292D01*
X75620Y-33316D01*
G54D10*
X23424Y-25855D02*
X23480Y-25874D01*
X23499Y-25892D01*
X23517Y-25930D01*
X23517Y-25986D01*
X23499Y-26024D01*
X23480Y-26042D01*
X23442Y-26061D01*
X23292Y-26061D01*
X23292Y-25668D01*
X23424Y-25668D01*
X23461Y-25686D01*
X23480Y-25705D01*
X23499Y-25743D01*
X23499Y-25780D01*
X23480Y-25817D01*
X23461Y-25836D01*
X23424Y-25855D01*
X23292Y-25855D01*
X22533Y-26022D02*
X22402Y-25834D01*
X22308Y-26022D02*
X22308Y-25628D01*
X22458Y-25628D01*
X22496Y-25647D01*
X22514Y-25666D01*
X22533Y-25703D01*
X22533Y-25759D01*
X22514Y-25797D01*
X22496Y-25816D01*
X22458Y-25834D01*
X22308Y-25834D01*
X21530Y-25686D02*
X21493Y-25668D01*
X21436Y-25668D01*
X21380Y-25686D01*
X21343Y-25724D01*
X21324Y-25761D01*
X21305Y-25836D01*
X21305Y-25892D01*
X21324Y-25967D01*
X21343Y-26005D01*
X21380Y-26042D01*
X21436Y-26061D01*
X21474Y-26061D01*
X21530Y-26042D01*
X21549Y-26024D01*
X21549Y-25892D01*
X21474Y-25892D01*
X20334Y-26970D02*
X20334Y-26671D01*
X20484Y-26820D02*
X20184Y-26820D01*
X20484Y-26277D02*
X20484Y-26502D01*
X20484Y-26389D02*
X20090Y-26389D01*
X20147Y-26427D01*
X20184Y-26464D01*
X20203Y-26502D01*
X20128Y-26127D02*
X20109Y-26108D01*
X20090Y-26071D01*
X20090Y-25977D01*
X20109Y-25939D01*
X20128Y-25921D01*
X20165Y-25902D01*
X20203Y-25902D01*
X20259Y-25921D01*
X20484Y-26146D01*
X20484Y-25902D01*
X20222Y-25771D02*
X20484Y-25677D01*
X20222Y-25583D01*
X29324Y-25855D02*
X29380Y-25874D01*
X29399Y-25892D01*
X29417Y-25930D01*
X29417Y-25986D01*
X29399Y-26024D01*
X29380Y-26042D01*
X29342Y-26061D01*
X29192Y-26061D01*
X29192Y-25668D01*
X29324Y-25668D01*
X29361Y-25686D01*
X29380Y-25705D01*
X29399Y-25743D01*
X29399Y-25780D01*
X29380Y-25817D01*
X29361Y-25836D01*
X29324Y-25855D01*
X29192Y-25855D01*
X28433Y-26022D02*
X28302Y-25834D01*
X28208Y-26022D02*
X28208Y-25628D01*
X28358Y-25628D01*
X28396Y-25647D01*
X28414Y-25666D01*
X28433Y-25703D01*
X28433Y-25759D01*
X28414Y-25797D01*
X28396Y-25816D01*
X28358Y-25834D01*
X28208Y-25834D01*
X27430Y-25686D02*
X27393Y-25668D01*
X27336Y-25668D01*
X27280Y-25686D01*
X27243Y-25724D01*
X27224Y-25761D01*
X27205Y-25836D01*
X27205Y-25892D01*
X27224Y-25967D01*
X27243Y-26005D01*
X27280Y-26042D01*
X27336Y-26061D01*
X27374Y-26061D01*
X27430Y-26042D01*
X27449Y-26024D01*
X27449Y-25892D01*
X27374Y-25892D01*
X26234Y-26970D02*
X26234Y-26671D01*
X26384Y-26820D02*
X26084Y-26820D01*
X26384Y-26277D02*
X26384Y-26502D01*
X26384Y-26389D02*
X25990Y-26389D01*
X26047Y-26427D01*
X26084Y-26464D01*
X26103Y-26502D01*
X26028Y-26127D02*
X26009Y-26108D01*
X25990Y-26071D01*
X25990Y-25977D01*
X26009Y-25939D01*
X26028Y-25921D01*
X26065Y-25902D01*
X26103Y-25902D01*
X26159Y-25921D01*
X26384Y-26146D01*
X26384Y-25902D01*
X26122Y-25771D02*
X26384Y-25677D01*
X26122Y-25583D01*
X43424Y-25655D02*
X43480Y-25674D01*
X43499Y-25692D01*
X43517Y-25730D01*
X43517Y-25786D01*
X43499Y-25824D01*
X43480Y-25842D01*
X43442Y-25861D01*
X43292Y-25861D01*
X43292Y-25468D01*
X43424Y-25468D01*
X43461Y-25486D01*
X43480Y-25505D01*
X43499Y-25543D01*
X43499Y-25580D01*
X43480Y-25617D01*
X43461Y-25636D01*
X43424Y-25655D01*
X43292Y-25655D01*
X42533Y-25822D02*
X42402Y-25634D01*
X42308Y-25822D02*
X42308Y-25428D01*
X42458Y-25428D01*
X42496Y-25447D01*
X42514Y-25466D01*
X42533Y-25503D01*
X42533Y-25559D01*
X42514Y-25597D01*
X42496Y-25616D01*
X42458Y-25634D01*
X42308Y-25634D01*
X41530Y-25486D02*
X41493Y-25468D01*
X41436Y-25468D01*
X41380Y-25486D01*
X41343Y-25524D01*
X41324Y-25561D01*
X41305Y-25636D01*
X41305Y-25692D01*
X41324Y-25767D01*
X41343Y-25805D01*
X41380Y-25842D01*
X41436Y-25861D01*
X41474Y-25861D01*
X41530Y-25842D01*
X41549Y-25824D01*
X41549Y-25692D01*
X41474Y-25692D01*
X40334Y-26770D02*
X40334Y-26471D01*
X40484Y-26620D02*
X40184Y-26620D01*
X40484Y-26077D02*
X40484Y-26302D01*
X40484Y-26189D02*
X40090Y-26189D01*
X40147Y-26227D01*
X40184Y-26264D01*
X40203Y-26302D01*
X40128Y-25927D02*
X40109Y-25908D01*
X40090Y-25871D01*
X40090Y-25777D01*
X40109Y-25739D01*
X40128Y-25721D01*
X40165Y-25702D01*
X40203Y-25702D01*
X40259Y-25721D01*
X40484Y-25946D01*
X40484Y-25702D01*
X40222Y-25571D02*
X40484Y-25477D01*
X40222Y-25383D01*
X49124Y-25655D02*
X49180Y-25674D01*
X49199Y-25692D01*
X49217Y-25730D01*
X49217Y-25786D01*
X49199Y-25824D01*
X49180Y-25842D01*
X49142Y-25861D01*
X48992Y-25861D01*
X48992Y-25468D01*
X49124Y-25468D01*
X49161Y-25486D01*
X49180Y-25505D01*
X49199Y-25543D01*
X49199Y-25580D01*
X49180Y-25617D01*
X49161Y-25636D01*
X49124Y-25655D01*
X48992Y-25655D01*
X48233Y-25822D02*
X48102Y-25634D01*
X48008Y-25822D02*
X48008Y-25428D01*
X48158Y-25428D01*
X48196Y-25447D01*
X48214Y-25466D01*
X48233Y-25503D01*
X48233Y-25559D01*
X48214Y-25597D01*
X48196Y-25616D01*
X48158Y-25634D01*
X48008Y-25634D01*
X47230Y-25486D02*
X47193Y-25468D01*
X47136Y-25468D01*
X47080Y-25486D01*
X47043Y-25524D01*
X47024Y-25561D01*
X47005Y-25636D01*
X47005Y-25692D01*
X47024Y-25767D01*
X47043Y-25805D01*
X47080Y-25842D01*
X47136Y-25861D01*
X47174Y-25861D01*
X47230Y-25842D01*
X47249Y-25824D01*
X47249Y-25692D01*
X47174Y-25692D01*
X46034Y-26770D02*
X46034Y-26471D01*
X46184Y-26620D02*
X45884Y-26620D01*
X46184Y-26077D02*
X46184Y-26302D01*
X46184Y-26189D02*
X45790Y-26189D01*
X45847Y-26227D01*
X45884Y-26264D01*
X45903Y-26302D01*
X45828Y-25927D02*
X45809Y-25908D01*
X45790Y-25871D01*
X45790Y-25777D01*
X45809Y-25739D01*
X45828Y-25721D01*
X45865Y-25702D01*
X45903Y-25702D01*
X45959Y-25721D01*
X46184Y-25946D01*
X46184Y-25702D01*
X45922Y-25571D02*
X46184Y-25477D01*
X45922Y-25383D01*
X61924Y-25655D02*
X61980Y-25674D01*
X61999Y-25692D01*
X62017Y-25730D01*
X62017Y-25786D01*
X61999Y-25824D01*
X61980Y-25842D01*
X61942Y-25861D01*
X61792Y-25861D01*
X61792Y-25468D01*
X61924Y-25468D01*
X61961Y-25486D01*
X61980Y-25505D01*
X61999Y-25543D01*
X61999Y-25580D01*
X61980Y-25617D01*
X61961Y-25636D01*
X61924Y-25655D01*
X61792Y-25655D01*
X61033Y-25822D02*
X60902Y-25634D01*
X60808Y-25822D02*
X60808Y-25428D01*
X60958Y-25428D01*
X60996Y-25447D01*
X61014Y-25466D01*
X61033Y-25503D01*
X61033Y-25559D01*
X61014Y-25597D01*
X60996Y-25616D01*
X60958Y-25634D01*
X60808Y-25634D01*
X60030Y-25486D02*
X59993Y-25468D01*
X59936Y-25468D01*
X59880Y-25486D01*
X59843Y-25524D01*
X59824Y-25561D01*
X59805Y-25636D01*
X59805Y-25692D01*
X59824Y-25767D01*
X59843Y-25805D01*
X59880Y-25842D01*
X59936Y-25861D01*
X59974Y-25861D01*
X60030Y-25842D01*
X60049Y-25824D01*
X60049Y-25692D01*
X59974Y-25692D01*
X58834Y-26770D02*
X58834Y-26471D01*
X58984Y-26620D02*
X58684Y-26620D01*
X58984Y-26077D02*
X58984Y-26302D01*
X58984Y-26189D02*
X58590Y-26189D01*
X58647Y-26227D01*
X58684Y-26264D01*
X58703Y-26302D01*
X58628Y-25927D02*
X58609Y-25908D01*
X58590Y-25871D01*
X58590Y-25777D01*
X58609Y-25739D01*
X58628Y-25721D01*
X58665Y-25702D01*
X58703Y-25702D01*
X58759Y-25721D01*
X58984Y-25946D01*
X58984Y-25702D01*
X58722Y-25571D02*
X58984Y-25477D01*
X58722Y-25383D01*
X68524Y-25655D02*
X68580Y-25674D01*
X68599Y-25692D01*
X68617Y-25730D01*
X68617Y-25786D01*
X68599Y-25824D01*
X68580Y-25842D01*
X68542Y-25861D01*
X68392Y-25861D01*
X68392Y-25468D01*
X68524Y-25468D01*
X68561Y-25486D01*
X68580Y-25505D01*
X68599Y-25543D01*
X68599Y-25580D01*
X68580Y-25617D01*
X68561Y-25636D01*
X68524Y-25655D01*
X68392Y-25655D01*
X67633Y-25822D02*
X67502Y-25634D01*
X67408Y-25822D02*
X67408Y-25428D01*
X67558Y-25428D01*
X67596Y-25447D01*
X67614Y-25466D01*
X67633Y-25503D01*
X67633Y-25559D01*
X67614Y-25597D01*
X67596Y-25616D01*
X67558Y-25634D01*
X67408Y-25634D01*
X66630Y-25486D02*
X66593Y-25468D01*
X66536Y-25468D01*
X66480Y-25486D01*
X66443Y-25524D01*
X66424Y-25561D01*
X66405Y-25636D01*
X66405Y-25692D01*
X66424Y-25767D01*
X66443Y-25805D01*
X66480Y-25842D01*
X66536Y-25861D01*
X66574Y-25861D01*
X66630Y-25842D01*
X66649Y-25824D01*
X66649Y-25692D01*
X66574Y-25692D01*
X65434Y-26770D02*
X65434Y-26471D01*
X65584Y-26620D02*
X65284Y-26620D01*
X65584Y-26077D02*
X65584Y-26302D01*
X65584Y-26189D02*
X65190Y-26189D01*
X65247Y-26227D01*
X65284Y-26264D01*
X65303Y-26302D01*
X65228Y-25927D02*
X65209Y-25908D01*
X65190Y-25871D01*
X65190Y-25777D01*
X65209Y-25739D01*
X65228Y-25721D01*
X65265Y-25702D01*
X65303Y-25702D01*
X65359Y-25721D01*
X65584Y-25946D01*
X65584Y-25702D01*
X65322Y-25571D02*
X65584Y-25477D01*
X65322Y-25383D01*
X80924Y-25855D02*
X80980Y-25874D01*
X80999Y-25892D01*
X81017Y-25930D01*
X81017Y-25986D01*
X80999Y-26024D01*
X80980Y-26042D01*
X80942Y-26061D01*
X80792Y-26061D01*
X80792Y-25668D01*
X80924Y-25668D01*
X80961Y-25686D01*
X80980Y-25705D01*
X80999Y-25743D01*
X80999Y-25780D01*
X80980Y-25817D01*
X80961Y-25836D01*
X80924Y-25855D01*
X80792Y-25855D01*
X80033Y-26022D02*
X79902Y-25834D01*
X79808Y-26022D02*
X79808Y-25628D01*
X79958Y-25628D01*
X79996Y-25647D01*
X80014Y-25666D01*
X80033Y-25703D01*
X80033Y-25759D01*
X80014Y-25797D01*
X79996Y-25816D01*
X79958Y-25834D01*
X79808Y-25834D01*
X79030Y-25686D02*
X78993Y-25668D01*
X78936Y-25668D01*
X78880Y-25686D01*
X78843Y-25724D01*
X78824Y-25761D01*
X78805Y-25836D01*
X78805Y-25892D01*
X78824Y-25967D01*
X78843Y-26005D01*
X78880Y-26042D01*
X78936Y-26061D01*
X78974Y-26061D01*
X79030Y-26042D01*
X79049Y-26024D01*
X79049Y-25892D01*
X78974Y-25892D01*
X77834Y-26970D02*
X77834Y-26671D01*
X77984Y-26820D02*
X77684Y-26820D01*
X77984Y-26277D02*
X77984Y-26502D01*
X77984Y-26389D02*
X77590Y-26389D01*
X77647Y-26427D01*
X77684Y-26464D01*
X77703Y-26502D01*
X77628Y-26127D02*
X77609Y-26108D01*
X77590Y-26071D01*
X77590Y-25977D01*
X77609Y-25939D01*
X77628Y-25921D01*
X77665Y-25902D01*
X77703Y-25902D01*
X77759Y-25921D01*
X77984Y-26146D01*
X77984Y-25902D01*
X77722Y-25771D02*
X77984Y-25677D01*
X77722Y-25583D01*
X87124Y-25855D02*
X87180Y-25874D01*
X87199Y-25892D01*
X87217Y-25930D01*
X87217Y-25986D01*
X87199Y-26024D01*
X87180Y-26042D01*
X87142Y-26061D01*
X86992Y-26061D01*
X86992Y-25668D01*
X87124Y-25668D01*
X87161Y-25686D01*
X87180Y-25705D01*
X87199Y-25743D01*
X87199Y-25780D01*
X87180Y-25817D01*
X87161Y-25836D01*
X87124Y-25855D01*
X86992Y-25855D01*
X86233Y-26022D02*
X86102Y-25834D01*
X86008Y-26022D02*
X86008Y-25628D01*
X86158Y-25628D01*
X86196Y-25647D01*
X86214Y-25666D01*
X86233Y-25703D01*
X86233Y-25759D01*
X86214Y-25797D01*
X86196Y-25816D01*
X86158Y-25834D01*
X86008Y-25834D01*
X85230Y-25686D02*
X85193Y-25668D01*
X85136Y-25668D01*
X85080Y-25686D01*
X85043Y-25724D01*
X85024Y-25761D01*
X85005Y-25836D01*
X85005Y-25892D01*
X85024Y-25967D01*
X85043Y-26005D01*
X85080Y-26042D01*
X85136Y-26061D01*
X85174Y-26061D01*
X85230Y-26042D01*
X85249Y-26024D01*
X85249Y-25892D01*
X85174Y-25892D01*
X84034Y-26970D02*
X84034Y-26671D01*
X84184Y-26820D02*
X83884Y-26820D01*
X84184Y-26277D02*
X84184Y-26502D01*
X84184Y-26389D02*
X83790Y-26389D01*
X83847Y-26427D01*
X83884Y-26464D01*
X83903Y-26502D01*
X83828Y-26127D02*
X83809Y-26108D01*
X83790Y-26071D01*
X83790Y-25977D01*
X83809Y-25939D01*
X83828Y-25921D01*
X83865Y-25902D01*
X83903Y-25902D01*
X83959Y-25921D01*
X84184Y-26146D01*
X84184Y-25902D01*
X83922Y-25771D02*
X84184Y-25677D01*
X83922Y-25583D01*
G54D21*
X53161Y-42398D02*
X53161Y-42884D01*
X53182Y-42941D01*
X53203Y-42970D01*
X53246Y-42998D01*
X53332Y-42998D01*
X53375Y-42970D01*
X53396Y-42941D01*
X53418Y-42884D01*
X53418Y-42398D01*
X53825Y-42598D02*
X53825Y-42998D01*
X53718Y-42370D02*
X53611Y-42798D01*
X53889Y-42798D01*
G54D14*
G54D21*
X42803Y-45364D02*
X43289Y-45364D01*
X43346Y-45343D01*
X43374Y-45322D01*
X43403Y-45279D01*
X43403Y-45193D01*
X43374Y-45150D01*
X43346Y-45129D01*
X43289Y-45107D01*
X42803Y-45107D01*
X42803Y-44679D02*
X42803Y-44893D01*
X43089Y-44914D01*
X43060Y-44893D01*
X43032Y-44850D01*
X43032Y-44743D01*
X43060Y-44700D01*
X43089Y-44679D01*
X43146Y-44657D01*
X43289Y-44657D01*
X43346Y-44679D01*
X43374Y-44700D01*
X43403Y-44743D01*
X43403Y-44850D01*
X43374Y-44893D01*
X43346Y-44914D01*
G54D14*
G54D24*
X46171Y-56247D02*
X46722Y-56247D01*
X46787Y-56226D01*
X46819Y-56206D01*
X46852Y-56165D01*
X46852Y-56084D01*
X46819Y-56043D01*
X46787Y-56023D01*
X46722Y-56002D01*
X46171Y-56002D01*
X46852Y-55574D02*
X46852Y-55819D01*
X46852Y-55697D02*
X46171Y-55697D01*
X46268Y-55737D01*
X46333Y-55778D01*
X46365Y-55819D01*
G54D14*
G54D10*
X48573Y-58660D02*
X48629Y-58679D01*
X48723Y-58679D01*
X48760Y-58660D01*
X48779Y-58641D01*
X48798Y-58604D01*
X48798Y-58566D01*
X48779Y-58529D01*
X48760Y-58510D01*
X48723Y-58491D01*
X48648Y-58472D01*
X48610Y-58454D01*
X48592Y-58435D01*
X48573Y-58397D01*
X48573Y-58360D01*
X48592Y-58322D01*
X48610Y-58304D01*
X48648Y-58285D01*
X48742Y-58285D01*
X48798Y-58304D01*
X48910Y-58285D02*
X49135Y-58285D01*
X49023Y-58679D02*
X49023Y-58285D01*
X49248Y-58566D02*
X49435Y-58566D01*
X49210Y-58679D02*
X49342Y-58285D01*
X49473Y-58679D01*
X49548Y-58285D02*
X49773Y-58285D01*
X49660Y-58679D02*
X49660Y-58285D01*
X49904Y-58472D02*
X50035Y-58472D01*
X50091Y-58679D02*
X49904Y-58679D01*
X49904Y-58285D01*
X50091Y-58285D01*
X49739Y-57694D02*
X49608Y-57507D01*
X49514Y-57694D02*
X49514Y-57301D01*
X49664Y-57301D01*
X49702Y-57319D01*
X49720Y-57338D01*
X49739Y-57376D01*
X49739Y-57432D01*
X49720Y-57469D01*
X49702Y-57488D01*
X49664Y-57507D01*
X49514Y-57507D01*
X49870Y-57301D02*
X50133Y-57694D01*
X50133Y-57301D02*
X49870Y-57694D01*
X49465Y-56277D02*
X49690Y-56277D01*
X49578Y-56671D02*
X49578Y-56277D01*
X49784Y-56277D02*
X50046Y-56671D01*
X50046Y-56277D02*
X49784Y-56671D01*
X49268Y-55311D02*
X49231Y-55293D01*
X49175Y-55293D01*
X49118Y-55311D01*
X49081Y-55349D01*
X49062Y-55386D01*
X49043Y-55461D01*
X49043Y-55518D01*
X49062Y-55593D01*
X49081Y-55630D01*
X49118Y-55668D01*
X49175Y-55686D01*
X49212Y-55686D01*
X49268Y-55668D01*
X49287Y-55649D01*
X49287Y-55518D01*
X49212Y-55518D01*
X49456Y-55686D02*
X49456Y-55293D01*
X49681Y-55686D01*
X49681Y-55293D01*
X49868Y-55686D02*
X49868Y-55293D01*
X49962Y-55293D01*
X50018Y-55311D01*
X50056Y-55349D01*
X50075Y-55386D01*
X50093Y-55461D01*
X50093Y-55518D01*
X50075Y-55593D01*
X50056Y-55630D01*
X50018Y-55668D01*
X49962Y-55686D01*
X49868Y-55686D01*
X49100Y-54190D02*
X49231Y-54584D01*
X49362Y-54190D01*
X49662Y-54565D02*
X49625Y-54584D01*
X49550Y-54584D01*
X49512Y-54565D01*
X49493Y-54547D01*
X49475Y-54509D01*
X49475Y-54397D01*
X49493Y-54359D01*
X49512Y-54340D01*
X49550Y-54322D01*
X49625Y-54322D01*
X49662Y-54340D01*
X50000Y-54565D02*
X49962Y-54584D01*
X49887Y-54584D01*
X49850Y-54565D01*
X49831Y-54547D01*
X49812Y-54509D01*
X49812Y-54397D01*
X49831Y-54359D01*
X49850Y-54340D01*
X49887Y-54322D01*
X49962Y-54322D01*
X50000Y-54340D01*
X49542Y-53433D02*
X49673Y-53433D01*
X49730Y-53639D02*
X49542Y-53639D01*
X49542Y-53245D01*
X49730Y-53245D01*
X49898Y-53377D02*
X49898Y-53639D01*
X49898Y-53414D02*
X49917Y-53395D01*
X49955Y-53377D01*
X50011Y-53377D01*
X50048Y-53395D01*
X50067Y-53433D01*
X50067Y-53639D01*
G54D16*
X22248Y-53595D02*
X21848Y-53595D01*
X21848Y-53500D01*
X21867Y-53443D01*
X21905Y-53405D01*
X21943Y-53386D01*
X22019Y-53367D01*
X22077Y-53367D01*
X22153Y-53386D01*
X22191Y-53405D01*
X22229Y-53443D01*
X22248Y-53500D01*
X22248Y-53595D01*
X21886Y-53214D02*
X21867Y-53195D01*
X21848Y-53157D01*
X21848Y-53062D01*
X21867Y-53024D01*
X21886Y-53005D01*
X21924Y-52986D01*
X21962Y-52986D01*
X22019Y-53005D01*
X22248Y-53234D01*
X22248Y-52986D01*
X21848Y-52624D02*
X21848Y-52814D01*
X22038Y-52834D01*
X22019Y-52814D01*
X22000Y-52776D01*
X22000Y-52681D01*
X22019Y-52643D01*
X22038Y-52624D01*
X22077Y-52605D01*
X22172Y-52605D01*
X22210Y-52624D01*
X22229Y-52643D01*
X22248Y-52681D01*
X22248Y-52776D01*
X22229Y-52814D01*
X22210Y-52834D01*
G54D19*
X26629Y-44467D02*
X26800Y-44467D01*
X26715Y-44767D02*
X26715Y-44467D01*
X26900Y-44767D02*
X26900Y-44467D01*
X27015Y-44467D01*
X27043Y-44481D01*
X27057Y-44495D01*
X27072Y-44524D01*
X27072Y-44567D01*
X27057Y-44595D01*
X27043Y-44609D01*
X27015Y-44624D01*
X26900Y-44624D01*
X27186Y-44495D02*
X27200Y-44481D01*
X27229Y-44467D01*
X27300Y-44467D01*
X27329Y-44481D01*
X27343Y-44495D01*
X27357Y-44524D01*
X27357Y-44552D01*
X27343Y-44595D01*
X27172Y-44767D01*
X27357Y-44767D01*
X66629Y-43837D02*
X66800Y-43837D01*
X66715Y-44137D02*
X66715Y-43837D01*
X66900Y-44137D02*
X66900Y-43837D01*
X67015Y-43837D01*
X67043Y-43851D01*
X67057Y-43865D01*
X67072Y-43894D01*
X67072Y-43937D01*
X67057Y-43965D01*
X67043Y-43980D01*
X67015Y-43994D01*
X66900Y-43994D01*
X67172Y-43837D02*
X67357Y-43837D01*
X67257Y-43951D01*
X67300Y-43951D01*
X67329Y-43965D01*
X67343Y-43980D01*
X67357Y-44008D01*
X67357Y-44080D01*
X67343Y-44108D01*
X67329Y-44122D01*
X67300Y-44137D01*
X67215Y-44137D01*
X67186Y-44122D01*
X67172Y-44108D01*
X74245Y-41011D02*
X74473Y-41011D01*
X74359Y-41411D02*
X74359Y-41011D01*
X74607Y-41411D02*
X74607Y-41011D01*
X74759Y-41011D01*
X74797Y-41030D01*
X74816Y-41050D01*
X74835Y-41088D01*
X74835Y-41145D01*
X74816Y-41183D01*
X74797Y-41202D01*
X74759Y-41221D01*
X74607Y-41221D01*
X75216Y-41411D02*
X74988Y-41411D01*
X75102Y-41411D02*
X75102Y-41011D01*
X75064Y-41069D01*
X75026Y-41107D01*
X74988Y-41126D01*
G54D20*
X55591Y-55150D02*
X55606Y-55164D01*
X55620Y-55207D01*
X55620Y-55235D01*
X55606Y-55278D01*
X55577Y-55307D01*
X55549Y-55321D01*
X55491Y-55335D01*
X55449Y-55335D01*
X55391Y-55321D01*
X55363Y-55307D01*
X55334Y-55278D01*
X55320Y-55235D01*
X55320Y-55207D01*
X55334Y-55164D01*
X55349Y-55150D01*
X55320Y-54878D02*
X55320Y-55021D01*
X55463Y-55035D01*
X55449Y-55021D01*
X55434Y-54992D01*
X55434Y-54921D01*
X55449Y-54892D01*
X55463Y-54878D01*
X55491Y-54864D01*
X55563Y-54864D01*
X55591Y-54878D01*
X55606Y-54892D01*
X55620Y-54921D01*
X55620Y-54992D01*
X55606Y-55021D01*
X55591Y-55035D01*
G54D23*
X55007Y-54314D02*
X55007Y-54085D01*
X55121Y-54200D02*
X54892Y-54200D01*
G54D16*
G54D20*
X58229Y-55128D02*
X58243Y-55143D01*
X58258Y-55185D01*
X58258Y-55214D01*
X58243Y-55257D01*
X58215Y-55285D01*
X58186Y-55300D01*
X58129Y-55314D01*
X58086Y-55314D01*
X58029Y-55300D01*
X58001Y-55285D01*
X57972Y-55257D01*
X57958Y-55214D01*
X57958Y-55185D01*
X57972Y-55143D01*
X57986Y-55128D01*
X58058Y-54871D02*
X58258Y-54871D01*
X57943Y-54943D02*
X58158Y-55014D01*
X58158Y-54828D01*
G54D23*
X57644Y-54293D02*
X57644Y-54064D01*
X57759Y-54178D02*
X57530Y-54178D01*
G54D16*
G54D22*
X77228Y-33821D02*
X77228Y-33521D01*
X77300Y-33521D01*
X77342Y-33535D01*
X77371Y-33564D01*
X77385Y-33592D01*
X77400Y-33650D01*
X77400Y-33692D01*
X77385Y-33750D01*
X77371Y-33778D01*
X77342Y-33807D01*
X77300Y-33821D01*
X77228Y-33821D01*
X77542Y-33821D02*
X77600Y-33821D01*
X77628Y-33807D01*
X77642Y-33792D01*
X77671Y-33750D01*
X77685Y-33692D01*
X77685Y-33578D01*
X77671Y-33550D01*
X77657Y-33535D01*
X77628Y-33521D01*
X77571Y-33521D01*
X77542Y-33535D01*
X77528Y-33550D01*
X77514Y-33578D01*
X77514Y-33650D01*
X77528Y-33678D01*
X77542Y-33692D01*
X77571Y-33707D01*
X77628Y-33707D01*
X77657Y-33692D01*
X77671Y-33678D01*
X77685Y-33650D01*
G54D19*
X80704Y-43411D02*
X80704Y-43011D01*
X80933Y-43411D02*
X80761Y-43183D01*
X80933Y-43011D02*
X80704Y-43240D01*
X81085Y-43050D02*
X81104Y-43030D01*
X81142Y-43011D01*
X81238Y-43011D01*
X81276Y-43030D01*
X81295Y-43050D01*
X81314Y-43088D01*
X81314Y-43126D01*
X81295Y-43183D01*
X81066Y-43411D01*
X81314Y-43411D01*
X52250Y-55214D02*
X52150Y-55214D01*
X52150Y-55371D02*
X52150Y-55071D01*
X52292Y-55071D01*
X52507Y-55214D02*
X52550Y-55228D01*
X52564Y-55242D01*
X52578Y-55271D01*
X52578Y-55314D01*
X52564Y-55342D01*
X52550Y-55357D01*
X52521Y-55371D01*
X52407Y-55371D01*
X52407Y-55071D01*
X52507Y-55071D01*
X52535Y-55085D01*
X52550Y-55100D01*
X52564Y-55128D01*
X52564Y-55157D01*
X52550Y-55185D01*
X52535Y-55200D01*
X52507Y-55214D01*
X52407Y-55214D01*
X52864Y-55371D02*
X52692Y-55371D01*
X52778Y-55371D02*
X52778Y-55071D01*
X52750Y-55114D01*
X52721Y-55142D01*
X52692Y-55157D01*
%LPC*%
G54D25*
X62700Y-54350D03*
G54D26*
X62700Y-55350D03*
X63700Y-55350D03*
G54D27*
X59100Y-46050D03*
G54D28*
X58100Y-46050D03*
X57100Y-46050D03*
X56100Y-46050D03*
X55100Y-46050D03*
X54100Y-46050D03*
X53100Y-46050D03*
X52100Y-46050D03*
X51100Y-46050D03*
X50100Y-46050D03*
X49100Y-46050D03*
X48100Y-46050D03*
X48072Y-47042D03*
X48072Y-48026D03*
X48072Y-50073D03*
X48072Y-51057D03*
X48100Y-52050D03*
X49100Y-52050D03*
X50100Y-52050D03*
X51100Y-52050D03*
X52100Y-52050D03*
X53100Y-52050D03*
X54100Y-52050D03*
X55100Y-52050D03*
X56100Y-52050D03*
X57100Y-52050D03*
X58100Y-52050D03*
X59100Y-52050D03*
G54D29*
X55631Y-51057D03*
X54647Y-51057D03*
X19450Y-52100D03*
X19450Y-51100D03*
G54D30*
X19450Y-50100D03*
G54D31*
X17481Y-51100D03*
G54D26*
X49450Y-35000D03*
X49450Y-32000D03*
X16750Y-35000D03*
X16750Y-32000D03*
X22950Y-35000D03*
X22950Y-32000D03*
X29350Y-35000D03*
X29350Y-32000D03*
X36250Y-35000D03*
X36250Y-32000D03*
X42850Y-35000D03*
X42850Y-32000D03*
X88550Y-35000D03*
X88550Y-32000D03*
X81950Y-35000D03*
X81950Y-32000D03*
X55650Y-35000D03*
X55650Y-32000D03*
X61650Y-35000D03*
X61650Y-32000D03*
X68450Y-35000D03*
X68450Y-32000D03*
G54D32*
X30950Y-35200D03*
X31950Y-35200D03*
X37750Y-35200D03*
X38750Y-35200D03*
X24550Y-35200D03*
X25550Y-35200D03*
X90150Y-35200D03*
X91150Y-35200D03*
X70050Y-35200D03*
X71050Y-35200D03*
X18400Y-35200D03*
X19400Y-35200D03*
X44450Y-35200D03*
X45450Y-35200D03*
X83450Y-35200D03*
X84450Y-35200D03*
X50950Y-35200D03*
X51950Y-35200D03*
X63250Y-35200D03*
X64250Y-35200D03*
X57250Y-35200D03*
X58250Y-35200D03*
G54D25*
X46450Y-27800D03*
G54D26*
X43450Y-27800D03*
G54D25*
X85450Y-27800D03*
G54D26*
X82450Y-27800D03*
G54D25*
X65250Y-27800D03*
G54D26*
X62250Y-27800D03*
G54D25*
X19650Y-27800D03*
G54D26*
X16650Y-27800D03*
G54D25*
X26550Y-27800D03*
G54D26*
X23550Y-27800D03*
G54D25*
X92050Y-27800D03*
G54D26*
X89050Y-27800D03*
G54D25*
X78950Y-27800D03*
G54D26*
X75950Y-27800D03*
G54D25*
X59150Y-27800D03*
G54D26*
X56150Y-27800D03*
G54D25*
X32850Y-27800D03*
G54D26*
X29850Y-27800D03*
G54D25*
X72050Y-27800D03*
G54D26*
X69050Y-27800D03*
G54D25*
X39750Y-27800D03*
G54D26*
X36750Y-27800D03*
G54D25*
X53050Y-27800D03*
G54D26*
X50050Y-27800D03*
G54D29*
X37300Y-30100D03*
X38300Y-30100D03*
G54D30*
X39300Y-30100D03*
G54D29*
X89600Y-30100D03*
X90600Y-30100D03*
G54D30*
X91600Y-30100D03*
G54D29*
X17100Y-30100D03*
X18100Y-30100D03*
G54D30*
X19100Y-30100D03*
G54D29*
X24050Y-30100D03*
X25050Y-30100D03*
G54D30*
X26050Y-30100D03*
G54D29*
X30400Y-30100D03*
X31400Y-30100D03*
G54D30*
X32400Y-30100D03*
G54D29*
X43950Y-30100D03*
X44950Y-30100D03*
G54D30*
X45950Y-30100D03*
G54D29*
X50500Y-30100D03*
X51500Y-30100D03*
G54D30*
X52500Y-30100D03*
G54D29*
X56700Y-30100D03*
X57700Y-30100D03*
G54D30*
X58700Y-30100D03*
G54D29*
X62750Y-30100D03*
X63750Y-30100D03*
G54D30*
X64750Y-30100D03*
G54D29*
X69550Y-30100D03*
X70550Y-30100D03*
G54D30*
X71550Y-30100D03*
G54D29*
X76450Y-30100D03*
X77450Y-30100D03*
G54D30*
X78450Y-30100D03*
G54D29*
X83000Y-30100D03*
X84000Y-30100D03*
G54D30*
X85000Y-30100D03*
G54D33*
X92050Y-53000D03*
G54D34*
X92050Y-51000D03*
X92050Y-49000D03*
G54D35*
X24515Y-53787D03*
X27468Y-53787D03*
X30421Y-53787D03*
X25500Y-52803D03*
X29437Y-52803D03*
X25598Y-57527D03*
X29535Y-57527D03*
G54D26*
X27350Y-48300D03*
X27350Y-51300D03*
X24450Y-48300D03*
X24450Y-51300D03*
X60750Y-56550D03*
X57750Y-56550D03*
X57750Y-57500D03*
X60750Y-57500D03*
X57750Y-58550D03*
X60750Y-58550D03*
G54D25*
X72452Y-52250D03*
G54D26*
X72452Y-51250D03*
X72452Y-50250D03*
X72452Y-49250D03*
X72452Y-48250D03*
X72452Y-47250D03*
X72452Y-46250D03*
X72452Y-45250D03*
X66500Y-45250D03*
X66500Y-46250D03*
X66500Y-47250D03*
X66500Y-48250D03*
X66500Y-49250D03*
X66500Y-50250D03*
X66500Y-51250D03*
X66500Y-52250D03*
G54D25*
X21600Y-50100D03*
G54D26*
X22600Y-50100D03*
G54D25*
X21600Y-47900D03*
G54D26*
X22600Y-47900D03*
G54D36*
X21600Y-45200D03*
G54D37*
X21600Y-46200D03*
G54D38*
X88515Y-37926D03*
X90877Y-37926D03*
X88515Y-39698D03*
X90877Y-39698D03*
X43015Y-37676D03*
X45377Y-37676D03*
X43015Y-39448D03*
X45377Y-39448D03*
X82015Y-37926D03*
X84377Y-37926D03*
X82015Y-39698D03*
X84377Y-39698D03*
X49765Y-37676D03*
X52127Y-37676D03*
X49765Y-39448D03*
X52127Y-39448D03*
X36465Y-37676D03*
X38827Y-37676D03*
X36465Y-39448D03*
X38827Y-39448D03*
X75515Y-37926D03*
X77877Y-37926D03*
X75515Y-39698D03*
X77877Y-39698D03*
X55765Y-37676D03*
X58127Y-37676D03*
X55765Y-39448D03*
X58127Y-39448D03*
X29465Y-37826D03*
X31827Y-37826D03*
X29465Y-39598D03*
X31827Y-39598D03*
X23115Y-37826D03*
X25477Y-37826D03*
X23115Y-39598D03*
X25477Y-39598D03*
X68765Y-37926D03*
X71127Y-37926D03*
X68765Y-39698D03*
X71127Y-39698D03*
X62015Y-37926D03*
X64377Y-37926D03*
X62015Y-39698D03*
X64377Y-39698D03*
X17615Y-37826D03*
X19977Y-37826D03*
X17615Y-39598D03*
X19977Y-39598D03*
G54D26*
X87374Y-42401D03*
X88374Y-42401D03*
X66450Y-54050D03*
X67450Y-54050D03*
G54D25*
X63250Y-57200D03*
G54D26*
X63250Y-58200D03*
G54D25*
X65500Y-56550D03*
G54D26*
X65500Y-57550D03*
G54D39*
X88092Y-51300D03*
G54D40*
X87107Y-51300D03*
G54D39*
X87381Y-46062D03*
G54D40*
X88366Y-46062D03*
G54D26*
X75400Y-34900D03*
X75400Y-31900D03*
G54D41*
X23400Y-24800D03*
X22400Y-24800D03*
X21400Y-24800D03*
G54D42*
X20400Y-24800D03*
G54D41*
X29300Y-24800D03*
X28300Y-24800D03*
X27300Y-24800D03*
G54D42*
X26300Y-24800D03*
G54D41*
X43400Y-24600D03*
X42400Y-24600D03*
X41400Y-24600D03*
G54D42*
X40400Y-24600D03*
G54D41*
X49100Y-24600D03*
X48100Y-24600D03*
X47100Y-24600D03*
G54D42*
X46100Y-24600D03*
G54D41*
X61900Y-24600D03*
X60900Y-24600D03*
X59900Y-24600D03*
G54D42*
X58900Y-24600D03*
G54D41*
X68500Y-24600D03*
X67500Y-24600D03*
X66500Y-24600D03*
G54D42*
X65500Y-24600D03*
G54D41*
X80900Y-24800D03*
X79900Y-24800D03*
X78900Y-24800D03*
G54D42*
X77900Y-24800D03*
G54D41*
X87100Y-24800D03*
X86100Y-24800D03*
X85100Y-24800D03*
G54D42*
X84100Y-24800D03*
G54D25*
X55625Y-41295D03*
G54D26*
X54625Y-41295D03*
X53625Y-41295D03*
X52625Y-41295D03*
X51625Y-41295D03*
X50625Y-41295D03*
X49625Y-41295D03*
X48625Y-41295D03*
X48625Y-44295D03*
X49625Y-44295D03*
X50625Y-44295D03*
X51625Y-44295D03*
X52625Y-44295D03*
X53625Y-44295D03*
X54625Y-44295D03*
X55625Y-44295D03*
G54D25*
X41700Y-42900D03*
G54D26*
X41700Y-43900D03*
X41700Y-44900D03*
X41700Y-45900D03*
X41700Y-46900D03*
X41700Y-47900D03*
X41700Y-48900D03*
X41700Y-49900D03*
X44700Y-49900D03*
X44700Y-48900D03*
X44700Y-47900D03*
X44700Y-46900D03*
X44700Y-45900D03*
X44700Y-44900D03*
X44700Y-43900D03*
X44700Y-42900D03*
G54D25*
X50750Y-53500D03*
G54D26*
X50750Y-54500D03*
X50750Y-55500D03*
X50750Y-56500D03*
X50750Y-57500D03*
X50750Y-58500D03*
G54D38*
X76515Y-46226D03*
X78877Y-46226D03*
X76515Y-47998D03*
X78877Y-47998D03*
X76515Y-49476D03*
X78877Y-49476D03*
X76515Y-51248D03*
X78877Y-51248D03*
X76515Y-52726D03*
X78877Y-52726D03*
X76515Y-54498D03*
X78877Y-54498D03*
G54D25*
X22086Y-51610D03*
G54D26*
X22086Y-54610D03*
G54D36*
X27007Y-43885D03*
G54D37*
X27007Y-42885D03*
G54D36*
X67007Y-42059D03*
G54D37*
X67007Y-43059D03*
G54D36*
X74842Y-42031D03*
G54D37*
X74842Y-43031D03*
X74842Y-44031D03*
G54D25*
X55000Y-54600D03*
G54D26*
X55000Y-55600D03*
G54D25*
X57637Y-54578D03*
G54D26*
X57637Y-55578D03*
G54D32*
X76950Y-35200D03*
X77950Y-35200D03*
G54D42*
X79500Y-42250D03*
G54D41*
X80500Y-42250D03*
X81500Y-42250D03*
G54D36*
X53000Y-54500D03*
G54D37*
X52000Y-54500D03*
G54D43*
X91750Y-57000D03*
X18000Y-57000D03*
X91750Y-25750D03*
X18000Y-25750D03*
M02*
