G04 (created by PCBNEW (2013-07-07 BZR 4022)-stable) date 11/09/2014 13:11:16*
%MOIN*%
G04 Gerber Fmt 3.4, Leading zero omitted, Abs format*
%FSLAX34Y34*%
G01*
G70*
G90*
G04 APERTURE LIST*
%ADD10C,0.00590551*%
%ADD11R,0.055X0.055*%
%ADD12C,0.055*%
%ADD13R,0.065X0.065*%
%ADD14C,0.065*%
%ADD15C,0.07*%
%ADD16R,0.07X0.07*%
%ADD17R,0.12X0.12*%
%ADD18C,0.066*%
%ADD19R,0.1X0.1*%
%ADD20C,0.1*%
%ADD21C,0.095*%
%ADD22R,0.06X0.06*%
%ADD23C,0.06*%
%ADD24C,0.0787402*%
%ADD25R,0.0393701X0.0393701*%
%ADD26C,0.0472441*%
%ADD27O,0.06X0.12*%
%ADD28R,0.06X0.12*%
%ADD29C,0.137795*%
G04 APERTURE END LIST*
G54D10*
G54D11*
X62700Y-54350D03*
G54D12*
X62700Y-55350D03*
X63700Y-55350D03*
G54D13*
X59100Y-46050D03*
G54D14*
X58100Y-46050D03*
X57100Y-46050D03*
X56100Y-46050D03*
X55100Y-46050D03*
X54100Y-46050D03*
X53100Y-46050D03*
X52100Y-46050D03*
X51100Y-46050D03*
X50100Y-46050D03*
X49100Y-46050D03*
X48100Y-46050D03*
X48072Y-47042D03*
X48072Y-48026D03*
X48072Y-50073D03*
X48072Y-51057D03*
X48100Y-52050D03*
X49100Y-52050D03*
X50100Y-52050D03*
X51100Y-52050D03*
X52100Y-52050D03*
X53100Y-52050D03*
X54100Y-52050D03*
X55100Y-52050D03*
X56100Y-52050D03*
X57100Y-52050D03*
X58100Y-52050D03*
X59100Y-52050D03*
G54D15*
X55631Y-51057D03*
X54647Y-51057D03*
X19450Y-52100D03*
X19450Y-51100D03*
G54D16*
X19450Y-50100D03*
G54D17*
X17481Y-51100D03*
G54D12*
X49450Y-35000D03*
X49450Y-32000D03*
X16750Y-35000D03*
X16750Y-32000D03*
X22950Y-35000D03*
X22950Y-32000D03*
X29350Y-35000D03*
X29350Y-32000D03*
X36250Y-35000D03*
X36250Y-32000D03*
X42850Y-35000D03*
X42850Y-32000D03*
X88550Y-35000D03*
X88550Y-32000D03*
X81950Y-35000D03*
X81950Y-32000D03*
X55650Y-35000D03*
X55650Y-32000D03*
X61650Y-35000D03*
X61650Y-32000D03*
X68450Y-35000D03*
X68450Y-32000D03*
G54D18*
X30950Y-35200D03*
X31950Y-35200D03*
X37750Y-35200D03*
X38750Y-35200D03*
X24550Y-35200D03*
X25550Y-35200D03*
X90150Y-35200D03*
X91150Y-35200D03*
X70050Y-35200D03*
X71050Y-35200D03*
X18400Y-35200D03*
X19400Y-35200D03*
X44450Y-35200D03*
X45450Y-35200D03*
X83450Y-35200D03*
X84450Y-35200D03*
X50950Y-35200D03*
X51950Y-35200D03*
X63250Y-35200D03*
X64250Y-35200D03*
X57250Y-35200D03*
X58250Y-35200D03*
G54D11*
X46450Y-27800D03*
G54D12*
X43450Y-27800D03*
G54D11*
X85450Y-27800D03*
G54D12*
X82450Y-27800D03*
G54D11*
X65250Y-27800D03*
G54D12*
X62250Y-27800D03*
G54D11*
X19650Y-27800D03*
G54D12*
X16650Y-27800D03*
G54D11*
X26550Y-27800D03*
G54D12*
X23550Y-27800D03*
G54D11*
X92050Y-27800D03*
G54D12*
X89050Y-27800D03*
G54D11*
X78950Y-27800D03*
G54D12*
X75950Y-27800D03*
G54D11*
X59150Y-27800D03*
G54D12*
X56150Y-27800D03*
G54D11*
X32850Y-27800D03*
G54D12*
X29850Y-27800D03*
G54D11*
X72050Y-27800D03*
G54D12*
X69050Y-27800D03*
G54D11*
X39750Y-27800D03*
G54D12*
X36750Y-27800D03*
G54D11*
X53050Y-27800D03*
G54D12*
X50050Y-27800D03*
G54D15*
X37300Y-30100D03*
X38300Y-30100D03*
G54D16*
X39300Y-30100D03*
G54D15*
X89600Y-30100D03*
X90600Y-30100D03*
G54D16*
X91600Y-30100D03*
G54D15*
X17100Y-30100D03*
X18100Y-30100D03*
G54D16*
X19100Y-30100D03*
G54D15*
X24050Y-30100D03*
X25050Y-30100D03*
G54D16*
X26050Y-30100D03*
G54D15*
X30400Y-30100D03*
X31400Y-30100D03*
G54D16*
X32400Y-30100D03*
G54D15*
X43950Y-30100D03*
X44950Y-30100D03*
G54D16*
X45950Y-30100D03*
G54D15*
X50500Y-30100D03*
X51500Y-30100D03*
G54D16*
X52500Y-30100D03*
G54D15*
X56700Y-30100D03*
X57700Y-30100D03*
G54D16*
X58700Y-30100D03*
G54D15*
X62750Y-30100D03*
X63750Y-30100D03*
G54D16*
X64750Y-30100D03*
G54D15*
X69550Y-30100D03*
X70550Y-30100D03*
G54D16*
X71550Y-30100D03*
G54D15*
X76450Y-30100D03*
X77450Y-30100D03*
G54D16*
X78450Y-30100D03*
G54D15*
X83000Y-30100D03*
X84000Y-30100D03*
G54D16*
X85000Y-30100D03*
G54D19*
X92050Y-53000D03*
G54D20*
X92050Y-51000D03*
X92050Y-49000D03*
G54D21*
X24515Y-53787D03*
X27468Y-53787D03*
X30421Y-53787D03*
X25500Y-52803D03*
X29437Y-52803D03*
X25598Y-57527D03*
X29535Y-57527D03*
G54D12*
X27350Y-48300D03*
X27350Y-51300D03*
X24450Y-48300D03*
X24450Y-51300D03*
X60750Y-56550D03*
X57750Y-56550D03*
X57750Y-57500D03*
X60750Y-57500D03*
X57750Y-58550D03*
X60750Y-58550D03*
G54D11*
X72452Y-52250D03*
G54D12*
X72452Y-51250D03*
X72452Y-50250D03*
X72452Y-49250D03*
X72452Y-48250D03*
X72452Y-47250D03*
X72452Y-46250D03*
X72452Y-45250D03*
X66500Y-45250D03*
X66500Y-46250D03*
X66500Y-47250D03*
X66500Y-48250D03*
X66500Y-49250D03*
X66500Y-50250D03*
X66500Y-51250D03*
X66500Y-52250D03*
G54D11*
X21600Y-50100D03*
G54D12*
X22600Y-50100D03*
G54D11*
X21600Y-47900D03*
G54D12*
X22600Y-47900D03*
G54D22*
X21600Y-45200D03*
G54D23*
X21600Y-46200D03*
G54D24*
X88515Y-37926D03*
X90877Y-37926D03*
X88515Y-39698D03*
X90877Y-39698D03*
X43015Y-37676D03*
X45377Y-37676D03*
X43015Y-39448D03*
X45377Y-39448D03*
X82015Y-37926D03*
X84377Y-37926D03*
X82015Y-39698D03*
X84377Y-39698D03*
X49765Y-37676D03*
X52127Y-37676D03*
X49765Y-39448D03*
X52127Y-39448D03*
X36465Y-37676D03*
X38827Y-37676D03*
X36465Y-39448D03*
X38827Y-39448D03*
X75515Y-37926D03*
X77877Y-37926D03*
X75515Y-39698D03*
X77877Y-39698D03*
X55765Y-37676D03*
X58127Y-37676D03*
X55765Y-39448D03*
X58127Y-39448D03*
X29465Y-37826D03*
X31827Y-37826D03*
X29465Y-39598D03*
X31827Y-39598D03*
X23115Y-37826D03*
X25477Y-37826D03*
X23115Y-39598D03*
X25477Y-39598D03*
X68765Y-37926D03*
X71127Y-37926D03*
X68765Y-39698D03*
X71127Y-39698D03*
X62015Y-37926D03*
X64377Y-37926D03*
X62015Y-39698D03*
X64377Y-39698D03*
X17615Y-37826D03*
X19977Y-37826D03*
X17615Y-39598D03*
X19977Y-39598D03*
G54D12*
X87374Y-42401D03*
X88374Y-42401D03*
X66450Y-54050D03*
X67450Y-54050D03*
G54D11*
X63250Y-57200D03*
G54D12*
X63250Y-58200D03*
G54D11*
X65500Y-56550D03*
G54D12*
X65500Y-57550D03*
G54D25*
X88092Y-51300D03*
G54D26*
X87107Y-51300D03*
G54D25*
X87381Y-46062D03*
G54D26*
X88366Y-46062D03*
G54D12*
X75400Y-34900D03*
X75400Y-31900D03*
G54D27*
X23400Y-24800D03*
X22400Y-24800D03*
X21400Y-24800D03*
G54D28*
X20400Y-24800D03*
G54D27*
X29300Y-24800D03*
X28300Y-24800D03*
X27300Y-24800D03*
G54D28*
X26300Y-24800D03*
G54D27*
X43400Y-24600D03*
X42400Y-24600D03*
X41400Y-24600D03*
G54D28*
X40400Y-24600D03*
G54D27*
X49100Y-24600D03*
X48100Y-24600D03*
X47100Y-24600D03*
G54D28*
X46100Y-24600D03*
G54D27*
X61900Y-24600D03*
X60900Y-24600D03*
X59900Y-24600D03*
G54D28*
X58900Y-24600D03*
G54D27*
X68500Y-24600D03*
X67500Y-24600D03*
X66500Y-24600D03*
G54D28*
X65500Y-24600D03*
G54D27*
X80900Y-24800D03*
X79900Y-24800D03*
X78900Y-24800D03*
G54D28*
X77900Y-24800D03*
G54D27*
X87100Y-24800D03*
X86100Y-24800D03*
X85100Y-24800D03*
G54D28*
X84100Y-24800D03*
G54D11*
X55625Y-41295D03*
G54D12*
X54625Y-41295D03*
X53625Y-41295D03*
X52625Y-41295D03*
X51625Y-41295D03*
X50625Y-41295D03*
X49625Y-41295D03*
X48625Y-41295D03*
X48625Y-44295D03*
X49625Y-44295D03*
X50625Y-44295D03*
X51625Y-44295D03*
X52625Y-44295D03*
X53625Y-44295D03*
X54625Y-44295D03*
X55625Y-44295D03*
G54D11*
X41700Y-42900D03*
G54D12*
X41700Y-43900D03*
X41700Y-44900D03*
X41700Y-45900D03*
X41700Y-46900D03*
X41700Y-47900D03*
X41700Y-48900D03*
X41700Y-49900D03*
X44700Y-49900D03*
X44700Y-48900D03*
X44700Y-47900D03*
X44700Y-46900D03*
X44700Y-45900D03*
X44700Y-44900D03*
X44700Y-43900D03*
X44700Y-42900D03*
G54D11*
X50750Y-53500D03*
G54D12*
X50750Y-54500D03*
X50750Y-55500D03*
X50750Y-56500D03*
X50750Y-57500D03*
X50750Y-58500D03*
G54D24*
X76515Y-46226D03*
X78877Y-46226D03*
X76515Y-47998D03*
X78877Y-47998D03*
X76515Y-49476D03*
X78877Y-49476D03*
X76515Y-51248D03*
X78877Y-51248D03*
X76515Y-52726D03*
X78877Y-52726D03*
X76515Y-54498D03*
X78877Y-54498D03*
G54D11*
X22086Y-51610D03*
G54D12*
X22086Y-54610D03*
G54D22*
X27007Y-43885D03*
G54D23*
X27007Y-42885D03*
G54D22*
X67007Y-42059D03*
G54D23*
X67007Y-43059D03*
G54D22*
X74842Y-42031D03*
G54D23*
X74842Y-43031D03*
X74842Y-44031D03*
G54D11*
X55000Y-54600D03*
G54D12*
X55000Y-55600D03*
G54D11*
X57637Y-54578D03*
G54D12*
X57637Y-55578D03*
G54D18*
X76950Y-35200D03*
X77950Y-35200D03*
G54D28*
X79500Y-42250D03*
G54D27*
X80500Y-42250D03*
X81500Y-42250D03*
G54D22*
X53000Y-54500D03*
G54D23*
X52000Y-54500D03*
G54D29*
X91750Y-57000D03*
X18000Y-57000D03*
X91750Y-25750D03*
X18000Y-25750D03*
M02*
