G04 (created by PCBNEW (2013-07-07 BZR 4022)-stable) date 16/12/2014 09:46:14*
%MOIN*%
G04 Gerber Fmt 3.4, Leading zero omitted, Abs format*
%FSLAX34Y34*%
G01*
G70*
G90*
G04 APERTURE LIST*
%ADD10C,0.00590551*%
%ADD11C,0.011811*%
%ADD12R,0.12X0.067*%
%ADD13R,0.067X0.12*%
%ADD14R,0.09X0.067*%
%ADD15C,0.07*%
%ADD16O,0.06X0.1*%
%ADD17R,0.1X0.0590551*%
%ADD18R,0.06X0.1*%
%ADD19R,0.06X0.06*%
%ADD20C,0.06*%
%ADD21R,0.055X0.055*%
%ADD22C,0.055*%
%ADD23C,0.1*%
%ADD24C,0.03*%
G04 APERTURE END LIST*
G54D10*
G54D11*
X24198Y-40396D02*
X24001Y-40115D01*
X23861Y-40396D02*
X23861Y-39805D01*
X24086Y-39805D01*
X24142Y-39834D01*
X24170Y-39862D01*
X24198Y-39918D01*
X24198Y-40002D01*
X24170Y-40059D01*
X24142Y-40087D01*
X24086Y-40115D01*
X23861Y-40115D01*
X24676Y-40368D02*
X24620Y-40396D01*
X24507Y-40396D01*
X24451Y-40368D01*
X24423Y-40312D01*
X24423Y-40087D01*
X24451Y-40030D01*
X24507Y-40002D01*
X24620Y-40002D01*
X24676Y-40030D01*
X24704Y-40087D01*
X24704Y-40143D01*
X24423Y-40199D01*
X24901Y-40002D02*
X25042Y-40396D01*
X25182Y-40002D01*
X26167Y-40396D02*
X25829Y-40396D01*
X25998Y-40396D02*
X25998Y-39805D01*
X25942Y-39890D01*
X25885Y-39946D01*
X25829Y-39974D01*
X40044Y-23959D02*
X40044Y-23368D01*
X40044Y-23650D02*
X40382Y-23650D01*
X40382Y-23959D02*
X40382Y-23368D01*
X40916Y-23959D02*
X40916Y-23650D01*
X40888Y-23593D01*
X40832Y-23565D01*
X40719Y-23565D01*
X40663Y-23593D01*
X40916Y-23931D02*
X40860Y-23959D01*
X40719Y-23959D01*
X40663Y-23931D01*
X40635Y-23875D01*
X40635Y-23818D01*
X40663Y-23762D01*
X40719Y-23734D01*
X40860Y-23734D01*
X40916Y-23706D01*
X41451Y-23931D02*
X41394Y-23959D01*
X41282Y-23959D01*
X41226Y-23931D01*
X41197Y-23903D01*
X41169Y-23847D01*
X41169Y-23678D01*
X41197Y-23622D01*
X41226Y-23593D01*
X41282Y-23565D01*
X41394Y-23565D01*
X41451Y-23593D01*
X41704Y-23959D02*
X41704Y-23368D01*
X41760Y-23734D02*
X41929Y-23959D01*
X41929Y-23565D02*
X41704Y-23790D01*
X42407Y-23931D02*
X42350Y-23959D01*
X42238Y-23959D01*
X42182Y-23931D01*
X42154Y-23875D01*
X42154Y-23650D01*
X42182Y-23593D01*
X42238Y-23565D01*
X42350Y-23565D01*
X42407Y-23593D01*
X42435Y-23650D01*
X42435Y-23706D01*
X42154Y-23762D01*
X42688Y-23959D02*
X42688Y-23565D01*
X42688Y-23678D02*
X42716Y-23622D01*
X42744Y-23593D01*
X42800Y-23565D01*
X42857Y-23565D01*
X43025Y-23931D02*
X43082Y-23959D01*
X43194Y-23959D01*
X43250Y-23931D01*
X43278Y-23875D01*
X43278Y-23847D01*
X43250Y-23790D01*
X43194Y-23762D01*
X43110Y-23762D01*
X43053Y-23734D01*
X43025Y-23678D01*
X43025Y-23650D01*
X43053Y-23593D01*
X43110Y-23565D01*
X43194Y-23565D01*
X43250Y-23593D01*
X43532Y-23565D02*
X43532Y-24156D01*
X43532Y-23593D02*
X43588Y-23565D01*
X43700Y-23565D01*
X43757Y-23593D01*
X43785Y-23622D01*
X43813Y-23678D01*
X43813Y-23847D01*
X43785Y-23903D01*
X43757Y-23931D01*
X43700Y-23959D01*
X43588Y-23959D01*
X43532Y-23931D01*
X44319Y-23959D02*
X44319Y-23650D01*
X44291Y-23593D01*
X44235Y-23565D01*
X44122Y-23565D01*
X44066Y-23593D01*
X44319Y-23931D02*
X44263Y-23959D01*
X44122Y-23959D01*
X44066Y-23931D01*
X44038Y-23875D01*
X44038Y-23818D01*
X44066Y-23762D01*
X44122Y-23734D01*
X44263Y-23734D01*
X44319Y-23706D01*
X44853Y-23931D02*
X44797Y-23959D01*
X44685Y-23959D01*
X44628Y-23931D01*
X44600Y-23903D01*
X44572Y-23847D01*
X44572Y-23678D01*
X44600Y-23622D01*
X44628Y-23593D01*
X44685Y-23565D01*
X44797Y-23565D01*
X44853Y-23593D01*
X45331Y-23931D02*
X45275Y-23959D01*
X45163Y-23959D01*
X45106Y-23931D01*
X45078Y-23875D01*
X45078Y-23650D01*
X45106Y-23593D01*
X45163Y-23565D01*
X45275Y-23565D01*
X45331Y-23593D01*
X45359Y-23650D01*
X45359Y-23706D01*
X45078Y-23762D01*
X41718Y-24848D02*
X41690Y-24876D01*
X41605Y-24904D01*
X41549Y-24904D01*
X41465Y-24876D01*
X41408Y-24820D01*
X41380Y-24763D01*
X41352Y-24651D01*
X41352Y-24566D01*
X41380Y-24454D01*
X41408Y-24398D01*
X41465Y-24341D01*
X41549Y-24313D01*
X41605Y-24313D01*
X41690Y-24341D01*
X41718Y-24370D01*
X41971Y-24904D02*
X41971Y-24313D01*
X42224Y-24904D02*
X42224Y-24595D01*
X42196Y-24538D01*
X42140Y-24510D01*
X42055Y-24510D01*
X41999Y-24538D01*
X41971Y-24566D01*
X42589Y-24904D02*
X42533Y-24876D01*
X42505Y-24848D01*
X42477Y-24791D01*
X42477Y-24623D01*
X42505Y-24566D01*
X42533Y-24538D01*
X42589Y-24510D01*
X42674Y-24510D01*
X42730Y-24538D01*
X42758Y-24566D01*
X42786Y-24623D01*
X42786Y-24791D01*
X42758Y-24848D01*
X42730Y-24876D01*
X42674Y-24904D01*
X42589Y-24904D01*
X43124Y-24904D02*
X43068Y-24876D01*
X43039Y-24820D01*
X43039Y-24313D01*
X43602Y-24510D02*
X43602Y-24904D01*
X43349Y-24510D02*
X43349Y-24820D01*
X43377Y-24876D01*
X43433Y-24904D01*
X43517Y-24904D01*
X43574Y-24876D01*
X43602Y-24848D01*
X43967Y-24904D02*
X43911Y-24876D01*
X43883Y-24820D01*
X43883Y-24313D01*
X44446Y-24904D02*
X44446Y-24595D01*
X44417Y-24538D01*
X44361Y-24510D01*
X44249Y-24510D01*
X44192Y-24538D01*
X44446Y-24876D02*
X44389Y-24904D01*
X44249Y-24904D01*
X44192Y-24876D01*
X44164Y-24820D01*
X44164Y-24763D01*
X44192Y-24707D01*
X44249Y-24679D01*
X44389Y-24679D01*
X44446Y-24651D01*
G54D12*
X46897Y-38488D03*
X46897Y-37488D03*
X46897Y-36488D03*
X46897Y-35488D03*
X46897Y-34488D03*
X46897Y-33488D03*
X46897Y-32488D03*
X46897Y-31488D03*
X46897Y-30488D03*
X46897Y-29488D03*
X46897Y-28488D03*
X46897Y-27488D03*
G54D13*
X45405Y-27460D03*
X44421Y-27460D03*
X43374Y-27460D03*
X42389Y-27460D03*
G54D12*
X40897Y-27488D03*
X40897Y-28488D03*
X40897Y-29488D03*
X40897Y-30488D03*
X40897Y-31488D03*
X40897Y-32488D03*
G54D14*
X40897Y-33488D03*
X40897Y-34488D03*
X40897Y-35488D03*
G54D12*
X40897Y-36488D03*
X40897Y-37488D03*
X40897Y-38488D03*
G54D15*
X41877Y-35008D03*
X41877Y-34008D03*
G54D16*
X33972Y-21456D03*
X32972Y-21456D03*
X31972Y-21456D03*
G54D17*
X24606Y-23720D03*
X24606Y-24720D03*
X24606Y-25720D03*
X24606Y-26720D03*
X24606Y-27720D03*
X24606Y-28720D03*
X24606Y-29720D03*
X24606Y-30720D03*
X24606Y-31720D03*
X24606Y-32720D03*
X24606Y-33720D03*
X24606Y-34720D03*
X24606Y-35720D03*
X24606Y-36720D03*
X24606Y-37720D03*
X24606Y-38720D03*
X33606Y-38720D03*
X33606Y-37720D03*
X33606Y-36720D03*
X33606Y-35720D03*
X33606Y-34720D03*
X33606Y-33720D03*
X33606Y-32720D03*
X33606Y-31720D03*
X33606Y-30720D03*
X33606Y-29720D03*
X33606Y-28720D03*
X33606Y-27720D03*
X33606Y-26720D03*
X33606Y-25720D03*
X33606Y-24720D03*
X33606Y-23720D03*
G54D18*
X39673Y-21456D03*
G54D16*
X38673Y-21456D03*
G54D19*
X46251Y-21456D03*
G54D20*
X47251Y-21456D03*
G54D21*
X55600Y-38040D03*
G54D22*
X56600Y-38040D03*
X57600Y-38040D03*
X58600Y-38040D03*
X59600Y-38040D03*
X60600Y-38040D03*
X61600Y-38040D03*
X62600Y-38040D03*
X63600Y-38040D03*
X64600Y-38040D03*
X65600Y-38040D03*
X66600Y-38040D03*
X66627Y-37047D03*
X66627Y-36063D03*
X66627Y-34016D03*
X66627Y-33032D03*
X66600Y-32040D03*
X65600Y-32040D03*
X64600Y-32040D03*
X63600Y-32040D03*
X62600Y-32040D03*
X61600Y-32040D03*
X60600Y-32040D03*
X59600Y-32040D03*
X58600Y-32040D03*
X57600Y-32040D03*
X56600Y-32040D03*
X55600Y-32040D03*
G54D15*
X59068Y-33032D03*
X60052Y-33032D03*
G54D23*
X35137Y-30610D03*
X38484Y-35433D03*
X43140Y-31240D03*
X42320Y-36200D03*
X30610Y-39665D03*
X37795Y-37893D03*
X31972Y-22834D03*
X36417Y-22834D03*
X36712Y-28937D03*
X37106Y-33661D03*
X38287Y-28543D03*
X38090Y-30413D03*
X35236Y-27559D03*
X44291Y-34153D03*
G54D24*
X40897Y-35488D02*
X38539Y-35488D01*
X34452Y-29925D02*
X34452Y-29720D01*
X35137Y-30610D02*
X34452Y-29925D01*
X38539Y-35488D02*
X38484Y-35433D01*
X33606Y-29720D02*
X34452Y-29720D01*
X39673Y-24500D02*
X39673Y-21456D01*
X34452Y-29720D02*
X39673Y-24500D01*
X41877Y-35008D02*
X41877Y-35757D01*
X44421Y-29958D02*
X44421Y-27460D01*
X43140Y-31240D02*
X44421Y-29958D01*
X41877Y-35757D02*
X42320Y-36200D01*
X44421Y-27460D02*
X44421Y-25657D01*
X46251Y-23826D02*
X46251Y-21456D01*
X44421Y-25657D02*
X46251Y-23826D01*
X41877Y-34008D02*
X41877Y-33802D01*
X45405Y-30274D02*
X45405Y-27460D01*
X41877Y-33802D02*
X45405Y-30274D01*
X45405Y-27460D02*
X45405Y-25854D01*
X47251Y-24007D02*
X47251Y-21456D01*
X45405Y-25854D02*
X47251Y-24007D01*
X40897Y-37488D02*
X38200Y-37488D01*
X30216Y-33039D02*
X31972Y-31283D01*
X30216Y-39271D02*
X30216Y-33039D01*
X30610Y-39665D02*
X30216Y-39271D01*
X38200Y-37488D02*
X37795Y-37893D01*
X38673Y-21456D02*
X38673Y-22350D01*
X38188Y-22834D02*
X38673Y-22350D01*
X36417Y-22834D02*
X38188Y-22834D01*
X33606Y-31720D02*
X32409Y-31720D01*
X31972Y-31283D02*
X31972Y-22834D01*
X31972Y-22834D02*
X31972Y-21456D01*
X32409Y-31720D02*
X31972Y-31283D01*
X33606Y-24720D02*
X34629Y-24720D01*
X33972Y-22062D02*
X33972Y-21456D01*
X35236Y-23326D02*
X33972Y-22062D01*
X35236Y-24114D02*
X35236Y-23326D01*
X34629Y-24720D02*
X35236Y-24114D01*
X33606Y-36720D02*
X36212Y-36720D01*
X37669Y-27488D02*
X40897Y-27488D01*
X37303Y-27854D02*
X37669Y-27488D01*
X37303Y-28346D02*
X37303Y-27854D01*
X36712Y-28937D02*
X37303Y-28346D01*
X37106Y-35826D02*
X37106Y-33661D01*
X36212Y-36720D02*
X37106Y-35826D01*
X33606Y-32720D02*
X34503Y-32720D01*
X37736Y-29488D02*
X40897Y-29488D01*
X34503Y-32720D02*
X37736Y-29488D01*
X42125Y-39215D02*
X42379Y-39215D01*
X44086Y-32488D02*
X45759Y-32488D01*
X43208Y-33366D02*
X44086Y-32488D01*
X43208Y-38385D02*
X43208Y-33366D01*
X42379Y-39215D02*
X43208Y-38385D01*
X33606Y-37720D02*
X36342Y-37720D01*
X45759Y-32488D02*
X46897Y-32488D01*
X37837Y-39215D02*
X42125Y-39215D01*
X36342Y-37720D02*
X37837Y-39215D01*
X33606Y-38720D02*
X33996Y-38720D01*
X47877Y-28488D02*
X46897Y-28488D01*
X48326Y-28937D02*
X47877Y-28488D01*
X48326Y-39074D02*
X48326Y-28937D01*
X47736Y-39665D02*
X48326Y-39074D01*
X34940Y-39665D02*
X47736Y-39665D01*
X33996Y-38720D02*
X34940Y-39665D01*
X33606Y-34720D02*
X34767Y-34720D01*
X39590Y-30488D02*
X40897Y-30488D01*
X38287Y-31791D02*
X39590Y-30488D01*
X37696Y-31791D02*
X38287Y-31791D01*
X34767Y-34720D02*
X37696Y-31791D01*
X33606Y-33720D02*
X34783Y-33720D01*
X38342Y-28488D02*
X40897Y-28488D01*
X38287Y-28543D02*
X38342Y-28488D01*
X34783Y-33720D02*
X38090Y-30413D01*
X46897Y-33488D02*
X44956Y-33488D01*
X34074Y-28720D02*
X33606Y-28720D01*
X35236Y-27559D02*
X34074Y-28720D01*
X44956Y-33488D02*
X44291Y-34153D01*
X33606Y-23720D02*
X33606Y-23271D01*
X32972Y-22637D02*
X32972Y-21456D01*
X33606Y-23271D02*
X32972Y-22637D01*
X46897Y-27488D02*
X48255Y-27488D01*
X32488Y-35720D02*
X33606Y-35720D01*
X32086Y-36122D02*
X32488Y-35720D01*
X32086Y-39370D02*
X32086Y-36122D01*
X32874Y-40157D02*
X32086Y-39370D01*
X48326Y-40157D02*
X32874Y-40157D01*
X48917Y-39566D02*
X48326Y-40157D01*
X48917Y-28149D02*
X48917Y-39566D01*
X48255Y-27488D02*
X48917Y-28149D01*
M02*
