G04 (created by PCBNEW (2013-07-07 BZR 4022)-stable) date 16/12/2014 09:46:14*
%MOIN*%
G04 Gerber Fmt 3.4, Leading zero omitted, Abs format*
%FSLAX34Y34*%
G01*
G70*
G90*
G04 APERTURE LIST*
%ADD10C,0.00590551*%
%ADD11R,0.12X0.067*%
%ADD12R,0.067X0.12*%
%ADD13R,0.09X0.067*%
%ADD14C,0.07*%
%ADD15O,0.06X0.1*%
%ADD16R,0.1X0.0590551*%
%ADD17R,0.06X0.1*%
%ADD18R,0.06X0.06*%
%ADD19C,0.06*%
%ADD20R,0.055X0.055*%
%ADD21C,0.055*%
%ADD22C,0.1*%
%ADD23C,0.03*%
G04 APERTURE END LIST*
G54D10*
G54D11*
X46897Y-38488D03*
X46897Y-37488D03*
X46897Y-36488D03*
X46897Y-35488D03*
X46897Y-34488D03*
X46897Y-33488D03*
X46897Y-32488D03*
X46897Y-31488D03*
X46897Y-30488D03*
X46897Y-29488D03*
X46897Y-28488D03*
X46897Y-27488D03*
G54D12*
X45405Y-27460D03*
X44421Y-27460D03*
X43374Y-27460D03*
X42389Y-27460D03*
G54D11*
X40897Y-27488D03*
X40897Y-28488D03*
X40897Y-29488D03*
X40897Y-30488D03*
X40897Y-31488D03*
X40897Y-32488D03*
G54D13*
X40897Y-33488D03*
X40897Y-34488D03*
X40897Y-35488D03*
G54D11*
X40897Y-36488D03*
X40897Y-37488D03*
X40897Y-38488D03*
G54D14*
X41877Y-35008D03*
X41877Y-34008D03*
G54D15*
X33972Y-21456D03*
X32972Y-21456D03*
X31972Y-21456D03*
G54D16*
X24606Y-23720D03*
X24606Y-24720D03*
X24606Y-25720D03*
X24606Y-26720D03*
X24606Y-27720D03*
X24606Y-28720D03*
X24606Y-29720D03*
X24606Y-30720D03*
X24606Y-31720D03*
X24606Y-32720D03*
X24606Y-33720D03*
X24606Y-34720D03*
X24606Y-35720D03*
X24606Y-36720D03*
X24606Y-37720D03*
X24606Y-38720D03*
X33606Y-38720D03*
X33606Y-37720D03*
X33606Y-36720D03*
X33606Y-35720D03*
X33606Y-34720D03*
X33606Y-33720D03*
X33606Y-32720D03*
X33606Y-31720D03*
X33606Y-30720D03*
X33606Y-29720D03*
X33606Y-28720D03*
X33606Y-27720D03*
X33606Y-26720D03*
X33606Y-25720D03*
X33606Y-24720D03*
X33606Y-23720D03*
G54D17*
X39673Y-21456D03*
G54D15*
X38673Y-21456D03*
G54D18*
X46251Y-21456D03*
G54D19*
X47251Y-21456D03*
G54D20*
X55600Y-38040D03*
G54D21*
X56600Y-38040D03*
X57600Y-38040D03*
X58600Y-38040D03*
X59600Y-38040D03*
X60600Y-38040D03*
X61600Y-38040D03*
X62600Y-38040D03*
X63600Y-38040D03*
X64600Y-38040D03*
X65600Y-38040D03*
X66600Y-38040D03*
X66627Y-37047D03*
X66627Y-36063D03*
X66627Y-34016D03*
X66627Y-33032D03*
X66600Y-32040D03*
X65600Y-32040D03*
X64600Y-32040D03*
X63600Y-32040D03*
X62600Y-32040D03*
X61600Y-32040D03*
X60600Y-32040D03*
X59600Y-32040D03*
X58600Y-32040D03*
X57600Y-32040D03*
X56600Y-32040D03*
X55600Y-32040D03*
G54D14*
X59068Y-33032D03*
X60052Y-33032D03*
G54D22*
X35137Y-30610D03*
X38484Y-35433D03*
X43140Y-31240D03*
X42320Y-36200D03*
X30610Y-39665D03*
X37795Y-37893D03*
X31972Y-22834D03*
X36417Y-22834D03*
X36712Y-28937D03*
X37106Y-33661D03*
X38287Y-28543D03*
X38090Y-30413D03*
X35236Y-27559D03*
X44291Y-34153D03*
G54D23*
X35137Y-33956D02*
X35137Y-30610D01*
X36515Y-35334D02*
X35137Y-33956D01*
X38385Y-35334D02*
X36515Y-35334D01*
X38484Y-35433D02*
X38385Y-35334D01*
X43100Y-31280D02*
X43140Y-31240D01*
X43100Y-35420D02*
X43100Y-31280D01*
X42320Y-36200D02*
X43100Y-35420D01*
X31988Y-39665D02*
X30610Y-39665D01*
X36023Y-39665D02*
X31988Y-39665D01*
X36417Y-39271D02*
X36023Y-39665D01*
X37795Y-37893D02*
X36417Y-39271D01*
X36417Y-22834D02*
X31972Y-22834D01*
X36712Y-33267D02*
X36712Y-28937D01*
X37106Y-33661D02*
X36712Y-33267D01*
X38287Y-30216D02*
X38287Y-28543D01*
X38090Y-30413D02*
X38287Y-30216D01*
X36417Y-26377D02*
X35236Y-27559D01*
X38385Y-26377D02*
X36417Y-26377D01*
X39566Y-27559D02*
X38385Y-26377D01*
X39566Y-38976D02*
X39566Y-27559D01*
X40255Y-39665D02*
X39566Y-38976D01*
X42618Y-39665D02*
X40255Y-39665D01*
X44192Y-38090D02*
X42618Y-39665D01*
X44192Y-34251D02*
X44192Y-38090D01*
X44291Y-34153D02*
X44192Y-34251D01*
M02*
