G04 (created by PCBNEW (2013-07-07 BZR 4022)-stable) date 16/12/2014 09:46:14*
%MOIN*%
G04 Gerber Fmt 3.4, Leading zero omitted, Abs format*
%FSLAX34Y34*%
G01*
G70*
G90*
G04 APERTURE LIST*
%ADD10C,0.00590551*%
%ADD11C,0.011811*%
%ADD12C,0.006*%
G04 APERTURE END LIST*
G54D10*
G54D11*
X40382Y-21569D02*
X40832Y-21569D01*
X40607Y-21794D02*
X40607Y-21344D01*
X41394Y-21203D02*
X41113Y-21203D01*
X41085Y-21484D01*
X41113Y-21456D01*
X41169Y-21428D01*
X41310Y-21428D01*
X41366Y-21456D01*
X41394Y-21484D01*
X41422Y-21541D01*
X41422Y-21681D01*
X41394Y-21737D01*
X41366Y-21766D01*
X41310Y-21794D01*
X41169Y-21794D01*
X41113Y-21766D01*
X41085Y-21737D01*
X41591Y-21203D02*
X41788Y-21794D01*
X41985Y-21203D01*
X36754Y-21133D02*
X36698Y-21105D01*
X36614Y-21105D01*
X36529Y-21133D01*
X36473Y-21189D01*
X36445Y-21245D01*
X36417Y-21358D01*
X36417Y-21442D01*
X36445Y-21555D01*
X36473Y-21611D01*
X36529Y-21667D01*
X36614Y-21695D01*
X36670Y-21695D01*
X36754Y-21667D01*
X36782Y-21639D01*
X36782Y-21442D01*
X36670Y-21442D01*
X37035Y-21695D02*
X37035Y-21105D01*
X37373Y-21695D01*
X37373Y-21105D01*
X37654Y-21695D02*
X37654Y-21105D01*
X37795Y-21105D01*
X37879Y-21133D01*
X37935Y-21189D01*
X37964Y-21245D01*
X37992Y-21358D01*
X37992Y-21442D01*
X37964Y-21555D01*
X37935Y-21611D01*
X37879Y-21667D01*
X37795Y-21695D01*
X37654Y-21695D01*
X33155Y-22679D02*
X32958Y-22398D01*
X32817Y-22679D02*
X32817Y-22089D01*
X33042Y-22089D01*
X33098Y-22117D01*
X33127Y-22145D01*
X33155Y-22201D01*
X33155Y-22286D01*
X33127Y-22342D01*
X33098Y-22370D01*
X33042Y-22398D01*
X32817Y-22398D01*
X34139Y-22679D02*
X33858Y-22679D01*
X33858Y-22089D01*
X30061Y-21133D02*
X30005Y-21105D01*
X29921Y-21105D01*
X29836Y-21133D01*
X29780Y-21189D01*
X29752Y-21245D01*
X29724Y-21358D01*
X29724Y-21442D01*
X29752Y-21555D01*
X29780Y-21611D01*
X29836Y-21667D01*
X29921Y-21695D01*
X29977Y-21695D01*
X30061Y-21667D01*
X30089Y-21639D01*
X30089Y-21442D01*
X29977Y-21442D01*
X30343Y-21695D02*
X30343Y-21105D01*
X30680Y-21695D01*
X30680Y-21105D01*
X30961Y-21695D02*
X30961Y-21105D01*
X31102Y-21105D01*
X31186Y-21133D01*
X31242Y-21189D01*
X31271Y-21245D01*
X31299Y-21358D01*
X31299Y-21442D01*
X31271Y-21555D01*
X31242Y-21611D01*
X31186Y-21667D01*
X31102Y-21695D01*
X30961Y-21695D01*
G54D10*
X44097Y-28588D02*
G75*
G03X44097Y-28588I-200J0D01*
G74*
G01*
X42897Y-28988D02*
X44897Y-28988D01*
X44897Y-28988D02*
X44897Y-28238D01*
X44897Y-28238D02*
X42897Y-28238D01*
X42897Y-28238D02*
X42897Y-28988D01*
X43897Y-34988D02*
X42897Y-34988D01*
X42897Y-34988D02*
X42897Y-32988D01*
X42897Y-32988D02*
X44897Y-32988D01*
X44897Y-32988D02*
X44897Y-34988D01*
X44897Y-34988D02*
X43897Y-34988D01*
X40354Y-39271D02*
X47539Y-39271D01*
X47539Y-39271D02*
X47539Y-26673D01*
X47539Y-26673D02*
X40354Y-26673D01*
X40354Y-26673D02*
X40354Y-39271D01*
G54D12*
X34472Y-20956D02*
X34472Y-21956D01*
X34472Y-21956D02*
X31472Y-21956D01*
X31472Y-21956D02*
X31472Y-20956D01*
X31472Y-20956D02*
X34472Y-20956D01*
X32472Y-21956D02*
X32472Y-20956D01*
G54D10*
X31846Y-24120D02*
G75*
G03X31846Y-24120I-640J0D01*
G74*
G01*
X29946Y-24120D02*
G75*
G03X29946Y-24120I-640J0D01*
G74*
G01*
X27206Y-25420D02*
X27206Y-28320D01*
X27206Y-28320D02*
X30906Y-28320D01*
X30906Y-28320D02*
X30906Y-25420D01*
X30906Y-25420D02*
X27206Y-25420D01*
X26406Y-31120D02*
X26406Y-32620D01*
X26406Y-32620D02*
X31306Y-32620D01*
X31306Y-32620D02*
X31306Y-31120D01*
X31306Y-31120D02*
X26406Y-31120D01*
X31806Y-39320D02*
X34706Y-39320D01*
X25706Y-39320D02*
X23806Y-39320D01*
X30606Y-38520D02*
X30606Y-37620D01*
X30606Y-37620D02*
X30506Y-37420D01*
X30506Y-37420D02*
X30506Y-37320D01*
X30506Y-37320D02*
X31006Y-37320D01*
X31006Y-37320D02*
X31006Y-37420D01*
X31006Y-37420D02*
X30906Y-37620D01*
X30906Y-37620D02*
X30906Y-38520D01*
X30406Y-37120D02*
X30406Y-38520D01*
X30406Y-38520D02*
X31106Y-38520D01*
X31106Y-38520D02*
X31106Y-37120D01*
X31106Y-37120D02*
X30406Y-37120D01*
X27806Y-37820D02*
X27806Y-38320D01*
X27806Y-38320D02*
X28706Y-38320D01*
X28706Y-38320D02*
X28706Y-37820D01*
X28706Y-37820D02*
X27806Y-37820D01*
X26406Y-37820D02*
X26406Y-38320D01*
X26406Y-38320D02*
X27306Y-38320D01*
X27306Y-38320D02*
X27306Y-37820D01*
X27306Y-37820D02*
X26406Y-37820D01*
X28206Y-34720D02*
X28206Y-36520D01*
X28206Y-36520D02*
X28606Y-36520D01*
X28606Y-36520D02*
X28606Y-34720D01*
X26706Y-34720D02*
X26706Y-36520D01*
X26706Y-36520D02*
X27106Y-36520D01*
X27106Y-36520D02*
X27106Y-34720D01*
X26106Y-35420D02*
X26106Y-38820D01*
X26106Y-38820D02*
X31306Y-38820D01*
X31306Y-38820D02*
X31306Y-34620D01*
X31306Y-34620D02*
X26106Y-34620D01*
X26106Y-34620D02*
X26106Y-35420D01*
X25706Y-39320D02*
X26206Y-38920D01*
X26206Y-38920D02*
X31306Y-38920D01*
X31306Y-38920D02*
X31806Y-39320D01*
X23806Y-23220D02*
X34706Y-23220D01*
X34706Y-23220D02*
X34706Y-39320D01*
X23806Y-39320D02*
X23806Y-23220D01*
G54D12*
X40173Y-20956D02*
X40173Y-21956D01*
X40173Y-21956D02*
X38173Y-21956D01*
X38173Y-21956D02*
X38173Y-20956D01*
X38173Y-20956D02*
X40173Y-20956D01*
X45751Y-21956D02*
X45751Y-20956D01*
X45751Y-20956D02*
X47751Y-20956D01*
X47751Y-20956D02*
X47751Y-21956D01*
X47751Y-21956D02*
X45751Y-21956D01*
G54D10*
X60820Y-35040D02*
X62100Y-33760D01*
X62100Y-33760D02*
X63379Y-35040D01*
X63379Y-35040D02*
X62100Y-36319D01*
X62100Y-36319D02*
X60820Y-35040D01*
X54816Y-31496D02*
X54816Y-38681D01*
X54816Y-38681D02*
X67414Y-38681D01*
X67414Y-38681D02*
X67414Y-31496D01*
X67414Y-31496D02*
X54816Y-31496D01*
M02*
