M48
INCH,TZ
T1C0.032
T2C0.040
%
G90
G05
T1
X30610Y-39665
X31972Y-22835
X35138Y-30610
X35236Y-27559
X36417Y-22835
X36713Y-28937
X37106Y-33661
X37795Y-37894
X38091Y-30413
X38287Y-28543
X38484Y-35433
X40898Y-27488
X40898Y-28488
X40898Y-29488
X40898Y-30488
X40898Y-31488
X40898Y-32488
X40898Y-33488
X40898Y-34488
X40898Y-35488
X40898Y-36488
X40898Y-37488
X40898Y-38488
X41878Y-34008
X41878Y-35008
X42320Y-36200
X42390Y-27461
X43140Y-31240
X43374Y-27461
X44291Y-34154
X44421Y-27461
X45406Y-27461
X46898Y-27488
X46898Y-28488
X46898Y-29488
X46898Y-30488
X46898Y-31488
X46898Y-32488
X46898Y-33488
X46898Y-34488
X46898Y-35488
X46898Y-36488
X46898Y-37488
X46898Y-38488
X55600Y-32040
X55600Y-38040
X56600Y-32040
X56600Y-38040
X57600Y-32040
X57600Y-38040
X58600Y-32040
X58600Y-38040
X59069Y-33032
X59600Y-32040
X59600Y-38040
X60053Y-33032
X60600Y-32040
X60600Y-38040
X61600Y-32040
X61600Y-38040
X62600Y-32040
X62600Y-38040
X63600Y-32040
X63600Y-38040
X64600Y-32040
X64600Y-38040
X65600Y-32040
X65600Y-38040
X66600Y-32040
X66600Y-38040
X66628Y-33032
X66628Y-34016
X66628Y-36064
X66628Y-37048
T2
X24606Y-23720
X24606Y-24720
X24606Y-25720
X24606Y-26720
X24606Y-27720
X24606Y-28720
X24606Y-29720
X24606Y-30720
X24606Y-31720
X24606Y-32720
X24606Y-33720
X24606Y-34720
X24606Y-35720
X24606Y-36720
X24606Y-37720
X24606Y-38720
X31972Y-21457
X32972Y-21457
X33606Y-23720
X33606Y-24720
X33606Y-25720
X33606Y-26720
X33606Y-27720
X33606Y-28720
X33606Y-29720
X33606Y-30720
X33606Y-31720
X33606Y-32720
X33606Y-33720
X33606Y-34720
X33606Y-35720
X33606Y-36720
X33606Y-37720
X33606Y-38720
X33972Y-21457
X38673Y-21457
X39673Y-21457
X46252Y-21457
X47252Y-21457
T0
M30
